M48
;Layer_Color=9474304
;FILE_FORMAT=4:4
METRIC,TZ
;TYPE=PLATED
T1F00S00C0.3000
T2F00S00C0.8000
T3F00S00C1.4000
T4F00S00C1.4986
T5F00S00C1.5000
T6F00S00C3.6000
%
T01
X466750Y127250
Y147875
Y168500
X467000Y192250
X466750Y211833
Y231417
Y251000
X462750Y263000
X454000Y256250
X452250Y269500
X452000Y315250
Y328000
Y340250
X444500Y334250
X443250Y322000
X399250Y285000
X403875Y279500
X408500Y274000
X397875
X563000Y286000
X578937Y280187
X594875Y274375
X611000Y292500
Y312000
X631167
Y292500
X651333
Y312000
X671500
Y292500
X664000Y253250
X643000Y253500
X626750Y262750
X578750Y234000
Y224500
X576250Y301500
X577500Y348000
X558000Y343500
X537500Y349500
X535500Y315250
X600375Y346000
X647125
X670500
X367340Y333750
Y326000
X364500Y319250
X364250Y309000
X364000Y301000
X368650Y295600
X373300Y290200
X377950Y284800
X382600Y279400
X387250Y274000
X392550Y280200
X387225Y286400
X387750Y297000
X381900Y292600
X376575Y298800
X371250Y305000
X383250Y308250
X353250Y298500
X345542
X337833
X330125
X323000
X322000Y284000
X314500
X307000
X305500Y299750
X297313
X289125
X280938
X272750
X263500Y298500
X255417
X255250Y288250
Y276444
Y264639
Y252833
Y241028
Y229222
Y217417
Y205611
Y193806
Y182000
X264250Y187306
Y199111
Y210917
Y222722
Y234528
Y246333
Y258139
Y269944
Y281750
X273500Y276194
Y288000
Y264389
Y252583
Y240778
Y228972
Y217167
Y205361
Y193556
Y181750
X283000Y186889
Y198694
Y210500
X294750Y225250
X292250Y233500
X308500Y236250
X320750
X320500Y223750
X308500
X303000Y243500
X309370Y256270
X319530
Y266430
X309370
X331250Y274500
X354000Y266250
X368750
X371500Y252583
X357000
Y238917
X356750Y225250
X334250Y226000
X336250Y233500
X326500Y243750
X340792Y180250
X355896Y189083
X365000Y180250
X355896Y167917
X358041Y93500
X358041Y72333
Y51167
Y30000
X345937Y40583
Y61750
Y82917
X333833Y93500
X333833Y72333
Y51167
Y30000
X321729Y40583
Y61750
Y82917
X309625Y93500
X309625Y72333
Y51167
Y30000
X297521Y40583
Y61750
Y82917
X285417Y93500
X285417Y72333
Y51167
Y30000
X273312Y40583
Y61750
Y82917
X261208Y93500
X261208Y72333
Y51167
Y30000
X249104Y40583
Y61750
Y82917
X237000Y72333
Y51167
Y30000
Y93500
X245250Y187750
Y199556
Y211361
Y223167
Y234972
Y246778
X292250Y181500
X370146Y82917
Y61750
Y40583
X382250Y30000
Y51167
Y72333
X382250Y93500
X141107Y341250
X126250
Y352750
X126500Y365250
X141357
X139250Y352750
X152250
X156214Y365250
X171071
X165500Y376750
X178500
X171821Y389250
X186679
X201536
X216393
X218250Y400750
X205250
X192250
X179250
X179250Y412250
X161917
X166250Y400750
X153250
X140250
X127250
Y412250
X112750Y410250
Y397250
Y384250
Y371250
Y358250
X103750Y404500
X144583Y412250
X156964Y389250
X152500Y376750
X196583Y412250
X213917
X225750Y412250
X212000Y492750
X212000Y504250
X212000Y515750
X194667
X197143Y529000
X182286
X167428
X152571
X147000Y540500
X160000
X173000
X186000
X165179Y553000
X150321
X135464
X134000Y540500
X121000
X120607Y553000
X118750Y564500
X131750
X144750
X157750
X160000Y517750
X160000Y504250
X173000
X186000
X199000
X197143Y492750
X182286
X167428
X152571
X137714
X122857
X121000Y504250
X134000
X147000
X108000
Y515750
X111000Y533250
X108000Y492750
X177333Y515750
X310000Y644000
X318083
X326167
X334250
X342333
X350417
X358500
X366583
X374667
X382750
X378583Y651500
X370500
X362417
X354333
X346250
X338167
X330083
X322000
X313917
X309917Y658250
X318000
X326083
X334167
X342250
X350333
X358417
X366500
X374583
X382667
X378750Y664500
X370667
X362583
X354500
X346417
X338333
X330250
X322167
X314083
X310083Y671250
X318167
X326250
X334333
X342417
X350500
X358583
X366667
X374750
X382833
X401750Y371250
X409250Y377000
X423250Y385250
X434500
Y396750
X453000Y415500
X470250Y418500
X490250
X510250
X530250
X604500Y444000
X616625
X628750
X655260Y443750
X655000Y431750
X676250
X676257Y443750
X697255
X697500Y431750
X718750
X718252Y443750
X739250
X740000Y431750
X721000Y395500
Y384250
X702450
X683900
X665350
X646800
X642250Y396000
X628250Y384250
T02
X397250Y33750
X424000
X423750Y77750
X403750
X472750Y104250
X495750
X476000Y282000
X597500Y301000
X610250Y267000
X689750Y259500
Y284138
Y314350
Y339750
X623750Y346000
X739077Y392691
Y415551
X708000Y438500
X449750Y372000
T03
X132250Y320250
Y383750
Y521000
Y584500
T04
X270500Y139250
X359250
T05
X244973Y113723
X296027
X333723
X384777
Y164777
X333723
X296027
X244973
T06
X737750Y76250
X45750
Y664250
X737750
M30
