%TF.GenerationSoftware,Altium Limited,Altium Designer,22.9.1 (49)*%
G04 Layer_Color=8388736*
%FSLAX45Y45*%
%MOMM*%
%TF.SameCoordinates,B7DE9D22-2107-43EB-A15B-9EDAE082944A*%
%TF.FilePolarity,Negative*%
%TF.FileFunction,Soldermask,Top*%
%TF.Part,Single*%
G01*
G75*
%TA.AperFunction,SMDPad,CuDef*%
G04:AMPARAMS|DCode=11|XSize=1.7mm|YSize=3.8mm|CornerRadius=0.425mm|HoleSize=0mm|Usage=FLASHONLY|Rotation=90.000|XOffset=0mm|YOffset=0mm|HoleType=Round|Shape=RoundedRectangle|*
%AMROUNDEDRECTD11*
21,1,1.70000,2.95000,0,0,90.0*
21,1,0.85000,3.80000,0,0,90.0*
1,1,0.85000,1.47500,0.42500*
1,1,0.85000,1.47500,-0.42500*
1,1,0.85000,-1.47500,-0.42500*
1,1,0.85000,-1.47500,0.42500*
%
%ADD11ROUNDEDRECTD11*%
G04:AMPARAMS|DCode=15|XSize=1.65506mm|YSize=0.58213mm|CornerRadius=0.29107mm|HoleSize=0mm|Usage=FLASHONLY|Rotation=180.000|XOffset=0mm|YOffset=0mm|HoleType=Round|Shape=RoundedRectangle|*
%AMROUNDEDRECTD15*
21,1,1.65506,0.00000,0,0,180.0*
21,1,1.07293,0.58213,0,0,180.0*
1,1,0.58213,-0.53646,0.00000*
1,1,0.58213,0.53646,0.00000*
1,1,0.58213,0.53646,0.00000*
1,1,0.58213,-0.53646,0.00000*
%
%ADD15ROUNDEDRECTD15*%
%ADD16R,1.65506X0.58213*%
%ADD22R,0.71120X0.39370*%
G04:AMPARAMS|DCode=38|XSize=1.50543mm|YSize=0.57583mm|CornerRadius=0.28791mm|HoleSize=0mm|Usage=FLASHONLY|Rotation=90.000|XOffset=0mm|YOffset=0mm|HoleType=Round|Shape=RoundedRectangle|*
%AMROUNDEDRECTD38*
21,1,1.50543,0.00000,0,0,90.0*
21,1,0.92960,0.57583,0,0,90.0*
1,1,0.57583,0.00000,0.46480*
1,1,0.57583,0.00000,-0.46480*
1,1,0.57583,0.00000,-0.46480*
1,1,0.57583,0.00000,0.46480*
%
%ADD38ROUNDEDRECTD38*%
%ADD39R,0.57583X1.50543*%
G04:AMPARAMS|DCode=43|XSize=1.7mm|YSize=3.8mm|CornerRadius=0.425mm|HoleSize=0mm|Usage=FLASHONLY|Rotation=0.000|XOffset=0mm|YOffset=0mm|HoleType=Round|Shape=RoundedRectangle|*
%AMROUNDEDRECTD43*
21,1,1.70000,2.95000,0,0,0.0*
21,1,0.85000,3.80000,0,0,0.0*
1,1,0.85000,0.42500,-1.47500*
1,1,0.85000,-0.42500,-1.47500*
1,1,0.85000,-0.42500,1.47500*
1,1,0.85000,0.42500,1.47500*
%
%ADD43ROUNDEDRECTD43*%
%TA.AperFunction,ComponentPad*%
%ADD55C,1.30000*%
%ADD57C,1.90500*%
%ADD62R,1.30000X1.30000*%
%TA.AperFunction,SMDPad,CuDef*%
G04:AMPARAMS|DCode=70|XSize=8.2032mm|YSize=4.7032mm|CornerRadius=1.2266mm|HoleSize=0mm|Usage=FLASHONLY|Rotation=0.000|XOffset=0mm|YOffset=0mm|HoleType=Round|Shape=RoundedRectangle|*
%AMROUNDEDRECTD70*
21,1,8.20320,2.25000,0,0,0.0*
21,1,5.75000,4.70320,0,0,0.0*
1,1,2.45320,2.87500,-1.12500*
1,1,2.45320,-2.87500,-1.12500*
1,1,2.45320,-2.87500,1.12500*
1,1,2.45320,2.87500,1.12500*
%
%ADD70ROUNDEDRECTD70*%
%ADD72R,0.95320X1.05320*%
%ADD73R,1.05320X0.95320*%
%ADD74R,1.15320X1.15320*%
%ADD75R,0.65320X0.65320*%
%ADD76R,1.65320X1.20320*%
%ADD77R,1.20320X1.65320*%
%ADD78C,1.50320*%
%TA.AperFunction,ComponentPad*%
%ADD79C,6.20320*%
%ADD80C,2.20980*%
%ADD81C,2.70320*%
%ADD82C,1.50320*%
%ADD83R,1.50320X1.50320*%
%TA.AperFunction,ViaPad*%
%ADD84C,0.80320*%
%TA.AperFunction,SMDPad,CuDef*%
%ADD92R,1.40320X1.80320*%
%ADD93R,3.50320X1.80320*%
%ADD94R,0.65320X0.65320*%
%ADD95R,1.40320X1.40320*%
%ADD96R,1.72720X1.72720*%
%ADD97R,0.72320X0.72320*%
%ADD98R,3.45320X2.35320*%
%ADD99R,1.20320X2.35320*%
%ADD100R,1.55320X1.85320*%
%ADD101R,7.20320X3.40320*%
%ADD102R,1.15320X1.15320*%
G04:AMPARAMS|DCode=103|XSize=0.96mm|YSize=0.36mm|CornerRadius=0.0825mm|HoleSize=0mm|Usage=FLASHONLY|Rotation=0.000|XOffset=0mm|YOffset=0mm|HoleType=Round|Shape=RoundedRectangle|*
%AMROUNDEDRECTD103*
21,1,0.96000,0.19500,0,0,0.0*
21,1,0.79500,0.36000,0,0,0.0*
1,1,0.16500,0.39750,-0.09750*
1,1,0.16500,-0.39750,-0.09750*
1,1,0.16500,-0.39750,0.09750*
1,1,0.16500,0.39750,0.09750*
%
%ADD103ROUNDEDRECTD103*%
G04:AMPARAMS|DCode=104|XSize=0.96mm|YSize=0.36mm|CornerRadius=0.0825mm|HoleSize=0mm|Usage=FLASHONLY|Rotation=90.000|XOffset=0mm|YOffset=0mm|HoleType=Round|Shape=RoundedRectangle|*
%AMROUNDEDRECTD104*
21,1,0.96000,0.19500,0,0,90.0*
21,1,0.79500,0.36000,0,0,90.0*
1,1,0.16500,0.09750,0.39750*
1,1,0.16500,0.09750,-0.39750*
1,1,0.16500,-0.09750,-0.39750*
1,1,0.16500,-0.09750,0.39750*
%
%ADD104ROUNDEDRECTD104*%
%ADD105R,1.50000X1.50000*%
%ADD106R,1.40320X1.40320*%
%ADD107R,1.72720X1.72720*%
%ADD108R,1.35320X1.95320*%
%ADD109R,0.72320X0.72320*%
%ADD110R,1.20320X1.20320*%
%ADD111R,0.65320X1.90320*%
%ADD112R,1.45320X3.60320*%
D11*
X4973320Y7831719D02*
D03*
Y8261721D02*
D03*
X2730500Y8279500D02*
D03*
Y7849500D02*
D03*
X3131820Y8279500D02*
D03*
Y7849500D02*
D03*
X3535680Y7846060D02*
D03*
Y8276062D02*
D03*
X2324100Y8279500D02*
D03*
Y7849500D02*
D03*
X4165600Y7831719D02*
D03*
Y8261721D02*
D03*
X5372100Y8261720D02*
D03*
Y7831720D02*
D03*
X4572000Y7831719D02*
D03*
Y8261721D02*
D03*
D15*
X5349277Y5378606D02*
D03*
Y5251606D02*
D03*
X6305391Y5378606D02*
D03*
Y5251606D02*
D03*
X5349277Y5505606D02*
D03*
Y5124606D02*
D03*
X6305391Y5505606D02*
D03*
X6532208Y7008323D02*
D03*
X5576093Y6627323D02*
D03*
Y7008323D02*
D03*
X6532208Y6754323D02*
D03*
Y6881323D02*
D03*
X5576093Y6754323D02*
D03*
Y6881323D02*
D03*
D16*
X6305391Y5124606D02*
D03*
X6532208Y6627323D02*
D03*
D22*
X5412517Y6607922D02*
D03*
Y6538072D02*
D03*
X5177254Y5048262D02*
D03*
Y5118112D02*
D03*
D38*
X7446635Y4184409D02*
D03*
Y3964332D02*
D03*
X7256635Y4184409D02*
D03*
X7351635Y3964332D02*
D03*
D39*
X7256635D02*
D03*
D43*
X2018400Y8394700D02*
D03*
X1588400D02*
D03*
X2018400Y8801100D02*
D03*
X1588400D02*
D03*
D55*
X5372100Y4343400D02*
D03*
X3276600Y3784600D02*
D03*
X4775200Y3200400D02*
D03*
X1841500Y6197600D02*
D03*
X2298700Y4584700D02*
D03*
X7407663Y3001843D02*
D03*
X5350798Y3098800D02*
D03*
X8128000Y6189980D02*
D03*
X7366000Y9707182D02*
D03*
Y8331200D02*
D03*
X2590800Y1739900D02*
D03*
X5579398Y3098800D02*
D03*
X7153663Y3001843D02*
D03*
X2362200Y1739900D02*
D03*
X8026400Y6959600D02*
D03*
X7366000Y8564182D02*
D03*
Y9474200D02*
D03*
X7749540Y5450840D02*
D03*
X8128000Y5943600D02*
D03*
D57*
X3608070Y3379470D02*
D03*
Y2868930D02*
D03*
X3097530Y3379470D02*
D03*
Y2868930D02*
D03*
X4370070Y3379470D02*
D03*
Y2868930D02*
D03*
X3859530D02*
D03*
Y3379470D02*
D03*
D62*
X8026400Y6705600D02*
D03*
X7749540Y5196840D02*
D03*
D70*
X3911600Y6451600D02*
D03*
X3352800Y7505700D02*
D03*
X3683000Y5461000D02*
D03*
D72*
X6566900Y6426200D02*
D03*
X6691900D02*
D03*
X5537200Y7315200D02*
D03*
X5662200D02*
D03*
X6501400Y4927600D02*
D03*
X6376400D02*
D03*
X5120746Y5603787D02*
D03*
X5245746D02*
D03*
X2439400Y3098800D02*
D03*
X2564400D02*
D03*
X7997460Y3838580D02*
D03*
X7872460D02*
D03*
X5661633Y7201401D02*
D03*
X5536633D02*
D03*
X2084800Y3098800D02*
D03*
X2209800D02*
D03*
X6914880Y9169400D02*
D03*
X7039880D02*
D03*
X5119100Y5715000D02*
D03*
X5244100D02*
D03*
X6901720Y3270200D02*
D03*
X6776720D02*
D03*
D73*
X5745013Y6438317D02*
D03*
Y6313317D02*
D03*
X5515898Y6437900D02*
D03*
Y6312900D02*
D03*
X3854682Y4166643D02*
D03*
Y4291641D02*
D03*
X5498628Y5805346D02*
D03*
Y5680346D02*
D03*
X5384577Y4813969D02*
D03*
Y4938969D02*
D03*
X5268014Y4813737D02*
D03*
Y4938737D02*
D03*
X3614682Y4166643D02*
D03*
Y4291641D02*
D03*
X5861019Y6438369D02*
D03*
Y6313369D02*
D03*
X5632419Y6439369D02*
D03*
Y6314369D02*
D03*
X7868200Y3576720D02*
D03*
Y3701720D02*
D03*
X5377702Y5805042D02*
D03*
Y5680042D02*
D03*
X5147598Y4814300D02*
D03*
Y4939300D02*
D03*
X5500582Y4812724D02*
D03*
Y4937724D02*
D03*
X3734682Y4166643D02*
D03*
Y4291641D02*
D03*
D74*
X6964718Y3752920D02*
D03*
Y3602920D02*
D03*
X7620038Y4156780D02*
D03*
Y4006780D02*
D03*
X7137400Y7646600D02*
D03*
Y7796600D02*
D03*
X7561618Y3763080D02*
D03*
Y3613080D02*
D03*
X7721600Y3608000D02*
D03*
Y3758000D02*
D03*
D75*
X5012636Y6492789D02*
D03*
X5092636D02*
D03*
X5247531Y6741293D02*
D03*
X5327531D02*
D03*
X6675760Y5374640D02*
D03*
X6755760D02*
D03*
X5247154Y6494275D02*
D03*
X5167153D02*
D03*
X5085502Y5348643D02*
D03*
X5005502D02*
D03*
X4714621Y5137222D02*
D03*
X4794621D02*
D03*
X5005915Y5078888D02*
D03*
X5085915D02*
D03*
X6984360Y6741160D02*
D03*
X6904360D02*
D03*
X5330800Y6570778D02*
D03*
X5250800D02*
D03*
X5247954Y6821270D02*
D03*
X5327955D02*
D03*
X5246844Y6660242D02*
D03*
X5326844D02*
D03*
X3854681Y3829142D02*
D03*
X3774681D02*
D03*
X3614681Y3829142D02*
D03*
X3694681D02*
D03*
X6981180Y6898640D02*
D03*
X6901180D02*
D03*
X5086000Y5170778D02*
D03*
X5006000D02*
D03*
X5005998Y5257800D02*
D03*
X5085998D02*
D03*
X3694681Y4009142D02*
D03*
X3774681D02*
D03*
X6673220Y5257800D02*
D03*
X6753220D02*
D03*
D76*
X2794000Y4311400D02*
D03*
Y4121400D02*
D03*
X2997200Y4311400D02*
D03*
Y4121400D02*
D03*
X6450618Y4170680D02*
D03*
Y4360680D02*
D03*
X7175500Y5950200D02*
D03*
Y6140200D02*
D03*
X6432790Y9514106D02*
D03*
Y9324106D02*
D03*
X6234670Y9514106D02*
D03*
Y9324106D02*
D03*
X7054603Y4173314D02*
D03*
Y4363314D02*
D03*
X6039090Y9514106D02*
D03*
Y9324106D02*
D03*
X6858038Y4172200D02*
D03*
Y4362200D02*
D03*
X2590800Y4121400D02*
D03*
Y4311400D02*
D03*
X6653818Y4173220D02*
D03*
Y4363220D02*
D03*
X6946900Y5950200D02*
D03*
Y6140200D02*
D03*
D77*
X6193540Y7708900D02*
D03*
X6003540D02*
D03*
X5595887Y3365454D02*
D03*
X5405887D02*
D03*
X5593984Y3565502D02*
D03*
X5403984D02*
D03*
X5875058Y4196080D02*
D03*
X5685058D02*
D03*
X7220144Y3302985D02*
D03*
X7410144D02*
D03*
X2371151Y2737215D02*
D03*
X2561151D02*
D03*
X6193540Y7899400D02*
D03*
X6003540D02*
D03*
X6194571Y8088794D02*
D03*
X6004570D02*
D03*
X5872868Y4391064D02*
D03*
X5682868D02*
D03*
X2558800Y2540000D02*
D03*
X2368800D02*
D03*
X7223963Y3514287D02*
D03*
X7413963D02*
D03*
X6195060Y8277860D02*
D03*
X6005060D02*
D03*
X6015258Y4003040D02*
D03*
X6205258D02*
D03*
X5877598Y4000500D02*
D03*
X5687598D02*
D03*
X7221258Y3710940D02*
D03*
X7411258D02*
D03*
X5594138Y3769360D02*
D03*
X5404138D02*
D03*
X2368800Y2933700D02*
D03*
X2558800D02*
D03*
D78*
X2311400Y4216400D02*
D03*
X4960118Y4937346D02*
D03*
X3169920Y5257800D02*
D03*
X7160260Y6606540D02*
D03*
X5029200Y6350000D02*
D03*
X6172200Y7518400D02*
D03*
X5918200Y7442200D02*
D03*
X4343400Y4800600D02*
D03*
X6926580Y5509260D02*
D03*
X4691380Y4993640D02*
D03*
X6959600Y7045960D02*
D03*
X6949440Y6601460D02*
D03*
X5397500Y4089400D02*
D03*
X2121810Y6024942D02*
D03*
X5715000Y4599940D02*
D03*
X6924040Y5123180D02*
D03*
X6731000D02*
D03*
X6738620Y5509260D02*
D03*
X965200Y7442200D02*
D03*
X7899400Y3136900D02*
D03*
X1968500Y4229100D02*
D03*
X5946140Y4605020D02*
D03*
X7157720Y7043420D02*
D03*
X7388860Y6055360D02*
D03*
X5277773Y6367467D02*
D03*
D79*
X2082800Y10718800D02*
D03*
X8128000Y2286000D02*
D03*
X4622800Y9461500D02*
D03*
X8178800Y10718800D02*
D03*
X4648200Y4140200D02*
D03*
X1016000Y2286000D02*
D03*
D80*
X3352800Y3124200D02*
D03*
X4114800D02*
D03*
D81*
X914400Y10121900D02*
D03*
Y10756900D02*
D03*
X905798Y8542020D02*
D03*
Y9177020D02*
D03*
D82*
X2365400Y2146300D02*
D03*
D83*
X2565400D02*
D03*
D84*
X3530600Y6426200D02*
D03*
Y6629400D02*
D03*
X5156200Y5511800D02*
D03*
X5169088Y5796380D02*
D03*
X5233623Y5874360D02*
D03*
X5059383Y5535767D02*
D03*
X5058441Y5653502D02*
D03*
X3048000Y4419600D02*
D03*
X2971800D02*
D03*
X2870200D02*
D03*
X2768600D02*
D03*
X3073400Y4038600D02*
D03*
X2895600D02*
D03*
X2692400D02*
D03*
X2540000D02*
D03*
D92*
X5829494Y3770746D02*
D03*
X6059494D02*
D03*
X6289494D02*
D03*
X6558650Y9133028D02*
D03*
X6328650D02*
D03*
X6098649D02*
D03*
D93*
X6059494Y3130746D02*
D03*
X6328650Y8493028D02*
D03*
D94*
X5411221Y6705505D02*
D03*
Y6785505D02*
D03*
X3484681Y4779142D02*
D03*
Y4699142D02*
D03*
X4044682Y4399142D02*
D03*
Y4319142D02*
D03*
X4406900Y5132700D02*
D03*
Y5052700D02*
D03*
X4086900Y5132700D02*
D03*
Y5052700D02*
D03*
X4486900Y5132700D02*
D03*
Y5052700D02*
D03*
X3881771Y8580120D02*
D03*
Y8660120D02*
D03*
X6731000Y6974200D02*
D03*
Y6894200D02*
D03*
X6819900Y6665600D02*
D03*
Y6745600D02*
D03*
X3489960Y5052700D02*
D03*
Y5132700D02*
D03*
X3408680Y5052700D02*
D03*
Y5132700D02*
D03*
X3984681Y4499142D02*
D03*
Y4579142D02*
D03*
X3484681D02*
D03*
Y4499142D02*
D03*
X3424682Y4399142D02*
D03*
Y4319142D02*
D03*
X3846900Y5132700D02*
D03*
Y5052701D02*
D03*
X4166900Y5132700D02*
D03*
Y5052700D02*
D03*
X6591300Y5370200D02*
D03*
Y5450200D02*
D03*
X6502400Y5261600D02*
D03*
Y5181600D02*
D03*
X2921000Y5052700D02*
D03*
Y5132700D02*
D03*
X3083560Y5052700D02*
D03*
Y5132700D02*
D03*
X4246900D02*
D03*
Y5052700D02*
D03*
X3926900Y5132700D02*
D03*
Y5052700D02*
D03*
X6591300Y5262240D02*
D03*
Y5182240D02*
D03*
X6502400Y5370200D02*
D03*
Y5450200D02*
D03*
X6731000Y6665600D02*
D03*
Y6745600D02*
D03*
X3652520Y5052700D02*
D03*
Y5132700D02*
D03*
X3571240Y5052700D02*
D03*
Y5132700D02*
D03*
X3246120Y5052700D02*
D03*
Y5132700D02*
D03*
X5173100Y5298689D02*
D03*
Y5218689D02*
D03*
X3766900Y5052701D02*
D03*
Y5132700D02*
D03*
X3994682Y4779142D02*
D03*
Y4699142D02*
D03*
X4326900Y5132700D02*
D03*
Y5052700D02*
D03*
X4911378Y5078100D02*
D03*
Y5158100D02*
D03*
X4006900Y5132700D02*
D03*
Y5052700D02*
D03*
X3801773Y8580120D02*
D03*
Y8660120D02*
D03*
X6819900Y6973560D02*
D03*
Y6893560D02*
D03*
X3327400Y5052700D02*
D03*
Y5132700D02*
D03*
X3164840Y5052700D02*
D03*
Y5132700D02*
D03*
X3002280Y5052700D02*
D03*
Y5132700D02*
D03*
D95*
X6576584Y3440485D02*
D03*
X6776584D02*
D03*
X7816198Y3998300D02*
D03*
X8016198D02*
D03*
X7059600Y8659200D02*
D03*
X6859600D02*
D03*
D96*
X6676584Y3770484D02*
D03*
X7916198Y4328300D02*
D03*
X6959600Y8989200D02*
D03*
D97*
X3693681Y3919142D02*
D03*
X3775682D02*
D03*
X3945682D02*
D03*
X3863681D02*
D03*
X3523680Y3919142D02*
D03*
X3605682D02*
D03*
D98*
X2319020Y3886200D02*
D03*
D99*
X2549020Y3301200D02*
D03*
X2319020D02*
D03*
X2089020D02*
D03*
D100*
X4837998Y5292100D02*
D03*
X4637998D02*
D03*
X4437998D02*
D03*
X4237998D02*
D03*
X4437998Y6087100D02*
D03*
X4237998D02*
D03*
X4637998D02*
D03*
X4837998D02*
D03*
X5078094Y6627564D02*
D03*
X4878094D02*
D03*
X4478093Y7422564D02*
D03*
X4678094D02*
D03*
X4878094D02*
D03*
X5078094D02*
D03*
X4678094Y6627564D02*
D03*
X4478093D02*
D03*
D101*
X4537998Y5598600D02*
D03*
X4778094Y6934064D02*
D03*
D102*
X6917620Y9306560D02*
D03*
X7067620D02*
D03*
D103*
X3879682Y4614142D02*
D03*
Y4464142D02*
D03*
Y4514142D02*
D03*
Y4564142D02*
D03*
X3589682Y4614142D02*
D03*
Y4464142D02*
D03*
Y4564142D02*
D03*
Y4514142D02*
D03*
D104*
X3759682Y4684142D02*
D03*
X3809682D02*
D03*
X3709682D02*
D03*
X3659682D02*
D03*
X3759682Y4394142D02*
D03*
X3709682D02*
D03*
X3659682D02*
D03*
X3809682D02*
D03*
D105*
X3734682Y4539142D02*
D03*
D106*
X6911000Y7647000D02*
D03*
Y7847000D02*
D03*
D107*
X6581000Y7747000D02*
D03*
D108*
X2702300Y6350000D02*
D03*
X2987300D02*
D03*
X2530100D02*
D03*
X2245100D02*
D03*
D109*
X3954681Y4318141D02*
D03*
Y4400143D02*
D03*
X3514681Y4318141D02*
D03*
Y4400143D02*
D03*
D110*
X3839829Y8468658D02*
D03*
Y7898657D02*
D03*
D111*
X3119100Y6350000D02*
D03*
X3434100D02*
D03*
D112*
X1460302Y9207500D02*
D03*
X2070298D02*
D03*
%TF.MD5,2eb4938ca3c4ce08983853ff8a4156d1*%
M02*
