%TF.GenerationSoftware,Altium Limited,Altium Designer,22.9.1 (49)*%
G04 Layer_Physical_Order=1*
G04 Layer_Color=255*
%FSLAX45Y45*%
%MOMM*%
%TF.SameCoordinates,B7DE9D22-2107-43EB-A15B-9EDAE082944A*%
%TF.FilePolarity,Positive*%
%TF.FileFunction,Copper,L1,Top,Signal*%
%TF.Part,Single*%
G01*
G75*
%TA.AperFunction,SMDPad,CuDef*%
%ADD10R,1.45000X1.00000*%
G04:AMPARAMS|DCode=11|XSize=1.7mm|YSize=3.8mm|CornerRadius=0.425mm|HoleSize=0mm|Usage=FLASHONLY|Rotation=90.000|XOffset=0mm|YOffset=0mm|HoleType=Round|Shape=RoundedRectangle|*
%AMROUNDEDRECTD11*
21,1,1.70000,2.95000,0,0,90.0*
21,1,0.85000,3.80000,0,0,90.0*
1,1,0.85000,1.47500,0.42500*
1,1,0.85000,1.47500,-0.42500*
1,1,0.85000,-1.47500,-0.42500*
1,1,0.85000,-1.47500,0.42500*
%
%ADD11ROUNDEDRECTD11*%
%ADD12C,1.30000*%
%ADD13R,1.00000X1.45000*%
%ADD14R,0.75000X0.85000*%
G04:AMPARAMS|DCode=15|XSize=1.65506mm|YSize=0.58213mm|CornerRadius=0.29107mm|HoleSize=0mm|Usage=FLASHONLY|Rotation=180.000|XOffset=0mm|YOffset=0mm|HoleType=Round|Shape=RoundedRectangle|*
%AMROUNDEDRECTD15*
21,1,1.65506,0.00000,0,0,180.0*
21,1,1.07293,0.58213,0,0,180.0*
1,1,0.58213,-0.53646,0.00000*
1,1,0.58213,0.53646,0.00000*
1,1,0.58213,0.53646,0.00000*
1,1,0.58213,-0.53646,0.00000*
%
%ADD15ROUNDEDRECTD15*%
%ADD16R,1.65506X0.58213*%
%ADD17R,1.20000X1.60000*%
%ADD18R,3.30000X1.60000*%
G04:AMPARAMS|DCode=19|XSize=8mm|YSize=4.5mm|CornerRadius=1.125mm|HoleSize=0mm|Usage=FLASHONLY|Rotation=180.000|XOffset=0mm|YOffset=0mm|HoleType=Round|Shape=RoundedRectangle|*
%AMROUNDEDRECTD19*
21,1,8.00000,2.25000,0,0,180.0*
21,1,5.75000,4.50000,0,0,180.0*
1,1,2.25000,-2.87500,1.12500*
1,1,2.25000,2.87500,1.12500*
1,1,2.25000,2.87500,-1.12500*
1,1,2.25000,-2.87500,-1.12500*
%
%ADD19ROUNDEDRECTD19*%
%ADD20R,0.45000X0.45000*%
%ADD21R,0.45000X0.45000*%
%ADD22R,0.71120X0.39370*%
%ADD23R,0.85000X0.75000*%
%ADD24R,1.20000X1.20000*%
%ADD25R,1.52400X1.52400*%
%ADD26R,0.52000X0.52000*%
%ADD27R,3.25000X2.15000*%
%ADD28R,1.00000X2.15000*%
%ADD29R,1.35000X1.65000*%
%ADD30R,7.00000X3.20000*%
%ADD31R,0.95000X0.95000*%
G04:AMPARAMS|DCode=32|XSize=0.86mm|YSize=0.26mm|CornerRadius=0.0325mm|HoleSize=0mm|Usage=FLASHONLY|Rotation=0.000|XOffset=0mm|YOffset=0mm|HoleType=Round|Shape=RoundedRectangle|*
%AMROUNDEDRECTD32*
21,1,0.86000,0.19500,0,0,0.0*
21,1,0.79500,0.26000,0,0,0.0*
1,1,0.06500,0.39750,-0.09750*
1,1,0.06500,-0.39750,-0.09750*
1,1,0.06500,-0.39750,0.09750*
1,1,0.06500,0.39750,0.09750*
%
%ADD32ROUNDEDRECTD32*%
G04:AMPARAMS|DCode=33|XSize=0.86mm|YSize=0.26mm|CornerRadius=0.0325mm|HoleSize=0mm|Usage=FLASHONLY|Rotation=90.000|XOffset=0mm|YOffset=0mm|HoleType=Round|Shape=RoundedRectangle|*
%AMROUNDEDRECTD33*
21,1,0.86000,0.19500,0,0,90.0*
21,1,0.79500,0.26000,0,0,90.0*
1,1,0.06500,0.09750,0.39750*
1,1,0.06500,0.09750,-0.39750*
1,1,0.06500,-0.09750,-0.39750*
1,1,0.06500,-0.09750,0.39750*
%
%ADD33ROUNDEDRECTD33*%
%ADD34R,1.40000X1.40000*%
%ADD35R,1.20000X1.20000*%
%ADD36R,1.52400X1.52400*%
%ADD37R,1.15000X1.75000*%
G04:AMPARAMS|DCode=38|XSize=1.50543mm|YSize=0.57583mm|CornerRadius=0.28791mm|HoleSize=0mm|Usage=FLASHONLY|Rotation=90.000|XOffset=0mm|YOffset=0mm|HoleType=Round|Shape=RoundedRectangle|*
%AMROUNDEDRECTD38*
21,1,1.50543,0.00000,0,0,90.0*
21,1,0.92960,0.57583,0,0,90.0*
1,1,0.57583,0.00000,0.46480*
1,1,0.57583,0.00000,-0.46480*
1,1,0.57583,0.00000,-0.46480*
1,1,0.57583,0.00000,0.46480*
%
%ADD38ROUNDEDRECTD38*%
%ADD39R,0.57583X1.50543*%
%ADD40R,0.95000X0.95000*%
%ADD41R,0.52000X0.52000*%
%ADD42R,1.00000X1.00000*%
G04:AMPARAMS|DCode=43|XSize=1.7mm|YSize=3.8mm|CornerRadius=0.425mm|HoleSize=0mm|Usage=FLASHONLY|Rotation=0.000|XOffset=0mm|YOffset=0mm|HoleType=Round|Shape=RoundedRectangle|*
%AMROUNDEDRECTD43*
21,1,1.70000,2.95000,0,0,0.0*
21,1,0.85000,3.80000,0,0,0.0*
1,1,0.85000,0.42500,-1.47500*
1,1,0.85000,-0.42500,-1.47500*
1,1,0.85000,-0.42500,1.47500*
1,1,0.85000,0.42500,1.47500*
%
%ADD43ROUNDEDRECTD43*%
%ADD44R,0.45000X1.70000*%
%ADD45R,1.25000X3.40000*%
%TA.AperFunction,Conductor*%
%ADD46C,0.30000*%
%ADD47C,0.50000*%
%ADD48C,0.63500*%
%ADD49C,0.80000*%
%ADD50C,0.18500*%
%ADD51C,0.25000*%
%ADD52C,0.76200*%
%ADD53C,0.50800*%
%ADD54C,0.40000*%
%TA.AperFunction,ComponentPad*%
%ADD55C,1.30000*%
%ADD56C,6.00000*%
%ADD57C,1.90500*%
%ADD58C,2.00660*%
%ADD59C,0.60000*%
%ADD60C,2.50000*%
%ADD61R,1.30000X1.30000*%
%ADD62R,1.30000X1.30000*%
%TA.AperFunction,ViaPad*%
%ADD63C,0.60000*%
G36*
X6527800Y9448800D02*
X5892800D01*
Y9601200D01*
X5969000Y9677400D01*
X6527800D01*
Y9448800D01*
D02*
G37*
G36*
X7467600Y9372600D02*
X7198073D01*
X7188200Y9374564D01*
X7082861D01*
X7082860Y9374564D01*
X7080325Y9374060D01*
X7000120D01*
Y9372600D01*
X6985120D01*
Y9374060D01*
X6850120D01*
Y9372600D01*
X6832600D01*
X6731000Y9271000D01*
X6223000D01*
X6172200Y9220200D01*
Y9042400D01*
X5994400D01*
Y9220200D01*
X5943600Y9271000D01*
Y9372600D01*
X6502400D01*
X6705600Y9575800D01*
X7467600D01*
Y9372600D01*
D02*
G37*
G36*
X4013200Y8737600D02*
Y8636000D01*
X3683000D01*
Y8737600D01*
X3733800Y8788400D01*
X3962400D01*
X4013200Y8737600D01*
D02*
G37*
G36*
X2302798Y8529320D02*
X3769829D01*
Y8398658D01*
X3909829D01*
Y8529320D01*
X5562600D01*
Y8186420D01*
X1921798D01*
Y8529320D01*
Y9461500D01*
X2302798D01*
Y8529320D01*
D02*
G37*
G36*
X7315200Y7848600D02*
Y7747000D01*
X7085800D01*
Y7756946D01*
X7078188Y7775323D01*
X7064123Y7789388D01*
X7045746Y7797000D01*
X7025854D01*
X7020960Y7794972D01*
X7010400Y7802028D01*
Y7950200D01*
X7213600D01*
X7315200Y7848600D01*
D02*
G37*
G36*
X6985000Y7772400D02*
X6939600Y7727000D01*
X6831000D01*
Y7618400D01*
X6769100Y7556500D01*
X6502400D01*
X6502400Y7950200D01*
X6985000D01*
Y7772400D01*
D02*
G37*
G36*
X6261100Y7505700D02*
X6197600Y7442200D01*
X6083300D01*
Y7569200D01*
X6134100Y7620000D01*
Y8356600D01*
X6261100D01*
Y7505700D01*
D02*
G37*
G36*
X1689100Y8153400D02*
X1897380Y7945120D01*
X5181600Y7945120D01*
X5575300D01*
Y7740896D01*
X5130800Y7489691D01*
Y7335520D01*
X3924300D01*
X3776980Y7188200D01*
X731520D01*
X248920Y7670800D01*
Y9474200D01*
X1689100D01*
Y8153400D01*
D02*
G37*
G36*
X5588000Y7086600D02*
X5562600Y7061200D01*
X5479915D01*
X5479915Y7334114D01*
X5511800Y7366000D01*
X5588000Y7366000D01*
Y7086600D01*
D02*
G37*
G36*
X5791200Y6985000D02*
X5765800Y6959600D01*
X5461000D01*
Y7035800D01*
X5588000D01*
X5613400Y7061200D01*
Y7416800D01*
X5791200D01*
Y6985000D01*
D02*
G37*
G36*
X6413500Y8966200D02*
X6604000Y8775700D01*
X6921500D01*
Y8597900D01*
X6502400D01*
Y8407400D01*
X6070600D01*
Y7620000D01*
X6057900Y7607300D01*
X6045200D01*
Y7366000D01*
X5969000Y7289800D01*
Y6400800D01*
X5461000D01*
Y6498387D01*
X5468077D01*
Y6568237D01*
Y6647606D01*
X5477798Y6654800D01*
X5664200D01*
X5816600Y6807200D01*
Y7493000D01*
X5937250Y7613650D01*
X5930900Y7620000D01*
Y8763000D01*
X6032500D01*
X6248400Y8978900D01*
Y9220200D01*
X6413500D01*
Y8966200D01*
D02*
G37*
G36*
X6629400Y6311900D02*
X6527800D01*
X6426200Y6413500D01*
Y6667500D01*
X6629400D01*
Y6311900D01*
D02*
G37*
G36*
X8407400Y7035800D02*
Y5003800D01*
X8255000Y4851400D01*
X6446092D01*
X6433887Y4863911D01*
X6433900Y4865100D01*
X6433900D01*
Y4990100D01*
X6433892D01*
Y5156200D01*
X6432340Y5164004D01*
X6427919Y5170619D01*
X6421304Y5175040D01*
X6413500Y5176592D01*
X6223000D01*
X6215196Y5175040D01*
X6214348Y5174473D01*
X6201168Y5176810D01*
X6197600Y5184326D01*
Y5221390D01*
X6210300Y5225242D01*
X6216340Y5216202D01*
X6232584Y5205348D01*
X6251744Y5201537D01*
X6359037D01*
X6378198Y5205348D01*
X6394441Y5216202D01*
X6401509Y5226780D01*
X6459900D01*
Y5219100D01*
X6544900D01*
X6548800Y5208015D01*
Y5200353D01*
X6548534Y5199954D01*
X6545011Y5182240D01*
Y5126844D01*
X6541300Y5117886D01*
Y5097994D01*
X6548912Y5079617D01*
X6562977Y5065552D01*
X6581354Y5057940D01*
X6601246D01*
X6619623Y5065552D01*
X6633688Y5079617D01*
X6638447Y5091107D01*
X6651793Y5090371D01*
X6662983Y5070989D01*
X6678809Y5055163D01*
X6698191Y5043973D01*
X6719810Y5038180D01*
X6742190D01*
X6763809Y5043973D01*
X6783191Y5055163D01*
X6799017Y5070989D01*
X6810207Y5090371D01*
X6816000Y5111990D01*
Y5134370D01*
X6810207Y5155989D01*
X6799017Y5175371D01*
X6783191Y5191197D01*
X6763809Y5202387D01*
X6763014Y5202600D01*
X6764686Y5215300D01*
X6795720D01*
Y5258124D01*
X6803673Y5266077D01*
X7638127D01*
X7664540Y5239664D01*
Y5111840D01*
X7834540D01*
Y5281840D01*
X7706716D01*
X7673606Y5314950D01*
X7727424Y5368768D01*
X7738350Y5365840D01*
X7760730D01*
X7782349Y5371633D01*
X7801731Y5382823D01*
X7817557Y5398649D01*
X7828747Y5418031D01*
X7834540Y5439650D01*
Y5462030D01*
X7828747Y5483649D01*
X7817557Y5503031D01*
X7801731Y5518857D01*
X7782349Y5530047D01*
X7760730Y5535840D01*
X7738350D01*
X7716731Y5530047D01*
X7697349Y5518857D01*
X7681523Y5503031D01*
X7670333Y5483649D01*
X7664540Y5462030D01*
Y5439650D01*
X7670333Y5418031D01*
X7678386Y5404082D01*
X7638527Y5364223D01*
X6808353D01*
X6798260Y5374316D01*
Y5417140D01*
X6772306D01*
X6770634Y5429840D01*
X6771429Y5430053D01*
X6790811Y5441243D01*
X6806637Y5457069D01*
X6817827Y5476451D01*
X6823620Y5498070D01*
Y5520450D01*
X6817827Y5542069D01*
X6806637Y5561451D01*
X6790811Y5577277D01*
X6771429Y5588467D01*
X6749810Y5594260D01*
X6727430D01*
X6705811Y5588467D01*
X6686429Y5577277D01*
X6670603Y5561451D01*
X6659413Y5542069D01*
X6653620Y5520451D01*
X6641300Y5521367D01*
Y5534446D01*
X6633688Y5552823D01*
X6619623Y5566888D01*
X6601246Y5574500D01*
X6581354D01*
X6562977Y5566888D01*
X6548912Y5552823D01*
X6541300Y5534446D01*
Y5514554D01*
X6545011Y5505596D01*
Y5450200D01*
X6548534Y5432486D01*
X6548800Y5432087D01*
Y5423784D01*
X6544900Y5412700D01*
X6459900D01*
Y5404226D01*
X6400979D01*
X6394441Y5414010D01*
X6378198Y5424863D01*
X6359037Y5428675D01*
X6251744D01*
X6232584Y5424863D01*
X6216340Y5414010D01*
X6210300Y5404970D01*
X6197600Y5408822D01*
Y5689600D01*
X6273800Y5765800D01*
X6375400D01*
X6400800Y5791200D01*
Y6392655D01*
X6406580Y6396037D01*
X6413500Y6397362D01*
X6513381Y6297481D01*
X6519996Y6293060D01*
X6527800Y6291508D01*
X6629400D01*
X6637204Y6293060D01*
X6643819Y6297481D01*
X6648240Y6304096D01*
X6649792Y6311900D01*
Y6667500D01*
X6648240Y6675304D01*
X6643819Y6681919D01*
X6637204Y6686340D01*
X6629400Y6687892D01*
X6426200D01*
X6418396Y6686340D01*
X6413500Y6683068D01*
X6406474Y6685025D01*
X6400800Y6688345D01*
Y7112000D01*
X6477000Y7188200D01*
X8254999Y7188200D01*
X8407400Y7035800D01*
D02*
G37*
G36*
X3149600Y6248400D02*
X2921000D01*
Y6451600D01*
X3149600D01*
Y6248400D01*
D02*
G37*
G36*
X2768600D02*
X2463800D01*
Y6451600D01*
X2768600D01*
Y6248400D01*
D02*
G37*
G36*
X5105400Y6730064D02*
X4990594D01*
Y6525064D01*
X5050137D01*
Y6450289D01*
X5105400D01*
Y6350000D01*
X5194455D01*
X5198566Y6334658D01*
X5209756Y6315275D01*
X5225582Y6299450D01*
X5244964Y6288259D01*
X5266583Y6282467D01*
X5288964D01*
X5310582Y6288259D01*
X5329964Y6299450D01*
X5345790Y6315275D01*
X5356980Y6334658D01*
X5361091Y6350000D01*
X5391119D01*
Y6364169D01*
X5924519D01*
Y6237169D01*
X5899119Y6211769D01*
X5454619D01*
X5454511Y6211877D01*
X5105400D01*
Y6210300D01*
X5041900D01*
X4972149Y6280051D01*
X4971840Y6281604D01*
X4967419Y6288219D01*
X4967419Y6288220D01*
X4800600Y6455039D01*
Y6743700D01*
X5105400D01*
Y6730064D01*
D02*
G37*
G36*
X2336800Y6146800D02*
X2032000D01*
X2006600Y6172200D01*
Y6527800D01*
X2032000Y6553200D01*
X2336800D01*
Y6146800D01*
D02*
G37*
G36*
X5130800Y6781800D02*
X4800600D01*
X4775200Y6756400D01*
X4772660Y6720840D01*
Y6454140D01*
X4953000Y6273800D01*
Y6070600D01*
X4902200Y6019800D01*
X4216400D01*
X4013200Y6223000D01*
X3479800D01*
Y6248400D01*
X3403600D01*
Y6451600D01*
X3454400D01*
X3479800Y6477000D01*
Y6743700D01*
X3505200Y6769100D01*
X4279900D01*
X4368800Y6858000D01*
Y7086600D01*
X5130800D01*
Y6781800D01*
D02*
G37*
G36*
X5664200Y5882554D02*
Y5771880D01*
X5316010D01*
X5310180Y5777710D01*
X5293063Y5789147D01*
X5272871Y5793164D01*
X5269500D01*
X5249308Y5789147D01*
X5232190Y5777710D01*
X5232050Y5777500D01*
X5186600D01*
Y5722799D01*
X5180970Y5717154D01*
Y5503092D01*
X5041958D01*
X5030574Y5514476D01*
Y5737578D01*
X5191113Y5898117D01*
X5201920D01*
Y5898880D01*
X5647874D01*
X5664200Y5882554D01*
D02*
G37*
G36*
X6216340Y5343202D02*
X6232584Y5332348D01*
X6251744Y5328537D01*
X6359037D01*
X6378198Y5332348D01*
X6394441Y5343202D01*
X6395362Y5344580D01*
X6459900D01*
Y5327700D01*
X6544899D01*
Y5327700D01*
X6548801D01*
Y5327700D01*
X6633800D01*
Y5332140D01*
X6751714D01*
X6761910Y5321853D01*
X6761754Y5308510D01*
X6753544Y5300300D01*
X6633800D01*
Y5304740D01*
X6557335D01*
X6548801Y5304740D01*
X6548800Y5304740D01*
X6544899Y5304100D01*
Y5304100D01*
X6459900D01*
Y5286426D01*
X6394832D01*
X6394441Y5287010D01*
X6378198Y5297863D01*
X6359037Y5301675D01*
X6251744D01*
X6232584Y5297863D01*
X6216340Y5287010D01*
X6210300Y5277970D01*
X6197600Y5281822D01*
Y5348390D01*
X6210300Y5352242D01*
X6216340Y5343202D01*
D02*
G37*
G36*
X4889500Y5435600D02*
X4559300D01*
X4533900Y5410200D01*
Y5118100D01*
X4521200Y5105400D01*
X3721100Y5105400D01*
X2844800D01*
X2844800Y5168900D01*
X3238500Y5562600D01*
X3238500Y5651500D01*
X3289300Y5702300D01*
X4076700D01*
X4152900Y5778500D01*
X4889500D01*
Y5435600D01*
D02*
G37*
G36*
X4511901Y4969101D02*
X4483100Y4940300D01*
X3741900D01*
X3741901Y5077700D01*
X4511901D01*
Y4969101D01*
D02*
G37*
G36*
X3681117Y4940300D02*
X2882900D01*
X2844800Y4978400D01*
Y5080000D01*
X3681117D01*
Y4940300D01*
D02*
G37*
G36*
X6413500Y4876800D02*
X6337300D01*
X6223000Y4991100D01*
Y5156200D01*
X6413500D01*
Y4876800D01*
D02*
G37*
G36*
X3872004Y4717174D02*
X3862295Y4707465D01*
X3854683Y4689087D01*
Y4679609D01*
X3854448Y4679374D01*
X3846712Y4667797D01*
X3843996Y4654141D01*
Y4648293D01*
X3843300Y4647598D01*
X3839932D01*
X3830860Y4645793D01*
X3823169Y4640654D01*
X3821531Y4638202D01*
X3647832D01*
X3646194Y4640654D01*
X3638503Y4645793D01*
X3635146Y4646461D01*
X3605304Y4676302D01*
Y4828702D01*
X3872004D01*
Y4717174D01*
D02*
G37*
G36*
X4724400Y5080000D02*
X4875118Y4929282D01*
Y4926156D01*
X4880911Y4904537D01*
X4892101Y4885155D01*
X4907927Y4869329D01*
X4927309Y4858139D01*
X4948928Y4852346D01*
X4971309D01*
X4992927Y4858139D01*
X5012309Y4869329D01*
X5019780Y4876800D01*
X5130800D01*
Y4864100D01*
X5537200D01*
X5562600Y4838700D01*
Y4724400D01*
X5549900Y4711700D01*
X5130800D01*
Y4622800D01*
X5053989D01*
X4673600Y4876800D01*
X4550169Y4954975D01*
Y5106449D01*
X4552740Y5110296D01*
X4554292Y5118100D01*
Y5384800D01*
X4724400D01*
X4724400Y5080000D01*
D02*
G37*
G36*
X3822682Y4403642D02*
X3897181Y4329141D01*
X3897182Y4254141D01*
X3572182D01*
X3572182Y4329141D01*
X3646682Y4403641D01*
Y4433892D01*
X3822682D01*
Y4403642D01*
D02*
G37*
G36*
X3124200Y4419600D02*
Y4241800D01*
X2527300D01*
Y4343400D01*
X2463800D01*
X2451100Y4356100D01*
Y4445000D01*
X2463800Y4457700D01*
X3086100D01*
X3124200Y4419600D01*
D02*
G37*
G36*
X3919681Y4204143D02*
X3934682Y4189142D01*
Y4149142D01*
X3914682Y4129143D01*
X3554681D01*
X3534682Y4149143D01*
Y4189143D01*
X3549683Y4204143D01*
X3919681Y4204143D01*
D02*
G37*
G36*
X5709920Y5467080D02*
X5708920D01*
X5791200Y5384800D01*
Y4978400D01*
X6299200Y4470400D01*
X8102600D01*
X8178800Y4394200D01*
Y3937000D01*
X7950200D01*
Y4064000D01*
X7747000Y4267200D01*
X7480114D01*
X7465672Y4276849D01*
X7446635Y4280636D01*
X7427598Y4276849D01*
X7413156Y4267200D01*
X7370098D01*
Y4102100D01*
X7357398Y4089400D01*
X7217698D01*
X7204998Y4102100D01*
Y4267200D01*
X6223000D01*
X5892800Y4597400D01*
Y4699000D01*
X5511800Y5080000D01*
Y5410200D01*
X5461000Y5461000D01*
X5283200D01*
Y5467080D01*
X5278120D01*
X5201920Y5543280D01*
Y5709722D01*
X5203203Y5711647D01*
X5205440Y5714995D01*
X5205442Y5715009D01*
X5205450Y5715020D01*
X5206221Y5718926D01*
X5206650Y5721080D01*
X5709920D01*
Y5467080D01*
D02*
G37*
G36*
X5753100Y4470144D02*
Y3911600D01*
X5588000D01*
X5537200Y3962400D01*
Y4432300D01*
X5575300Y4470400D01*
X5752844D01*
X5753100Y4470144D01*
D02*
G37*
G36*
X4004682Y3939142D02*
Y3849142D01*
X3954682Y3799141D01*
X3864682Y3799142D01*
X3854682Y3809142D01*
Y3849142D01*
X3864682Y3859142D01*
X3894683D01*
X3908683Y3873142D01*
X3909681D01*
Y3874140D01*
X3924683Y3889142D01*
Y3939142D01*
X3934683Y3949142D01*
X3994682D01*
X4004682Y3939142D01*
D02*
G37*
G36*
X3544683D02*
Y3889142D01*
X3559682Y3874142D01*
Y3873142D01*
X3560682D01*
X3574682Y3859142D01*
X3604683D01*
X3614683Y3849142D01*
Y3809142D01*
X3604683Y3799142D01*
X3514682Y3799141D01*
X3464683Y3849141D01*
Y3939142D01*
X3474683Y3949142D01*
X3534683D01*
X3544683Y3939142D01*
D02*
G37*
G36*
X5465098Y3276600D02*
X5274598D01*
Y3873500D01*
X5465098D01*
Y3276600D01*
D02*
G37*
G36*
X7141498Y4038600D02*
X7276769D01*
X7276991Y4038501D01*
X7286206Y4025900D01*
Y3797300D01*
X7281198D01*
Y3200400D01*
X7090698D01*
Y3805902D01*
X7086600Y3810000D01*
Y4038600D01*
X6438900D01*
X6337300Y3937000D01*
X6159500D01*
Y4152900D01*
X6273800Y4229100D01*
X7141498D01*
Y4038600D01*
D02*
G37*
G36*
X2489200Y4216400D02*
Y4191000D01*
X3098800D01*
X3124200Y4165600D01*
Y4013200D01*
X3098800Y3987800D01*
X2489200D01*
Y3530600D01*
X2374900Y3416300D01*
Y3187700D01*
X2260600D01*
Y3416300D01*
X2133600Y3543300D01*
Y4216400D01*
X2209800Y4292600D01*
X2413000D01*
X2489200Y4216400D01*
D02*
G37*
G36*
X5905500Y3683000D02*
X5727700D01*
X5676900Y3632200D01*
Y2997200D01*
X5473700D01*
Y3200400D01*
X5524500Y3251200D01*
Y3873500D01*
X5905500D01*
Y3683000D01*
D02*
G37*
G36*
X2133600Y2946400D02*
X2032000D01*
X1917700Y3060700D01*
Y3454400D01*
X2133600D01*
Y2946400D01*
D02*
G37*
G36*
X7382798Y3886200D02*
X7420898Y3848100D01*
X7451501D01*
X7471698Y3827903D01*
Y3695700D01*
X7497098Y3670300D01*
X7636798D01*
Y3530600D01*
X7535198Y3429000D01*
Y2908300D01*
X7306598D01*
Y4025900D01*
X7319298Y4038600D01*
X7382798D01*
Y3886200D01*
D02*
G37*
G36*
X5488534Y5103266D02*
Y5101302D01*
X5491408Y5086855D01*
Y5080000D01*
X5492960Y5072196D01*
X5497381Y5065581D01*
X5497381Y5065580D01*
X5753100Y4809861D01*
Y4699000D01*
X5862190Y4589910D01*
X5866933Y4572211D01*
X5878123Y4552829D01*
X5893949Y4537003D01*
X5913331Y4525813D01*
X5931030Y4521070D01*
X6108700Y4343400D01*
Y4064000D01*
X6096000Y4051300D01*
Y3898900D01*
X6146800Y3848100D01*
Y3670300D01*
X6540500D01*
X6680200Y3530600D01*
Y2908300D01*
X5778500D01*
Y3149600D01*
X5943600Y3314700D01*
Y3873500D01*
X5905500Y3911600D01*
X5791200D01*
Y4483100D01*
X5778500Y4495800D01*
X5638800D01*
X5588000Y4546600D01*
Y4851400D01*
X5537200Y4902200D01*
X5092700D01*
Y4985524D01*
X5139121D01*
X5152777Y4988240D01*
X5164354Y4995976D01*
X5176955Y5008577D01*
X5232814D01*
Y5078427D01*
Y5118514D01*
X5270500Y5156200D01*
X5435600D01*
X5488534Y5103266D01*
D02*
G37*
G36*
X2444960Y3236194D02*
X2447174Y3232881D01*
X2449381Y3229579D01*
X2454540Y3226132D01*
X2463501Y3217171D01*
X2468008Y3206290D01*
Y3194510D01*
X2462745Y3181803D01*
X2462002Y3178070D01*
X2461195Y3174332D01*
X2461226Y3174165D01*
X2461193Y3174000D01*
X2461937Y3170256D01*
X2462620Y3166504D01*
X2467640Y3153804D01*
X2467732Y3153662D01*
X2467765Y3153496D01*
X2469886Y3150322D01*
X2471952Y3147117D01*
X2472091Y3147021D01*
X2472185Y3146881D01*
X2475356Y3144762D01*
X2476500Y3143970D01*
Y3056692D01*
X2463800D01*
X2455996Y3055140D01*
X2449381Y3050719D01*
X2444960Y3044104D01*
X2443408Y3036300D01*
Y3014908D01*
X2425700Y2997200D01*
Y2425700D01*
X2387600Y2387600D01*
X2247900D01*
X2209800Y2425700D01*
Y3036300D01*
X2267300D01*
Y3080322D01*
X2270975Y3098800D01*
Y3109140D01*
X2329143Y3167308D01*
X2374900D01*
X2382704Y3168860D01*
X2389319Y3173281D01*
X2393740Y3179896D01*
X2395292Y3187700D01*
Y3233492D01*
X2400300Y3238500D01*
X2444502D01*
X2444960Y3236194D01*
D02*
G37*
G36*
X2717800Y3390900D02*
Y1625600D01*
X2692400Y1600200D01*
X2489200D01*
X2463800Y1625600D01*
Y3036300D01*
X2496900D01*
Y3161300D01*
X2486604D01*
X2481585Y3174000D01*
X2488400Y3190454D01*
Y3210346D01*
X2480788Y3228723D01*
X2466723Y3242788D01*
X2463800Y3243999D01*
Y3454400D01*
X2654300D01*
X2717800Y3390900D01*
D02*
G37*
%LPC*%
G36*
X2353598Y8508343D02*
X2342186Y8506073D01*
X2332510Y8499608D01*
X2326046Y8489933D01*
X2323775Y8478520D01*
Y8338594D01*
X2312042Y8333734D01*
X2294521Y8351255D01*
Y8402320D01*
X2292251Y8413733D01*
X2285786Y8423408D01*
X2276111Y8429873D01*
X2264698Y8432143D01*
X2253286Y8429873D01*
X2243610Y8423408D01*
X2237146Y8413733D01*
X2234875Y8402320D01*
Y8338903D01*
X2234875Y8338902D01*
X2237146Y8327489D01*
X2243610Y8317814D01*
X2303011Y8258413D01*
X2303012Y8258412D01*
X2312687Y8251947D01*
X2324100Y8249677D01*
X2335513Y8251947D01*
X2345188Y8258412D01*
X2374686Y8287910D01*
X2374686Y8287910D01*
X2381151Y8297586D01*
X2383421Y8308998D01*
X2383421Y8309000D01*
Y8478520D01*
X2381151Y8489933D01*
X2374686Y8499608D01*
X2365011Y8506073D01*
X2353598Y8508343D01*
D02*
G37*
G36*
X3073400Y8449923D02*
X3061987Y8447653D01*
X3052312Y8441188D01*
X3045847Y8431513D01*
X3043577Y8420100D01*
Y8337921D01*
X3043577Y8337920D01*
X3045847Y8326507D01*
X3052312Y8316832D01*
X3110732Y8258412D01*
X3120407Y8251947D01*
X3131820Y8249677D01*
X3143233Y8251947D01*
X3152908Y8258412D01*
X3159373Y8268087D01*
X3161643Y8279500D01*
X3159373Y8290913D01*
X3152908Y8300588D01*
X3103223Y8350273D01*
Y8420100D01*
X3100953Y8431513D01*
X3094488Y8441188D01*
X3084813Y8447653D01*
X3073400Y8449923D01*
D02*
G37*
G36*
X6970790Y7130960D02*
X6948410D01*
X6926791Y7125167D01*
X6907409Y7113977D01*
X6891583Y7098151D01*
X6880393Y7078769D01*
X6878364Y7071198D01*
X6864981Y7070321D01*
X6862288Y7076823D01*
X6848223Y7090888D01*
X6829846Y7098500D01*
X6809954D01*
X6791577Y7090888D01*
X6777512Y7076823D01*
X6769900Y7058446D01*
Y7038554D01*
X6774175Y7028234D01*
X6777400Y7016059D01*
X6777400Y7016059D01*
X6777400Y7016059D01*
Y6947784D01*
X6773500Y6936700D01*
X6688500D01*
Y6918745D01*
X6618238D01*
X6605014Y6927581D01*
X6585854Y6931392D01*
X6478561D01*
X6459401Y6927581D01*
X6443157Y6916727D01*
X6432304Y6900484D01*
X6428493Y6881323D01*
X6432304Y6862163D01*
X6443157Y6845919D01*
X6459401Y6835066D01*
X6478561Y6831255D01*
X6585854D01*
X6605014Y6835066D01*
X6621258Y6845919D01*
X6630064Y6859099D01*
X6688500D01*
Y6851700D01*
X6773499D01*
Y6851700D01*
X6777400Y6851059D01*
X6777401Y6851060D01*
X6785935Y6851060D01*
X6862400D01*
Y6856140D01*
X6981503D01*
X7010429Y6827215D01*
X7010902Y6826580D01*
X7011857Y6810833D01*
X6984684Y6783660D01*
X6862400D01*
Y6788100D01*
X6777401D01*
Y6788100D01*
X6773499D01*
Y6788100D01*
X6688500D01*
Y6777565D01*
X6629385D01*
X6621258Y6789727D01*
X6605014Y6800581D01*
X6585854Y6804392D01*
X6478561D01*
X6459401Y6800581D01*
X6443157Y6789727D01*
X6432304Y6773484D01*
X6428493Y6754323D01*
X6432304Y6735163D01*
X6443157Y6718919D01*
X6459401Y6708066D01*
X6478561Y6704255D01*
X6585854D01*
X6605014Y6708066D01*
X6619761Y6717919D01*
X6688500D01*
Y6703100D01*
X6773500D01*
X6777400Y6692016D01*
Y6629911D01*
X6770812Y6623323D01*
X6763200Y6604946D01*
Y6585054D01*
X6770812Y6566677D01*
X6784877Y6552612D01*
X6803254Y6545000D01*
X6823146D01*
X6841523Y6552612D01*
X6855588Y6566677D01*
X6856818Y6569647D01*
X6870201Y6568769D01*
X6870233Y6568651D01*
X6881423Y6549269D01*
X6897249Y6533443D01*
X6916631Y6522253D01*
X6938250Y6516460D01*
X6960630D01*
X6982249Y6522253D01*
X7001631Y6533443D01*
X7017457Y6549269D01*
X7028647Y6568651D01*
X7034440Y6590270D01*
Y6612650D01*
X7028647Y6634269D01*
X7017457Y6653651D01*
X7001631Y6669477D01*
X6982249Y6680667D01*
X6962495Y6685960D01*
X6964167Y6698660D01*
X7026860D01*
Y6741484D01*
X7052593Y6767217D01*
X7922607D01*
X7941400Y6748424D01*
Y6620600D01*
X8111400D01*
Y6790600D01*
X7983576D01*
X7956048Y6818128D01*
X7949464Y6822527D01*
X7946459Y6833755D01*
X7946494Y6837518D01*
X7990914Y6881938D01*
X7993591Y6880393D01*
X8015210Y6874600D01*
X8037590D01*
X8059209Y6880393D01*
X8078591Y6891583D01*
X8094417Y6907409D01*
X8105607Y6926791D01*
X8111400Y6948410D01*
Y6970790D01*
X8105607Y6992409D01*
X8094417Y7011791D01*
X8078591Y7027617D01*
X8059209Y7038807D01*
X8037590Y7044600D01*
X8015210D01*
X7993591Y7038807D01*
X7974209Y7027617D01*
X7958383Y7011791D01*
X7947193Y6992409D01*
X7941400Y6970790D01*
Y6948410D01*
X7947193Y6926791D01*
X7948738Y6924114D01*
X7902287Y6877663D01*
X7044333D01*
X7023680Y6898316D01*
Y6941140D01*
X6933231D01*
X6932409Y6953840D01*
X6943068Y6962391D01*
X6948410Y6960960D01*
X6970790D01*
X6992409Y6966753D01*
X7011791Y6977943D01*
X7027617Y6993769D01*
X7038807Y7013151D01*
X7044600Y7034770D01*
Y7057150D01*
X7038807Y7078769D01*
X7027617Y7098151D01*
X7011791Y7113977D01*
X6992409Y7125167D01*
X6970790Y7130960D01*
D02*
G37*
G36*
X7400050Y6140360D02*
X7377670D01*
X7356051Y6134567D01*
X7336669Y6123377D01*
X7320843Y6107551D01*
X7309653Y6088169D01*
X7303860Y6066550D01*
Y6044170D01*
X7309653Y6022551D01*
X7314081Y6014882D01*
X7284792Y5985593D01*
X7272092Y5990854D01*
Y6007100D01*
X7270540Y6014904D01*
X7268000Y6018705D01*
Y6020200D01*
X7267001D01*
X7266119Y6021519D01*
X7259504Y6025940D01*
X7251700Y6027492D01*
X6870700D01*
X6862896Y6025940D01*
X6856281Y6021519D01*
X6855399Y6020200D01*
X6854400D01*
Y6018705D01*
X6851860Y6014904D01*
X6850308Y6007100D01*
Y5803900D01*
X6851860Y5796096D01*
X6856281Y5789481D01*
X6862896Y5785060D01*
X6870700Y5783508D01*
X7251700D01*
X7259504Y5785060D01*
X7266119Y5789481D01*
X7270540Y5796096D01*
X7272092Y5803900D01*
Y5920377D01*
X7291574D01*
X7291575Y5920377D01*
X7302988Y5922647D01*
X7312663Y5929112D01*
X7358932Y5975381D01*
X7377670Y5970360D01*
X7400050D01*
X7421669Y5976153D01*
X7441051Y5987343D01*
X7456877Y6003169D01*
X7468067Y6022551D01*
X7473860Y6044170D01*
Y6066550D01*
X7468067Y6088169D01*
X7456877Y6107551D01*
X7441051Y6123377D01*
X7421669Y6134567D01*
X7400050Y6140360D01*
D02*
G37*
G36*
X8139190Y6028600D02*
X8116810D01*
X8095191Y6022807D01*
X8075809Y6011617D01*
X8059983Y5995791D01*
X8048793Y5976409D01*
X8043000Y5954790D01*
Y5932410D01*
X8048793Y5910791D01*
X8059983Y5891409D01*
X8075809Y5875583D01*
X8095191Y5864393D01*
X8116810Y5858600D01*
X8139190D01*
X8160809Y5864393D01*
X8180191Y5875583D01*
X8196017Y5891409D01*
X8207207Y5910791D01*
X8213000Y5932410D01*
Y5954790D01*
X8207207Y5976409D01*
X8196017Y5995791D01*
X8180191Y6011617D01*
X8160809Y6022807D01*
X8139190Y6028600D01*
D02*
G37*
%LPD*%
G36*
X7251700Y5803900D02*
X6870700D01*
Y6007100D01*
X7251700D01*
Y5803900D01*
D02*
G37*
D10*
X2794000Y4311400D02*
D03*
Y4121400D02*
D03*
X2997200Y4311400D02*
D03*
Y4121400D02*
D03*
X6450618Y4170680D02*
D03*
Y4360680D02*
D03*
X7175500Y5950200D02*
D03*
Y6140200D02*
D03*
X6432790Y9514106D02*
D03*
Y9324106D02*
D03*
X6234670Y9514106D02*
D03*
Y9324106D02*
D03*
X7054603Y4173314D02*
D03*
Y4363314D02*
D03*
X6039090Y9514106D02*
D03*
Y9324106D02*
D03*
X6858038Y4172200D02*
D03*
Y4362200D02*
D03*
X2590800Y4121400D02*
D03*
Y4311400D02*
D03*
X6653818Y4173220D02*
D03*
Y4363220D02*
D03*
X6946900Y5950200D02*
D03*
Y6140200D02*
D03*
D11*
X4973320Y7831719D02*
D03*
Y8261721D02*
D03*
X2730500Y8279500D02*
D03*
Y7849500D02*
D03*
X3131820Y8279500D02*
D03*
Y7849500D02*
D03*
X3535680Y7846060D02*
D03*
Y8276062D02*
D03*
X2324100Y8279500D02*
D03*
Y7849500D02*
D03*
X4165600Y7831719D02*
D03*
Y8261721D02*
D03*
X5372100Y8261720D02*
D03*
Y7831720D02*
D03*
X4572000Y7831719D02*
D03*
Y8261721D02*
D03*
D12*
X2311400Y4216400D02*
D03*
X4960118Y4937346D02*
D03*
X3169920Y5257800D02*
D03*
X7160260Y6606540D02*
D03*
X5029200Y6350000D02*
D03*
X6172200Y7518400D02*
D03*
X5918200Y7442200D02*
D03*
X4343400Y4800600D02*
D03*
X6926580Y5509260D02*
D03*
X4691380Y4993640D02*
D03*
X6959600Y7045960D02*
D03*
X6949440Y6601460D02*
D03*
X5397500Y4089400D02*
D03*
X2121810Y6024942D02*
D03*
X5715000Y4599940D02*
D03*
X6924040Y5123180D02*
D03*
X6731000D02*
D03*
X6738620Y5509260D02*
D03*
X965200Y7442200D02*
D03*
X7899400Y3136900D02*
D03*
X1968500Y4229100D02*
D03*
X5946140Y4605020D02*
D03*
X7157720Y7043420D02*
D03*
X7388860Y6055360D02*
D03*
X5277773Y6367467D02*
D03*
D13*
X6193540Y7708900D02*
D03*
X6003540D02*
D03*
X5595887Y3365454D02*
D03*
X5405887D02*
D03*
X5593984Y3565502D02*
D03*
X5403984D02*
D03*
X5875058Y4196080D02*
D03*
X5685058D02*
D03*
X7220144Y3302985D02*
D03*
X7410144D02*
D03*
X2371151Y2737215D02*
D03*
X2561151D02*
D03*
X6193540Y7899400D02*
D03*
X6003540D02*
D03*
X6194571Y8088794D02*
D03*
X6004570D02*
D03*
X5872868Y4391064D02*
D03*
X5682868D02*
D03*
X2558800Y2540000D02*
D03*
X2368800D02*
D03*
X7223963Y3514287D02*
D03*
X7413963D02*
D03*
X6195060Y8277860D02*
D03*
X6005060D02*
D03*
X6015258Y4003040D02*
D03*
X6205258D02*
D03*
X5877598Y4000500D02*
D03*
X5687598D02*
D03*
X7221258Y3710940D02*
D03*
X7411258D02*
D03*
X5594138Y3769360D02*
D03*
X5404138D02*
D03*
X2368800Y2933700D02*
D03*
X2558800D02*
D03*
D14*
X6566900Y6426200D02*
D03*
X6691900D02*
D03*
X5537200Y7315200D02*
D03*
X5662200D02*
D03*
X6501400Y4927600D02*
D03*
X6376400D02*
D03*
X5120746Y5603787D02*
D03*
X5245746D02*
D03*
X2439400Y3098800D02*
D03*
X2564400D02*
D03*
X7997460Y3838580D02*
D03*
X7872460D02*
D03*
X5661633Y7201401D02*
D03*
X5536633D02*
D03*
X2084800Y3098800D02*
D03*
X2209800D02*
D03*
X6914880Y9169400D02*
D03*
X7039880D02*
D03*
X5119100Y5715000D02*
D03*
X5244100D02*
D03*
X6901720Y3270200D02*
D03*
X6776720D02*
D03*
D15*
X5349277Y5378606D02*
D03*
Y5251606D02*
D03*
X6305391Y5378606D02*
D03*
Y5251606D02*
D03*
X5349277Y5505606D02*
D03*
Y5124606D02*
D03*
X6305391Y5505606D02*
D03*
X6532208Y7008323D02*
D03*
X5576093Y6627323D02*
D03*
Y7008323D02*
D03*
X6532208Y6754323D02*
D03*
Y6881323D02*
D03*
X5576093Y6754323D02*
D03*
Y6881323D02*
D03*
D16*
X6305391Y5124606D02*
D03*
X6532208Y6627323D02*
D03*
D17*
X5829494Y3770746D02*
D03*
X6059494D02*
D03*
X6289494D02*
D03*
X6558650Y9133028D02*
D03*
X6328650D02*
D03*
X6098649D02*
D03*
D18*
X6059494Y3130746D02*
D03*
X6328650Y8493028D02*
D03*
D19*
X3911600Y6451600D02*
D03*
X3352800Y7505700D02*
D03*
X3683000Y5461000D02*
D03*
D20*
X5012636Y6492789D02*
D03*
X5092636D02*
D03*
X5247531Y6741293D02*
D03*
X5327531D02*
D03*
X6675760Y5374640D02*
D03*
X6755760D02*
D03*
X5247154Y6494275D02*
D03*
X5167153D02*
D03*
X5085502Y5348643D02*
D03*
X5005502D02*
D03*
X4714621Y5137222D02*
D03*
X4794621D02*
D03*
X5005915Y5078888D02*
D03*
X5085915D02*
D03*
X6984360Y6741160D02*
D03*
X6904360D02*
D03*
X5330800Y6570778D02*
D03*
X5250800D02*
D03*
X5247954Y6821270D02*
D03*
X5327955D02*
D03*
X5246844Y6660242D02*
D03*
X5326844D02*
D03*
X3854681Y3829142D02*
D03*
X3774681D02*
D03*
X3614681Y3829142D02*
D03*
X3694681D02*
D03*
X6981180Y6898640D02*
D03*
X6901180D02*
D03*
X5086000Y5170778D02*
D03*
X5006000D02*
D03*
X5005998Y5257800D02*
D03*
X5085998D02*
D03*
X3694681Y4009142D02*
D03*
X3774681D02*
D03*
X6673220Y5257800D02*
D03*
X6753220D02*
D03*
D21*
X5411221Y6705505D02*
D03*
Y6785505D02*
D03*
X3484681Y4779142D02*
D03*
Y4699142D02*
D03*
X4044682Y4399142D02*
D03*
Y4319142D02*
D03*
X4406900Y5132700D02*
D03*
Y5052700D02*
D03*
X4086900Y5132700D02*
D03*
Y5052700D02*
D03*
X4486900Y5132700D02*
D03*
Y5052700D02*
D03*
X3881771Y8580120D02*
D03*
Y8660120D02*
D03*
X6731000Y6974200D02*
D03*
Y6894200D02*
D03*
X6819900Y6665600D02*
D03*
Y6745600D02*
D03*
X3489960Y5052700D02*
D03*
Y5132700D02*
D03*
X3408680Y5052700D02*
D03*
Y5132700D02*
D03*
X3984681Y4499142D02*
D03*
Y4579142D02*
D03*
X3484681D02*
D03*
Y4499142D02*
D03*
X3424682Y4399142D02*
D03*
Y4319142D02*
D03*
X3846900Y5132700D02*
D03*
Y5052701D02*
D03*
X4166900Y5132700D02*
D03*
Y5052700D02*
D03*
X6591300Y5370200D02*
D03*
Y5450200D02*
D03*
X6502400Y5261600D02*
D03*
Y5181600D02*
D03*
X2921000Y5052700D02*
D03*
Y5132700D02*
D03*
X3083560Y5052700D02*
D03*
Y5132700D02*
D03*
X4246900D02*
D03*
Y5052700D02*
D03*
X3926900Y5132700D02*
D03*
Y5052700D02*
D03*
X6591300Y5262240D02*
D03*
Y5182240D02*
D03*
X6502400Y5370200D02*
D03*
Y5450200D02*
D03*
X6731000Y6665600D02*
D03*
Y6745600D02*
D03*
X3652520Y5052700D02*
D03*
Y5132700D02*
D03*
X3571240Y5052700D02*
D03*
Y5132700D02*
D03*
X3246120Y5052700D02*
D03*
Y5132700D02*
D03*
X5173100Y5298689D02*
D03*
Y5218689D02*
D03*
X3766900Y5052701D02*
D03*
Y5132700D02*
D03*
X3994682Y4779142D02*
D03*
Y4699142D02*
D03*
X4326900Y5132700D02*
D03*
Y5052700D02*
D03*
X4911378Y5078100D02*
D03*
Y5158100D02*
D03*
X4006900Y5132700D02*
D03*
Y5052700D02*
D03*
X3801773Y8580120D02*
D03*
Y8660120D02*
D03*
X6819900Y6973560D02*
D03*
Y6893560D02*
D03*
X3327400Y5052700D02*
D03*
Y5132700D02*
D03*
X3164840Y5052700D02*
D03*
Y5132700D02*
D03*
X3002280Y5052700D02*
D03*
Y5132700D02*
D03*
D22*
X5412517Y6607922D02*
D03*
Y6538072D02*
D03*
X5177254Y5048262D02*
D03*
Y5118112D02*
D03*
D23*
X5745013Y6438317D02*
D03*
Y6313317D02*
D03*
X5515898Y6437900D02*
D03*
Y6312900D02*
D03*
X3854682Y4166643D02*
D03*
Y4291641D02*
D03*
X5498628Y5805346D02*
D03*
Y5680346D02*
D03*
X5384577Y4813969D02*
D03*
Y4938969D02*
D03*
X5268014Y4813737D02*
D03*
Y4938737D02*
D03*
X3614682Y4166643D02*
D03*
Y4291641D02*
D03*
X5861019Y6438369D02*
D03*
Y6313369D02*
D03*
X5632419Y6439369D02*
D03*
Y6314369D02*
D03*
X7868200Y3576720D02*
D03*
Y3701720D02*
D03*
X5377702Y5805042D02*
D03*
Y5680042D02*
D03*
X5147598Y4814300D02*
D03*
Y4939300D02*
D03*
X5500582Y4812724D02*
D03*
Y4937724D02*
D03*
X3734682Y4166643D02*
D03*
Y4291641D02*
D03*
D24*
X6576584Y3440485D02*
D03*
X6776584D02*
D03*
X7816198Y3998300D02*
D03*
X8016198D02*
D03*
X7059600Y8659200D02*
D03*
X6859600D02*
D03*
D25*
X6676584Y3770484D02*
D03*
X7916198Y4328300D02*
D03*
X6959600Y8989200D02*
D03*
D26*
X3693681Y3919142D02*
D03*
X3775682D02*
D03*
X3945682D02*
D03*
X3863681D02*
D03*
X3523680Y3919142D02*
D03*
X3605682D02*
D03*
D27*
X2319020Y3886200D02*
D03*
D28*
X2549020Y3301200D02*
D03*
X2319020D02*
D03*
X2089020D02*
D03*
D29*
X4837998Y5292100D02*
D03*
X4637998D02*
D03*
X4437998D02*
D03*
X4237998D02*
D03*
X4437998Y6087100D02*
D03*
X4237998D02*
D03*
X4637998D02*
D03*
X4837998D02*
D03*
X5078094Y6627564D02*
D03*
X4878094D02*
D03*
X4478093Y7422564D02*
D03*
X4678094D02*
D03*
X4878094D02*
D03*
X5078094D02*
D03*
X4678094Y6627564D02*
D03*
X4478093D02*
D03*
D30*
X4537998Y5598600D02*
D03*
X4778094Y6934064D02*
D03*
D31*
X6917620Y9306560D02*
D03*
X7067620D02*
D03*
D32*
X3879682Y4614142D02*
D03*
Y4464142D02*
D03*
Y4514142D02*
D03*
Y4564142D02*
D03*
X3589682Y4614142D02*
D03*
Y4464142D02*
D03*
Y4564142D02*
D03*
Y4514142D02*
D03*
D33*
X3759682Y4684142D02*
D03*
X3809682D02*
D03*
X3709682D02*
D03*
X3659682D02*
D03*
X3759682Y4394142D02*
D03*
X3709682D02*
D03*
X3659682D02*
D03*
X3809682D02*
D03*
D34*
X3734682Y4539142D02*
D03*
D35*
X6911000Y7647000D02*
D03*
Y7847000D02*
D03*
D36*
X6581000Y7747000D02*
D03*
D37*
X2702300Y6350000D02*
D03*
X2987300D02*
D03*
X2530100D02*
D03*
X2245100D02*
D03*
D38*
X7446635Y4184409D02*
D03*
Y3964332D02*
D03*
X7256635Y4184409D02*
D03*
X7351635Y3964332D02*
D03*
D39*
X7256635D02*
D03*
D40*
X6964718Y3752920D02*
D03*
Y3602920D02*
D03*
X7620038Y4156780D02*
D03*
Y4006780D02*
D03*
X7137400Y7646600D02*
D03*
Y7796600D02*
D03*
X7561618Y3763080D02*
D03*
Y3613080D02*
D03*
X7721600Y3608000D02*
D03*
Y3758000D02*
D03*
D41*
X3954681Y4318141D02*
D03*
Y4400143D02*
D03*
X3514681Y4318141D02*
D03*
Y4400143D02*
D03*
D42*
X3839829Y8468658D02*
D03*
Y7898657D02*
D03*
D43*
X2018400Y8394700D02*
D03*
X1588400D02*
D03*
X2018400Y8801100D02*
D03*
X1588400D02*
D03*
D44*
X3119100Y6350000D02*
D03*
X3434100D02*
D03*
D45*
X1460302Y9207500D02*
D03*
X2070298D02*
D03*
D46*
X5119923Y5604610D02*
X5120746Y5603787D01*
X5119923Y5604610D02*
Y5719177D01*
X5119100Y5720000D02*
X5119923Y5719177D01*
X5485922Y5805194D02*
X5492351Y5811623D01*
X5498628Y5817900D01*
X5217000D02*
X5283369D01*
X5364844D01*
X5119100Y5720000D02*
X5182284Y5783184D01*
X5217000Y5817900D01*
X5502949Y5801025D02*
X5588138D01*
X5592460Y5796704D01*
X5498628Y5805346D02*
X5502949Y5801025D01*
X5390408Y5805194D02*
X5485922D01*
X5364844Y5817900D02*
X5377702Y5805042D01*
Y5817900D02*
X5390408Y5805194D01*
X5167153Y6426775D02*
Y6494275D01*
Y6426775D02*
X5186114Y6407814D01*
X5210366D01*
X5250713Y6367467D01*
X5277773D01*
X4853878Y5041103D02*
Y5077911D01*
Y5041103D02*
X4957635Y4937346D01*
X4960118D01*
X4837998Y5093791D02*
Y5149840D01*
Y5093791D02*
X4853878Y5077911D01*
X6359838Y4095140D02*
X6426800D01*
X5013415Y5038783D02*
Y5071388D01*
X6501900Y4928100D02*
Y5016000D01*
X5247298Y6578600D02*
X5247415Y6578717D01*
X5325398Y3365500D02*
X5405840D01*
X5396642Y6538072D02*
X5412517D01*
X5178052Y6742523D02*
Y6766311D01*
X5013002Y5356143D02*
Y5371792D01*
X5093379Y6493532D02*
X5166411D01*
X7256259Y3768440D02*
Y3806540D01*
X6742500Y4091861D02*
X6754569Y4103931D01*
X6354098Y4089400D02*
X6359838Y4095140D01*
X7128798Y3746500D02*
X7207468D01*
X6978700Y3270200D02*
X6985000Y3263900D01*
X5175177Y5120189D02*
X5177254Y5118112D01*
X4637998Y5277100D02*
Y5292100D01*
X5435600Y6781800D02*
X5463077Y6754323D01*
X5013415Y5038783D02*
X5030988Y5021210D01*
X6341398Y4178300D02*
X6544598D01*
X5537200Y4749800D02*
X5538700Y4751300D01*
X5327298Y6578600D02*
X5327415Y6578717D01*
X5404138Y3367202D02*
Y3769360D01*
X5362917Y6504346D02*
X5396642Y6538072D01*
X6963698Y3753940D02*
Y3835400D01*
X5682868Y4005230D02*
X5687598Y4000500D01*
X6210300Y4034041D02*
X6214859Y4038600D01*
X5178052Y6766311D02*
X5225511Y6813769D01*
X4814577Y5144722D02*
X4819695Y5149840D01*
X5166411Y6493532D02*
X5167153Y6494275D01*
X7234319Y3746500D02*
X7256259Y3768440D01*
X6859152Y4173314D02*
X6956878D01*
X6901720Y3270200D02*
X6978700D01*
X5161379Y5048262D02*
X5177254D01*
X4637998Y5277100D02*
X4683302Y5231797D01*
X5463077Y6754323D02*
X5576093D01*
X6769100Y4089400D02*
X6774840Y4095140D01*
X5030988Y5021210D02*
X5139121D01*
X5247415Y6660242D02*
Y6741176D01*
X5404138Y3367202D02*
X5405840Y3365500D01*
X5362917Y6500911D02*
Y6504346D01*
X6963698Y3753940D02*
X6964718Y3752920D01*
X6501900Y5016000D02*
X6502400Y5016500D01*
X5165600Y5291189D02*
X5173100Y5298689D01*
X5092636Y6492789D02*
X5093379Y6493532D01*
X7221258Y3746500D02*
X7234319D01*
X7220144Y3441700D02*
X7239000D01*
X4890498Y5348643D02*
X5005502D01*
X7073900Y4089400D02*
Y4154017D01*
X5364952Y6763770D02*
X5382982Y6781800D01*
X5247415Y6578717D02*
Y6660242D01*
X5295630Y5251606D02*
X5349277D01*
X7054603Y4173314D02*
X7073900Y4154017D01*
X5078094Y6627564D02*
Y6642564D01*
X5085998Y5168900D02*
Y5257800D01*
X4837998Y5296143D02*
X4890498Y5348643D01*
X5382982Y6781800D02*
X5435600D01*
X6774840Y4111502D02*
X6835539Y4172200D01*
X5173100Y5218689D02*
X5175177Y5216612D01*
X4655820Y5123180D02*
X4683302D01*
X5505582Y4812724D02*
X5538700Y4779607D01*
X4837998Y5149840D02*
X4872439D01*
X6501400Y4927600D02*
X6501900Y4928100D01*
X5005998Y5168900D02*
Y5257800D01*
X7128798Y3340100D02*
X7219160D01*
X5156694Y5043577D02*
X5161379Y5048262D01*
X4837998Y5292100D02*
Y5296143D01*
X5327415Y6741176D02*
X5327531Y6741293D01*
X7230398Y3520722D02*
Y3644900D01*
X6747798Y4178300D02*
X6859152D01*
X5411221Y6705505D02*
X5411869Y6704857D01*
X6669961Y4091861D02*
X6742500D01*
X5538700Y4751300D02*
Y4779607D01*
X4683302Y5001718D02*
Y5123180D01*
X7223963Y3514287D02*
X7230398Y3520722D01*
X3879682Y4614142D02*
Y4654141D01*
X6214859Y4038600D02*
X6286500D01*
X4819695Y5149840D02*
X4837998D01*
X5085956Y5168858D02*
X5085998Y5168900D01*
X7220144Y3302985D02*
Y3340100D01*
X4683302Y5123180D02*
Y5231797D01*
X5327531Y6741293D02*
X5350008Y6763770D01*
X4878094Y7422564D02*
X5078094D01*
X5158520Y5378606D02*
X5349277D01*
X5411869Y6608570D02*
X5412517Y6607922D01*
X6502400Y5450200D02*
Y5524500D01*
X5240454Y6813769D02*
X5247954Y6821270D01*
X4873198Y5150600D02*
X4903878D01*
X6426800Y4095140D02*
X6430298Y4098639D01*
X7256635Y3806916D02*
Y3964332D01*
X4683302Y5001718D02*
X4691380Y4993640D01*
X5085956Y5078930D02*
Y5168858D01*
X5651432Y4445000D02*
X5682868Y4413563D01*
X4837998Y5149840D02*
Y5292100D01*
X5327415Y6578717D02*
Y6741176D01*
X4678094Y7422564D02*
X4878094D01*
X6451600Y4089400D02*
X6667500D01*
X5255871Y5291364D02*
X5295630Y5251606D01*
X5411869Y6608570D02*
Y6704857D01*
X5247954Y6821270D02*
Y6878137D01*
X4911378Y5078100D02*
X4911772Y5078494D01*
X6956878Y4173314D02*
X7054603D01*
X7220144Y3441700D02*
Y3510468D01*
X5058698Y5417488D02*
Y5422900D01*
X6210300Y4034041D02*
Y4114800D01*
X5085915Y5078888D02*
X5085956Y5078930D01*
X7997460Y3838580D02*
X8006980Y3848100D01*
X5247226Y6578528D02*
X5247298Y6578600D01*
X5682868Y4196080D02*
Y4413563D01*
X5350008Y6763770D02*
X5364952D01*
X4478093Y7422564D02*
X4678094D01*
X6450618Y4170680D02*
X6451600Y4169698D01*
X5175177Y5120189D02*
Y5216612D01*
X7220144Y3340100D02*
Y3441700D01*
X5397500Y4089400D02*
Y4194300D01*
X4695256Y5136814D02*
X4714213D01*
X7899400Y3136900D02*
X7906360Y3129940D01*
X6774840Y4095140D02*
Y4111502D01*
X5247954Y6878137D02*
X5270500Y6900682D01*
X4911772Y5078494D02*
X5005520D01*
X6667500Y4089400D02*
X6669961Y4091861D01*
X6858038Y4172200D02*
X6859152Y4173314D01*
X5139121Y5021210D02*
X5156694Y5038783D01*
X5085998Y5257800D02*
X5119387Y5291189D01*
X5005520Y5078494D02*
X5005915Y5078888D01*
X5247226Y6494347D02*
Y6578528D01*
X5682868Y4193890D02*
X5685058Y4196080D01*
X5247154Y6494275D02*
X5357999D01*
X5682868Y4005230D02*
Y4193890D01*
X5180425Y5291364D02*
X5255871D01*
X4802121Y5144722D02*
X4814577D01*
X5270500Y6900682D02*
Y6908800D01*
X4872439Y5149840D02*
X4873198Y5150600D01*
X6544598Y4178300D02*
X6747798D01*
X7906360Y3028340D02*
Y3129940D01*
X5119387Y5291189D02*
X5165600D01*
X5005502Y5348643D02*
X5013002Y5356143D01*
X7221258Y3710940D02*
Y3732710D01*
X5006776Y5079750D02*
Y5168122D01*
X5247154Y6494275D02*
X5247226Y6494347D01*
X5592098Y4445000D02*
X5651432D01*
X3879682Y4654141D02*
X3894683Y4669142D01*
X5357999Y6494275D02*
Y6500911D01*
X5667278Y4178300D02*
X5682868Y4193890D01*
X7207468Y3746500D02*
X7221258Y3732710D01*
X5173100Y5298689D02*
X5180425Y5291364D01*
X7220144Y3510468D02*
X7223963Y3514287D01*
X4794621Y5137222D02*
X4802121Y5144722D01*
X7906360Y3028340D02*
X7912100Y3022600D01*
X5225511Y6813769D02*
X5240454D01*
X4903878Y5150600D02*
X4911378Y5158100D01*
X5092636Y6492789D02*
Y6613021D01*
X7128798Y3543300D02*
X7194950D01*
X6653818Y4173220D02*
X6667500Y4159538D01*
X5156694Y5038783D02*
Y5043577D01*
X4683302Y5123180D02*
X4683302Y5123180D01*
X4610100Y5168900D02*
X4655820Y5123180D01*
X5388008Y6881323D02*
X5576093D01*
X5085502Y5348643D02*
X5093003Y5356143D01*
X7611398Y3924300D02*
Y3998140D01*
X5005915Y5078888D02*
X5013415Y5071388D01*
X5247415Y6741176D02*
X5247531Y6741293D01*
X5405840Y3365500D02*
X5405887Y3365454D01*
X7611398Y3998140D02*
X7620038Y4006780D01*
X5357999Y6500911D02*
X5362917D01*
X5604798Y4000500D02*
X5687598D01*
X5604798Y4178300D02*
X5667278D01*
X5136057Y5356143D02*
X5158520Y5378606D01*
X5078094Y6642564D02*
X5178052Y6742523D01*
X5013002Y5371792D02*
X5058698Y5417488D01*
X5078094Y6627564D02*
X5092636Y6613021D01*
X7256259Y3806540D02*
X7256635Y3806916D01*
X7194950Y3543300D02*
X7223963Y3514287D01*
X6451600Y4089400D02*
Y4169698D01*
X6667500Y4089400D02*
Y4159538D01*
X5327955Y6821270D02*
X5388008Y6881323D01*
X5093003Y5356143D02*
X5136057D01*
D47*
X5245281Y5603321D02*
X5245746Y5603787D01*
X5245281Y5600063D02*
Y5603321D01*
X5365202Y5667542D02*
X5377702Y5680042D01*
X5360202Y5667542D02*
X5365202D01*
X5317657Y5624997D02*
X5360202Y5667542D01*
X5317391Y5624997D02*
X5317657D01*
X5297894Y5605500D02*
X5317391Y5624997D01*
X5256600Y5605500D02*
X5297894D01*
X5248222Y5597122D02*
X5256600Y5605500D01*
X5248222Y5597122D02*
X5248222D01*
X5245281Y5600063D02*
X5248222Y5597122D01*
X7628073Y4148745D02*
X7634705Y4142113D01*
X7539118Y3785580D02*
Y3825369D01*
X7446635Y3917852D02*
Y3964332D01*
X7634705Y4142113D02*
X7706437D01*
X7816198Y3998300D02*
X7851198Y3963300D01*
X7446635Y4144783D02*
Y4184409D01*
X7777880Y3701720D02*
X7868200D01*
X7706437Y4142113D02*
X7781198Y4067352D01*
X7721600Y3758000D02*
X7777880Y3701720D01*
X7561618Y3763080D02*
X7564158Y3760540D01*
X7781198Y4033300D02*
Y4067352D01*
Y4033300D02*
X7816198Y3998300D01*
X7719060Y3760540D02*
X7721600Y3758000D01*
X7872460Y3838580D02*
Y3843580D01*
X7564158Y3760540D02*
X7719060D01*
X7446635Y4144783D02*
X7450138Y4141280D01*
X7446635Y3917852D02*
X7539118Y3825369D01*
X7450138Y4141280D02*
X7604539D01*
X7539118Y3785580D02*
X7561618Y3763080D01*
X7604539Y4141280D02*
X7620038Y4156780D01*
X7851198Y3864842D02*
X7872460Y3843580D01*
X7851198Y3864842D02*
Y3963300D01*
D48*
X5244100Y5715000D02*
X5269500D01*
X5493628Y5680346D02*
X5498628D01*
X5487878Y5686096D02*
X5493628Y5680346D01*
X5487878Y5686096D02*
Y5709866D01*
X5481952Y5715792D02*
X5487878Y5709866D01*
X5297479Y5715792D02*
X5481952D01*
X5272871Y5740400D02*
X5297479Y5715792D01*
X5269500Y5740400D02*
X5272871D01*
X6858595Y4362757D02*
X7054046D01*
X7055920Y4361997D02*
X7208395D01*
X6172200Y7518400D02*
X6182870Y7529070D01*
X6913510Y9170770D02*
X6914880Y9169400D01*
X5930833Y4667350D02*
Y4711767D01*
X6451888Y4361950D02*
X6652548D01*
X7242092Y4328300D02*
X7256635Y4313757D01*
X6586900Y9170770D02*
X6913510D01*
X5541298Y5101302D02*
X5930833Y4711767D01*
X7256635Y4184409D02*
Y4313757D01*
X6653818Y4363220D02*
X6654328Y4362710D01*
X7067620Y9306560D02*
X7082860Y9321800D01*
X5930833Y4667350D02*
X5933416Y4664767D01*
X7242092Y4328300D02*
X7916198D01*
X5541298Y5101302D02*
Y5476316D01*
X6857528Y4362710D02*
X6858038Y4362200D01*
X7082860Y9321800D02*
X7188200D01*
X7208395Y4361997D02*
X7242092Y4328300D01*
X7059600Y8659200D02*
Y8889200D01*
X5511004Y5506610D02*
X5541298Y5476316D01*
X6652548Y4361950D02*
X6653818Y4363220D01*
X5409860Y5624538D02*
Y5634713D01*
X6916250Y9170770D02*
Y9305190D01*
X6654328Y4362710D02*
X6857528D01*
X5404141Y5618820D02*
X5409860Y5624538D01*
X8016198Y3998300D02*
Y4228300D01*
X3801773Y8580120D02*
X3835400D01*
X6858038Y4362200D02*
X6858595Y4362757D01*
X5404141Y5506610D02*
Y5618820D01*
X6920630Y9028170D02*
Y9166390D01*
X7916198Y4328300D02*
X8016198Y4228300D01*
X3835400Y8580120D02*
X3881771D01*
X6190480Y4360680D02*
X6450618D01*
X5409860Y5634713D02*
X5454398Y5679252D01*
X5933416Y4617744D02*
Y4664767D01*
X6916250Y9170770D02*
X6920630Y9166390D01*
X3835400Y8468658D02*
Y8580120D01*
X6450618Y4360680D02*
X6451888Y4361950D01*
X5404141Y5506610D02*
X5511004D01*
X6920630Y9028170D02*
X7059600Y8889200D01*
X7054603Y4363314D02*
X7055920Y4361997D01*
X6558650Y9133028D02*
Y9142520D01*
X6586900Y9170770D01*
X7054046Y4362757D02*
X7054603Y4363314D01*
X6916250Y9305190D02*
X6917620Y9306560D01*
X5933416Y4617744D02*
X6190480Y4360680D01*
D49*
X2613300Y4121400D02*
X2661500Y4073200D01*
X2590800Y4121400D02*
X2613300D01*
X2580800Y4131400D02*
X2590800Y4121400D01*
X2449534Y4165600D02*
X2483734Y4131400D01*
X2375730Y4165600D02*
X2449534D01*
X2483734Y4131400D02*
X2580800D01*
X2324930Y4216400D02*
X2375730Y4165600D01*
X2311400Y4216400D02*
X2324930D01*
X2209800Y3134480D02*
X2309020Y3233700D01*
Y3291200D01*
X2209800Y3098800D02*
Y3134480D01*
X2309020Y3291200D02*
X2319020Y3301200D01*
D50*
X3492500Y4202600D02*
X3500440Y4210540D01*
X6235700Y7988300D02*
X6242050Y7981950D01*
X4406900Y5136505D02*
X4491900D01*
X6724650Y6980550D02*
Y7042150D01*
X5657855Y6439369D02*
X5667641Y6449154D01*
X3775182Y3919642D02*
X3775682Y3919142D01*
X7291575Y5950200D02*
X7388860Y6047485D01*
X2109110Y5923342D02*
X2115460Y5929692D01*
X6566900Y6426200D02*
X6578600Y6437900D01*
X6671320Y5259700D02*
X6673220Y5257800D01*
X6005060Y7376660D02*
Y7708900D01*
X3969681Y4564142D02*
X3984681Y4579142D01*
X3424682Y4399142D02*
Y4439143D01*
X2115460Y5929692D02*
Y6018592D01*
X6791320Y5295900D02*
X7650480D01*
X3073400Y8337920D02*
Y8420100D01*
X6234670Y9316486D02*
X6425170D01*
X6691900Y6488700D02*
X6705600Y6502400D01*
X3693681Y3919142D02*
X3694181Y3919642D01*
X5025886Y6388874D02*
Y6479539D01*
X6728850Y6663450D02*
X6731000Y6665600D01*
X4326900Y5136505D02*
X4406900D01*
X6718300Y7048500D02*
X6724650Y7042150D01*
X5745013Y6438317D02*
X5745065Y6438369D01*
X3775682Y3919142D02*
X3863681D01*
X3499681Y4564142D02*
X3589682D01*
X6566900Y6426200D02*
X6578600Y6414500D01*
X4044682Y4169143D02*
Y4319142D01*
X6502400Y5261600D02*
X6504300Y5259700D01*
X6005060Y8088794D02*
Y8277860D01*
X3984681Y4499142D02*
X4044682Y4439142D01*
X3424682Y4439143D02*
X3484681Y4499142D01*
X6796000Y5334400D02*
X7650880D01*
X4338478Y4805522D02*
X4343400Y4800600D01*
X6111137Y9286573D02*
X6197137D01*
X3073400Y8337920D02*
X3131820Y8279500D01*
X6891462Y6888922D02*
X6901180Y6898640D01*
X3693681Y3919142D02*
X3694181Y3918642D01*
X6728850Y6597150D02*
Y6663450D01*
X4246900Y5136505D02*
X4326900D01*
X6724650Y6980550D02*
X6731000Y6974200D01*
X7914640Y6847840D02*
X8026400Y6959600D01*
X3774681Y3829142D02*
X3775182Y3829643D01*
X3884682Y4009142D02*
X4044682Y4169143D01*
X6532208Y6754323D02*
X6538789Y6747742D01*
X6310388Y5256603D02*
X6497403D01*
X6005060Y7899400D02*
Y8088794D01*
X6684422Y5383302D02*
Y5424890D01*
X7749540Y5433060D02*
Y5450840D01*
X7157720Y6929120D02*
Y7043420D01*
X3710940Y5108613D02*
X3721777Y5119451D01*
X6098649Y9133028D02*
Y9240778D01*
X6897778Y6747742D02*
X6904360Y6741160D01*
X3775182Y3919642D02*
Y4008642D01*
X5516316Y6313317D02*
X5631368D01*
X6673220Y5196568D02*
Y5257800D01*
X7650880Y5334400D02*
X7749540Y5433060D01*
X4166900Y5136505D02*
X4246900D01*
X6819900Y6973560D02*
Y7048500D01*
X7934960Y6797040D02*
X8026400Y6705600D01*
X3775182Y3918642D02*
X3775682Y3919142D01*
X3754404Y4953518D02*
X3768545Y4967659D01*
X4340150Y5054150D02*
X4396100D01*
X3766900Y5052701D02*
X3768545Y5051055D01*
X3327400Y3149600D02*
X3352800Y3124200D01*
X5631121Y6627323D02*
X5640486D01*
X6497403Y5256603D02*
X6502400Y5261600D01*
X6005060Y7708900D02*
Y7899400D01*
X4936343Y6554314D02*
X4951111D01*
X6684422Y5424890D02*
X6738620Y5479088D01*
X3750964Y4890573D02*
X3777436Y4864100D01*
X6926580Y5400040D02*
Y5509260D01*
X7175500Y5950200D02*
X7291575D01*
X3685540Y4864100D02*
X3710940Y4889500D01*
X6425170Y9316486D02*
X6432790Y9324106D01*
X5631038Y6440750D02*
X5632419Y6439369D01*
X2115460Y6018592D02*
X2121810Y6024942D01*
X3694181Y3919642D02*
Y4008642D01*
X5632419Y6314369D02*
X5633471Y6313317D01*
X6673220Y5196568D02*
X6731000Y5138789D01*
X4044682Y4399142D02*
Y4439142D01*
X4086900Y5136505D02*
X4166900D01*
X6309594Y5374403D02*
X6498197D01*
X6901180Y6898640D02*
Y6973212D01*
X3585182Y4008642D02*
X3694181D01*
X3768545Y4967659D02*
Y5051055D01*
X4337782Y5051782D02*
X4340150Y5054150D01*
X3750964Y4890573D02*
Y4991100D01*
X2426700Y3086100D02*
X2439400Y3098800D01*
X5649296Y6627358D02*
X5667641Y6609013D01*
X6305391Y5251606D02*
X6310388Y5256603D01*
X5866019Y6438369D02*
X5894269Y6466619D01*
X4878094Y6612564D02*
Y6627564D01*
X7388860Y6047485D02*
Y6055360D01*
X6675760Y5374640D02*
X6684422Y5383302D01*
X2264698Y8338902D02*
X2324100Y8279500D01*
X6921500Y5232400D02*
X6922770Y5231130D01*
X3753650Y5119451D02*
X3766900Y5132700D01*
X4114800Y3124200D02*
Y3348927D01*
X6100300Y9242428D02*
Y9275736D01*
X5518748Y6440750D02*
X5631038D01*
X3774681Y4009142D02*
X3775182Y4008642D01*
X5633471Y6313317D02*
X5745013D01*
X6731000Y5123180D02*
Y5138789D01*
X4006900Y5136505D02*
X4086900D01*
X6305391Y5378606D02*
X6309594Y5374403D01*
X6959600Y7031632D02*
Y7045960D01*
X3605682Y3919142D02*
X3605682Y3919142D01*
X3926900Y5132700D02*
X3926900Y5132700D01*
X3569639Y4864100D02*
X3685540D01*
X5667641Y6449154D02*
Y6609013D01*
X6504300Y5259700D02*
X6671320D01*
X5894269Y6466619D02*
Y7265869D01*
X4878094Y6612564D02*
X4936343Y6554314D01*
X3954340Y4252692D02*
Y4317800D01*
X6738620Y5479088D02*
Y5509260D01*
X2324100Y8279500D02*
X2353598Y8308998D01*
X6922770Y5124450D02*
Y5231130D01*
X3710940Y4889500D02*
Y5108613D01*
X6039090Y9324106D02*
X6051930D01*
X5515898Y6437900D02*
X5518748Y6440750D01*
X3694181Y4008642D02*
X3694681Y4009142D01*
X5631368Y6313317D02*
X5632419Y6314369D01*
X4333555Y4956419D02*
X4338478Y4951496D01*
X3500440Y4210540D02*
Y4303900D01*
X3926900Y5136505D02*
X4006900D01*
X6901180Y6973212D02*
X6959600Y7031632D01*
X3605682Y3919142D02*
X3693681D01*
X3846900Y5132700D02*
X3926900D01*
X2438400Y3099800D02*
Y3200400D01*
X5580776Y6632006D02*
X5635804D01*
X6376400Y4927600D02*
Y4932600D01*
X5894269Y7265869D02*
X6005060Y7376660D01*
X2264698Y8338902D02*
Y8402320D01*
X6922770Y5124450D02*
X6924040Y5123180D01*
X3721777Y5119451D02*
X3753650D01*
X6100300Y9275736D02*
X6111137Y9286573D01*
X3694181Y3829642D02*
Y3918642D01*
X5745065Y6313369D02*
X5861019D01*
X4338478Y4805522D02*
Y4951496D01*
X6502400Y5370200D02*
X6591300D01*
X6949440Y6601460D02*
Y6631632D01*
X3994682Y4589142D02*
Y4699142D01*
X3984681Y4579142D02*
X3994682Y4589142D01*
X3484681Y4699142D02*
X3484681Y4699142D01*
X3327400Y3314700D02*
X3694801Y3682101D01*
X2438400Y3099800D02*
X2439400Y3098800D01*
X5576093Y6627323D02*
X5580776Y6632006D01*
X6305391Y5003609D02*
X6376400Y4932600D01*
X6946900Y5950200D02*
X7175500D01*
X5745065Y6438369D02*
X5866019D01*
X3954340Y4317800D02*
X3954681Y4318141D01*
X2353598Y8308998D02*
Y8478520D01*
X6051930Y9324106D02*
X6100300Y9275736D01*
X3694681Y3829142D02*
X3694801Y3829022D01*
X5515898Y6312900D02*
X5516316Y6313317D01*
X3327400Y3149600D02*
Y3314700D01*
X6981180Y6898640D02*
X7031980Y6847840D01*
X6498197Y5374403D02*
X6502400Y5370200D01*
X6904360Y6676712D02*
Y6741160D01*
X3879682Y4564142D02*
X3969681D01*
X6532208Y6881323D02*
X6539806Y6888922D01*
X6305391Y5003609D02*
Y5124606D01*
X5537200Y7201968D02*
Y7315200D01*
X6813200Y6595000D02*
X6816550Y6598350D01*
X3909723Y4864100D02*
X3994682Y4779142D01*
X6197137Y9286573D02*
X6234670Y9324106D01*
X3694181Y3829642D02*
X3694801Y3829022D01*
X5667641Y6449154D02*
X5678478Y6438317D01*
X6753220Y5257800D02*
X6791320Y5295900D01*
X3694801Y3682101D02*
Y3829022D01*
X7031980Y6847840D02*
X7914640D01*
X6593520Y5372420D02*
X6673540D01*
X6904360Y6676712D02*
X6949440Y6631632D01*
X3484681Y4579142D02*
X3499681Y4564142D01*
X3777436Y4864100D02*
X3909723D01*
X3774681Y3689045D02*
Y3829142D01*
X6532208Y6627323D02*
X6558744D01*
X6578600Y6437900D02*
Y6607467D01*
X6242050Y7899400D02*
Y7981950D01*
X5536633Y7201401D02*
X5537200Y7201968D01*
X5029200Y6350000D02*
X5046980Y6367780D01*
X6816550Y6598350D02*
Y6662250D01*
X6502400Y5107300D02*
Y5181600D01*
X3484681Y4779142D02*
X3569639Y4864100D01*
X3754404Y4953518D02*
X3770190D01*
X6098649Y9240778D02*
X6100300Y9242428D01*
X3774681Y4009142D02*
X3884682D01*
X3424682Y4169143D02*
X3585182Y4008642D01*
X5678478Y6438317D02*
X5745013D01*
X6578600Y6350000D02*
Y6414500D01*
X3774681Y3689045D02*
X4114800Y3348927D01*
X6984360Y6741160D02*
X7040240Y6797040D01*
X6673540Y5372420D02*
X6675760Y5374640D01*
X3500440Y4303900D02*
X3514681Y4318141D01*
X3484681Y4579142D02*
Y4699142D01*
X7160260Y6606540D02*
Y6718300D01*
X6558744Y6627323D02*
X6578600Y6607467D01*
X2336800Y3086100D02*
X2426700D01*
X6538789Y6747742D02*
X6897778D01*
X5025886Y6388874D02*
X5046980Y6367780D01*
X6816550Y6662250D02*
X6819900Y6665600D01*
X3766900Y5132700D02*
X3846900D01*
X6039090Y9514106D02*
X6432790D01*
X6755760Y5374640D02*
X6796000Y5334400D01*
X3775182Y3829643D02*
Y3918642D01*
X7040240Y6797040D02*
X7934960D01*
X6591300Y5370200D02*
X6593520Y5372420D01*
X3953998Y4252351D02*
X3954340Y4252692D01*
X3424682Y4169143D02*
Y4319142D01*
X7650480Y5295900D02*
X7749540Y5196840D01*
X6539806Y6888922D02*
X6891462D01*
X6691900Y6426200D02*
Y6488700D01*
X4951111Y6554314D02*
X5025886Y6479539D01*
X6726700Y6595000D02*
X6728850Y6597150D01*
D51*
X7410144Y3518106D02*
Y3648080D01*
X3894683Y4669142D02*
X3904683Y4679142D01*
X3528181Y4432642D02*
X3559681Y4464142D01*
X7526618Y3648080D02*
X7561618Y3613080D01*
X3499681Y4514142D02*
X3589682D01*
X3941182Y4413642D02*
X3954681Y4400143D01*
X5594138Y3769360D02*
X5595524Y3770746D01*
X3528181Y4413642D02*
Y4432642D01*
X7358418Y3823685D02*
Y3902252D01*
X5595887Y3365454D02*
X5631484Y3401051D01*
X3559681Y4464142D02*
X3589682D01*
X3941182Y4413642D02*
Y4432642D01*
X5593984Y3565502D02*
X5631484Y3528002D01*
X7407663Y3001843D02*
X7410144Y3004324D01*
X7411258Y3648080D02*
Y3710940D01*
X5631484Y3603002D02*
Y3732014D01*
X3879682Y4464142D02*
X3909682D01*
X7373758Y3748440D02*
Y3809040D01*
X7357869Y3902801D02*
Y3944766D01*
X7358418Y3945315D01*
X7410144Y3004324D02*
Y3510468D01*
X7373063Y3809040D02*
X7373758D01*
X5631484Y3401051D02*
Y3528002D01*
X4496900Y5122345D02*
Y5122700D01*
X7373758Y3748440D02*
X7411258Y3710940D01*
X5595524Y3770746D02*
X5829494D01*
X3484681Y4499142D02*
X3499681Y4514142D01*
X4486900Y5132700D02*
X4496900Y5122700D01*
X7357869Y3902801D02*
X7358418Y3902252D01*
X7410144Y3510468D02*
X7413963Y3514287D01*
X5594138Y3769360D02*
X5631484Y3732014D01*
X3879682Y4514142D02*
X3969681D01*
X7411258Y3648080D02*
X7526618D01*
X7358418Y3823685D02*
X7373063Y3809040D01*
X5593984Y3565502D02*
X5631484Y3603002D01*
X3969681Y4514142D02*
X3984681Y4499142D01*
X7410144Y3518106D02*
X7413963Y3514287D01*
X3894683Y4669142D02*
Y4669142D01*
X3514681Y4400143D02*
X3528181Y4413642D01*
X3909682Y4464142D02*
X3941182Y4432642D01*
D52*
X6064108Y3440485D02*
X6576584D01*
X6732784Y3693167D02*
Y3714284D01*
X5880138Y4003040D02*
X6015258D01*
X5349277Y4938969D02*
X5384577D01*
X6059494Y3130746D02*
Y3445099D01*
X6064108Y3440485D01*
X5943990Y4376310D02*
Y4391064D01*
X6756400Y3460669D02*
Y3602920D01*
X5268014Y4938737D02*
X5268245Y4938969D01*
X5969175Y4391064D02*
X6070600Y4289639D01*
X5496782Y4937724D02*
X5500582D01*
X5349277Y4957509D02*
X5366037D01*
X5875058Y4196080D02*
X5912558Y4233580D01*
X6756400Y3460669D02*
X6776720Y3440349D01*
X6732784Y3693167D02*
X6735098Y3690853D01*
X6015258Y4003040D02*
X6020223Y3998075D01*
X5349277Y4957509D02*
Y5124606D01*
X7868200Y3576720D02*
X7871100Y3573820D01*
X7752880Y3576720D02*
X7868200D01*
X5860968Y4402964D02*
Y4446051D01*
X6735098Y3602920D02*
X6964718D01*
X6676323Y3770746D02*
X6732784Y3714284D01*
X6015258Y4003040D02*
Y4025540D01*
X7721600Y3608000D02*
X7752880Y3576720D01*
X5860968Y4402964D02*
X5872868Y4391064D01*
X6735098Y3602920D02*
Y3690853D01*
X8006980Y3848100D02*
X8089900D01*
X5912558Y4233580D02*
Y4344879D01*
X5147880Y4939019D02*
X5267732D01*
X6020223Y3810017D02*
Y3998075D01*
X6070600Y4080882D02*
Y4289639D01*
X5711040Y4595980D02*
X5860968Y4446051D01*
X5267732Y4939019D02*
X5268014Y4938737D01*
X1968500Y4102100D02*
Y4229100D01*
X5384577Y4938969D02*
X5385177Y4938369D01*
X6020223Y3810017D02*
X6059494Y3770746D01*
X7721600Y3505200D02*
Y3608000D01*
X6289494Y3770746D02*
X6676323D01*
X7871100Y3495400D02*
X7874000Y3492500D01*
X5268245Y4938969D02*
X5349277D01*
X5496782D02*
X5551231D01*
X5912558Y4344879D02*
X5943990Y4376310D01*
X7871100Y3495400D02*
Y3573820D01*
X5496138Y4938369D02*
X5496782Y4937724D01*
X5877598Y4000500D02*
X5880138Y4003040D01*
X6015258Y4025540D02*
X6070600Y4080882D01*
X6776720Y3270200D02*
Y3440349D01*
X5551231Y4938969D02*
X5715000Y4775200D01*
X5943990Y4391064D02*
X5969175D01*
X5385177Y4938369D02*
X5496138D01*
X5366037Y4957509D02*
X5384577Y4938969D01*
X6059494Y3445099D02*
Y3770746D01*
X5147598Y4939300D02*
X5147880Y4939019D01*
X5715000Y4599940D02*
Y4775200D01*
D53*
X6591300Y5107940D02*
Y5182240D01*
Y5450200D02*
Y5524500D01*
X7039880Y9169400D02*
X7137400D01*
D54*
X6911000Y7647000D02*
X6911800Y7647800D01*
X7136200D02*
X7137400Y7646600D01*
X7035800Y7647800D02*
Y7747000D01*
X6911800Y7647800D02*
X7035800D01*
X7136200D01*
D55*
X5372100Y4343400D02*
D03*
X3276600Y3784600D02*
D03*
X4775200Y3200400D02*
D03*
X1841500Y6197600D02*
D03*
X2298700Y4584700D02*
D03*
X7407663Y3001843D02*
D03*
X5350798Y3098800D02*
D03*
X8128000Y6189980D02*
D03*
X7366000Y9707182D02*
D03*
Y8331200D02*
D03*
X2590800Y1739900D02*
D03*
X2365400Y2146300D02*
D03*
X5579398Y3098800D02*
D03*
X7153663Y3001843D02*
D03*
X2362200Y1739900D02*
D03*
X8026400Y6959600D02*
D03*
X7366000Y8564182D02*
D03*
Y9474200D02*
D03*
X7749540Y5450840D02*
D03*
X8128000Y5943600D02*
D03*
D56*
X2082800Y10718800D02*
D03*
X8128000Y2286000D02*
D03*
X4622800Y9461500D02*
D03*
X8178800Y10718800D02*
D03*
X4648200Y4140200D02*
D03*
X1016000Y2286000D02*
D03*
D57*
X3608070Y3379470D02*
D03*
Y2868930D02*
D03*
X3097530Y3379470D02*
D03*
Y2868930D02*
D03*
X4370070Y3379470D02*
D03*
Y2868930D02*
D03*
X3859530D02*
D03*
Y3379470D02*
D03*
D58*
X3352800Y3124200D02*
D03*
X4114800D02*
D03*
D59*
X3694682Y4579142D02*
D03*
X3774682D02*
D03*
Y4499142D02*
D03*
X3694682D02*
D03*
D60*
X914400Y10121900D02*
D03*
Y10756900D02*
D03*
X905798Y8542020D02*
D03*
Y9177020D02*
D03*
D61*
X2565400Y2146300D02*
D03*
D62*
X8026400Y6705600D02*
D03*
X7749540Y5196840D02*
D03*
D63*
X5750000Y7480000D02*
D03*
X7390800Y9243000D02*
D03*
X7515800Y8993000D02*
D03*
X7390800Y8743000D02*
D03*
X7515800Y8493000D02*
D03*
Y7993000D02*
D03*
X7390800Y7743000D02*
D03*
X7265800Y8993000D02*
D03*
Y8493000D02*
D03*
X6765800Y8993000D02*
D03*
X6515800D02*
D03*
X5140800Y6243000D02*
D03*
X3530600Y6527800D02*
D03*
Y6426200D02*
D03*
Y6629400D02*
D03*
X5592460Y5796704D02*
D03*
X5156200Y5511800D02*
D03*
X5169088Y5796380D02*
D03*
X5233623Y5874360D02*
D03*
X5283369Y5822597D02*
D03*
X5059383Y5535767D02*
D03*
X5058441Y5653502D02*
D03*
X3048000Y4419600D02*
D03*
X2971800D02*
D03*
X2870200D02*
D03*
X2768600D02*
D03*
X3073400Y4038600D02*
D03*
X2895600D02*
D03*
X2692400D02*
D03*
X2540000D02*
D03*
X3149600Y4470400D02*
D03*
X3318338Y4181659D02*
D03*
X5070400Y6832600D02*
D03*
X7924800Y5410200D02*
D03*
X8255000D02*
D03*
Y5156200D02*
D03*
X7924800D02*
D03*
X8102600Y5283200D02*
D03*
X7162800Y5207000D02*
D03*
X7493000D02*
D03*
Y4953000D02*
D03*
X7162800D02*
D03*
X7340600Y5080000D02*
D03*
X6451600Y6146800D02*
D03*
X6781800D02*
D03*
Y5892800D02*
D03*
X6451600D02*
D03*
X6629400Y6019800D02*
D03*
X7416800Y5892800D02*
D03*
X7747000D02*
D03*
Y5638800D02*
D03*
X7416800D02*
D03*
X7594600Y5765800D02*
D03*
X7569200Y6375400D02*
D03*
X7391400Y6248400D02*
D03*
X7721600D02*
D03*
Y6502400D02*
D03*
X7391400D02*
D03*
Y6959600D02*
D03*
X7696200D02*
D03*
X7264400Y8737600D02*
D03*
X6578600Y8915400D02*
D03*
X6045200D02*
D03*
X7366000Y7975600D02*
D03*
X6172200Y9728200D02*
D03*
X6350000D02*
D03*
X6578600D02*
D03*
X6756400D02*
D03*
X6959600D02*
D03*
X7137400D02*
D03*
X8999997Y10799997D02*
D03*
Y2399999D02*
D03*
Y1799999D02*
D03*
X8699997Y10799997D02*
D03*
X8849997Y10499997D02*
D03*
X8699997Y2399999D02*
D03*
X8849997Y2099999D02*
D03*
X8699997Y1799999D02*
D03*
X8549997Y10499997D02*
D03*
Y2099999D02*
D03*
X8399997Y1799999D02*
D03*
X8099998D02*
D03*
X7799998Y10799997D02*
D03*
Y1799999D02*
D03*
X7499998Y10799997D02*
D03*
X7649998Y10499997D02*
D03*
X7499998Y2399999D02*
D03*
X7649998Y2099999D02*
D03*
X7499998Y1799999D02*
D03*
X7199998Y10799997D02*
D03*
X7349998Y10499997D02*
D03*
X7199998Y2399999D02*
D03*
X7349998Y2099999D02*
D03*
X7199998Y1799999D02*
D03*
X6899998Y10799997D02*
D03*
X7049998Y10499997D02*
D03*
X6899998Y2399999D02*
D03*
X7049998Y2099999D02*
D03*
X6899998Y1799999D02*
D03*
X6599998Y10799997D02*
D03*
X6749998Y10499997D02*
D03*
X6599998Y2399999D02*
D03*
X6749998Y2099999D02*
D03*
X6599998Y1799999D02*
D03*
X6299998Y10799997D02*
D03*
X6449998Y10499997D02*
D03*
X6299998Y2399999D02*
D03*
X6449998Y2099999D02*
D03*
X6299998Y1799999D02*
D03*
X5999998Y10799997D02*
D03*
X6149998Y10499997D02*
D03*
X5999998Y2399999D02*
D03*
X6149998Y2099999D02*
D03*
X5999998Y1799999D02*
D03*
X5699998Y10799997D02*
D03*
X5849998Y10499997D02*
D03*
X5699998Y2399999D02*
D03*
X5849998Y2099999D02*
D03*
X5699998Y1799999D02*
D03*
X5399998Y10799997D02*
D03*
X5549998Y10499997D02*
D03*
X5399998Y10199997D02*
D03*
Y9599997D02*
D03*
Y8999997D02*
D03*
Y2399999D02*
D03*
X5549998Y2099999D02*
D03*
X5399998Y1799999D02*
D03*
X5099998Y10799997D02*
D03*
X5249998Y10499997D02*
D03*
X5099998Y10199997D02*
D03*
X5249998Y9899997D02*
D03*
Y9299997D02*
D03*
X5099998Y8999997D02*
D03*
X5249998Y8699997D02*
D03*
X5099998Y2399999D02*
D03*
X5249998Y2099999D02*
D03*
X5099998Y1799999D02*
D03*
X4799999Y10799997D02*
D03*
X4949998Y10499997D02*
D03*
X4799999Y10199997D02*
D03*
X4949998Y8699997D02*
D03*
Y3299999D02*
D03*
X4799999Y2999999D02*
D03*
X4949998Y2699999D02*
D03*
X4799999Y2399999D02*
D03*
X4949998Y2099999D02*
D03*
X4799999Y1799999D02*
D03*
X4499999Y10799997D02*
D03*
X4649999Y10499997D02*
D03*
X4499999Y10199997D02*
D03*
X4649999Y8699997D02*
D03*
X4499999Y4799999D02*
D03*
X4649999Y3299999D02*
D03*
X4499999Y2999999D02*
D03*
X4649999Y2699999D02*
D03*
X4499999Y2399999D02*
D03*
X4649999Y2099999D02*
D03*
X4499999Y1799999D02*
D03*
X4199999Y10799997D02*
D03*
X4349999Y10499997D02*
D03*
X4199999Y10199997D02*
D03*
Y8999997D02*
D03*
X4349999Y8699997D02*
D03*
X4199999Y4799999D02*
D03*
Y3599999D02*
D03*
X4349999Y2699999D02*
D03*
X4199999Y2399999D02*
D03*
X4349999Y2099999D02*
D03*
X4199999Y1799999D02*
D03*
X3899999Y10799997D02*
D03*
X4049999Y10499997D02*
D03*
X3899999Y10199997D02*
D03*
X4049999Y9899997D02*
D03*
X3899999Y9599997D02*
D03*
X4049999Y9299997D02*
D03*
X3899999Y8999997D02*
D03*
X4049999Y3299999D02*
D03*
Y2699999D02*
D03*
X3899999Y2399999D02*
D03*
X4049999Y2099999D02*
D03*
X3899999Y1799999D02*
D03*
X3599999Y10799997D02*
D03*
X3749999Y10499997D02*
D03*
X3599999Y10199997D02*
D03*
X3749999Y9899997D02*
D03*
X3599999Y9599997D02*
D03*
X3749999Y9299997D02*
D03*
X3599999Y8999997D02*
D03*
X3749999Y2699999D02*
D03*
X3599999Y2399999D02*
D03*
X3749999Y2099999D02*
D03*
X3599999Y1799999D02*
D03*
X3299999Y10799997D02*
D03*
X3449999Y10499997D02*
D03*
X3299999Y10199997D02*
D03*
X3449999Y9899997D02*
D03*
X3299999Y9599997D02*
D03*
X3449999Y9299997D02*
D03*
X3299999Y8999997D02*
D03*
X3449999Y8699997D02*
D03*
X3299999Y3599999D02*
D03*
X3449999Y3299999D02*
D03*
Y2699999D02*
D03*
X3299999Y2399999D02*
D03*
X3449999Y2099999D02*
D03*
X3299999Y1799999D02*
D03*
X2999999Y10799997D02*
D03*
X3149999Y10499997D02*
D03*
X2999999Y10199997D02*
D03*
X3149999Y9899997D02*
D03*
X2999999Y9599997D02*
D03*
X3149999Y9299997D02*
D03*
X2999999Y8999997D02*
D03*
X3149999Y8699997D02*
D03*
Y5699998D02*
D03*
X2999999Y5399998D02*
D03*
Y4799999D02*
D03*
X3149999Y3899999D02*
D03*
X2999999Y3599999D02*
D03*
Y2999999D02*
D03*
X3149999Y2699999D02*
D03*
X2999999Y2399999D02*
D03*
X3149999Y2099999D02*
D03*
X2999999Y1799999D02*
D03*
X2699999Y10799997D02*
D03*
X2849999Y10499997D02*
D03*
X2699999Y10199997D02*
D03*
X2849999Y9899997D02*
D03*
X2699999Y9599997D02*
D03*
X2849999Y9299997D02*
D03*
X2699999Y8999997D02*
D03*
X2849999Y8699997D02*
D03*
X2699999Y5999998D02*
D03*
X2849999Y5699998D02*
D03*
X2699999Y5399998D02*
D03*
Y4799999D02*
D03*
X2849999Y4499999D02*
D03*
Y3899999D02*
D03*
X2699999Y3599999D02*
D03*
X2849999Y3299999D02*
D03*
Y2699999D02*
D03*
Y2099999D02*
D03*
X2549999Y10499997D02*
D03*
X2399999Y10199997D02*
D03*
X2549999Y9899997D02*
D03*
X2399999Y9599997D02*
D03*
X2549999Y9299997D02*
D03*
X2399999Y8999997D02*
D03*
X2549999Y8699997D02*
D03*
Y6899998D02*
D03*
X2399999Y6599998D02*
D03*
Y5999998D02*
D03*
X2549999Y5699998D02*
D03*
X2399999Y5399998D02*
D03*
X2549999Y5099998D02*
D03*
X2399999Y4799999D02*
D03*
X2549999Y4499999D02*
D03*
Y3899999D02*
D03*
X2099999Y10199997D02*
D03*
X2249999Y9899997D02*
D03*
X2099999Y9599997D02*
D03*
X2249999Y6899998D02*
D03*
X2099999Y6599998D02*
D03*
X2249999Y5699998D02*
D03*
X2099999Y5399998D02*
D03*
X2249999Y5099998D02*
D03*
X2099999Y4799999D02*
D03*
Y2399999D02*
D03*
X2249999Y2099999D02*
D03*
X2099999Y1799999D02*
D03*
X1799999Y10199997D02*
D03*
X1949999Y9899997D02*
D03*
Y6899998D02*
D03*
X1799999Y6599998D02*
D03*
X1949999Y6299998D02*
D03*
X1799999Y5999998D02*
D03*
X1949999Y5699998D02*
D03*
X1799999Y5399998D02*
D03*
X1949999Y5099998D02*
D03*
X1799999Y4799999D02*
D03*
X1949999Y4499999D02*
D03*
X1799999Y4199999D02*
D03*
X1949999Y3899999D02*
D03*
X1799999Y3599999D02*
D03*
Y2999999D02*
D03*
X1949999Y2699999D02*
D03*
X1799999Y2399999D02*
D03*
X1949999Y2099999D02*
D03*
X1799999Y1799999D02*
D03*
X1500000Y10799997D02*
D03*
X1649999Y10499997D02*
D03*
X1500000Y10199997D02*
D03*
X1649999Y6899998D02*
D03*
X1500000Y6599998D02*
D03*
X1649999Y6299998D02*
D03*
X1500000Y5999998D02*
D03*
X1649999Y5699998D02*
D03*
X1500000Y5399998D02*
D03*
X1649999Y5099998D02*
D03*
X1500000Y4799999D02*
D03*
X1649999Y4499999D02*
D03*
X1500000Y4199999D02*
D03*
X1649999Y3899999D02*
D03*
X1500000Y3599999D02*
D03*
X1649999Y3299999D02*
D03*
X1500000Y2999999D02*
D03*
X1649999Y2699999D02*
D03*
X1500000Y2399999D02*
D03*
X1649999Y2099999D02*
D03*
X1500000Y1799999D02*
D03*
X1200000Y10799997D02*
D03*
X1350000Y10499997D02*
D03*
X1200000Y10199997D02*
D03*
X1350000Y9899997D02*
D03*
Y6899998D02*
D03*
X1200000Y6599998D02*
D03*
X1350000Y6299998D02*
D03*
X1200000Y5999998D02*
D03*
X1350000Y5699998D02*
D03*
X1200000Y5399998D02*
D03*
X1350000Y5099998D02*
D03*
X1200000Y4799999D02*
D03*
X1350000Y4499999D02*
D03*
X1200000Y4199999D02*
D03*
X1350000Y3899999D02*
D03*
X1200000Y3599999D02*
D03*
X1350000Y3299999D02*
D03*
X1200000Y2999999D02*
D03*
X1350000Y2699999D02*
D03*
Y2099999D02*
D03*
X1200000Y1799999D02*
D03*
X1050000Y10499997D02*
D03*
Y6899998D02*
D03*
X900000Y6599998D02*
D03*
X1050000Y6299998D02*
D03*
X900000Y5999998D02*
D03*
X1050000Y5699998D02*
D03*
X900000Y5399998D02*
D03*
X1050000Y5099998D02*
D03*
X900000Y4799999D02*
D03*
X1050000Y4499999D02*
D03*
X900000Y4199999D02*
D03*
X1050000Y3899999D02*
D03*
X900000Y3599999D02*
D03*
X1050000Y3299999D02*
D03*
X900000Y2999999D02*
D03*
X1050000Y2699999D02*
D03*
X900000Y1799999D02*
D03*
X600000Y10799997D02*
D03*
X750000Y10499997D02*
D03*
X600000Y10199997D02*
D03*
X750000Y9899997D02*
D03*
Y6899998D02*
D03*
X600000Y6599998D02*
D03*
X750000Y6299998D02*
D03*
X600000Y5999998D02*
D03*
X750000Y5699998D02*
D03*
X600000Y5399998D02*
D03*
X750000Y5099998D02*
D03*
X600000Y4799999D02*
D03*
X750000Y4499999D02*
D03*
X600000Y4199999D02*
D03*
X750000Y3899999D02*
D03*
X600000Y3599999D02*
D03*
X750000Y3299999D02*
D03*
X600000Y2999999D02*
D03*
X750000Y2699999D02*
D03*
X600000Y2399999D02*
D03*
Y1799999D02*
D03*
X300000Y10799997D02*
D03*
X450000Y10499997D02*
D03*
X300000Y10199997D02*
D03*
X450000Y9899997D02*
D03*
X300000Y7199998D02*
D03*
X450000Y6899998D02*
D03*
X300000Y6599998D02*
D03*
X450000Y6299998D02*
D03*
X300000Y5999998D02*
D03*
X450000Y5699998D02*
D03*
X300000Y5399998D02*
D03*
X450000Y5099998D02*
D03*
X300000Y4799999D02*
D03*
X450000Y4499999D02*
D03*
X300000Y4199999D02*
D03*
X450000Y3899999D02*
D03*
X300000Y3599999D02*
D03*
X450000Y3299999D02*
D03*
X300000Y2999999D02*
D03*
X450000Y2699999D02*
D03*
X300000Y2399999D02*
D03*
X450000Y2099999D02*
D03*
X300000Y1799999D02*
D03*
X5070400Y6985000D02*
D03*
X4279900Y8483600D02*
D03*
X3378200D02*
D03*
X2133600Y6273800D02*
D03*
X4770400Y7061200D02*
D03*
X2438400Y3200400D02*
D03*
X5054600Y4813300D02*
D03*
X3975100Y8407400D02*
D03*
X2844800Y8483600D02*
D03*
X7162800Y8509000D02*
D03*
X4379100Y5499100D02*
D03*
X4584700Y4978400D02*
D03*
X3606800Y8407400D02*
D03*
X6747798Y4178300D02*
D03*
X7162800Y7899400D02*
D03*
X4679100Y5499100D02*
D03*
X4414855Y4956419D02*
D03*
X3078875Y4958959D02*
D03*
X5575300Y4178300D02*
D03*
X2209800Y4064000D02*
D03*
X2260600Y2870200D02*
D03*
X1955800Y3352800D02*
D03*
X3611880Y5021580D02*
D03*
X7137400Y9169400D02*
D03*
X4089655Y4956419D02*
D03*
X5346700Y8483600D02*
D03*
X3967480Y5019040D02*
D03*
X7912100Y3022600D02*
D03*
X6159500Y7988300D02*
D03*
X3149600Y8407400D02*
D03*
X5041900D02*
D03*
X6596544Y7075970D02*
D03*
X3514683Y3849142D02*
D03*
X5575300Y4089400D02*
D03*
X6451600D02*
D03*
X5435600Y5880100D02*
D03*
X5556219Y6249869D02*
D03*
X4813300Y8483600D02*
D03*
X2159000Y8788400D02*
D03*
X6926580Y5400040D02*
D03*
X8089900Y3848100D02*
D03*
X6159500Y7797800D02*
D03*
X4508500Y8407400D02*
D03*
X3606800Y8483600D02*
D03*
X2184400Y6197600D02*
D03*
X4620400Y7061200D02*
D03*
X4610100Y5168900D02*
D03*
X3975100Y8483600D02*
D03*
X2768600D02*
D03*
X6731000Y8432800D02*
D03*
X4829100Y5651500D02*
D03*
X7150100Y3911600D02*
D03*
X5638800Y7086600D02*
D03*
X2463800Y8407400D02*
D03*
X2159000Y8483600D02*
D03*
X7239000Y7797800D02*
D03*
X4620400Y6908800D02*
D03*
X2997575Y4958959D02*
D03*
X3927055Y4956419D02*
D03*
X2260600Y2971800D02*
D03*
X5168900Y4749800D02*
D03*
X7188200Y9321800D02*
D03*
X4920400Y6908800D02*
D03*
X3322775Y4958959D02*
D03*
X5575300Y4000500D02*
D03*
X6235700Y7797800D02*
D03*
X5499100Y8407400D02*
D03*
X4048760Y5019040D02*
D03*
X2961640Y5021580D02*
D03*
X6502400Y5107300D02*
D03*
X5435600Y6324600D02*
D03*
X3098800Y6858000D02*
D03*
X3721100Y8661400D02*
D03*
X7124700Y3644900D02*
D03*
X5041900Y8483600D02*
D03*
X6507156Y7074982D02*
D03*
X3794683Y4169142D02*
D03*
X6667500Y4089400D02*
D03*
X4737100Y8407400D02*
D03*
X2159000Y8712200D02*
D03*
X5632419Y6249869D02*
D03*
X7157720Y6929120D02*
D03*
X4508500Y8483600D02*
D03*
X3530600D02*
D03*
X2057400Y6400800D02*
D03*
X4470400Y7061200D02*
D03*
X6819900Y7048500D02*
D03*
X6223000Y7607300D02*
D03*
X4203700Y8407400D02*
D03*
X2997200Y8483600D02*
D03*
X6731000Y8509000D02*
D03*
X4770400Y6985000D02*
D03*
X6286500Y3962400D02*
D03*
X2616200Y8407400D02*
D03*
X2235200Y8483600D02*
D03*
X7035800Y7747000D02*
D03*
X3650744Y4958824D02*
D03*
X5257800Y4749800D02*
D03*
X3073400Y8407400D02*
D03*
X2880360Y5021580D02*
D03*
X6265198Y5588000D02*
D03*
X5969000Y9626600D02*
D03*
X4529100Y5499100D02*
D03*
X4170955Y4956419D02*
D03*
X3975100Y8661400D02*
D03*
X4902200Y6515100D02*
D03*
X5499100Y8483600D02*
D03*
X4130040Y5019040D02*
D03*
X3042920Y5021580D02*
D03*
X6354098Y5588000D02*
D03*
X5715000Y7010400D02*
D03*
X5270500Y8407400D02*
D03*
X6813200Y6595000D02*
D03*
X3674683Y4169142D02*
D03*
X6565900Y4089400D02*
D03*
X5613400Y5880100D02*
D03*
X3530600Y8407400D02*
D03*
X4737100Y8483600D02*
D03*
X2235200Y8940800D02*
D03*
X5708619Y6249869D02*
D03*
X7160260Y6718300D02*
D03*
X4432300Y8407400D02*
D03*
X3683000Y8483600D02*
D03*
X2184400Y6502400D02*
D03*
X2692400Y6553200D02*
D03*
X6718300Y7048500D02*
D03*
X4829100Y5575300D02*
D03*
X4203700Y8483600D02*
D03*
X2921000D02*
D03*
X5312698Y3556000D02*
D03*
X6934200Y8432800D02*
D03*
X2768600Y8407400D02*
D03*
X2197100Y9347200D02*
D03*
X2387600Y8483600D02*
D03*
X7128798Y3746500D02*
D03*
X6629400Y7620000D02*
D03*
X4529100Y5651500D02*
D03*
X6286500Y4114800D02*
D03*
X5575300Y4356100D02*
D03*
X2540000Y8407400D02*
D03*
X5058698Y5422900D02*
D03*
X7611398Y3924300D02*
D03*
X6070600Y9626600D02*
D03*
X4470400Y6908800D02*
D03*
X3404075Y4958959D02*
D03*
X3886200Y8750300D02*
D03*
X2260600Y2463800D02*
D03*
X5270500Y6908800D02*
D03*
X4211320Y5019040D02*
D03*
X3124200Y5021580D02*
D03*
X6591300Y5524500D02*
D03*
X5741931Y7121949D02*
D03*
X6502400Y5016500D02*
D03*
X7124700Y3441700D02*
D03*
X5270500Y8483600D02*
D03*
X7124700Y5842000D02*
D03*
X3494682Y3919142D02*
D03*
X3530600Y6731000D02*
D03*
X6769100Y4089400D02*
D03*
X5473700Y6248400D02*
D03*
X3683000Y8407400D02*
D03*
X4965700D02*
D03*
X2235200Y8864600D02*
D03*
X5784819Y6249869D02*
D03*
X3810882Y4767742D02*
D03*
X4432300Y8483600D02*
D03*
X2235200Y8636000D02*
D03*
X2082800Y6197600D02*
D03*
X4127500Y8407400D02*
D03*
X3149600Y8483600D02*
D03*
X4529100Y5727700D02*
D03*
X6934200Y8509000D02*
D03*
X2844800Y8407400D02*
D03*
X2197100Y9245600D02*
D03*
X2311400Y8483600D02*
D03*
X7230398Y3644900D02*
D03*
X6544598Y4178300D02*
D03*
X6731000Y7620000D02*
D03*
X4470400Y6985000D02*
D03*
X2311400Y8407400D02*
D03*
X2667000Y4406900D02*
D03*
X6963698Y3835400D02*
D03*
X6172200Y9626600D02*
D03*
X4920400Y6985000D02*
D03*
X4252255Y4956419D02*
D03*
X5435600Y4749800D02*
D03*
X4292600Y5019040D02*
D03*
X3205480Y5021580D02*
D03*
X5486400Y7112000D02*
D03*
X6261100Y5029200D02*
D03*
X7721600Y3505200D02*
D03*
X5194300Y8407400D02*
D03*
X7213600Y5842000D02*
D03*
X3974682Y3919142D02*
D03*
X2336800Y3086100D02*
D03*
X6985000Y4089400D02*
D03*
X5524500Y5880100D02*
D03*
X4953000Y6578600D02*
D03*
X2387600Y8407400D02*
D03*
X4965700Y8483600D02*
D03*
X2159000Y8940800D02*
D03*
X5861019Y6249869D02*
D03*
X3734682Y4767742D02*
D03*
X4660900Y8407400D02*
D03*
X2235200Y8559800D02*
D03*
X2133600Y6350000D02*
D03*
X3799840Y4292600D02*
D03*
X4229100Y5727700D02*
D03*
X6235700Y8178800D02*
D03*
X4127500Y8483600D02*
D03*
X3073400D02*
D03*
X4679100Y5727700D02*
D03*
X4470400Y6832600D02*
D03*
X4379100Y5575300D02*
D03*
X3492500Y4202600D02*
D03*
X2997200Y8407400D02*
D03*
X2197100Y9144000D02*
D03*
X2540000Y8483600D02*
D03*
X7128798Y3543300D02*
D03*
X6341398Y4178300D02*
D03*
X6527800Y8153400D02*
D03*
X4529100Y5575300D02*
D03*
X3556000Y4152900D02*
D03*
X3953998Y4252351D02*
D03*
X4826000Y6515100D02*
D03*
X3378200Y8407400D02*
D03*
X2590800Y4406900D02*
D03*
X5325398Y3365500D02*
D03*
X6273800Y9626600D02*
D03*
X3485375Y4958959D02*
D03*
X4008355Y4956419D02*
D03*
X1968500Y4102100D02*
D03*
X4373880Y5019040D02*
D03*
X3286760Y5021580D02*
D03*
X6502400Y5524500D02*
D03*
X5486400Y7188200D02*
D03*
X4379100Y5651500D02*
D03*
X2794000Y6858000D02*
D03*
X5524500Y4749800D02*
D03*
X7874000Y3492500D02*
D03*
X5194300Y8483600D02*
D03*
X6997700Y5842000D02*
D03*
X3914683Y4169142D02*
D03*
X7150100Y4000500D02*
D03*
X3606800Y4368800D02*
D03*
X6354098Y4089400D02*
D03*
X3225800Y8407400D02*
D03*
X4889500D02*
D03*
X2159000Y8864600D02*
D03*
X7213600Y6248400D02*
D03*
X3658482Y4767742D02*
D03*
X4660900Y8483600D02*
D03*
X2159000Y8636000D02*
D03*
X2082800Y6502400D02*
D03*
X4379100Y5727700D02*
D03*
X4597400Y5080000D02*
D03*
X4356100Y8407400D02*
D03*
X3302000Y8483600D02*
D03*
X2689514Y6647180D02*
D03*
X4829100Y5727700D02*
D03*
X2235200Y8407400D02*
D03*
X2197100Y9042400D02*
D03*
X2463800Y8483600D02*
D03*
X7128798Y3340100D02*
D03*
X6956878Y4173314D02*
D03*
X6527800Y8001000D02*
D03*
X2514600Y4406900D02*
D03*
X6375400Y9626600D02*
D03*
X4333555Y4956419D02*
D03*
X5397500Y4194300D02*
D03*
X2260600Y2565400D02*
D03*
Y2667000D02*
D03*
X2082800Y2997200D02*
D03*
X4455160Y5019040D02*
D03*
X3368040Y5021580D02*
D03*
X5486400Y7264400D02*
D03*
X4620400Y6985000D02*
D03*
X3797300Y8750300D02*
D03*
X5422900Y8407400D02*
D03*
X6908800Y5842000D02*
D03*
X3904683Y4679142D02*
D03*
X3770190Y4953518D02*
D03*
X7073900Y4089400D02*
D03*
X6235700Y7988300D02*
D03*
X3454400Y8407400D02*
D03*
X4889500Y8483600D02*
D03*
X7124700Y6248400D02*
D03*
X3954682Y3849142D02*
D03*
X5346700Y5880100D02*
D03*
X4584700Y8407400D02*
D03*
X2159000Y8559800D02*
D03*
X2057400Y6299200D02*
D03*
X3672840Y4292600D02*
D03*
X4229100Y5499100D02*
D03*
X2109110Y5923342D02*
D03*
X4356100Y8483600D02*
D03*
X3225800D02*
D03*
X2286000Y6502400D02*
D03*
X5070400Y7061200D02*
D03*
X4829100Y5499100D02*
D03*
X4864100Y6451600D02*
D03*
X4051300Y8407400D02*
D03*
X2692400Y8483600D02*
D03*
X6527800Y8077200D02*
D03*
X3302000Y8407400D02*
D03*
X6477000Y9626600D02*
D03*
X4620400Y6832600D02*
D03*
X4229100Y5575300D02*
D03*
X2916275Y4958959D02*
D03*
X3241475D02*
D03*
X1981200Y3098800D02*
D03*
X3449320Y5021580D02*
D03*
X5740400Y7239000D02*
D03*
X4679100Y5575300D02*
D03*
X6375400Y5029200D02*
D03*
X6578600Y6350000D02*
D03*
X5422900Y8483600D02*
D03*
X3804920Y5019040D02*
D03*
X5575300Y4267200D02*
D03*
X2692400Y8407400D02*
D03*
X5118100D02*
D03*
X6908800Y6248400D02*
D03*
X3884683Y3829142D02*
D03*
X4229100Y5651500D02*
D03*
X4584700Y8483600D02*
D03*
X2235200Y8788400D02*
D03*
X2286000Y6197600D02*
D03*
X6705600Y6502400D02*
D03*
X4679100Y5651500D02*
D03*
X6159500Y8178800D02*
D03*
X4279900Y8407400D02*
D03*
X3454400Y8483600D02*
D03*
X2133600Y6426200D02*
D03*
X4920400Y7061200D02*
D03*
X4051300Y8483600D02*
D03*
X2616200D02*
D03*
X5312698Y3771900D02*
D03*
X7162800Y8432800D02*
D03*
X4770400Y6908800D02*
D03*
X2159000Y8407400D02*
D03*
X7035800Y7848600D02*
D03*
X5070400Y6908800D02*
D03*
X3566675Y4958959D02*
D03*
X3845755Y4956419D02*
D03*
X2260600Y2768600D02*
D03*
X6883400Y4089400D02*
D03*
X1955800Y3238500D02*
D03*
X3530600Y5021580D02*
D03*
X5740400Y7366000D02*
D03*
X3160175Y4958959D02*
D03*
X5346700Y4749800D02*
D03*
Y8407400D02*
D03*
X3886200Y5019040D02*
D03*
X6493798Y6540500D02*
D03*
X6591300Y5107940D02*
D03*
X6726700Y6595000D02*
D03*
X6210300Y4114800D02*
D03*
X6286500Y4038600D02*
D03*
X6985000Y3263900D02*
D03*
X2921000Y8407400D02*
D03*
X5118100Y8483600D02*
D03*
X7010400Y6248400D02*
D03*
X3584682Y3829142D02*
D03*
X7239000Y3441700D02*
D03*
X4813300Y8407400D02*
D03*
X2235200Y8712200D02*
D03*
X6921500Y5232400D02*
D03*
%TF.MD5,21e28d6b7fc8b0c1abe99f6d249b555b*%
M02*
