%TF.GenerationSoftware,Altium Limited,Altium Designer,22.9.1 (49)*%
G04 Layer_Color=32896*
%FSLAX45Y45*%
%MOMM*%
%TF.SameCoordinates,B7DE9D22-2107-43EB-A15B-9EDAE082944A*%
%TF.FilePolarity,Positive*%
%TF.FileFunction,Legend,Bot*%
%TF.Part,Single*%
G01*
G75*
%TA.AperFunction,NonConductor*%
%ADD67C,0.25000*%
%ADD68C,0.20000*%
%ADD69C,0.10000*%
G36*
X6425234Y7525078D02*
X6426784Y7522822D01*
X6428617Y7520567D01*
X6430308Y7518593D01*
X6432000Y7516901D01*
X6433269Y7515492D01*
X6433833Y7515069D01*
X6434256Y7514646D01*
X6434397Y7514505D01*
X6434538Y7514364D01*
X6437498Y7511967D01*
X6440458Y7509712D01*
X6443278Y7507738D01*
X6446097Y7506188D01*
X6448494Y7504778D01*
X6449480Y7504214D01*
X6450326Y7503791D01*
X6451031Y7503368D01*
X6451595Y7503227D01*
X6451877Y7502945D01*
X6452018D01*
Y7491386D01*
X6449903Y7492232D01*
X6447789Y7493218D01*
X6445674Y7494205D01*
X6443701Y7495192D01*
X6442009Y7496038D01*
X6440599Y7496743D01*
X6439753Y7497307D01*
X6439612Y7497448D01*
X6439472D01*
X6436934Y7498998D01*
X6434679Y7500549D01*
X6432705Y7501959D01*
X6431154Y7503227D01*
X6429745Y7504214D01*
X6428899Y7505060D01*
X6428194Y7505624D01*
X6428053Y7505765D01*
Y7429500D01*
X6416070D01*
Y7527474D01*
X6423824D01*
X6425234Y7525078D01*
D02*
G37*
G36*
X6728460Y7429500D02*
X6715491D01*
Y7475456D01*
X6665023D01*
Y7429500D01*
X6652054D01*
Y7527051D01*
X6665023D01*
Y7487016D01*
X6715491D01*
Y7527051D01*
X6728460D01*
Y7429500D01*
D02*
G37*
G36*
X6598909Y7458822D02*
X6561833D01*
Y7470804D01*
X6598909D01*
Y7458822D01*
D02*
G37*
G36*
X6519542Y7429500D02*
X6506009D01*
X6467947Y7527051D01*
X6481058D01*
X6507560Y7456143D01*
X6508688Y7453183D01*
X6509675Y7450364D01*
X6510520Y7447685D01*
X6511225Y7445289D01*
X6511930Y7443174D01*
X6512353Y7441623D01*
X6512494Y7441060D01*
X6512635Y7440637D01*
X6512776Y7440355D01*
Y7440214D01*
X6514468Y7445853D01*
X6515313Y7448531D01*
X6516159Y7450927D01*
X6516864Y7453042D01*
X6517146Y7453888D01*
X6517287Y7454734D01*
X6517569Y7455298D01*
X6517710Y7455720D01*
X6517851Y7456002D01*
Y7456143D01*
X6543225Y7527051D01*
X6557322D01*
X6519542Y7429500D01*
D02*
G37*
G36*
X6133653Y7395501D02*
X6054287D01*
Y7404100D01*
X6133653D01*
Y7395501D01*
D02*
G37*
G36*
X6045406Y7279483D02*
X6032437D01*
Y7319518D01*
X5981969D01*
Y7279483D01*
X5969000D01*
Y7377034D01*
X5981969D01*
Y7331078D01*
X6032437D01*
Y7377034D01*
X6045406D01*
Y7279483D01*
D02*
G37*
G36*
X6364844Y7279060D02*
X6357090D01*
X6355681Y7281456D01*
X6354130Y7283712D01*
X6352297Y7285967D01*
X6350606Y7287941D01*
X6348914Y7289632D01*
X6347645Y7291042D01*
X6347082Y7291465D01*
X6346659Y7291888D01*
X6346518Y7292029D01*
X6346377Y7292170D01*
X6343416Y7294566D01*
X6340456Y7296822D01*
X6337637Y7298795D01*
X6334817Y7300346D01*
X6332421Y7301756D01*
X6331434Y7302320D01*
X6330588Y7302743D01*
X6329883Y7303165D01*
X6329319Y7303306D01*
X6329037Y7303588D01*
X6328896D01*
Y7315148D01*
X6331011Y7314302D01*
X6333126Y7313315D01*
X6335240Y7312329D01*
X6337214Y7311342D01*
X6338905Y7310496D01*
X6340315Y7309791D01*
X6341161Y7309227D01*
X6341302Y7309086D01*
X6341443D01*
X6343980Y7307536D01*
X6346236Y7305985D01*
X6348209Y7304575D01*
X6349760Y7303306D01*
X6351170Y7302320D01*
X6352015Y7301474D01*
X6352720Y7300910D01*
X6352861Y7300769D01*
Y7377034D01*
X6364844D01*
Y7279060D01*
D02*
G37*
G36*
X6274623Y7378584D02*
X6278147Y7378162D01*
X6281390Y7377457D01*
X6284068Y7376752D01*
X6286323Y7376188D01*
X6287310Y7375765D01*
X6288156Y7375483D01*
X6288720Y7375201D01*
X6289143Y7375060D01*
X6289425Y7374919D01*
X6289566D01*
X6292526Y7373369D01*
X6295064Y7371677D01*
X6297319Y7369844D01*
X6299152Y7368153D01*
X6300561Y7366743D01*
X6301548Y7365474D01*
X6302253Y7364628D01*
X6302394Y7364487D01*
Y7364346D01*
X6303945Y7361668D01*
X6305072Y7359131D01*
X6305777Y7356734D01*
X6306341Y7354479D01*
X6306623Y7352505D01*
X6306905Y7350954D01*
Y7350390D01*
Y7349968D01*
Y7349827D01*
Y7349686D01*
X6306764Y7346866D01*
X6306341Y7344188D01*
X6305636Y7341791D01*
X6304932Y7339818D01*
X6304086Y7338126D01*
X6303522Y7336857D01*
X6302958Y7336152D01*
X6302817Y7335871D01*
X6301125Y7333756D01*
X6299152Y7331782D01*
X6297037Y7330091D01*
X6294923Y7328540D01*
X6293090Y7327412D01*
X6291539Y7326566D01*
X6290975Y7326285D01*
X6290553Y7326003D01*
X6290271Y7325862D01*
X6290130D01*
X6289002Y7325298D01*
X6287592Y7324875D01*
X6286042Y7324311D01*
X6284350Y7323747D01*
X6280826Y7322760D01*
X6277160Y7321774D01*
X6275469Y7321351D01*
X6273918Y7320928D01*
X6272367Y7320505D01*
X6271099Y7320223D01*
X6270112Y7319941D01*
X6269266Y7319800D01*
X6268702Y7319659D01*
X6268561D01*
X6265742Y7318954D01*
X6263204Y7318390D01*
X6260949Y7317685D01*
X6258975Y7317122D01*
X6257143Y7316417D01*
X6255592Y7315853D01*
X6254182Y7315289D01*
X6252914Y7314866D01*
X6251927Y7314302D01*
X6251081Y7313879D01*
X6250517Y7313597D01*
X6249953Y7313174D01*
X6249248Y7312751D01*
X6249107Y7312610D01*
X6247839Y7311201D01*
X6246993Y7309791D01*
X6246288Y7308381D01*
X6245865Y7306972D01*
X6245583Y7305844D01*
X6245442Y7304857D01*
Y7304293D01*
Y7304011D01*
X6245724Y7301756D01*
X6246288Y7299782D01*
X6247134Y7298091D01*
X6248121Y7296540D01*
X6248966Y7295412D01*
X6249812Y7294425D01*
X6250376Y7293861D01*
X6250658Y7293720D01*
X6251786Y7293016D01*
X6252914Y7292311D01*
X6255592Y7291183D01*
X6258411Y7290478D01*
X6261231Y7289914D01*
X6263768Y7289632D01*
X6264896Y7289491D01*
X6265742Y7289350D01*
X6267715D01*
X6271663Y7289491D01*
X6275187Y7290055D01*
X6278006Y7290901D01*
X6280403Y7291747D01*
X6282235Y7292593D01*
X6283645Y7293439D01*
X6284350Y7294002D01*
X6284632Y7294143D01*
X6286605Y7296117D01*
X6288156Y7298232D01*
X6289425Y7300487D01*
X6290271Y7302743D01*
X6290835Y7304857D01*
X6291257Y7306408D01*
X6291398Y7307113D01*
X6291539Y7307536D01*
Y7307817D01*
Y7307958D01*
X6303945Y7306972D01*
X6303663Y7303870D01*
X6302958Y7301051D01*
X6302253Y7298373D01*
X6301266Y7296117D01*
X6300420Y7294284D01*
X6299716Y7292875D01*
X6299434Y7292452D01*
X6299152Y7292029D01*
X6299011Y7291888D01*
Y7291747D01*
X6297178Y7289350D01*
X6295205Y7287236D01*
X6293090Y7285403D01*
X6290975Y7283994D01*
X6289143Y7282725D01*
X6287733Y7282020D01*
X6287169Y7281738D01*
X6286746Y7281456D01*
X6286464Y7281315D01*
X6286323D01*
X6283222Y7280187D01*
X6279839Y7279342D01*
X6276738Y7278637D01*
X6273777Y7278214D01*
X6271099Y7277932D01*
X6270112D01*
X6269125Y7277791D01*
X6267293D01*
X6263627Y7277932D01*
X6260385Y7278355D01*
X6257284Y7278919D01*
X6254605Y7279483D01*
X6252491Y7280046D01*
X6251504Y7280328D01*
X6250799Y7280610D01*
X6250235Y7280892D01*
X6249812Y7281033D01*
X6249530Y7281174D01*
X6249389D01*
X6246570Y7282584D01*
X6244032Y7284135D01*
X6241918Y7285826D01*
X6240226Y7287377D01*
X6238958Y7288787D01*
X6237971Y7289914D01*
X6237266Y7290760D01*
X6237125Y7290901D01*
Y7291042D01*
X6235715Y7293439D01*
X6234728Y7295835D01*
X6234024Y7298232D01*
X6233601Y7300346D01*
X6233319Y7302179D01*
X6233037Y7303588D01*
Y7304152D01*
Y7304575D01*
Y7304716D01*
Y7304857D01*
X6233178Y7307254D01*
X6233601Y7309509D01*
X6234165Y7311624D01*
X6234728Y7313456D01*
X6235292Y7314866D01*
X6235856Y7315994D01*
X6236279Y7316699D01*
X6236420Y7316981D01*
X6237830Y7318954D01*
X6239521Y7320787D01*
X6241213Y7322337D01*
X6242905Y7323606D01*
X6244314Y7324734D01*
X6245583Y7325439D01*
X6246429Y7326003D01*
X6246570Y7326144D01*
X6246711D01*
X6247839Y7326707D01*
X6249107Y7327271D01*
X6251927Y7328258D01*
X6255169Y7329245D01*
X6258270Y7330232D01*
X6261090Y7331078D01*
X6262359Y7331359D01*
X6263486Y7331641D01*
X6264332Y7331923D01*
X6265037Y7332064D01*
X6265460Y7332205D01*
X6265601D01*
X6267997Y7332769D01*
X6270253Y7333333D01*
X6272226Y7333897D01*
X6273918Y7334320D01*
X6275610Y7334743D01*
X6277019Y7335166D01*
X6278288Y7335448D01*
X6279275Y7335871D01*
X6280262Y7336152D01*
X6280967Y7336293D01*
X6282094Y7336716D01*
X6282799Y7336857D01*
X6282940Y7336998D01*
X6285055Y7337844D01*
X6286887Y7338831D01*
X6288438Y7339818D01*
X6289566Y7340663D01*
X6290553Y7341509D01*
X6291116Y7342073D01*
X6291539Y7342496D01*
X6291680Y7342637D01*
X6292667Y7343906D01*
X6293372Y7345316D01*
X6293795Y7346725D01*
X6294218Y7347853D01*
X6294359Y7348981D01*
X6294500Y7349827D01*
Y7350531D01*
Y7350672D01*
X6294359Y7352364D01*
X6294077Y7353915D01*
X6293654Y7355324D01*
X6293090Y7356452D01*
X6292526Y7357580D01*
X6292103Y7358285D01*
X6291821Y7358849D01*
X6291680Y7358990D01*
X6290553Y7360399D01*
X6289143Y7361527D01*
X6287733Y7362514D01*
X6286464Y7363501D01*
X6285196Y7364065D01*
X6284209Y7364628D01*
X6283504Y7364910D01*
X6283222Y7365051D01*
X6281108Y7365756D01*
X6278852Y7366320D01*
X6276597Y7366602D01*
X6274623Y7366884D01*
X6272931Y7367025D01*
X6271522Y7367166D01*
X6270253D01*
X6267152Y7367025D01*
X6264332Y7366743D01*
X6261795Y7366320D01*
X6259539Y7365756D01*
X6257707Y7365192D01*
X6256297Y7364769D01*
X6255874Y7364628D01*
X6255451Y7364487D01*
X6255310Y7364346D01*
X6255169D01*
X6252914Y7363219D01*
X6250799Y7361950D01*
X6249248Y7360681D01*
X6247839Y7359413D01*
X6246711Y7358426D01*
X6246006Y7357439D01*
X6245583Y7356875D01*
X6245442Y7356734D01*
X6244455Y7354901D01*
X6243469Y7352928D01*
X6242905Y7350813D01*
X6242341Y7348981D01*
X6241918Y7347148D01*
X6241636Y7345879D01*
Y7345316D01*
X6241495Y7344893D01*
Y7344752D01*
Y7344611D01*
X6229372Y7345738D01*
X6229654Y7349263D01*
X6230217Y7352646D01*
X6231063Y7355606D01*
X6232050Y7358285D01*
X6233037Y7360399D01*
X6233460Y7361245D01*
X6233742Y7361950D01*
X6234165Y7362514D01*
X6234306Y7362937D01*
X6234587Y7363219D01*
Y7363360D01*
X6236702Y7366038D01*
X6238958Y7368435D01*
X6241354Y7370408D01*
X6243610Y7372100D01*
X6245583Y7373369D01*
X6247275Y7374214D01*
X6247839Y7374496D01*
X6248262Y7374778D01*
X6248544Y7374919D01*
X6248684D01*
X6252209Y7376188D01*
X6255874Y7377175D01*
X6259539Y7377739D01*
X6263063Y7378302D01*
X6264755Y7378443D01*
X6266165Y7378584D01*
X6267433D01*
X6268561Y7378725D01*
X6270817D01*
X6274623Y7378584D01*
D02*
G37*
G36*
X6183697D02*
X6187222Y7378162D01*
X6190464Y7377457D01*
X6193142Y7376752D01*
X6195398Y7376188D01*
X6196385Y7375765D01*
X6197230Y7375483D01*
X6197794Y7375201D01*
X6198217Y7375060D01*
X6198499Y7374919D01*
X6198640D01*
X6201600Y7373369D01*
X6204138Y7371677D01*
X6206393Y7369844D01*
X6208226Y7368153D01*
X6209636Y7366743D01*
X6210623Y7365474D01*
X6211327Y7364628D01*
X6211468Y7364487D01*
Y7364346D01*
X6213019Y7361668D01*
X6214147Y7359131D01*
X6214852Y7356734D01*
X6215416Y7354479D01*
X6215698Y7352505D01*
X6215979Y7350954D01*
Y7350390D01*
Y7349968D01*
Y7349827D01*
Y7349686D01*
X6215838Y7346866D01*
X6215416Y7344188D01*
X6214711Y7341791D01*
X6214006Y7339818D01*
X6213160Y7338126D01*
X6212596Y7336857D01*
X6212032Y7336152D01*
X6211891Y7335871D01*
X6210200Y7333756D01*
X6208226Y7331782D01*
X6206112Y7330091D01*
X6203997Y7328540D01*
X6202164Y7327412D01*
X6200614Y7326566D01*
X6200050Y7326285D01*
X6199627Y7326003D01*
X6199345Y7325862D01*
X6199204D01*
X6198076Y7325298D01*
X6196667Y7324875D01*
X6195116Y7324311D01*
X6193424Y7323747D01*
X6189900Y7322760D01*
X6186235Y7321774D01*
X6184543Y7321351D01*
X6182992Y7320928D01*
X6181442Y7320505D01*
X6180173Y7320223D01*
X6179186Y7319941D01*
X6178340Y7319800D01*
X6177777Y7319659D01*
X6177636D01*
X6174816Y7318954D01*
X6172279Y7318390D01*
X6170023Y7317685D01*
X6168050Y7317122D01*
X6166217Y7316417D01*
X6164666Y7315853D01*
X6163257Y7315289D01*
X6161988Y7314866D01*
X6161001Y7314302D01*
X6160155Y7313879D01*
X6159591Y7313597D01*
X6159028Y7313174D01*
X6158323Y7312751D01*
X6158182Y7312610D01*
X6156913Y7311201D01*
X6156067Y7309791D01*
X6155362Y7308381D01*
X6154939Y7306972D01*
X6154657Y7305844D01*
X6154517Y7304857D01*
Y7304293D01*
Y7304011D01*
X6154798Y7301756D01*
X6155362Y7299782D01*
X6156208Y7298091D01*
X6157195Y7296540D01*
X6158041Y7295412D01*
X6158887Y7294425D01*
X6159450Y7293861D01*
X6159732Y7293720D01*
X6160860Y7293016D01*
X6161988Y7292311D01*
X6164666Y7291183D01*
X6167486Y7290478D01*
X6170305Y7289914D01*
X6172843Y7289632D01*
X6173970Y7289491D01*
X6174816Y7289350D01*
X6176790D01*
X6180737Y7289491D01*
X6184261Y7290055D01*
X6187081Y7290901D01*
X6189477Y7291747D01*
X6191310Y7292593D01*
X6192719Y7293439D01*
X6193424Y7294002D01*
X6193706Y7294143D01*
X6195680Y7296117D01*
X6197230Y7298232D01*
X6198499Y7300487D01*
X6199345Y7302743D01*
X6199909Y7304857D01*
X6200332Y7306408D01*
X6200473Y7307113D01*
X6200614Y7307536D01*
Y7307817D01*
Y7307958D01*
X6213019Y7306972D01*
X6212737Y7303870D01*
X6212032Y7301051D01*
X6211327Y7298373D01*
X6210341Y7296117D01*
X6209495Y7294284D01*
X6208790Y7292875D01*
X6208508Y7292452D01*
X6208226Y7292029D01*
X6208085Y7291888D01*
Y7291747D01*
X6206253Y7289350D01*
X6204279Y7287236D01*
X6202164Y7285403D01*
X6200050Y7283994D01*
X6198217Y7282725D01*
X6196808Y7282020D01*
X6196244Y7281738D01*
X6195821Y7281456D01*
X6195539Y7281315D01*
X6195398D01*
X6192296Y7280187D01*
X6188913Y7279342D01*
X6185812Y7278637D01*
X6182851Y7278214D01*
X6180173Y7277932D01*
X6179186D01*
X6178199Y7277791D01*
X6176367D01*
X6172702Y7277932D01*
X6169459Y7278355D01*
X6166358Y7278919D01*
X6163680Y7279483D01*
X6161565Y7280046D01*
X6160578Y7280328D01*
X6159873Y7280610D01*
X6159309Y7280892D01*
X6158887Y7281033D01*
X6158605Y7281174D01*
X6158464D01*
X6155644Y7282584D01*
X6153107Y7284135D01*
X6150992Y7285826D01*
X6149301Y7287377D01*
X6148032Y7288787D01*
X6147045Y7289914D01*
X6146340Y7290760D01*
X6146199Y7290901D01*
Y7291042D01*
X6144790Y7293439D01*
X6143803Y7295835D01*
X6143098Y7298232D01*
X6142675Y7300346D01*
X6142393Y7302179D01*
X6142111Y7303588D01*
Y7304152D01*
Y7304575D01*
Y7304716D01*
Y7304857D01*
X6142252Y7307254D01*
X6142675Y7309509D01*
X6143239Y7311624D01*
X6143803Y7313456D01*
X6144367Y7314866D01*
X6144931Y7315994D01*
X6145353Y7316699D01*
X6145494Y7316981D01*
X6146904Y7318954D01*
X6148596Y7320787D01*
X6150287Y7322337D01*
X6151979Y7323606D01*
X6153389Y7324734D01*
X6154657Y7325439D01*
X6155503Y7326003D01*
X6155644Y7326144D01*
X6155785D01*
X6156913Y7326707D01*
X6158182Y7327271D01*
X6161001Y7328258D01*
X6164243Y7329245D01*
X6167345Y7330232D01*
X6170164Y7331078D01*
X6171433Y7331359D01*
X6172561Y7331641D01*
X6173407Y7331923D01*
X6174111Y7332064D01*
X6174534Y7332205D01*
X6174675D01*
X6177072Y7332769D01*
X6179327Y7333333D01*
X6181301Y7333897D01*
X6182992Y7334320D01*
X6184684Y7334743D01*
X6186094Y7335166D01*
X6187363Y7335448D01*
X6188349Y7335871D01*
X6189336Y7336152D01*
X6190041Y7336293D01*
X6191169Y7336716D01*
X6191874Y7336857D01*
X6192015Y7336998D01*
X6194129Y7337844D01*
X6195962Y7338831D01*
X6197512Y7339818D01*
X6198640Y7340663D01*
X6199627Y7341509D01*
X6200191Y7342073D01*
X6200614Y7342496D01*
X6200755Y7342637D01*
X6201741Y7343906D01*
X6202446Y7345316D01*
X6202869Y7346725D01*
X6203292Y7347853D01*
X6203433Y7348981D01*
X6203574Y7349827D01*
Y7350531D01*
Y7350672D01*
X6203433Y7352364D01*
X6203151Y7353915D01*
X6202728Y7355324D01*
X6202164Y7356452D01*
X6201600Y7357580D01*
X6201178Y7358285D01*
X6200896Y7358849D01*
X6200755Y7358990D01*
X6199627Y7360399D01*
X6198217Y7361527D01*
X6196808Y7362514D01*
X6195539Y7363501D01*
X6194270Y7364065D01*
X6193283Y7364628D01*
X6192578Y7364910D01*
X6192296Y7365051D01*
X6190182Y7365756D01*
X6187926Y7366320D01*
X6185671Y7366602D01*
X6183697Y7366884D01*
X6182006Y7367025D01*
X6180596Y7367166D01*
X6179327D01*
X6176226Y7367025D01*
X6173407Y7366743D01*
X6170869Y7366320D01*
X6168614Y7365756D01*
X6166781Y7365192D01*
X6165371Y7364769D01*
X6164948Y7364628D01*
X6164525Y7364487D01*
X6164384Y7364346D01*
X6164243D01*
X6161988Y7363219D01*
X6159873Y7361950D01*
X6158323Y7360681D01*
X6156913Y7359413D01*
X6155785Y7358426D01*
X6155080Y7357439D01*
X6154657Y7356875D01*
X6154517Y7356734D01*
X6153530Y7354901D01*
X6152543Y7352928D01*
X6151979Y7350813D01*
X6151415Y7348981D01*
X6150992Y7347148D01*
X6150710Y7345879D01*
Y7345316D01*
X6150569Y7344893D01*
Y7344752D01*
Y7344611D01*
X6138446Y7345738D01*
X6138728Y7349263D01*
X6139292Y7352646D01*
X6140138Y7355606D01*
X6141124Y7358285D01*
X6142111Y7360399D01*
X6142534Y7361245D01*
X6142816Y7361950D01*
X6143239Y7362514D01*
X6143380Y7362937D01*
X6143662Y7363219D01*
Y7363360D01*
X6145776Y7366038D01*
X6148032Y7368435D01*
X6150428Y7370408D01*
X6152684Y7372100D01*
X6154657Y7373369D01*
X6156349Y7374214D01*
X6156913Y7374496D01*
X6157336Y7374778D01*
X6157618Y7374919D01*
X6157759D01*
X6161283Y7376188D01*
X6164948Y7377175D01*
X6168614Y7377739D01*
X6172138Y7378302D01*
X6173829Y7378443D01*
X6175239Y7378584D01*
X6176508D01*
X6177636Y7378725D01*
X6179891D01*
X6183697Y7378584D01*
D02*
G37*
D67*
X6601448Y8202259D02*
G03*
X6601448Y8202259I-12500J0D01*
G01*
D68*
X2942778Y6675767D02*
X3542778D01*
X2942778Y6535767D02*
X3542778D01*
X5128398Y6898300D02*
X5268398D01*
X6853948Y7826950D02*
Y8106949D01*
X6513948Y7826950D02*
Y8106949D01*
X4709298Y5018600D02*
X4849298D01*
X4908400Y6398600D02*
X5048400D01*
X4909958Y5511460D02*
X5049958D01*
D69*
X7266000Y9607182D02*
X7466000D01*
X7266000Y9807182D02*
X7466000D01*
X7266000Y9607182D02*
Y9807182D01*
X7466000Y9607182D02*
Y9807182D01*
X7266000Y8431200D02*
X7466000D01*
X7266000Y8231200D02*
X7466000D01*
X7266000D02*
Y8431200D01*
X7466000Y8231200D02*
Y8431200D01*
X6917520Y8292000D02*
Y8472000D01*
X6737520D02*
X6737520Y8292000D01*
X6204120Y7613820D02*
X6384120Y7613820D01*
X6204120Y7793820D02*
X6384120D01*
X6203630Y8366528D02*
X6383631D01*
X6203630Y8186528D02*
X6383631Y8186528D01*
X7119388Y8293509D02*
Y8473510D01*
X6939388D02*
X6939388Y8293509D01*
X7266000Y8664182D02*
X7466000D01*
X7266000Y8464182D02*
X7466000D01*
X7266000D02*
Y8664182D01*
X7466000Y8464182D02*
Y8664182D01*
X7266000Y9374200D02*
X7466000D01*
X7266000Y9574200D02*
X7466000D01*
X7266000Y9374200D02*
Y9574200D01*
X7466000Y9374200D02*
Y9574200D01*
X6532988Y8293509D02*
Y8473510D01*
X6712988D02*
X6712988Y8293509D01*
X6204120Y7804320D02*
X6384120Y7804320D01*
X6204120Y7984320D02*
X6384120D01*
X6204120Y8174820D02*
X6384120D01*
X6204120Y7994820D02*
X6384120Y7994820D01*
%TF.MD5,b50fcba14e0152087b081da2dc6408f7*%
M02*
