%TF.GenerationSoftware,Altium Limited,Altium Designer,22.9.1 (49)*%
G04 Layer_Physical_Order=3*
G04 Layer_Color=16440176*
%FSLAX45Y45*%
%MOMM*%
%TF.SameCoordinates,B7DE9D22-2107-43EB-A15B-9EDAE082944A*%
%TF.FilePolarity,Positive*%
%TF.FileFunction,Copper,L3,Inr,Signal*%
%TF.Part,Single*%
G01*
G75*
%TA.AperFunction,Conductor*%
%ADD49C,0.80000*%
%TA.AperFunction,ComponentPad*%
%ADD55C,1.30000*%
%ADD56C,6.00000*%
%ADD57C,1.90500*%
%ADD58C,2.00660*%
%ADD59C,0.60000*%
%ADD60C,2.50000*%
%ADD61R,1.30000X1.30000*%
%ADD62R,1.30000X1.30000*%
%TA.AperFunction,ViaPad*%
%ADD63C,0.60000*%
G36*
X9194800Y10414000D02*
X5842000D01*
X5575300Y10147300D01*
Y7734300D01*
X5207000Y7366000D01*
X5130800Y7289800D01*
Y7107161D01*
X5118100Y7101900D01*
X5100000Y7120000D01*
X5040000D01*
X5010000Y7090000D01*
Y6800000D01*
X5022275Y6787725D01*
X5017415Y6775992D01*
X4800600D01*
X4792796Y6774440D01*
X4786181Y6770019D01*
X4781760Y6763404D01*
X4781650Y6762850D01*
X4775200Y6756400D01*
Y6451600D01*
X4781253Y6445547D01*
X4781760Y6442996D01*
X4786181Y6436381D01*
X4953000Y6269561D01*
Y5461000D01*
X4902200Y5410200D01*
X4533900D01*
Y4813300D01*
X5020000Y4484854D01*
Y2803200D01*
X5232400Y2590800D01*
X9194800D01*
Y1524000D01*
X50800D01*
Y11176000D01*
X9194800D01*
Y10414000D01*
D02*
G37*
G36*
X7645400Y9702000D02*
Y7949399D01*
X7213600Y7517600D01*
X6451600D01*
X5969000Y7035000D01*
X5969000Y6273000D01*
X5906300Y6210300D01*
X5041100D01*
X4800600Y6450800D01*
Y6755600D01*
X5130800D01*
Y6984200D01*
X5410200D01*
Y7339800D01*
X5562600Y7492200D01*
X5867400Y7797000D01*
Y9651200D01*
X6070600Y9854400D01*
X7493000D01*
X7645400Y9702000D01*
D02*
G37*
G36*
X8407400Y7035800D02*
Y5003800D01*
X8255000Y4851400D01*
X6349999D01*
X6197600Y5003800D01*
Y5689600D01*
X6273800Y5765800D01*
X6375400D01*
X6400800Y5791200D01*
Y5854929D01*
X6413500Y5860189D01*
X6423277Y5850412D01*
X6441654Y5842800D01*
X6461546D01*
X6479923Y5850412D01*
X6493988Y5864477D01*
X6501600Y5882854D01*
Y5902746D01*
X6493988Y5921123D01*
X6479923Y5935188D01*
X6461546Y5942800D01*
X6441654D01*
X6423277Y5935188D01*
X6413500Y5925411D01*
X6400800Y5930671D01*
Y6108929D01*
X6413500Y6114189D01*
X6423277Y6104412D01*
X6441654Y6096800D01*
X6461546D01*
X6479923Y6104412D01*
X6493988Y6118477D01*
X6501600Y6136854D01*
Y6156746D01*
X6493988Y6175123D01*
X6479923Y6189188D01*
X6461546Y6196800D01*
X6441654D01*
X6423277Y6189188D01*
X6413500Y6179411D01*
X6400800Y6184671D01*
Y7112000D01*
X6477000Y7188200D01*
X8255000D01*
X8407400Y7035800D01*
D02*
G37*
G36*
X5105400Y5464870D02*
X5092700Y5459609D01*
X5087021Y5465288D01*
X5068644Y5472900D01*
X5048753D01*
X5030376Y5465288D01*
X5016310Y5451223D01*
X5008698Y5432846D01*
Y5412954D01*
X5016310Y5394577D01*
X5030376Y5380512D01*
X5048753Y5372900D01*
X5051507D01*
X5056367Y5361167D01*
X5029200Y5334000D01*
Y5181600D01*
X4978400D01*
X4749800Y4953000D01*
X4554292D01*
Y5384800D01*
X4851400D01*
X4856408Y5389808D01*
X4902199D01*
X4902200Y5389808D01*
X4910004Y5391360D01*
X4916619Y5395781D01*
X4916620Y5395781D01*
X4967419Y5446581D01*
X4971840Y5453196D01*
X4973392Y5461000D01*
Y5506792D01*
X4978400Y5511800D01*
X5105400D01*
Y5464870D01*
D02*
G37*
%LPC*%
G36*
X4647985Y9781500D02*
X4597615D01*
X4547866Y9773621D01*
X4499963Y9758056D01*
X4455084Y9735189D01*
X4414334Y9705582D01*
X4378718Y9669966D01*
X4349111Y9629216D01*
X4326244Y9584337D01*
X4310679Y9536434D01*
X4302800Y9486685D01*
Y9436315D01*
X4310679Y9386566D01*
X4326244Y9338663D01*
X4349111Y9293784D01*
X4378718Y9253034D01*
X4414334Y9217418D01*
X4455084Y9187811D01*
X4499963Y9164944D01*
X4547866Y9149379D01*
X4597615Y9141500D01*
X4647985D01*
X4697734Y9149379D01*
X4745637Y9164944D01*
X4790516Y9187811D01*
X4831266Y9217418D01*
X4866882Y9253034D01*
X4896489Y9293784D01*
X4919356Y9338663D01*
X4934921Y9386566D01*
X4942800Y9436315D01*
Y9486685D01*
X4934921Y9536434D01*
X4919356Y9584337D01*
X4896489Y9629216D01*
X4866882Y9669966D01*
X4831266Y9705582D01*
X4790516Y9735189D01*
X4745637Y9758056D01*
X4697734Y9773621D01*
X4647985Y9781500D01*
D02*
G37*
G36*
X1000000Y9350000D02*
X810000D01*
X730000Y9270000D01*
X730000Y9079999D01*
X810000Y9000000D01*
X1000000D01*
X1080000Y9080000D01*
Y9270000D01*
X1000000Y9350000D01*
D02*
G37*
G36*
X3920000Y8610600D02*
X3767800D01*
Y8407400D01*
X3920000D01*
Y8610600D01*
D02*
G37*
G36*
X1000000Y8715000D02*
X810000D01*
X730000Y8635000D01*
X730000Y8444999D01*
X810000Y8365000D01*
X1000000D01*
X1080000Y8445000D01*
Y8635000D01*
X1000000Y8715000D01*
D02*
G37*
G36*
X4950000Y7120000D02*
X4890000D01*
X4860000Y7090000D01*
Y6880000D01*
X4890000Y6850000D01*
X4950000D01*
X4980000Y6880000D01*
Y7090000D01*
X4950000Y7120000D01*
D02*
G37*
G36*
X4800000D02*
X4740000D01*
X4710000Y7090000D01*
Y6880000D01*
X4740000Y6850000D01*
X4800000D01*
X4830000Y6880000D01*
Y7090000D01*
X4800000Y7120000D01*
D02*
G37*
G36*
X4650000D02*
X4590000D01*
X4560000Y7090000D01*
Y6800000D01*
X4590000Y6770000D01*
X4650000D01*
X4680000Y6800000D01*
Y7090000D01*
X4650000Y7120000D01*
D02*
G37*
G36*
X4500000D02*
X4440000D01*
X4410000Y7090000D01*
Y6800000D01*
X4440000Y6770000D01*
X4500000D01*
X4530000Y6800000D01*
Y7090000D01*
X4500000Y7120000D01*
D02*
G37*
G36*
X3022600Y6667800D02*
X2819400D01*
Y6527800D01*
X3022600D01*
Y6667800D01*
D02*
G37*
G36*
X3570000Y6790000D02*
X3490000D01*
X3470000Y6770000D01*
Y6390000D01*
X3490000Y6370000D01*
X3570000D01*
X3590000Y6390000D01*
Y6770000D01*
X3570000Y6790000D01*
D02*
G37*
G36*
X4839046Y5777700D02*
X4819154D01*
X4800777Y5770088D01*
X4786712Y5756023D01*
X4779100Y5737646D01*
Y5717754D01*
X4786712Y5699377D01*
X4796489Y5689600D01*
X4786712Y5679823D01*
X4779100Y5661446D01*
Y5641554D01*
X4786712Y5623177D01*
X4796489Y5613400D01*
X4786712Y5603623D01*
X4779100Y5585246D01*
Y5565354D01*
X4786712Y5546977D01*
X4796489Y5537200D01*
X4786712Y5527423D01*
X4779100Y5509046D01*
Y5489154D01*
X4786712Y5470777D01*
X4800777Y5456712D01*
X4819154Y5449100D01*
X4839046D01*
X4857423Y5456712D01*
X4871488Y5470777D01*
X4879100Y5489154D01*
Y5509046D01*
X4871488Y5527423D01*
X4861711Y5537200D01*
X4871488Y5546977D01*
X4879100Y5565354D01*
Y5585246D01*
X4871488Y5603623D01*
X4861711Y5613400D01*
X4871488Y5623177D01*
X4879100Y5641554D01*
Y5661446D01*
X4871488Y5679823D01*
X4861711Y5689600D01*
X4871488Y5699377D01*
X4879100Y5717754D01*
Y5737646D01*
X4871488Y5756023D01*
X4857423Y5770088D01*
X4839046Y5777700D01*
D02*
G37*
G36*
X4689046D02*
X4669154D01*
X4650777Y5770088D01*
X4636712Y5756023D01*
X4629100Y5737646D01*
Y5717754D01*
X4636712Y5699377D01*
X4646489Y5689600D01*
X4636712Y5679823D01*
X4629100Y5661446D01*
Y5641554D01*
X4636712Y5623177D01*
X4646489Y5613400D01*
X4636712Y5603623D01*
X4629100Y5585246D01*
Y5565354D01*
X4636712Y5546977D01*
X4646489Y5537200D01*
X4636712Y5527423D01*
X4629100Y5509046D01*
Y5489154D01*
X4636712Y5470777D01*
X4650777Y5456712D01*
X4669154Y5449100D01*
X4689046D01*
X4707423Y5456712D01*
X4721488Y5470777D01*
X4729100Y5489154D01*
Y5509046D01*
X4721488Y5527423D01*
X4711711Y5537200D01*
X4721488Y5546977D01*
X4729100Y5565354D01*
Y5585246D01*
X4721488Y5603623D01*
X4711711Y5613400D01*
X4721488Y5623177D01*
X4729100Y5641554D01*
Y5661446D01*
X4721488Y5679823D01*
X4711711Y5689600D01*
X4721488Y5699377D01*
X4729100Y5717754D01*
Y5737646D01*
X4721488Y5756023D01*
X4707423Y5770088D01*
X4689046Y5777700D01*
D02*
G37*
G36*
X4539046D02*
X4519154D01*
X4500777Y5770088D01*
X4486712Y5756023D01*
X4479100Y5737646D01*
Y5717754D01*
X4486712Y5699377D01*
X4496489Y5689600D01*
X4486712Y5679823D01*
X4479100Y5661446D01*
Y5641554D01*
X4486712Y5623177D01*
X4496489Y5613400D01*
X4486712Y5603623D01*
X4479100Y5585246D01*
Y5565354D01*
X4486712Y5546977D01*
X4496489Y5537200D01*
X4486712Y5527423D01*
X4479100Y5509046D01*
Y5489154D01*
X4486712Y5470777D01*
X4500777Y5456712D01*
X4519154Y5449100D01*
X4539046D01*
X4557423Y5456712D01*
X4571488Y5470777D01*
X4579100Y5489154D01*
Y5509046D01*
X4571488Y5527423D01*
X4561711Y5537200D01*
X4571488Y5546977D01*
X4579100Y5565354D01*
Y5585246D01*
X4571488Y5603623D01*
X4561711Y5613400D01*
X4571488Y5623177D01*
X4579100Y5641554D01*
Y5661446D01*
X4571488Y5679823D01*
X4561711Y5689600D01*
X4571488Y5699377D01*
X4579100Y5717754D01*
Y5737646D01*
X4571488Y5756023D01*
X4557423Y5770088D01*
X4539046Y5777700D01*
D02*
G37*
G36*
X4389046D02*
X4369154D01*
X4350777Y5770088D01*
X4336712Y5756023D01*
X4329100Y5737646D01*
Y5717754D01*
X4336712Y5699377D01*
X4346489Y5689600D01*
X4336712Y5679823D01*
X4329100Y5661446D01*
Y5641554D01*
X4336712Y5623177D01*
X4346489Y5613400D01*
X4336712Y5603623D01*
X4329100Y5585246D01*
Y5565354D01*
X4336712Y5546977D01*
X4346489Y5537200D01*
X4336712Y5527423D01*
X4329100Y5509046D01*
Y5489154D01*
X4336712Y5470777D01*
X4350777Y5456712D01*
X4369154Y5449100D01*
X4389046D01*
X4407423Y5456712D01*
X4421488Y5470777D01*
X4429100Y5489154D01*
Y5509046D01*
X4421488Y5527423D01*
X4411711Y5537200D01*
X4421488Y5546977D01*
X4429100Y5565354D01*
Y5585246D01*
X4421488Y5603623D01*
X4411711Y5613400D01*
X4421488Y5623177D01*
X4429100Y5641554D01*
Y5661446D01*
X4421488Y5679823D01*
X4411711Y5689600D01*
X4421488Y5699377D01*
X4429100Y5717754D01*
Y5737646D01*
X4421488Y5756023D01*
X4407423Y5770088D01*
X4389046Y5777700D01*
D02*
G37*
G36*
X4239046D02*
X4219154D01*
X4200777Y5770088D01*
X4186712Y5756023D01*
X4179100Y5737646D01*
Y5717754D01*
X4186712Y5699377D01*
X4196489Y5689600D01*
X4186712Y5679823D01*
X4179100Y5661446D01*
Y5641554D01*
X4186712Y5623177D01*
X4196489Y5613400D01*
X4186712Y5603623D01*
X4179100Y5585246D01*
Y5565354D01*
X4186712Y5546977D01*
X4196489Y5537200D01*
X4186712Y5527423D01*
X4179100Y5509046D01*
Y5489154D01*
X4186712Y5470777D01*
X4200777Y5456712D01*
X4219154Y5449100D01*
X4239046D01*
X4257423Y5456712D01*
X4271488Y5470777D01*
X4279100Y5489154D01*
Y5509046D01*
X4271488Y5527423D01*
X4261711Y5537200D01*
X4271488Y5546977D01*
X4279100Y5565354D01*
Y5585246D01*
X4271488Y5603623D01*
X4261711Y5613400D01*
X4271488Y5623177D01*
X4279100Y5641554D01*
Y5661446D01*
X4271488Y5679823D01*
X4261711Y5689600D01*
X4271488Y5699377D01*
X4279100Y5717754D01*
Y5737646D01*
X4271488Y5756023D01*
X4257423Y5770088D01*
X4239046Y5777700D01*
D02*
G37*
G36*
X3690682Y4609142D02*
X3560682D01*
Y4469142D01*
X3690682D01*
Y4609142D01*
D02*
G37*
G36*
X3904683Y4740317D02*
X3881272Y4735661D01*
X3861425Y4722399D01*
X3830243Y4691217D01*
X3816981Y4671370D01*
X3812325Y4647959D01*
Y4364803D01*
X3801297Y4353775D01*
X3667975D01*
Y4368800D01*
X3663319Y4392211D01*
X3650057Y4412057D01*
X3630211Y4425319D01*
X3606800Y4429975D01*
X3583389Y4425319D01*
X3563543Y4412057D01*
X3550281Y4392211D01*
X3545625Y4368800D01*
Y4353775D01*
X3302000D01*
X3278589Y4349119D01*
X3258743Y4335857D01*
X3048060Y4125175D01*
X2209800D01*
X2186389Y4120519D01*
X2166543Y4107257D01*
X2153281Y4087411D01*
X2148625Y4064000D01*
X2153281Y4040589D01*
X2166543Y4020743D01*
X2186389Y4007481D01*
X2209800Y4002825D01*
X2505065D01*
X2511677Y3996212D01*
X2530054Y3988600D01*
X2549946D01*
X2568323Y3996212D01*
X2574935Y4002825D01*
X2657465D01*
X2664077Y3996212D01*
X2682454Y3988600D01*
X2702346D01*
X2720723Y3996212D01*
X2727335Y4002825D01*
X2860665D01*
X2867277Y3996212D01*
X2885654Y3988600D01*
X2905546D01*
X2923923Y3996212D01*
X2930535Y4002825D01*
X3038465D01*
X3045077Y3996212D01*
X3063454Y3988600D01*
X3083346D01*
X3101723Y3996212D01*
X3115788Y4010277D01*
X3122573Y4026658D01*
X3327340Y4231425D01*
X3826637D01*
X3850048Y4236081D01*
X3869894Y4249343D01*
X3916757Y4296205D01*
X3930019Y4316052D01*
X3934675Y4339463D01*
Y4622620D01*
X3947940Y4635884D01*
X3961201Y4655731D01*
X3965858Y4679142D01*
X3961201Y4702552D01*
X3947940Y4722399D01*
X3928093Y4735661D01*
X3904683Y4740317D01*
D02*
G37*
G36*
X4671008Y4488180D02*
X4625392D01*
X4580167Y4482226D01*
X4536105Y4470420D01*
X4493962Y4452963D01*
X4454458Y4430155D01*
X4418269Y4402386D01*
X4386013Y4370131D01*
X4358244Y4333942D01*
X4335436Y4294438D01*
X4317980Y4252294D01*
X4306174Y4208233D01*
X4300220Y4163008D01*
Y4117392D01*
X4306174Y4072167D01*
X4317980Y4028105D01*
X4335436Y3985962D01*
X4358244Y3946458D01*
X4386013Y3910269D01*
X4418269Y3878013D01*
X4454458Y3850244D01*
X4493962Y3827436D01*
X4536105Y3809980D01*
X4580167Y3798174D01*
X4625392Y3792220D01*
X4671008D01*
X4716233Y3798174D01*
X4760294Y3809980D01*
X4802438Y3827436D01*
X4841942Y3850244D01*
X4878131Y3878013D01*
X4910386Y3910269D01*
X4938155Y3946458D01*
X4960963Y3985962D01*
X4978420Y4028105D01*
X4990226Y4072167D01*
X4996180Y4117392D01*
Y4163008D01*
X4990226Y4208233D01*
X4978420Y4252294D01*
X4960963Y4294438D01*
X4938155Y4333942D01*
X4910386Y4370131D01*
X4878131Y4402386D01*
X4841942Y4430155D01*
X4802438Y4452963D01*
X4760294Y4470420D01*
X4716233Y4482226D01*
X4671008Y4488180D01*
D02*
G37*
G36*
X4130642Y3244530D02*
X4098958D01*
X4068354Y3236330D01*
X4040916Y3220488D01*
X4018512Y3198084D01*
X4002670Y3170646D01*
X3994470Y3140042D01*
Y3108358D01*
X4002670Y3077754D01*
X4018512Y3050316D01*
X4040916Y3027912D01*
X4068354Y3012070D01*
X4098958Y3003870D01*
X4130642D01*
X4161246Y3012070D01*
X4188684Y3027912D01*
X4211088Y3050316D01*
X4226930Y3077754D01*
X4235130Y3108358D01*
Y3140042D01*
X4226930Y3170646D01*
X4211088Y3198084D01*
X4188684Y3220488D01*
X4161246Y3236330D01*
X4130642Y3244530D01*
D02*
G37*
G36*
X3368642D02*
X3336958D01*
X3306354Y3236330D01*
X3278916Y3220488D01*
X3256512Y3198084D01*
X3240670Y3170646D01*
X3232470Y3140042D01*
Y3108358D01*
X3240670Y3077754D01*
X3256512Y3050316D01*
X3278916Y3027912D01*
X3306354Y3012070D01*
X3336958Y3003870D01*
X3368642D01*
X3399246Y3012070D01*
X3426684Y3027912D01*
X3449088Y3050316D01*
X3464930Y3077754D01*
X3473130Y3108358D01*
Y3140042D01*
X3464930Y3170646D01*
X3449088Y3198084D01*
X3426684Y3220488D01*
X3399246Y3236330D01*
X3368642Y3244530D01*
D02*
G37*
G36*
X2650400Y2231300D02*
X2480400D01*
Y2061300D01*
X2650400D01*
Y2231300D01*
D02*
G37*
G36*
X2601990Y1824900D02*
X2579610D01*
X2557991Y1819107D01*
X2538609Y1807917D01*
X2522783Y1792091D01*
X2511593Y1772709D01*
X2505800Y1751090D01*
Y1728710D01*
X2511593Y1707091D01*
X2522783Y1687709D01*
X2538609Y1671883D01*
X2557991Y1660693D01*
X2579610Y1654900D01*
X2601990D01*
X2623609Y1660693D01*
X2642991Y1671883D01*
X2658817Y1687709D01*
X2670007Y1707091D01*
X2675800Y1728710D01*
Y1751090D01*
X2670007Y1772709D01*
X2658817Y1792091D01*
X2642991Y1807917D01*
X2623609Y1819107D01*
X2601990Y1824900D01*
D02*
G37*
G36*
X7377190Y9559200D02*
X7354810D01*
X7333191Y9553407D01*
X7313809Y9542217D01*
X7297983Y9526391D01*
X7286793Y9507009D01*
X7281000Y9485390D01*
Y9463010D01*
X7286793Y9441391D01*
X7297983Y9422009D01*
X7313809Y9406183D01*
X7333191Y9394993D01*
X7354810Y9389200D01*
X7377190D01*
X7398809Y9394993D01*
X7418191Y9406183D01*
X7434017Y9422009D01*
X7445207Y9441391D01*
X7451000Y9463010D01*
Y9485390D01*
X7445207Y9507009D01*
X7434017Y9526391D01*
X7418191Y9542217D01*
X7398809Y9553407D01*
X7377190Y9559200D01*
D02*
G37*
G36*
Y8416200D02*
X7354810D01*
X7333191Y8410407D01*
X7313809Y8399217D01*
X7297983Y8383391D01*
X7286793Y8364009D01*
X7281000Y8342390D01*
Y8320010D01*
X7286793Y8298391D01*
X7297983Y8279009D01*
X7313809Y8263183D01*
X7333191Y8251993D01*
X7354810Y8246200D01*
X7377190D01*
X7398809Y8251993D01*
X7418191Y8263183D01*
X7434017Y8279009D01*
X7445207Y8298391D01*
X7451000Y8320010D01*
Y8342390D01*
X7445207Y8364009D01*
X7434017Y8383391D01*
X7418191Y8399217D01*
X7398809Y8410407D01*
X7377190Y8416200D01*
D02*
G37*
G36*
X7045746Y7797000D02*
X7025854D01*
X7007477Y7789388D01*
X6993412Y7775323D01*
X6985800Y7756946D01*
Y7737054D01*
X6993412Y7718677D01*
X7007477Y7704612D01*
X7025854Y7697000D01*
X7045746D01*
X7064123Y7704612D01*
X7078188Y7718677D01*
X7085800Y7737054D01*
Y7756946D01*
X7078188Y7775323D01*
X7064123Y7789388D01*
X7045746Y7797000D01*
D02*
G37*
G36*
X6740946Y7670000D02*
X6721054D01*
X6702677Y7662388D01*
X6688612Y7648323D01*
X6687073Y7644608D01*
X6673327D01*
X6671788Y7648323D01*
X6657723Y7662388D01*
X6639346Y7670000D01*
X6619454D01*
X6601077Y7662388D01*
X6587012Y7648323D01*
X6579400Y7629946D01*
Y7610054D01*
X6587012Y7591677D01*
X6601077Y7577612D01*
X6619454Y7570000D01*
X6639346D01*
X6657723Y7577612D01*
X6671788Y7591677D01*
X6673327Y7595392D01*
X6687073D01*
X6688612Y7591677D01*
X6702677Y7577612D01*
X6721054Y7570000D01*
X6740946D01*
X6759323Y7577612D01*
X6773388Y7591677D01*
X6781000Y7610054D01*
Y7629946D01*
X6773388Y7648323D01*
X6759323Y7662388D01*
X6740946Y7670000D01*
D02*
G37*
G36*
X5750346Y7416000D02*
X5730454D01*
X5712077Y7408388D01*
X5698012Y7394323D01*
X5690400Y7375946D01*
Y7356054D01*
X5698012Y7337677D01*
X5712077Y7323612D01*
X5730454Y7316000D01*
X5750346D01*
X5768723Y7323612D01*
X5782788Y7337677D01*
X5790400Y7356054D01*
Y7375946D01*
X5782788Y7394323D01*
X5768723Y7408388D01*
X5750346Y7416000D01*
D02*
G37*
G36*
Y7289000D02*
X5730454D01*
X5712077Y7281388D01*
X5698012Y7267323D01*
X5690400Y7248946D01*
Y7229054D01*
X5698012Y7210677D01*
X5712077Y7196612D01*
X5730454Y7189000D01*
X5750346D01*
X5768723Y7196612D01*
X5782788Y7210677D01*
X5790400Y7229054D01*
Y7248946D01*
X5782788Y7267323D01*
X5768723Y7281388D01*
X5750346Y7289000D01*
D02*
G37*
G36*
X5751876Y7171949D02*
X5731985D01*
X5713608Y7164337D01*
X5699543Y7150271D01*
X5691931Y7131894D01*
Y7120774D01*
X5688486Y7118898D01*
X5679231Y7116880D01*
X5667123Y7128988D01*
X5648746Y7136600D01*
X5628854D01*
X5610477Y7128988D01*
X5596412Y7114923D01*
X5588800Y7096546D01*
Y7076654D01*
X5596412Y7058277D01*
X5610477Y7044212D01*
X5628854Y7036600D01*
X5648746D01*
X5659900Y7041220D01*
X5669620Y7031500D01*
X5665000Y7020346D01*
Y7000454D01*
X5672612Y6982077D01*
X5686677Y6968012D01*
X5705054Y6960400D01*
X5724946D01*
X5743323Y6968012D01*
X5757388Y6982077D01*
X5765000Y7000454D01*
Y7020346D01*
X5757388Y7038723D01*
X5743323Y7052788D01*
X5724946Y7060400D01*
X5705054D01*
X5693900Y7055780D01*
X5684180Y7065500D01*
X5688800Y7076654D01*
Y7087775D01*
X5692245Y7089651D01*
X5701500Y7091669D01*
X5713608Y7079561D01*
X5731985Y7071949D01*
X5751876D01*
X5770253Y7079561D01*
X5784319Y7093626D01*
X5791931Y7112003D01*
Y7131894D01*
X5784319Y7150271D01*
X5770253Y7164337D01*
X5751876Y7171949D01*
D02*
G37*
G36*
X5280446Y6958800D02*
X5260554D01*
X5242177Y6951188D01*
X5228112Y6937123D01*
X5220500Y6918746D01*
Y6898854D01*
X5228112Y6880477D01*
X5242177Y6866412D01*
X5260554Y6858800D01*
X5280446D01*
X5298823Y6866412D01*
X5312888Y6880477D01*
X5320500Y6898854D01*
Y6918746D01*
X5312888Y6937123D01*
X5298823Y6951188D01*
X5280446Y6958800D01*
D02*
G37*
G36*
X6606490Y7125969D02*
X6586599D01*
X6568222Y7118358D01*
X6559653Y7109789D01*
X6552423Y7105151D01*
X6543060Y7109789D01*
X6535478Y7117370D01*
X6517101Y7124982D01*
X6497210D01*
X6478833Y7117370D01*
X6464768Y7103305D01*
X6457156Y7084928D01*
Y7065036D01*
X6464768Y7046659D01*
X6478833Y7032594D01*
X6497210Y7024982D01*
X6517101D01*
X6535478Y7032594D01*
X6544047Y7041163D01*
X6551277Y7045800D01*
X6560640Y7041163D01*
X6568222Y7033582D01*
X6586599Y7025970D01*
X6606490D01*
X6624867Y7033582D01*
X6638932Y7047647D01*
X6646544Y7066024D01*
Y7085915D01*
X6638932Y7104292D01*
X6624867Y7118358D01*
X6606490Y7125969D01*
D02*
G37*
G36*
X6728246Y7098500D02*
X6708354D01*
X6689977Y7090888D01*
X6675912Y7076823D01*
X6668300Y7058446D01*
Y7038554D01*
X6675912Y7020177D01*
X6689977Y7006112D01*
X6708354Y6998500D01*
X6728246D01*
X6746623Y7006112D01*
X6760688Y7020177D01*
X6768300Y7038554D01*
Y7058446D01*
X6760688Y7076823D01*
X6746623Y7090888D01*
X6728246Y7098500D01*
D02*
G37*
G36*
X7706146Y7009600D02*
X7686254D01*
X7667877Y7001988D01*
X7653812Y6987923D01*
X7646200Y6969546D01*
Y6949654D01*
X7653812Y6931277D01*
X7667877Y6917212D01*
X7686254Y6909600D01*
X7706146D01*
X7724523Y6917212D01*
X7738588Y6931277D01*
X7746200Y6949654D01*
Y6969546D01*
X7738588Y6987923D01*
X7724523Y7001988D01*
X7706146Y7009600D01*
D02*
G37*
G36*
X7401346D02*
X7381454D01*
X7363077Y7001988D01*
X7349012Y6987923D01*
X7341400Y6969546D01*
Y6949654D01*
X7349012Y6931277D01*
X7363077Y6917212D01*
X7381454Y6909600D01*
X7401346D01*
X7419723Y6917212D01*
X7433788Y6931277D01*
X7441400Y6949654D01*
Y6969546D01*
X7433788Y6987923D01*
X7419723Y7001988D01*
X7401346Y7009600D01*
D02*
G37*
G36*
X7167666Y6979120D02*
X7147774D01*
X7129397Y6971508D01*
X7115332Y6957443D01*
X7107720Y6939066D01*
Y6919174D01*
X7115332Y6900797D01*
X7129397Y6886732D01*
X7147774Y6879120D01*
X7167666D01*
X7186043Y6886732D01*
X7200108Y6900797D01*
X7207720Y6919174D01*
Y6939066D01*
X7200108Y6957443D01*
X7186043Y6971508D01*
X7167666Y6979120D01*
D02*
G37*
G36*
X8037590Y7044600D02*
X8015210D01*
X7993591Y7038807D01*
X7974209Y7027617D01*
X7958383Y7011791D01*
X7947193Y6992409D01*
X7941400Y6970790D01*
Y6948410D01*
X7947193Y6926791D01*
X7958383Y6907409D01*
X7974209Y6891583D01*
X7993591Y6880393D01*
X8015210Y6874600D01*
X8037590D01*
X8059209Y6880393D01*
X8078591Y6891583D01*
X8094417Y6907409D01*
X8105607Y6926791D01*
X8111400Y6948410D01*
Y6970790D01*
X8105607Y6992409D01*
X8094417Y7011791D01*
X8078591Y7027617D01*
X8059209Y7038807D01*
X8037590Y7044600D01*
D02*
G37*
G36*
X7170206Y6768300D02*
X7150314D01*
X7131937Y6760688D01*
X7117872Y6746623D01*
X7110260Y6728246D01*
Y6708354D01*
X7117872Y6689977D01*
X7131937Y6675912D01*
X7150314Y6668300D01*
X7170206D01*
X7188583Y6675912D01*
X7202648Y6689977D01*
X7210260Y6708354D01*
Y6728246D01*
X7202648Y6746623D01*
X7188583Y6760688D01*
X7170206Y6768300D01*
D02*
G37*
G36*
X8111400Y6790600D02*
X7941400D01*
Y6620600D01*
X8111400D01*
Y6790600D01*
D02*
G37*
G36*
X7731546Y6552400D02*
X7711654D01*
X7693277Y6544788D01*
X7679212Y6530723D01*
X7671600Y6512346D01*
Y6492454D01*
X7679212Y6474077D01*
X7693277Y6460012D01*
X7711654Y6452400D01*
X7731546D01*
X7749923Y6460012D01*
X7763988Y6474077D01*
X7771600Y6492454D01*
Y6512346D01*
X7763988Y6530723D01*
X7749923Y6544788D01*
X7731546Y6552400D01*
D02*
G37*
G36*
X7401346D02*
X7381454D01*
X7363077Y6544788D01*
X7349012Y6530723D01*
X7341400Y6512346D01*
Y6492454D01*
X7349012Y6474077D01*
X7363077Y6460012D01*
X7381454Y6452400D01*
X7401346D01*
X7419723Y6460012D01*
X7433788Y6474077D01*
X7441400Y6492454D01*
Y6512346D01*
X7433788Y6530723D01*
X7419723Y6544788D01*
X7401346Y6552400D01*
D02*
G37*
G36*
X6736646Y6645000D02*
X6716754D01*
X6698377Y6637388D01*
X6684312Y6623323D01*
X6676700Y6604946D01*
Y6585054D01*
X6684312Y6566677D01*
X6688009Y6562980D01*
X6685030Y6547999D01*
X6677277Y6544788D01*
X6663212Y6530723D01*
X6655600Y6512346D01*
Y6492454D01*
X6663212Y6474077D01*
X6677277Y6460012D01*
X6695654Y6452400D01*
X6715546D01*
X6733923Y6460012D01*
X6747988Y6474077D01*
X6755600Y6492454D01*
Y6512346D01*
X6747988Y6530723D01*
X6744291Y6534420D01*
X6747270Y6549401D01*
X6755023Y6552612D01*
X6769088Y6566677D01*
X6776700Y6585054D01*
Y6604946D01*
X6769088Y6623323D01*
X6755023Y6637388D01*
X6736646Y6645000D01*
D02*
G37*
G36*
X7579146Y6425400D02*
X7559254D01*
X7540877Y6417788D01*
X7526812Y6403723D01*
X7519200Y6385346D01*
Y6365454D01*
X7526812Y6347077D01*
X7540877Y6333012D01*
X7559254Y6325400D01*
X7579146D01*
X7597523Y6333012D01*
X7611588Y6347077D01*
X7619200Y6365454D01*
Y6385346D01*
X7611588Y6403723D01*
X7597523Y6417788D01*
X7579146Y6425400D01*
D02*
G37*
G36*
X7223546Y6298400D02*
X7203654D01*
X7185277Y6290788D01*
X7177447Y6282957D01*
X7169150Y6277964D01*
X7160853Y6282957D01*
X7153023Y6290788D01*
X7134646Y6298400D01*
X7114754D01*
X7096377Y6290788D01*
X7082312Y6276723D01*
X7074700Y6258346D01*
Y6238454D01*
X7082312Y6220077D01*
X7096377Y6206012D01*
X7114754Y6198400D01*
X7134646D01*
X7153023Y6206012D01*
X7160853Y6213843D01*
X7169150Y6218836D01*
X7177447Y6213843D01*
X7185277Y6206012D01*
X7203654Y6198400D01*
X7223546D01*
X7241923Y6206012D01*
X7255988Y6220077D01*
X7263600Y6238454D01*
Y6258346D01*
X7255988Y6276723D01*
X7241923Y6290788D01*
X7223546Y6298400D01*
D02*
G37*
G36*
X7020346D02*
X7000454D01*
X6982077Y6290788D01*
X6968012Y6276723D01*
X6966473Y6273008D01*
X6952727D01*
X6951188Y6276723D01*
X6937123Y6290788D01*
X6918746Y6298400D01*
X6898854D01*
X6880477Y6290788D01*
X6866412Y6276723D01*
X6858800Y6258346D01*
Y6238454D01*
X6866412Y6220077D01*
X6880477Y6206012D01*
X6898854Y6198400D01*
X6918746D01*
X6937123Y6206012D01*
X6951188Y6220077D01*
X6952727Y6223792D01*
X6966473D01*
X6968012Y6220077D01*
X6982077Y6206012D01*
X7000454Y6198400D01*
X7020346D01*
X7038723Y6206012D01*
X7052788Y6220077D01*
X7060400Y6238454D01*
Y6258346D01*
X7052788Y6276723D01*
X7038723Y6290788D01*
X7020346Y6298400D01*
D02*
G37*
G36*
X7731546D02*
X7711654D01*
X7693277Y6290788D01*
X7679212Y6276723D01*
X7671600Y6258346D01*
Y6238454D01*
X7679212Y6220077D01*
X7693277Y6206012D01*
X7711654Y6198400D01*
X7731546D01*
X7749923Y6206012D01*
X7763988Y6220077D01*
X7771600Y6238454D01*
Y6258346D01*
X7763988Y6276723D01*
X7749923Y6290788D01*
X7731546Y6298400D01*
D02*
G37*
G36*
X7401346D02*
X7381454D01*
X7363077Y6290788D01*
X7349012Y6276723D01*
X7341400Y6258346D01*
Y6238454D01*
X7349012Y6220077D01*
X7363077Y6206012D01*
X7381454Y6198400D01*
X7401346D01*
X7419723Y6206012D01*
X7433788Y6220077D01*
X7441400Y6238454D01*
Y6258346D01*
X7433788Y6276723D01*
X7419723Y6290788D01*
X7401346Y6298400D01*
D02*
G37*
G36*
X8139190Y6274980D02*
X8116810D01*
X8095191Y6269187D01*
X8075809Y6257997D01*
X8059983Y6242171D01*
X8048793Y6222789D01*
X8043000Y6201170D01*
Y6178790D01*
X8048793Y6157171D01*
X8059983Y6137789D01*
X8075809Y6121963D01*
X8095191Y6110773D01*
X8116810Y6104980D01*
X8139190D01*
X8160809Y6110773D01*
X8180191Y6121963D01*
X8196017Y6137789D01*
X8207207Y6157171D01*
X8213000Y6178790D01*
Y6201170D01*
X8207207Y6222789D01*
X8196017Y6242171D01*
X8180191Y6257997D01*
X8160809Y6269187D01*
X8139190Y6274980D01*
D02*
G37*
G36*
X6791746Y6196800D02*
X6771854D01*
X6753477Y6189188D01*
X6739412Y6175123D01*
X6731800Y6156746D01*
Y6136854D01*
X6739412Y6118477D01*
X6753477Y6104412D01*
X6771854Y6096800D01*
X6791746D01*
X6810123Y6104412D01*
X6824188Y6118477D01*
X6831800Y6136854D01*
Y6156746D01*
X6824188Y6175123D01*
X6810123Y6189188D01*
X6791746Y6196800D01*
D02*
G37*
G36*
X6639346Y6069800D02*
X6619454D01*
X6601077Y6062188D01*
X6587012Y6048123D01*
X6579400Y6029746D01*
Y6009854D01*
X6587012Y5991477D01*
X6601077Y5977412D01*
X6619454Y5969800D01*
X6639346D01*
X6657723Y5977412D01*
X6671788Y5991477D01*
X6679400Y6009854D01*
Y6029746D01*
X6671788Y6048123D01*
X6657723Y6062188D01*
X6639346Y6069800D01*
D02*
G37*
G36*
X7756946Y5942800D02*
X7737054D01*
X7718677Y5935188D01*
X7704612Y5921123D01*
X7697000Y5902746D01*
Y5882854D01*
X7704612Y5864477D01*
X7718677Y5850412D01*
X7737054Y5842800D01*
X7756946D01*
X7775323Y5850412D01*
X7789388Y5864477D01*
X7797000Y5882854D01*
Y5902746D01*
X7789388Y5921123D01*
X7775323Y5935188D01*
X7756946Y5942800D01*
D02*
G37*
G36*
X7426746D02*
X7406854D01*
X7388477Y5935188D01*
X7374412Y5921123D01*
X7366800Y5902746D01*
Y5882854D01*
X7374412Y5864477D01*
X7388477Y5850412D01*
X7406854Y5842800D01*
X7426746D01*
X7445123Y5850412D01*
X7459188Y5864477D01*
X7466800Y5882854D01*
Y5902746D01*
X7459188Y5921123D01*
X7445123Y5935188D01*
X7426746Y5942800D01*
D02*
G37*
G36*
X6791746D02*
X6771854D01*
X6753477Y5935188D01*
X6739412Y5921123D01*
X6731800Y5902746D01*
Y5882854D01*
X6739412Y5864477D01*
X6753477Y5850412D01*
X6771854Y5842800D01*
X6791746D01*
X6810123Y5850412D01*
X6824188Y5864477D01*
X6831800Y5882854D01*
Y5902746D01*
X6824188Y5921123D01*
X6810123Y5935188D01*
X6791746Y5942800D01*
D02*
G37*
G36*
X7604546Y5815800D02*
X7584654D01*
X7566277Y5808188D01*
X7552212Y5794123D01*
X7544600Y5775746D01*
Y5755854D01*
X7552212Y5737477D01*
X7566277Y5723412D01*
X7584654Y5715800D01*
X7604546D01*
X7622923Y5723412D01*
X7636988Y5737477D01*
X7644600Y5755854D01*
Y5775746D01*
X7636988Y5794123D01*
X7622923Y5808188D01*
X7604546Y5815800D01*
D02*
G37*
G36*
X6364044Y5638000D02*
X6344153D01*
X6325776Y5630388D01*
X6317945Y5622557D01*
X6309648Y5617564D01*
X6301352Y5622557D01*
X6293521Y5630388D01*
X6275144Y5638000D01*
X6255253D01*
X6236876Y5630388D01*
X6222810Y5616323D01*
X6215198Y5597946D01*
Y5578054D01*
X6222810Y5559677D01*
X6236876Y5545612D01*
X6255253Y5538000D01*
X6275144D01*
X6293521Y5545612D01*
X6301352Y5553443D01*
X6309648Y5558436D01*
X6317945Y5553443D01*
X6325776Y5545612D01*
X6344153Y5538000D01*
X6364044D01*
X6382421Y5545612D01*
X6396486Y5559677D01*
X6404098Y5578054D01*
Y5597946D01*
X6396486Y5616323D01*
X6382421Y5630388D01*
X6364044Y5638000D01*
D02*
G37*
G36*
X7756946Y5688800D02*
X7737054D01*
X7718677Y5681188D01*
X7704612Y5667123D01*
X7697000Y5648746D01*
Y5628854D01*
X7704612Y5610477D01*
X7718677Y5596412D01*
X7737054Y5588800D01*
X7756946D01*
X7775323Y5596412D01*
X7789388Y5610477D01*
X7797000Y5628854D01*
Y5648746D01*
X7789388Y5667123D01*
X7775323Y5681188D01*
X7756946Y5688800D01*
D02*
G37*
G36*
X7426746D02*
X7406854D01*
X7388477Y5681188D01*
X7374412Y5667123D01*
X7366800Y5648746D01*
Y5628854D01*
X7374412Y5610477D01*
X7388477Y5596412D01*
X7406854Y5588800D01*
X7426746D01*
X7445123Y5596412D01*
X7459188Y5610477D01*
X7466800Y5628854D01*
Y5648746D01*
X7459188Y5667123D01*
X7445123Y5681188D01*
X7426746Y5688800D01*
D02*
G37*
G36*
X6512346Y5574500D02*
X6492454D01*
X6474077Y5566888D01*
X6460012Y5552823D01*
X6452400Y5534446D01*
Y5514554D01*
X6460012Y5496177D01*
X6474077Y5482112D01*
X6492454Y5474500D01*
X6512346D01*
X6530723Y5482112D01*
X6544788Y5496177D01*
X6552400Y5514554D01*
Y5534446D01*
X6544788Y5552823D01*
X6530723Y5566888D01*
X6512346Y5574500D01*
D02*
G37*
G36*
X7760730Y5535840D02*
X7738350D01*
X7716731Y5530047D01*
X7697349Y5518857D01*
X7681523Y5503031D01*
X7670333Y5483649D01*
X7664540Y5462030D01*
Y5439650D01*
X7670333Y5418031D01*
X7681523Y5398649D01*
X7697349Y5382823D01*
X7716731Y5371633D01*
X7738350Y5365840D01*
X7760730D01*
X7782349Y5371633D01*
X7801731Y5382823D01*
X7817557Y5398649D01*
X7828747Y5418031D01*
X7834540Y5439650D01*
Y5462030D01*
X7828747Y5483649D01*
X7817557Y5503031D01*
X7801731Y5518857D01*
X7782349Y5530047D01*
X7760730Y5535840D01*
D02*
G37*
G36*
X8264946Y5460200D02*
X8245054D01*
X8226677Y5452588D01*
X8212612Y5438523D01*
X8205000Y5420146D01*
Y5400254D01*
X8212612Y5381877D01*
X8226677Y5367812D01*
X8245054Y5360200D01*
X8264946D01*
X8283323Y5367812D01*
X8297388Y5381877D01*
X8305000Y5400254D01*
Y5420146D01*
X8297388Y5438523D01*
X8283323Y5452588D01*
X8264946Y5460200D01*
D02*
G37*
G36*
X7934746D02*
X7914854D01*
X7896477Y5452588D01*
X7882412Y5438523D01*
X7874800Y5420146D01*
Y5400254D01*
X7882412Y5381877D01*
X7896477Y5367812D01*
X7914854Y5360200D01*
X7934746D01*
X7953123Y5367812D01*
X7967188Y5381877D01*
X7974800Y5400254D01*
Y5420146D01*
X7967188Y5438523D01*
X7953123Y5452588D01*
X7934746Y5460200D01*
D02*
G37*
G36*
X6936526Y5450040D02*
X6916634D01*
X6898257Y5442428D01*
X6884192Y5428363D01*
X6876580Y5409986D01*
Y5390094D01*
X6884192Y5371717D01*
X6898257Y5357652D01*
X6916634Y5350040D01*
X6936526D01*
X6954903Y5357652D01*
X6968968Y5371717D01*
X6976580Y5390094D01*
Y5409986D01*
X6968968Y5428363D01*
X6954903Y5442428D01*
X6936526Y5450040D01*
D02*
G37*
G36*
X8112546Y5333200D02*
X8092654D01*
X8074277Y5325588D01*
X8060212Y5311523D01*
X8052600Y5293146D01*
Y5273254D01*
X8060212Y5254877D01*
X8074277Y5240812D01*
X8092654Y5233200D01*
X8112546D01*
X8130923Y5240812D01*
X8144988Y5254877D01*
X8152600Y5273254D01*
Y5293146D01*
X8144988Y5311523D01*
X8130923Y5325588D01*
X8112546Y5333200D01*
D02*
G37*
G36*
X6931446Y5282400D02*
X6911554D01*
X6893177Y5274788D01*
X6879112Y5260723D01*
X6871500Y5242346D01*
Y5222454D01*
X6879112Y5204077D01*
X6893177Y5190012D01*
X6911554Y5182400D01*
X6931446D01*
X6949823Y5190012D01*
X6963888Y5204077D01*
X6971500Y5222454D01*
Y5242346D01*
X6963888Y5260723D01*
X6949823Y5274788D01*
X6931446Y5282400D01*
D02*
G37*
G36*
X7502946Y5257000D02*
X7483054D01*
X7464677Y5249388D01*
X7450612Y5235323D01*
X7443000Y5216946D01*
Y5197054D01*
X7450612Y5178677D01*
X7464677Y5164612D01*
X7483054Y5157000D01*
X7502946D01*
X7521323Y5164612D01*
X7535388Y5178677D01*
X7543000Y5197054D01*
Y5216946D01*
X7535388Y5235323D01*
X7521323Y5249388D01*
X7502946Y5257000D01*
D02*
G37*
G36*
X7172746D02*
X7152854D01*
X7134477Y5249388D01*
X7120412Y5235323D01*
X7112800Y5216946D01*
Y5197054D01*
X7120412Y5178677D01*
X7134477Y5164612D01*
X7152854Y5157000D01*
X7172746D01*
X7191123Y5164612D01*
X7205188Y5178677D01*
X7212800Y5197054D01*
Y5216946D01*
X7205188Y5235323D01*
X7191123Y5249388D01*
X7172746Y5257000D01*
D02*
G37*
G36*
X7834540Y5281840D02*
X7664540D01*
Y5111840D01*
X7834540D01*
Y5281840D01*
D02*
G37*
G36*
X8264946Y5206200D02*
X8245054D01*
X8226677Y5198588D01*
X8212612Y5184523D01*
X8205000Y5166146D01*
Y5146254D01*
X8212612Y5127877D01*
X8226677Y5113812D01*
X8245054Y5106200D01*
X8264946D01*
X8283323Y5113812D01*
X8297388Y5127877D01*
X8305000Y5146254D01*
Y5166146D01*
X8297388Y5184523D01*
X8283323Y5198588D01*
X8264946Y5206200D01*
D02*
G37*
G36*
X7934746D02*
X7914854D01*
X7896477Y5198588D01*
X7882412Y5184523D01*
X7874800Y5166146D01*
Y5146254D01*
X7882412Y5127877D01*
X7896477Y5113812D01*
X7914854Y5106200D01*
X7934746D01*
X7953123Y5113812D01*
X7967188Y5127877D01*
X7974800Y5146254D01*
Y5166146D01*
X7967188Y5184523D01*
X7953123Y5198588D01*
X7934746Y5206200D01*
D02*
G37*
G36*
X7350546Y5130000D02*
X7330654D01*
X7312277Y5122388D01*
X7298212Y5108323D01*
X7290600Y5089946D01*
Y5070054D01*
X7298212Y5051677D01*
X7312277Y5037612D01*
X7330654Y5030000D01*
X7350546D01*
X7368923Y5037612D01*
X7382988Y5051677D01*
X7390600Y5070054D01*
Y5089946D01*
X7382988Y5108323D01*
X7368923Y5122388D01*
X7350546Y5130000D01*
D02*
G37*
G36*
X6512346Y5157300D02*
X6492454D01*
X6474077Y5149688D01*
X6460012Y5135623D01*
X6452400Y5117246D01*
Y5097354D01*
X6460012Y5078977D01*
X6468792Y5070197D01*
X6472670Y5061900D01*
X6468792Y5053603D01*
X6460012Y5044823D01*
X6452400Y5026446D01*
Y5006554D01*
X6460012Y4988177D01*
X6474077Y4974112D01*
X6492454Y4966500D01*
X6512346D01*
X6530723Y4974112D01*
X6544788Y4988177D01*
X6552400Y5006554D01*
Y5026446D01*
X6544788Y5044823D01*
X6536008Y5053603D01*
X6532130Y5061900D01*
X6536008Y5070197D01*
X6544788Y5078977D01*
X6552400Y5097354D01*
Y5117246D01*
X6544788Y5135623D01*
X6530723Y5149688D01*
X6512346Y5157300D01*
D02*
G37*
G36*
X7502946Y5003000D02*
X7483054D01*
X7464677Y4995388D01*
X7450612Y4981323D01*
X7443000Y4962946D01*
Y4943054D01*
X7450612Y4924677D01*
X7464677Y4910612D01*
X7483054Y4903000D01*
X7502946D01*
X7521323Y4910612D01*
X7535388Y4924677D01*
X7543000Y4943054D01*
Y4962946D01*
X7535388Y4981323D01*
X7521323Y4995388D01*
X7502946Y5003000D01*
D02*
G37*
G36*
X7172746D02*
X7152854D01*
X7134477Y4995388D01*
X7120412Y4981323D01*
X7112800Y4962946D01*
Y4943054D01*
X7120412Y4924677D01*
X7134477Y4910612D01*
X7152854Y4903000D01*
X7172746D01*
X7191123Y4910612D01*
X7205188Y4924677D01*
X7212800Y4943054D01*
Y4962946D01*
X7205188Y4981323D01*
X7191123Y4995388D01*
X7172746Y5003000D01*
D02*
G37*
%LPD*%
D49*
X2209800Y4064000D02*
X3073400D01*
X3302000Y4292600D02*
X3606800D01*
X3073400Y4064000D02*
X3302000Y4292600D01*
X3799840D02*
X3826637D01*
X3873500Y4647959D02*
X3904683Y4679142D01*
X3873500Y4339463D02*
Y4647959D01*
X3826637Y4292600D02*
X3873500Y4339463D01*
X3672840Y4292600D02*
X3799840D01*
X3606800D02*
X3672840D01*
X3606800D02*
Y4368800D01*
D55*
X5372100Y4343400D02*
D03*
X3276600Y3784600D02*
D03*
X4775200Y3200400D02*
D03*
X1841500Y6197600D02*
D03*
X2298700Y4584700D02*
D03*
X7407663Y3001843D02*
D03*
X5350798Y3098800D02*
D03*
X8128000Y6189980D02*
D03*
X7366000Y9707182D02*
D03*
Y8331200D02*
D03*
X2590800Y1739900D02*
D03*
X2365400Y2146300D02*
D03*
X5579398Y3098800D02*
D03*
X7153663Y3001843D02*
D03*
X2362200Y1739900D02*
D03*
X8026400Y6959600D02*
D03*
X7366000Y8564182D02*
D03*
Y9474200D02*
D03*
X7749540Y5450840D02*
D03*
X8128000Y5943600D02*
D03*
D56*
X2082800Y10718800D02*
D03*
X8128000Y2286000D02*
D03*
X4622800Y9461500D02*
D03*
X8178800Y10718800D02*
D03*
X4648200Y4140200D02*
D03*
X1016000Y2286000D02*
D03*
D57*
X3608070Y3379470D02*
D03*
Y2868930D02*
D03*
X3097530Y3379470D02*
D03*
Y2868930D02*
D03*
X4370070Y3379470D02*
D03*
Y2868930D02*
D03*
X3859530D02*
D03*
Y3379470D02*
D03*
D58*
X3352800Y3124200D02*
D03*
X4114800D02*
D03*
D59*
X3694682Y4579142D02*
D03*
X3774682D02*
D03*
Y4499142D02*
D03*
X3694682D02*
D03*
D60*
X914400Y10121900D02*
D03*
Y10756900D02*
D03*
X905798Y8542020D02*
D03*
Y9177020D02*
D03*
D61*
X2565400Y2146300D02*
D03*
D62*
X8026400Y6705600D02*
D03*
X7749540Y5196840D02*
D03*
D63*
X5750000Y7480000D02*
D03*
X7390800Y9243000D02*
D03*
X7515800Y8993000D02*
D03*
X7390800Y8743000D02*
D03*
X7515800Y8493000D02*
D03*
Y7993000D02*
D03*
X7390800Y7743000D02*
D03*
X7265800Y8993000D02*
D03*
Y8493000D02*
D03*
X6765800Y8993000D02*
D03*
X6515800D02*
D03*
X5140800Y6243000D02*
D03*
X3530600Y6527800D02*
D03*
Y6426200D02*
D03*
Y6629400D02*
D03*
X5592460Y5796704D02*
D03*
X5156200Y5511800D02*
D03*
X5169088Y5796380D02*
D03*
X5233623Y5874360D02*
D03*
X5283369Y5822597D02*
D03*
X5059383Y5535767D02*
D03*
X5058441Y5653502D02*
D03*
X3048000Y4419600D02*
D03*
X2971800D02*
D03*
X2870200D02*
D03*
X2768600D02*
D03*
X3073400Y4038600D02*
D03*
X2895600D02*
D03*
X2692400D02*
D03*
X2540000D02*
D03*
X3149600Y4470400D02*
D03*
X3318338Y4181659D02*
D03*
X5070400Y6832600D02*
D03*
X7924800Y5410200D02*
D03*
X8255000D02*
D03*
Y5156200D02*
D03*
X7924800D02*
D03*
X8102600Y5283200D02*
D03*
X7162800Y5207000D02*
D03*
X7493000D02*
D03*
Y4953000D02*
D03*
X7162800D02*
D03*
X7340600Y5080000D02*
D03*
X6451600Y6146800D02*
D03*
X6781800D02*
D03*
Y5892800D02*
D03*
X6451600D02*
D03*
X6629400Y6019800D02*
D03*
X7416800Y5892800D02*
D03*
X7747000D02*
D03*
Y5638800D02*
D03*
X7416800D02*
D03*
X7594600Y5765800D02*
D03*
X7569200Y6375400D02*
D03*
X7391400Y6248400D02*
D03*
X7721600D02*
D03*
Y6502400D02*
D03*
X7391400D02*
D03*
Y6959600D02*
D03*
X7696200D02*
D03*
X7264400Y8737600D02*
D03*
X6578600Y8915400D02*
D03*
X6045200D02*
D03*
X7366000Y7975600D02*
D03*
X6172200Y9728200D02*
D03*
X6350000D02*
D03*
X6578600D02*
D03*
X6756400D02*
D03*
X6959600D02*
D03*
X7137400D02*
D03*
X8999997Y10799997D02*
D03*
Y2399999D02*
D03*
Y1799999D02*
D03*
X8699997Y10799997D02*
D03*
X8849997Y10499997D02*
D03*
X8699997Y2399999D02*
D03*
X8849997Y2099999D02*
D03*
X8699997Y1799999D02*
D03*
X8549997Y10499997D02*
D03*
Y2099999D02*
D03*
X8399997Y1799999D02*
D03*
X8099998D02*
D03*
X7799998Y10799997D02*
D03*
Y1799999D02*
D03*
X7499998Y10799997D02*
D03*
X7649998Y10499997D02*
D03*
X7499998Y2399999D02*
D03*
X7649998Y2099999D02*
D03*
X7499998Y1799999D02*
D03*
X7199998Y10799997D02*
D03*
X7349998Y10499997D02*
D03*
X7199998Y2399999D02*
D03*
X7349998Y2099999D02*
D03*
X7199998Y1799999D02*
D03*
X6899998Y10799997D02*
D03*
X7049998Y10499997D02*
D03*
X6899998Y2399999D02*
D03*
X7049998Y2099999D02*
D03*
X6899998Y1799999D02*
D03*
X6599998Y10799997D02*
D03*
X6749998Y10499997D02*
D03*
X6599998Y2399999D02*
D03*
X6749998Y2099999D02*
D03*
X6599998Y1799999D02*
D03*
X6299998Y10799997D02*
D03*
X6449998Y10499997D02*
D03*
X6299998Y2399999D02*
D03*
X6449998Y2099999D02*
D03*
X6299998Y1799999D02*
D03*
X5999998Y10799997D02*
D03*
X6149998Y10499997D02*
D03*
X5999998Y2399999D02*
D03*
X6149998Y2099999D02*
D03*
X5999998Y1799999D02*
D03*
X5699998Y10799997D02*
D03*
X5849998Y10499997D02*
D03*
X5699998Y2399999D02*
D03*
X5849998Y2099999D02*
D03*
X5699998Y1799999D02*
D03*
X5399998Y10799997D02*
D03*
X5549998Y10499997D02*
D03*
X5399998Y10199997D02*
D03*
Y9599997D02*
D03*
Y8999997D02*
D03*
Y2399999D02*
D03*
X5549998Y2099999D02*
D03*
X5399998Y1799999D02*
D03*
X5099998Y10799997D02*
D03*
X5249998Y10499997D02*
D03*
X5099998Y10199997D02*
D03*
X5249998Y9899997D02*
D03*
Y9299997D02*
D03*
X5099998Y8999997D02*
D03*
X5249998Y8699997D02*
D03*
X5099998Y2399999D02*
D03*
X5249998Y2099999D02*
D03*
X5099998Y1799999D02*
D03*
X4799999Y10799997D02*
D03*
X4949998Y10499997D02*
D03*
X4799999Y10199997D02*
D03*
X4949998Y8699997D02*
D03*
Y3299999D02*
D03*
X4799999Y2999999D02*
D03*
X4949998Y2699999D02*
D03*
X4799999Y2399999D02*
D03*
X4949998Y2099999D02*
D03*
X4799999Y1799999D02*
D03*
X4499999Y10799997D02*
D03*
X4649999Y10499997D02*
D03*
X4499999Y10199997D02*
D03*
X4649999Y8699997D02*
D03*
X4499999Y4799999D02*
D03*
X4649999Y3299999D02*
D03*
X4499999Y2999999D02*
D03*
X4649999Y2699999D02*
D03*
X4499999Y2399999D02*
D03*
X4649999Y2099999D02*
D03*
X4499999Y1799999D02*
D03*
X4199999Y10799997D02*
D03*
X4349999Y10499997D02*
D03*
X4199999Y10199997D02*
D03*
Y8999997D02*
D03*
X4349999Y8699997D02*
D03*
X4199999Y4799999D02*
D03*
Y3599999D02*
D03*
X4349999Y2699999D02*
D03*
X4199999Y2399999D02*
D03*
X4349999Y2099999D02*
D03*
X4199999Y1799999D02*
D03*
X3899999Y10799997D02*
D03*
X4049999Y10499997D02*
D03*
X3899999Y10199997D02*
D03*
X4049999Y9899997D02*
D03*
X3899999Y9599997D02*
D03*
X4049999Y9299997D02*
D03*
X3899999Y8999997D02*
D03*
X4049999Y3299999D02*
D03*
Y2699999D02*
D03*
X3899999Y2399999D02*
D03*
X4049999Y2099999D02*
D03*
X3899999Y1799999D02*
D03*
X3599999Y10799997D02*
D03*
X3749999Y10499997D02*
D03*
X3599999Y10199997D02*
D03*
X3749999Y9899997D02*
D03*
X3599999Y9599997D02*
D03*
X3749999Y9299997D02*
D03*
X3599999Y8999997D02*
D03*
X3749999Y2699999D02*
D03*
X3599999Y2399999D02*
D03*
X3749999Y2099999D02*
D03*
X3599999Y1799999D02*
D03*
X3299999Y10799997D02*
D03*
X3449999Y10499997D02*
D03*
X3299999Y10199997D02*
D03*
X3449999Y9899997D02*
D03*
X3299999Y9599997D02*
D03*
X3449999Y9299997D02*
D03*
X3299999Y8999997D02*
D03*
X3449999Y8699997D02*
D03*
X3299999Y3599999D02*
D03*
X3449999Y3299999D02*
D03*
Y2699999D02*
D03*
X3299999Y2399999D02*
D03*
X3449999Y2099999D02*
D03*
X3299999Y1799999D02*
D03*
X2999999Y10799997D02*
D03*
X3149999Y10499997D02*
D03*
X2999999Y10199997D02*
D03*
X3149999Y9899997D02*
D03*
X2999999Y9599997D02*
D03*
X3149999Y9299997D02*
D03*
X2999999Y8999997D02*
D03*
X3149999Y8699997D02*
D03*
Y5699998D02*
D03*
X2999999Y5399998D02*
D03*
Y4799999D02*
D03*
X3149999Y3899999D02*
D03*
X2999999Y3599999D02*
D03*
Y2999999D02*
D03*
X3149999Y2699999D02*
D03*
X2999999Y2399999D02*
D03*
X3149999Y2099999D02*
D03*
X2999999Y1799999D02*
D03*
X2699999Y10799997D02*
D03*
X2849999Y10499997D02*
D03*
X2699999Y10199997D02*
D03*
X2849999Y9899997D02*
D03*
X2699999Y9599997D02*
D03*
X2849999Y9299997D02*
D03*
X2699999Y8999997D02*
D03*
X2849999Y8699997D02*
D03*
X2699999Y5999998D02*
D03*
X2849999Y5699998D02*
D03*
X2699999Y5399998D02*
D03*
Y4799999D02*
D03*
X2849999Y4499999D02*
D03*
Y3899999D02*
D03*
X2699999Y3599999D02*
D03*
X2849999Y3299999D02*
D03*
Y2699999D02*
D03*
Y2099999D02*
D03*
X2549999Y10499997D02*
D03*
X2399999Y10199997D02*
D03*
X2549999Y9899997D02*
D03*
X2399999Y9599997D02*
D03*
X2549999Y9299997D02*
D03*
X2399999Y8999997D02*
D03*
X2549999Y8699997D02*
D03*
Y6899998D02*
D03*
X2399999Y6599998D02*
D03*
Y5999998D02*
D03*
X2549999Y5699998D02*
D03*
X2399999Y5399998D02*
D03*
X2549999Y5099998D02*
D03*
X2399999Y4799999D02*
D03*
X2549999Y4499999D02*
D03*
Y3899999D02*
D03*
X2099999Y10199997D02*
D03*
X2249999Y9899997D02*
D03*
X2099999Y9599997D02*
D03*
X2249999Y6899998D02*
D03*
X2099999Y6599998D02*
D03*
X2249999Y5699998D02*
D03*
X2099999Y5399998D02*
D03*
X2249999Y5099998D02*
D03*
X2099999Y4799999D02*
D03*
Y2399999D02*
D03*
X2249999Y2099999D02*
D03*
X2099999Y1799999D02*
D03*
X1799999Y10199997D02*
D03*
X1949999Y9899997D02*
D03*
Y6899998D02*
D03*
X1799999Y6599998D02*
D03*
X1949999Y6299998D02*
D03*
X1799999Y5999998D02*
D03*
X1949999Y5699998D02*
D03*
X1799999Y5399998D02*
D03*
X1949999Y5099998D02*
D03*
X1799999Y4799999D02*
D03*
X1949999Y4499999D02*
D03*
X1799999Y4199999D02*
D03*
X1949999Y3899999D02*
D03*
X1799999Y3599999D02*
D03*
Y2999999D02*
D03*
X1949999Y2699999D02*
D03*
X1799999Y2399999D02*
D03*
X1949999Y2099999D02*
D03*
X1799999Y1799999D02*
D03*
X1500000Y10799997D02*
D03*
X1649999Y10499997D02*
D03*
X1500000Y10199997D02*
D03*
X1649999Y6899998D02*
D03*
X1500000Y6599998D02*
D03*
X1649999Y6299998D02*
D03*
X1500000Y5999998D02*
D03*
X1649999Y5699998D02*
D03*
X1500000Y5399998D02*
D03*
X1649999Y5099998D02*
D03*
X1500000Y4799999D02*
D03*
X1649999Y4499999D02*
D03*
X1500000Y4199999D02*
D03*
X1649999Y3899999D02*
D03*
X1500000Y3599999D02*
D03*
X1649999Y3299999D02*
D03*
X1500000Y2999999D02*
D03*
X1649999Y2699999D02*
D03*
X1500000Y2399999D02*
D03*
X1649999Y2099999D02*
D03*
X1500000Y1799999D02*
D03*
X1200000Y10799997D02*
D03*
X1350000Y10499997D02*
D03*
X1200000Y10199997D02*
D03*
X1350000Y9899997D02*
D03*
Y6899998D02*
D03*
X1200000Y6599998D02*
D03*
X1350000Y6299998D02*
D03*
X1200000Y5999998D02*
D03*
X1350000Y5699998D02*
D03*
X1200000Y5399998D02*
D03*
X1350000Y5099998D02*
D03*
X1200000Y4799999D02*
D03*
X1350000Y4499999D02*
D03*
X1200000Y4199999D02*
D03*
X1350000Y3899999D02*
D03*
X1200000Y3599999D02*
D03*
X1350000Y3299999D02*
D03*
X1200000Y2999999D02*
D03*
X1350000Y2699999D02*
D03*
Y2099999D02*
D03*
X1200000Y1799999D02*
D03*
X1050000Y10499997D02*
D03*
Y6899998D02*
D03*
X900000Y6599998D02*
D03*
X1050000Y6299998D02*
D03*
X900000Y5999998D02*
D03*
X1050000Y5699998D02*
D03*
X900000Y5399998D02*
D03*
X1050000Y5099998D02*
D03*
X900000Y4799999D02*
D03*
X1050000Y4499999D02*
D03*
X900000Y4199999D02*
D03*
X1050000Y3899999D02*
D03*
X900000Y3599999D02*
D03*
X1050000Y3299999D02*
D03*
X900000Y2999999D02*
D03*
X1050000Y2699999D02*
D03*
X900000Y1799999D02*
D03*
X600000Y10799997D02*
D03*
X750000Y10499997D02*
D03*
X600000Y10199997D02*
D03*
X750000Y9899997D02*
D03*
Y6899998D02*
D03*
X600000Y6599998D02*
D03*
X750000Y6299998D02*
D03*
X600000Y5999998D02*
D03*
X750000Y5699998D02*
D03*
X600000Y5399998D02*
D03*
X750000Y5099998D02*
D03*
X600000Y4799999D02*
D03*
X750000Y4499999D02*
D03*
X600000Y4199999D02*
D03*
X750000Y3899999D02*
D03*
X600000Y3599999D02*
D03*
X750000Y3299999D02*
D03*
X600000Y2999999D02*
D03*
X750000Y2699999D02*
D03*
X600000Y2399999D02*
D03*
Y1799999D02*
D03*
X300000Y10799997D02*
D03*
X450000Y10499997D02*
D03*
X300000Y10199997D02*
D03*
X450000Y9899997D02*
D03*
X300000Y7199998D02*
D03*
X450000Y6899998D02*
D03*
X300000Y6599998D02*
D03*
X450000Y6299998D02*
D03*
X300000Y5999998D02*
D03*
X450000Y5699998D02*
D03*
X300000Y5399998D02*
D03*
X450000Y5099998D02*
D03*
X300000Y4799999D02*
D03*
X450000Y4499999D02*
D03*
X300000Y4199999D02*
D03*
X450000Y3899999D02*
D03*
X300000Y3599999D02*
D03*
X450000Y3299999D02*
D03*
X300000Y2999999D02*
D03*
X450000Y2699999D02*
D03*
X300000Y2399999D02*
D03*
X450000Y2099999D02*
D03*
X300000Y1799999D02*
D03*
X5070400Y6985000D02*
D03*
X4279900Y8483600D02*
D03*
X3378200D02*
D03*
X2133600Y6273800D02*
D03*
X4770400Y7061200D02*
D03*
X2438400Y3200400D02*
D03*
X5054600Y4813300D02*
D03*
X3975100Y8407400D02*
D03*
X2844800Y8483600D02*
D03*
X7162800Y8509000D02*
D03*
X4379100Y5499100D02*
D03*
X4584700Y4978400D02*
D03*
X3606800Y8407400D02*
D03*
X6747798Y4178300D02*
D03*
X7162800Y7899400D02*
D03*
X4679100Y5499100D02*
D03*
X4414855Y4956419D02*
D03*
X3078875Y4958959D02*
D03*
X5575300Y4178300D02*
D03*
X2209800Y4064000D02*
D03*
X2260600Y2870200D02*
D03*
X1955800Y3352800D02*
D03*
X3611880Y5021580D02*
D03*
X7137400Y9169400D02*
D03*
X4089655Y4956419D02*
D03*
X5346700Y8483600D02*
D03*
X3967480Y5019040D02*
D03*
X7912100Y3022600D02*
D03*
X6159500Y7988300D02*
D03*
X3149600Y8407400D02*
D03*
X5041900D02*
D03*
X6596544Y7075970D02*
D03*
X3514683Y3849142D02*
D03*
X5575300Y4089400D02*
D03*
X6451600D02*
D03*
X5435600Y5880100D02*
D03*
X5556219Y6249869D02*
D03*
X4813300Y8483600D02*
D03*
X2159000Y8788400D02*
D03*
X6926580Y5400040D02*
D03*
X8089900Y3848100D02*
D03*
X6159500Y7797800D02*
D03*
X4508500Y8407400D02*
D03*
X3606800Y8483600D02*
D03*
X2184400Y6197600D02*
D03*
X4620400Y7061200D02*
D03*
X4610100Y5168900D02*
D03*
X3975100Y8483600D02*
D03*
X2768600D02*
D03*
X6731000Y8432800D02*
D03*
X4829100Y5651500D02*
D03*
X7150100Y3911600D02*
D03*
X5638800Y7086600D02*
D03*
X2463800Y8407400D02*
D03*
X2159000Y8483600D02*
D03*
X7239000Y7797800D02*
D03*
X4620400Y6908800D02*
D03*
X2997575Y4958959D02*
D03*
X3927055Y4956419D02*
D03*
X2260600Y2971800D02*
D03*
X5168900Y4749800D02*
D03*
X7188200Y9321800D02*
D03*
X4920400Y6908800D02*
D03*
X3322775Y4958959D02*
D03*
X5575300Y4000500D02*
D03*
X6235700Y7797800D02*
D03*
X5499100Y8407400D02*
D03*
X4048760Y5019040D02*
D03*
X2961640Y5021580D02*
D03*
X6502400Y5107300D02*
D03*
X5435600Y6324600D02*
D03*
X3098800Y6858000D02*
D03*
X3721100Y8661400D02*
D03*
X7124700Y3644900D02*
D03*
X5041900Y8483600D02*
D03*
X6507156Y7074982D02*
D03*
X3794683Y4169142D02*
D03*
X6667500Y4089400D02*
D03*
X4737100Y8407400D02*
D03*
X2159000Y8712200D02*
D03*
X5632419Y6249869D02*
D03*
X7157720Y6929120D02*
D03*
X4508500Y8483600D02*
D03*
X3530600D02*
D03*
X2057400Y6400800D02*
D03*
X4470400Y7061200D02*
D03*
X6819900Y7048500D02*
D03*
X6223000Y7607300D02*
D03*
X4203700Y8407400D02*
D03*
X2997200Y8483600D02*
D03*
X6731000Y8509000D02*
D03*
X4770400Y6985000D02*
D03*
X6286500Y3962400D02*
D03*
X2616200Y8407400D02*
D03*
X2235200Y8483600D02*
D03*
X7035800Y7747000D02*
D03*
X3650744Y4958824D02*
D03*
X5257800Y4749800D02*
D03*
X3073400Y8407400D02*
D03*
X2880360Y5021580D02*
D03*
X6265198Y5588000D02*
D03*
X5969000Y9626600D02*
D03*
X4529100Y5499100D02*
D03*
X4170955Y4956419D02*
D03*
X3975100Y8661400D02*
D03*
X4902200Y6515100D02*
D03*
X5499100Y8483600D02*
D03*
X4130040Y5019040D02*
D03*
X3042920Y5021580D02*
D03*
X6354098Y5588000D02*
D03*
X5715000Y7010400D02*
D03*
X5270500Y8407400D02*
D03*
X6813200Y6595000D02*
D03*
X3674683Y4169142D02*
D03*
X6565900Y4089400D02*
D03*
X5613400Y5880100D02*
D03*
X3530600Y8407400D02*
D03*
X4737100Y8483600D02*
D03*
X2235200Y8940800D02*
D03*
X5708619Y6249869D02*
D03*
X7160260Y6718300D02*
D03*
X4432300Y8407400D02*
D03*
X3683000Y8483600D02*
D03*
X2184400Y6502400D02*
D03*
X2692400Y6553200D02*
D03*
X6718300Y7048500D02*
D03*
X4829100Y5575300D02*
D03*
X4203700Y8483600D02*
D03*
X2921000D02*
D03*
X5312698Y3556000D02*
D03*
X6934200Y8432800D02*
D03*
X2768600Y8407400D02*
D03*
X2197100Y9347200D02*
D03*
X2387600Y8483600D02*
D03*
X7128798Y3746500D02*
D03*
X6629400Y7620000D02*
D03*
X4529100Y5651500D02*
D03*
X6286500Y4114800D02*
D03*
X5575300Y4356100D02*
D03*
X2540000Y8407400D02*
D03*
X5058698Y5422900D02*
D03*
X7611398Y3924300D02*
D03*
X6070600Y9626600D02*
D03*
X4470400Y6908800D02*
D03*
X3404075Y4958959D02*
D03*
X3886200Y8750300D02*
D03*
X2260600Y2463800D02*
D03*
X5270500Y6908800D02*
D03*
X4211320Y5019040D02*
D03*
X3124200Y5021580D02*
D03*
X6591300Y5524500D02*
D03*
X5741931Y7121949D02*
D03*
X6502400Y5016500D02*
D03*
X7124700Y3441700D02*
D03*
X5270500Y8483600D02*
D03*
X7124700Y5842000D02*
D03*
X3494682Y3919142D02*
D03*
X3530600Y6731000D02*
D03*
X6769100Y4089400D02*
D03*
X5473700Y6248400D02*
D03*
X3683000Y8407400D02*
D03*
X4965700D02*
D03*
X2235200Y8864600D02*
D03*
X5784819Y6249869D02*
D03*
X3810882Y4767742D02*
D03*
X4432300Y8483600D02*
D03*
X2235200Y8636000D02*
D03*
X2082800Y6197600D02*
D03*
X4127500Y8407400D02*
D03*
X3149600Y8483600D02*
D03*
X4529100Y5727700D02*
D03*
X6934200Y8509000D02*
D03*
X2844800Y8407400D02*
D03*
X2197100Y9245600D02*
D03*
X2311400Y8483600D02*
D03*
X7230398Y3644900D02*
D03*
X6544598Y4178300D02*
D03*
X6731000Y7620000D02*
D03*
X4470400Y6985000D02*
D03*
X2311400Y8407400D02*
D03*
X2667000Y4406900D02*
D03*
X6963698Y3835400D02*
D03*
X6172200Y9626600D02*
D03*
X4920400Y6985000D02*
D03*
X4252255Y4956419D02*
D03*
X5435600Y4749800D02*
D03*
X4292600Y5019040D02*
D03*
X3205480Y5021580D02*
D03*
X5486400Y7112000D02*
D03*
X6261100Y5029200D02*
D03*
X7721600Y3505200D02*
D03*
X5194300Y8407400D02*
D03*
X7213600Y5842000D02*
D03*
X3974682Y3919142D02*
D03*
X2336800Y3086100D02*
D03*
X6985000Y4089400D02*
D03*
X5524500Y5880100D02*
D03*
X4953000Y6578600D02*
D03*
X2387600Y8407400D02*
D03*
X4965700Y8483600D02*
D03*
X2159000Y8940800D02*
D03*
X5861019Y6249869D02*
D03*
X3734682Y4767742D02*
D03*
X4660900Y8407400D02*
D03*
X2235200Y8559800D02*
D03*
X2133600Y6350000D02*
D03*
X3799840Y4292600D02*
D03*
X4229100Y5727700D02*
D03*
X6235700Y8178800D02*
D03*
X4127500Y8483600D02*
D03*
X3073400D02*
D03*
X4679100Y5727700D02*
D03*
X4470400Y6832600D02*
D03*
X4379100Y5575300D02*
D03*
X3492500Y4202600D02*
D03*
X2997200Y8407400D02*
D03*
X2197100Y9144000D02*
D03*
X2540000Y8483600D02*
D03*
X7128798Y3543300D02*
D03*
X6341398Y4178300D02*
D03*
X6527800Y8153400D02*
D03*
X4529100Y5575300D02*
D03*
X3556000Y4152900D02*
D03*
X3953998Y4252351D02*
D03*
X4826000Y6515100D02*
D03*
X3378200Y8407400D02*
D03*
X2590800Y4406900D02*
D03*
X5325398Y3365500D02*
D03*
X6273800Y9626600D02*
D03*
X3485375Y4958959D02*
D03*
X4008355Y4956419D02*
D03*
X1968500Y4102100D02*
D03*
X4373880Y5019040D02*
D03*
X3286760Y5021580D02*
D03*
X6502400Y5524500D02*
D03*
X5486400Y7188200D02*
D03*
X4379100Y5651500D02*
D03*
X2794000Y6858000D02*
D03*
X5524500Y4749800D02*
D03*
X7874000Y3492500D02*
D03*
X5194300Y8483600D02*
D03*
X6997700Y5842000D02*
D03*
X3914683Y4169142D02*
D03*
X7150100Y4000500D02*
D03*
X3606800Y4368800D02*
D03*
X6354098Y4089400D02*
D03*
X3225800Y8407400D02*
D03*
X4889500D02*
D03*
X2159000Y8864600D02*
D03*
X7213600Y6248400D02*
D03*
X3658482Y4767742D02*
D03*
X4660900Y8483600D02*
D03*
X2159000Y8636000D02*
D03*
X2082800Y6502400D02*
D03*
X4379100Y5727700D02*
D03*
X4597400Y5080000D02*
D03*
X4356100Y8407400D02*
D03*
X3302000Y8483600D02*
D03*
X2689514Y6647180D02*
D03*
X4829100Y5727700D02*
D03*
X2235200Y8407400D02*
D03*
X2197100Y9042400D02*
D03*
X2463800Y8483600D02*
D03*
X7128798Y3340100D02*
D03*
X6956878Y4173314D02*
D03*
X6527800Y8001000D02*
D03*
X2514600Y4406900D02*
D03*
X6375400Y9626600D02*
D03*
X4333555Y4956419D02*
D03*
X5397500Y4194300D02*
D03*
X2260600Y2565400D02*
D03*
Y2667000D02*
D03*
X2082800Y2997200D02*
D03*
X4455160Y5019040D02*
D03*
X3368040Y5021580D02*
D03*
X5486400Y7264400D02*
D03*
X4620400Y6985000D02*
D03*
X3797300Y8750300D02*
D03*
X5422900Y8407400D02*
D03*
X6908800Y5842000D02*
D03*
X3904683Y4679142D02*
D03*
X3770190Y4953518D02*
D03*
X7073900Y4089400D02*
D03*
X6235700Y7988300D02*
D03*
X3454400Y8407400D02*
D03*
X4889500Y8483600D02*
D03*
X7124700Y6248400D02*
D03*
X3954682Y3849142D02*
D03*
X5346700Y5880100D02*
D03*
X4584700Y8407400D02*
D03*
X2159000Y8559800D02*
D03*
X2057400Y6299200D02*
D03*
X3672840Y4292600D02*
D03*
X4229100Y5499100D02*
D03*
X2109110Y5923342D02*
D03*
X4356100Y8483600D02*
D03*
X3225800D02*
D03*
X2286000Y6502400D02*
D03*
X5070400Y7061200D02*
D03*
X4829100Y5499100D02*
D03*
X4864100Y6451600D02*
D03*
X4051300Y8407400D02*
D03*
X2692400Y8483600D02*
D03*
X6527800Y8077200D02*
D03*
X3302000Y8407400D02*
D03*
X6477000Y9626600D02*
D03*
X4620400Y6832600D02*
D03*
X4229100Y5575300D02*
D03*
X2916275Y4958959D02*
D03*
X3241475D02*
D03*
X1981200Y3098800D02*
D03*
X3449320Y5021580D02*
D03*
X5740400Y7239000D02*
D03*
X4679100Y5575300D02*
D03*
X6375400Y5029200D02*
D03*
X6578600Y6350000D02*
D03*
X5422900Y8483600D02*
D03*
X3804920Y5019040D02*
D03*
X5575300Y4267200D02*
D03*
X2692400Y8407400D02*
D03*
X5118100D02*
D03*
X6908800Y6248400D02*
D03*
X3884683Y3829142D02*
D03*
X4229100Y5651500D02*
D03*
X4584700Y8483600D02*
D03*
X2235200Y8788400D02*
D03*
X2286000Y6197600D02*
D03*
X6705600Y6502400D02*
D03*
X4679100Y5651500D02*
D03*
X6159500Y8178800D02*
D03*
X4279900Y8407400D02*
D03*
X3454400Y8483600D02*
D03*
X2133600Y6426200D02*
D03*
X4920400Y7061200D02*
D03*
X4051300Y8483600D02*
D03*
X2616200D02*
D03*
X5312698Y3771900D02*
D03*
X7162800Y8432800D02*
D03*
X4770400Y6908800D02*
D03*
X2159000Y8407400D02*
D03*
X7035800Y7848600D02*
D03*
X5070400Y6908800D02*
D03*
X3566675Y4958959D02*
D03*
X3845755Y4956419D02*
D03*
X2260600Y2768600D02*
D03*
X6883400Y4089400D02*
D03*
X1955800Y3238500D02*
D03*
X3530600Y5021580D02*
D03*
X5740400Y7366000D02*
D03*
X3160175Y4958959D02*
D03*
X5346700Y4749800D02*
D03*
Y8407400D02*
D03*
X3886200Y5019040D02*
D03*
X6493798Y6540500D02*
D03*
X6591300Y5107940D02*
D03*
X6726700Y6595000D02*
D03*
X6210300Y4114800D02*
D03*
X6286500Y4038600D02*
D03*
X6985000Y3263900D02*
D03*
X2921000Y8407400D02*
D03*
X5118100Y8483600D02*
D03*
X7010400Y6248400D02*
D03*
X3584682Y3829142D02*
D03*
X7239000Y3441700D02*
D03*
X4813300Y8407400D02*
D03*
X2235200Y8712200D02*
D03*
X6921500Y5232400D02*
D03*
%TF.MD5,08c48b650bc52abb7e09c5ecd1ead005*%
M02*
