%TF.GenerationSoftware,Altium Limited,Altium Designer,22.9.1 (49)*%
G04 Layer_Color=0*
%FSLAX45Y45*%
%MOMM*%
%TF.SameCoordinates,B7DE9D22-2107-43EB-A15B-9EDAE082944A*%
%TF.FilePolarity,Positive*%
%TF.FileFunction,NonPlated,1,4,NPTH,Drill*%
%TF.Part,Single*%
G01*
G75*
G36*
X5933618Y4993818D02*
X5930133Y4997302D01*
X5924657Y5005498D01*
X5920885Y5014604D01*
X5918962Y5024272D01*
Y5029200D01*
D01*
Y5791200D01*
Y5801153D01*
X5926580Y5819544D01*
X5940656Y5833620D01*
X5959047Y5841238D01*
X5978953D01*
X5997344Y5833620D01*
X6011420Y5819544D01*
X6019038Y5801153D01*
Y5791200D01*
D01*
Y5049926D01*
X6319926Y4749038D01*
X6591300D01*
X6601253D01*
X6619644Y4741420D01*
X6633720Y4727344D01*
X6641338Y4708953D01*
Y4699000D01*
Y4689047D01*
X6633720Y4670656D01*
X6619644Y4656580D01*
X6601253Y4648962D01*
X6591300D01*
D01*
X6299200D01*
X6294272D01*
X6284604Y4650885D01*
X6275498Y4654657D01*
X6267302Y4660133D01*
X6263818Y4663618D01*
X6263818Y4663618D01*
X6263843Y4663592D01*
X5933618Y4993818D01*
D02*
G37*
G36*
X6160262Y6380675D02*
Y7023100D01*
Y7028028D01*
X6162185Y7037695D01*
X6165957Y7046802D01*
X6171433Y7054997D01*
X6174918Y7058482D01*
X6174918D01*
X6174892Y7058457D01*
X6517843Y7401408D01*
X6517818Y7401382D01*
X6521302Y7404867D01*
X6529498Y7410343D01*
X6538604Y7414115D01*
X6548272Y7416038D01*
X6553200D01*
D01*
X6959600D01*
X6969553D01*
X6987944Y7408420D01*
X7002020Y7394344D01*
X7009638Y7375953D01*
Y7366000D01*
Y7356047D01*
X7002020Y7337656D01*
X6987944Y7323580D01*
X6969553Y7315962D01*
X6959600D01*
D01*
X6573926D01*
X6260338Y7002374D01*
Y6380675D01*
Y6370721D01*
X6252720Y6352330D01*
X6238644Y6338254D01*
X6220253Y6330637D01*
X6200347D01*
X6181956Y6338254D01*
X6167880Y6352330D01*
X6160262Y6370721D01*
Y6380675D01*
D01*
D02*
G37*
%TF.MD5,90d675e78534e13925fc3a4752256cb2*%
M02*
