%TF.GenerationSoftware,Altium Limited,Altium Designer,22.9.1 (49)*%
G04 Layer_Color=255*
%FSLAX45Y45*%
%MOMM*%
%TF.SameCoordinates,B7DE9D22-2107-43EB-A15B-9EDAE082944A*%
%TF.FilePolarity,Positive*%
%TF.FileFunction,Pads,Bot*%
%TF.Part,Single*%
G01*
G75*
%TA.AperFunction,SMDPad,CuDef*%
%ADD10R,1.45000X1.00000*%
%ADD12C,1.30000*%
%ADD13R,1.00000X1.45000*%
%ADD14R,0.75000X0.85000*%
G04:AMPARAMS|DCode=19|XSize=8mm|YSize=4.5mm|CornerRadius=1.125mm|HoleSize=0mm|Usage=FLASHONLY|Rotation=180.000|XOffset=0mm|YOffset=0mm|HoleType=Round|Shape=RoundedRectangle|*
%AMROUNDEDRECTD19*
21,1,8.00000,2.25000,0,0,180.0*
21,1,5.75000,4.50000,0,0,180.0*
1,1,2.25000,-2.87500,1.12500*
1,1,2.25000,2.87500,1.12500*
1,1,2.25000,2.87500,-1.12500*
1,1,2.25000,-2.87500,-1.12500*
%
%ADD19ROUNDEDRECTD19*%
%ADD20R,0.45000X0.45000*%
%ADD23R,0.85000X0.75000*%
G04:AMPARAMS|DCode=38|XSize=1.50543mm|YSize=0.57583mm|CornerRadius=0.28791mm|HoleSize=0mm|Usage=FLASHONLY|Rotation=90.000|XOffset=0mm|YOffset=0mm|HoleType=Round|Shape=RoundedRectangle|*
%AMROUNDEDRECTD38*
21,1,1.50543,0.00000,0,0,90.0*
21,1,0.92960,0.57583,0,0,90.0*
1,1,0.57583,0.00000,0.46480*
1,1,0.57583,0.00000,-0.46480*
1,1,0.57583,0.00000,-0.46480*
1,1,0.57583,0.00000,0.46480*
%
%ADD38ROUNDEDRECTD38*%
%ADD39R,0.57583X1.50543*%
%ADD40R,0.95000X0.95000*%
%TA.AperFunction,ComponentPad*%
%ADD55C,1.30000*%
%ADD56C,6.00000*%
%ADD57C,1.90500*%
%ADD58C,2.00660*%
%ADD59C,0.60000*%
%ADD60C,2.50000*%
%ADD61R,1.30000X1.30000*%
%ADD62R,1.30000X1.30000*%
%TA.AperFunction,SMDPad,CuDef*%
%ADD64R,1.00000X1.00000*%
%ADD65R,0.80000X0.90000*%
D10*
X6827520Y8477000D02*
D03*
Y8287000D02*
D03*
X7029388Y8478510D02*
D03*
Y8288509D02*
D03*
X6622988Y8478510D02*
D03*
Y8288509D02*
D03*
D12*
X6324600Y7493000D02*
D03*
X6096000Y7518400D02*
D03*
D13*
X6199120Y7703820D02*
D03*
X6389120D02*
D03*
X6198630Y8276528D02*
D03*
X6388631D02*
D03*
X6199120Y7894320D02*
D03*
X6389120D02*
D03*
X6199120Y8084820D02*
D03*
X6389120D02*
D03*
D14*
X5544820Y7317740D02*
D03*
X5669820D02*
D03*
X5543528Y7200870D02*
D03*
X5668528D02*
D03*
D19*
X3708400Y4978400D02*
D03*
D20*
X2765278Y6647044D02*
D03*
X2845279D02*
D03*
X2763814Y6558280D02*
D03*
X2843814D02*
D03*
D23*
X6934200Y7760700D02*
D03*
Y7885700D02*
D03*
Y8114300D02*
D03*
Y7989300D02*
D03*
D38*
X6778948Y7856911D02*
D03*
Y8076988D02*
D03*
X6588948Y7856911D02*
D03*
X6683948Y8076988D02*
D03*
D39*
X6588948D02*
D03*
D40*
X7061200Y8101400D02*
D03*
Y7951400D02*
D03*
X7213600Y8002200D02*
D03*
Y8152200D02*
D03*
D55*
X5372100Y4343400D02*
D03*
X3276600Y3784600D02*
D03*
X4775200Y3200400D02*
D03*
X1841500Y6197600D02*
D03*
X2298700Y4584700D02*
D03*
X7407663Y3001843D02*
D03*
X5350798Y3098800D02*
D03*
X8128000Y6189980D02*
D03*
X7366000Y9707182D02*
D03*
Y8331200D02*
D03*
X2590800Y1739900D02*
D03*
X2365400Y2146300D02*
D03*
X5579398Y3098800D02*
D03*
X7153663Y3001843D02*
D03*
X2362200Y1739900D02*
D03*
X8026400Y6959600D02*
D03*
X7366000Y8564182D02*
D03*
Y9474200D02*
D03*
X7749540Y5450840D02*
D03*
X8128000Y5943600D02*
D03*
D56*
X2082800Y10718800D02*
D03*
X8128000Y2286000D02*
D03*
X4622800Y9461500D02*
D03*
X8178800Y10718800D02*
D03*
X4648200Y4140200D02*
D03*
X1016000Y2286000D02*
D03*
D57*
X3608070Y3379470D02*
D03*
Y2868930D02*
D03*
X3097530Y3379470D02*
D03*
Y2868930D02*
D03*
X4370070Y3379470D02*
D03*
Y2868930D02*
D03*
X3859530D02*
D03*
Y3379470D02*
D03*
D58*
X3352800Y3124200D02*
D03*
X4114800D02*
D03*
D59*
X3694682Y4579142D02*
D03*
X3774682D02*
D03*
Y4499142D02*
D03*
X3694682D02*
D03*
D60*
X914400Y10121900D02*
D03*
Y10756900D02*
D03*
X905798Y8542020D02*
D03*
Y9177020D02*
D03*
D61*
X2565400Y2146300D02*
D03*
D62*
X8026400Y6705600D02*
D03*
X7749540Y5196840D02*
D03*
D64*
X3527778Y6605767D02*
D03*
X2957778D02*
D03*
D65*
X5198398Y6608300D02*
D03*
Y6828300D02*
D03*
X4779298Y5308600D02*
D03*
Y5088600D02*
D03*
X4978400Y6468600D02*
D03*
Y6688600D02*
D03*
X4979958Y5221460D02*
D03*
Y5441460D02*
D03*
%TF.MD5,8ed67686d9c8e87baddeb9cf0e96f713*%
M02*
