%TF.GenerationSoftware,Altium Limited,Altium Designer,22.9.1 (49)*%
G04 Layer_Physical_Order=4*
G04 Layer_Color=16711680*
%FSLAX45Y45*%
%MOMM*%
%TF.SameCoordinates,B7DE9D22-2107-43EB-A15B-9EDAE082944A*%
%TF.FilePolarity,Positive*%
%TF.FileFunction,Copper,L4,Bot,Signal*%
%TF.Part,Single*%
G01*
G75*
%TA.AperFunction,SMDPad,CuDef*%
%ADD10R,1.45000X1.00000*%
%ADD12C,1.30000*%
%ADD13R,1.00000X1.45000*%
%ADD14R,0.75000X0.85000*%
G04:AMPARAMS|DCode=19|XSize=8mm|YSize=4.5mm|CornerRadius=1.125mm|HoleSize=0mm|Usage=FLASHONLY|Rotation=180.000|XOffset=0mm|YOffset=0mm|HoleType=Round|Shape=RoundedRectangle|*
%AMROUNDEDRECTD19*
21,1,8.00000,2.25000,0,0,180.0*
21,1,5.75000,4.50000,0,0,180.0*
1,1,2.25000,-2.87500,1.12500*
1,1,2.25000,2.87500,1.12500*
1,1,2.25000,2.87500,-1.12500*
1,1,2.25000,-2.87500,-1.12500*
%
%ADD19ROUNDEDRECTD19*%
%ADD20R,0.45000X0.45000*%
%ADD23R,0.85000X0.75000*%
G04:AMPARAMS|DCode=38|XSize=1.50543mm|YSize=0.57583mm|CornerRadius=0.28791mm|HoleSize=0mm|Usage=FLASHONLY|Rotation=90.000|XOffset=0mm|YOffset=0mm|HoleType=Round|Shape=RoundedRectangle|*
%AMROUNDEDRECTD38*
21,1,1.50543,0.00000,0,0,90.0*
21,1,0.92960,0.57583,0,0,90.0*
1,1,0.57583,0.00000,0.46480*
1,1,0.57583,0.00000,-0.46480*
1,1,0.57583,0.00000,-0.46480*
1,1,0.57583,0.00000,0.46480*
%
%ADD38ROUNDEDRECTD38*%
%ADD39R,0.57583X1.50543*%
%ADD40R,0.95000X0.95000*%
%TA.AperFunction,Conductor*%
%ADD46C,0.30000*%
%ADD48C,0.63500*%
%ADD49C,0.80000*%
%ADD50C,0.18500*%
%ADD53C,0.50800*%
%ADD54C,0.40000*%
%TA.AperFunction,ComponentPad*%
%ADD55C,1.30000*%
%ADD56C,6.00000*%
%ADD57C,1.90500*%
%ADD58C,2.00660*%
%ADD59C,0.60000*%
%ADD60C,2.50000*%
%ADD61R,1.30000X1.30000*%
%ADD62R,1.30000X1.30000*%
%TA.AperFunction,ViaPad*%
%ADD63C,0.60000*%
%TA.AperFunction,SMDPad,CuDef*%
%ADD64R,1.00000X1.00000*%
%ADD65R,0.80000X0.90000*%
%TA.AperFunction,Conductor*%
%ADD66C,1.27000*%
G36*
X7188200Y8407400D02*
X6527800D01*
Y8559800D01*
X7188200D01*
Y8407400D01*
D02*
G37*
G36*
X7467600Y8102600D02*
X7169308D01*
X7169170Y8102738D01*
X7162800Y8106995D01*
Y8178800D01*
X7112000Y8229600D01*
X6781800D01*
X6731000Y8178800D01*
Y8132512D01*
X6729201Y8123468D01*
Y8030508D01*
X6731000Y8021464D01*
Y8001000D01*
X6654800D01*
Y8178800D01*
X6604000Y8229600D01*
X6527800D01*
Y8356600D01*
X7213600D01*
X7264400Y8407400D01*
Y8432800D01*
X7467600D01*
Y8102600D01*
D02*
G37*
G36*
X6629400Y8153400D02*
Y7988300D01*
X6624392Y7983292D01*
X6560411D01*
X6552607Y7981739D01*
X6545991Y7977319D01*
X6545991Y7977318D01*
X6544572Y7975899D01*
X6543849Y7975600D01*
X6511751D01*
X6511029Y7975899D01*
X6502699Y7984229D01*
X6502400Y7984951D01*
Y8191500D01*
X6591300D01*
X6629400Y8153400D01*
D02*
G37*
G36*
X6261100Y7620000D02*
X6184900Y7543800D01*
X6121400D01*
X6096000Y7569200D01*
X6134100Y7607300D01*
Y7632700D01*
Y8356600D01*
X6261100D01*
Y7620000D01*
D02*
G37*
G36*
X5588000Y7157792D02*
X5541428D01*
X5539459Y7157400D01*
X5537450D01*
X5535594Y7156631D01*
X5533625Y7156240D01*
X5531955Y7155124D01*
X5530099Y7154355D01*
X5528679Y7152935D01*
X5527009Y7151819D01*
X5525893Y7150149D01*
X5524473Y7148729D01*
X5517417Y7138169D01*
X5516649Y7136314D01*
X5515533Y7134644D01*
X5515141Y7132674D01*
X5514372Y7130819D01*
Y7128810D01*
X5513981Y7126840D01*
X5514372Y7124871D01*
Y7122862D01*
X5515141Y7121006D01*
X5515533Y7119037D01*
X5516008Y7117889D01*
Y7106110D01*
X5511501Y7095229D01*
X5503171Y7086899D01*
X5492290Y7082392D01*
X5480511D01*
X5479363Y7082867D01*
X5477394Y7083259D01*
X5475538Y7084028D01*
X5473529D01*
X5471560Y7084419D01*
X5469591Y7084028D01*
X5467582D01*
X5465726Y7083259D01*
X5463756Y7082867D01*
X5462086Y7081751D01*
X5460231Y7080983D01*
X5449671Y7073927D01*
X5448300Y7072556D01*
X5448072Y7072557D01*
X5441343Y7074456D01*
X5435600Y7077817D01*
Y7295600D01*
X5500000Y7360000D01*
X5588000D01*
Y7157792D01*
D02*
G37*
G36*
X6477000Y7988300D02*
X6480314Y7984986D01*
X6485412Y7972677D01*
X6499477Y7958612D01*
X6517854Y7951000D01*
X6537746D01*
X6556123Y7958612D01*
X6560411Y7962900D01*
X6705600Y7962900D01*
Y7797800D01*
X6807200Y7696200D01*
Y7543800D01*
X6400800D01*
X5994400Y7137400D01*
X5867400D01*
X5715000Y6985000D01*
X5461000D01*
Y7056972D01*
X5471560Y7064028D01*
X5476454Y7062000D01*
X5496346D01*
X5514723Y7069612D01*
X5528788Y7083677D01*
X5536400Y7102054D01*
Y7121946D01*
X5534372Y7126840D01*
X5541428Y7137400D01*
X5613400D01*
Y7416800D01*
X6121400D01*
X6324600Y7620000D01*
Y7797800D01*
X6350000D01*
Y8369300D01*
X6477000D01*
Y7988300D01*
D02*
G37*
G36*
X5130800Y6756400D02*
X4394200D01*
Y7112000D01*
X5130800D01*
Y6756400D01*
D02*
G37*
G36*
X4991100Y6527800D02*
X5054600D01*
Y6388100D01*
X4864100D01*
X4800600Y6451600D01*
Y6616700D01*
X4991100D01*
Y6527800D01*
D02*
G37*
G36*
X9194800Y10414000D02*
X5842000D01*
X5575300Y10147300D01*
Y7734300D01*
X5130800Y7493000D01*
Y7416800D01*
X4241800D01*
X4089400Y7264400D01*
Y6629400D01*
X4241800Y6477000D01*
X4394200D01*
X4800600Y6070600D01*
X4953000D01*
Y5506460D01*
X4922592D01*
Y5791200D01*
X4921040Y5799004D01*
X4916619Y5805619D01*
X4910004Y5810040D01*
X4902200Y5811592D01*
X4089400D01*
X4081596Y5810040D01*
X4074981Y5805619D01*
X4070560Y5799004D01*
X4069008Y5791200D01*
Y5410200D01*
X4070560Y5402396D01*
X4074981Y5395781D01*
X4081596Y5391360D01*
X4089400Y5389808D01*
X4533900D01*
Y4813300D01*
X4653715Y4732344D01*
X4649997Y4720200D01*
X4610185D01*
X4534805Y4710276D01*
X4461365Y4690598D01*
X4391122Y4661502D01*
X4325278Y4623487D01*
X4264959Y4577203D01*
X4211197Y4523441D01*
X4164913Y4463122D01*
X4126898Y4397278D01*
X4097802Y4327035D01*
X4078124Y4253595D01*
X4068200Y4178215D01*
Y4102185D01*
X4078124Y4026805D01*
X4097802Y3953365D01*
X4126898Y3883122D01*
X4164913Y3817278D01*
X4211197Y3756959D01*
X4264959Y3703197D01*
X4325278Y3656913D01*
X4391122Y3618898D01*
X4461365Y3589802D01*
X4534805Y3570124D01*
X4610185Y3560200D01*
X4686215D01*
X4761595Y3570124D01*
X4835035Y3589802D01*
X4905278Y3618898D01*
X4971122Y3656913D01*
X5008610Y3685678D01*
X5020000Y3680061D01*
Y2803200D01*
X5232400Y2590800D01*
X9194800D01*
Y1524000D01*
X50800D01*
Y11176000D01*
X9194800D01*
Y10414000D01*
D02*
G37*
G36*
X4902200Y5410200D02*
X4089400D01*
Y5791200D01*
X4902200D01*
Y5410200D01*
D02*
G37*
G36*
X4737100Y5130800D02*
X4813300D01*
Y5041900D01*
X4724400D01*
X4610100Y4927600D01*
X4593937D01*
X4559300Y4962237D01*
Y5207000D01*
X4737100D01*
Y5130800D01*
D02*
G37*
G36*
X8407400Y7035800D02*
Y5003800D01*
X8255000Y4851400D01*
X6349999D01*
X6197600Y5003800D01*
Y5689600D01*
X6273800Y5765800D01*
X6375400D01*
X6400800Y5791200D01*
Y7112000D01*
X6477000Y7188200D01*
X8254999Y7188200D01*
X8407400Y7035800D01*
D02*
G37*
%LPC*%
G36*
X4660815Y10041500D02*
X4584785D01*
X4509405Y10031576D01*
X4435965Y10011898D01*
X4365722Y9982802D01*
X4299878Y9944787D01*
X4239559Y9898503D01*
X4185797Y9844741D01*
X4139513Y9784422D01*
X4101498Y9718578D01*
X4072402Y9648335D01*
X4052724Y9574895D01*
X4042800Y9499515D01*
Y9423485D01*
X4052724Y9348105D01*
X4072402Y9274665D01*
X4101498Y9204422D01*
X4139513Y9138578D01*
X4185797Y9078259D01*
X4239559Y9024497D01*
X4299878Y8978213D01*
X4365722Y8940198D01*
X4435965Y8911102D01*
X4509405Y8891424D01*
X4584785Y8881500D01*
X4660815D01*
X4736195Y8891424D01*
X4809635Y8911102D01*
X4879878Y8940198D01*
X4945722Y8978213D01*
X5006041Y9024497D01*
X5059803Y9078259D01*
X5106087Y9138578D01*
X5144102Y9204422D01*
X5173198Y9274665D01*
X5192876Y9348105D01*
X5202800Y9423485D01*
Y9499515D01*
X5192876Y9574895D01*
X5173198Y9648335D01*
X5144102Y9718578D01*
X5106087Y9784422D01*
X5059803Y9844741D01*
X5006041Y9898503D01*
X4945722Y9944787D01*
X4879878Y9982802D01*
X4809635Y10011898D01*
X4736195Y10031576D01*
X4660815Y10041500D01*
D02*
G37*
G36*
X1143000Y9601200D02*
X660400D01*
X457200Y9398000D01*
Y8305800D01*
X660400Y8102600D01*
X1143000D01*
X1346200Y8305800D01*
X1346200Y9398000D01*
X1143000Y9601200D01*
D02*
G37*
G36*
X2845279Y6699808D02*
X2825087Y6695791D01*
X2815736Y6689544D01*
X2802779D01*
Y6676586D01*
X2796531Y6667236D01*
X2792515Y6647044D01*
Y6609448D01*
X2791783Y6605767D01*
Y6561960D01*
X2791051Y6558280D01*
X2795067Y6538088D01*
X2801315Y6528738D01*
Y6515780D01*
X2814272D01*
X2823623Y6509533D01*
X2843814Y6505516D01*
X2864006Y6509533D01*
X2873357Y6515780D01*
X2886314D01*
Y6527800D01*
X3022600D01*
Y6535767D01*
X3027778D01*
Y6571403D01*
X3032209Y6593680D01*
X3027778Y6615957D01*
Y6675767D01*
X2888325D01*
X2887778Y6676586D01*
Y6689544D01*
X2874821D01*
X2865471Y6695791D01*
X2845279Y6699808D01*
D02*
G37*
G36*
X3381375Y7061200D02*
X3124200Y6832600D01*
X3124200Y6273800D01*
X3352800Y6045200D01*
X3682999D01*
X3911600Y6273799D01*
Y6832600D01*
X3683000Y7061200D01*
X3381375Y7061200D01*
D02*
G37*
G36*
X3914628Y4729142D02*
X3894737D01*
X3876360Y4721530D01*
X3862295Y4707465D01*
X3854683Y4689087D01*
Y4669196D01*
X3862295Y4650819D01*
X3876360Y4636754D01*
X3894737Y4629142D01*
X3914628D01*
X3933005Y4636754D01*
X3947071Y4650819D01*
X3954682Y4669196D01*
Y4689087D01*
X3947071Y4707465D01*
X3933005Y4721530D01*
X3914628Y4729142D01*
D02*
G37*
G36*
X3809786Y4342600D02*
X3789894D01*
X3771517Y4334988D01*
X3757452Y4320923D01*
X3749840Y4302546D01*
Y4282654D01*
X3757452Y4264277D01*
X3771517Y4250212D01*
X3789894Y4242600D01*
X3809786D01*
X3828163Y4250212D01*
X3842228Y4264277D01*
X3849840Y4282654D01*
Y4302546D01*
X3842228Y4320923D01*
X3828163Y4334988D01*
X3809786Y4342600D01*
D02*
G37*
G36*
X3616746Y4418800D02*
X3596854D01*
X3578477Y4411188D01*
X3564412Y4397123D01*
X3556800Y4378746D01*
Y4358854D01*
X3564412Y4340477D01*
X3578477Y4326412D01*
X3596854Y4318800D01*
X3616745D01*
X3625356Y4308620D01*
X3622840Y4302546D01*
Y4282654D01*
X3630452Y4264277D01*
X3644517Y4250212D01*
X3662894Y4242600D01*
X3682786D01*
X3701163Y4250212D01*
X3715228Y4264277D01*
X3722840Y4282654D01*
Y4302546D01*
X3715228Y4320923D01*
X3701163Y4334988D01*
X3682786Y4342600D01*
X3662895D01*
X3654284Y4352780D01*
X3656800Y4358854D01*
Y4378746D01*
X3649188Y4397123D01*
X3635123Y4411188D01*
X3616746Y4418800D01*
D02*
G37*
G36*
X2219746Y4114000D02*
X2199854D01*
X2181477Y4106388D01*
X2167412Y4092323D01*
X2159800Y4073946D01*
Y4054054D01*
X2167412Y4035677D01*
X2181477Y4021612D01*
X2199854Y4014000D01*
X2219746D01*
X2238123Y4021612D01*
X2252188Y4035677D01*
X2259800Y4054054D01*
Y4073946D01*
X2252188Y4092323D01*
X2238123Y4106388D01*
X2219746Y4114000D01*
D02*
G37*
G36*
X3083346Y4088600D02*
X3063454D01*
X3045077Y4080988D01*
X3031012Y4066923D01*
X3023400Y4048546D01*
Y4028654D01*
X3031012Y4010277D01*
X3045077Y3996212D01*
X3063454Y3988600D01*
X3083346D01*
X3101723Y3996212D01*
X3115788Y4010277D01*
X3123400Y4028654D01*
Y4048546D01*
X3115788Y4066923D01*
X3101723Y4080988D01*
X3083346Y4088600D01*
D02*
G37*
G36*
X2905546D02*
X2885654D01*
X2867277Y4080988D01*
X2853212Y4066923D01*
X2845600Y4048546D01*
Y4028654D01*
X2853212Y4010277D01*
X2867277Y3996212D01*
X2885654Y3988600D01*
X2905546D01*
X2923923Y3996212D01*
X2937988Y4010277D01*
X2945600Y4028654D01*
Y4048546D01*
X2937988Y4066923D01*
X2923923Y4080988D01*
X2905546Y4088600D01*
D02*
G37*
G36*
X2702346D02*
X2682454D01*
X2664077Y4080988D01*
X2650012Y4066923D01*
X2642400Y4048546D01*
Y4028654D01*
X2650012Y4010277D01*
X2664077Y3996212D01*
X2682454Y3988600D01*
X2702346D01*
X2720723Y3996212D01*
X2734788Y4010277D01*
X2742400Y4028654D01*
Y4048546D01*
X2734788Y4066923D01*
X2720723Y4080988D01*
X2702346Y4088600D01*
D02*
G37*
G36*
X2549946D02*
X2530054D01*
X2511677Y4080988D01*
X2497612Y4066923D01*
X2490000Y4048546D01*
Y4028654D01*
X2497612Y4010277D01*
X2511677Y3996212D01*
X2530054Y3988600D01*
X2549946D01*
X2568323Y3996212D01*
X2582388Y4010277D01*
X2590000Y4028654D01*
Y4048546D01*
X2582388Y4066923D01*
X2568323Y4080988D01*
X2549946Y4088600D01*
D02*
G37*
G36*
X4130642Y3244530D02*
X4098958D01*
X4068354Y3236330D01*
X4040916Y3220488D01*
X4018512Y3198084D01*
X4002670Y3170646D01*
X3994470Y3140042D01*
Y3108358D01*
X4002670Y3077754D01*
X4018512Y3050316D01*
X4040916Y3027912D01*
X4068354Y3012070D01*
X4098958Y3003870D01*
X4130642D01*
X4161246Y3012070D01*
X4188684Y3027912D01*
X4211088Y3050316D01*
X4226930Y3077754D01*
X4235130Y3108358D01*
Y3140042D01*
X4226930Y3170646D01*
X4211088Y3198084D01*
X4188684Y3220488D01*
X4161246Y3236330D01*
X4130642Y3244530D01*
D02*
G37*
G36*
X3368642D02*
X3336958D01*
X3306354Y3236330D01*
X3278916Y3220488D01*
X3256512Y3198084D01*
X3240670Y3170646D01*
X3232470Y3140042D01*
Y3108358D01*
X3240670Y3077754D01*
X3256512Y3050316D01*
X3278916Y3027912D01*
X3306354Y3012070D01*
X3336958Y3003870D01*
X3368642D01*
X3399246Y3012070D01*
X3426684Y3027912D01*
X3449088Y3050316D01*
X3464930Y3077754D01*
X3473130Y3108358D01*
Y3140042D01*
X3464930Y3170646D01*
X3449088Y3198084D01*
X3426684Y3220488D01*
X3399246Y3236330D01*
X3368642Y3244530D01*
D02*
G37*
G36*
X2650400Y2231300D02*
X2480400D01*
Y2061300D01*
X2650400D01*
Y2231300D01*
D02*
G37*
G36*
X2601990Y1824900D02*
X2579610D01*
X2557991Y1819107D01*
X2538609Y1807917D01*
X2522783Y1792091D01*
X2511593Y1772709D01*
X2505800Y1751090D01*
Y1728710D01*
X2511593Y1707091D01*
X2522783Y1687709D01*
X2538609Y1671883D01*
X2557991Y1660693D01*
X2579610Y1654900D01*
X2601990D01*
X2623609Y1660693D01*
X2642991Y1671883D01*
X2658817Y1687709D01*
X2670007Y1707091D01*
X2675800Y1728710D01*
Y1751090D01*
X2670007Y1772709D01*
X2658817Y1792091D01*
X2642991Y1807917D01*
X2623609Y1819107D01*
X2601990Y1824900D01*
D02*
G37*
G36*
X6829846Y7098500D02*
X6809954D01*
X6791577Y7090888D01*
X6777512Y7076823D01*
X6769900Y7058446D01*
Y7038554D01*
X6777512Y7020177D01*
X6791577Y7006112D01*
X6809954Y6998500D01*
X6829846D01*
X6848223Y7006112D01*
X6862288Y7020177D01*
X6869900Y7038554D01*
Y7058446D01*
X6862288Y7076823D01*
X6848223Y7090888D01*
X6829846Y7098500D01*
D02*
G37*
G36*
X8037590Y7044600D02*
X8015210D01*
X7993591Y7038807D01*
X7974209Y7027617D01*
X7958383Y7011791D01*
X7947193Y6992409D01*
X7941400Y6970790D01*
Y6948410D01*
X7947193Y6926791D01*
X7958383Y6907409D01*
X7974209Y6891583D01*
X7993591Y6880393D01*
X8015210Y6874600D01*
X8037590D01*
X8059209Y6880393D01*
X8078591Y6891583D01*
X8094417Y6907409D01*
X8105607Y6926791D01*
X8111400Y6948410D01*
Y6970790D01*
X8105607Y6992409D01*
X8094417Y7011791D01*
X8078591Y7027617D01*
X8059209Y7038807D01*
X8037590Y7044600D01*
D02*
G37*
G36*
X8111400Y6790600D02*
X7941400D01*
Y6620600D01*
X8111400D01*
Y6790600D01*
D02*
G37*
G36*
X6823146Y6645000D02*
X6803254D01*
X6784877Y6637388D01*
X6770812Y6623323D01*
X6763200Y6604946D01*
Y6585054D01*
X6770812Y6566677D01*
X6784877Y6552612D01*
X6803254Y6545000D01*
X6823146D01*
X6841523Y6552612D01*
X6855588Y6566677D01*
X6863200Y6585054D01*
Y6604946D01*
X6855588Y6623323D01*
X6841523Y6637388D01*
X6823146Y6645000D01*
D02*
G37*
G36*
X6503744Y6590500D02*
X6483853D01*
X6465476Y6582888D01*
X6451410Y6568823D01*
X6443798Y6550446D01*
Y6530554D01*
X6451410Y6512177D01*
X6465476Y6498112D01*
X6483853Y6490500D01*
X6503744D01*
X6522121Y6498112D01*
X6536186Y6512177D01*
X6543798Y6530554D01*
Y6550446D01*
X6536186Y6568823D01*
X6522121Y6582888D01*
X6503744Y6590500D01*
D02*
G37*
G36*
X6588546Y6400000D02*
X6568654D01*
X6550277Y6392388D01*
X6536212Y6378323D01*
X6528600Y6359946D01*
Y6340054D01*
X6536212Y6321677D01*
X6550277Y6307612D01*
X6568654Y6300000D01*
X6588546D01*
X6606923Y6307612D01*
X6620988Y6321677D01*
X6628600Y6340054D01*
Y6359946D01*
X6620988Y6378323D01*
X6606923Y6392388D01*
X6588546Y6400000D01*
D02*
G37*
G36*
X7223546Y5892000D02*
X7203654D01*
X7185277Y5884388D01*
X7177447Y5876557D01*
X7169150Y5871564D01*
X7160853Y5876557D01*
X7153023Y5884388D01*
X7134646Y5892000D01*
X7114754D01*
X7096377Y5884388D01*
X7082312Y5870323D01*
X7074700Y5851946D01*
Y5832054D01*
X7082312Y5813677D01*
X7096377Y5799612D01*
X7114754Y5792000D01*
X7134646D01*
X7153023Y5799612D01*
X7160853Y5807443D01*
X7169150Y5812436D01*
X7177447Y5807443D01*
X7185277Y5799612D01*
X7203654Y5792000D01*
X7223546D01*
X7241923Y5799612D01*
X7255988Y5813677D01*
X7263600Y5832054D01*
Y5851946D01*
X7255988Y5870323D01*
X7241923Y5884388D01*
X7223546Y5892000D01*
D02*
G37*
G36*
X7007646D02*
X6987754D01*
X6969377Y5884388D01*
X6961547Y5876557D01*
X6953250Y5871564D01*
X6944953Y5876557D01*
X6937123Y5884388D01*
X6918746Y5892000D01*
X6898854D01*
X6880477Y5884388D01*
X6866412Y5870323D01*
X6858800Y5851946D01*
Y5832054D01*
X6866412Y5813677D01*
X6880477Y5799612D01*
X6898854Y5792000D01*
X6918746D01*
X6937123Y5799612D01*
X6944953Y5807443D01*
X6953250Y5812436D01*
X6961547Y5807443D01*
X6969377Y5799612D01*
X6987754Y5792000D01*
X7007646D01*
X7026023Y5799612D01*
X7040088Y5813677D01*
X7047700Y5832054D01*
Y5851946D01*
X7040088Y5870323D01*
X7026023Y5884388D01*
X7007646Y5892000D01*
D02*
G37*
G36*
X8139190Y6028600D02*
X8116810D01*
X8095191Y6022807D01*
X8075809Y6011617D01*
X8059983Y5995791D01*
X8048793Y5976409D01*
X8043000Y5954790D01*
Y5932410D01*
X8048793Y5910791D01*
X8059983Y5891409D01*
X8075809Y5875583D01*
X8095191Y5864393D01*
X8116810Y5858600D01*
X8139190D01*
X8160809Y5864393D01*
X8180191Y5875583D01*
X8196017Y5891409D01*
X8207207Y5910791D01*
X8213000Y5932410D01*
Y5954790D01*
X8207207Y5976409D01*
X8196017Y5995791D01*
X8180191Y6011617D01*
X8160809Y6022807D01*
X8139190Y6028600D01*
D02*
G37*
G36*
X6601246Y5574500D02*
X6581354D01*
X6562977Y5566888D01*
X6548912Y5552823D01*
X6541300Y5534446D01*
Y5514554D01*
X6548912Y5496177D01*
X6562977Y5482112D01*
X6581354Y5474500D01*
X6601246D01*
X6619623Y5482112D01*
X6633688Y5496177D01*
X6641300Y5514554D01*
Y5534446D01*
X6633688Y5552823D01*
X6619623Y5566888D01*
X6601246Y5574500D01*
D02*
G37*
G36*
X7760730Y5535840D02*
X7738350D01*
X7716731Y5530047D01*
X7697349Y5518857D01*
X7681523Y5503031D01*
X7670333Y5483649D01*
X7664540Y5462030D01*
Y5439650D01*
X7670333Y5418031D01*
X7681523Y5398649D01*
X7697349Y5382823D01*
X7716731Y5371633D01*
X7738350Y5365840D01*
X7760730D01*
X7782349Y5371633D01*
X7801731Y5382823D01*
X7817557Y5398649D01*
X7828747Y5418031D01*
X7834540Y5439650D01*
Y5462030D01*
X7828747Y5483649D01*
X7817557Y5503031D01*
X7801731Y5518857D01*
X7782349Y5530047D01*
X7760730Y5535840D01*
D02*
G37*
G36*
X7834540Y5281840D02*
X7664540D01*
Y5111840D01*
X7834540D01*
Y5281840D01*
D02*
G37*
G36*
X6601246Y5157940D02*
X6581354D01*
X6562977Y5150328D01*
X6548912Y5136263D01*
X6541300Y5117886D01*
Y5097994D01*
X6548912Y5079617D01*
X6562977Y5065552D01*
X6581354Y5057940D01*
X6601246D01*
X6619623Y5065552D01*
X6633688Y5079617D01*
X6641300Y5097994D01*
Y5117886D01*
X6633688Y5136263D01*
X6619623Y5150328D01*
X6601246Y5157940D01*
D02*
G37*
G36*
X6385346Y5079200D02*
X6365454D01*
X6347077Y5071588D01*
X6333012Y5057523D01*
X6325400Y5039146D01*
Y5019254D01*
X6333012Y5000877D01*
X6347077Y4986812D01*
X6365454Y4979200D01*
X6385346D01*
X6403723Y4986812D01*
X6417788Y5000877D01*
X6425400Y5019254D01*
Y5039146D01*
X6417788Y5057523D01*
X6403723Y5071588D01*
X6385346Y5079200D01*
D02*
G37*
G36*
X6271046D02*
X6251154D01*
X6232777Y5071588D01*
X6218712Y5057523D01*
X6211100Y5039146D01*
Y5019254D01*
X6218712Y5000877D01*
X6232777Y4986812D01*
X6251154Y4979200D01*
X6271046D01*
X6289423Y4986812D01*
X6303488Y5000877D01*
X6311100Y5019254D01*
Y5039146D01*
X6303488Y5057523D01*
X6289423Y5071588D01*
X6271046Y5079200D01*
D02*
G37*
%LPD*%
D10*
X6827520Y8477000D02*
D03*
Y8287000D02*
D03*
X7029388Y8478510D02*
D03*
Y8288509D02*
D03*
X6622988Y8478510D02*
D03*
Y8288509D02*
D03*
D12*
X6324600Y7493000D02*
D03*
X6096000Y7518400D02*
D03*
D13*
X6199120Y7703820D02*
D03*
X6389120D02*
D03*
X6198630Y8276528D02*
D03*
X6388631D02*
D03*
X6199120Y7894320D02*
D03*
X6389120D02*
D03*
X6199120Y8084820D02*
D03*
X6389120D02*
D03*
D14*
X5544820Y7317740D02*
D03*
X5669820D02*
D03*
X5543528Y7200870D02*
D03*
X5668528D02*
D03*
D19*
X3708400Y4978400D02*
D03*
D20*
X2765278Y6647044D02*
D03*
X2845279D02*
D03*
X2763814Y6558280D02*
D03*
X2843814D02*
D03*
D23*
X6934200Y7760700D02*
D03*
Y7885700D02*
D03*
Y8114300D02*
D03*
Y7989300D02*
D03*
D38*
X6778948Y7856911D02*
D03*
Y8076988D02*
D03*
X6588948Y7856911D02*
D03*
X6683948Y8076988D02*
D03*
D39*
X6588948D02*
D03*
D40*
X7061200Y8101400D02*
D03*
Y7951400D02*
D03*
X7213600Y8002200D02*
D03*
Y8152200D02*
D03*
D46*
X4998518Y5422900D02*
X5058698D01*
X4754298Y5118600D02*
X4779298Y5093600D01*
X4897818Y5308600D02*
X4979958Y5226460D01*
Y5441460D02*
X4998518Y5422900D01*
X4979958Y5221460D02*
Y5226460D01*
X5198398Y6828300D02*
Y6833300D01*
X5270500Y6905402D02*
Y6908800D01*
X5198398Y6833300D02*
X5270500Y6905402D01*
X4779298Y5088600D02*
Y5093600D01*
X4653280Y5123180D02*
X4658692D01*
X4779298Y5308600D02*
X4897818D01*
X4663272Y5118600D02*
X4754298D01*
X4658692Y5123180D02*
X4663272Y5118600D01*
D48*
X2844547Y6559012D02*
Y6605767D01*
X2843814Y6558280D02*
X2844547Y6559012D01*
X2845279Y6605767D02*
X2957778D01*
X6153950Y7594345D02*
Y7601750D01*
X2845279Y6605767D02*
Y6647044D01*
X6096000Y7518400D02*
Y7536395D01*
X6153950Y7594345D01*
Y7601750D02*
X6159500Y7607300D01*
D49*
X2957778Y6605767D02*
X2967778Y6595767D01*
X2882900Y6593680D02*
X2971034D01*
D50*
X3286760Y5006204D02*
Y5021580D01*
X3294700Y4998264D02*
Y5013640D01*
X4089655Y4956419D02*
Y4978400D01*
X3927055D02*
X4008355D01*
X3708400D02*
X3845755D01*
X3927055Y4956419D02*
Y4978400D01*
X3845755D02*
X3886200D01*
X3927055D01*
X4008355Y4956419D02*
Y4978400D01*
X3845755Y4956419D02*
Y4978400D01*
X4008355D02*
X4030337D01*
X4008355Y4956419D02*
X4030337Y4978400D01*
X3322775Y4958959D02*
Y4970189D01*
X4089655Y4978400D02*
X4130040D01*
X3294700Y4998264D02*
X3322775Y4970189D01*
X3286760Y5006204D02*
X3294700Y4998264D01*
X3286760Y5021580D02*
X3294700Y5013640D01*
X4170955Y4956419D02*
Y4978400D01*
X4252255Y4956419D02*
Y4978400D01*
X4130040D02*
X4170955D01*
X4252255Y4956419D02*
Y4978400D01*
X4130040D02*
Y5019040D01*
X4414855Y4956419D02*
Y4967577D01*
X4455160Y5007882D01*
Y5019040D01*
X4373880Y5007892D02*
Y5019040D01*
X4252255Y4978400D02*
X4278418D01*
X4171071D02*
X4252255D01*
X4344388D02*
X4359707D01*
X4278418D02*
X4284660Y4984641D01*
Y5011100D01*
X4292600Y5019040D01*
X4373880Y5007892D02*
Y5019040D01*
X4359707Y4978400D02*
X4373748Y4964359D01*
X4406915D01*
X4414855Y4956419D01*
X4344388Y4978400D02*
X4373880Y5007892D01*
X4333555Y4967567D02*
X4344388Y4978400D01*
X4252255Y4956419D02*
Y4978400D01*
X4333555Y4956419D02*
Y4967567D01*
X4373880Y5007892D02*
Y5019040D01*
X4278418Y4978400D02*
X4292459Y4964359D01*
X4325615D01*
X4171071Y4978400D02*
X4211320Y5018649D01*
Y5019040D01*
X6527800Y8153400D02*
X6539030D01*
X6549420Y8143009D01*
X6569406D01*
X6588948Y8123468D01*
Y8076988D02*
Y8123468D01*
D53*
X2692400Y6553200D02*
X2743200D01*
X2689582Y6647112D02*
X2765210D01*
X2743200Y6553200D02*
X2758734D01*
X2765210Y6647112D02*
X2765278Y6647044D01*
X7151570Y7899400D02*
X7162800D01*
X7099450Y7913150D02*
X7137820D01*
X2689514Y6647180D02*
X2689582Y6647112D01*
X6934200Y7989300D02*
X6939200D01*
X7061200Y7951400D02*
X7099450Y7913150D01*
X6977100Y7951400D02*
X7061200D01*
X2754036Y6635802D02*
X2765278Y6647044D01*
X7137820Y7913150D02*
X7151570Y7899400D01*
X6939200Y7989300D02*
X6977100Y7951400D01*
X2758734Y6553200D02*
X2763814Y6558280D01*
X6934200Y7885700D02*
Y7989300D01*
X2743200Y6553200D02*
X2754036Y6564036D01*
Y6635802D01*
D54*
X6778948Y7815189D02*
X6831700Y7762437D01*
X7054750Y8107850D02*
X7061200Y8101400D01*
X6831700Y7762437D02*
X6932463D01*
X6934200Y8114300D02*
X6940650Y8107850D01*
X7031973Y7750827D02*
X7035800Y7747000D01*
X6940650Y8107850D02*
X7054750D01*
X6932463Y7762437D02*
X6944073Y7750827D01*
X6778948Y8076988D02*
Y8106178D01*
X6944073Y7750827D02*
X7031973D01*
X6787070Y8114300D02*
X6934200D01*
X5173398Y6633300D02*
X5178398D01*
X5198398Y6608300D02*
Y6613300D01*
X6778948Y8106178D02*
X6787070Y8114300D01*
X5178398Y6633300D02*
X5198398Y6613300D01*
X5118098Y6688600D02*
X5173398Y6633300D01*
X4978400Y6688600D02*
X5118098D01*
X7061200Y8101400D02*
X7088700Y8073900D01*
X7140332D02*
X7149532Y8064700D01*
X7151100D02*
X7213600Y8002200D01*
X7088700Y8073900D02*
X7140332D01*
X6778948Y7815189D02*
Y7856911D01*
X7149532Y8064700D02*
X7151100D01*
D55*
X5372100Y4343400D02*
D03*
X3276600Y3784600D02*
D03*
X4775200Y3200400D02*
D03*
X1841500Y6197600D02*
D03*
X2298700Y4584700D02*
D03*
X7407663Y3001843D02*
D03*
X5350798Y3098800D02*
D03*
X8128000Y6189980D02*
D03*
X7366000Y9707182D02*
D03*
Y8331200D02*
D03*
X2590800Y1739900D02*
D03*
X2365400Y2146300D02*
D03*
X5579398Y3098800D02*
D03*
X7153663Y3001843D02*
D03*
X2362200Y1739900D02*
D03*
X8026400Y6959600D02*
D03*
X7366000Y8564182D02*
D03*
Y9474200D02*
D03*
X7749540Y5450840D02*
D03*
X8128000Y5943600D02*
D03*
D56*
X2082800Y10718800D02*
D03*
X8128000Y2286000D02*
D03*
X4622800Y9461500D02*
D03*
X8178800Y10718800D02*
D03*
X4648200Y4140200D02*
D03*
X1016000Y2286000D02*
D03*
D57*
X3608070Y3379470D02*
D03*
Y2868930D02*
D03*
X3097530Y3379470D02*
D03*
Y2868930D02*
D03*
X4370070Y3379470D02*
D03*
Y2868930D02*
D03*
X3859530D02*
D03*
Y3379470D02*
D03*
D58*
X3352800Y3124200D02*
D03*
X4114800D02*
D03*
D59*
X3694682Y4579142D02*
D03*
X3774682D02*
D03*
Y4499142D02*
D03*
X3694682D02*
D03*
D60*
X914400Y10121900D02*
D03*
Y10756900D02*
D03*
X905798Y8542020D02*
D03*
Y9177020D02*
D03*
D61*
X2565400Y2146300D02*
D03*
D62*
X8026400Y6705600D02*
D03*
X7749540Y5196840D02*
D03*
D63*
X5750000Y7480000D02*
D03*
X7390800Y9243000D02*
D03*
X7515800Y8993000D02*
D03*
X7390800Y8743000D02*
D03*
X7515800Y8493000D02*
D03*
Y7993000D02*
D03*
X7390800Y7743000D02*
D03*
X7265800Y8993000D02*
D03*
Y8493000D02*
D03*
X6765800Y8993000D02*
D03*
X6515800D02*
D03*
X5140800Y6243000D02*
D03*
X3530600Y6527800D02*
D03*
Y6426200D02*
D03*
Y6629400D02*
D03*
X5592460Y5796704D02*
D03*
X5156200Y5511800D02*
D03*
X5169088Y5796380D02*
D03*
X5233623Y5874360D02*
D03*
X5283369Y5822597D02*
D03*
X5059383Y5535767D02*
D03*
X5058441Y5653502D02*
D03*
X3048000Y4419600D02*
D03*
X2971800D02*
D03*
X2870200D02*
D03*
X2768600D02*
D03*
X3073400Y4038600D02*
D03*
X2895600D02*
D03*
X2692400D02*
D03*
X2540000D02*
D03*
X3149600Y4470400D02*
D03*
X3318338Y4181659D02*
D03*
X5070400Y6832600D02*
D03*
X7924800Y5410200D02*
D03*
X8255000D02*
D03*
Y5156200D02*
D03*
X7924800D02*
D03*
X8102600Y5283200D02*
D03*
X7162800Y5207000D02*
D03*
X7493000D02*
D03*
Y4953000D02*
D03*
X7162800D02*
D03*
X7340600Y5080000D02*
D03*
X6451600Y6146800D02*
D03*
X6781800D02*
D03*
Y5892800D02*
D03*
X6451600D02*
D03*
X6629400Y6019800D02*
D03*
X7416800Y5892800D02*
D03*
X7747000D02*
D03*
Y5638800D02*
D03*
X7416800D02*
D03*
X7594600Y5765800D02*
D03*
X7569200Y6375400D02*
D03*
X7391400Y6248400D02*
D03*
X7721600D02*
D03*
Y6502400D02*
D03*
X7391400D02*
D03*
Y6959600D02*
D03*
X7696200D02*
D03*
X7264400Y8737600D02*
D03*
X6578600Y8915400D02*
D03*
X6045200D02*
D03*
X7366000Y7975600D02*
D03*
X6172200Y9728200D02*
D03*
X6350000D02*
D03*
X6578600D02*
D03*
X6756400D02*
D03*
X6959600D02*
D03*
X7137400D02*
D03*
X8999997Y10799997D02*
D03*
Y2399999D02*
D03*
Y1799999D02*
D03*
X8699997Y10799997D02*
D03*
X8849997Y10499997D02*
D03*
X8699997Y2399999D02*
D03*
X8849997Y2099999D02*
D03*
X8699997Y1799999D02*
D03*
X8549997Y10499997D02*
D03*
Y2099999D02*
D03*
X8399997Y1799999D02*
D03*
X8099998D02*
D03*
X7799998Y10799997D02*
D03*
Y1799999D02*
D03*
X7499998Y10799997D02*
D03*
X7649998Y10499997D02*
D03*
X7499998Y2399999D02*
D03*
X7649998Y2099999D02*
D03*
X7499998Y1799999D02*
D03*
X7199998Y10799997D02*
D03*
X7349998Y10499997D02*
D03*
X7199998Y2399999D02*
D03*
X7349998Y2099999D02*
D03*
X7199998Y1799999D02*
D03*
X6899998Y10799997D02*
D03*
X7049998Y10499997D02*
D03*
X6899998Y2399999D02*
D03*
X7049998Y2099999D02*
D03*
X6899998Y1799999D02*
D03*
X6599998Y10799997D02*
D03*
X6749998Y10499997D02*
D03*
X6599998Y2399999D02*
D03*
X6749998Y2099999D02*
D03*
X6599998Y1799999D02*
D03*
X6299998Y10799997D02*
D03*
X6449998Y10499997D02*
D03*
X6299998Y2399999D02*
D03*
X6449998Y2099999D02*
D03*
X6299998Y1799999D02*
D03*
X5999998Y10799997D02*
D03*
X6149998Y10499997D02*
D03*
X5999998Y2399999D02*
D03*
X6149998Y2099999D02*
D03*
X5999998Y1799999D02*
D03*
X5699998Y10799997D02*
D03*
X5849998Y10499997D02*
D03*
X5699998Y2399999D02*
D03*
X5849998Y2099999D02*
D03*
X5699998Y1799999D02*
D03*
X5399998Y10799997D02*
D03*
X5549998Y10499997D02*
D03*
X5399998Y10199997D02*
D03*
Y9599997D02*
D03*
Y8999997D02*
D03*
Y2399999D02*
D03*
X5549998Y2099999D02*
D03*
X5399998Y1799999D02*
D03*
X5099998Y10799997D02*
D03*
X5249998Y10499997D02*
D03*
X5099998Y10199997D02*
D03*
X5249998Y9899997D02*
D03*
Y9299997D02*
D03*
X5099998Y8999997D02*
D03*
X5249998Y8699997D02*
D03*
X5099998Y2399999D02*
D03*
X5249998Y2099999D02*
D03*
X5099998Y1799999D02*
D03*
X4799999Y10799997D02*
D03*
X4949998Y10499997D02*
D03*
X4799999Y10199997D02*
D03*
X4949998Y8699997D02*
D03*
Y3299999D02*
D03*
X4799999Y2999999D02*
D03*
X4949998Y2699999D02*
D03*
X4799999Y2399999D02*
D03*
X4949998Y2099999D02*
D03*
X4799999Y1799999D02*
D03*
X4499999Y10799997D02*
D03*
X4649999Y10499997D02*
D03*
X4499999Y10199997D02*
D03*
X4649999Y8699997D02*
D03*
X4499999Y4799999D02*
D03*
X4649999Y3299999D02*
D03*
X4499999Y2999999D02*
D03*
X4649999Y2699999D02*
D03*
X4499999Y2399999D02*
D03*
X4649999Y2099999D02*
D03*
X4499999Y1799999D02*
D03*
X4199999Y10799997D02*
D03*
X4349999Y10499997D02*
D03*
X4199999Y10199997D02*
D03*
Y8999997D02*
D03*
X4349999Y8699997D02*
D03*
X4199999Y4799999D02*
D03*
Y3599999D02*
D03*
X4349999Y2699999D02*
D03*
X4199999Y2399999D02*
D03*
X4349999Y2099999D02*
D03*
X4199999Y1799999D02*
D03*
X3899999Y10799997D02*
D03*
X4049999Y10499997D02*
D03*
X3899999Y10199997D02*
D03*
X4049999Y9899997D02*
D03*
X3899999Y9599997D02*
D03*
X4049999Y9299997D02*
D03*
X3899999Y8999997D02*
D03*
X4049999Y3299999D02*
D03*
Y2699999D02*
D03*
X3899999Y2399999D02*
D03*
X4049999Y2099999D02*
D03*
X3899999Y1799999D02*
D03*
X3599999Y10799997D02*
D03*
X3749999Y10499997D02*
D03*
X3599999Y10199997D02*
D03*
X3749999Y9899997D02*
D03*
X3599999Y9599997D02*
D03*
X3749999Y9299997D02*
D03*
X3599999Y8999997D02*
D03*
X3749999Y2699999D02*
D03*
X3599999Y2399999D02*
D03*
X3749999Y2099999D02*
D03*
X3599999Y1799999D02*
D03*
X3299999Y10799997D02*
D03*
X3449999Y10499997D02*
D03*
X3299999Y10199997D02*
D03*
X3449999Y9899997D02*
D03*
X3299999Y9599997D02*
D03*
X3449999Y9299997D02*
D03*
X3299999Y8999997D02*
D03*
X3449999Y8699997D02*
D03*
X3299999Y3599999D02*
D03*
X3449999Y3299999D02*
D03*
Y2699999D02*
D03*
X3299999Y2399999D02*
D03*
X3449999Y2099999D02*
D03*
X3299999Y1799999D02*
D03*
X2999999Y10799997D02*
D03*
X3149999Y10499997D02*
D03*
X2999999Y10199997D02*
D03*
X3149999Y9899997D02*
D03*
X2999999Y9599997D02*
D03*
X3149999Y9299997D02*
D03*
X2999999Y8999997D02*
D03*
X3149999Y8699997D02*
D03*
Y5699998D02*
D03*
X2999999Y5399998D02*
D03*
Y4799999D02*
D03*
X3149999Y3899999D02*
D03*
X2999999Y3599999D02*
D03*
Y2999999D02*
D03*
X3149999Y2699999D02*
D03*
X2999999Y2399999D02*
D03*
X3149999Y2099999D02*
D03*
X2999999Y1799999D02*
D03*
X2699999Y10799997D02*
D03*
X2849999Y10499997D02*
D03*
X2699999Y10199997D02*
D03*
X2849999Y9899997D02*
D03*
X2699999Y9599997D02*
D03*
X2849999Y9299997D02*
D03*
X2699999Y8999997D02*
D03*
X2849999Y8699997D02*
D03*
X2699999Y5999998D02*
D03*
X2849999Y5699998D02*
D03*
X2699999Y5399998D02*
D03*
Y4799999D02*
D03*
X2849999Y4499999D02*
D03*
Y3899999D02*
D03*
X2699999Y3599999D02*
D03*
X2849999Y3299999D02*
D03*
Y2699999D02*
D03*
Y2099999D02*
D03*
X2549999Y10499997D02*
D03*
X2399999Y10199997D02*
D03*
X2549999Y9899997D02*
D03*
X2399999Y9599997D02*
D03*
X2549999Y9299997D02*
D03*
X2399999Y8999997D02*
D03*
X2549999Y8699997D02*
D03*
Y6899998D02*
D03*
X2399999Y6599998D02*
D03*
Y5999998D02*
D03*
X2549999Y5699998D02*
D03*
X2399999Y5399998D02*
D03*
X2549999Y5099998D02*
D03*
X2399999Y4799999D02*
D03*
X2549999Y4499999D02*
D03*
Y3899999D02*
D03*
X2099999Y10199997D02*
D03*
X2249999Y9899997D02*
D03*
X2099999Y9599997D02*
D03*
X2249999Y6899998D02*
D03*
X2099999Y6599998D02*
D03*
X2249999Y5699998D02*
D03*
X2099999Y5399998D02*
D03*
X2249999Y5099998D02*
D03*
X2099999Y4799999D02*
D03*
Y2399999D02*
D03*
X2249999Y2099999D02*
D03*
X2099999Y1799999D02*
D03*
X1799999Y10199997D02*
D03*
X1949999Y9899997D02*
D03*
Y6899998D02*
D03*
X1799999Y6599998D02*
D03*
X1949999Y6299998D02*
D03*
X1799999Y5999998D02*
D03*
X1949999Y5699998D02*
D03*
X1799999Y5399998D02*
D03*
X1949999Y5099998D02*
D03*
X1799999Y4799999D02*
D03*
X1949999Y4499999D02*
D03*
X1799999Y4199999D02*
D03*
X1949999Y3899999D02*
D03*
X1799999Y3599999D02*
D03*
Y2999999D02*
D03*
X1949999Y2699999D02*
D03*
X1799999Y2399999D02*
D03*
X1949999Y2099999D02*
D03*
X1799999Y1799999D02*
D03*
X1500000Y10799997D02*
D03*
X1649999Y10499997D02*
D03*
X1500000Y10199997D02*
D03*
X1649999Y6899998D02*
D03*
X1500000Y6599998D02*
D03*
X1649999Y6299998D02*
D03*
X1500000Y5999998D02*
D03*
X1649999Y5699998D02*
D03*
X1500000Y5399998D02*
D03*
X1649999Y5099998D02*
D03*
X1500000Y4799999D02*
D03*
X1649999Y4499999D02*
D03*
X1500000Y4199999D02*
D03*
X1649999Y3899999D02*
D03*
X1500000Y3599999D02*
D03*
X1649999Y3299999D02*
D03*
X1500000Y2999999D02*
D03*
X1649999Y2699999D02*
D03*
X1500000Y2399999D02*
D03*
X1649999Y2099999D02*
D03*
X1500000Y1799999D02*
D03*
X1200000Y10799997D02*
D03*
X1350000Y10499997D02*
D03*
X1200000Y10199997D02*
D03*
X1350000Y9899997D02*
D03*
Y6899998D02*
D03*
X1200000Y6599998D02*
D03*
X1350000Y6299998D02*
D03*
X1200000Y5999998D02*
D03*
X1350000Y5699998D02*
D03*
X1200000Y5399998D02*
D03*
X1350000Y5099998D02*
D03*
X1200000Y4799999D02*
D03*
X1350000Y4499999D02*
D03*
X1200000Y4199999D02*
D03*
X1350000Y3899999D02*
D03*
X1200000Y3599999D02*
D03*
X1350000Y3299999D02*
D03*
X1200000Y2999999D02*
D03*
X1350000Y2699999D02*
D03*
Y2099999D02*
D03*
X1200000Y1799999D02*
D03*
X1050000Y10499997D02*
D03*
Y6899998D02*
D03*
X900000Y6599998D02*
D03*
X1050000Y6299998D02*
D03*
X900000Y5999998D02*
D03*
X1050000Y5699998D02*
D03*
X900000Y5399998D02*
D03*
X1050000Y5099998D02*
D03*
X900000Y4799999D02*
D03*
X1050000Y4499999D02*
D03*
X900000Y4199999D02*
D03*
X1050000Y3899999D02*
D03*
X900000Y3599999D02*
D03*
X1050000Y3299999D02*
D03*
X900000Y2999999D02*
D03*
X1050000Y2699999D02*
D03*
X900000Y1799999D02*
D03*
X600000Y10799997D02*
D03*
X750000Y10499997D02*
D03*
X600000Y10199997D02*
D03*
X750000Y9899997D02*
D03*
Y6899998D02*
D03*
X600000Y6599998D02*
D03*
X750000Y6299998D02*
D03*
X600000Y5999998D02*
D03*
X750000Y5699998D02*
D03*
X600000Y5399998D02*
D03*
X750000Y5099998D02*
D03*
X600000Y4799999D02*
D03*
X750000Y4499999D02*
D03*
X600000Y4199999D02*
D03*
X750000Y3899999D02*
D03*
X600000Y3599999D02*
D03*
X750000Y3299999D02*
D03*
X600000Y2999999D02*
D03*
X750000Y2699999D02*
D03*
X600000Y2399999D02*
D03*
Y1799999D02*
D03*
X300000Y10799997D02*
D03*
X450000Y10499997D02*
D03*
X300000Y10199997D02*
D03*
X450000Y9899997D02*
D03*
X300000Y7199998D02*
D03*
X450000Y6899998D02*
D03*
X300000Y6599998D02*
D03*
X450000Y6299998D02*
D03*
X300000Y5999998D02*
D03*
X450000Y5699998D02*
D03*
X300000Y5399998D02*
D03*
X450000Y5099998D02*
D03*
X300000Y4799999D02*
D03*
X450000Y4499999D02*
D03*
X300000Y4199999D02*
D03*
X450000Y3899999D02*
D03*
X300000Y3599999D02*
D03*
X450000Y3299999D02*
D03*
X300000Y2999999D02*
D03*
X450000Y2699999D02*
D03*
X300000Y2399999D02*
D03*
X450000Y2099999D02*
D03*
X300000Y1799999D02*
D03*
X5070400Y6985000D02*
D03*
X4279900Y8483600D02*
D03*
X3378200D02*
D03*
X2133600Y6273800D02*
D03*
X4770400Y7061200D02*
D03*
X2438400Y3200400D02*
D03*
X5054600Y4813300D02*
D03*
X3975100Y8407400D02*
D03*
X2844800Y8483600D02*
D03*
X7162800Y8509000D02*
D03*
X4379100Y5499100D02*
D03*
X4584700Y4978400D02*
D03*
X3606800Y8407400D02*
D03*
X6747798Y4178300D02*
D03*
X7162800Y7899400D02*
D03*
X4679100Y5499100D02*
D03*
X4414855Y4956419D02*
D03*
X3078875Y4958959D02*
D03*
X5575300Y4178300D02*
D03*
X2209800Y4064000D02*
D03*
X2260600Y2870200D02*
D03*
X1955800Y3352800D02*
D03*
X3611880Y5021580D02*
D03*
X7137400Y9169400D02*
D03*
X4089655Y4956419D02*
D03*
X5346700Y8483600D02*
D03*
X3967480Y5019040D02*
D03*
X7912100Y3022600D02*
D03*
X6159500Y7988300D02*
D03*
X3149600Y8407400D02*
D03*
X5041900D02*
D03*
X6596544Y7075970D02*
D03*
X3514683Y3849142D02*
D03*
X5575300Y4089400D02*
D03*
X6451600D02*
D03*
X5435600Y5880100D02*
D03*
X5556219Y6249869D02*
D03*
X4813300Y8483600D02*
D03*
X2159000Y8788400D02*
D03*
X6926580Y5400040D02*
D03*
X8089900Y3848100D02*
D03*
X6159500Y7797800D02*
D03*
X4508500Y8407400D02*
D03*
X3606800Y8483600D02*
D03*
X2184400Y6197600D02*
D03*
X4620400Y7061200D02*
D03*
X4610100Y5168900D02*
D03*
X3975100Y8483600D02*
D03*
X2768600D02*
D03*
X6731000Y8432800D02*
D03*
X4829100Y5651500D02*
D03*
X7150100Y3911600D02*
D03*
X5638800Y7086600D02*
D03*
X2463800Y8407400D02*
D03*
X2159000Y8483600D02*
D03*
X7239000Y7797800D02*
D03*
X4620400Y6908800D02*
D03*
X2997575Y4958959D02*
D03*
X3927055Y4956419D02*
D03*
X2260600Y2971800D02*
D03*
X5168900Y4749800D02*
D03*
X7188200Y9321800D02*
D03*
X4920400Y6908800D02*
D03*
X3322775Y4958959D02*
D03*
X5575300Y4000500D02*
D03*
X6235700Y7797800D02*
D03*
X5499100Y8407400D02*
D03*
X4048760Y5019040D02*
D03*
X2961640Y5021580D02*
D03*
X6502400Y5107300D02*
D03*
X5435600Y6324600D02*
D03*
X3098800Y6858000D02*
D03*
X3721100Y8661400D02*
D03*
X7124700Y3644900D02*
D03*
X5041900Y8483600D02*
D03*
X6507156Y7074982D02*
D03*
X3794683Y4169142D02*
D03*
X6667500Y4089400D02*
D03*
X4737100Y8407400D02*
D03*
X2159000Y8712200D02*
D03*
X5632419Y6249869D02*
D03*
X7157720Y6929120D02*
D03*
X4508500Y8483600D02*
D03*
X3530600D02*
D03*
X2057400Y6400800D02*
D03*
X4470400Y7061200D02*
D03*
X6819900Y7048500D02*
D03*
X6223000Y7607300D02*
D03*
X4203700Y8407400D02*
D03*
X2997200Y8483600D02*
D03*
X6731000Y8509000D02*
D03*
X4770400Y6985000D02*
D03*
X6286500Y3962400D02*
D03*
X2616200Y8407400D02*
D03*
X2235200Y8483600D02*
D03*
X7035800Y7747000D02*
D03*
X3650744Y4958824D02*
D03*
X5257800Y4749800D02*
D03*
X3073400Y8407400D02*
D03*
X2880360Y5021580D02*
D03*
X6265198Y5588000D02*
D03*
X5969000Y9626600D02*
D03*
X4529100Y5499100D02*
D03*
X4170955Y4956419D02*
D03*
X3975100Y8661400D02*
D03*
X4902200Y6515100D02*
D03*
X5499100Y8483600D02*
D03*
X4130040Y5019040D02*
D03*
X3042920Y5021580D02*
D03*
X6354098Y5588000D02*
D03*
X5715000Y7010400D02*
D03*
X5270500Y8407400D02*
D03*
X6813200Y6595000D02*
D03*
X3674683Y4169142D02*
D03*
X6565900Y4089400D02*
D03*
X5613400Y5880100D02*
D03*
X3530600Y8407400D02*
D03*
X4737100Y8483600D02*
D03*
X2235200Y8940800D02*
D03*
X5708619Y6249869D02*
D03*
X7160260Y6718300D02*
D03*
X4432300Y8407400D02*
D03*
X3683000Y8483600D02*
D03*
X2184400Y6502400D02*
D03*
X2692400Y6553200D02*
D03*
X6718300Y7048500D02*
D03*
X4829100Y5575300D02*
D03*
X4203700Y8483600D02*
D03*
X2921000D02*
D03*
X5312698Y3556000D02*
D03*
X6934200Y8432800D02*
D03*
X2768600Y8407400D02*
D03*
X2197100Y9347200D02*
D03*
X2387600Y8483600D02*
D03*
X7128798Y3746500D02*
D03*
X6629400Y7620000D02*
D03*
X4529100Y5651500D02*
D03*
X6286500Y4114800D02*
D03*
X5575300Y4356100D02*
D03*
X2540000Y8407400D02*
D03*
X5058698Y5422900D02*
D03*
X7611398Y3924300D02*
D03*
X6070600Y9626600D02*
D03*
X4470400Y6908800D02*
D03*
X3404075Y4958959D02*
D03*
X3886200Y8750300D02*
D03*
X2260600Y2463800D02*
D03*
X5270500Y6908800D02*
D03*
X4211320Y5019040D02*
D03*
X3124200Y5021580D02*
D03*
X6591300Y5524500D02*
D03*
X5741931Y7121949D02*
D03*
X6502400Y5016500D02*
D03*
X7124700Y3441700D02*
D03*
X5270500Y8483600D02*
D03*
X7124700Y5842000D02*
D03*
X3494682Y3919142D02*
D03*
X3530600Y6731000D02*
D03*
X6769100Y4089400D02*
D03*
X5473700Y6248400D02*
D03*
X3683000Y8407400D02*
D03*
X4965700D02*
D03*
X2235200Y8864600D02*
D03*
X5784819Y6249869D02*
D03*
X3810882Y4767742D02*
D03*
X4432300Y8483600D02*
D03*
X2235200Y8636000D02*
D03*
X2082800Y6197600D02*
D03*
X4127500Y8407400D02*
D03*
X3149600Y8483600D02*
D03*
X4529100Y5727700D02*
D03*
X6934200Y8509000D02*
D03*
X2844800Y8407400D02*
D03*
X2197100Y9245600D02*
D03*
X2311400Y8483600D02*
D03*
X7230398Y3644900D02*
D03*
X6544598Y4178300D02*
D03*
X6731000Y7620000D02*
D03*
X4470400Y6985000D02*
D03*
X2311400Y8407400D02*
D03*
X2667000Y4406900D02*
D03*
X6963698Y3835400D02*
D03*
X6172200Y9626600D02*
D03*
X4920400Y6985000D02*
D03*
X4252255Y4956419D02*
D03*
X5435600Y4749800D02*
D03*
X4292600Y5019040D02*
D03*
X3205480Y5021580D02*
D03*
X5486400Y7112000D02*
D03*
X6261100Y5029200D02*
D03*
X7721600Y3505200D02*
D03*
X5194300Y8407400D02*
D03*
X7213600Y5842000D02*
D03*
X3974682Y3919142D02*
D03*
X2336800Y3086100D02*
D03*
X6985000Y4089400D02*
D03*
X5524500Y5880100D02*
D03*
X4953000Y6578600D02*
D03*
X2387600Y8407400D02*
D03*
X4965700Y8483600D02*
D03*
X2159000Y8940800D02*
D03*
X5861019Y6249869D02*
D03*
X3734682Y4767742D02*
D03*
X4660900Y8407400D02*
D03*
X2235200Y8559800D02*
D03*
X2133600Y6350000D02*
D03*
X3799840Y4292600D02*
D03*
X4229100Y5727700D02*
D03*
X6235700Y8178800D02*
D03*
X4127500Y8483600D02*
D03*
X3073400D02*
D03*
X4679100Y5727700D02*
D03*
X4470400Y6832600D02*
D03*
X4379100Y5575300D02*
D03*
X3492500Y4202600D02*
D03*
X2997200Y8407400D02*
D03*
X2197100Y9144000D02*
D03*
X2540000Y8483600D02*
D03*
X7128798Y3543300D02*
D03*
X6341398Y4178300D02*
D03*
X6527800Y8153400D02*
D03*
X4529100Y5575300D02*
D03*
X3556000Y4152900D02*
D03*
X3953998Y4252351D02*
D03*
X4826000Y6515100D02*
D03*
X3378200Y8407400D02*
D03*
X2590800Y4406900D02*
D03*
X5325398Y3365500D02*
D03*
X6273800Y9626600D02*
D03*
X3485375Y4958959D02*
D03*
X4008355Y4956419D02*
D03*
X1968500Y4102100D02*
D03*
X4373880Y5019040D02*
D03*
X3286760Y5021580D02*
D03*
X6502400Y5524500D02*
D03*
X5486400Y7188200D02*
D03*
X4379100Y5651500D02*
D03*
X2794000Y6858000D02*
D03*
X5524500Y4749800D02*
D03*
X7874000Y3492500D02*
D03*
X5194300Y8483600D02*
D03*
X6997700Y5842000D02*
D03*
X3914683Y4169142D02*
D03*
X7150100Y4000500D02*
D03*
X3606800Y4368800D02*
D03*
X6354098Y4089400D02*
D03*
X3225800Y8407400D02*
D03*
X4889500D02*
D03*
X2159000Y8864600D02*
D03*
X7213600Y6248400D02*
D03*
X3658482Y4767742D02*
D03*
X4660900Y8483600D02*
D03*
X2159000Y8636000D02*
D03*
X2082800Y6502400D02*
D03*
X4379100Y5727700D02*
D03*
X4597400Y5080000D02*
D03*
X4356100Y8407400D02*
D03*
X3302000Y8483600D02*
D03*
X2689514Y6647180D02*
D03*
X4829100Y5727700D02*
D03*
X2235200Y8407400D02*
D03*
X2197100Y9042400D02*
D03*
X2463800Y8483600D02*
D03*
X7128798Y3340100D02*
D03*
X6956878Y4173314D02*
D03*
X6527800Y8001000D02*
D03*
X2514600Y4406900D02*
D03*
X6375400Y9626600D02*
D03*
X4333555Y4956419D02*
D03*
X5397500Y4194300D02*
D03*
X2260600Y2565400D02*
D03*
Y2667000D02*
D03*
X2082800Y2997200D02*
D03*
X4455160Y5019040D02*
D03*
X3368040Y5021580D02*
D03*
X5486400Y7264400D02*
D03*
X4620400Y6985000D02*
D03*
X3797300Y8750300D02*
D03*
X5422900Y8407400D02*
D03*
X6908800Y5842000D02*
D03*
X3904683Y4679142D02*
D03*
X3770190Y4953518D02*
D03*
X7073900Y4089400D02*
D03*
X6235700Y7988300D02*
D03*
X3454400Y8407400D02*
D03*
X4889500Y8483600D02*
D03*
X7124700Y6248400D02*
D03*
X3954682Y3849142D02*
D03*
X5346700Y5880100D02*
D03*
X4584700Y8407400D02*
D03*
X2159000Y8559800D02*
D03*
X2057400Y6299200D02*
D03*
X3672840Y4292600D02*
D03*
X4229100Y5499100D02*
D03*
X2109110Y5923342D02*
D03*
X4356100Y8483600D02*
D03*
X3225800D02*
D03*
X2286000Y6502400D02*
D03*
X5070400Y7061200D02*
D03*
X4829100Y5499100D02*
D03*
X4864100Y6451600D02*
D03*
X4051300Y8407400D02*
D03*
X2692400Y8483600D02*
D03*
X6527800Y8077200D02*
D03*
X3302000Y8407400D02*
D03*
X6477000Y9626600D02*
D03*
X4620400Y6832600D02*
D03*
X4229100Y5575300D02*
D03*
X2916275Y4958959D02*
D03*
X3241475D02*
D03*
X1981200Y3098800D02*
D03*
X3449320Y5021580D02*
D03*
X5740400Y7239000D02*
D03*
X4679100Y5575300D02*
D03*
X6375400Y5029200D02*
D03*
X6578600Y6350000D02*
D03*
X5422900Y8483600D02*
D03*
X3804920Y5019040D02*
D03*
X5575300Y4267200D02*
D03*
X2692400Y8407400D02*
D03*
X5118100D02*
D03*
X6908800Y6248400D02*
D03*
X3884683Y3829142D02*
D03*
X4229100Y5651500D02*
D03*
X4584700Y8483600D02*
D03*
X2235200Y8788400D02*
D03*
X2286000Y6197600D02*
D03*
X6705600Y6502400D02*
D03*
X4679100Y5651500D02*
D03*
X6159500Y8178800D02*
D03*
X4279900Y8407400D02*
D03*
X3454400Y8483600D02*
D03*
X2133600Y6426200D02*
D03*
X4920400Y7061200D02*
D03*
X4051300Y8483600D02*
D03*
X2616200D02*
D03*
X5312698Y3771900D02*
D03*
X7162800Y8432800D02*
D03*
X4770400Y6908800D02*
D03*
X2159000Y8407400D02*
D03*
X7035800Y7848600D02*
D03*
X5070400Y6908800D02*
D03*
X3566675Y4958959D02*
D03*
X3845755Y4956419D02*
D03*
X2260600Y2768600D02*
D03*
X6883400Y4089400D02*
D03*
X1955800Y3238500D02*
D03*
X3530600Y5021580D02*
D03*
X5740400Y7366000D02*
D03*
X3160175Y4958959D02*
D03*
X5346700Y4749800D02*
D03*
Y8407400D02*
D03*
X3886200Y5019040D02*
D03*
X6493798Y6540500D02*
D03*
X6591300Y5107940D02*
D03*
X6726700Y6595000D02*
D03*
X6210300Y4114800D02*
D03*
X6286500Y4038600D02*
D03*
X6985000Y3263900D02*
D03*
X2921000Y8407400D02*
D03*
X5118100Y8483600D02*
D03*
X7010400Y6248400D02*
D03*
X3584682Y3829142D02*
D03*
X7239000Y3441700D02*
D03*
X4813300Y8407400D02*
D03*
X2235200Y8712200D02*
D03*
X6921500Y5232400D02*
D03*
D64*
X3527778Y6605767D02*
D03*
X2957778D02*
D03*
D65*
X5198398Y6608300D02*
D03*
Y6828300D02*
D03*
X4779298Y5308600D02*
D03*
Y5088600D02*
D03*
X4978400Y6468600D02*
D03*
Y6688600D02*
D03*
X4979958Y5221460D02*
D03*
Y5441460D02*
D03*
D66*
X3530600Y6629400D02*
Y6731000D01*
Y6426200D02*
Y6629400D01*
%TF.MD5,ed932f2852e92ad6921dbd45690f2bb9*%
M02*
