M48
;Layer_Color=9474304
;FILE_FORMAT=2:4
METRIC,LZ
;TYPE=PLATED
T1F00S00C0.3000
T2F00S00C0.8000
T3F00S00C1.4000
T4F00S00C1.4986
T5F00S00C1.5000
T6F00S00C3.6000
%
T01
X03Y18
X06
X09
X12
X15
X18
X21
X225Y21
X195
X165
X135
X15Y24
X18
X21
X22606Y24638
Y25654
Y2667
Y27686
Y28702
Y29718
X23368Y30861
X24384Y32004
X285Y33
X3Y36
X33
X345Y33
Y27
X375
X39Y24
X36
X33
X3
X315Y27
X285
X3Y3
X27Y36
X285Y39
X315
X349468Y391914
X351468Y384914
X358468Y382914
X388468
X395468Y384914
X255Y39
X195
X165
X135
X105
X075
X045
X06Y36
X09
X12
X15
X18
X19558Y33528
Y32385
X19812Y30988
X20828Y29972
X18Y3
X15
X12
X09
X06
X03
X045Y33
X075
X105
X135
X165
Y27
X195
X135
X105
X075
X045
X06Y24
X03
X045Y21
X03Y36
X285Y21
X315
X345
X375
X39Y18
X36
X33
X3
X42
X45
X48
X51
X54
X57
X6
X63
X66
X69
X72
X75
X78
X765Y21
X735
X705
X675
X645
X615
X585
X555
X525
X495
X465
X435
X405
X42Y24
X45
X48
X51
X54
X57
X6
X63
X66
X69
X72
X75
X79121Y30226
X7874Y34925
X77216Y35052
X76114Y39243
X71501Y39116
X71288Y37465
X71247Y36449
X72304
X71288Y35433
X71247Y34417
X71288Y33401
X7239Y34417
X6985Y32639
X69637Y38354
X62865Y39624
X53127Y37719
Y3556
X53254Y33655
X495Y33
X465
X48Y3
X45
X465Y27
X495
X435
X405
Y33
X42Y36
X397468Y391914
X80899Y38481
X87Y24
X9
X885Y21
X855
X87Y18
X9
X84
X81
X81026Y52832
X8255Y54102
Y51562
X79248
Y54102
X7747Y56388
Y58928
X75946Y57658
X74168Y58928
Y56388
X72136Y5842
X71247
X69977
X69088
X67818Y58928
Y61468
X69088Y62484
X70104
X71247
X72136
X73914
Y65024
X75692Y63754
X77216Y62484
Y65024
X76962Y69596
X73914
X715772Y692912
X716026Y67183
X68132Y6595
X67267
X67056Y65024
X64938Y65405
X65786Y635
X64516Y61468
Y58928
X66294Y60198
X65913Y55245
X65024
X63541Y5588
X62652
X62611Y50292
X63754
X65024Y50165
Y51073
X65913Y510794
X69215Y52324
X692658Y540004
X71628Y5207
Y4953
X73406Y508
X7493Y5207
Y4953
X70739Y40894
X6985
X68834
X67691
X66675
X65659
X65446Y41783
X64516Y40894
X63541
X62865Y41148
X62103
X62865Y40386
X63414Y41783
X67478
X695688Y417331
X71501Y40005
X55753
Y40894
Y41783
Y42672
Y43561
X53975Y41943
X54356Y47498
X55245
X53467
X52578
X51689
X50546Y48133
X45Y48
X441485Y495642
X433355
X425225
X417095
X408965
X400835
X404876Y501904
X413004
X421132
X42926
X437388
X445516
X45847Y49784
X45974Y508
X46101Y51689
X46791Y54991
Y55753
Y56515
Y57277
X48291
Y56515
Y55753
Y54991
X505938Y553577
X50587Y54229
X51562Y55118
X505844Y56535
X516909Y579638
X528337Y58226
X523362Y587436
X53467Y58801
X54356
X55245
X56134
X559246Y57967
X555622Y624987
X563242
X570862
X578482
X586102
X54737Y62484
X54356Y63246
X51408Y6243
X48641Y64516
X49022Y65151
X4826
X4953Y65786
X49204Y69088
Y6985
Y70612
X50704
Y6985
Y69088
Y68326
X52705Y69088
X54864Y7112
Y71882
Y72644
X57404Y7239
X574193Y712195
X56388Y70866
X5715Y70104
X57404Y7366
X575Y748
X6223Y76073
X62357Y77978
X61595
X66294Y762
X6731
X70358Y7747
Y78486
X71628Y78994
X7239Y77978
X73908Y7743
X68199Y70485
X67183
X659654Y707597
X650716Y707498
X47704Y70612
Y6985
Y69088
X46204
Y6985
Y70612
X44704
Y6985
Y69088
Y68326
X46204
X45291Y57277
Y56515
Y55753
Y54991
X43791
Y55753
Y56515
Y57277
X42291
Y56515
Y55753
Y54991
X42Y48
X390468Y467914
X381088Y476774
X373468
X365848
X365074Y495882
X356668Y495896
X348537
X340407
X332277
X324147
X316017
X307887
X299757
X291628
X288036Y502158
X296164
X304292
X31242
X320548
X328676
X336804
X344932
X35306
X361188
X380492Y501904
X38862
X396748
X392705Y495642
X384576
X377019Y495352
X377468Y457914
X369468
Y449914
X377468
X379984Y42926
X367284
X367468Y416914
X379468
X391468
X3954Y425235
X36068Y43688
X3556Y41529
X34925Y42026
X331834Y418166
X30734Y40386
X28956
X26924
X254
X22098Y4064
X19685Y41021
X18Y42
X15
X12
X09
X06
X03
X045Y45
X075
X105
X135
X165
X195
X21Y48
X24
X27
X3
X29718Y44196
X3048
X31496Y44704
X285Y45
X28702Y44196
X27686
X2667Y44069
X25908
X25146
X255Y45
Y51
X225
X195
X165
X135
X105
X075
X045
X06Y54
X09
X12
X15
X18
X21
X24
X27
X3
X315Y57
X285
X255
X225
X195
X165
X135
X105
X075
X045
X06Y6
X09
X12
X15
X18
X210911Y592334
X20828Y61976
X21844
X2286
X21336Y62738
Y635
Y64262
X20574Y64008
Y62992
X195Y63
X165
X135
X105
X075
X045
X06Y66
X09
X12
X15
X18
X21
X20828Y65024
X21844
X2286
X24Y66
X268951Y664718
X26924Y65532
X2794Y6858
X255Y69
X225
X195
X165
X135
X105
X075
X045
X03Y72
Y66
Y6
Y54
Y48
X06
X09
X12
X15
X18
X24Y6
X27
X35306Y64262
Y65278
Y66294
Y6731
X30988Y6858
X30734Y84074
X31496
Y84836
X30734
X29972
X2921
X28448
X27686
Y84074
X28448
X2921
X29972
X32258
Y84836
X3302
X33782
Y84074
X34544
X35306
X36068
Y84836
X35306
X34544
X345Y87
X315
X285
X255
X254Y84836
Y84074
X24638
X23876
Y84836
X23114
X22352
X2159
Y85598
X22352
Y8636
X2159
Y87122
Y87884
Y88646
X22352
Y89408
X2159
X21971Y90424
Y9144
Y92456
Y93472
X21Y96
X24
X27
X3
X33
X36
X39
X375Y99
X345
X315
X285
X255
X225
X195
X21Y102
X24
X27
X3
X33
X36
X39
X375Y105
X345
X315
X285
X255
X27Y108
X3
X33
X36
X39
X375Y93
X345
X315
X285
X255
X27Y9
X3
X33
X36
X39
X38862Y87503
X37973
X37211Y86614
X3683Y84836
Y84074
X3302
X26924
X26162
Y84836
X26924
X24638
X23114Y84074
X22352
X2159
X22352Y87122
Y87884
X24Y9
X18Y102
X15
X12
X135Y105
X165
X15Y108
X12
X105Y105
X075
X045
X06Y108
X03
Y102
X06
X075Y99
X045
X135
X405
X42Y102
X45
X48
X51
X54
X555Y105
X585
X615
X645
X675
X705
X735
X765
X78Y108
X75
X72
X69
X66
X63
X6
X57
X54
X51
X48
X45
X42
X435Y105
X465
X495
X525
Y99
X54Y96
X525Y93
X54Y9
X51
X525Y87
X52705Y84836
X53467
X54229
X54991
Y84074
X54229
X53467
X52705
X51943
Y84836
X51181
X50419
Y84074
X49657
Y84836
X48895
X48133
X47371
Y84074
X46609
Y84836
X45847
X45085
Y84074
X44323
Y84836
X43561
X42799
X42037
Y84074
X41275
Y84836
X40513
X39751
Y84074
X40513
X42799
X43561
X45847
X48133
X48895
X51181
X495Y87
X465
X435
X39751Y86614
X42Y9
X405Y93
Y105
X5969Y96266
X60706
X61722
Y97282
X635
X63754Y96266
X62738
X6477
X65786Y97282
X67564
X69596
X71374
X71882Y93218
X71374Y91694
X72658Y8993
X75158
X73908Y9243
Y8743
X72644Y87376
X72658Y8493
X71628Y8509
Y84328
X69342
Y8509
X6731
Y84328
X65278Y81534
Y80772
Y8001
X62357Y79883
X61595
Y81788
X62357
X60452Y89154
X65786
X65158Y8993
X67658
X75158Y8493
Y7993
X7366Y79756
X855Y105
X885
X9Y108
X87
T02
X23622Y17399
X25908
X25654Y21463
X23654
X32766Y37846
X47752Y32004
X53508Y30988
X55794
X715366Y300184
X740766
X8128Y59436
Y618998
X80264Y67056
Y69596
X774954Y545084
Y519684
X53721Y43434
X22987Y45847
X18415Y61976
X7366Y83312
Y856418
Y94742
Y970718
T03
X09058Y854202
Y917702
X09144Y101219
Y107569
T04
X33528Y31242
X41148
T05
X309753Y286893
X360807
X385953
Y337947
X360807
X309753
X437007
Y286893
T06
X1016Y2286
X8128
X46482Y41402
X20828Y107188
X46228Y94615
X81788Y107188
M30
