%TF.GenerationSoftware,Altium Limited,Altium Designer,22.9.1 (49)*%
G04 Layer_Color=32896*
%FSLAX45Y45*%
%MOMM*%
%TF.SameCoordinates,C6D2A98E-D71B-44EB-B230-12E80A119C5B*%
%TF.FilePolarity,Positive*%
%TF.FileFunction,Legend,Bot*%
%TF.Part,Single*%
G01*
G75*
%TA.AperFunction,NonConductor*%
%ADD54C,0.20000*%
G36*
X5784691Y2025296D02*
X5801153Y2022944D01*
X5815264Y2018241D01*
X5824671Y2013537D01*
X5834078Y2008834D01*
X5838782Y2006482D01*
X5841134Y2004130D01*
X5850541Y1999427D01*
X5855244Y1997075D01*
X5876410Y1978260D01*
X5895225Y1957094D01*
X5904632Y1942984D01*
X5909335Y1938280D01*
Y1935928D01*
X6617223Y708296D01*
X6619575D01*
Y705944D01*
Y703593D01*
X6624279Y694186D01*
X6628982Y687130D01*
X6631334Y682427D01*
Y680075D01*
X6633686Y673019D01*
X6636038Y663612D01*
X6638389Y656557D01*
Y654205D01*
X6640741Y628336D01*
Y604818D01*
X6638389Y583652D01*
X6633686Y564837D01*
X6626630Y548375D01*
X6621927Y536616D01*
X6619575Y529561D01*
X6617223Y527209D01*
X6607816Y510746D01*
X6605464Y506043D01*
X6603113Y503691D01*
X6591354Y491932D01*
X6586650Y487228D01*
X6584298Y484877D01*
X6563132Y468414D01*
X6541966Y456655D01*
X6520800Y447248D01*
X6499634Y442544D01*
X6483171Y437841D01*
X6469061Y435489D01*
X5036823Y435489D01*
X5025064Y437841D01*
X5015657D01*
X5013305Y440192D01*
X5003898D01*
X4994491Y442544D01*
X4987436Y444896D01*
X4985084D01*
X4961566Y454303D01*
X4940400Y466062D01*
X4923937Y480173D01*
X4909827Y494283D01*
X4898068Y506042D01*
X4891012Y517801D01*
X4886309Y524857D01*
X4883957Y527208D01*
X4881605D01*
X4876902Y538967D01*
X4872198Y546023D01*
X4869846Y550726D01*
Y553078D01*
X4867494Y562485D01*
X4865143Y571892D01*
X4862791Y576596D01*
Y578948D01*
X4860439Y604817D01*
Y628335D01*
X4862791Y651853D01*
X4867494Y670667D01*
X4874550Y687130D01*
X4879253Y701241D01*
X4881605Y708296D01*
X4883957Y710648D01*
X5594196Y1940632D01*
X5603603Y1954743D01*
X5605955Y1959446D01*
X5608307Y1961798D01*
X5620066Y1973557D01*
X5624769Y1978260D01*
X5627121Y1980612D01*
X5648287Y1997075D01*
X5667101Y2008834D01*
X5688268Y2018241D01*
X5707082Y2022944D01*
X5723544Y2027648D01*
X5737655Y2030000D01*
X5768228D01*
X5784691Y2025296D01*
D02*
G37*
G36*
X1028955Y2705149D02*
X1045418Y2700445D01*
X1064232Y2695741D01*
X1085398Y2686334D01*
X1104212Y2674575D01*
X1125378Y2658113D01*
X1127730Y2655761D01*
X1132434Y2651057D01*
X1144193Y2639299D01*
X1146545Y2636947D01*
X1148896Y2632243D01*
X1158303Y2618132D01*
X1868543Y1388148D01*
X1870895Y1385797D01*
X1873247Y1378741D01*
X1877950Y1364630D01*
X1885006Y1348168D01*
X1889709Y1329354D01*
X1892061Y1305836D01*
Y1282318D01*
X1889709Y1256448D01*
Y1254097D01*
X1887357Y1249393D01*
X1885006Y1239986D01*
X1882654Y1230579D01*
Y1228227D01*
X1880302Y1223523D01*
X1875598Y1216468D01*
X1870895Y1204709D01*
X1868543D01*
X1866191Y1202357D01*
X1861488Y1195302D01*
X1854432Y1183543D01*
X1842673Y1171784D01*
X1828563Y1157673D01*
X1812100Y1143563D01*
X1790934Y1131804D01*
X1767416Y1122397D01*
X1765065D01*
X1758009Y1120045D01*
X1748602Y1117693D01*
X1739195D01*
X1736843Y1115341D01*
X1727436D01*
X1715677Y1112989D01*
X283439Y1112989D01*
X269329Y1115341D01*
X252866Y1120044D01*
X231700Y1124748D01*
X210534Y1134155D01*
X189368Y1145914D01*
X168202Y1162377D01*
X165850Y1164728D01*
X161146Y1169432D01*
X149388Y1181191D01*
X147036Y1183543D01*
X144684Y1188246D01*
X135277Y1204709D01*
X132925Y1207061D01*
X130573Y1214116D01*
X125870Y1225875D01*
X118814Y1242337D01*
X114111Y1261152D01*
X111759Y1282318D01*
Y1305836D01*
X114111Y1331705D01*
Y1334057D01*
X116463Y1341112D01*
X118814Y1350520D01*
X121166Y1357575D01*
Y1359927D01*
X123518Y1364630D01*
X128221Y1371686D01*
X132925Y1381093D01*
Y1383445D01*
Y1385796D01*
X135277D01*
X843164Y2613429D01*
Y2615781D01*
X847868Y2620484D01*
X857275Y2634595D01*
X876089Y2655761D01*
X897255Y2674575D01*
X901959Y2676927D01*
X911366Y2681631D01*
X913718Y2683982D01*
X918421Y2686334D01*
X927828Y2691038D01*
X937236Y2695741D01*
X951346Y2700445D01*
X967809Y2702797D01*
X984271Y2707500D01*
X1014845D01*
X1028955Y2705149D01*
D02*
G37*
%LPC*%
G36*
X5754118Y1910059D02*
X5749414D01*
Y1907707D01*
X5735303D01*
X5723544Y1903003D01*
X5702378Y1895948D01*
X5688268Y1886541D01*
X5685916Y1884189D01*
X5683564Y1881837D01*
X5678860Y1877134D01*
X5674157Y1874782D01*
Y1872430D01*
X5669453Y1863023D01*
X5667101Y1860671D01*
X5664750D01*
X5434275Y1460868D01*
X5514235Y1427943D01*
X5540105Y1420887D01*
X5561271Y1416184D01*
X5570678Y1413832D01*
X5613010D01*
X5634176Y1416184D01*
X5676509D01*
X5688268Y1418535D01*
X5716489D01*
X5740007Y1416184D01*
X5761173Y1413832D01*
X5777635Y1411480D01*
X5791746Y1409128D01*
X5803505Y1404425D01*
X5810560Y1402073D01*
X5812912D01*
X5831726Y1395018D01*
X5850541Y1385610D01*
X5885818Y1364444D01*
X5902280Y1355037D01*
X5914039Y1347982D01*
X5921094Y1343278D01*
X5923446Y1340926D01*
X5930501Y1336223D01*
X5942260Y1329168D01*
X5951668Y1322112D01*
X5954019Y1319761D01*
X5956371D01*
X5963426Y1315057D01*
X5965778Y1312705D01*
X5968130D01*
X5975185Y1308002D01*
X5977537Y1305650D01*
X5994000Y1296243D01*
X6005759Y1286836D01*
X6015166Y1282132D01*
X6017518Y1279780D01*
X6031628Y1268021D01*
X6043387Y1258614D01*
X6048091Y1251559D01*
X6050443Y1249207D01*
X6153921Y1308002D01*
X5836430Y1858319D01*
X5827023Y1872430D01*
X5817616Y1881837D01*
X5810560Y1888893D01*
X5808209Y1891244D01*
X5805857D01*
X5803505Y1893596D01*
X5801153Y1895948D01*
X5782339Y1905355D01*
X5765876Y1907707D01*
X5754118Y1910059D01*
D02*
G37*
G36*
X5422516Y1437350D02*
X5286112Y1202171D01*
X5297871Y1192764D01*
X5302575Y1190412D01*
X5304926Y1188060D01*
X5316685Y1173950D01*
X5326092Y1162191D01*
X5333148Y1152784D01*
X5335500Y1148080D01*
X5342555Y1131617D01*
X5347259Y1117507D01*
X5351962Y1103396D01*
X5354314Y1101044D01*
Y1098692D01*
X5363721Y1077526D01*
X5370776Y1063416D01*
X5373128Y1056360D01*
X5375480Y1054009D01*
X5384887Y1042250D01*
X5387239Y1039898D01*
X5389591Y1037546D01*
X5401350Y1023435D01*
X5403701Y1021084D01*
X5406053Y1018732D01*
X5429571Y997566D01*
X5450737Y978751D01*
X5469551Y964641D01*
X5486014Y955234D01*
X5500125Y948178D01*
X5509532Y943475D01*
X5516587Y941123D01*
X5518939D01*
X6026925Y1235096D01*
X6017518Y1244503D01*
X6010462Y1251559D01*
X6003407Y1256262D01*
X6001055Y1258614D01*
X5986944Y1268021D01*
X5975185Y1277428D01*
X5965778Y1282132D01*
X5963426Y1284484D01*
X5954019Y1291539D01*
X5946964Y1293891D01*
X5942260Y1296243D01*
X5925798Y1308001D01*
X5916391Y1315057D01*
X5909335Y1317409D01*
X5906984Y1319760D01*
X5885818Y1333871D01*
X5867003Y1347982D01*
X5848189Y1357389D01*
X5834078Y1364444D01*
X5819968Y1371500D01*
X5810560Y1376203D01*
X5805857Y1378555D01*
X5803505D01*
X5768228Y1385610D01*
X5732951Y1390314D01*
X5660046D01*
X5629473Y1387962D01*
X5605955Y1385610D01*
X5580085D01*
X5551864Y1390314D01*
X5528346Y1395018D01*
X5518939Y1399721D01*
X5511884Y1402073D01*
X5507180Y1404425D01*
X5504828D01*
X5422516Y1437350D01*
D02*
G37*
G36*
X5787043Y1004621D02*
X5723544Y969344D01*
X5737655Y957585D01*
X5751766Y945826D01*
X5763525Y938771D01*
X5765876Y934067D01*
X5768228D01*
X5772932Y941123D01*
X5777635Y950530D01*
X5779987Y957585D01*
X5782339Y959937D01*
X5784691Y964641D01*
Y966992D01*
X5789394Y981103D01*
Y985807D01*
Y988159D01*
Y992862D01*
X5787043Y997566D01*
Y1002269D01*
Y1004621D01*
D02*
G37*
G36*
X5855244Y1044601D02*
X5810560Y1018732D01*
X5812912Y1006973D01*
X5815264Y995214D01*
Y988159D01*
Y985807D01*
X5812912Y974048D01*
X5810560Y964641D01*
X5808209Y957585D01*
Y955234D01*
X5805857Y950530D01*
X5798801Y936419D01*
X5791746Y924660D01*
X5789394Y919957D01*
X5787043Y917605D01*
X5803505Y903494D01*
X5817616Y889384D01*
X5827023Y879976D01*
X5831726Y875273D01*
X5834078Y872921D01*
X5836430Y870569D01*
X5838782Y868217D01*
Y865866D01*
X5848189Y879976D01*
X5852893Y891735D01*
X5857596Y898791D01*
Y901142D01*
X5859948Y905846D01*
X5862300Y910550D01*
X5864651Y917605D01*
Y919957D01*
X5867003Y931716D01*
X5869355Y943475D01*
Y952882D01*
Y957585D01*
Y959937D01*
Y964641D01*
Y978751D01*
Y992862D01*
Y997566D01*
Y999917D01*
Y1009325D01*
X5867003Y1018732D01*
Y1023435D01*
Y1025787D01*
X5859948Y1039898D01*
X5855244Y1042250D01*
Y1044601D01*
D02*
G37*
G36*
X5918743Y1079878D02*
X5878762Y1058712D01*
X5888169Y1042250D01*
X5892873Y1035194D01*
Y1032842D01*
X5895225Y1021084D01*
Y1011676D01*
Y1002269D01*
Y999917D01*
Y983455D01*
Y978751D01*
Y976400D01*
Y964641D01*
Y959937D01*
Y957585D01*
Y938771D01*
X5892873Y924660D01*
X5890521Y917605D01*
Y915253D01*
Y912901D01*
X5888169Y905846D01*
Y903494D01*
Y901142D01*
X5885818D01*
X5883466Y896439D01*
X5881114Y891735D01*
Y889384D01*
X5874059Y872921D01*
X5864651Y858810D01*
X5859948Y849403D01*
X5857596Y844700D01*
X5869355Y825885D01*
X5876410Y811775D01*
X5881114Y802367D01*
X5883466Y797664D01*
X5892873Y802367D01*
X5895225Y807071D01*
X5897576D01*
X5906984Y811775D01*
X5911687Y816478D01*
X5914039Y818830D01*
X5918743Y823534D01*
X5921094Y825885D01*
X5923446D01*
X5928150Y830589D01*
X5932853Y832941D01*
X5935205Y835293D01*
X5937557D01*
X5939909Y837645D01*
Y842348D01*
Y861162D01*
X5937557Y877625D01*
X5935205Y887032D01*
Y891736D01*
Y898791D01*
Y905846D01*
X5939909Y927012D01*
X5942260Y936420D01*
X5944612Y943475D01*
X5946964Y948178D01*
Y950530D01*
X5951668Y964641D01*
X5954019Y976400D01*
X5956371Y990511D01*
Y999918D01*
Y1002270D01*
X5954019Y1011677D01*
X5946964Y1023436D01*
X5942260Y1032843D01*
X5939909Y1035195D01*
X5928150Y1054009D01*
X5921094Y1068119D01*
X5918743Y1077526D01*
Y1079878D01*
D02*
G37*
G36*
X5627121Y847051D02*
X5624769D01*
X5620066Y842348D01*
X5608307Y832941D01*
X5601251Y823534D01*
X5596548Y821182D01*
Y818830D01*
Y816478D01*
X5594196D01*
Y814126D01*
X5589493Y809423D01*
Y804719D01*
Y802367D01*
Y800016D01*
Y795312D01*
X5591844Y788257D01*
X5594196Y781201D01*
Y778850D01*
Y776498D01*
X5601252Y771794D01*
X5610659Y769442D01*
X5622418D01*
X5641232Y771794D01*
X5655343Y774146D01*
X5664750Y776498D01*
X5669453D01*
X5681212Y783553D01*
X5683564Y785905D01*
X5685916D01*
Y788257D01*
X5683564Y790609D01*
Y792960D01*
X5674157Y807071D01*
X5664750Y818830D01*
X5657694Y825885D01*
X5655343Y828237D01*
X5648287Y832941D01*
X5638880Y839996D01*
X5629473Y844700D01*
X5627121Y847051D01*
D02*
G37*
G36*
X6076312Y1173950D02*
X5942260Y1096341D01*
X5944612Y1082230D01*
X5951668Y1065768D01*
X5958723Y1054009D01*
X5961075Y1051657D01*
Y1049305D01*
X5972834Y1032843D01*
X5979889Y1018732D01*
X5984593Y1009325D01*
Y1006973D01*
Y999918D01*
X5982241Y988159D01*
X5977537Y966993D01*
X5975185Y957586D01*
X5972834Y948178D01*
X5970482Y943475D01*
Y941123D01*
X5965778Y929364D01*
X5963426Y919957D01*
X5961075Y905846D01*
Y901143D01*
Y898791D01*
X5965778Y877625D01*
Y861162D01*
Y847052D01*
Y844700D01*
Y842348D01*
Y835293D01*
Y832941D01*
X5963426Y828237D01*
Y825886D01*
X5961075Y818830D01*
Y814127D01*
X5958723Y811775D01*
X5956371Y802368D01*
Y797664D01*
X5954019Y795312D01*
X5946964Y771794D01*
X5942261Y752980D01*
X5937557Y736518D01*
Y724759D01*
X5935205Y717703D01*
Y713000D01*
Y708296D01*
X5939909Y691834D01*
X5946964Y680075D01*
X5954020Y670668D01*
X5956371Y668316D01*
X5961075Y665964D01*
X5963427Y663612D01*
Y665964D01*
Y670668D01*
Y673019D01*
Y675371D01*
Y684778D01*
Y689482D01*
X5970482Y705944D01*
X5972834Y710648D01*
X5975186Y713000D01*
X5979889Y717703D01*
X5982241Y722407D01*
X5991648Y734166D01*
X5998704Y743573D01*
X6008111Y748277D01*
X6017518Y752980D01*
X6031629Y757684D01*
X6045739D01*
X6048091Y755332D01*
X6052795D01*
X6057498Y764739D01*
X6059850Y774146D01*
X6062201Y783553D01*
X6064553Y785905D01*
X6071609Y802368D01*
X6078664Y816478D01*
X6081016Y825886D01*
X6083368Y830589D01*
X6088071Y849403D01*
X6090423Y865866D01*
X6092775Y882328D01*
Y884680D01*
Y887032D01*
X6097478Y917605D01*
X6102182Y938771D01*
X6104534Y950530D01*
Y955234D01*
Y957586D01*
X6106885Y964641D01*
X6109237Y971696D01*
X6111589Y978752D01*
Y981103D01*
X6116293Y999918D01*
X6120996Y1016380D01*
Y1028139D01*
X6123348Y1039898D01*
Y1046953D01*
X6120996Y1051657D01*
Y1056361D01*
X6116293Y1068120D01*
X6111589Y1084582D01*
X6104534Y1098693D01*
X6102182Y1101045D01*
Y1103396D01*
X6088071Y1131618D01*
X6081016Y1155136D01*
X6076312Y1169246D01*
Y1171598D01*
Y1173950D01*
D02*
G37*
G36*
X5697675Y955234D02*
X5601251Y898791D01*
X5613010Y889384D01*
X5624769Y879976D01*
X5636528Y870569D01*
X5638880Y868217D01*
X5641232D01*
X5655343Y858810D01*
X5664750Y851755D01*
X5669453Y847051D01*
X5671805D01*
X5685916Y832941D01*
X5697675Y818830D01*
X5704730Y809423D01*
X5707082Y807071D01*
Y804719D01*
X5711785Y795312D01*
X5714137Y785905D01*
X5716489Y783553D01*
Y781201D01*
X5718841Y774146D01*
X5721193Y771794D01*
Y769442D01*
X5735303Y774146D01*
X5742359D01*
X5751766Y776498D01*
X5754118Y778850D01*
X5787043D01*
X5801153Y776498D01*
X5805857D01*
X5810560Y774146D01*
X5812912D01*
X5815264Y771794D01*
X5822320D01*
X5824671Y769442D01*
X5827023D01*
X5841134Y762387D01*
X5852893Y755332D01*
X5859948Y750628D01*
X5862300Y748276D01*
X5864652Y745925D01*
X5867004Y741221D01*
X5869061Y739163D01*
X5869355Y736517D01*
Y738869D01*
X5869061Y739163D01*
X5867004Y757684D01*
X5859948Y778850D01*
X5850541Y800016D01*
X5838782Y818830D01*
X5829375Y835292D01*
X5819968Y847051D01*
X5812912Y856459D01*
X5810560Y858810D01*
X5791746Y879976D01*
X5772932Y896439D01*
X5758821Y908198D01*
X5756469Y912901D01*
X5754118D01*
X5730600Y929364D01*
X5714137Y943475D01*
X5702378Y952882D01*
X5697675Y955234D01*
D02*
G37*
G36*
X5695323Y760035D02*
X5690620Y757684D01*
X5683564Y755332D01*
X5678861Y752980D01*
X5676509D01*
X5674157Y750628D01*
X5669453D01*
X5667102Y748276D01*
X5664750D01*
X5657695Y736517D01*
Y727110D01*
Y720055D01*
Y717703D01*
Y713000D01*
X5660046Y710648D01*
Y705944D01*
X5662398Y703592D01*
X5664750D01*
X5671805Y698889D01*
X5678861Y696537D01*
X5688268D01*
X5700027Y698889D01*
X5709434Y701241D01*
X5714137Y703592D01*
X5716489Y705944D01*
X5707082Y722407D01*
X5702378Y736517D01*
X5697675Y745925D01*
Y748276D01*
X5695323Y757684D01*
Y760035D01*
D02*
G37*
G36*
X5763525Y767091D02*
X5756470D01*
X5742359Y762387D01*
X5730600Y760035D01*
X5725896Y757684D01*
X5723545Y755332D01*
X5728248Y741221D01*
X5735303Y727110D01*
X5744711Y715351D01*
X5747062Y713000D01*
Y710648D01*
X5761173Y691834D01*
X5770580Y682426D01*
X5777636Y675371D01*
X5779987Y673019D01*
X5787043Y668316D01*
X5791746Y665964D01*
X5796450Y663612D01*
X5805857Y658909D01*
X5834079D01*
X5843486Y661260D01*
X5848189Y663612D01*
X5852893Y665964D01*
X5859948Y675371D01*
X5864652Y687130D01*
X5869355Y696537D01*
Y701241D01*
X5867004Y713000D01*
X5864652Y715351D01*
X5859948Y727110D01*
X5855245Y734166D01*
X5852893Y738869D01*
X5843486Y745925D01*
X5834079Y752980D01*
X5827023Y755332D01*
X5824671Y757684D01*
X5819968D01*
X5817616Y760035D01*
X5808209D01*
X5798802Y762387D01*
X5787043Y764739D01*
X5777636D01*
X5763525Y767091D01*
D02*
G37*
G36*
X6038684Y745925D02*
X6026925D01*
X6019870Y741221D01*
X6005759Y731814D01*
X5996352Y722407D01*
X5994000Y720055D01*
Y717703D01*
X5991648Y713000D01*
X5989296Y710648D01*
X5986945Y708296D01*
Y705944D01*
X5979889Y691834D01*
X5977537Y687130D01*
Y684778D01*
X5975186Y682427D01*
Y680075D01*
Y677723D01*
Y675371D01*
Y668316D01*
X5977537Y665964D01*
Y663612D01*
Y658909D01*
Y656557D01*
X5979889Y654205D01*
X5989296D01*
X6001055Y658909D01*
X6010462Y663612D01*
X6015166Y668316D01*
X6017518Y670668D01*
X6022221Y677723D01*
X6026925Y687130D01*
X6036332Y708296D01*
X6038684Y717703D01*
X6043387Y727111D01*
X6045739Y731814D01*
Y734166D01*
X6048091Y743573D01*
X6045739D01*
X6038684Y745925D01*
D02*
G37*
G36*
X6193902Y1239800D02*
X6102182Y1188061D01*
X6106885Y1164543D01*
X6113941Y1138673D01*
X6118644Y1129266D01*
X6123348Y1119859D01*
X6125700Y1115155D01*
Y1112803D01*
X6135107Y1091637D01*
X6142162Y1075175D01*
X6146866Y1065768D01*
Y1063416D01*
X6149218Y1051657D01*
Y1037546D01*
X6144514Y1009325D01*
X6142162Y995214D01*
X6139810Y983455D01*
X6137459Y976400D01*
Y974048D01*
X6135107Y964641D01*
X6132755Y955234D01*
X6130403Y952882D01*
Y950530D01*
Y948178D01*
X6125700Y929364D01*
X6123348Y908198D01*
X6120996Y898791D01*
X6118644Y891736D01*
Y887032D01*
Y884680D01*
X6116293Y868218D01*
X6113941Y854107D01*
Y844700D01*
X6111589Y835293D01*
X6106885Y823534D01*
Y821182D01*
X6102182Y807071D01*
X6097478Y792961D01*
X6092775Y778850D01*
X6090423Y776498D01*
Y774146D01*
X6085720Y762387D01*
X6081016Y755332D01*
X6076312Y743573D01*
X6073961Y738869D01*
Y736518D01*
Y734166D01*
X6071609Y731814D01*
Y729462D01*
Y727111D01*
X6064554Y708296D01*
X6057498Y691834D01*
X6052795Y680075D01*
X6045739Y670668D01*
X6043387Y663612D01*
X6038684Y658909D01*
X6036332Y654205D01*
X6022221Y640094D01*
X6005759Y633039D01*
X5996352Y628336D01*
X5982241D01*
X5972834Y630687D01*
X5965779Y633039D01*
X5963427D01*
X5946964Y642446D01*
X5942261Y644798D01*
X5939909Y647150D01*
X5930502Y656557D01*
X5923446Y665964D01*
X5914039Y684778D01*
X5909336Y701241D01*
Y703592D01*
Y705944D01*
Y715351D01*
X5911687Y729462D01*
X5916391Y757684D01*
X5918743Y771794D01*
X5923446Y783553D01*
X5925798Y790609D01*
Y792960D01*
X5916391Y788257D01*
X5914039Y785905D01*
X5911687Y783553D01*
X5899928Y776498D01*
X5895225Y771794D01*
X5892873Y769442D01*
X5895225Y755332D01*
X5897577Y743573D01*
Y734166D01*
Y731814D01*
Y729462D01*
Y727110D01*
Y724759D01*
X5895225Y705944D01*
X5892873Y691834D01*
X5888170Y677723D01*
X5883466Y665964D01*
X5878762Y658909D01*
X5874059Y651853D01*
X5869355Y649501D01*
Y647150D01*
X5859948Y640094D01*
X5848189Y635391D01*
X5838782Y633039D01*
X5808209D01*
X5791746Y637742D01*
X5787043Y640094D01*
X5784691D01*
X5775284Y644798D01*
X5768228Y647150D01*
X5765877Y651853D01*
X5763525D01*
X5751766Y661260D01*
X5742359Y673019D01*
X5735303Y682426D01*
X5732952Y684778D01*
X5718841Y675371D01*
X5704730Y670667D01*
X5695323Y668316D01*
X5690620D01*
X5671805Y670667D01*
X5657695Y675371D01*
X5648287Y682426D01*
X5645936Y684778D01*
X5643584Y687130D01*
X5641232Y689482D01*
X5636528Y694185D01*
X5634177Y698889D01*
X5631825Y705944D01*
Y708296D01*
Y710648D01*
X5629473Y722407D01*
Y734166D01*
X5631825Y741221D01*
Y743573D01*
X5620066D01*
X5598900Y745925D01*
X5584789Y752980D01*
X5575382Y757684D01*
X5573030Y760035D01*
X5570678Y767091D01*
X5568327Y769442D01*
X5565975Y781201D01*
X5563623Y790609D01*
X5561271Y797664D01*
Y800016D01*
X5563623Y811775D01*
X5565975Y823534D01*
X5570678Y830589D01*
X5573030Y832941D01*
X5575382Y835292D01*
X5587141Y847051D01*
X5596548Y856459D01*
X5601251Y858810D01*
X5603603Y861162D01*
X5594196Y870569D01*
X5584789Y877625D01*
X5580085Y882328D01*
X5577734Y884680D01*
X5020361Y562485D01*
X5036823Y553078D01*
X5043878Y548375D01*
X5053286D01*
X5057989Y546023D01*
X5074452D01*
Y543671D01*
X6424377Y543671D01*
X6438488Y546023D01*
X6452598Y548375D01*
X6473764Y557782D01*
X6487875Y564837D01*
X6490227Y569541D01*
X6492579D01*
X6499634Y578948D01*
X6501986Y581300D01*
X6506689Y588355D01*
X6509041Y593059D01*
X6511393D01*
X6520800Y616577D01*
X6523152Y637743D01*
Y647150D01*
X6520800Y654205D01*
Y658909D01*
Y661261D01*
X6518448Y673019D01*
X6516096Y675371D01*
X6513745Y684778D01*
X6511393Y687130D01*
Y689482D01*
Y691834D01*
X6193902Y1239800D01*
D02*
G37*
G36*
X5274353Y1181005D02*
X5272001D01*
X4992139Y694185D01*
Y691834D01*
X4985084Y677723D01*
X4980380Y665964D01*
X4978028Y656557D01*
Y651853D01*
Y644798D01*
Y642446D01*
Y633039D01*
Y628335D01*
X5488366Y924660D01*
X5471903Y934067D01*
X5453089Y945826D01*
X5420164Y969344D01*
X5408405Y981103D01*
X5396646Y990510D01*
X5389591Y997566D01*
X5387239Y999917D01*
X5375480Y1014028D01*
X5370776Y1018732D01*
X5368425Y1021084D01*
X5359017Y1032842D01*
X5354314Y1037546D01*
Y1039898D01*
X5344907Y1054009D01*
X5337851Y1070471D01*
X5333148Y1084582D01*
X5330796Y1086934D01*
Y1089285D01*
X5323741Y1110451D01*
X5316685Y1124562D01*
X5314334Y1131617D01*
X5311982Y1133969D01*
X5302575Y1150432D01*
X5293167Y1159839D01*
X5288464Y1166894D01*
X5286112Y1169246D01*
X5276705Y1176301D01*
X5274353Y1181005D01*
D02*
G37*
G36*
X1003086Y2587559D02*
X998382D01*
X986623Y2585207D01*
X970161Y2582856D01*
X951346Y2573448D01*
X948995Y2571097D01*
X946643Y2568745D01*
X944291D01*
X941939Y2566393D01*
X934884Y2559338D01*
X925477Y2549931D01*
X916070Y2535820D01*
X241107Y1369334D01*
Y1366982D01*
Y1364630D01*
X238755Y1362278D01*
X236404Y1352871D01*
X234052Y1350520D01*
X231700Y1338761D01*
Y1336409D01*
Y1331705D01*
X229348Y1324650D01*
Y1315243D01*
X231700Y1294077D01*
X241107Y1270559D01*
X243459D01*
X245811Y1265855D01*
X250514Y1258800D01*
X252866Y1256448D01*
X259922Y1247041D01*
X262273D01*
X264625Y1242337D01*
X278736Y1235282D01*
X299902Y1225875D01*
X314013Y1223523D01*
X328123Y1221171D01*
X1678048Y1221172D01*
Y1223523D01*
X1694511D01*
X1699215Y1225875D01*
X1708622D01*
X1713325Y1228227D01*
X1727436Y1235282D01*
X1743898Y1249393D01*
X1762713Y1270559D01*
X1765065Y1275263D01*
X1769768Y1284670D01*
X1772120Y1301132D01*
X1774472Y1319947D01*
Y1322298D01*
Y1329354D01*
Y1334057D01*
X1772120Y1343464D01*
X1767416Y1355223D01*
X1760361Y1369334D01*
Y1371686D01*
X1087750Y2538172D01*
X1085398D01*
X1083046Y2540523D01*
X1078343Y2549931D01*
Y2552282D01*
X1073639Y2554634D01*
X1068936Y2559338D01*
X1066584Y2561690D01*
X1064232Y2564041D01*
X1050121Y2573448D01*
X1028955Y2580504D01*
X1017196Y2585207D01*
X1003086D01*
Y2587559D01*
D02*
G37*
%LPD*%
G36*
X1158303Y2199515D02*
X1177118Y2175997D01*
X1174766Y2173645D01*
X1167711Y2168941D01*
X1158303Y2161886D01*
X1146545Y2150127D01*
X1144193Y2147775D01*
X1139489Y2140720D01*
X1130082Y2128961D01*
X1120675Y2114850D01*
X1118323Y2110147D01*
X1111268Y2096036D01*
X1101861Y2074870D01*
X1092453Y2049000D01*
X1085398Y2016075D01*
X1083046Y1980798D01*
X1090102Y1940818D01*
X1094805Y1922004D01*
X1104212Y1900838D01*
X1106564Y1898486D01*
X1111268Y1889079D01*
X1120675Y1874968D01*
X1134786Y1853802D01*
X1137137Y1849098D01*
X1146545Y1837339D01*
X1155952Y1820877D01*
X1167711Y1802063D01*
X1170062Y1797359D01*
X1177118Y1783248D01*
X1181821Y1762082D01*
X1186525Y1731509D01*
Y1729157D01*
Y1724454D01*
Y1707991D01*
Y1705639D01*
Y1698584D01*
Y1689177D01*
X1184173Y1682122D01*
Y1677418D01*
X1181821Y1668011D01*
X1177118Y1651548D01*
X1172414Y1632734D01*
X1163007Y1613920D01*
X1151248Y1595106D01*
X1137137Y1580995D01*
X1118323Y1571588D01*
X1101861Y1620975D01*
X1106564Y1623327D01*
X1108916Y1625679D01*
X1113620Y1632734D01*
X1118323Y1639789D01*
X1125378Y1653900D01*
X1130082Y1668011D01*
X1134786Y1689177D01*
Y1691529D01*
Y1696232D01*
Y1703288D01*
Y1707991D01*
Y1710343D01*
Y1715047D01*
Y1722102D01*
Y1726806D01*
Y1729157D01*
X1132434Y1733861D01*
Y1743268D01*
X1127730Y1755027D01*
X1123027Y1769138D01*
X1115971Y1785600D01*
X1104212Y1802063D01*
X1092453Y1820877D01*
Y1823229D01*
X1087750Y1825581D01*
X1078343Y1839691D01*
X1066584Y1858506D01*
X1057177Y1877320D01*
X1054825Y1879672D01*
X1052473Y1889079D01*
X1045418Y1903189D01*
X1040714Y1922004D01*
X1036011Y1943170D01*
X1031307Y1966688D01*
X1028955Y1992557D01*
X1031307Y2018427D01*
Y2020779D01*
X1033659Y2030186D01*
X1036011Y2044297D01*
X1040714Y2060759D01*
X1047770Y2079573D01*
X1054825Y2100740D01*
X1066584Y2124257D01*
X1078343Y2145423D01*
X1080695Y2150127D01*
X1087750Y2159534D01*
X1097157Y2171293D01*
X1108916Y2185404D01*
X1111268Y2187756D01*
X1120675Y2194811D01*
X1132434Y2206570D01*
X1146545Y2218329D01*
X1158303Y2199515D01*
D02*
G37*
G36*
X1028955D02*
X1045418Y2175997D01*
X1043066Y2173645D01*
X1036011Y2168941D01*
X1026603Y2159534D01*
X1014845Y2150127D01*
X1012493Y2147775D01*
X1007789Y2140720D01*
X1000734Y2128961D01*
X991327Y2114850D01*
X988975Y2110147D01*
X981920Y2096036D01*
X972512Y2074870D01*
X963105Y2049000D01*
X956050Y2016075D01*
X953698Y1980798D01*
X960753Y1940818D01*
X965457Y1922004D01*
X974864Y1900838D01*
X977216Y1898486D01*
X981920Y1889079D01*
X991327Y1872616D01*
X1005437Y1853802D01*
X1007789Y1849098D01*
X1014845Y1837339D01*
X1024252Y1820877D01*
X1036011Y1802063D01*
X1038362Y1797359D01*
X1045418Y1783248D01*
X1052473Y1762082D01*
X1057177Y1731509D01*
Y1729157D01*
Y1726806D01*
Y1719750D01*
Y1707991D01*
Y1705639D01*
Y1698584D01*
X1054825Y1689177D01*
Y1682122D01*
Y1677418D01*
X1052473Y1668011D01*
X1047770Y1651548D01*
X1040714Y1632734D01*
X1031307Y1613920D01*
X1019548Y1595106D01*
X1005437Y1580995D01*
X986623Y1571588D01*
X970161Y1620975D01*
X974864Y1623327D01*
X977216Y1625679D01*
X984271Y1632734D01*
X988975Y1639789D01*
X993678Y1653900D01*
X998382Y1668011D01*
X1003086Y1689177D01*
Y1691529D01*
Y1696232D01*
Y1707991D01*
Y1710343D01*
Y1715047D01*
Y1726806D01*
Y1729157D01*
Y1733861D01*
X1000734Y1743268D01*
X998382Y1755027D01*
X991327Y1769138D01*
X984271Y1785600D01*
X974864Y1802063D01*
X963105Y1820877D01*
Y1823229D01*
X958402Y1827932D01*
X948995Y1842043D01*
X937236Y1860857D01*
X927828Y1877320D01*
X925477Y1879672D01*
X923125Y1889079D01*
X916070Y1903189D01*
X911366Y1922004D01*
X904311Y1943170D01*
X899607Y1966688D01*
X897255Y1992557D01*
X899607Y2018427D01*
Y2020779D01*
X901959Y2030186D01*
X904311Y2044297D01*
X909014Y2060759D01*
X916070Y2079573D01*
X925477Y2100740D01*
X946643Y2145423D01*
X948995Y2150127D01*
X956050Y2159534D01*
X965457Y2171293D01*
X977216Y2185404D01*
X979568Y2187756D01*
X988975Y2197163D01*
X1000734Y2206570D01*
X1014845Y2218329D01*
X1028955Y2199515D01*
D02*
G37*
G36*
X897255D02*
X916070Y2175997D01*
X913718D01*
X911366Y2173645D01*
X904311Y2168941D01*
X894903Y2159534D01*
X885496Y2150127D01*
X883145Y2147775D01*
X876089Y2140720D01*
X869034Y2128961D01*
X859627Y2114850D01*
X857275Y2110147D01*
X850220Y2096036D01*
X840812Y2074870D01*
X831405Y2049000D01*
X824350Y2016075D01*
X821998Y1980798D01*
X829053Y1940818D01*
X833757Y1922004D01*
X843164Y1900838D01*
X845516Y1898486D01*
X850220Y1889079D01*
X859627Y1874968D01*
X873737Y1853802D01*
X876089Y1849098D01*
X883145Y1837339D01*
X892552Y1820877D01*
X904311Y1802063D01*
X906662Y1797359D01*
X913718Y1783248D01*
X920773Y1762082D01*
X925477Y1731509D01*
Y1729157D01*
Y1722102D01*
Y1715047D01*
Y1707991D01*
Y1705639D01*
Y1698584D01*
Y1689177D01*
X923125Y1682122D01*
Y1677418D01*
X920773Y1668011D01*
X916070Y1651548D01*
X909014Y1632734D01*
X899607Y1613920D01*
X887848Y1595106D01*
X873737Y1580995D01*
X854923Y1571588D01*
X838461Y1620975D01*
X843164Y1623327D01*
X845516Y1625679D01*
X852571Y1632734D01*
X857275Y1639789D01*
X861978Y1653900D01*
X866682Y1668011D01*
X871386Y1689177D01*
Y1691529D01*
X873737Y1696232D01*
Y1707991D01*
Y1710343D01*
Y1712695D01*
Y1726806D01*
Y1729157D01*
X871386Y1733861D01*
Y1743268D01*
X866682Y1755027D01*
X861978Y1769138D01*
X854923Y1785600D01*
X843164Y1802063D01*
X831405Y1820877D01*
Y1823229D01*
X826702Y1825581D01*
X817295Y1839691D01*
X805536Y1858505D01*
X796128Y1877320D01*
X793777Y1879671D01*
X791425Y1889079D01*
X784370Y1903189D01*
X779666Y1922004D01*
X774962Y1943170D01*
X770259Y1966687D01*
X767907Y1992557D01*
X770259Y2018427D01*
Y2020779D01*
X772611Y2030186D01*
X774962Y2044296D01*
X779666Y2060759D01*
X784370Y2079573D01*
X793777Y2100739D01*
X803184Y2124257D01*
X814943Y2145423D01*
X817295Y2150127D01*
X824350Y2159534D01*
X833757Y2171293D01*
X845516Y2185404D01*
X850220Y2190107D01*
X857275Y2197163D01*
X871386Y2208922D01*
X883145Y2218329D01*
X897255Y2199515D01*
D02*
G37*
G36*
X1395834Y1444591D02*
X607986Y1444591D01*
X607986Y1510441D01*
X1395834Y1510441D01*
X1395834Y1444591D01*
D02*
G37*
D54*
X740116Y4432493D02*
Y4632492D01*
X1080120Y4432493D02*
Y4632492D01*
X3952500Y3677500D02*
X4092500D01*
X1147252Y4447608D02*
Y4617392D01*
X1507668Y4447608D02*
Y4617392D01*
X1577292Y4447608D02*
Y4617392D01*
X1937708Y4447608D02*
Y4617392D01*
X2007332Y4447608D02*
Y4617392D01*
X2367748Y4447608D02*
Y4617392D01*
X3947500Y2982500D02*
X4087500D01*
%TF.MD5,bc27ed6fbbf1a75082a4b35990db6bab*%
M02*
