%TF.GenerationSoftware,Altium Limited,Altium Designer,22.9.1 (49)*%
G04 Layer_Physical_Order=3*
G04 Layer_Color=16440176*
%FSLAX45Y45*%
%MOMM*%
%TF.SameCoordinates,C6D2A98E-D71B-44EB-B230-12E80A119C5B*%
%TF.FilePolarity,Positive*%
%TF.FileFunction,Copper,L3,Inr,Signal*%
%TF.Part,Single*%
G01*
G75*
%TA.AperFunction,ComponentPad*%
%ADD43C,1.30000*%
%ADD44C,1.90500*%
%ADD45C,2.00660*%
%ADD46C,0.60000*%
%ADD47R,1.30000X1.30000*%
%ADD48C,6.00000*%
%ADD49R,1.30000X1.30000*%
%ADD50C,2.50000*%
%TA.AperFunction,ViaPad*%
%ADD51C,0.60000*%
G36*
X6060000Y3537865D02*
X7052500D01*
Y2484441D01*
X6680612D01*
X6675352Y2497141D01*
X6682388Y2504177D01*
X6690000Y2522555D01*
Y2542446D01*
X6682388Y2560823D01*
X6668323Y2574888D01*
X6649946Y2582500D01*
X6630054D01*
X6611677Y2574888D01*
X6597612Y2560823D01*
X6590000Y2542446D01*
Y2522555D01*
X6597612Y2504177D01*
X6604648Y2497141D01*
X6599388Y2484441D01*
X6468113D01*
X6462852Y2497141D01*
X6472388Y2506677D01*
X6480000Y2525054D01*
Y2544946D01*
X6472388Y2563323D01*
X6458323Y2577388D01*
X6439946Y2585000D01*
X6420054D01*
X6401677Y2577388D01*
X6387612Y2563323D01*
X6380000Y2544946D01*
Y2525054D01*
X6387612Y2506677D01*
X6397148Y2497141D01*
X6391888Y2484441D01*
X6274706D01*
X6068237Y2578034D01*
X6072531Y2590031D01*
X6076863Y2588871D01*
X6091310Y2585000D01*
X6113691D01*
X6135309Y2590793D01*
X6154691Y2601983D01*
X6170517Y2617809D01*
X6181707Y2637191D01*
X6187500Y2658810D01*
Y2681190D01*
X6181707Y2702809D01*
X6170517Y2722191D01*
X6154691Y2738017D01*
X6135309Y2749207D01*
X6113691Y2755000D01*
X6091310D01*
X6069691Y2749207D01*
X6050309Y2738017D01*
X6034483Y2722191D01*
X6023293Y2702809D01*
X6017500Y2681190D01*
Y2658810D01*
X6023293Y2637191D01*
X6034483Y2617809D01*
X6050309Y2601983D01*
X6061612Y2595457D01*
X6065448Y2593242D01*
X6059638Y2581932D01*
X5100000Y3016941D01*
X5057500Y3059441D01*
Y3464219D01*
X5130886Y3537866D01*
X6060000Y3537865D01*
D02*
G37*
G36*
X7492500Y3835000D02*
X7457500Y3800000D01*
X4772500D01*
X4655000Y3682500D01*
X4587500Y3616184D01*
Y3021648D01*
X5917500Y2460000D01*
Y1525000D01*
Y940000D01*
X4567500D01*
Y2262500D01*
X4382283Y2707500D01*
X3860000D01*
X3615000Y2992500D01*
Y3185000D01*
X3522500Y3217500D01*
X3524947Y3381465D01*
X3527500Y3382500D01*
X3685000D01*
X3942500Y3385000D01*
X3945964Y3429036D01*
X3945000Y3430000D01*
Y3675000D01*
X4510000Y4240000D01*
X5690000D01*
X5952500Y4502500D01*
X7492500D01*
Y3835000D01*
D02*
G37*
G36*
X3870000Y6226058D02*
X3869999Y5735000D01*
X3475000Y3380000D01*
Y3210000D01*
X3570000Y3080897D01*
Y2755000D01*
X3697500D01*
X3822500Y2630000D01*
X4127500D01*
Y232500D01*
X2280000D01*
Y1622533D01*
X2497500Y3077500D01*
X2655000D01*
X3044260Y6752500D01*
X3869999D01*
X3870000Y6226058D01*
D02*
G37*
%LPC*%
G36*
X5589946Y3485000D02*
X5570054D01*
X5551677Y3477388D01*
X5537612Y3463323D01*
X5530000Y3444946D01*
Y3425054D01*
X5537612Y3406677D01*
X5551677Y3392612D01*
X5570054Y3385000D01*
X5589946D01*
X5608323Y3392612D01*
X5622388Y3406677D01*
X5630000Y3425054D01*
Y3444946D01*
X5622388Y3463323D01*
X5608323Y3477388D01*
X5589946Y3485000D01*
D02*
G37*
G36*
X6908691Y3482500D02*
X6886310D01*
X6864691Y3476707D01*
X6845309Y3465517D01*
X6829483Y3449691D01*
X6818293Y3430309D01*
X6812500Y3408690D01*
Y3386309D01*
X6818293Y3364691D01*
X6829483Y3345309D01*
X6845309Y3329483D01*
X6864691Y3318293D01*
X6886310Y3312500D01*
X6908691D01*
X6930309Y3318293D01*
X6949691Y3329483D01*
X6965517Y3345309D01*
X6976707Y3364691D01*
X6982500Y3386309D01*
Y3408690D01*
X6976707Y3430309D01*
X6965517Y3449691D01*
X6949691Y3465517D01*
X6930309Y3476707D01*
X6908691Y3482500D01*
D02*
G37*
G36*
X6982500Y3228500D02*
X6812500D01*
Y3058500D01*
X6982500D01*
Y3228500D01*
D02*
G37*
G36*
X5639946Y2909999D02*
X5620054D01*
X5601677Y2902387D01*
X5587612Y2888322D01*
X5580000Y2869945D01*
Y2850054D01*
X5587612Y2831677D01*
X5601677Y2817611D01*
X5620054Y2809999D01*
X5639946D01*
X5658323Y2817611D01*
X5672388Y2831677D01*
X5680000Y2850054D01*
Y2869945D01*
X5672388Y2888322D01*
X5658323Y2902387D01*
X5639946Y2909999D01*
D02*
G37*
G36*
X5799320Y2851874D02*
X5779429D01*
X5761052Y2844263D01*
X5746987Y2830197D01*
X5739375Y2811820D01*
Y2791929D01*
X5746987Y2773552D01*
X5761052Y2759486D01*
X5779429Y2751875D01*
X5799320D01*
X5817698Y2759486D01*
X5831763Y2773552D01*
X5839375Y2791929D01*
Y2811820D01*
X5831763Y2830197D01*
X5817698Y2844263D01*
X5799320Y2851874D01*
D02*
G37*
G36*
X5958695Y2793750D02*
X5938804D01*
X5920427Y2786138D01*
X5906362Y2772072D01*
X5898750Y2753695D01*
Y2733804D01*
X5906362Y2715427D01*
X5920427Y2701362D01*
X5938804Y2693750D01*
X5958695D01*
X5977072Y2701362D01*
X5991138Y2715427D01*
X5998749Y2733804D01*
Y2753695D01*
X5991138Y2772072D01*
X5977072Y2786138D01*
X5958695Y2793750D01*
D02*
G37*
G36*
X6277446Y2677500D02*
X6257554D01*
X6239177Y2669888D01*
X6225112Y2655823D01*
X6217500Y2637446D01*
Y2617554D01*
X6225112Y2599177D01*
X6239177Y2585112D01*
X6257554Y2577500D01*
X6277446D01*
X6295823Y2585112D01*
X6309888Y2599177D01*
X6317500Y2617554D01*
Y2637446D01*
X6309888Y2655823D01*
X6295823Y2669888D01*
X6277446Y2677500D01*
D02*
G37*
G36*
X6908691Y2680000D02*
X6886310D01*
X6864691Y2674207D01*
X6845309Y2663017D01*
X6829483Y2647191D01*
X6818293Y2627809D01*
X6812500Y2606190D01*
Y2583809D01*
X6818293Y2562191D01*
X6829483Y2542809D01*
X6845309Y2526983D01*
X6864691Y2515793D01*
X6886310Y2510000D01*
X6908691D01*
X6930309Y2515793D01*
X6949691Y2526983D01*
X6965517Y2542809D01*
X6976707Y2562191D01*
X6982500Y2583809D01*
Y2606190D01*
X6976707Y2627809D01*
X6965517Y2647191D01*
X6949691Y2663017D01*
X6930309Y2674207D01*
X6908691Y2680000D01*
D02*
G37*
G36*
X7390771Y4241241D02*
X7368581Y4238319D01*
X7347904Y4229755D01*
X7330148Y4216130D01*
X7316523Y4198374D01*
X7307958Y4177697D01*
X7305037Y4155507D01*
X7307958Y4133318D01*
X7316523Y4112641D01*
X7330148Y4094885D01*
X7347904Y4081260D01*
X7368581Y4072695D01*
X7390771Y4069774D01*
X7412960Y4072695D01*
X7433637Y4081260D01*
X7451393Y4094885D01*
X7465018Y4112641D01*
X7473583Y4133318D01*
X7476504Y4155507D01*
X7473583Y4177697D01*
X7465018Y4198374D01*
X7451393Y4216130D01*
X7433637Y4229755D01*
X7412960Y4238319D01*
X7390771Y4241241D01*
D02*
G37*
G36*
X4497500Y3805733D02*
X4475311Y3802812D01*
X4454633Y3794247D01*
X4436877Y3780623D01*
X4423253Y3762867D01*
X4414688Y3742189D01*
X4411767Y3720000D01*
X4414688Y3697810D01*
X4423253Y3677133D01*
X4436877Y3659377D01*
X4454633Y3645753D01*
X4475311Y3637188D01*
X4497500Y3634267D01*
X4519689Y3637188D01*
X4540367Y3645753D01*
X4558123Y3659377D01*
X4571747Y3677133D01*
X4580312Y3697810D01*
X4583233Y3720000D01*
X4580312Y3742189D01*
X4571747Y3762867D01*
X4558123Y3780623D01*
X4540367Y3794247D01*
X4519689Y3802812D01*
X4497500Y3805733D01*
D02*
G37*
G36*
X3832500Y3133480D02*
X3812991Y3129599D01*
X3796452Y3118548D01*
X3785401Y3102009D01*
X3781521Y3082500D01*
X3785401Y3062991D01*
X3796452Y3046452D01*
X3812991Y3035401D01*
X3832500Y3031520D01*
X3852009Y3035401D01*
X3868548Y3046452D01*
X3879599Y3062991D01*
X3883480Y3082500D01*
X3879599Y3102009D01*
X3868548Y3118548D01*
X3852009Y3129599D01*
X3832500Y3133480D01*
D02*
G37*
G36*
X4760000Y2905733D02*
X4737810Y2902812D01*
X4717133Y2894247D01*
X4699377Y2880623D01*
X4685753Y2862867D01*
X4677188Y2842189D01*
X4674266Y2820000D01*
X4677188Y2797811D01*
X4685753Y2777133D01*
X4699377Y2759377D01*
X4717133Y2745753D01*
X4737810Y2737188D01*
X4760000Y2734267D01*
X4782189Y2737188D01*
X4802866Y2745753D01*
X4820623Y2759377D01*
X4834247Y2777133D01*
X4842812Y2797811D01*
X4845733Y2820000D01*
X4842812Y2842189D01*
X4834247Y2862867D01*
X4820623Y2880623D01*
X4802866Y2894247D01*
X4782189Y2902812D01*
X4760000Y2905733D01*
D02*
G37*
G36*
X4957500Y1128233D02*
X4935311Y1125312D01*
X4914633Y1116747D01*
X4896877Y1103123D01*
X4883253Y1085367D01*
X4874688Y1064690D01*
X4871767Y1042500D01*
X4874688Y1020311D01*
X4883253Y999633D01*
X4896877Y981877D01*
X4914633Y968253D01*
X4935311Y959688D01*
X4957500Y956767D01*
X4979690Y959688D01*
X5000367Y968253D01*
X5018123Y981877D01*
X5031747Y999633D01*
X5040312Y1020311D01*
X5043233Y1042500D01*
X5040312Y1064690D01*
X5031747Y1085367D01*
X5018123Y1103123D01*
X5000367Y1116747D01*
X4979690Y1125312D01*
X4957500Y1128233D01*
D02*
G37*
G36*
X3312500Y2795979D02*
X3292991Y2792099D01*
X3276452Y2781048D01*
X3265401Y2764509D01*
X3261521Y2745000D01*
X3265401Y2725491D01*
X3276452Y2708952D01*
X3292991Y2697901D01*
X3312500Y2694020D01*
X3332009Y2697901D01*
X3348548Y2708952D01*
X3359599Y2725491D01*
X3363480Y2745000D01*
X3359599Y2764509D01*
X3348548Y2781048D01*
X3332009Y2792099D01*
X3312500Y2795979D01*
D02*
G37*
G36*
X3687500Y2713480D02*
X3667991Y2709599D01*
X3651452Y2698548D01*
X3640401Y2682009D01*
X3636521Y2662500D01*
X3640401Y2642991D01*
X3651452Y2626452D01*
X3667991Y2615401D01*
X3687500Y2611521D01*
X3707009Y2615401D01*
X3723548Y2626452D01*
X3734599Y2642991D01*
X3738480Y2662500D01*
X3734599Y2682009D01*
X3723548Y2698548D01*
X3707009Y2709599D01*
X3687500Y2713480D01*
D02*
G37*
G36*
X3540000D02*
X3520491Y2709599D01*
X3503952Y2698548D01*
X3492901Y2682009D01*
X3489020Y2662500D01*
X3492901Y2642991D01*
X3503952Y2626452D01*
X3520491Y2615401D01*
X3540000Y2611521D01*
X3559509Y2615401D01*
X3576048Y2626452D01*
X3587099Y2642991D01*
X3590980Y2662500D01*
X3587099Y2682009D01*
X3576048Y2698548D01*
X3559509Y2709599D01*
X3540000Y2713480D01*
D02*
G37*
G36*
X3715000Y2576813D02*
X3695491Y2572932D01*
X3678952Y2561881D01*
X3667901Y2545342D01*
X3664020Y2525833D01*
X3667901Y2506324D01*
X3678952Y2489785D01*
X3695491Y2478734D01*
X3715000Y2474854D01*
X3734509Y2478734D01*
X3751048Y2489785D01*
X3762099Y2506324D01*
X3765980Y2525833D01*
X3762099Y2545342D01*
X3751048Y2561881D01*
X3734509Y2572932D01*
X3715000Y2576813D01*
D02*
G37*
G36*
X3570000D02*
X3550491Y2572932D01*
X3533952Y2561881D01*
X3522901Y2545342D01*
X3519020Y2525833D01*
X3522901Y2506324D01*
X3533952Y2489785D01*
X3550491Y2478734D01*
X3570000Y2474854D01*
X3589509Y2478734D01*
X3606048Y2489785D01*
X3617099Y2506324D01*
X3620980Y2525833D01*
X3617099Y2545342D01*
X3606048Y2561881D01*
X3589509Y2572932D01*
X3570000Y2576813D01*
D02*
G37*
G36*
Y2440146D02*
X3550491Y2436266D01*
X3533952Y2425215D01*
X3522901Y2408676D01*
X3519020Y2389167D01*
X3522901Y2369658D01*
X3533952Y2353119D01*
X3550491Y2342068D01*
X3570000Y2338187D01*
X3589509Y2342068D01*
X3606048Y2353119D01*
X3617099Y2369658D01*
X3620980Y2389167D01*
X3617099Y2408676D01*
X3606048Y2425215D01*
X3589509Y2436266D01*
X3570000Y2440146D01*
D02*
G37*
G36*
X3265000Y2488480D02*
X3245491Y2484599D01*
X3228952Y2473548D01*
X3217901Y2457009D01*
X3214020Y2437500D01*
X3216582Y2424622D01*
X3207675Y2413695D01*
X3206860Y2413352D01*
X3187991Y2409599D01*
X3171452Y2398548D01*
X3160401Y2382009D01*
X3156520Y2362500D01*
X3160401Y2342991D01*
X3171452Y2326452D01*
X3187991Y2315401D01*
X3207500Y2311520D01*
X3227009Y2315401D01*
X3243548Y2326452D01*
X3254599Y2342991D01*
X3258480Y2362500D01*
X3255918Y2375378D01*
X3264825Y2386305D01*
X3265640Y2386648D01*
X3284509Y2390401D01*
X3301048Y2401452D01*
X3312099Y2417991D01*
X3315980Y2437500D01*
X3312099Y2457009D01*
X3301048Y2473548D01*
X3284509Y2484599D01*
X3265000Y2488480D01*
D02*
G37*
G36*
X3030000Y2485980D02*
X3010491Y2482099D01*
X2993952Y2471048D01*
X2982901Y2454509D01*
X2979020Y2435000D01*
X2982901Y2415491D01*
X2993952Y2398952D01*
X3010491Y2387901D01*
X3026477Y2384721D01*
X3030078Y2383866D01*
X3035961Y2372257D01*
X3034020Y2362500D01*
X3037901Y2342991D01*
X3048952Y2326452D01*
X3065491Y2315401D01*
X3085000Y2311520D01*
X3104509Y2315401D01*
X3121048Y2326452D01*
X3132099Y2342991D01*
X3135980Y2362500D01*
X3132099Y2382009D01*
X3121048Y2398548D01*
X3104509Y2409599D01*
X3088523Y2412779D01*
X3084922Y2413634D01*
X3079039Y2425243D01*
X3080980Y2435000D01*
X3077099Y2454509D01*
X3066048Y2471048D01*
X3049509Y2482099D01*
X3030000Y2485980D01*
D02*
G37*
G36*
X3567500Y2303480D02*
X3547991Y2299599D01*
X3531452Y2288548D01*
X3520401Y2272009D01*
X3516521Y2252500D01*
X3520401Y2232991D01*
X3531452Y2216452D01*
X3547991Y2205401D01*
X3567500Y2201520D01*
X3587009Y2205401D01*
X3603548Y2216452D01*
X3614599Y2232991D01*
X3618480Y2252500D01*
X3614599Y2272009D01*
X3603548Y2288548D01*
X3587009Y2299599D01*
X3567500Y2303480D01*
D02*
G37*
G36*
X3592500Y1513868D02*
X3561087Y1509733D01*
X3531816Y1497608D01*
X3506680Y1478320D01*
X3487392Y1453184D01*
X3475267Y1423912D01*
X3471131Y1392500D01*
X3475267Y1361087D01*
X3487392Y1331816D01*
X3506680Y1306680D01*
X3531816Y1287392D01*
X3561087Y1275267D01*
X3592500Y1271132D01*
X3623912Y1275267D01*
X3653184Y1287392D01*
X3678320Y1306680D01*
X3697608Y1331816D01*
X3709732Y1361087D01*
X3713868Y1392500D01*
X3709732Y1423912D01*
X3697608Y1453184D01*
X3678320Y1478320D01*
X3653184Y1497608D01*
X3623912Y1509733D01*
X3592500Y1513868D01*
D02*
G37*
G36*
X2705000D02*
X2673587Y1509733D01*
X2644316Y1497608D01*
X2619179Y1478320D01*
X2599892Y1453184D01*
X2587767Y1423912D01*
X2583631Y1392500D01*
X2587767Y1361087D01*
X2599892Y1331816D01*
X2619179Y1306680D01*
X2644316Y1287392D01*
X2673587Y1275267D01*
X2705000Y1271132D01*
X2736412Y1275267D01*
X2765684Y1287392D01*
X2790820Y1306680D01*
X2810108Y1331816D01*
X2822232Y1361087D01*
X2826368Y1392500D01*
X2822232Y1423912D01*
X2810108Y1453184D01*
X2790820Y1478320D01*
X2765684Y1497608D01*
X2736412Y1509733D01*
X2705000Y1513868D01*
D02*
G37*
%LPD*%
D43*
X4497500Y3720000D02*
D03*
X6102500Y2670000D02*
D03*
X4037500Y777500D02*
D03*
X6897500Y3397500D02*
D03*
X7390771Y4155507D02*
D03*
X6897500Y2595000D02*
D03*
Y2841380D02*
D03*
X4240000Y337500D02*
D03*
X3972500D02*
D03*
X4957500Y1042500D02*
D03*
X4727500D02*
D03*
X7390771Y3926907D02*
D03*
X6237500Y3460000D02*
D03*
X5975000Y3010000D02*
D03*
X4760000Y2820000D02*
D03*
X7080000Y4385000D02*
D03*
D44*
X3847770Y1137230D02*
D03*
X3337230D02*
D03*
Y1647770D02*
D03*
X3847770D02*
D03*
X2960270Y1137230D02*
D03*
X2449730D02*
D03*
X2960270Y1647770D02*
D03*
X2449730D02*
D03*
D45*
X3592500Y1392500D02*
D03*
X2705000D02*
D03*
D46*
X3195300Y2562700D02*
D03*
Y2664300D02*
D03*
X3093700Y2562700D02*
D03*
Y2664300D02*
D03*
D47*
X4237500Y777500D02*
D03*
D48*
X457500Y762500D02*
D03*
Y6642500D02*
D03*
X7377500D02*
D03*
Y762500D02*
D03*
D49*
X6897500Y3143500D02*
D03*
D50*
X1322500Y5210000D02*
D03*
Y5845000D02*
D03*
Y3837500D02*
D03*
Y3202500D02*
D03*
D51*
X1503214Y5530000D02*
D03*
X1354642D02*
D03*
X1577499Y5645000D02*
D03*
X1206071Y5530000D02*
D03*
X1651785D02*
D03*
X1447499Y5645000D02*
D03*
X1317500D02*
D03*
X1187500D02*
D03*
X1971427Y5290000D02*
D03*
X1525714D02*
D03*
X1599999Y5405000D02*
D03*
X1822856Y5290000D02*
D03*
X1674285D02*
D03*
X1110000Y5332500D02*
D03*
X1859999Y5405000D02*
D03*
X1729999D02*
D03*
X1469999D02*
D03*
X1340000D02*
D03*
X1210000D02*
D03*
X1127500Y3582501D02*
D03*
X1037500Y4045000D02*
D03*
X1127500Y3712501D02*
D03*
Y3842501D02*
D03*
Y3972500D02*
D03*
Y4102500D02*
D03*
X1411071Y3412500D02*
D03*
X1262500D02*
D03*
X1522499Y3527500D02*
D03*
X1392500D02*
D03*
X1262500D02*
D03*
X1710714Y3652500D02*
D03*
X1562142D02*
D03*
X1784999Y3767500D02*
D03*
X1413571Y3652500D02*
D03*
X1265000D02*
D03*
X1654999Y3767500D02*
D03*
X1524999D02*
D03*
X3712500Y3049999D02*
D03*
X3877500Y2970000D02*
D03*
X3640000Y3010000D02*
D03*
X3673400Y3337500D02*
D03*
Y3260000D02*
D03*
X3642500Y3090000D02*
D03*
X3765750Y2988000D02*
D03*
X3686500Y2956000D02*
D03*
X3819000Y2926000D02*
D03*
X3733000Y2902000D02*
D03*
X3779499Y2848000D02*
D03*
X3992500Y2850000D02*
D03*
X3872250Y2864000D02*
D03*
X3825999Y2794000D02*
D03*
X4038750Y2795000D02*
D03*
X3925499Y2802000D02*
D03*
X3832500Y3082500D02*
D03*
X3978749Y2740000D02*
D03*
X4084999D02*
D03*
X2735000Y2880000D02*
D03*
X2727500Y2997500D02*
D03*
X3872499Y2740000D02*
D03*
X3645000Y3192500D02*
D03*
X2922500Y1815000D02*
D03*
X2257500Y4122500D02*
D03*
X3787499Y6645000D02*
D03*
X3706666D02*
D03*
X3625833D02*
D03*
X3545000D02*
D03*
X3464166D02*
D03*
X3383333D02*
D03*
X3302500D02*
D03*
X3221667D02*
D03*
X3140833D02*
D03*
X3828332Y6712500D02*
D03*
X3747499D02*
D03*
X3666666D02*
D03*
X3585833D02*
D03*
X3505000D02*
D03*
X3424166D02*
D03*
X3343333D02*
D03*
X3262500D02*
D03*
X3181667D02*
D03*
X3100834D02*
D03*
X2830000Y1868889D02*
D03*
Y2105000D02*
D03*
Y1986945D02*
D03*
X2452500Y1995556D02*
D03*
Y2231666D02*
D03*
Y2349722D02*
D03*
Y2113611D02*
D03*
Y2467777D02*
D03*
Y1877500D02*
D03*
X2735000Y1935557D02*
D03*
Y2171668D02*
D03*
Y2289723D02*
D03*
Y2053612D02*
D03*
Y2407779D02*
D03*
Y2761945D02*
D03*
Y2525834D02*
D03*
Y2643889D02*
D03*
Y1817502D02*
D03*
X2642500Y1873057D02*
D03*
Y2109168D02*
D03*
Y2227223D02*
D03*
Y1991112D02*
D03*
Y2345279D02*
D03*
Y2699445D02*
D03*
Y2463334D02*
D03*
Y2581389D02*
D03*
Y2817500D02*
D03*
X2552500Y1820000D02*
D03*
Y2882499D02*
D03*
Y2646388D02*
D03*
Y2528333D02*
D03*
Y2764443D02*
D03*
Y2410277D02*
D03*
Y2056111D02*
D03*
Y2292222D02*
D03*
Y2174166D02*
D03*
X5630000Y2859999D02*
D03*
X3567500Y2252500D02*
D03*
X3570000Y2389167D02*
D03*
X3715000Y2525833D02*
D03*
X3570000D02*
D03*
X3687500Y2662500D02*
D03*
X3540000D02*
D03*
X6267500Y2627500D02*
D03*
X6471249Y3460000D02*
D03*
X6704999D02*
D03*
X6003750D02*
D03*
X5775000Y3480000D02*
D03*
X5375000Y3495000D02*
D03*
X6715000Y2925000D02*
D03*
X6513333D02*
D03*
X6311667D02*
D03*
X6715000Y3120000D02*
D03*
X6513333D02*
D03*
X6311667D02*
D03*
X6640000Y2532500D02*
D03*
X6430000Y2535000D02*
D03*
X6422500Y3960000D02*
D03*
X7210000Y3955000D02*
D03*
Y3842500D02*
D03*
X7400000Y4317500D02*
D03*
X7187500D02*
D03*
X6975000D02*
D03*
X6762500D02*
D03*
X6550000D02*
D03*
X4345000Y3852500D02*
D03*
X4540000Y2562500D02*
D03*
X4432500Y3220000D02*
D03*
X4520000Y3280000D02*
D03*
Y3152500D02*
D03*
Y3402500D02*
D03*
X4445000Y3342500D02*
D03*
X6468000Y3842500D02*
D03*
X7024500D02*
D03*
X6839000D02*
D03*
X6653500D02*
D03*
X6282500D02*
D03*
X6166250Y4440000D02*
D03*
X6287500D02*
D03*
X6045000D02*
D03*
X5302500Y4185000D02*
D03*
X5102500D02*
D03*
X4902500D02*
D03*
X4702500D02*
D03*
X4530000Y4155000D02*
D03*
X4345000Y3967500D02*
D03*
X4232500Y3852500D02*
D03*
X4092500Y3770000D02*
D03*
X4017500Y3712500D02*
D03*
X4627500Y2630000D02*
D03*
X4522500Y2695000D02*
D03*
X4667500Y2509998D02*
D03*
Y2314166D02*
D03*
Y2118333D02*
D03*
X4670000Y1922500D02*
D03*
X4667500Y1685000D02*
D03*
Y1478750D02*
D03*
Y1272500D02*
D03*
X3558959Y1679167D02*
D03*
Y1890833D02*
D03*
X3650000Y1802500D02*
D03*
X3407917D02*
D03*
X2552500Y1938056D02*
D03*
X2491042Y405833D02*
D03*
X2733124D02*
D03*
X2975207D02*
D03*
X3217290D02*
D03*
X3459373D02*
D03*
X3701456D02*
D03*
X2491042Y617500D02*
D03*
X2733124D02*
D03*
X2975207D02*
D03*
X3217290D02*
D03*
X3459373D02*
D03*
X3701456D02*
D03*
X2491042Y829166D02*
D03*
X2733124D02*
D03*
X2975207D02*
D03*
X3217290D02*
D03*
X3459373D02*
D03*
X3701456D02*
D03*
X1272501Y4007500D02*
D03*
X1402500D02*
D03*
X1532500D02*
D03*
X1662500D02*
D03*
X1922499D02*
D03*
X2052499D02*
D03*
X2182499D02*
D03*
X1866785Y3892500D02*
D03*
X2015357D02*
D03*
X1792500Y4007500D02*
D03*
X1569643Y3892500D02*
D03*
X1718214D02*
D03*
X2163928D02*
D03*
X1792500Y4122500D02*
D03*
X1619167D02*
D03*
X1445834D02*
D03*
X1272501D02*
D03*
X1965833D02*
D03*
X2139166D02*
D03*
X1946666Y5157500D02*
D03*
X1773333D02*
D03*
X1080000D02*
D03*
X2119999D02*
D03*
X1600000Y5177500D02*
D03*
X1971427Y4927500D02*
D03*
X2119999D02*
D03*
X1525714D02*
D03*
X1377143D02*
D03*
X1599999Y5042500D02*
D03*
X1228571Y4927500D02*
D03*
X1822856D02*
D03*
X1674285D02*
D03*
X1080000D02*
D03*
X2119998Y5042500D02*
D03*
X1989998D02*
D03*
X1859999D02*
D03*
X1729999D02*
D03*
X1469999D02*
D03*
X1340000D02*
D03*
X1210000D02*
D03*
X1080000D02*
D03*
X2612083Y300000D02*
D03*
X2854166D02*
D03*
X3096249D02*
D03*
X2370000D02*
D03*
X3822497D02*
D03*
X3338331D02*
D03*
X3580414D02*
D03*
X3822497Y511667D02*
D03*
X3580414Y511666D02*
D03*
X3338331D02*
D03*
X3096249D02*
D03*
X2854166D02*
D03*
X2612083D02*
D03*
X2370000D02*
D03*
X3338331Y723333D02*
D03*
X3580414D02*
D03*
X3822497Y723333D02*
D03*
X3822499Y935000D02*
D03*
X3580415Y934999D02*
D03*
X3338332D02*
D03*
X2370000Y723333D02*
D03*
X2612083D02*
D03*
X2854166D02*
D03*
X3096249D02*
D03*
X3096249Y934999D02*
D03*
X2854166D02*
D03*
X2612083D02*
D03*
X2370000D02*
D03*
X3230000Y2985000D02*
D03*
X3301250D02*
D03*
X3455417D02*
D03*
X3532500D02*
D03*
X3378333D02*
D03*
X2891250Y2997500D02*
D03*
X3054999D02*
D03*
X2973125D02*
D03*
X2809375D02*
D03*
X2635001Y2985000D02*
D03*
X2554168D02*
D03*
X3099167Y6582500D02*
D03*
X3180000D02*
D03*
X3260833D02*
D03*
X3341666D02*
D03*
X3422500D02*
D03*
X3503333D02*
D03*
X3584166D02*
D03*
X3664999D02*
D03*
X3745832D02*
D03*
X3826666D02*
D03*
X3139167Y6515000D02*
D03*
X3220000D02*
D03*
X3300833D02*
D03*
X3381666D02*
D03*
X3462500D02*
D03*
X3543333D02*
D03*
X3624166D02*
D03*
X3704999D02*
D03*
X3785832D02*
D03*
X3827499Y6440000D02*
D03*
X3746666D02*
D03*
X3665832D02*
D03*
X3584999D02*
D03*
X3504166D02*
D03*
X3423333D02*
D03*
X3342500D02*
D03*
X3261666D02*
D03*
X3180833D02*
D03*
X3100000D02*
D03*
X3205000Y2237500D02*
D03*
X3085000D02*
D03*
X2947500Y2252500D02*
D03*
X3362500Y2335000D02*
D03*
X3342500Y2260000D02*
D03*
X2922500Y2335000D02*
D03*
X3220000Y2840000D02*
D03*
X3145000D02*
D03*
X3070000D02*
D03*
X3207500Y2362500D02*
D03*
X3085000D02*
D03*
X3312500Y2745000D02*
D03*
X3265000Y2437500D02*
D03*
X5787500Y2245000D02*
D03*
Y2340000D02*
D03*
X5580000Y3435000D02*
D03*
X3030000Y2435000D02*
D03*
X5355000Y3152500D02*
D03*
X6552600Y4437500D02*
D03*
X6762575D02*
D03*
X6972550D02*
D03*
X7182525D02*
D03*
X7392500D02*
D03*
X6110000Y2925000D02*
D03*
Y3120000D02*
D03*
X5762500Y3015000D02*
D03*
X5948750Y2743750D02*
D03*
X5789375Y2801875D02*
D03*
%TF.MD5,1d35ba027881c1f3b3087b92db649e79*%
M02*
