%TF.GenerationSoftware,Altium Limited,Altium Designer,22.9.1 (49)*%
G04 Layer_Color=65280*
%FSLAX45Y45*%
%MOMM*%
%TF.SameCoordinates,C6D2A98E-D71B-44EB-B230-12E80A119C5B*%
%TF.FilePolarity,Positive*%
%TF.FileFunction,Paste,Top*%
%TF.Part,Single*%
G01*
G75*
%TA.AperFunction,SMDPad,CuDef*%
%ADD10R,1.20000X1.20000*%
%ADD11R,1.52400X1.52400*%
%ADD12C,1.30000*%
%ADD13R,1.00000X2.15000*%
%ADD14R,3.25000X2.15000*%
%ADD15R,1.60000X1.20000*%
%ADD16R,1.60000X3.30000*%
%ADD17R,1.65506X0.58213*%
G04:AMPARAMS|DCode=18|XSize=1.65506mm|YSize=0.58213mm|CornerRadius=0.29107mm|HoleSize=0mm|Usage=FLASHONLY|Rotation=180.000|XOffset=0mm|YOffset=0mm|HoleType=Round|Shape=RoundedRectangle|*
%AMROUNDEDRECTD18*
21,1,1.65506,0.00000,0,0,180.0*
21,1,1.07293,0.58213,0,0,180.0*
1,1,0.58213,-0.53646,0.00000*
1,1,0.58213,0.53646,0.00000*
1,1,0.58213,0.53646,0.00000*
1,1,0.58213,-0.53646,0.00000*
%
%ADD18ROUNDEDRECTD18*%
%ADD19R,1.00000X1.00000*%
%ADD20R,0.45000X0.45000*%
G04:AMPARAMS|DCode=24|XSize=1.50543mm|YSize=0.57583mm|CornerRadius=0.28791mm|HoleSize=0mm|Usage=FLASHONLY|Rotation=180.000|XOffset=0mm|YOffset=0mm|HoleType=Round|Shape=RoundedRectangle|*
%AMROUNDEDRECTD24*
21,1,1.50543,0.00000,0,0,180.0*
21,1,0.92960,0.57583,0,0,180.0*
1,1,0.57583,-0.46480,0.00000*
1,1,0.57583,0.46480,0.00000*
1,1,0.57583,0.46480,0.00000*
1,1,0.57583,-0.46480,0.00000*
%
%ADD24ROUNDEDRECTD24*%
%ADD25R,1.50543X0.57583*%
%ADD26R,0.95822X1.00650*%
%ADD27R,0.71120X0.39370*%
%ADD28R,1.35000X1.65000*%
%ADD29R,7.00000X3.20000*%
G04:AMPARAMS|DCode=31|XSize=1.7mm|YSize=3.8mm|CornerRadius=0.425mm|HoleSize=0mm|Usage=FLASHONLY|Rotation=90.000|XOffset=0mm|YOffset=0mm|HoleType=Round|Shape=RoundedRectangle|*
%AMROUNDEDRECTD31*
21,1,1.70000,2.95000,0,0,90.0*
21,1,0.85000,3.80000,0,0,90.0*
1,1,0.85000,1.47500,0.42500*
1,1,0.85000,1.47500,-0.42500*
1,1,0.85000,-1.47500,-0.42500*
1,1,0.85000,-1.47500,0.42500*
%
%ADD31ROUNDEDRECTD31*%
%ADD32R,1.45000X1.00000*%
%ADD33R,0.75000X0.85000*%
%ADD34R,0.52000X0.52000*%
%ADD35R,1.00000X1.45000*%
%ADD36R,1.00650X0.95822*%
%ADD37R,0.85000X0.75000*%
%ADD38R,0.52000X0.52000*%
%ADD39R,0.45000X0.45000*%
G04:AMPARAMS|DCode=69|XSize=0.79639mm|YSize=0.19639mm|CornerRadius=0.00069mm|HoleSize=0mm|Usage=FLASHONLY|Rotation=90.000|XOffset=0mm|YOffset=0mm|HoleType=Round|Shape=RoundedRectangle|*
%AMROUNDEDRECTD69*
21,1,0.79639,0.19500,0,0,90.0*
21,1,0.79500,0.19639,0,0,90.0*
1,1,0.00139,0.09750,0.39750*
1,1,0.00139,0.09750,-0.39750*
1,1,0.00139,-0.09750,-0.39750*
1,1,0.00139,-0.09750,0.39750*
%
%ADD69ROUNDEDRECTD69*%
G04:AMPARAMS|DCode=70|XSize=0.79639mm|YSize=0.19639mm|CornerRadius=0.00069mm|HoleSize=0mm|Usage=FLASHONLY|Rotation=0.000|XOffset=0mm|YOffset=0mm|HoleType=Round|Shape=RoundedRectangle|*
%AMROUNDEDRECTD70*
21,1,0.79639,0.19500,0,0,0.0*
21,1,0.79500,0.19639,0,0,0.0*
1,1,0.00139,0.39750,-0.09750*
1,1,0.00139,-0.39750,-0.09750*
1,1,0.00139,-0.39750,0.09750*
1,1,0.00139,0.39750,0.09750*
%
%ADD70ROUNDEDRECTD70*%
G36*
X3197500Y2560500D02*
X3091500D01*
Y2666500D01*
X3197500D01*
Y2560500D01*
D02*
G37*
D10*
X5137500Y2300000D02*
D03*
Y2500000D02*
D03*
X5495000Y4107500D02*
D03*
Y3907500D02*
D03*
D11*
X5467500Y2400000D02*
D03*
X5825000Y4007500D02*
D03*
D12*
Y3230000D02*
D03*
X4062500Y5017500D02*
D03*
X4077500Y5432500D02*
D03*
X5655000Y3320000D02*
D03*
X4567500Y4580000D02*
D03*
X4075000Y4350000D02*
D03*
X2940000Y3287500D02*
D03*
D13*
X3755000Y1932500D02*
D03*
X3985000D02*
D03*
X4215000D02*
D03*
D14*
X3985000Y2517500D02*
D03*
D15*
X5160000Y2035000D02*
D03*
Y1805000D02*
D03*
Y1575000D02*
D03*
D16*
X5800000Y1805000D02*
D03*
D17*
X5187318Y3088500D02*
D03*
D18*
Y3469500D02*
D03*
X4231203Y3088500D02*
D03*
Y3469500D02*
D03*
X5187318Y3215500D02*
D03*
Y3342500D02*
D03*
X4231203Y3215500D02*
D03*
Y3342500D02*
D03*
D19*
X2745013Y6005000D02*
D03*
Y5435000D02*
D03*
X2589999Y3254999D02*
D03*
Y3825000D02*
D03*
D20*
X5696500Y2342500D02*
D03*
X5616500D02*
D03*
X6035680Y3212040D02*
D03*
X5955680D02*
D03*
X6035000Y3342500D02*
D03*
X5955000D02*
D03*
X3104500Y1903500D02*
D03*
X3024500D02*
D03*
X3184500Y2083500D02*
D03*
X3104500D02*
D03*
X3184500Y1903500D02*
D03*
X3264499D02*
D03*
X3820870Y3146515D02*
D03*
X3900871D02*
D03*
X4055925Y3095858D02*
D03*
X3975925D02*
D03*
X4055925Y3177500D02*
D03*
X3975925D02*
D03*
X4055925Y3258550D02*
D03*
X3975925D02*
D03*
X4055925Y3345000D02*
D03*
X3975925D02*
D03*
X3657500Y4882500D02*
D03*
X3737501D02*
D03*
X3645845Y3146514D02*
D03*
X3725845D02*
D03*
D24*
X6275038Y4082500D02*
D03*
X6054961Y3987500D02*
D03*
X6275038Y4177500D02*
D03*
X6054961D02*
D03*
D25*
X6275038Y3987500D02*
D03*
D26*
X3505000Y2130086D02*
D03*
Y1984914D02*
D03*
D27*
X3972500Y3007425D02*
D03*
Y2937575D02*
D03*
D28*
X3190900Y3301700D02*
D03*
X3390900D02*
D03*
X3790900Y4096700D02*
D03*
X3590900D02*
D03*
X3390900D02*
D03*
X3190900D02*
D03*
X3590900Y3301700D02*
D03*
X3790900D02*
D03*
X3790900Y5817500D02*
D03*
X3590900D02*
D03*
X3190900D02*
D03*
X3390900D02*
D03*
X3190900Y5022500D02*
D03*
X3390900D02*
D03*
X3590900D02*
D03*
X3790900D02*
D03*
D29*
X3490900Y3608200D02*
D03*
X3490900Y5329000D02*
D03*
D31*
X3717541Y4744900D02*
D03*
Y4314898D02*
D03*
X1567342Y4744900D02*
D03*
Y4314898D02*
D03*
X2427422D02*
D03*
Y4744900D02*
D03*
X3287501D02*
D03*
Y4314898D02*
D03*
X1997382D02*
D03*
Y4744900D02*
D03*
X1137580Y4745001D02*
D03*
Y4314999D02*
D03*
X2857461Y4314898D02*
D03*
Y4744900D02*
D03*
D32*
X6586933Y3936152D02*
D03*
Y4126153D02*
D03*
X6430440Y2818820D02*
D03*
Y2628820D02*
D03*
X6638180Y2624180D02*
D03*
Y2814180D02*
D03*
X6790133Y4126153D02*
D03*
Y3936152D02*
D03*
X6993333D02*
D03*
Y4126153D02*
D03*
X4907500Y4107500D02*
D03*
Y3917500D02*
D03*
X5105075Y4105992D02*
D03*
Y3915992D02*
D03*
X5307500Y4107500D02*
D03*
Y3917500D02*
D03*
X4702500Y4107500D02*
D03*
Y3917500D02*
D03*
D33*
X5645000Y3015000D02*
D03*
X5520000D02*
D03*
X4412500Y4025000D02*
D03*
X4537500D02*
D03*
X4412500Y3908317D02*
D03*
X4537500D02*
D03*
D34*
X5700000Y2247500D02*
D03*
X5618000D02*
D03*
X3015500Y1993500D02*
D03*
X2933499D02*
D03*
X3185501Y1993500D02*
D03*
X3103499D02*
D03*
X3273499D02*
D03*
X3355501D02*
D03*
D35*
X4270000Y1655000D02*
D03*
X4080000D02*
D03*
X4270000Y1447500D02*
D03*
X4080000D02*
D03*
X4748692Y2110930D02*
D03*
X4938692D02*
D03*
X4748692Y1921091D02*
D03*
X4938692D02*
D03*
X4748692Y1485000D02*
D03*
X4938692D02*
D03*
X4748692Y1277500D02*
D03*
X4938692D02*
D03*
X4748692Y2513684D02*
D03*
X4938692D02*
D03*
X4748692Y2310484D02*
D03*
X4938692D02*
D03*
X4748692Y1685630D02*
D03*
X4938692D02*
D03*
D36*
X4225171Y1255000D02*
D03*
X4080000D02*
D03*
D37*
X3144500Y2241001D02*
D03*
Y2365999D02*
D03*
X3264500Y2241001D02*
D03*
Y2365999D02*
D03*
X3024500Y2241001D02*
D03*
Y2365999D02*
D03*
X4290000Y3787500D02*
D03*
Y3662500D02*
D03*
X4173317Y3787500D02*
D03*
Y3662500D02*
D03*
X4401684Y2775000D02*
D03*
Y2900000D02*
D03*
X4285000Y2775000D02*
D03*
Y2900000D02*
D03*
X4518367Y2775000D02*
D03*
Y2900000D02*
D03*
X4168317Y2775000D02*
D03*
Y2900000D02*
D03*
D38*
X3364500Y2392499D02*
D03*
Y2474501D02*
D03*
X2924500Y2392499D02*
D03*
Y2474501D02*
D03*
X6095000Y4391000D02*
D03*
Y4309000D02*
D03*
X6350000Y4390500D02*
D03*
Y4308500D02*
D03*
D39*
X5425740Y3211560D02*
D03*
Y3131560D02*
D03*
X5514640Y3211560D02*
D03*
Y3131560D02*
D03*
X5517140Y3342020D02*
D03*
Y3422020D02*
D03*
X5428240Y3342020D02*
D03*
Y3422020D02*
D03*
X2894500Y2653500D02*
D03*
Y2573500D02*
D03*
X2894499Y2853500D02*
D03*
Y2773500D02*
D03*
X2834500Y2393500D02*
D03*
Y2473500D02*
D03*
X3404500Y2773500D02*
D03*
Y2853500D02*
D03*
X3454500Y2473500D02*
D03*
Y2393500D02*
D03*
X3394500Y2573500D02*
D03*
Y2653500D02*
D03*
X2634999Y3055002D02*
D03*
Y3135002D02*
D03*
X2529974Y3055002D02*
D03*
Y3135002D02*
D03*
X4062500Y3015000D02*
D03*
Y2935000D02*
D03*
X2703736Y6117500D02*
D03*
Y6197500D02*
D03*
X2792500Y6117500D02*
D03*
Y6197500D02*
D03*
X2735560Y3134200D02*
D03*
Y3054200D02*
D03*
X2816840Y3134200D02*
D03*
Y3054200D02*
D03*
X2898120Y3134200D02*
D03*
Y3054200D02*
D03*
X2979400Y3134200D02*
D03*
Y3054200D02*
D03*
X3060680Y3134200D02*
D03*
Y3054200D02*
D03*
X3220700Y3134200D02*
D03*
Y3054200D02*
D03*
X3301980Y3134200D02*
D03*
Y3054200D02*
D03*
X3383260Y3134200D02*
D03*
Y3054200D02*
D03*
X3464540Y3134200D02*
D03*
Y3054200D02*
D03*
X3545820Y3134200D02*
D03*
Y3054200D02*
D03*
X6240000Y4305000D02*
D03*
Y4385000D02*
D03*
X6440000Y4187500D02*
D03*
Y4107500D02*
D03*
X5995000Y4307500D02*
D03*
Y4387500D02*
D03*
D69*
X3169500Y2758500D02*
D03*
X3119500D02*
D03*
X3219500D02*
D03*
X3069500D02*
D03*
X3219500Y2468500D02*
D03*
X3119500D02*
D03*
X3169500D02*
D03*
X3069500D02*
D03*
D70*
X3289500Y2588500D02*
D03*
Y2638500D02*
D03*
X2999500D02*
D03*
Y2588500D02*
D03*
Y2538500D02*
D03*
X3289500D02*
D03*
Y2688500D02*
D03*
X2999500D02*
D03*
%TF.MD5,d10ad33500d6918b9bbc07a9c99d46f4*%
M02*
