%TF.GenerationSoftware,Altium Limited,Altium Designer,22.9.1 (49)*%
G04 Layer_Color=0*
%FSLAX45Y45*%
%MOMM*%
%TF.SameCoordinates,C6D2A98E-D71B-44EB-B230-12E80A119C5B*%
%TF.FilePolarity,Positive*%
%TF.FileFunction,Plated,1,4,PTH,Drill*%
%TF.Part,Single*%
G01*
G75*
%TA.AperFunction,ComponentDrill*%
%ADD95C,0.80000*%
%ADD96C,1.50000*%
%ADD97C,1.49860*%
%ADD98C,0.30000*%
%ADD99C,3.60000*%
%ADD100C,0.80000*%
%ADD101C,1.40000*%
%TA.AperFunction,ViaDrill,NotFilled*%
%ADD102C,0.30000*%
D95*
X4497500Y3720000D02*
D03*
X6102500Y2670000D02*
D03*
X4237500Y777500D02*
D03*
X4037500D02*
D03*
X6897500Y2595000D02*
D03*
Y2841380D02*
D03*
X4240000Y337500D02*
D03*
X3972500D02*
D03*
X6237500Y3460000D02*
D03*
X5975000Y3010000D02*
D03*
D96*
X3847770Y1137230D02*
D03*
X3337230D02*
D03*
Y1647770D02*
D03*
X3847770D02*
D03*
X2960270Y1137230D02*
D03*
X2449730D02*
D03*
X2960270Y1647770D02*
D03*
X2449730D02*
D03*
D97*
X3592500Y1392500D02*
D03*
X2705000D02*
D03*
D98*
X3195300Y2562700D02*
D03*
Y2664300D02*
D03*
X3093700Y2562700D02*
D03*
Y2664300D02*
D03*
D99*
X457500Y762500D02*
D03*
Y6642500D02*
D03*
X7377500D02*
D03*
Y762500D02*
D03*
D100*
X6897500Y3397500D02*
D03*
Y3143500D02*
D03*
X7390771Y4155507D02*
D03*
X4957500Y1042500D02*
D03*
X4727500D02*
D03*
X7390771Y3926907D02*
D03*
X4760000Y2820000D02*
D03*
X7080000Y4385000D02*
D03*
D101*
X1322500Y5210000D02*
D03*
Y5845000D02*
D03*
Y3837500D02*
D03*
Y3202500D02*
D03*
D102*
X1503214Y5530000D02*
D03*
X1354642D02*
D03*
X1577499Y5645000D02*
D03*
X1206071Y5530000D02*
D03*
X1651785D02*
D03*
X1447499Y5645000D02*
D03*
X1317500D02*
D03*
X1187500D02*
D03*
X1971427Y5290000D02*
D03*
X1525714D02*
D03*
X1599999Y5405000D02*
D03*
X1822856Y5290000D02*
D03*
X1674285D02*
D03*
X1110000Y5332500D02*
D03*
X1859999Y5405000D02*
D03*
X1729999D02*
D03*
X1469999D02*
D03*
X1340000D02*
D03*
X1210000D02*
D03*
X1127500Y3582501D02*
D03*
X1037500Y4045000D02*
D03*
X1127500Y3712501D02*
D03*
Y3842501D02*
D03*
Y3972500D02*
D03*
Y4102500D02*
D03*
X1411071Y3412500D02*
D03*
X1262500D02*
D03*
X1522499Y3527500D02*
D03*
X1392500D02*
D03*
X1262500D02*
D03*
X1710714Y3652500D02*
D03*
X1562142D02*
D03*
X1784999Y3767500D02*
D03*
X1413571Y3652500D02*
D03*
X1265000D02*
D03*
X1654999Y3767500D02*
D03*
X1524999D02*
D03*
X3712500Y3049999D02*
D03*
X3877500Y2970000D02*
D03*
X3640000Y3010000D02*
D03*
X3673400Y3337500D02*
D03*
Y3260000D02*
D03*
X3642500Y3090000D02*
D03*
X3765750Y2988000D02*
D03*
X3686500Y2956000D02*
D03*
X3819000Y2926000D02*
D03*
X3733000Y2902000D02*
D03*
X3779499Y2848000D02*
D03*
X3992500Y2850000D02*
D03*
X3872250Y2864000D02*
D03*
X3825999Y2794000D02*
D03*
X4038750Y2795000D02*
D03*
X3925499Y2802000D02*
D03*
X3832500Y3082500D02*
D03*
X3978749Y2740000D02*
D03*
X4084999D02*
D03*
X2735000Y2880000D02*
D03*
X2727500Y2997500D02*
D03*
X3872499Y2740000D02*
D03*
X3645000Y3192500D02*
D03*
X2922500Y1815000D02*
D03*
X2257500Y4122500D02*
D03*
X3787499Y6645000D02*
D03*
X3706666D02*
D03*
X3625833D02*
D03*
X3545000D02*
D03*
X3464166D02*
D03*
X3383333D02*
D03*
X3302500D02*
D03*
X3221667D02*
D03*
X3140833D02*
D03*
X3828332Y6712500D02*
D03*
X3747499D02*
D03*
X3666666D02*
D03*
X3585833D02*
D03*
X3505000D02*
D03*
X3424166D02*
D03*
X3343333D02*
D03*
X3262500D02*
D03*
X3181667D02*
D03*
X3100834D02*
D03*
X2830000Y1868889D02*
D03*
Y2105000D02*
D03*
Y1986945D02*
D03*
X2452500Y1995556D02*
D03*
Y2231666D02*
D03*
Y2349722D02*
D03*
Y2113611D02*
D03*
Y2467777D02*
D03*
Y1877500D02*
D03*
X2735000Y1935557D02*
D03*
Y2171668D02*
D03*
Y2289723D02*
D03*
Y2053612D02*
D03*
Y2407779D02*
D03*
Y2761945D02*
D03*
Y2525834D02*
D03*
Y2643889D02*
D03*
Y1817502D02*
D03*
X2642500Y1873057D02*
D03*
Y2109168D02*
D03*
Y2227223D02*
D03*
Y1991112D02*
D03*
Y2345279D02*
D03*
Y2699445D02*
D03*
Y2463334D02*
D03*
Y2581389D02*
D03*
Y2817500D02*
D03*
X2552500Y1820000D02*
D03*
Y2882499D02*
D03*
Y2646388D02*
D03*
Y2528333D02*
D03*
Y2764443D02*
D03*
Y2410277D02*
D03*
Y2056111D02*
D03*
Y2292222D02*
D03*
Y2174166D02*
D03*
X5630000Y2859999D02*
D03*
X3567500Y2252500D02*
D03*
X3570000Y2389167D02*
D03*
X3715000Y2525833D02*
D03*
X3570000D02*
D03*
X3687500Y2662500D02*
D03*
X3540000D02*
D03*
X6267500Y2627500D02*
D03*
X6471249Y3460000D02*
D03*
X6704999D02*
D03*
X6003750D02*
D03*
X5775000Y3480000D02*
D03*
X5375000Y3495000D02*
D03*
X6715000Y2925000D02*
D03*
X6513333D02*
D03*
X6311667D02*
D03*
X6715000Y3120000D02*
D03*
X6513333D02*
D03*
X6311667D02*
D03*
X6640000Y2532500D02*
D03*
X6430000Y2535000D02*
D03*
X6422500Y3960000D02*
D03*
X7210000Y3955000D02*
D03*
Y3842500D02*
D03*
X7400000Y4317500D02*
D03*
X7187500D02*
D03*
X6975000D02*
D03*
X6762500D02*
D03*
X6550000D02*
D03*
X4345000Y3852500D02*
D03*
X4540000Y2562500D02*
D03*
X4432500Y3220000D02*
D03*
X4520000Y3280000D02*
D03*
Y3152500D02*
D03*
Y3402500D02*
D03*
X4445000Y3342500D02*
D03*
X6468000Y3842500D02*
D03*
X7024500D02*
D03*
X6839000D02*
D03*
X6653500D02*
D03*
X6282500D02*
D03*
X6166250Y4440000D02*
D03*
X6287500D02*
D03*
X6045000D02*
D03*
X5302500Y4185000D02*
D03*
X5102500D02*
D03*
X4902500D02*
D03*
X4702500D02*
D03*
X4530000Y4155000D02*
D03*
X4345000Y3967500D02*
D03*
X4232500Y3852500D02*
D03*
X4092500Y3770000D02*
D03*
X4017500Y3712500D02*
D03*
X4627500Y2630000D02*
D03*
X4522500Y2695000D02*
D03*
X4667500Y2509998D02*
D03*
Y2314166D02*
D03*
Y2118333D02*
D03*
X4670000Y1922500D02*
D03*
X4667500Y1685000D02*
D03*
Y1478750D02*
D03*
Y1272500D02*
D03*
X3558959Y1679167D02*
D03*
Y1890833D02*
D03*
X3650000Y1802500D02*
D03*
X3407917D02*
D03*
X2552500Y1938056D02*
D03*
X2491042Y405833D02*
D03*
X2733124D02*
D03*
X2975207D02*
D03*
X3217290D02*
D03*
X3459373D02*
D03*
X3701456D02*
D03*
X2491042Y617500D02*
D03*
X2733124D02*
D03*
X2975207D02*
D03*
X3217290D02*
D03*
X3459373D02*
D03*
X3701456D02*
D03*
X2491042Y829166D02*
D03*
X2733124D02*
D03*
X2975207D02*
D03*
X3217290D02*
D03*
X3459373D02*
D03*
X3701456D02*
D03*
X1272501Y4007500D02*
D03*
X1402500D02*
D03*
X1532500D02*
D03*
X1662500D02*
D03*
X1922499D02*
D03*
X2052499D02*
D03*
X2182499D02*
D03*
X1866785Y3892500D02*
D03*
X2015357D02*
D03*
X1792500Y4007500D02*
D03*
X1569643Y3892500D02*
D03*
X1718214D02*
D03*
X2163928D02*
D03*
X1792500Y4122500D02*
D03*
X1619167D02*
D03*
X1445834D02*
D03*
X1272501D02*
D03*
X1965833D02*
D03*
X2139166D02*
D03*
X1946666Y5157500D02*
D03*
X1773333D02*
D03*
X1080000D02*
D03*
X2119999D02*
D03*
X1600000Y5177500D02*
D03*
X1971427Y4927500D02*
D03*
X2119999D02*
D03*
X1525714D02*
D03*
X1377143D02*
D03*
X1599999Y5042500D02*
D03*
X1228571Y4927500D02*
D03*
X1822856D02*
D03*
X1674285D02*
D03*
X1080000D02*
D03*
X2119998Y5042500D02*
D03*
X1989998D02*
D03*
X1859999D02*
D03*
X1729999D02*
D03*
X1469999D02*
D03*
X1340000D02*
D03*
X1210000D02*
D03*
X1080000D02*
D03*
X2612083Y300000D02*
D03*
X2854166D02*
D03*
X3096249D02*
D03*
X2370000D02*
D03*
X3822497D02*
D03*
X3338331D02*
D03*
X3580414D02*
D03*
X3822497Y511667D02*
D03*
X3580414Y511666D02*
D03*
X3338331D02*
D03*
X3096249D02*
D03*
X2854166D02*
D03*
X2612083D02*
D03*
X2370000D02*
D03*
X3338331Y723333D02*
D03*
X3580414D02*
D03*
X3822497Y723333D02*
D03*
X3822499Y935000D02*
D03*
X3580415Y934999D02*
D03*
X3338332D02*
D03*
X2370000Y723333D02*
D03*
X2612083D02*
D03*
X2854166D02*
D03*
X3096249D02*
D03*
X3096249Y934999D02*
D03*
X2854166D02*
D03*
X2612083D02*
D03*
X2370000D02*
D03*
X3230000Y2985000D02*
D03*
X3301250D02*
D03*
X3455417D02*
D03*
X3532500D02*
D03*
X3378333D02*
D03*
X2891250Y2997500D02*
D03*
X3054999D02*
D03*
X2973125D02*
D03*
X2809375D02*
D03*
X2635001Y2985000D02*
D03*
X2554168D02*
D03*
X3099167Y6582500D02*
D03*
X3180000D02*
D03*
X3260833D02*
D03*
X3341666D02*
D03*
X3422500D02*
D03*
X3503333D02*
D03*
X3584166D02*
D03*
X3664999D02*
D03*
X3745832D02*
D03*
X3826666D02*
D03*
X3139167Y6515000D02*
D03*
X3220000D02*
D03*
X3300833D02*
D03*
X3381666D02*
D03*
X3462500D02*
D03*
X3543333D02*
D03*
X3624166D02*
D03*
X3704999D02*
D03*
X3785832D02*
D03*
X3827499Y6440000D02*
D03*
X3746666D02*
D03*
X3665832D02*
D03*
X3584999D02*
D03*
X3504166D02*
D03*
X3423333D02*
D03*
X3342500D02*
D03*
X3261666D02*
D03*
X3180833D02*
D03*
X3100000D02*
D03*
X3205000Y2237500D02*
D03*
X3085000D02*
D03*
X2947500Y2252500D02*
D03*
X3362500Y2335000D02*
D03*
X3342500Y2260000D02*
D03*
X2922500Y2335000D02*
D03*
X3220000Y2840000D02*
D03*
X3145000D02*
D03*
X3070000D02*
D03*
X3207500Y2362500D02*
D03*
X3085000D02*
D03*
X3312500Y2745000D02*
D03*
X3265000Y2437500D02*
D03*
X5787500Y2245000D02*
D03*
Y2340000D02*
D03*
X5580000Y3435000D02*
D03*
X3030000Y2435000D02*
D03*
X5355000Y3152500D02*
D03*
X6552600Y4437500D02*
D03*
X6762575D02*
D03*
X6972550D02*
D03*
X7182525D02*
D03*
X7392500D02*
D03*
X6110000Y2925000D02*
D03*
Y3120000D02*
D03*
X5762500Y3015000D02*
D03*
X5948750Y2743750D02*
D03*
X5789375Y2801875D02*
D03*
%TF.MD5,0e9d9c320dd2661097d4ba46efc2deed*%
M02*
