%TF.GenerationSoftware,Altium Limited,Altium Designer,22.9.1 (49)*%
G04 Layer_Color=16711935*
%FSLAX45Y45*%
%MOMM*%
%TF.SameCoordinates,C6D2A98E-D71B-44EB-B230-12E80A119C5B*%
%TF.FilePolarity,Negative*%
%TF.FileFunction,Soldermask,Bot*%
%TF.Part,Single*%
G01*
G75*
%TA.AperFunction,SMDPad,CuDef*%
G04:AMPARAMS|DCode=31|XSize=1.7mm|YSize=3.8mm|CornerRadius=0.425mm|HoleSize=0mm|Usage=FLASHONLY|Rotation=90.000|XOffset=0mm|YOffset=0mm|HoleType=Round|Shape=RoundedRectangle|*
%AMROUNDEDRECTD31*
21,1,1.70000,2.95000,0,0,90.0*
21,1,0.85000,3.80000,0,0,90.0*
1,1,0.85000,1.47500,0.42500*
1,1,0.85000,1.47500,-0.42500*
1,1,0.85000,-1.47500,-0.42500*
1,1,0.85000,-1.47500,0.42500*
%
%ADD31ROUNDEDRECTD31*%
%TA.AperFunction,ComponentPad*%
%ADD43C,1.30000*%
%ADD44C,1.90500*%
%ADD49R,1.30000X1.30000*%
%TA.AperFunction,SMDPad,CuDef*%
%ADD53R,0.80000X0.90000*%
%ADD55R,3.60320X1.45320*%
%TA.AperFunction,ComponentPad*%
%ADD56C,1.50320*%
%ADD57C,2.20980*%
%ADD58R,1.50320X1.50320*%
%ADD59C,6.20320*%
%ADD60C,2.70320*%
D31*
X1327460Y4317499D02*
D03*
Y4747501D02*
D03*
X1757500Y4317499D02*
D03*
Y4747501D02*
D03*
X2187540Y4317499D02*
D03*
Y4747501D02*
D03*
D43*
X6897500Y3397500D02*
D03*
X7390771Y4155507D02*
D03*
X6897500Y2595000D02*
D03*
Y2841380D02*
D03*
X4240000Y337500D02*
D03*
X3972500D02*
D03*
X4957500Y1042500D02*
D03*
X4727500D02*
D03*
X7390771Y3926907D02*
D03*
D44*
X3847770Y1137230D02*
D03*
X3337230D02*
D03*
Y1647770D02*
D03*
X3847770D02*
D03*
X2960270Y1137230D02*
D03*
X2449730D02*
D03*
X2960270Y1647770D02*
D03*
X2449730D02*
D03*
D49*
X6897500Y3143500D02*
D03*
D53*
X4022500Y3607500D02*
D03*
Y3387500D02*
D03*
X4017500Y3052500D02*
D03*
Y3272500D02*
D03*
D55*
X910118Y4227494D02*
D03*
Y4837490D02*
D03*
D56*
X4497500Y3720000D02*
D03*
X6102500Y2670000D02*
D03*
X4037500Y777500D02*
D03*
X6237500Y3460000D02*
D03*
X5975000Y3010000D02*
D03*
X4760000Y2820000D02*
D03*
X7080000Y4385000D02*
D03*
D57*
X3592500Y1392500D02*
D03*
X2705000D02*
D03*
D58*
X4237500Y777500D02*
D03*
D59*
X457500Y762500D02*
D03*
Y6642500D02*
D03*
X7377500D02*
D03*
Y762500D02*
D03*
D60*
X1322500Y5210000D02*
D03*
Y5845000D02*
D03*
Y3837500D02*
D03*
Y3202500D02*
D03*
%TF.MD5,796d211a9fde68d8f4288bf0ec56a233*%
M02*
