M48
;Layer_Color=9474304
;FILE_FORMAT=4:4
METRIC,TZ
;TYPE=PLATED
T1F00S00C0.3000
T2F00S00C0.8000
T3F00S00C1.4000
T4F00S00C1.4986
T5F00S00C1.5000
T6F00S00C3.6000
%
T01
X137000Y40000
Y57000
X154000
X170000
Y40000
X180000Y30000
X240000
X270000
X300000
X330000
X360000
X390000
Y150000
X375000Y180000
X337000Y186000
X332804Y175644
X320804
X308804
X296804
X293000Y186000
X308620Y187990
X303000Y195000
X311000Y209000
X319000
Y217000
X311000
X307184Y235504
X315000
X322424
X331000Y225000
X327000Y195000
X321320Y187990
X338804Y150644
X336804Y143644
X329804Y141644
X299804
X292804Y143644
X290804Y150644
X240000Y150000
X223000Y142000
X231000Y132000
Y112000
X230000Y177000
Y186000
X219000Y190000
X230000Y203000
Y214000
X240000
X250000
X260000
Y205000
Y184000
X250000Y177000
X240000
X247000Y225000
X223000Y224000
X225000Y240000
X195000
X165000
X180000Y270000
X210000
X240000Y270000
X268000Y266000
Y274000
X276000Y266000
X284000
X292000
X300000
X308000
X304000Y259000
X296000
X288000
X280000
X272000
X276000Y252000
X284000
X292000
X327000Y259000
X335000
X343000
X351000
X359000Y259000
X355000Y252000
X347000
X339000
Y266000
X331000
X323000
X347000
X355000
X363000
Y274000
X375000Y285000
Y293000
X375000Y301000
X375000Y309000
X381000Y305000
Y297000
Y289000
X395000Y294000
X390000Y210000
X360000
X261000Y300000
X252000
X243000
X225000Y300000
X195000
X165000
X180000Y330000
X210000
X195000Y360000
X165000
X180000Y390000
X210000
X150000
Y330000
Y270000
Y210000
X155000Y142000
X163000Y137000
Y127000
Y118000
X451000Y131000
X449000Y141000
X458000
X451000Y151000
X449000Y163000
X457000
X451000Y176000
X450000Y186000
X459000
X451000Y196000
X450000Y206000
X458000
X451000Y216000
X453000Y226000
Y236000
X459000Y231000
X441000Y236000
X431000Y238000
X430000Y230000
X423000Y236000
X417000Y241000
X410000Y247000
Y256000
Y264000
X418000Y256000
X404000Y294000
X413000Y308000
Y316000
X421000
X419000Y328000
X413000Y324000
X423000Y335000
X430000Y342000
X439000Y351000
X451000
X461000Y345000
X471000
X466000Y352000
X478000
X472000Y361000
Y371000
Y381000
X464000Y376000
X465000Y315000
Y304000
Y293000
Y283000
Y273000
X523000
Y283000
Y293000
Y303000
Y313000
X537000Y321000
X547000
X559000Y312000
X568000
X582000Y320000
X599000
X617000
X645000Y324000
X663000Y312000
X673000
X686000
X696000
Y343000
X686000
X673000
X663000
X595000Y358000
X575000
X555000
X529000Y394000
X536000Y269000
X546000Y268000
X554000Y265000
X559000Y275000
X568000Y275000
X576000Y265000
X592000Y270000
X612000
X632000
X651000
X692000Y248000
Y236000
X719000Y274000
Y294000
X611000Y147000
X602000
X517000Y135000
Y127000
X507000Y222000
X504000Y232000
Y241000
X534000Y401000
X570000Y398000
X604000Y410000
X615000Y483000
Y509000
X630000Y496000
X599000
X585000Y483000
X570000Y496000
X555000Y483000
X527000Y483000
X506000Y479000
Y487000
X497000
X488000
X494000Y455000
X473000
X482000Y443000
X456000Y421000
X459000Y604000
X449000
X439000
X427000
X417000
X407000
X397000
X402000Y611000
X412000
X422000
X433000Y611000
X444000Y611000
X454000
X464000
X475000Y611000
X486000Y611000
X496000
X506000
X517000Y611000
X528000Y611000
X538000
X548000
X553000Y604000
X543000
X533000
X523000
X511000
X501000
X491000
X481000
X469000
X480000Y630000
X510000
X540000
X570000
X600000
X630000
X645000Y600000
X615000
X585000
X585000Y660000
X555000
X525000
X495000
X465000
X435000
X405000
X420000Y630000
X450000
X630000Y570000
X633000Y554000
X624000
X642000
X651000
X660000Y570000
X385000Y604000
X375000
X365000
X355000
X343000
X333000
X323000
X313000
X301000
X291000
X281000
X271000
X259000
X249000
X239000
X229000
X217000
X207000
X197000
X187000
X175000
X165000
X155000
X145000
X150000Y611000
X160000
X170000
X181000Y611000
X192000Y611000
X202000
X212000
X223000Y611000
X234000Y611000
X244000
X254000
X265000Y611000
X276000Y611000
X286000
X296000
X307000Y611000
X318000Y611000
X328000
X338000
X349000Y611000
X360000Y611000
X370000
X380000
X391000Y611000
X390000Y630000
X375000Y660000
X345000
X315000
X330000Y630000
X300000
X270000
X240000
X210000
X180000
X150000
X165000Y660000
X225000
X180000Y450000
X150000
X165000Y420000
X195000
T02
X154000Y40000
X205000
X190000Y83000
X170000
X260000Y150000
X259996Y230000
X370000
Y150000
X440000Y224000
X457998Y363000
X616000Y391000
X636000Y306000
X686000Y291000
Y265600
X668997Y241000
X714000Y241000
X714000Y315000
X714000Y338000
X584996Y152000
X528000Y109000
X485000Y109000
X461996Y440000
X591996Y430000
X616000Y430000
X598998Y580000
X359997Y630000
X197996Y450000
T03
X85500Y535250
Y598750
X190250Y666000
X253750
T04
X277000Y81000
X353000
T05
X251473Y55473
X302527
X327473
X378527
Y106527
X327473
X302527
X251473
T06
X50000Y50000
X700000
Y700000
X50000
M30
