%TF.GenerationSoftware,Altium Limited,Altium Designer,22.9.1 (49)*%
G04 Layer_Color=32896*
%FSLAX45Y45*%
%MOMM*%
%TF.SameCoordinates,E77D5F78-0586-4990-9624-58BD59020D5A*%
%TF.FilePolarity,Positive*%
%TF.FileFunction,Other,Top_Tenting*%
%TF.Part,Single*%
G01*
G75*
%TA.AperFunction,SMDPad,CuDef*%
%ADD110C,0.60000*%
D110*
X2998042Y1416441D02*
D03*
X3368042Y1436441D02*
D03*
X3328042Y1756441D02*
D03*
X3388042Y1506441D02*
D03*
X3224241Y2355042D02*
D03*
X2928042Y1436441D02*
D03*
X2908042Y1506441D02*
D03*
X3150000Y2355042D02*
D03*
X3298042Y1416441D02*
D03*
X2968042Y1756441D02*
D03*
X3208042D02*
D03*
X3088042D02*
D03*
X3213200Y1879899D02*
D03*
X3086200D02*
D03*
X3071841Y2355042D02*
D03*
X5680000Y3120000D02*
D03*
X5590000D02*
D03*
X3750000Y3010000D02*
D03*
X6860000Y3430000D02*
D03*
X6960000D02*
D03*
X6730000D02*
D03*
X6630000D02*
D03*
X3230000Y2660000D02*
D03*
X3000000D02*
D03*
X2920000D02*
D03*
X2840000D02*
D03*
X2760000D02*
D03*
X3310000D02*
D03*
X3390000D02*
D03*
X3470000D02*
D03*
X3550000D02*
D03*
X3080000D02*
D03*
X4650000Y3040000D02*
D03*
Y2930000D02*
D03*
Y2830000D02*
D03*
Y2730000D02*
D03*
X5230000D02*
D03*
Y2830000D02*
D03*
Y2930000D02*
D03*
Y3030000D02*
D03*
Y3130000D02*
D03*
X5370000Y3210000D02*
D03*
X5470000D02*
D03*
X5760000Y2650000D02*
D03*
X3430000Y2590000D02*
D03*
X3350000D02*
D03*
X3270000D02*
D03*
X3510000D02*
D03*
X3040000Y2590000D02*
D03*
X2960000D02*
D03*
X2880000D02*
D03*
X2800000D02*
D03*
X4390000Y3510000D02*
D03*
X4530000Y2360000D02*
D03*
X4410000D02*
D03*
X4510000Y2160000D02*
D03*
Y1960000D02*
D03*
Y1760000D02*
D03*
Y1510000D02*
D03*
Y1310000D02*
D03*
X4570000Y1630000D02*
D03*
X4590000Y2310000D02*
D03*
X6020000Y1470000D02*
D03*
X6110000D02*
D03*
X5040000Y2320000D02*
D03*
Y2410000D02*
D03*
X5170000Y1350000D02*
D03*
Y1270000D02*
D03*
X4510000Y3510000D02*
D03*
X4720000Y3610000D02*
D03*
X5340000Y4010000D02*
D03*
X5700000Y3980000D02*
D03*
X5750000Y3580000D02*
D03*
X5950000D02*
D03*
X5550000D02*
D03*
X6040000Y4100000D02*
D03*
X5290000Y3940000D02*
D03*
X2600000Y2050000D02*
D03*
X2500000Y2140000D02*
D03*
X2300000Y2030000D02*
D03*
Y2140000D02*
D03*
X2400000D02*
D03*
X2300000Y1860000D02*
D03*
Y1770000D02*
D03*
X2400000D02*
D03*
X2500000D02*
D03*
X2600000Y1840000D02*
D03*
Y2140000D02*
D03*
X2930000Y1860000D02*
D03*
X3370000D02*
D03*
X2310000Y1320000D02*
D03*
Y1120000D02*
D03*
X2230000Y1420000D02*
D03*
X1630000Y1370000D02*
D03*
X1550000Y1420000D02*
D03*
X1630000Y1270000D02*
D03*
Y1180000D02*
D03*
X4880000Y4870000D02*
D03*
X4970000D02*
D03*
X5060000D02*
D03*
X6240000Y5540000D02*
D03*
X6510000D02*
D03*
X6420000D02*
D03*
X6330000D02*
D03*
X6960000Y3120000D02*
D03*
X6860000D02*
D03*
X6730000D02*
D03*
X6630000D02*
D03*
X5360000Y2690000D02*
D03*
X5540000Y2650000D02*
D03*
X5680000Y2750000D02*
D03*
X5010000Y6040000D02*
D03*
X2910000D02*
D03*
X4810000D02*
D03*
X3650000D02*
D03*
X3550000D02*
D03*
X3010000D02*
D03*
X3850000D02*
D03*
X5110000D02*
D03*
X2710000D02*
D03*
X2810000D02*
D03*
X4910000D02*
D03*
X3750000D02*
D03*
X3430000D02*
D03*
X3330000D02*
D03*
X3130000D02*
D03*
X3230000D02*
D03*
X4270000D02*
D03*
X4170000D02*
D03*
X4070000D02*
D03*
X3970000D02*
D03*
X4390000D02*
D03*
X4590000D02*
D03*
X4690000D02*
D03*
X4490000D02*
D03*
X5230000D02*
D03*
X5430000D02*
D03*
X5330000D02*
D03*
X5530000D02*
D03*
X5480000Y6110000D02*
D03*
X5280000D02*
D03*
X5380000D02*
D03*
X4960000D02*
D03*
X4860000D02*
D03*
X5060000D02*
D03*
X4540000D02*
D03*
X4440000D02*
D03*
X4640000D02*
D03*
X4120000D02*
D03*
X4020000D02*
D03*
X4220000D02*
D03*
X3700000D02*
D03*
X3600000D02*
D03*
X3800000D02*
D03*
X3280000D02*
D03*
X3180000D02*
D03*
X3380000D02*
D03*
X2860000D02*
D03*
X2760000D02*
D03*
X2960000D02*
D03*
X3030000Y1950000D02*
D03*
X3270000D02*
D03*
X2230000Y2240000D02*
D03*
X2190000Y1900000D02*
D03*
X2470000Y2250000D02*
D03*
X2520000Y3000000D02*
D03*
X2430000D02*
D03*
X2610000D02*
D03*
X5460000Y2680000D02*
D03*
X1540000Y570000D02*
D03*
X1700000D02*
D03*
X1370000D02*
D03*
X1700000Y400000D02*
D03*
X1370000D02*
D03*
X5590000Y2750000D02*
D03*
X5060000Y4790000D02*
D03*
X3750000Y2930000D02*
D03*
X3810000Y2890000D02*
D03*
X3630000Y2740000D02*
D03*
X3810000Y2970000D02*
D03*
X3950000Y2940000D02*
D03*
X4040000D02*
D03*
X4230000Y3350000D02*
D03*
X3750000Y3090000D02*
D03*
X3810000Y3050000D02*
D03*
X3750000Y2850000D02*
D03*
X4130000Y3160000D02*
D03*
X4210000D02*
D03*
X4130000Y3080000D02*
D03*
Y3240000D02*
D03*
X4610000Y3450000D02*
D03*
X4710000D02*
D03*
X4660000Y3520000D02*
D03*
X4780000D02*
D03*
X4720000Y3710000D02*
D03*
Y3810000D02*
D03*
X4640000Y3760000D02*
D03*
X4500000Y2060000D02*
D03*
X4530000Y2260000D02*
D03*
X4500000Y1860000D02*
D03*
X4490000Y1630000D02*
D03*
Y1410000D02*
D03*
X4580000D02*
D03*
X4590000Y1860000D02*
D03*
X4580000Y2060000D02*
D03*
X4170000Y2410000D02*
D03*
X4230000Y2360000D02*
D03*
X4310000Y2380000D02*
D03*
X4300000Y2300000D02*
D03*
Y3420000D02*
D03*
X4180000Y2560000D02*
D03*
X4100000Y2470000D02*
D03*
Y2640000D02*
D03*
Y2560000D02*
D03*
X3590000Y2590000D02*
D03*
X2720000D02*
D03*
X2760000Y2520000D02*
D03*
X2840000D02*
D03*
X2920000D02*
D03*
X3550000D02*
D03*
X3470000D02*
D03*
X3390000D02*
D03*
X2680000Y2660000D02*
D03*
X3630000D02*
D03*
X2680000Y2740000D02*
D03*
X6920000Y2360000D02*
D03*
Y2480000D02*
D03*
X7190000Y2740000D02*
D03*
Y2940000D02*
D03*
X6300000Y4960000D02*
D03*
X5990000D02*
D03*
X5700000D02*
D03*
X5270000Y4830000D02*
D03*
X5550000Y4830000D02*
D03*
X5850000D02*
D03*
X6150000D02*
D03*
X1500000Y2099999D02*
D03*
X1649999Y2399999D02*
D03*
X1500000Y2699999D02*
D03*
X1649999Y2999999D02*
D03*
X1500000Y3299999D02*
D03*
X1649999Y3599999D02*
D03*
X1500000Y3899999D02*
D03*
X1649999Y4199999D02*
D03*
X1500000Y4499999D02*
D03*
Y6299998D02*
D03*
X1799999Y300000D02*
D03*
X1949999Y2399999D02*
D03*
X1799999Y2699999D02*
D03*
X1949999Y2999999D02*
D03*
X1799999Y3299999D02*
D03*
X1949999Y3599999D02*
D03*
X1799999Y3899999D02*
D03*
X1949999Y4199999D02*
D03*
X1799999Y4499999D02*
D03*
Y6299998D02*
D03*
X2249999Y2399999D02*
D03*
X2099999Y2699999D02*
D03*
X2249999Y2999999D02*
D03*
X2099999Y3299999D02*
D03*
Y3899999D02*
D03*
Y6299998D02*
D03*
X2399999Y300000D02*
D03*
Y1500000D02*
D03*
Y6299998D02*
D03*
X2699999Y300000D02*
D03*
Y6299998D02*
D03*
X2999999Y300000D02*
D03*
Y6299998D02*
D03*
X3299999Y300000D02*
D03*
Y6299998D02*
D03*
X3599999Y300000D02*
D03*
X3749999Y1799999D02*
D03*
X3599999Y2099999D02*
D03*
X3899999Y300000D02*
D03*
Y1500000D02*
D03*
Y2099999D02*
D03*
Y6299998D02*
D03*
X4199999D02*
D03*
X4499999D02*
D03*
X4799999D02*
D03*
X5099998D02*
D03*
X5399998D02*
D03*
X5849998Y5999998D02*
D03*
X5699998Y6299998D02*
D03*
X6149998Y5999998D02*
D03*
X5999998Y6299998D02*
D03*
X6299998Y5699998D02*
D03*
X6449998Y5999998D02*
D03*
X6299998Y6299998D02*
D03*
X6599998Y5699998D02*
D03*
X2400000Y2700000D02*
D03*
X6150000Y5090000D02*
D03*
X3910000Y6110000D02*
D03*
X4330000D02*
D03*
X4750000D02*
D03*
X3490000D02*
D03*
X3070000D02*
D03*
X2650000D02*
D03*
X2490000Y6040000D02*
D03*
X2540000Y6110000D02*
D03*
X2390000Y6040000D02*
D03*
X2590000D02*
D03*
X2440000Y6110000D02*
D03*
X2290000Y6040000D02*
D03*
X2340000Y6110000D02*
D03*
X2230000Y6110000D02*
D03*
X2170000Y6040000D02*
D03*
X1920000Y6110000D02*
D03*
X2120000D02*
D03*
X1970000Y6040000D02*
D03*
X1870000D02*
D03*
X2070000D02*
D03*
X1810000Y6110000D02*
D03*
X2020000Y6110000D02*
D03*
X1750000Y6040000D02*
D03*
X1450000D02*
D03*
X1600000Y6110000D02*
D03*
X1500000D02*
D03*
X1650000Y6040000D02*
D03*
X1700000Y6110000D02*
D03*
X1550000Y6040000D02*
D03*
X5170000Y6110000D02*
D03*
X5070000Y2220000D02*
D03*
X4650000Y3150000D02*
D03*
X4190000Y3280000D02*
D03*
X1649999Y6599998D02*
D03*
X2249999D02*
D03*
X5250000Y6600000D02*
D03*
X4950000D02*
D03*
X4650000D02*
D03*
X3450000D02*
D03*
X3750000D02*
D03*
X4050000D02*
D03*
X4350000D02*
D03*
X5550001D02*
D03*
X5850000D02*
D03*
X3150001D02*
D03*
X3310000Y2250000D02*
D03*
%TF.MD5,5f3034cd6f4335efae755c3c90136c7a*%
M02*
