%TF.GenerationSoftware,Altium Limited,Altium Designer,22.9.1 (49)*%
G04 Layer_Color=65535*
%FSLAX45Y45*%
%MOMM*%
%TF.SameCoordinates,E77D5F78-0586-4990-9624-58BD59020D5A*%
%TF.FilePolarity,Positive*%
%TF.FileFunction,Legend,Top*%
%TF.Part,Single*%
G01*
G75*
%TA.AperFunction,NonConductor*%
%ADD63C,0.10000*%
%ADD64C,0.20000*%
%ADD74C,0.50000*%
%ADD75C,0.25000*%
%ADD76C,0.30000*%
%ADD77C,0.12700*%
%ADD78C,0.15240*%
%ADD79C,0.15000*%
%ADD80C,0.25400*%
G36*
X6842424Y2073485D02*
X6859849D01*
Y2070581D01*
X6871465D01*
Y2067677D01*
X6874369D01*
Y2058965D01*
X6856945D01*
Y2061869D01*
X6848232D01*
Y2056061D01*
X6845328D01*
Y2047348D01*
X6851137D01*
Y2044444D01*
X6865657D01*
Y2041540D01*
X6868561D01*
Y2035732D01*
X6865657D01*
Y2032828D01*
X6854041D01*
Y2035732D01*
X6842424D01*
Y2029924D01*
X6839520D01*
Y2021212D01*
X6842424D01*
Y2018308D01*
X6854041D01*
Y2015404D01*
X6865657D01*
Y2003788D01*
X6854041D01*
Y2006692D01*
X6836616D01*
Y2009596D01*
X6827904D01*
Y2012500D01*
X6825000D01*
Y2029924D01*
X6827904D01*
Y2044444D01*
X6830808D01*
Y2056061D01*
X6833712D01*
Y2073485D01*
X6836616D01*
Y2076389D01*
X6842424D01*
Y2073485D01*
D02*
G37*
G36*
X6790152Y2079293D02*
X6810480D01*
Y2076389D01*
X6813384D01*
Y2067677D01*
X6787248D01*
Y2058965D01*
Y2056061D01*
Y2053156D01*
X6810480D01*
Y2041540D01*
X6793056D01*
Y2044444D01*
X6790152D01*
Y2041540D01*
X6784344D01*
Y2027020D01*
X6795960D01*
Y2024116D01*
X6810480D01*
Y2012500D01*
X6793056D01*
Y2015404D01*
X6769823D01*
Y2044444D01*
X6772727D01*
Y2079293D01*
X6775632D01*
Y2082197D01*
X6790152D01*
Y2079293D01*
D02*
G37*
G36*
X6755303Y2021212D02*
X6758207D01*
Y2018308D01*
X6755303D01*
Y2015404D01*
X6740783D01*
Y2018308D01*
X6737879D01*
Y2024116D01*
X6734975D01*
Y2027020D01*
X6732071D01*
Y2032828D01*
X6729167D01*
Y2038636D01*
X6726263D01*
Y2041540D01*
X6723359D01*
Y2047348D01*
X6720455D01*
Y2053156D01*
X6717551D01*
Y2058965D01*
X6714647D01*
Y2015404D01*
X6711743D01*
Y2012500D01*
X6705935D01*
Y2015404D01*
X6703031D01*
Y2035732D01*
X6700127D01*
Y2079293D01*
X6717551D01*
Y2076389D01*
X6720455D01*
Y2073485D01*
X6723359D01*
Y2067677D01*
X6726263D01*
Y2061869D01*
X6729167D01*
Y2058965D01*
X6732071D01*
Y2053156D01*
X6734975D01*
Y2047348D01*
X6737879D01*
Y2041540D01*
X6740783D01*
Y2038636D01*
X6743687D01*
Y2053156D01*
X6740783D01*
Y2082197D01*
X6755303D01*
Y2021212D01*
D02*
G37*
G36*
X6682702Y2056061D02*
X6685606D01*
Y2041540D01*
Y2038636D01*
Y2029924D01*
X6688510D01*
Y2018308D01*
X6691414D01*
Y2012500D01*
X6688510D01*
Y2009596D01*
X6676894D01*
Y2018308D01*
X6673990D01*
Y2032828D01*
X6671086D01*
Y2058965D01*
X6668182D01*
Y2076389D01*
X6682702D01*
Y2056061D01*
D02*
G37*
G36*
X6578157Y2044444D02*
X6581061D01*
Y2038636D01*
X6583965D01*
Y2027020D01*
X6586869D01*
Y2024116D01*
X6589773D01*
Y2021212D01*
Y2018308D01*
Y2015404D01*
X6592677D01*
Y2006692D01*
X6595581D01*
Y2000884D01*
X6598485D01*
Y1992172D01*
X6595581D01*
Y1989268D01*
X6581061D01*
Y1992172D01*
X6578157D01*
Y1995076D01*
X6575253D01*
Y1997980D01*
X6569445D01*
Y2000884D01*
X6566541D01*
Y2003788D01*
X6563637D01*
Y2006692D01*
X6560733D01*
Y2009596D01*
X6557828D01*
Y2012500D01*
X6554924D01*
Y2015404D01*
X6552020D01*
Y2018308D01*
X6546212D01*
Y2021212D01*
X6543308D01*
Y2018308D01*
X6546212D01*
Y2009596D01*
X6549116D01*
Y2003788D01*
X6552020D01*
Y1995076D01*
X6554924D01*
Y1989268D01*
X6557828D01*
Y1983460D01*
X6560733D01*
Y1977651D01*
X6557828D01*
Y1974747D01*
X6546212D01*
Y1983460D01*
X6543308D01*
Y1989268D01*
X6540404D01*
Y1997980D01*
X6537500D01*
Y2006692D01*
X6534596D01*
Y2012500D01*
X6531692D01*
Y2021212D01*
X6528788D01*
Y2029924D01*
X6525884D01*
Y2035732D01*
X6531692D01*
Y2038636D01*
X6537500D01*
Y2041540D01*
X6540404D01*
Y2038636D01*
X6546212D01*
Y2035732D01*
X6549116D01*
Y2032828D01*
X6552020D01*
Y2029924D01*
X6554924D01*
Y2027020D01*
X6560733D01*
Y2024116D01*
X6563637D01*
Y2021212D01*
X6566541D01*
Y2018308D01*
X6569445D01*
Y2015404D01*
X6572349D01*
Y2012500D01*
X6575253D01*
Y2009596D01*
X6578157D01*
Y2018308D01*
X6575253D01*
Y2024116D01*
X6572349D01*
Y2029924D01*
X6569445D01*
Y2038636D01*
X6566541D01*
Y2044444D01*
X6563637D01*
Y2047348D01*
X6566541D01*
Y2050252D01*
X6569445D01*
Y2053156D01*
X6578157D01*
Y2044444D01*
D02*
G37*
G36*
X6647854Y2058965D02*
X6630429D01*
Y2056061D01*
X6624621D01*
Y2053156D01*
X6621717D01*
Y2050252D01*
X6618813D01*
Y2047348D01*
X6615909D01*
Y2038636D01*
X6613005D01*
Y2032828D01*
X6615909D01*
Y2024116D01*
X6618813D01*
Y2021212D01*
X6621717D01*
Y2018308D01*
X6624621D01*
Y2015404D01*
X6627525D01*
Y2012500D01*
X6644950D01*
Y2015404D01*
X6647854D01*
Y2027020D01*
X6644950D01*
Y2029924D01*
X6636238D01*
Y2032828D01*
X6633333D01*
Y2038636D01*
X6636238D01*
Y2041540D01*
X6647854D01*
Y2044444D01*
X6656566D01*
Y2038636D01*
X6659470D01*
Y2024116D01*
X6662374D01*
Y2009596D01*
X6659470D01*
Y2006692D01*
X6650758D01*
Y2003788D01*
X6642046D01*
Y2000884D01*
X6621717D01*
Y2003788D01*
X6615909D01*
Y2006692D01*
X6610101D01*
Y2009596D01*
X6607197D01*
Y2015404D01*
X6604293D01*
Y2018308D01*
X6601389D01*
Y2032828D01*
X6598485D01*
Y2038636D01*
X6601389D01*
Y2050252D01*
X6604293D01*
Y2053156D01*
X6607197D01*
Y2058965D01*
X6613005D01*
Y2061869D01*
X6615909D01*
Y2064773D01*
X6621717D01*
Y2067677D01*
X6636238D01*
Y2070581D01*
X6647854D01*
Y2058965D01*
D02*
G37*
G36*
X6906313D02*
X6917930D01*
Y2056061D01*
X6920834D01*
Y2053156D01*
X6926642D01*
Y2050252D01*
X6929546D01*
Y2047348D01*
X6932450D01*
Y2029924D01*
X6929546D01*
Y2027020D01*
X6926642D01*
Y2024116D01*
X6923737D01*
Y2021212D01*
X6917930D01*
Y2015404D01*
X6920834D01*
Y2000884D01*
Y1997980D01*
Y1986364D01*
X6917930D01*
Y1989268D01*
X6909217D01*
Y1992172D01*
X6906313D01*
Y2015404D01*
X6903409D01*
Y2021212D01*
X6894697D01*
Y2015404D01*
X6891793D01*
Y2006692D01*
X6888889D01*
Y1997980D01*
X6877273D01*
Y2000884D01*
X6874369D01*
Y2009596D01*
X6877273D01*
Y2015404D01*
X6880177D01*
Y2027020D01*
X6883081D01*
Y2035732D01*
X6885985D01*
Y2044444D01*
X6888889D01*
Y2056061D01*
X6891793D01*
Y2061869D01*
X6906313D01*
Y2058965D01*
D02*
G37*
G36*
X6955682Y2041540D02*
X6961490D01*
Y2038636D01*
X6964394D01*
Y2029924D01*
X6961490D01*
Y2024116D01*
X6958586D01*
Y2015404D01*
X6955682D01*
Y2006692D01*
X6952778D01*
Y2003788D01*
X6949874D01*
Y1995076D01*
X6946970D01*
Y1986364D01*
X6944066D01*
Y1980556D01*
X6941162D01*
Y1977651D01*
X6935354D01*
Y1980556D01*
X6932450D01*
Y1983460D01*
X6929546D01*
Y1989268D01*
X6932450D01*
Y1997980D01*
X6935354D01*
Y2003788D01*
X6938258D01*
Y2009596D01*
X6941162D01*
Y2018308D01*
X6944066D01*
Y2027020D01*
X6946970D01*
Y2032828D01*
X6949874D01*
Y2041540D01*
X6952778D01*
Y2044444D01*
X6955682D01*
Y2041540D01*
D02*
G37*
G36*
X7060227Y1983460D02*
X7068940D01*
Y1980556D01*
X7077652D01*
Y1977651D01*
X7080556D01*
Y1974747D01*
X7083460D01*
Y1971843D01*
X7086364D01*
Y1968939D01*
X7089268D01*
Y1960227D01*
X7083460D01*
Y1957323D01*
X7080556D01*
Y1963131D01*
X7077652D01*
Y1966035D01*
X7071844D01*
Y1968939D01*
X7066036D01*
Y1971843D01*
X7051515D01*
Y1968939D01*
X7045707D01*
Y1966035D01*
X7042803D01*
Y1963131D01*
X7039899D01*
Y1957323D01*
X7036995D01*
Y1939899D01*
X7039899D01*
Y1936995D01*
X7042803D01*
Y1934091D01*
X7045707D01*
Y1931187D01*
X7048611D01*
Y1928283D01*
X7054419D01*
Y1931187D01*
X7057323D01*
Y1936995D01*
X7060227D01*
Y1942803D01*
X7054419D01*
Y1948611D01*
X7057323D01*
Y1954419D01*
X7063131D01*
Y1951515D01*
X7066036D01*
Y1948611D01*
X7071844D01*
Y1945707D01*
X7074748D01*
Y1942803D01*
X7077652D01*
Y1936995D01*
X7074748D01*
Y1934091D01*
X7071844D01*
Y1928283D01*
X7068940D01*
Y1925379D01*
X7066036D01*
Y1919571D01*
X7063131D01*
Y1916667D01*
X7060227D01*
Y1913762D01*
X7051515D01*
Y1916667D01*
X7048611D01*
Y1919571D01*
X7039899D01*
Y1922475D01*
X7036995D01*
Y1925379D01*
X7034091D01*
Y1928283D01*
X7031187D01*
Y1931187D01*
X7028283D01*
Y1934091D01*
X7025379D01*
Y1939899D01*
X7022475D01*
Y1963131D01*
X7025379D01*
Y1968939D01*
X7028283D01*
Y1971843D01*
X7031187D01*
Y1974747D01*
X7034091D01*
Y1977651D01*
X7036995D01*
Y1980556D01*
X7039899D01*
Y1983460D01*
X7051515D01*
Y1986364D01*
X7060227D01*
Y1983460D01*
D02*
G37*
G36*
X6508460Y2024116D02*
X6511364D01*
Y2015404D01*
X6508460D01*
Y2012500D01*
X6502652D01*
Y2009596D01*
X6499748D01*
Y2006692D01*
X6491036D01*
Y2000884D01*
X6493940D01*
Y1995076D01*
X6496844D01*
Y1992172D01*
X6502652D01*
Y1995076D01*
X6508460D01*
Y1997980D01*
X6514268D01*
Y2000884D01*
X6520076D01*
Y1997980D01*
X6522980D01*
Y1992172D01*
X6520076D01*
Y1989268D01*
X6514268D01*
Y1986364D01*
X6511364D01*
Y1983460D01*
X6505556D01*
Y1971843D01*
X6508460D01*
Y1968939D01*
X6511364D01*
Y1966035D01*
X6514268D01*
Y1968939D01*
X6517172D01*
Y1971843D01*
X6522980D01*
Y1974747D01*
X6531692D01*
Y1977651D01*
X6537500D01*
Y1966035D01*
X6531692D01*
Y1963131D01*
X6528788D01*
Y1960227D01*
X6520076D01*
Y1957323D01*
X6514268D01*
Y1954419D01*
X6511364D01*
Y1951515D01*
X6499748D01*
Y1957323D01*
X6496844D01*
Y1963131D01*
X6493940D01*
Y1968939D01*
X6491036D01*
Y1974747D01*
X6488132D01*
Y1980556D01*
X6485228D01*
Y1986364D01*
X6482323D01*
Y1992172D01*
X6479419D01*
Y1997980D01*
X6476515D01*
Y2003788D01*
X6473611D01*
Y2009596D01*
X6476515D01*
Y2012500D01*
X6485228D01*
Y2015404D01*
X6488132D01*
Y2018308D01*
X6493940D01*
Y2021212D01*
X6502652D01*
Y2024116D01*
X6505556D01*
Y2027020D01*
X6508460D01*
Y2024116D01*
D02*
G37*
G36*
X6990531Y2027020D02*
X6996339D01*
Y2024116D01*
X6999243D01*
Y1977651D01*
X7005051D01*
Y1986364D01*
X7007955D01*
Y1992172D01*
X7010859D01*
Y1997980D01*
X7013763D01*
Y2003788D01*
X7016667D01*
Y2006692D01*
X7019571D01*
Y2012500D01*
X7025379D01*
Y2009596D01*
X7028283D01*
Y2006692D01*
X7031187D01*
Y2000884D01*
X7028283D01*
Y1997980D01*
X7025379D01*
Y1989268D01*
X7022475D01*
Y1986364D01*
X7019571D01*
Y1977651D01*
X7016667D01*
Y1974747D01*
X7013763D01*
Y1968939D01*
X7010859D01*
Y1963131D01*
X7007955D01*
Y1957323D01*
X7005051D01*
Y1951515D01*
X7002147D01*
Y1948611D01*
X6999243D01*
Y1951515D01*
X6990531D01*
Y1954419D01*
X6987626D01*
Y2006692D01*
X6981818D01*
Y1997980D01*
X6978914D01*
Y1989268D01*
X6976010D01*
Y1986364D01*
X6973106D01*
Y1980556D01*
X6970202D01*
Y1974747D01*
X6967298D01*
Y1968939D01*
X6958586D01*
Y1971843D01*
X6955682D01*
Y1980556D01*
X6958586D01*
Y1986364D01*
X6961490D01*
Y1992172D01*
X6964394D01*
Y1997980D01*
X6967298D01*
Y2003788D01*
X6970202D01*
Y2006692D01*
Y2009596D01*
X6973106D01*
Y2015404D01*
X6976010D01*
Y2021212D01*
X6978914D01*
Y2027020D01*
X6981818D01*
Y2029924D01*
X6990531D01*
Y2027020D01*
D02*
G37*
G36*
X7129925Y1934091D02*
X7132829D01*
Y1931187D01*
X7135732D01*
Y1928283D01*
X7138636D01*
Y1925379D01*
X7141541D01*
Y1922475D01*
X7144445D01*
Y1919571D01*
X7147349D01*
Y1916667D01*
X7150253D01*
Y1896338D01*
X7147349D01*
Y1890530D01*
X7141541D01*
Y1887626D01*
X7118308D01*
Y1890530D01*
X7115404D01*
Y1893434D01*
X7112500D01*
Y1896338D01*
X7103788D01*
Y1893434D01*
X7100884D01*
Y1890530D01*
X7097980D01*
Y1887626D01*
X7095076D01*
Y1884722D01*
X7092172D01*
Y1881818D01*
X7089268D01*
Y1884722D01*
X7086364D01*
Y1887626D01*
X7083460D01*
Y1890530D01*
Y1893434D01*
Y1896338D01*
X7089268D01*
Y1902147D01*
X7092172D01*
Y1905051D01*
X7097980D01*
Y1910859D01*
X7100884D01*
Y1913762D01*
X7103788D01*
Y1916667D01*
X7106692D01*
Y1919571D01*
X7109596D01*
Y1922475D01*
X7112500D01*
Y1925379D01*
X7115404D01*
Y1928283D01*
X7118308D01*
Y1931187D01*
X7121212D01*
Y1934091D01*
X7124116D01*
Y1936995D01*
X7129925D01*
Y1934091D01*
D02*
G37*
G36*
X6778536Y1960227D02*
X6781440D01*
Y1957323D01*
X6787248D01*
Y1951515D01*
X6790152D01*
Y1948611D01*
X6793056D01*
Y1936995D01*
X6795960D01*
Y1928283D01*
X6798864D01*
Y1913762D01*
X6801768D01*
Y1902147D01*
X6804672D01*
Y1893434D01*
X6807576D01*
Y1890530D01*
X6819192D01*
Y1887626D01*
X6833712D01*
Y1890530D01*
X6836616D01*
Y1893434D01*
X6839520D01*
Y1902147D01*
X6842424D01*
Y1907955D01*
X6845328D01*
Y1910859D01*
X6848232D01*
Y1919571D01*
X6851137D01*
Y1925379D01*
X6854041D01*
Y1931187D01*
X6856945D01*
Y1936995D01*
X6859849D01*
Y1939899D01*
X6862753D01*
Y1942803D01*
X6865657D01*
Y1945707D01*
X6868561D01*
Y1948611D01*
X6874369D01*
Y1951515D01*
X6891793D01*
Y1948611D01*
X6900505D01*
Y1945707D01*
X6909217D01*
Y1942803D01*
X6920834D01*
Y1939899D01*
X6923737D01*
Y1936995D01*
X6926642D01*
Y1934091D01*
X6929546D01*
Y1931187D01*
X6932450D01*
Y1928283D01*
X6935354D01*
Y1899242D01*
X6932450D01*
Y1876010D01*
X6929546D01*
Y1864394D01*
X6926642D01*
Y1858586D01*
X6929546D01*
Y1855682D01*
X6935354D01*
Y1852778D01*
X6938258D01*
Y1849874D01*
X6944066D01*
Y1846970D01*
X6949874D01*
Y1844066D01*
X6958586D01*
Y1846970D01*
X6961490D01*
Y1849874D01*
X6964394D01*
Y1852778D01*
X6967298D01*
Y1855682D01*
X6973106D01*
Y1858586D01*
X6976010D01*
Y1861490D01*
X6978914D01*
Y1864394D01*
X6981818D01*
Y1867298D01*
X6987626D01*
Y1870202D01*
X6990531D01*
Y1873106D01*
X6993435D01*
Y1876010D01*
X6996339D01*
Y1878914D01*
X7002147D01*
Y1881818D01*
X7028283D01*
Y1878914D01*
X7034091D01*
Y1876010D01*
X7036995D01*
Y1873106D01*
X7039899D01*
Y1870202D01*
X7045707D01*
Y1867298D01*
X7048611D01*
Y1864394D01*
X7051515D01*
Y1861490D01*
X7054419D01*
Y1855682D01*
X7057323D01*
Y1832449D01*
X7054419D01*
Y1829545D01*
X7051515D01*
Y1823737D01*
X7048611D01*
Y1817929D01*
X7045707D01*
Y1815025D01*
X7042803D01*
Y1809217D01*
X7039899D01*
Y1806313D01*
X7036995D01*
Y1800505D01*
X7034091D01*
Y1794697D01*
X7031187D01*
Y1791793D01*
X7028283D01*
Y1785985D01*
X7025379D01*
Y1780177D01*
X7028283D01*
Y1774369D01*
X7031187D01*
Y1771465D01*
X7034091D01*
Y1768561D01*
X7036995D01*
Y1765657D01*
X7039899D01*
Y1762752D01*
X7048611D01*
Y1765657D01*
X7057323D01*
Y1768561D01*
X7060227D01*
Y1771465D01*
X7071844D01*
Y1774369D01*
X7077652D01*
Y1777273D01*
X7083460D01*
Y1780177D01*
X7095076D01*
Y1783081D01*
X7109596D01*
Y1780177D01*
X7115404D01*
Y1777273D01*
X7121212D01*
Y1771465D01*
X7124116D01*
Y1768561D01*
X7127020D01*
Y1762752D01*
X7129925D01*
Y1756944D01*
X7132829D01*
Y1754040D01*
X7135732D01*
Y1727904D01*
X7132829D01*
Y1722096D01*
X7129925D01*
Y1719192D01*
X7127020D01*
Y1716288D01*
X7124116D01*
Y1713384D01*
X7121212D01*
Y1710480D01*
X7115404D01*
Y1707576D01*
X7112500D01*
Y1704672D01*
X7109596D01*
Y1701768D01*
X7106692D01*
Y1698864D01*
X7103788D01*
Y1695960D01*
X7097980D01*
Y1693056D01*
X7095076D01*
Y1690152D01*
X7092172D01*
Y1687248D01*
X7089268D01*
Y1684343D01*
X7086364D01*
Y1672727D01*
X7089268D01*
Y1664015D01*
X7092172D01*
Y1658207D01*
X7112500D01*
Y1655303D01*
X7153157D01*
Y1652399D01*
X7158965D01*
Y1649495D01*
X7164773D01*
Y1646591D01*
X7167677D01*
Y1643687D01*
X7170581D01*
Y1637879D01*
X7173485D01*
Y1626263D01*
X7176389D01*
Y1605934D01*
X7179293D01*
Y1603030D01*
X7182197D01*
Y1600126D01*
X7188005D01*
Y1597222D01*
X7190909D01*
Y1594318D01*
X7196717D01*
Y1591414D01*
X7202525D01*
Y1588510D01*
X7205430D01*
Y1585606D01*
X7211238D01*
Y1582702D01*
X7214142D01*
Y1579798D01*
X7219950D01*
Y1576894D01*
X7225758D01*
Y1573990D01*
X7228662D01*
Y1571086D01*
X7234470D01*
Y1568182D01*
X7237374D01*
Y1565278D01*
X7240278D01*
Y1562374D01*
X7246086D01*
Y1559470D01*
X7248990D01*
Y1556566D01*
X7254798D01*
Y1553662D01*
X7260606D01*
Y1550758D01*
X7263510D01*
Y1547853D01*
X7266414D01*
Y1544949D01*
X7272222D01*
Y1542045D01*
X7275126D01*
Y1539141D01*
X7280935D01*
Y1536237D01*
X7283839D01*
Y1533333D01*
X7286743D01*
Y1530429D01*
X7292551D01*
Y1527525D01*
X7295455D01*
Y1524621D01*
X7298359D01*
Y1521717D01*
X7304167D01*
Y1518813D01*
X7307071D01*
Y1515909D01*
X7309975D01*
Y1513005D01*
X7312879D01*
Y1510101D01*
X7318687D01*
Y1507197D01*
X7321591D01*
Y1504293D01*
X7324495D01*
Y1501389D01*
X7327399D01*
Y1498485D01*
X7330303D01*
Y1495581D01*
X7333207D01*
Y1492677D01*
X7339015D01*
Y1489773D01*
X7341919D01*
Y1486869D01*
X7344824D01*
Y1483965D01*
X7347727D01*
Y1481061D01*
X7350631D01*
Y1478157D01*
X7353535D01*
Y1475253D01*
X7356440D01*
Y1472349D01*
X7359344D01*
Y1469444D01*
X7362248D01*
Y1463636D01*
X7365152D01*
Y1460732D01*
X7368056D01*
Y1457828D01*
X7370960D01*
Y1454924D01*
X7373864D01*
Y1452020D01*
X7376768D01*
Y1446212D01*
X7379672D01*
Y1443308D01*
X7382576D01*
Y1437500D01*
X7385480D01*
Y1428788D01*
X7388384D01*
Y1422980D01*
X7391288D01*
Y1393939D01*
X7388384D01*
Y1391035D01*
X7385480D01*
Y1385227D01*
X7382576D01*
Y1379419D01*
X7379672D01*
Y1376515D01*
X7373864D01*
Y1373611D01*
X7370960D01*
Y1370707D01*
X7365152D01*
Y1367803D01*
X7356440D01*
Y1364899D01*
X7353535D01*
Y1361995D01*
X7330303D01*
Y1359091D01*
X7298359D01*
Y1361995D01*
X7263510D01*
Y1364899D01*
X7251894D01*
Y1367803D01*
X7231566D01*
Y1370707D01*
X7217046D01*
Y1373611D01*
X7205430D01*
Y1376515D01*
X7188005D01*
Y1379419D01*
X7182197D01*
Y1382323D01*
X7167677D01*
Y1385227D01*
X7153157D01*
Y1388131D01*
X7147349D01*
Y1391035D01*
X7135732D01*
Y1393939D01*
X7124116D01*
Y1396844D01*
X7115404D01*
Y1399748D01*
X7103788D01*
Y1402651D01*
X7097980D01*
Y1405555D01*
X7086364D01*
Y1408459D01*
X7074748D01*
Y1411364D01*
X7071844D01*
Y1414268D01*
X7068940D01*
Y1411364D01*
X7066036D01*
Y1408459D01*
X7063131D01*
Y1405555D01*
X7060227D01*
Y1396844D01*
X7063131D01*
Y1393939D01*
X7066036D01*
Y1391035D01*
X7068940D01*
Y1388131D01*
X7071844D01*
Y1385227D01*
X7074748D01*
Y1379419D01*
X7077652D01*
Y1376515D01*
X7080556D01*
Y1373611D01*
X7083460D01*
Y1370707D01*
X7086364D01*
Y1367803D01*
X7089268D01*
Y1364899D01*
X7092172D01*
Y1361995D01*
X7095076D01*
Y1356187D01*
X7097980D01*
Y1353283D01*
X7100884D01*
Y1347475D01*
X7103788D01*
Y1330050D01*
X7100884D01*
Y1327146D01*
X7097980D01*
Y1321338D01*
X7095076D01*
Y1318434D01*
X7092172D01*
Y1315530D01*
X7089268D01*
Y1312626D01*
X7086364D01*
Y1309722D01*
X7083460D01*
Y1303914D01*
X7080556D01*
Y1301010D01*
X7074748D01*
Y1298106D01*
X7068940D01*
Y1295202D01*
X7048611D01*
Y1298106D01*
X7042803D01*
Y1301010D01*
X7039899D01*
Y1303914D01*
X7034091D01*
Y1306818D01*
X7028283D01*
Y1309722D01*
X7025379D01*
Y1312626D01*
X7022475D01*
Y1315530D01*
X7016667D01*
Y1318434D01*
X7013763D01*
Y1321338D01*
X7007955D01*
Y1324242D01*
X7005051D01*
Y1327146D01*
X6996339D01*
Y1324242D01*
X6993435D01*
Y1321338D01*
X6987626D01*
Y1318434D01*
X6984722D01*
Y1315530D01*
X6981818D01*
Y1312626D01*
X6978914D01*
Y1309722D01*
X6976010D01*
Y1306818D01*
X6970202D01*
Y1295202D01*
X6973106D01*
Y1283586D01*
X6976010D01*
Y1277778D01*
X6978914D01*
Y1269066D01*
X6981818D01*
Y1260354D01*
X6984722D01*
Y1254545D01*
X6987626D01*
Y1234217D01*
X6984722D01*
Y1231313D01*
X6981818D01*
Y1225505D01*
X6978914D01*
Y1222601D01*
X6973106D01*
Y1219697D01*
X6967298D01*
Y1216793D01*
X6964394D01*
Y1213889D01*
X6955682D01*
Y1210985D01*
X6946970D01*
Y1208081D01*
X6932450D01*
Y1210985D01*
X6926642D01*
Y1213889D01*
X6920834D01*
Y1216793D01*
X6917930D01*
Y1219697D01*
X6915026D01*
Y1222601D01*
X6912121D01*
Y1228409D01*
X6909217D01*
Y1231313D01*
X6906313D01*
Y1234217D01*
X6903409D01*
Y1240025D01*
X6900505D01*
Y1242929D01*
X6897601D01*
Y1245833D01*
X6894697D01*
Y1251641D01*
X6888889D01*
Y1257450D01*
X6885985D01*
Y1260354D01*
X6883081D01*
Y1263258D01*
X6880177D01*
Y1260354D01*
X6868561D01*
Y1257450D01*
X6856945D01*
Y1254545D01*
X6854041D01*
Y1251641D01*
X6851137D01*
Y1231313D01*
X6848232D01*
Y1196465D01*
X6845328D01*
Y1190656D01*
X6842424D01*
Y1184849D01*
X6839520D01*
Y1181945D01*
X6836616D01*
Y1179040D01*
X6830808D01*
Y1176136D01*
X6825000D01*
Y1173232D01*
X6784344D01*
Y1176136D01*
X6781440D01*
Y1179040D01*
X6778536D01*
Y1181945D01*
X6772727D01*
Y1187753D01*
X6769823D01*
Y1196465D01*
X6766919D01*
Y1205177D01*
X6764015D01*
Y1219697D01*
X6761111D01*
Y1231313D01*
X6758207D01*
Y1242929D01*
X6755303D01*
Y1248737D01*
X6740783D01*
Y1251641D01*
X6723359D01*
Y1245833D01*
X6720455D01*
Y1242929D01*
X6717551D01*
Y1237121D01*
X6714647D01*
Y1231313D01*
X6711743D01*
Y1228409D01*
X6708839D01*
Y1222601D01*
X6705935D01*
Y1216793D01*
X6703031D01*
Y1213889D01*
X6700127D01*
Y1208081D01*
X6697222D01*
Y1202273D01*
X6694318D01*
Y1199369D01*
X6691414D01*
Y1196465D01*
X6685606D01*
Y1193560D01*
X6679798D01*
Y1190656D01*
X6662374D01*
Y1193560D01*
X6656566D01*
Y1196465D01*
X6647854D01*
Y1199369D01*
X6639142D01*
Y1202273D01*
X6636238D01*
Y1205177D01*
X6630429D01*
Y1210985D01*
X6627525D01*
Y1213889D01*
X6624621D01*
Y1248737D01*
X6627525D01*
Y1266162D01*
X6630429D01*
Y1286490D01*
X6627525D01*
Y1289394D01*
X6621717D01*
Y1292298D01*
X6615909D01*
Y1295202D01*
X6607197D01*
Y1298106D01*
X6604293D01*
Y1295202D01*
X6595581D01*
Y1292298D01*
X6592677D01*
Y1289394D01*
X6586869D01*
Y1286490D01*
X6583965D01*
Y1283586D01*
X6581061D01*
Y1280682D01*
X6575253D01*
Y1277778D01*
X6572349D01*
Y1274874D01*
X6569445D01*
Y1271970D01*
X6563637D01*
Y1269066D01*
X6560733D01*
Y1266162D01*
X6552020D01*
Y1263258D01*
X6537500D01*
Y1266162D01*
X6528788D01*
Y1269066D01*
X6525884D01*
Y1271970D01*
X6522980D01*
Y1274874D01*
X6520076D01*
Y1277778D01*
X6517172D01*
Y1280682D01*
X6514268D01*
Y1283586D01*
X6511364D01*
Y1286490D01*
X6508460D01*
Y1312626D01*
X6511364D01*
Y1315530D01*
X6514268D01*
Y1321338D01*
X6517172D01*
Y1327146D01*
X6520076D01*
Y1332954D01*
X6522980D01*
Y1338763D01*
X6525884D01*
Y1341667D01*
X6528788D01*
Y1347475D01*
X6531692D01*
Y1353283D01*
X6534596D01*
Y1356187D01*
X6537500D01*
Y1364899D01*
X6534596D01*
Y1367803D01*
X6531692D01*
Y1370707D01*
X6528788D01*
Y1373611D01*
X6525884D01*
Y1376515D01*
X6522980D01*
Y1379419D01*
X6520076D01*
Y1382323D01*
X6517172D01*
Y1385227D01*
X6505556D01*
Y1382323D01*
X6493940D01*
Y1379419D01*
X6485228D01*
Y1376515D01*
X6473611D01*
Y1373611D01*
X6464899D01*
Y1370707D01*
X6450379D01*
Y1373611D01*
X6444571D01*
Y1376515D01*
X6438763D01*
Y1379419D01*
X6435859D01*
Y1382323D01*
X6432955D01*
Y1385227D01*
X6430051D01*
Y1393939D01*
X6427147D01*
Y1399748D01*
X6424243D01*
Y1402651D01*
X6421339D01*
Y1428788D01*
X6424243D01*
Y1431692D01*
X6427147D01*
Y1437500D01*
X6432955D01*
Y1440404D01*
X6435859D01*
Y1443308D01*
X6438763D01*
Y1446212D01*
X6444571D01*
Y1449116D01*
X6447475D01*
Y1452020D01*
X6453283D01*
Y1454924D01*
X6456187D01*
Y1457828D01*
X6459091D01*
Y1460732D01*
X6464899D01*
Y1463636D01*
X6467803D01*
Y1466540D01*
X6470707D01*
Y1469444D01*
X6476515D01*
Y1481061D01*
X6473611D01*
Y1492677D01*
X6470707D01*
Y1504293D01*
X6467803D01*
Y1507197D01*
X6459091D01*
Y1510101D01*
X6430051D01*
Y1513005D01*
X6412626D01*
Y1515909D01*
X6401010D01*
Y1518813D01*
X6398106D01*
Y1521717D01*
X6395202D01*
Y1524621D01*
X6392298D01*
Y1530429D01*
X6389394D01*
Y1576894D01*
X6392298D01*
Y1579798D01*
X6395202D01*
Y1585606D01*
X6401010D01*
Y1588510D01*
X6403914D01*
Y1591414D01*
X6421339D01*
Y1594318D01*
X6444571D01*
Y1597222D01*
X6461995D01*
Y1600126D01*
X6464899D01*
Y1617550D01*
X6467803D01*
Y1626263D01*
X6464899D01*
Y1629167D01*
X6461995D01*
Y1632071D01*
X6456187D01*
Y1634975D01*
X6450379D01*
Y1637879D01*
X6447475D01*
Y1640783D01*
X6441667D01*
Y1643687D01*
X6438763D01*
Y1646591D01*
X6430051D01*
Y1649495D01*
X6427147D01*
Y1652399D01*
X6421339D01*
Y1655303D01*
X6415530D01*
Y1658207D01*
X6412626D01*
Y1664015D01*
X6409723D01*
Y1666919D01*
X6406818D01*
Y1690152D01*
X6409723D01*
Y1695960D01*
X6412626D01*
Y1707576D01*
X6415530D01*
Y1713384D01*
X6418434D01*
Y1719192D01*
X6412626D01*
Y1722096D01*
X6409723D01*
Y1725000D01*
X6403914D01*
Y1727904D01*
X6401010D01*
Y1730808D01*
X6398106D01*
Y1733712D01*
X6392298D01*
Y1736616D01*
X6389394D01*
Y1739520D01*
X6383586D01*
Y1742424D01*
X6380682D01*
Y1745328D01*
X6377778D01*
Y1748232D01*
X6371970D01*
Y1751136D01*
X6366162D01*
Y1754040D01*
X6363258D01*
Y1756944D01*
X6360354D01*
Y1759848D01*
X6357450D01*
Y1762752D01*
X6351642D01*
Y1765657D01*
X6348738D01*
Y1768561D01*
X6345834D01*
Y1771465D01*
X6342929D01*
Y1774369D01*
X6337121D01*
Y1777273D01*
X6334217D01*
Y1780177D01*
X6331313D01*
Y1783081D01*
X6328409D01*
Y1785985D01*
X6325505D01*
Y1788889D01*
X6319697D01*
Y1791793D01*
X6316793D01*
Y1794697D01*
X6313889D01*
Y1797601D01*
X6310985D01*
Y1800505D01*
X6308081D01*
Y1803409D01*
X6305177D01*
Y1806313D01*
X6302273D01*
Y1809217D01*
X6299369D01*
Y1812121D01*
X6296465D01*
Y1815025D01*
X6293561D01*
Y1817929D01*
X6290657D01*
Y1823737D01*
X6287753D01*
Y1826642D01*
X6284849D01*
Y1829545D01*
X6281945D01*
Y1835353D01*
X6279041D01*
Y1838257D01*
X6276137D01*
Y1841162D01*
X6273233D01*
Y1846970D01*
X6270329D01*
Y1852778D01*
X6267424D01*
Y1861490D01*
X6264520D01*
Y1890530D01*
X6267424D01*
Y1896338D01*
X6270329D01*
Y1902147D01*
X6273233D01*
Y1905051D01*
X6276137D01*
Y1907955D01*
X6279041D01*
Y1910859D01*
X6284849D01*
Y1913762D01*
X6287753D01*
Y1916667D01*
X6293561D01*
Y1919571D01*
X6305177D01*
Y1922475D01*
X6316793D01*
Y1925379D01*
X6369066D01*
Y1922475D01*
X6389394D01*
Y1919571D01*
X6409723D01*
Y1916667D01*
X6424243D01*
Y1913762D01*
X6438763D01*
Y1910859D01*
X6456187D01*
Y1907955D01*
X6464899D01*
Y1905051D01*
X6476515D01*
Y1902147D01*
X6491036D01*
Y1899242D01*
X6499748D01*
Y1896338D01*
X6511364D01*
Y1893434D01*
X6520076D01*
Y1890530D01*
X6531692D01*
Y1887626D01*
X6543308D01*
Y1884722D01*
X6549116D01*
Y1881818D01*
X6560733D01*
Y1878914D01*
X6572349D01*
Y1876010D01*
X6578157D01*
Y1873106D01*
X6583965D01*
Y1881818D01*
X6581061D01*
Y1899242D01*
X6583965D01*
Y1907955D01*
X6586869D01*
Y1910859D01*
X6589773D01*
Y1913762D01*
X6592677D01*
Y1916667D01*
X6598485D01*
Y1919571D01*
X6604293D01*
Y1922475D01*
X6610101D01*
Y1925379D01*
X6615909D01*
Y1928283D01*
X6624621D01*
Y1931187D01*
X6639142D01*
Y1928283D01*
X6644950D01*
Y1925379D01*
X6650758D01*
Y1922475D01*
X6653662D01*
Y1919571D01*
X6656566D01*
Y1913762D01*
X6659470D01*
Y1910859D01*
X6662374D01*
Y1907955D01*
X6665278D01*
Y1905051D01*
X6668182D01*
Y1899242D01*
X6671086D01*
Y1896338D01*
X6673990D01*
Y1893434D01*
X6676894D01*
Y1890530D01*
X6679798D01*
Y1884722D01*
X6682702D01*
Y1881818D01*
X6685606D01*
Y1878914D01*
X6697222D01*
Y1881818D01*
X6708839D01*
Y1884722D01*
X6711743D01*
Y1939899D01*
X6714647D01*
Y1948611D01*
X6717551D01*
Y1951515D01*
X6720455D01*
Y1954419D01*
X6723359D01*
Y1957323D01*
X6726263D01*
Y1960227D01*
X6734975D01*
Y1963131D01*
X6778536D01*
Y1960227D01*
D02*
G37*
G36*
X7176389Y1887626D02*
X7179293D01*
Y1881818D01*
X7176389D01*
Y1878914D01*
X7173485D01*
Y1876010D01*
X7170581D01*
Y1873106D01*
X7167677D01*
Y1870202D01*
X7161869D01*
Y1864394D01*
X7164773D01*
Y1861490D01*
X7167677D01*
Y1855682D01*
X7170581D01*
Y1852778D01*
X7173485D01*
Y1849874D01*
X7176389D01*
Y1846970D01*
X7182197D01*
Y1849874D01*
X7185101D01*
Y1852778D01*
X7188005D01*
Y1855682D01*
X7190909D01*
Y1858586D01*
X7193813D01*
Y1861490D01*
X7199621D01*
Y1858586D01*
X7202525D01*
Y1855682D01*
X7205430D01*
Y1849874D01*
X7202525D01*
Y1846970D01*
X7199621D01*
Y1844066D01*
X7193813D01*
Y1841162D01*
X7190909D01*
Y1838257D01*
X7188005D01*
Y1835353D01*
X7185101D01*
Y1832449D01*
X7179293D01*
Y1829545D01*
X7176389D01*
Y1826642D01*
X7173485D01*
Y1823737D01*
X7170581D01*
Y1820833D01*
X7167677D01*
Y1817929D01*
X7161869D01*
Y1815025D01*
X7158965D01*
Y1812121D01*
X7153157D01*
Y1815025D01*
X7150253D01*
Y1823737D01*
X7153157D01*
Y1826642D01*
X7156061D01*
Y1829545D01*
X7158965D01*
Y1832449D01*
X7161869D01*
Y1835353D01*
X7167677D01*
Y1841162D01*
X7164773D01*
Y1846970D01*
X7161869D01*
Y1849874D01*
X7158965D01*
Y1852778D01*
X7156061D01*
Y1855682D01*
X7153157D01*
Y1858586D01*
X7147349D01*
Y1855682D01*
X7144445D01*
Y1852778D01*
X7141541D01*
Y1849874D01*
X7138636D01*
Y1846970D01*
X7135732D01*
Y1844066D01*
X7127020D01*
Y1846970D01*
X7124116D01*
Y1849874D01*
X7121212D01*
Y1852778D01*
X7124116D01*
Y1855682D01*
X7127020D01*
Y1858586D01*
X7132829D01*
Y1861490D01*
X7135732D01*
Y1864394D01*
X7138636D01*
Y1867298D01*
X7141541D01*
Y1870202D01*
X7144445D01*
Y1873106D01*
X7150253D01*
Y1876010D01*
X7153157D01*
Y1878914D01*
X7156061D01*
Y1881818D01*
X7158965D01*
Y1884722D01*
X7161869D01*
Y1887626D01*
X7167677D01*
Y1890530D01*
X7176389D01*
Y1887626D01*
D02*
G37*
G36*
X7217046Y1835353D02*
X7219950D01*
Y1829545D01*
X7222854D01*
Y1826642D01*
X7219950D01*
Y1820833D01*
X7217046D01*
Y1817929D01*
X7214142D01*
Y1812121D01*
X7211238D01*
Y1809217D01*
X7208334D01*
Y1806313D01*
X7205430D01*
Y1803409D01*
X7231566D01*
Y1806313D01*
X7237374D01*
Y1803409D01*
X7240278D01*
Y1800505D01*
X7243182D01*
Y1794697D01*
X7214142D01*
Y1791793D01*
X7199621D01*
Y1788889D01*
X7193813D01*
Y1785985D01*
X7188005D01*
Y1783081D01*
X7185101D01*
Y1780177D01*
X7182197D01*
Y1777273D01*
X7176389D01*
Y1780177D01*
X7173485D01*
Y1785985D01*
X7170581D01*
Y1788889D01*
X7173485D01*
Y1791793D01*
X7179293D01*
Y1794697D01*
X7182197D01*
Y1797601D01*
X7188005D01*
Y1800505D01*
X7190909D01*
Y1803409D01*
X7193813D01*
Y1806313D01*
X7196717D01*
Y1812121D01*
X7199621D01*
Y1817929D01*
X7202525D01*
Y1820833D01*
X7205430D01*
Y1826642D01*
X7208334D01*
Y1832449D01*
X7211238D01*
Y1838257D01*
X7217046D01*
Y1835353D01*
D02*
G37*
G36*
X7243182Y1777273D02*
X7248990D01*
Y1774369D01*
X7254798D01*
Y1771465D01*
X7257702D01*
Y1768561D01*
X7260606D01*
Y1759848D01*
X7263510D01*
Y1754040D01*
X7266414D01*
Y1748232D01*
X7254798D01*
Y1754040D01*
X7251894D01*
Y1762752D01*
X7248990D01*
Y1765657D01*
X7237374D01*
Y1736616D01*
X7234470D01*
Y1730808D01*
X7231566D01*
Y1727904D01*
X7228662D01*
Y1725000D01*
X7208334D01*
Y1727904D01*
X7205430D01*
Y1730808D01*
X7202525D01*
Y1733712D01*
X7199621D01*
Y1739520D01*
X7196717D01*
Y1748232D01*
X7193813D01*
Y1756944D01*
X7196717D01*
Y1759848D01*
X7202525D01*
Y1756944D01*
X7205430D01*
Y1745328D01*
X7208334D01*
Y1739520D01*
X7211238D01*
Y1736616D01*
X7219950D01*
Y1739520D01*
X7222854D01*
Y1765657D01*
X7225758D01*
Y1771465D01*
X7228662D01*
Y1774369D01*
X7231566D01*
Y1777273D01*
X7237374D01*
Y1780177D01*
X7243182D01*
Y1777273D01*
D02*
G37*
G36*
X7275126Y1727904D02*
X7278030D01*
Y1719192D01*
X7275126D01*
Y1716288D01*
X7266414D01*
Y1713384D01*
X7263510D01*
Y1710480D01*
X7254798D01*
Y1707576D01*
X7246086D01*
Y1704672D01*
X7240278D01*
Y1701768D01*
X7231566D01*
Y1698864D01*
X7225758D01*
Y1695960D01*
X7219950D01*
Y1698864D01*
X7217046D01*
Y1701768D01*
X7214142D01*
Y1704672D01*
X7217046D01*
Y1707576D01*
X7219950D01*
Y1710480D01*
X7225758D01*
Y1713384D01*
X7231566D01*
Y1716288D01*
X7240278D01*
Y1719192D01*
X7248990D01*
Y1722096D01*
X7254798D01*
Y1725000D01*
X7263510D01*
Y1727904D01*
X7269318D01*
Y1730808D01*
X7275126D01*
Y1727904D01*
D02*
G37*
G36*
Y1693056D02*
X7283839D01*
Y1690152D01*
X7286743D01*
Y1687248D01*
X7289647D01*
Y1684343D01*
X7292551D01*
Y1678535D01*
X7295455D01*
Y1675631D01*
X7298359D01*
Y1661111D01*
X7301263D01*
Y1658207D01*
X7298359D01*
Y1655303D01*
X7289647D01*
Y1669823D01*
X7286743D01*
Y1672727D01*
X7283839D01*
Y1675631D01*
X7280935D01*
Y1678535D01*
X7278030D01*
Y1681439D01*
X7272222D01*
Y1684343D01*
X7263510D01*
Y1681439D01*
X7254798D01*
Y1678535D01*
X7251894D01*
Y1675631D01*
X7246086D01*
Y1669823D01*
X7243182D01*
Y1652399D01*
X7246086D01*
Y1646591D01*
X7248990D01*
Y1643687D01*
X7246086D01*
Y1640783D01*
X7243182D01*
Y1637879D01*
X7237374D01*
Y1646591D01*
X7234470D01*
Y1655303D01*
X7231566D01*
Y1675631D01*
X7234470D01*
Y1681439D01*
X7237374D01*
Y1684343D01*
X7240278D01*
Y1687248D01*
X7243182D01*
Y1690152D01*
X7246086D01*
Y1693056D01*
X7254798D01*
Y1695960D01*
X7275126D01*
Y1693056D01*
D02*
G37*
G36*
X7298359Y1634975D02*
X7301263D01*
Y1632071D01*
X7304167D01*
Y1629167D01*
X7307071D01*
Y1623358D01*
X7309975D01*
Y1608838D01*
X7312879D01*
Y1605934D01*
X7309975D01*
Y1600126D01*
X7304167D01*
Y1603030D01*
X7301263D01*
Y1617550D01*
X7298359D01*
Y1623358D01*
X7286743D01*
Y1620454D01*
X7283839D01*
Y1603030D01*
X7280935D01*
Y1597222D01*
X7278030D01*
Y1594318D01*
X7275126D01*
Y1591414D01*
X7266414D01*
Y1588510D01*
X7263510D01*
Y1591414D01*
X7254798D01*
Y1594318D01*
X7251894D01*
Y1597222D01*
X7248990D01*
Y1600126D01*
X7246086D01*
Y1608838D01*
X7243182D01*
Y1629167D01*
X7251894D01*
Y1614647D01*
X7254798D01*
Y1605934D01*
X7257702D01*
Y1603030D01*
X7266414D01*
Y1605934D01*
X7269318D01*
Y1611743D01*
X7272222D01*
Y1623358D01*
X7275126D01*
Y1632071D01*
X7278030D01*
Y1634975D01*
X7283839D01*
Y1637879D01*
X7298359D01*
Y1634975D01*
D02*
G37*
G36*
X775703Y2689074D02*
X782184Y2687222D01*
X789590Y2685371D01*
X797923Y2681667D01*
X805329Y2677038D01*
X813662Y2670558D01*
X814588Y2669632D01*
X816439Y2667780D01*
X821068Y2663151D01*
X821994Y2662225D01*
X822920Y2660373D01*
X826623Y2654818D01*
X1106224Y2170609D01*
X1107150Y2169683D01*
X1108076Y2166906D01*
X1109927Y2161351D01*
X1112705Y2154870D01*
X1114557Y2147464D01*
X1115482Y2138205D01*
Y2128947D01*
X1114557Y2118763D01*
Y2117837D01*
X1113631Y2115985D01*
X1112705Y2112282D01*
X1111779Y2108579D01*
Y2107653D01*
X1110853Y2105801D01*
X1109002Y2103024D01*
X1107150Y2098395D01*
X1106224D01*
X1105298Y2097469D01*
X1103447Y2094691D01*
X1100669Y2090062D01*
X1096040Y2085433D01*
X1090485Y2079878D01*
X1084004Y2074323D01*
X1075672Y2069694D01*
X1066413Y2065991D01*
X1065488D01*
X1062710Y2065065D01*
X1059007Y2064139D01*
X1055303D01*
X1054378Y2063213D01*
X1050674D01*
X1046045Y2062287D01*
X482215D01*
X476660Y2063213D01*
X470179Y2065065D01*
X461846Y2066916D01*
X453514Y2070620D01*
X445181Y2075249D01*
X436849Y2081730D01*
X435923Y2082655D01*
X434072Y2084507D01*
X429442Y2089136D01*
X428517Y2090062D01*
X427591Y2091914D01*
X423887Y2098395D01*
X422962Y2099320D01*
X422036Y2102098D01*
X420184Y2106727D01*
X417407Y2113208D01*
X415555Y2120615D01*
X414629Y2128947D01*
Y2138205D01*
X415555Y2148389D01*
Y2149315D01*
X416481Y2152093D01*
X417407Y2155796D01*
X418332Y2158574D01*
Y2159499D01*
X419258Y2161351D01*
X421110Y2164129D01*
X422962Y2167832D01*
Y2168758D01*
Y2169683D01*
X423887D01*
X702562Y2652967D01*
Y2653893D01*
X704414Y2655744D01*
X708117Y2661299D01*
X715524Y2669632D01*
X723856Y2677038D01*
X725708Y2677964D01*
X729411Y2679816D01*
X730337Y2680742D01*
X732189Y2681667D01*
X735892Y2683519D01*
X739595Y2685371D01*
X745150Y2687222D01*
X751631Y2688148D01*
X758112Y2690000D01*
X770148D01*
X775703Y2689074D01*
D02*
G37*
G36*
X1106224Y1962298D02*
X1094188D01*
X1047897Y2032661D01*
Y1962298D01*
X1036787D01*
Y2051177D01*
X1048823D01*
X1095114Y1981740D01*
Y2051177D01*
X1106224D01*
Y1962298D01*
D02*
G37*
G36*
X810884D02*
X798849D01*
X751631Y2032661D01*
Y1962298D01*
X740521D01*
Y2051177D01*
X752557D01*
X799774Y1981740D01*
Y2051177D01*
X810884D01*
Y1962298D01*
D02*
G37*
G36*
X920132D02*
X908096D01*
Y2051177D01*
X920132D01*
Y1962298D01*
D02*
G37*
G36*
X894209Y2040993D02*
X864582D01*
Y1962298D01*
X852547D01*
Y2040993D01*
X823846D01*
Y2051177D01*
X894209D01*
Y2040993D01*
D02*
G37*
G36*
X722930D02*
X670158D01*
Y2013218D01*
X719227D01*
Y2003034D01*
X670158D01*
Y1972482D01*
X724782D01*
Y1962298D01*
X658122D01*
Y2051177D01*
X722930D01*
Y2040993D01*
D02*
G37*
G36*
X646087D02*
X616460D01*
Y1962298D01*
X605350D01*
Y2040993D01*
X575724D01*
Y2051177D01*
X646087D01*
Y2040993D01*
D02*
G37*
G36*
X570169D02*
X541468D01*
Y1962298D01*
X529432D01*
Y2040993D01*
X499805D01*
Y2051177D01*
X570169D01*
Y2040993D01*
D02*
G37*
G36*
X506286Y1962298D02*
X493325D01*
X483141Y1989147D01*
X446107D01*
X435923Y1962298D01*
X423887D01*
X457217Y2051177D01*
X470179D01*
X506286Y1962298D01*
D02*
G37*
G36*
X986792Y2052103D02*
X994199Y2050251D01*
X1001605Y2046548D01*
X1003457Y2045622D01*
X1007160Y2042845D01*
X1011789Y2037290D01*
X1016419Y2030809D01*
Y2029883D01*
X1017344Y2028957D01*
X1019196Y2023402D01*
X1021048Y2015996D01*
X1021974Y2006737D01*
Y2005812D01*
Y2004886D01*
X1021048Y1998405D01*
X1020122Y1990998D01*
X1016419Y1982666D01*
X1015493Y1980814D01*
X1012715Y1976185D01*
X1007160Y1971556D01*
X1000679Y1966927D01*
X998828Y1966001D01*
X994199Y1964149D01*
X987718Y1962298D01*
X979385Y1961372D01*
X977534D01*
X971979Y1962298D01*
X964572Y1964149D01*
X957165Y1966927D01*
X955314Y1967853D01*
X951610Y1971556D01*
X946056Y1976185D01*
X941426Y1983592D01*
Y1984517D01*
X940501Y1985443D01*
X939575Y1990072D01*
X937723Y1997479D01*
X936797Y2005812D01*
Y2006737D01*
Y2009515D01*
X937723Y2013218D01*
X938649Y2018773D01*
X942352Y2029883D01*
X945130Y2035438D01*
X948833Y2040067D01*
X949759Y2040993D01*
X950685Y2041919D01*
X953462Y2043771D01*
X957165Y2046548D01*
X966424Y2051177D01*
X972905Y2052103D01*
X979385Y2053029D01*
X981237D01*
X986792Y2052103D01*
D02*
G37*
G36*
X778369Y1748148D02*
X784849Y1747223D01*
X790404Y1745371D01*
X794108Y1743519D01*
X797811Y1741668D01*
X799663Y1740742D01*
X800588Y1739816D01*
X804292Y1737964D01*
X806143Y1737038D01*
X814476Y1729632D01*
X821883Y1721299D01*
X825586Y1715744D01*
X827438Y1713893D01*
Y1712967D01*
X1106113Y1229684D01*
X1107038D01*
Y1228758D01*
Y1227832D01*
X1108890Y1224129D01*
X1110742Y1221351D01*
X1111668Y1219499D01*
Y1218574D01*
X1112593Y1215796D01*
X1113519Y1212093D01*
X1114445Y1209315D01*
Y1208390D01*
X1115371Y1198205D01*
Y1188947D01*
X1114445Y1180615D01*
X1112593Y1173208D01*
X1109816Y1166727D01*
X1107964Y1162098D01*
X1107038Y1159321D01*
X1106113Y1158395D01*
X1102409Y1151914D01*
X1101483Y1150062D01*
X1100558Y1149136D01*
X1095928Y1144507D01*
X1094077Y1142656D01*
X1093151Y1141730D01*
X1084819Y1135249D01*
X1076486Y1130620D01*
X1068154Y1126916D01*
X1059821Y1125065D01*
X1053340Y1123213D01*
X1047785Y1122287D01*
X483955D01*
X479326Y1123213D01*
X475622D01*
X474697Y1124139D01*
X470993D01*
X467290Y1125065D01*
X464512Y1125991D01*
X463587D01*
X454328Y1129694D01*
X445996Y1134323D01*
X439515Y1139878D01*
X433960Y1145433D01*
X429331Y1150062D01*
X426553Y1154691D01*
X424702Y1157469D01*
X423776Y1158395D01*
X422850D01*
X420998Y1163024D01*
X419147Y1165801D01*
X418221Y1167653D01*
Y1168579D01*
X417295Y1172282D01*
X416369Y1175985D01*
X415443Y1177837D01*
Y1178763D01*
X414518Y1188947D01*
Y1198205D01*
X415443Y1207464D01*
X417295Y1214870D01*
X420073Y1221351D01*
X421924Y1226906D01*
X422850Y1229684D01*
X423776Y1230609D01*
X703376Y1714819D01*
X707080Y1720373D01*
X708005Y1722225D01*
X708931Y1723151D01*
X713560Y1727780D01*
X715412Y1729632D01*
X716338Y1730558D01*
X724670Y1737038D01*
X732077Y1741668D01*
X740409Y1745371D01*
X747816Y1747223D01*
X754297Y1749074D01*
X759852Y1750000D01*
X771888D01*
X778369Y1748148D01*
D02*
G37*
G36*
X988955Y4527648D02*
X1005418Y4522945D01*
X1024232Y4518241D01*
X1045398Y4508834D01*
X1064213Y4497075D01*
X1085379Y4480613D01*
X1087730Y4478261D01*
X1092434Y4473557D01*
X1104193Y4461798D01*
X1106545Y4459447D01*
X1108896Y4454743D01*
X1118304Y4440632D01*
X1828543Y3210648D01*
X1830895Y3208296D01*
X1833247Y3201241D01*
X1837950Y3187130D01*
X1845005Y3170668D01*
X1849709Y3151853D01*
X1852061Y3128336D01*
Y3104818D01*
X1849709Y3078948D01*
Y3076596D01*
X1847357Y3071893D01*
X1845005Y3062486D01*
X1842654Y3053078D01*
Y3050727D01*
X1840302Y3046023D01*
X1835598Y3038968D01*
X1830895Y3027209D01*
X1828543D01*
X1826191Y3024857D01*
X1821488Y3017802D01*
X1814432Y3006043D01*
X1802673Y2994284D01*
X1788563Y2980173D01*
X1772100Y2966062D01*
X1750934Y2954303D01*
X1727416Y2944896D01*
X1725064D01*
X1718009Y2942545D01*
X1708602Y2940193D01*
X1699195D01*
X1696843Y2937841D01*
X1687436D01*
X1675677Y2935489D01*
X243439D01*
X229328Y2937841D01*
X212866Y2942545D01*
X191700Y2947248D01*
X170534Y2956655D01*
X149368Y2968414D01*
X128202Y2984877D01*
X125850Y2987228D01*
X121146Y2991932D01*
X109387Y3003691D01*
X107036Y3006043D01*
X104684Y3010746D01*
X95277Y3027209D01*
X92925Y3029561D01*
X90573Y3036616D01*
X85870Y3048375D01*
X78814Y3064837D01*
X74111Y3083652D01*
X71759Y3104818D01*
Y3128336D01*
X74111Y3154205D01*
Y3156557D01*
X76462Y3163612D01*
X78814Y3173020D01*
X81166Y3180075D01*
Y3182427D01*
X83518Y3187130D01*
X88221Y3194186D01*
X92925Y3203593D01*
Y3205945D01*
Y3208296D01*
X95277D01*
X803164Y4435929D01*
Y4438280D01*
X807868Y4442984D01*
X817275Y4457095D01*
X836089Y4478261D01*
X857255Y4497075D01*
X861959Y4499427D01*
X871366Y4504130D01*
X873718Y4506482D01*
X878421Y4508834D01*
X887829Y4513538D01*
X897236Y4518241D01*
X911346Y4522945D01*
X927809Y4525297D01*
X944271Y4530000D01*
X974845D01*
X988955Y4527648D01*
D02*
G37*
G36*
X2164727Y861816D02*
X2190800D01*
Y850860D01*
X2164727D01*
Y824788D01*
X2153632D01*
Y850860D01*
X2127560D01*
Y861816D01*
X2153632D01*
Y888166D01*
X2164727D01*
Y861816D01*
D02*
G37*
%LPC*%
G36*
X6909217Y2050252D02*
X6903409D01*
Y2044444D01*
X6900505D01*
Y2035732D01*
X6897601D01*
Y2032828D01*
X6900505D01*
Y2029924D01*
X6915026D01*
Y2032828D01*
X6917930D01*
Y2044444D01*
X6915026D01*
Y2047348D01*
X6909217D01*
Y2050252D01*
D02*
G37*
G36*
X7135732Y1919571D02*
X7124116D01*
Y1913762D01*
X7121212D01*
Y1910859D01*
X7115404D01*
Y1902147D01*
X7121212D01*
Y1899242D01*
X7124116D01*
Y1896338D01*
X7132829D01*
Y1899242D01*
X7135732D01*
Y1902147D01*
X7138636D01*
Y1905051D01*
X7141541D01*
Y1910859D01*
X7138636D01*
Y1913762D01*
X7135732D01*
Y1919571D01*
D02*
G37*
G36*
X6769823Y1948611D02*
X6755303D01*
Y1945707D01*
X6732071D01*
Y1942803D01*
X6729167D01*
Y1873106D01*
X6726263D01*
Y1870202D01*
X6720455D01*
Y1867298D01*
X6705935D01*
Y1864394D01*
X6694318D01*
Y1861490D01*
X6688510D01*
Y1858586D01*
X6682702D01*
Y1861490D01*
X6679798D01*
Y1864394D01*
X6676894D01*
Y1867298D01*
X6673990D01*
Y1870202D01*
X6671086D01*
Y1876010D01*
X6668182D01*
Y1878914D01*
X6665278D01*
Y1881818D01*
X6662374D01*
Y1884722D01*
X6659470D01*
Y1887626D01*
X6656566D01*
Y1893434D01*
X6653662D01*
Y1896338D01*
X6650758D01*
Y1899242D01*
X6647854D01*
Y1905051D01*
X6644950D01*
Y1907955D01*
X6642046D01*
Y1910859D01*
X6639142D01*
Y1913762D01*
X6621717D01*
Y1910859D01*
X6615909D01*
Y1907955D01*
X6613005D01*
Y1905051D01*
X6604293D01*
Y1902147D01*
X6601389D01*
Y1899242D01*
X6598485D01*
Y1893434D01*
X6595581D01*
Y1890530D01*
X6598485D01*
Y1878914D01*
X6601389D01*
Y1870202D01*
X6604293D01*
Y1861490D01*
X6607197D01*
Y1852778D01*
X6610101D01*
Y1844066D01*
X6613005D01*
Y1835353D01*
X6615909D01*
Y1826642D01*
X6613005D01*
Y1823737D01*
X6610101D01*
Y1820833D01*
X6604293D01*
Y1817929D01*
X6601389D01*
Y1815025D01*
X6598485D01*
Y1812121D01*
X6592677D01*
Y1809217D01*
X6589773D01*
Y1806313D01*
X6586869D01*
Y1803409D01*
X6583965D01*
Y1800505D01*
X6572349D01*
Y1803409D01*
X6566541D01*
Y1806313D01*
X6563637D01*
Y1809217D01*
X6557828D01*
Y1812121D01*
X6552020D01*
Y1815025D01*
X6549116D01*
Y1817929D01*
X6543308D01*
Y1820833D01*
X6537500D01*
Y1823737D01*
X6534596D01*
Y1826642D01*
X6528788D01*
Y1829545D01*
X6522980D01*
Y1832449D01*
X6511364D01*
Y1829545D01*
X6508460D01*
Y1826642D01*
X6505556D01*
Y1823737D01*
X6502652D01*
Y1820833D01*
X6499748D01*
Y1817929D01*
X6496844D01*
Y1815025D01*
X6493940D01*
Y1812121D01*
X6491036D01*
Y1800505D01*
X6493940D01*
Y1797601D01*
X6496844D01*
Y1791793D01*
X6499748D01*
Y1788889D01*
X6502652D01*
Y1785985D01*
X6505556D01*
Y1780177D01*
X6508460D01*
Y1774369D01*
X6511364D01*
Y1771465D01*
X6514268D01*
Y1765657D01*
X6517172D01*
Y1762752D01*
X6520076D01*
Y1759848D01*
X6522980D01*
Y1754040D01*
X6525884D01*
Y1751136D01*
X6528788D01*
Y1736616D01*
X6525884D01*
Y1733712D01*
X6522980D01*
Y1727904D01*
X6520076D01*
Y1722096D01*
X6517172D01*
Y1719192D01*
X6514268D01*
Y1707576D01*
X6520076D01*
Y1704672D01*
X6522980D01*
Y1701768D01*
X6528788D01*
Y1698864D01*
X6534596D01*
Y1695960D01*
X6540404D01*
Y1693056D01*
X6546212D01*
Y1690152D01*
X6549116D01*
Y1687248D01*
X6554924D01*
Y1684343D01*
X6560733D01*
Y1681439D01*
X6563637D01*
Y1678535D01*
X6569445D01*
Y1675631D01*
X6575253D01*
Y1672727D01*
X6581061D01*
Y1669823D01*
X6586869D01*
Y1666919D01*
X6589773D01*
Y1664015D01*
X6598485D01*
Y1661111D01*
X6601389D01*
Y1658207D01*
X6607197D01*
Y1655303D01*
X6613005D01*
Y1652399D01*
X6618813D01*
Y1649495D01*
X6624621D01*
Y1646591D01*
X6630429D01*
Y1643687D01*
X6633333D01*
Y1640783D01*
X6642046D01*
Y1637879D01*
X6647854D01*
Y1634975D01*
X6650758D01*
Y1632071D01*
X6659470D01*
Y1629167D01*
X6665278D01*
Y1632071D01*
X6668182D01*
Y1637879D01*
X6671086D01*
Y1643687D01*
X6673990D01*
Y1646591D01*
X6676894D01*
Y1652399D01*
X6679798D01*
Y1655303D01*
X6682702D01*
Y1658207D01*
X6685606D01*
Y1661111D01*
X6688510D01*
Y1664015D01*
X6691414D01*
Y1666919D01*
X6694318D01*
Y1669823D01*
X6697222D01*
Y1672727D01*
X6703031D01*
Y1675631D01*
X6705935D01*
Y1678535D01*
X6708839D01*
Y1681439D01*
X6714647D01*
Y1684343D01*
X6717551D01*
Y1687248D01*
X6726263D01*
Y1690152D01*
X6729167D01*
Y1693056D01*
X6737879D01*
Y1695960D01*
X6746591D01*
Y1698864D01*
X6758207D01*
Y1701768D01*
X6810480D01*
Y1698864D01*
X6822096D01*
Y1695960D01*
X6830808D01*
Y1693056D01*
X6839520D01*
Y1690152D01*
X6842424D01*
Y1687248D01*
X6851137D01*
Y1684343D01*
X6856945D01*
Y1681439D01*
X6859849D01*
Y1678535D01*
X6862753D01*
Y1675631D01*
X6868561D01*
Y1672727D01*
X6871465D01*
Y1669823D01*
X6874369D01*
Y1666919D01*
X6877273D01*
Y1664015D01*
X6880177D01*
Y1661111D01*
X6883081D01*
Y1658207D01*
X6885985D01*
Y1655303D01*
X6888889D01*
Y1652399D01*
X6891793D01*
Y1646591D01*
X6894697D01*
Y1643687D01*
X6897601D01*
Y1640783D01*
X6900505D01*
Y1634975D01*
X6903409D01*
Y1626263D01*
X6906313D01*
Y1623358D01*
X6909217D01*
Y1614647D01*
X6912121D01*
Y1605934D01*
X6915026D01*
Y1597222D01*
X6917930D01*
Y1539141D01*
X6915026D01*
Y1530429D01*
X6912121D01*
Y1521717D01*
X6909217D01*
Y1515909D01*
X6915026D01*
Y1513005D01*
X6923737D01*
Y1510101D01*
X6929546D01*
Y1507197D01*
X6938258D01*
Y1504293D01*
X6944066D01*
Y1501389D01*
X6952778D01*
Y1498485D01*
X6961490D01*
Y1495581D01*
X6964394D01*
Y1492677D01*
X6976010D01*
Y1489773D01*
X6981818D01*
Y1486869D01*
X6990531D01*
Y1483965D01*
X6999243D01*
Y1481061D01*
X7005051D01*
Y1478157D01*
X7013763D01*
Y1475253D01*
X7025379D01*
Y1472349D01*
X7028283D01*
Y1469444D01*
X7039899D01*
Y1466540D01*
X7048611D01*
Y1463636D01*
X7054419D01*
Y1460732D01*
X7066036D01*
Y1457828D01*
X7071844D01*
Y1454924D01*
X7080556D01*
Y1452020D01*
X7095076D01*
Y1449116D01*
X7100884D01*
Y1446212D01*
X7115404D01*
Y1443308D01*
X7129925D01*
Y1440404D01*
X7138636D01*
Y1443308D01*
X7144445D01*
Y1452020D01*
X7147349D01*
Y1460732D01*
X7150253D01*
Y1472349D01*
X7153157D01*
Y1483965D01*
X7150253D01*
Y1486869D01*
X7147349D01*
Y1489773D01*
X7141541D01*
Y1492677D01*
X7132829D01*
Y1495581D01*
X7127020D01*
Y1498485D01*
X7121212D01*
Y1501389D01*
X7112500D01*
Y1504293D01*
X7106692D01*
Y1507197D01*
X7097980D01*
Y1510101D01*
X7089268D01*
Y1513005D01*
X7086364D01*
Y1518813D01*
X7089268D01*
Y1573990D01*
X7095076D01*
Y1576894D01*
X7109596D01*
Y1579798D01*
X7118308D01*
Y1582702D01*
X7129925D01*
Y1585606D01*
X7144445D01*
Y1588510D01*
X7153157D01*
Y1591414D01*
X7158965D01*
Y1597222D01*
X7161869D01*
Y1611743D01*
X7158965D01*
Y1632071D01*
X7156061D01*
Y1634975D01*
X7153157D01*
Y1637879D01*
X7138636D01*
Y1640783D01*
X7092172D01*
Y1643687D01*
X7080556D01*
Y1646591D01*
X7077652D01*
Y1655303D01*
X7074748D01*
Y1666919D01*
X7071844D01*
Y1675631D01*
X7068940D01*
Y1681439D01*
X7066036D01*
Y1687248D01*
X7068940D01*
Y1690152D01*
X7071844D01*
Y1693056D01*
X7074748D01*
Y1695960D01*
X7077652D01*
Y1698864D01*
X7080556D01*
Y1701768D01*
X7083460D01*
Y1704672D01*
X7089268D01*
Y1707576D01*
X7092172D01*
Y1710480D01*
X7095076D01*
Y1713384D01*
X7097980D01*
Y1716288D01*
X7100884D01*
Y1719192D01*
X7103788D01*
Y1722096D01*
X7106692D01*
Y1725000D01*
X7112500D01*
Y1727904D01*
X7115404D01*
Y1730808D01*
X7118308D01*
Y1733712D01*
X7121212D01*
Y1748232D01*
X7118308D01*
Y1751136D01*
X7115404D01*
Y1756944D01*
X7112500D01*
Y1762752D01*
X7109596D01*
Y1765657D01*
X7092172D01*
Y1762752D01*
X7083460D01*
Y1759848D01*
X7077652D01*
Y1756944D01*
X7068940D01*
Y1754040D01*
X7063131D01*
Y1751136D01*
X7054419D01*
Y1748232D01*
X7045707D01*
Y1745328D01*
X7039899D01*
Y1742424D01*
X7034091D01*
Y1748232D01*
X7031187D01*
Y1751136D01*
X7028283D01*
Y1754040D01*
X7025379D01*
Y1756944D01*
X7022475D01*
Y1759848D01*
X7019571D01*
Y1765657D01*
X7016667D01*
Y1768561D01*
X7013763D01*
Y1771465D01*
X7010859D01*
Y1774369D01*
X7007955D01*
Y1777273D01*
X7005051D01*
Y1785985D01*
X7007955D01*
Y1788889D01*
X7010859D01*
Y1794697D01*
X7013763D01*
Y1797601D01*
X7016667D01*
Y1800505D01*
Y1803409D01*
X7019571D01*
Y1809217D01*
X7022475D01*
Y1812121D01*
X7025379D01*
Y1815025D01*
X7028283D01*
Y1820833D01*
X7031187D01*
Y1826642D01*
X7034091D01*
Y1829545D01*
X7036995D01*
Y1835353D01*
X7039899D01*
Y1838257D01*
X7042803D01*
Y1849874D01*
X7039899D01*
Y1852778D01*
X7036995D01*
Y1855682D01*
X7034091D01*
Y1858586D01*
X7028283D01*
Y1861490D01*
X7025379D01*
Y1864394D01*
X7022475D01*
Y1867298D01*
X7007955D01*
Y1864394D01*
X7005051D01*
Y1861490D01*
X7002147D01*
Y1858586D01*
X6996339D01*
Y1855682D01*
X6993435D01*
Y1852778D01*
X6990531D01*
Y1849874D01*
X6987626D01*
Y1846970D01*
X6981818D01*
Y1844066D01*
X6978914D01*
Y1841162D01*
X6976010D01*
Y1838257D01*
X6973106D01*
Y1835353D01*
X6967298D01*
Y1832449D01*
X6964394D01*
Y1829545D01*
X6961490D01*
Y1826642D01*
X6958586D01*
Y1823737D01*
X6952778D01*
Y1826642D01*
X6946970D01*
Y1829545D01*
X6944066D01*
Y1832449D01*
X6938258D01*
Y1835353D01*
X6932450D01*
Y1838257D01*
X6926642D01*
Y1841162D01*
X6920834D01*
Y1844066D01*
X6917930D01*
Y1846970D01*
X6915026D01*
Y1849874D01*
X6912121D01*
Y1852778D01*
X6909217D01*
Y1855682D01*
X6912121D01*
Y1873106D01*
X6915026D01*
Y1887626D01*
X6917930D01*
Y1905051D01*
X6920834D01*
Y1919571D01*
X6917930D01*
Y1925379D01*
X6912121D01*
Y1928283D01*
X6900505D01*
Y1931187D01*
X6894697D01*
Y1934091D01*
X6885985D01*
Y1936995D01*
X6883081D01*
Y1934091D01*
X6874369D01*
Y1931187D01*
X6871465D01*
Y1922475D01*
X6868561D01*
Y1919571D01*
X6865657D01*
Y1913762D01*
X6862753D01*
Y1905051D01*
X6859849D01*
Y1902147D01*
X6856945D01*
Y1893434D01*
X6854041D01*
Y1887626D01*
X6851137D01*
Y1884722D01*
X6848232D01*
Y1876010D01*
X6845328D01*
Y1870202D01*
X6836616D01*
Y1873106D01*
X6810480D01*
Y1876010D01*
X6793056D01*
Y1884722D01*
X6790152D01*
Y1893434D01*
X6787248D01*
Y1907955D01*
X6784344D01*
Y1919571D01*
X6781440D01*
Y1931187D01*
X6778536D01*
Y1942803D01*
X6775632D01*
Y1945707D01*
X6769823D01*
Y1948611D01*
D02*
G37*
G36*
X6549116Y1841162D02*
X6543308D01*
Y1835353D01*
X6549116D01*
Y1832449D01*
X6554924D01*
Y1829545D01*
X6560733D01*
Y1826642D01*
X6566541D01*
Y1823737D01*
X6569445D01*
Y1820833D01*
X6575253D01*
Y1817929D01*
X6578157D01*
Y1820833D01*
X6583965D01*
Y1829545D01*
X6575253D01*
Y1832449D01*
X6566541D01*
Y1835353D01*
X6554924D01*
Y1838257D01*
X6549116D01*
Y1841162D01*
D02*
G37*
G36*
X6371970Y1881818D02*
X6316793D01*
Y1878914D01*
X6310985D01*
Y1876010D01*
X6308081D01*
Y1870202D01*
X6310985D01*
Y1864394D01*
X6313889D01*
Y1858586D01*
X6316793D01*
Y1855682D01*
X6319697D01*
Y1852778D01*
X6322601D01*
Y1849874D01*
X6325505D01*
Y1844066D01*
X6328409D01*
Y1841162D01*
X6331313D01*
Y1838257D01*
X6334217D01*
Y1835353D01*
X6337121D01*
Y1832449D01*
X6342929D01*
Y1826642D01*
X6348738D01*
Y1823737D01*
X6351642D01*
Y1820833D01*
X6354546D01*
Y1817929D01*
X6357450D01*
Y1815025D01*
X6360354D01*
Y1812121D01*
X6363258D01*
Y1809217D01*
X6369066D01*
Y1806313D01*
X6371970D01*
Y1803409D01*
X6374874D01*
Y1800505D01*
X6377778D01*
Y1797601D01*
X6383586D01*
Y1794697D01*
X6386490D01*
Y1791793D01*
X6389394D01*
Y1788889D01*
X6395202D01*
Y1785985D01*
X6398106D01*
Y1783081D01*
X6401010D01*
Y1780177D01*
X6406818D01*
Y1777273D01*
X6409723D01*
Y1774369D01*
X6412626D01*
Y1771465D01*
X6418434D01*
Y1768561D01*
X6421339D01*
Y1765657D01*
X6427147D01*
Y1762752D01*
X6432955D01*
Y1759848D01*
X6435859D01*
Y1756944D01*
X6441667D01*
Y1754040D01*
X6444571D01*
Y1751136D01*
X6447475D01*
Y1748232D01*
X6453283D01*
Y1745328D01*
X6456187D01*
Y1742424D01*
X6461995D01*
Y1739520D01*
X6467803D01*
Y1736616D01*
X6470707D01*
Y1733712D01*
X6476515D01*
Y1730808D01*
X6482323D01*
Y1727904D01*
X6485228D01*
Y1725000D01*
X6491036D01*
Y1722096D01*
X6493940D01*
Y1719192D01*
X6499748D01*
Y1725000D01*
X6502652D01*
Y1727904D01*
X6505556D01*
Y1736616D01*
X6508460D01*
Y1739520D01*
X6511364D01*
Y1748232D01*
X6508460D01*
Y1751136D01*
X6505556D01*
Y1756944D01*
X6502652D01*
Y1759848D01*
X6499748D01*
Y1765657D01*
X6496844D01*
Y1768561D01*
X6493940D01*
Y1771465D01*
X6491036D01*
Y1777273D01*
X6488132D01*
Y1780177D01*
X6485228D01*
Y1785985D01*
X6482323D01*
Y1791793D01*
X6479419D01*
Y1794697D01*
X6476515D01*
Y1817929D01*
X6479419D01*
Y1820833D01*
X6482323D01*
Y1826642D01*
X6485228D01*
Y1829545D01*
X6488132D01*
Y1832449D01*
X6491036D01*
Y1835353D01*
X6493940D01*
Y1838257D01*
X6496844D01*
Y1841162D01*
X6499748D01*
Y1844066D01*
X6505556D01*
Y1846970D01*
X6511364D01*
Y1849874D01*
X6508460D01*
Y1852778D01*
X6496844D01*
Y1855682D01*
X6488132D01*
Y1858586D01*
X6473611D01*
Y1861490D01*
X6464899D01*
Y1864394D01*
X6453283D01*
Y1867298D01*
X6435859D01*
Y1870202D01*
X6427147D01*
Y1873106D01*
X6406818D01*
Y1876010D01*
X6389394D01*
Y1878914D01*
X6371970D01*
Y1881818D01*
D02*
G37*
G36*
X7153157Y1571086D02*
X7138636D01*
Y1568182D01*
X7127020D01*
Y1565278D01*
X7118308D01*
Y1562374D01*
X7106692D01*
Y1559470D01*
X7103788D01*
Y1524621D01*
X7106692D01*
Y1521717D01*
X7112500D01*
Y1518813D01*
X7118308D01*
Y1515909D01*
X7127020D01*
Y1513005D01*
X7135732D01*
Y1510101D01*
X7141541D01*
Y1507197D01*
X7150253D01*
Y1504293D01*
X7156061D01*
Y1501389D01*
X7158965D01*
Y1498485D01*
X7161869D01*
Y1495581D01*
X7164773D01*
Y1492677D01*
X7167677D01*
Y1466540D01*
X7164773D01*
Y1452020D01*
X7161869D01*
Y1446212D01*
X7158965D01*
Y1437500D01*
X7156061D01*
Y1431692D01*
X7158965D01*
Y1428788D01*
X7173485D01*
Y1425884D01*
X7182197D01*
Y1422980D01*
X7193813D01*
Y1420076D01*
X7211238D01*
Y1417172D01*
X7219950D01*
Y1414268D01*
X7234470D01*
Y1411364D01*
X7248990D01*
Y1408459D01*
X7266414D01*
Y1405555D01*
X7298359D01*
Y1402651D01*
X7327399D01*
Y1405555D01*
X7344824D01*
Y1408459D01*
X7347727D01*
Y1414268D01*
X7344824D01*
Y1420076D01*
X7341919D01*
Y1422980D01*
X7339015D01*
Y1428788D01*
X7336111D01*
Y1431692D01*
X7333207D01*
Y1437500D01*
X7330303D01*
Y1440404D01*
X7327399D01*
Y1443308D01*
X7324495D01*
Y1446212D01*
X7321591D01*
Y1449116D01*
X7318687D01*
Y1452020D01*
X7315783D01*
Y1454924D01*
X7312879D01*
Y1457828D01*
X7309975D01*
Y1460732D01*
X7304167D01*
Y1463636D01*
X7301263D01*
Y1466540D01*
X7298359D01*
Y1469444D01*
X7295455D01*
Y1472349D01*
X7292551D01*
Y1475253D01*
X7289647D01*
Y1478157D01*
X7283839D01*
Y1481061D01*
X7280935D01*
Y1483965D01*
X7278030D01*
Y1486869D01*
X7272222D01*
Y1489773D01*
X7269318D01*
Y1492677D01*
X7266414D01*
Y1495581D01*
X7263510D01*
Y1498485D01*
X7257702D01*
Y1501389D01*
X7254798D01*
Y1504293D01*
X7251894D01*
Y1507197D01*
X7246086D01*
Y1510101D01*
X7243182D01*
Y1513005D01*
X7237374D01*
Y1515909D01*
X7231566D01*
Y1518813D01*
X7228662D01*
Y1521717D01*
X7225758D01*
Y1524621D01*
X7219950D01*
Y1527525D01*
X7217046D01*
Y1530429D01*
X7211238D01*
Y1533333D01*
X7208334D01*
Y1536237D01*
X7202525D01*
Y1539141D01*
X7199621D01*
Y1542045D01*
X7193813D01*
Y1544949D01*
X7190909D01*
Y1547853D01*
X7185101D01*
Y1550758D01*
X7182197D01*
Y1553662D01*
X7176389D01*
Y1556566D01*
X7170581D01*
Y1559470D01*
X7167677D01*
Y1562374D01*
X7161869D01*
Y1565278D01*
X7156061D01*
Y1568182D01*
X7153157D01*
Y1571086D01*
D02*
G37*
G36*
X6435859Y1707576D02*
X6432955D01*
Y1704672D01*
X6430051D01*
Y1698864D01*
X6427147D01*
Y1690152D01*
X6424243D01*
Y1684343D01*
X6421339D01*
Y1675631D01*
X6424243D01*
Y1669823D01*
X6427147D01*
Y1666919D01*
X6432955D01*
Y1664015D01*
X6438763D01*
Y1661111D01*
X6444571D01*
Y1658207D01*
X6447475D01*
Y1655303D01*
X6453283D01*
Y1652399D01*
X6459091D01*
Y1649495D01*
X6464899D01*
Y1646591D01*
X6470707D01*
Y1643687D01*
X6473611D01*
Y1640783D01*
X6479419D01*
Y1637879D01*
X6482323D01*
Y1634975D01*
X6485228D01*
Y1629167D01*
X6482323D01*
Y1605934D01*
X6479419D01*
Y1585606D01*
X6473611D01*
Y1582702D01*
X6459091D01*
Y1579798D01*
X6432955D01*
Y1576894D01*
X6409723D01*
Y1573990D01*
X6406818D01*
Y1571086D01*
X6403914D01*
Y1536237D01*
X6406818D01*
Y1533333D01*
X6409723D01*
Y1530429D01*
X6424243D01*
Y1527525D01*
X6444571D01*
Y1524621D01*
X6470707D01*
Y1521717D01*
X6482323D01*
Y1513005D01*
X6485228D01*
Y1501389D01*
X6488132D01*
Y1489773D01*
X6491036D01*
Y1478157D01*
X6493940D01*
Y1472349D01*
X6496844D01*
Y1466540D01*
X6493940D01*
Y1463636D01*
X6491036D01*
Y1460732D01*
X6485228D01*
Y1457828D01*
X6482323D01*
Y1454924D01*
X6479419D01*
Y1452020D01*
X6473611D01*
Y1449116D01*
X6470707D01*
Y1446212D01*
X6467803D01*
Y1443308D01*
X6461995D01*
Y1440404D01*
X6459091D01*
Y1437500D01*
X6456187D01*
Y1434596D01*
X6450379D01*
Y1431692D01*
X6447475D01*
Y1428788D01*
X6441667D01*
Y1422980D01*
X6438763D01*
Y1420076D01*
X6435859D01*
Y1411364D01*
X6438763D01*
Y1405555D01*
X6441667D01*
Y1399748D01*
X6444571D01*
Y1393939D01*
X6447475D01*
Y1391035D01*
X6450379D01*
Y1388131D01*
X6467803D01*
Y1391035D01*
X6479419D01*
Y1393939D01*
X6485228D01*
Y1396844D01*
X6499748D01*
Y1399748D01*
X6508460D01*
Y1402651D01*
X6517172D01*
Y1405555D01*
X6522980D01*
Y1402651D01*
X6525884D01*
Y1399748D01*
X6528788D01*
Y1393939D01*
X6531692D01*
Y1391035D01*
X6534596D01*
Y1388131D01*
X6537500D01*
Y1385227D01*
X6540404D01*
Y1382323D01*
X6543308D01*
Y1379419D01*
X6546212D01*
Y1376515D01*
X6549116D01*
Y1373611D01*
X6552020D01*
Y1370707D01*
X6554924D01*
Y1367803D01*
X6557828D01*
Y1359091D01*
X6554924D01*
Y1356187D01*
X6552020D01*
Y1350379D01*
X6549116D01*
Y1344571D01*
X6546212D01*
Y1338763D01*
X6543308D01*
Y1335859D01*
X6540404D01*
Y1330050D01*
X6537500D01*
Y1324242D01*
X6534596D01*
Y1321338D01*
X6531692D01*
Y1315530D01*
X6528788D01*
Y1309722D01*
X6525884D01*
Y1306818D01*
X6522980D01*
Y1295202D01*
X6525884D01*
Y1289394D01*
X6531692D01*
Y1286490D01*
X6534596D01*
Y1283586D01*
X6537500D01*
Y1280682D01*
X6554924D01*
Y1283586D01*
X6557828D01*
Y1286490D01*
X6560733D01*
Y1289394D01*
X6566541D01*
Y1292298D01*
X6569445D01*
Y1295202D01*
X6572349D01*
Y1298106D01*
X6578157D01*
Y1301010D01*
X6581061D01*
Y1303914D01*
X6583965D01*
Y1306818D01*
X6589773D01*
Y1309722D01*
X6595581D01*
Y1312626D01*
X6615909D01*
Y1309722D01*
X6621717D01*
Y1306818D01*
X6627525D01*
Y1303914D01*
X6633333D01*
Y1301010D01*
X6639142D01*
Y1298106D01*
X6644950D01*
Y1295202D01*
X6647854D01*
Y1286490D01*
X6644950D01*
Y1254545D01*
X6642046D01*
Y1237121D01*
X6639142D01*
Y1222601D01*
X6642046D01*
Y1219697D01*
X6644950D01*
Y1213889D01*
X6653662D01*
Y1210985D01*
X6665278D01*
Y1208081D01*
X6671086D01*
Y1205177D01*
X6673990D01*
Y1208081D01*
X6679798D01*
Y1210985D01*
X6682702D01*
Y1213889D01*
X6685606D01*
Y1219697D01*
X6688510D01*
Y1222601D01*
X6691414D01*
Y1228409D01*
X6694318D01*
Y1234217D01*
X6697222D01*
Y1240025D01*
X6700127D01*
Y1245833D01*
X6703031D01*
Y1251641D01*
X6705935D01*
Y1254545D01*
X6708839D01*
Y1260354D01*
X6711743D01*
Y1263258D01*
X6714647D01*
Y1269066D01*
X6726263D01*
Y1266162D01*
X6752399D01*
Y1263258D01*
X6766919D01*
Y1260354D01*
X6769823D01*
Y1248737D01*
X6772727D01*
Y1240025D01*
X6775632D01*
Y1228409D01*
X6778536D01*
Y1210985D01*
X6781440D01*
Y1205177D01*
X6784344D01*
Y1193560D01*
X6787248D01*
Y1190656D01*
X6793056D01*
Y1187753D01*
X6807576D01*
Y1190656D01*
X6825000D01*
Y1193560D01*
X6827904D01*
Y1196465D01*
X6830808D01*
Y1208081D01*
X6833712D01*
Y1245833D01*
X6836616D01*
Y1263258D01*
X6839520D01*
Y1269066D01*
X6848232D01*
Y1271970D01*
X6859849D01*
Y1274874D01*
X6871465D01*
Y1277778D01*
X6877273D01*
Y1280682D01*
X6888889D01*
Y1277778D01*
X6891793D01*
Y1274874D01*
X6894697D01*
Y1271970D01*
X6897601D01*
Y1269066D01*
X6900505D01*
Y1266162D01*
X6903409D01*
Y1260354D01*
X6906313D01*
Y1257450D01*
X6909217D01*
Y1254545D01*
X6912121D01*
Y1248737D01*
X6915026D01*
Y1245833D01*
X6917930D01*
Y1242929D01*
X6920834D01*
Y1240025D01*
X6923737D01*
Y1234217D01*
X6926642D01*
Y1231313D01*
X6929546D01*
Y1228409D01*
X6932450D01*
Y1225505D01*
X6949874D01*
Y1228409D01*
X6955682D01*
Y1231313D01*
X6961490D01*
Y1234217D01*
X6967298D01*
Y1237121D01*
X6970202D01*
Y1242929D01*
X6973106D01*
Y1248737D01*
X6970202D01*
Y1254545D01*
X6967298D01*
Y1263258D01*
X6964394D01*
Y1271970D01*
X6961490D01*
Y1277778D01*
X6958586D01*
Y1286490D01*
X6955682D01*
Y1298106D01*
X6952778D01*
Y1303914D01*
X6949874D01*
Y1312626D01*
X6955682D01*
Y1315530D01*
X6958586D01*
Y1318434D01*
X6964394D01*
Y1321338D01*
X6967298D01*
Y1324242D01*
X6970202D01*
Y1327146D01*
X6973106D01*
Y1330050D01*
X6976010D01*
Y1332954D01*
X6978914D01*
Y1335859D01*
X6984722D01*
Y1338763D01*
X6987626D01*
Y1341667D01*
X6990531D01*
Y1344571D01*
X6993435D01*
Y1347475D01*
X7002147D01*
Y1344571D01*
X7007955D01*
Y1341667D01*
X7010859D01*
Y1338763D01*
X7016667D01*
Y1335859D01*
X7019571D01*
Y1332954D01*
X7022475D01*
Y1330050D01*
X7028283D01*
Y1327146D01*
X7034091D01*
Y1324242D01*
X7036995D01*
Y1321338D01*
X7042803D01*
Y1318434D01*
X7045707D01*
Y1315530D01*
X7048611D01*
Y1312626D01*
X7057323D01*
Y1309722D01*
X7063131D01*
Y1312626D01*
X7068940D01*
Y1315530D01*
X7071844D01*
Y1318434D01*
X7074748D01*
Y1321338D01*
X7077652D01*
Y1327146D01*
X7080556D01*
Y1330050D01*
X7083460D01*
Y1332954D01*
X7086364D01*
Y1338763D01*
X7089268D01*
Y1341667D01*
X7086364D01*
Y1344571D01*
X7083460D01*
Y1350379D01*
X7080556D01*
Y1353283D01*
X7077652D01*
Y1356187D01*
X7074748D01*
Y1359091D01*
X7071844D01*
Y1361995D01*
X7068940D01*
Y1367803D01*
X7066036D01*
Y1370707D01*
X7063131D01*
Y1373611D01*
X7060227D01*
Y1376515D01*
X7057323D01*
Y1379419D01*
X7054419D01*
Y1382323D01*
X7051515D01*
Y1388131D01*
X7048611D01*
Y1391035D01*
X7045707D01*
Y1393939D01*
X7042803D01*
Y1396844D01*
X7039899D01*
Y1402651D01*
X7042803D01*
Y1408459D01*
X7045707D01*
Y1411364D01*
X7048611D01*
Y1414268D01*
X7051515D01*
Y1417172D01*
X7048611D01*
Y1420076D01*
X7042803D01*
Y1422980D01*
X7031187D01*
Y1425884D01*
X7025379D01*
Y1428788D01*
X7016667D01*
Y1431692D01*
X7007955D01*
Y1434596D01*
X7002147D01*
Y1437500D01*
X6990531D01*
Y1440404D01*
X6984722D01*
Y1443308D01*
X6976010D01*
Y1446212D01*
X6967298D01*
Y1449116D01*
X6961490D01*
Y1452020D01*
X6952778D01*
Y1454924D01*
X6944066D01*
Y1457828D01*
X6938258D01*
Y1460732D01*
X6929546D01*
Y1463636D01*
X6923737D01*
Y1466540D01*
X6915026D01*
Y1469444D01*
X6906313D01*
Y1472349D01*
X6900505D01*
Y1475253D01*
X6891793D01*
Y1478157D01*
X6883081D01*
Y1475253D01*
X6880177D01*
Y1472349D01*
X6877273D01*
Y1469444D01*
X6874369D01*
Y1466540D01*
X6871465D01*
Y1463636D01*
X6868561D01*
Y1460732D01*
X6862753D01*
Y1457828D01*
X6859849D01*
Y1454924D01*
X6856945D01*
Y1452020D01*
X6851137D01*
Y1449116D01*
X6845328D01*
Y1446212D01*
X6836616D01*
Y1443308D01*
X6833712D01*
Y1440404D01*
X6822096D01*
Y1437500D01*
X6807576D01*
Y1434596D01*
X6793056D01*
Y1431692D01*
X6775632D01*
Y1434596D01*
X6761111D01*
Y1437500D01*
X6746591D01*
Y1440404D01*
X6737879D01*
Y1443308D01*
X6732071D01*
Y1446212D01*
X6723359D01*
Y1449116D01*
X6720455D01*
Y1452020D01*
X6714647D01*
Y1454924D01*
X6708839D01*
Y1457828D01*
X6705935D01*
Y1460732D01*
X6700127D01*
Y1463636D01*
X6697222D01*
Y1466540D01*
X6694318D01*
Y1469444D01*
X6691414D01*
Y1472349D01*
X6688510D01*
Y1475253D01*
X6685606D01*
Y1478157D01*
X6682702D01*
Y1481061D01*
X6679798D01*
Y1483965D01*
X6676894D01*
Y1489773D01*
X6673990D01*
Y1492677D01*
X6671086D01*
Y1498485D01*
X6668182D01*
Y1504293D01*
X6665278D01*
Y1507197D01*
X6662374D01*
Y1515909D01*
X6659470D01*
Y1521717D01*
X6656566D01*
Y1530429D01*
X6653662D01*
Y1544949D01*
X6650758D01*
Y1585606D01*
X6647854D01*
Y1588510D01*
X6642046D01*
Y1591414D01*
X6636238D01*
Y1594318D01*
X6630429D01*
Y1597222D01*
X6627525D01*
Y1600126D01*
X6618813D01*
Y1603030D01*
X6613005D01*
Y1605934D01*
X6610101D01*
Y1608838D01*
X6601389D01*
Y1611743D01*
X6598485D01*
Y1614647D01*
X6592677D01*
Y1617550D01*
X6586869D01*
Y1620454D01*
X6581061D01*
Y1623358D01*
X6575253D01*
Y1626263D01*
X6569445D01*
Y1629167D01*
X6566541D01*
Y1632071D01*
X6560733D01*
Y1634975D01*
X6554924D01*
Y1637879D01*
X6549116D01*
Y1640783D01*
X6543308D01*
Y1643687D01*
X6540404D01*
Y1646591D01*
X6534596D01*
Y1649495D01*
X6528788D01*
Y1652399D01*
X6522980D01*
Y1655303D01*
X6517172D01*
Y1658207D01*
X6514268D01*
Y1661111D01*
X6508460D01*
Y1664015D01*
X6502652D01*
Y1666919D01*
X6499748D01*
Y1669823D01*
X6493940D01*
Y1672727D01*
X6488132D01*
Y1675631D01*
X6485228D01*
Y1678535D01*
X6479419D01*
Y1681439D01*
X6473611D01*
Y1684343D01*
X6470707D01*
Y1687248D01*
X6461995D01*
Y1690152D01*
X6459091D01*
Y1693056D01*
X6456187D01*
Y1695960D01*
X6450379D01*
Y1698864D01*
X6447475D01*
Y1701768D01*
X6441667D01*
Y1704672D01*
X6435859D01*
Y1707576D01*
D02*
G37*
%LPD*%
G36*
X6743687Y1812121D02*
X6752399D01*
Y1809217D01*
X6758207D01*
Y1806313D01*
X6761111D01*
Y1803409D01*
X6764015D01*
Y1797601D01*
X6766919D01*
Y1791793D01*
X6769823D01*
Y1771465D01*
X6766919D01*
Y1765657D01*
X6764015D01*
Y1759848D01*
X6761111D01*
Y1756944D01*
X6755303D01*
Y1754040D01*
X6752399D01*
Y1751136D01*
X6746591D01*
Y1748232D01*
X6726263D01*
Y1751136D01*
X6720455D01*
Y1754040D01*
X6717551D01*
Y1756944D01*
X6711743D01*
Y1759848D01*
X6708839D01*
Y1765657D01*
X6705935D01*
Y1771465D01*
X6703031D01*
Y1791793D01*
X6705935D01*
Y1797601D01*
X6708839D01*
Y1803409D01*
X6711743D01*
Y1806313D01*
X6714647D01*
Y1809217D01*
X6720455D01*
Y1812121D01*
X6729167D01*
Y1815025D01*
X6743687D01*
Y1812121D01*
D02*
G37*
G36*
X6888889Y1794697D02*
X6897601D01*
Y1791793D01*
X6900505D01*
Y1788889D01*
X6903409D01*
Y1785985D01*
X6906313D01*
Y1783081D01*
X6909217D01*
Y1777273D01*
X6912121D01*
Y1765657D01*
X6915026D01*
Y1762752D01*
X6912121D01*
Y1751136D01*
X6909217D01*
Y1745328D01*
X6906313D01*
Y1742424D01*
X6903409D01*
Y1739520D01*
X6900505D01*
Y1736616D01*
X6897601D01*
Y1733712D01*
X6888889D01*
Y1730808D01*
X6871465D01*
Y1733712D01*
X6862753D01*
Y1736616D01*
X6859849D01*
Y1739520D01*
X6856945D01*
Y1742424D01*
X6854041D01*
Y1745328D01*
X6851137D01*
Y1751136D01*
X6848232D01*
Y1777273D01*
X6851137D01*
Y1783081D01*
X6854041D01*
Y1785985D01*
X6856945D01*
Y1788889D01*
X6859849D01*
Y1791793D01*
X6862753D01*
Y1794697D01*
X6871465D01*
Y1797601D01*
X6888889D01*
Y1794697D01*
D02*
G37*
G36*
X6624621Y1739520D02*
X6633333D01*
Y1736616D01*
X6636238D01*
Y1733712D01*
X6639142D01*
Y1730808D01*
X6642046D01*
Y1727904D01*
X6644950D01*
Y1722096D01*
X6647854D01*
Y1695960D01*
X6644950D01*
Y1690152D01*
X6642046D01*
Y1687248D01*
X6639142D01*
Y1684343D01*
X6636238D01*
Y1681439D01*
X6630429D01*
Y1678535D01*
X6624621D01*
Y1675631D01*
X6607197D01*
Y1678535D01*
X6598485D01*
Y1681439D01*
X6595581D01*
Y1684343D01*
X6592677D01*
Y1687248D01*
X6589773D01*
Y1690152D01*
X6586869D01*
Y1695960D01*
X6583965D01*
Y1722096D01*
X6586869D01*
Y1727904D01*
X6589773D01*
Y1730808D01*
X6592677D01*
Y1733712D01*
X6595581D01*
Y1736616D01*
X6598485D01*
Y1739520D01*
X6607197D01*
Y1742424D01*
X6624621D01*
Y1739520D01*
D02*
G37*
G36*
X6993435Y1698864D02*
X6999243D01*
Y1695960D01*
X7002147D01*
Y1693056D01*
X7005051D01*
Y1690152D01*
X7007955D01*
Y1687248D01*
X7010859D01*
Y1675631D01*
X7013763D01*
Y1661111D01*
X7010859D01*
Y1652399D01*
X7007955D01*
Y1649495D01*
X7005051D01*
Y1646591D01*
X7002147D01*
Y1643687D01*
X6999243D01*
Y1640783D01*
X6993435D01*
Y1637879D01*
X6987626D01*
Y1634975D01*
X6973106D01*
Y1637879D01*
X6967298D01*
Y1640783D01*
X6961490D01*
Y1643687D01*
X6958586D01*
Y1646591D01*
X6955682D01*
Y1649495D01*
X6952778D01*
Y1652399D01*
X6949874D01*
Y1661111D01*
X6946970D01*
Y1675631D01*
X6949874D01*
Y1687248D01*
X6952778D01*
Y1690152D01*
X6955682D01*
Y1693056D01*
X6958586D01*
Y1695960D01*
X6961490D01*
Y1698864D01*
X6967298D01*
Y1701768D01*
X6993435D01*
Y1698864D01*
D02*
G37*
G36*
X7013763Y1568182D02*
X7019571D01*
Y1565278D01*
X7022475D01*
Y1562374D01*
X7025379D01*
Y1559470D01*
X7028283D01*
Y1556566D01*
X7031187D01*
Y1553662D01*
X7034091D01*
Y1524621D01*
X7031187D01*
Y1518813D01*
X7028283D01*
Y1515909D01*
X7025379D01*
Y1513005D01*
X7022475D01*
Y1510101D01*
X7016667D01*
Y1507197D01*
X7007955D01*
Y1504293D01*
X6996339D01*
Y1507197D01*
X6987626D01*
Y1510101D01*
X6981818D01*
Y1513005D01*
X6978914D01*
Y1515909D01*
X6976010D01*
Y1518813D01*
X6973106D01*
Y1527525D01*
X6970202D01*
Y1536237D01*
X6967298D01*
Y1539141D01*
X6970202D01*
Y1550758D01*
X6973106D01*
Y1556566D01*
X6976010D01*
Y1559470D01*
X6978914D01*
Y1562374D01*
X6981818D01*
Y1565278D01*
X6984722D01*
Y1568182D01*
X6990531D01*
Y1571086D01*
X7013763D01*
Y1568182D01*
D02*
G37*
%LPC*%
G36*
X6746591Y1806313D02*
X6726263D01*
Y1803409D01*
X6720455D01*
Y1800505D01*
X6717551D01*
Y1797601D01*
X6714647D01*
Y1791793D01*
X6711743D01*
Y1785985D01*
X6708839D01*
Y1780177D01*
X6711743D01*
Y1771465D01*
X6714647D01*
Y1765657D01*
X6717551D01*
Y1762752D01*
X6720455D01*
Y1759848D01*
X6726263D01*
Y1756944D01*
X6746591D01*
Y1759848D01*
X6752399D01*
Y1762752D01*
X6755303D01*
Y1765657D01*
X6758207D01*
Y1771465D01*
X6761111D01*
Y1791793D01*
X6758207D01*
Y1797601D01*
X6755303D01*
Y1800505D01*
X6752399D01*
Y1803409D01*
X6746591D01*
Y1806313D01*
D02*
G37*
G36*
X6891793Y1788889D02*
X6868561D01*
Y1785985D01*
X6865657D01*
Y1783081D01*
X6862753D01*
Y1780177D01*
X6859849D01*
Y1777273D01*
X6856945D01*
Y1771465D01*
X6854041D01*
Y1756944D01*
X6856945D01*
Y1751136D01*
X6859849D01*
Y1748232D01*
X6862753D01*
Y1745328D01*
X6865657D01*
Y1742424D01*
X6868561D01*
Y1739520D01*
X6891793D01*
Y1742424D01*
X6897601D01*
Y1745328D01*
X6900505D01*
Y1751136D01*
X6903409D01*
Y1756944D01*
X6906313D01*
Y1771465D01*
X6903409D01*
Y1777273D01*
X6900505D01*
Y1780177D01*
X6897601D01*
Y1783081D01*
X6894697D01*
Y1785985D01*
X6891793D01*
Y1788889D01*
D02*
G37*
G36*
X6627525Y1733712D02*
X6604293D01*
Y1730808D01*
X6601389D01*
Y1727904D01*
X6595581D01*
Y1722096D01*
X6592677D01*
Y1716288D01*
X6589773D01*
Y1701768D01*
X6592677D01*
Y1695960D01*
X6595581D01*
Y1693056D01*
X6598485D01*
Y1690152D01*
X6601389D01*
Y1687248D01*
X6604293D01*
Y1684343D01*
X6627525D01*
Y1687248D01*
X6630429D01*
Y1690152D01*
X6633333D01*
Y1693056D01*
X6636238D01*
Y1695960D01*
X6639142D01*
Y1704672D01*
X6642046D01*
Y1716288D01*
X6639142D01*
Y1722096D01*
X6636238D01*
Y1727904D01*
X6630429D01*
Y1730808D01*
X6627525D01*
Y1733712D01*
D02*
G37*
G36*
X6984722Y1695960D02*
X6976010D01*
Y1693056D01*
X6967298D01*
Y1690152D01*
X6964394D01*
Y1687248D01*
X6961490D01*
Y1684343D01*
X6958586D01*
Y1681439D01*
X6955682D01*
Y1658207D01*
X6958586D01*
Y1652399D01*
X6961490D01*
Y1649495D01*
X6964394D01*
Y1646591D01*
X6973106D01*
Y1643687D01*
X6987626D01*
Y1646591D01*
X6996339D01*
Y1649495D01*
X6999243D01*
Y1652399D01*
X7002147D01*
Y1658207D01*
X7005051D01*
Y1681439D01*
X7002147D01*
Y1684343D01*
X6999243D01*
Y1687248D01*
X6996339D01*
Y1690152D01*
X6993435D01*
Y1693056D01*
X6984722D01*
Y1695960D01*
D02*
G37*
G36*
X7005051Y1565278D02*
X6999243D01*
Y1562374D01*
X6990531D01*
Y1559470D01*
X6984722D01*
Y1556566D01*
X6981818D01*
Y1550758D01*
X6978914D01*
Y1542045D01*
X6976010D01*
Y1533333D01*
X6978914D01*
Y1524621D01*
X6981818D01*
Y1521717D01*
X6984722D01*
Y1518813D01*
X6987626D01*
Y1515909D01*
X6993435D01*
Y1513005D01*
X7010859D01*
Y1515909D01*
X7016667D01*
Y1518813D01*
X7019571D01*
Y1521717D01*
X7022475D01*
Y1524621D01*
X7025379D01*
Y1530429D01*
X7028283D01*
Y1547853D01*
X7025379D01*
Y1550758D01*
X7022475D01*
Y1556566D01*
X7019571D01*
Y1559470D01*
X7013763D01*
Y1562374D01*
X7005051D01*
Y1565278D01*
D02*
G37*
%LPD*%
G36*
X6572349Y1611743D02*
X6578157D01*
Y1608838D01*
X6583965D01*
Y1605934D01*
X6586869D01*
Y1603030D01*
X6589773D01*
Y1600126D01*
X6592677D01*
Y1597222D01*
X6595581D01*
Y1591414D01*
X6598485D01*
Y1571086D01*
X6595581D01*
Y1565278D01*
X6592677D01*
Y1559470D01*
X6589773D01*
Y1556566D01*
X6586869D01*
Y1553662D01*
X6581061D01*
Y1550758D01*
X6578157D01*
Y1547853D01*
X6552020D01*
Y1550758D01*
X6549116D01*
Y1553662D01*
X6543308D01*
Y1556566D01*
X6540404D01*
Y1559470D01*
X6537500D01*
Y1565278D01*
X6534596D01*
Y1571086D01*
X6531692D01*
Y1591414D01*
X6534596D01*
Y1594318D01*
X6537500D01*
Y1600126D01*
X6540404D01*
Y1603030D01*
X6543308D01*
Y1605934D01*
X6546212D01*
Y1608838D01*
X6552020D01*
Y1611743D01*
X6557828D01*
Y1614647D01*
X6572349D01*
Y1611743D01*
D02*
G37*
G36*
X6610101Y1483965D02*
X6615909D01*
Y1481061D01*
X6618813D01*
Y1478157D01*
X6621717D01*
Y1475253D01*
X6624621D01*
Y1472349D01*
X6627525D01*
Y1466540D01*
X6630429D01*
Y1443308D01*
X6627525D01*
Y1437500D01*
X6624621D01*
Y1434596D01*
X6621717D01*
Y1428788D01*
X6615909D01*
Y1425884D01*
X6613005D01*
Y1422980D01*
X6583965D01*
Y1425884D01*
X6578157D01*
Y1428788D01*
X6575253D01*
Y1431692D01*
X6572349D01*
Y1434596D01*
X6569445D01*
Y1440404D01*
X6566541D01*
Y1446212D01*
X6563637D01*
Y1463636D01*
X6566541D01*
Y1469444D01*
X6569445D01*
Y1475253D01*
X6572349D01*
Y1478157D01*
X6575253D01*
Y1481061D01*
X6578157D01*
Y1483965D01*
X6586869D01*
Y1486869D01*
X6610101D01*
Y1483965D01*
D02*
G37*
G36*
X6946970Y1446212D02*
X6955682D01*
Y1443308D01*
X6961490D01*
Y1440404D01*
X6964394D01*
Y1437500D01*
X6967298D01*
Y1431692D01*
X6970202D01*
Y1428788D01*
X6973106D01*
Y1402651D01*
X6970202D01*
Y1396844D01*
X6967298D01*
Y1393939D01*
X6964394D01*
Y1391035D01*
X6961490D01*
Y1388131D01*
X6958586D01*
Y1385227D01*
X6952778D01*
Y1382323D01*
X6929546D01*
Y1385227D01*
X6923737D01*
Y1388131D01*
X6920834D01*
Y1391035D01*
X6917930D01*
Y1393939D01*
X6915026D01*
Y1396844D01*
X6912121D01*
Y1402651D01*
X6909217D01*
Y1414268D01*
X6906313D01*
Y1417172D01*
X6909217D01*
Y1428788D01*
X6912121D01*
Y1434596D01*
X6915026D01*
Y1437500D01*
X6917930D01*
Y1440404D01*
X6920834D01*
Y1443308D01*
X6926642D01*
Y1446212D01*
X6935354D01*
Y1449116D01*
X6946970D01*
Y1446212D01*
D02*
G37*
G36*
X6714647Y1393939D02*
X6720455D01*
Y1391035D01*
X6723359D01*
Y1388131D01*
X6726263D01*
Y1385227D01*
X6729167D01*
Y1382323D01*
X6732071D01*
Y1376515D01*
X6734975D01*
Y1353283D01*
X6732071D01*
Y1347475D01*
X6729167D01*
Y1341667D01*
X6726263D01*
Y1338763D01*
X6723359D01*
Y1335859D01*
X6717551D01*
Y1332954D01*
X6708839D01*
Y1330050D01*
X6694318D01*
Y1332954D01*
X6688510D01*
Y1335859D01*
X6682702D01*
Y1338763D01*
X6679798D01*
Y1341667D01*
X6676894D01*
Y1344571D01*
X6673990D01*
Y1350379D01*
X6671086D01*
Y1361995D01*
X6668182D01*
Y1364899D01*
Y1367803D01*
X6671086D01*
Y1379419D01*
X6673990D01*
Y1382323D01*
X6676894D01*
Y1388131D01*
X6679798D01*
Y1391035D01*
X6685606D01*
Y1393939D01*
X6691414D01*
Y1396844D01*
X6714647D01*
Y1393939D01*
D02*
G37*
G36*
X6839520Y1385227D02*
X6848232D01*
Y1382323D01*
X6851137D01*
Y1379419D01*
X6854041D01*
Y1376515D01*
X6856945D01*
Y1373611D01*
X6859849D01*
Y1370707D01*
X6862753D01*
Y1364899D01*
X6865657D01*
Y1341667D01*
X6862753D01*
Y1335859D01*
X6859849D01*
Y1332954D01*
X6856945D01*
Y1330050D01*
X6854041D01*
Y1327146D01*
X6851137D01*
Y1324242D01*
X6845328D01*
Y1321338D01*
X6819192D01*
Y1324242D01*
X6816288D01*
Y1327146D01*
X6810480D01*
Y1330050D01*
X6807576D01*
Y1335859D01*
X6804672D01*
Y1338763D01*
X6801768D01*
Y1350379D01*
X6798864D01*
Y1356187D01*
X6801768D01*
Y1367803D01*
X6804672D01*
Y1373611D01*
X6807576D01*
Y1376515D01*
X6810480D01*
Y1379419D01*
X6813384D01*
Y1382323D01*
X6819192D01*
Y1385227D01*
X6827904D01*
Y1388131D01*
X6839520D01*
Y1385227D01*
D02*
G37*
%LPC*%
G36*
X6575253Y1605934D02*
X6554924D01*
Y1603030D01*
X6552020D01*
Y1600126D01*
X6546212D01*
Y1594318D01*
X6543308D01*
Y1591414D01*
X6540404D01*
Y1571086D01*
X6543308D01*
Y1568182D01*
Y1565278D01*
X6546212D01*
Y1562374D01*
X6549116D01*
Y1559470D01*
X6554924D01*
Y1556566D01*
X6557828D01*
Y1553662D01*
X6572349D01*
Y1556566D01*
X6578157D01*
Y1559470D01*
X6581061D01*
Y1562374D01*
X6583965D01*
Y1565278D01*
X6586869D01*
Y1568182D01*
X6589773D01*
Y1576894D01*
X6592677D01*
Y1582702D01*
X6589773D01*
Y1591414D01*
X6586869D01*
Y1597222D01*
X6583965D01*
Y1600126D01*
X6581061D01*
Y1603030D01*
X6575253D01*
Y1605934D01*
D02*
G37*
G36*
X6601389Y1481061D02*
X6595581D01*
Y1478157D01*
X6583965D01*
Y1475253D01*
X6581061D01*
Y1472349D01*
X6578157D01*
Y1469444D01*
X6575253D01*
Y1463636D01*
X6572349D01*
Y1446212D01*
X6575253D01*
Y1440404D01*
X6578157D01*
Y1437500D01*
X6581061D01*
Y1434596D01*
X6583965D01*
Y1431692D01*
X6589773D01*
Y1428788D01*
X6607197D01*
Y1431692D01*
X6613005D01*
Y1434596D01*
X6615909D01*
Y1437500D01*
X6618813D01*
Y1443308D01*
X6621717D01*
Y1452020D01*
X6624621D01*
Y1457828D01*
X6621717D01*
Y1466540D01*
X6618813D01*
Y1469444D01*
X6615909D01*
Y1472349D01*
X6613005D01*
Y1475253D01*
X6610101D01*
Y1478157D01*
X6601389D01*
Y1481061D01*
D02*
G37*
G36*
X6949874Y1440404D02*
X6932450D01*
Y1437500D01*
X6926642D01*
Y1434596D01*
X6923737D01*
Y1431692D01*
X6920834D01*
Y1428788D01*
X6917930D01*
Y1422980D01*
X6915026D01*
Y1408459D01*
X6917930D01*
Y1399748D01*
X6920834D01*
Y1396844D01*
X6923737D01*
Y1393939D01*
X6929546D01*
Y1391035D01*
X6938258D01*
Y1388131D01*
X6944066D01*
Y1391035D01*
X6952778D01*
Y1393939D01*
X6958586D01*
Y1396844D01*
X6961490D01*
Y1402651D01*
X6964394D01*
Y1408459D01*
X6967298D01*
Y1420076D01*
X6964394D01*
Y1425884D01*
Y1428788D01*
X6961490D01*
Y1431692D01*
X6958586D01*
Y1434596D01*
X6955682D01*
Y1437500D01*
X6949874D01*
Y1440404D01*
D02*
G37*
G36*
X6708839Y1391035D02*
X6697222D01*
Y1388131D01*
X6691414D01*
Y1385227D01*
X6685606D01*
Y1382323D01*
X6682702D01*
Y1379419D01*
X6679798D01*
Y1373611D01*
X6676894D01*
Y1370707D01*
Y1367803D01*
Y1356187D01*
X6679798D01*
Y1350379D01*
X6682702D01*
Y1347475D01*
X6685606D01*
Y1344571D01*
X6688510D01*
Y1341667D01*
X6694318D01*
Y1338763D01*
X6711743D01*
Y1341667D01*
X6717551D01*
Y1344571D01*
X6720455D01*
Y1347475D01*
X6723359D01*
Y1350379D01*
X6726263D01*
Y1376515D01*
X6723359D01*
Y1382323D01*
X6720455D01*
Y1385227D01*
X6714647D01*
Y1388131D01*
X6708839D01*
Y1391035D01*
D02*
G37*
G36*
X6842424Y1379419D02*
X6825000D01*
Y1376515D01*
X6819192D01*
Y1373611D01*
X6816288D01*
Y1370707D01*
X6813384D01*
Y1367803D01*
X6810480D01*
Y1361995D01*
X6807576D01*
Y1344571D01*
X6810480D01*
Y1338763D01*
X6813384D01*
Y1335859D01*
X6816288D01*
Y1332954D01*
X6819192D01*
Y1330050D01*
X6827904D01*
Y1327146D01*
X6839520D01*
Y1330050D01*
X6845328D01*
Y1332954D01*
X6851137D01*
Y1335859D01*
X6854041D01*
Y1341667D01*
X6856945D01*
Y1350379D01*
X6859849D01*
Y1356187D01*
X6856945D01*
Y1367803D01*
X6854041D01*
Y1370707D01*
X6851137D01*
Y1373611D01*
X6848232D01*
Y1376515D01*
X6842424D01*
Y1379419D01*
D02*
G37*
G36*
X765519Y2642783D02*
X763667D01*
X759038Y2641857D01*
X752557Y2640931D01*
X745150Y2637228D01*
X744225Y2636302D01*
X743299Y2635376D01*
X742373D01*
X741447Y2634450D01*
X738670Y2631673D01*
X734966Y2627969D01*
X731263Y2622414D01*
X465550Y2163203D01*
Y2162277D01*
Y2161351D01*
X464624Y2160425D01*
X463698Y2156722D01*
X462772Y2155796D01*
X461846Y2151167D01*
Y2150241D01*
Y2148389D01*
X460921Y2145612D01*
Y2141909D01*
X461846Y2133576D01*
X465550Y2124318D01*
X466476D01*
X467401Y2122466D01*
X469253Y2119689D01*
X470179Y2118763D01*
X472956Y2115060D01*
X473882D01*
X474808Y2113208D01*
X480363Y2110430D01*
X488695Y2106727D01*
X494250Y2105801D01*
X499805Y2104875D01*
X1031232D01*
Y2105801D01*
X1037713D01*
X1039564Y2106727D01*
X1043268D01*
X1045119Y2107653D01*
X1050674Y2110430D01*
X1057155Y2115985D01*
X1064562Y2124318D01*
X1065488Y2126169D01*
X1067339Y2129873D01*
X1068265Y2136354D01*
X1069191Y2143760D01*
Y2144686D01*
Y2147464D01*
Y2149315D01*
X1068265Y2153019D01*
X1066413Y2157648D01*
X1063636Y2163203D01*
Y2164129D01*
X798849Y2623340D01*
X797923D01*
X796997Y2624266D01*
X795145Y2627969D01*
Y2628895D01*
X793294Y2629821D01*
X791442Y2631673D01*
X790516Y2632598D01*
X789590Y2633524D01*
X784035Y2637228D01*
X775703Y2640005D01*
X771074Y2641857D01*
X765519D01*
Y2642783D01*
D02*
G37*
%LPD*%
G36*
X802552Y2547422D02*
Y2544645D01*
Y2540015D01*
Y2533535D01*
Y2527054D01*
Y2518721D01*
Y2502056D01*
Y2501131D01*
Y2498353D01*
Y2493724D01*
Y2488169D01*
Y2481688D01*
Y2474282D01*
Y2457617D01*
Y2456691D01*
X801626Y2454839D01*
Y2452062D01*
X800700Y2448358D01*
Y2443729D01*
X799774Y2437248D01*
Y2436323D01*
Y2433545D01*
X798849Y2427064D01*
X797923Y2423361D01*
Y2418732D01*
X796997Y2412251D01*
X796071Y2405770D01*
X795145Y2397438D01*
X794219Y2389105D01*
X792368Y2378921D01*
X791442Y2366885D01*
X789590Y2353924D01*
X787739Y2340036D01*
Y2339110D01*
Y2336333D01*
Y2332630D01*
X786813Y2328926D01*
Y2324297D01*
X785887Y2317816D01*
Y2316890D01*
Y2315039D01*
X784961Y2308558D01*
X783109Y2301151D01*
X782184Y2299300D01*
X781258Y2297448D01*
X747002D01*
Y2299300D01*
X746076Y2302077D01*
Y2306706D01*
X744225Y2315039D01*
Y2319668D01*
X743299Y2326149D01*
X742373Y2333555D01*
X741447Y2340962D01*
X739595Y2351146D01*
X738670Y2361330D01*
Y2362256D01*
Y2364108D01*
X737744Y2366885D01*
Y2370589D01*
X736818Y2380773D01*
X734966Y2391883D01*
X734040Y2402993D01*
X733115Y2413177D01*
X732189Y2416880D01*
Y2420583D01*
X731263Y2422435D01*
Y2423361D01*
Y2424287D01*
Y2425213D01*
X730337Y2429842D01*
Y2435397D01*
X729411Y2440026D01*
Y2440952D01*
Y2443729D01*
Y2448358D01*
X728485Y2455765D01*
Y2456691D01*
Y2459468D01*
Y2464097D01*
Y2470578D01*
Y2477059D01*
Y2485392D01*
X727560Y2502056D01*
Y2502982D01*
Y2505760D01*
Y2510389D01*
Y2516870D01*
Y2523351D01*
Y2531683D01*
Y2548348D01*
X802552D01*
Y2547422D01*
D02*
G37*
G36*
X797923Y2266896D02*
Y2265044D01*
Y2261341D01*
Y2256712D01*
Y2245602D01*
Y2232640D01*
Y2231714D01*
Y2229862D01*
Y2226159D01*
Y2222456D01*
Y2211346D01*
Y2199310D01*
X727560D01*
Y2200236D01*
Y2202088D01*
Y2205791D01*
Y2209494D01*
Y2220604D01*
Y2232640D01*
Y2233566D01*
Y2235417D01*
Y2239121D01*
Y2243750D01*
Y2254860D01*
Y2267821D01*
X797923D01*
Y2266896D01*
D02*
G37*
%LPC*%
G36*
X463698Y2041919D02*
Y2040067D01*
X462772Y2036364D01*
X460921Y2031735D01*
X459069Y2025254D01*
X448885Y1999331D01*
X479437D01*
X470179Y2023402D01*
Y2024328D01*
X469253Y2025254D01*
X467401Y2029883D01*
X465550Y2035438D01*
X463698Y2041919D01*
D02*
G37*
G36*
X979385Y2042845D02*
X977534D01*
X971979Y2041919D01*
X964572Y2039141D01*
X958091Y2034512D01*
X956240Y2032661D01*
X953462Y2027106D01*
X951610Y2023402D01*
X950685Y2018773D01*
X948833Y2012292D01*
Y2005812D01*
Y2004886D01*
Y2003034D01*
X949759Y2000257D01*
Y1996553D01*
X952536Y1988221D01*
X957165Y1979888D01*
X959017Y1978037D01*
X963646Y1975259D01*
X970127Y1972482D01*
X979385Y1970630D01*
X981237D01*
X986792Y1971556D01*
X994199Y1974333D01*
X1000679Y1979888D01*
Y1980814D01*
X1002531Y1981740D01*
X1005309Y1987295D01*
X1008086Y1995627D01*
X1009938Y2006737D01*
Y2007663D01*
Y2008589D01*
Y2013218D01*
X1008086Y2018773D01*
X1006234Y2025254D01*
X1005309Y2027106D01*
X1003457Y2029883D01*
X999754Y2034512D01*
X995125Y2038216D01*
X994199Y2039141D01*
X990495Y2040993D01*
X984940Y2041919D01*
X979385Y2042845D01*
D02*
G37*
G36*
X766333Y1702783D02*
X764481D01*
Y1701857D01*
X758926D01*
X754297Y1700005D01*
X745964Y1697228D01*
X740410Y1693524D01*
X739484Y1692599D01*
X738558Y1691673D01*
X736706Y1689821D01*
X734855Y1688895D01*
Y1687969D01*
X733003Y1684266D01*
X732077Y1683340D01*
X731151D01*
X640420Y1525949D01*
X671898Y1512988D01*
X682082Y1510210D01*
X690415Y1508358D01*
X694118Y1507433D01*
X710783D01*
X719116Y1508358D01*
X735781D01*
X740410Y1509284D01*
X751520D01*
X760778Y1508358D01*
X769110Y1507433D01*
X775591Y1506507D01*
X781146Y1505581D01*
X785775Y1503729D01*
X788553Y1502803D01*
X789479D01*
X796885Y1500026D01*
X804292Y1496323D01*
X818179Y1487990D01*
X824660Y1484287D01*
X829289Y1481509D01*
X832067Y1479658D01*
X832993Y1478732D01*
X835770Y1476880D01*
X840399Y1474103D01*
X844103Y1471325D01*
X845029Y1470399D01*
X845954D01*
X848732Y1468548D01*
X849658Y1467622D01*
X850584D01*
X853361Y1465770D01*
X854287Y1464844D01*
X860768Y1461141D01*
X865397Y1457438D01*
X869100Y1455586D01*
X870026Y1454660D01*
X875581Y1450031D01*
X880210Y1446328D01*
X882062Y1443550D01*
X882988Y1442624D01*
X923724Y1465770D01*
X798737Y1682414D01*
X795034Y1687969D01*
X791330Y1691673D01*
X788553Y1694450D01*
X787627Y1695376D01*
X786701D01*
X785775Y1696302D01*
X784849Y1697228D01*
X777443Y1700931D01*
X770962Y1701857D01*
X766333Y1702783D01*
D02*
G37*
G36*
X635791Y1516691D02*
X582093Y1424108D01*
X586722Y1420405D01*
X588574Y1419479D01*
X589499Y1418553D01*
X594129Y1412998D01*
X597832Y1408369D01*
X600609Y1404665D01*
X601535Y1402814D01*
X604313Y1396333D01*
X606164Y1390778D01*
X608016Y1385223D01*
X608942Y1384297D01*
Y1383371D01*
X612645Y1375039D01*
X615423Y1369484D01*
X616349Y1366706D01*
X617274Y1365781D01*
X620978Y1361151D01*
X621904Y1360226D01*
X622829Y1359300D01*
X627458Y1353745D01*
X628384Y1352819D01*
X629310Y1351893D01*
X638568Y1343561D01*
X646901Y1336154D01*
X654308Y1330599D01*
X660788Y1326896D01*
X666343Y1324118D01*
X670047Y1322267D01*
X672824Y1321341D01*
X673750D01*
X873729Y1437070D01*
X870026Y1440773D01*
X867248Y1443550D01*
X864471Y1445402D01*
X863545Y1446328D01*
X857990Y1450031D01*
X853361Y1453734D01*
X849658Y1455586D01*
X848732Y1456512D01*
X845029Y1459289D01*
X842251Y1460215D01*
X840399Y1461141D01*
X833919Y1465770D01*
X830215Y1468548D01*
X827438Y1469474D01*
X826512Y1470399D01*
X818179Y1475954D01*
X810773Y1481509D01*
X803366Y1485213D01*
X797811Y1487990D01*
X792256Y1490768D01*
X788553Y1492619D01*
X786701Y1493545D01*
X785775D01*
X771888Y1496323D01*
X758001Y1498174D01*
X729300D01*
X717264Y1497248D01*
X708006Y1496323D01*
X697822D01*
X686712Y1498174D01*
X677453Y1500026D01*
X673750Y1501878D01*
X670972Y1502803D01*
X669121Y1503729D01*
X668195D01*
X635791Y1516691D01*
D02*
G37*
G36*
X779295Y1346338D02*
X754297Y1332451D01*
X759852Y1327822D01*
X765407Y1323192D01*
X770036Y1320415D01*
X770962Y1318563D01*
X771888D01*
X773740Y1321341D01*
X775591Y1325044D01*
X776517Y1327822D01*
X777443Y1328747D01*
X778369Y1330599D01*
Y1331525D01*
X780220Y1337080D01*
Y1338932D01*
Y1339857D01*
Y1341709D01*
X779295Y1343561D01*
Y1345412D01*
Y1346338D01*
D02*
G37*
G36*
X806144Y1362077D02*
X788553Y1351893D01*
X789479Y1347264D01*
X790405Y1342635D01*
Y1339857D01*
Y1338932D01*
X789479Y1334302D01*
X788553Y1330599D01*
X787627Y1327822D01*
Y1326896D01*
X786701Y1325044D01*
X783924Y1319489D01*
X781146Y1314860D01*
X780220Y1313008D01*
X779295Y1312082D01*
X785775Y1306527D01*
X791330Y1300973D01*
X795034Y1297269D01*
X796885Y1295418D01*
X797811Y1294492D01*
X798737Y1293566D01*
X799663Y1292640D01*
Y1291714D01*
X803366Y1297269D01*
X805218Y1301898D01*
X807070Y1304676D01*
Y1305602D01*
X807995Y1307453D01*
X808921Y1309305D01*
X809847Y1312082D01*
Y1313008D01*
X810773Y1317637D01*
X811699Y1322267D01*
Y1325970D01*
Y1327822D01*
Y1328747D01*
Y1330599D01*
Y1336154D01*
Y1341709D01*
Y1343561D01*
Y1344487D01*
Y1348190D01*
X810773Y1351893D01*
Y1353745D01*
Y1354671D01*
X807995Y1360226D01*
X806144Y1361151D01*
Y1362077D01*
D02*
G37*
G36*
X831141Y1375965D02*
X815402Y1367632D01*
X819105Y1361151D01*
X820957Y1358374D01*
Y1357448D01*
X821883Y1352819D01*
Y1349116D01*
Y1345412D01*
Y1344487D01*
Y1338006D01*
Y1336154D01*
Y1335228D01*
Y1330599D01*
Y1328747D01*
Y1327822D01*
Y1320415D01*
X820957Y1314860D01*
X820031Y1312082D01*
Y1311157D01*
Y1310231D01*
X819105Y1307453D01*
Y1306527D01*
Y1305602D01*
X818179D01*
X817254Y1303750D01*
X816328Y1301898D01*
Y1300973D01*
X813550Y1294492D01*
X809847Y1288937D01*
X807995Y1285233D01*
X807070Y1283382D01*
X811699Y1275975D01*
X814476Y1270420D01*
X816328Y1266717D01*
X817254Y1264865D01*
X820957Y1266717D01*
X821883Y1268568D01*
X822809D01*
X826512Y1270420D01*
X828364Y1272272D01*
X829289Y1273198D01*
X831141Y1275049D01*
X832067Y1275975D01*
X832993D01*
X834844Y1277827D01*
X836696Y1278753D01*
X837622Y1279678D01*
X838548D01*
X839474Y1280604D01*
Y1282456D01*
Y1289863D01*
X838548Y1296343D01*
X837622Y1300047D01*
Y1301898D01*
Y1304676D01*
Y1307453D01*
X839474Y1315786D01*
X840399Y1319489D01*
X841325Y1322267D01*
X842251Y1324118D01*
Y1325044D01*
X844103Y1330599D01*
X845029Y1335228D01*
X845954Y1340783D01*
Y1344487D01*
Y1345412D01*
X845029Y1349116D01*
X842251Y1353745D01*
X840399Y1357448D01*
X839474Y1358374D01*
X834844Y1365781D01*
X832067Y1371336D01*
X831141Y1375039D01*
Y1375965D01*
D02*
G37*
G36*
X716338Y1284308D02*
X715412D01*
X713561Y1282456D01*
X708932Y1278753D01*
X706154Y1275049D01*
X704302Y1274123D01*
Y1273198D01*
Y1272272D01*
X703377D01*
Y1271346D01*
X701525Y1269494D01*
Y1267643D01*
Y1266717D01*
Y1265791D01*
Y1263939D01*
X702451Y1261162D01*
X703377Y1258384D01*
Y1257458D01*
Y1256533D01*
X706154Y1254681D01*
X709857Y1253755D01*
X714487D01*
X721893Y1254681D01*
X727448Y1255607D01*
X731151Y1256533D01*
X733003D01*
X737632Y1259310D01*
X738558Y1260236D01*
X739484D01*
Y1261162D01*
X738558Y1262088D01*
Y1263013D01*
X734855Y1268568D01*
X731151Y1273198D01*
X728374Y1275975D01*
X727448Y1276901D01*
X724671Y1278753D01*
X720967Y1281530D01*
X717264Y1283382D01*
X716338Y1284308D01*
D02*
G37*
G36*
X893172Y1412998D02*
X840399Y1382446D01*
X841325Y1376891D01*
X844103Y1370410D01*
X846880Y1365781D01*
X847806Y1364855D01*
Y1363929D01*
X852435Y1357448D01*
X855213Y1351893D01*
X857064Y1348190D01*
Y1347264D01*
Y1344487D01*
X856138Y1339857D01*
X854287Y1331525D01*
X853361Y1327822D01*
X852435Y1324118D01*
X851509Y1322267D01*
Y1321341D01*
X849658Y1316712D01*
X848732Y1313008D01*
X847806Y1307453D01*
Y1305602D01*
Y1304676D01*
X849658Y1296343D01*
Y1289863D01*
Y1284308D01*
Y1283382D01*
Y1282456D01*
Y1279678D01*
Y1278753D01*
X848732Y1276901D01*
Y1275975D01*
X847806Y1273198D01*
Y1271346D01*
X846880Y1270420D01*
X845954Y1266717D01*
Y1264865D01*
X845029Y1263939D01*
X842251Y1254681D01*
X840399Y1247274D01*
X838548Y1240794D01*
Y1236164D01*
X837622Y1233387D01*
Y1231535D01*
Y1229684D01*
X839474Y1223203D01*
X842251Y1218574D01*
X845029Y1214870D01*
X845954Y1213944D01*
X847806Y1213019D01*
X848732Y1212093D01*
Y1213019D01*
Y1214870D01*
Y1215796D01*
Y1216722D01*
Y1220425D01*
Y1222277D01*
X851509Y1228758D01*
X852435Y1230609D01*
X853361Y1231535D01*
X855213Y1233387D01*
X856138Y1235239D01*
X859842Y1239868D01*
X862619Y1243571D01*
X866323Y1245423D01*
X870026Y1247274D01*
X875581Y1249126D01*
X881136D01*
X882062Y1248200D01*
X883913D01*
X885765Y1251904D01*
X886691Y1255607D01*
X887617Y1259310D01*
X888543Y1260236D01*
X891320Y1266717D01*
X894098Y1272272D01*
X895023Y1275975D01*
X895949Y1277827D01*
X897801Y1285233D01*
X898727Y1291714D01*
X899653Y1298195D01*
Y1299121D01*
Y1300047D01*
X901504Y1312082D01*
X903356Y1320415D01*
X904282Y1325044D01*
Y1326896D01*
Y1327822D01*
X905207Y1330599D01*
X906133Y1333377D01*
X907059Y1336154D01*
Y1337080D01*
X908911Y1344487D01*
X910762Y1350967D01*
Y1355596D01*
X911688Y1360226D01*
Y1363003D01*
X910762Y1364855D01*
Y1366706D01*
X908911Y1371336D01*
X907059Y1377816D01*
X904282Y1383371D01*
X903356Y1384297D01*
Y1385223D01*
X897801Y1396333D01*
X895023Y1405591D01*
X893172Y1411146D01*
Y1412072D01*
Y1412998D01*
D02*
G37*
G36*
X744113Y1326896D02*
X706154Y1304676D01*
X710783Y1300973D01*
X715412Y1297269D01*
X720041Y1293566D01*
X720967Y1292640D01*
X721893D01*
X727448Y1288937D01*
X731151Y1286159D01*
X733003Y1284308D01*
X733929D01*
X739484Y1278753D01*
X744113Y1273198D01*
X746891Y1269494D01*
X747816Y1268568D01*
Y1267643D01*
X749668Y1263939D01*
X750594Y1260236D01*
X751520Y1259310D01*
Y1258384D01*
X752446Y1255607D01*
X753371Y1254681D01*
Y1253755D01*
X758926Y1255607D01*
X761704D01*
X765407Y1256533D01*
X766333Y1257458D01*
X779295D01*
X784850Y1256533D01*
X786701D01*
X788553Y1255607D01*
X789479D01*
X790405Y1254681D01*
X793182D01*
X794108Y1253755D01*
X795034D01*
X800589Y1250978D01*
X805218Y1248200D01*
X807995Y1246349D01*
X808921Y1245423D01*
X809847Y1244497D01*
X810773Y1242645D01*
X811583Y1241835D01*
X810773Y1249126D01*
X807995Y1257458D01*
X804292Y1265791D01*
X799663Y1273198D01*
X795960Y1279678D01*
X792256Y1284308D01*
X789479Y1288011D01*
X788553Y1288937D01*
X781146Y1297269D01*
X773740Y1303750D01*
X768185Y1308379D01*
X767259Y1310231D01*
X766333D01*
X757075Y1316712D01*
X750594Y1322267D01*
X745965Y1325970D01*
X744113Y1326896D01*
D02*
G37*
G36*
X811583Y1241835D02*
X811699Y1240794D01*
Y1241719D01*
X811583Y1241835D01*
D02*
G37*
G36*
X743187Y1250052D02*
X741336Y1249126D01*
X738558Y1248200D01*
X736706Y1247274D01*
X735781D01*
X734855Y1246349D01*
X733003D01*
X732077Y1245423D01*
X731151D01*
X728374Y1240794D01*
Y1237090D01*
Y1234313D01*
Y1233387D01*
Y1231535D01*
X729300Y1230609D01*
Y1228758D01*
X730226Y1227832D01*
X731151D01*
X733929Y1225980D01*
X736706Y1225054D01*
X740410D01*
X745039Y1225980D01*
X748742Y1226906D01*
X750594Y1227832D01*
X751520Y1228758D01*
X747816Y1235239D01*
X745965Y1240794D01*
X744113Y1244497D01*
Y1245423D01*
X743187Y1249126D01*
Y1250052D01*
D02*
G37*
G36*
X770036Y1252829D02*
X767259D01*
X761704Y1250978D01*
X757075Y1250052D01*
X755223Y1249126D01*
X754297Y1248200D01*
X756149Y1242645D01*
X758926Y1237090D01*
X762630Y1232461D01*
X763555Y1231535D01*
Y1230609D01*
X769110Y1223203D01*
X772814Y1219499D01*
X775591Y1216722D01*
X776517Y1215796D01*
X779295Y1213944D01*
X781146Y1213019D01*
X782998Y1212093D01*
X786701Y1210241D01*
X797811D01*
X801515Y1211167D01*
X803366Y1212093D01*
X805218Y1213019D01*
X807995Y1216722D01*
X809847Y1221351D01*
X811699Y1225054D01*
Y1226906D01*
X810773Y1231535D01*
X809847Y1232461D01*
X807995Y1237090D01*
X806144Y1239868D01*
X805218Y1241719D01*
X801515Y1244497D01*
X797811Y1247274D01*
X795034Y1248200D01*
X794108Y1249126D01*
X792256D01*
X791330Y1250052D01*
X787627D01*
X783924Y1250978D01*
X779295Y1251904D01*
X775591D01*
X770036Y1252829D01*
D02*
G37*
G36*
X878358Y1244497D02*
X873729D01*
X870952Y1242645D01*
X865397Y1238942D01*
X861693Y1235239D01*
X860768Y1234313D01*
Y1233387D01*
X859842Y1231535D01*
X858916Y1230609D01*
X857990Y1229684D01*
Y1228758D01*
X855213Y1223203D01*
X854287Y1221351D01*
Y1220425D01*
X853361Y1219499D01*
Y1218574D01*
Y1217648D01*
Y1216722D01*
Y1213944D01*
X854287Y1213019D01*
Y1212093D01*
Y1210241D01*
Y1209315D01*
X855213Y1208390D01*
X858916D01*
X863545Y1210241D01*
X867248Y1212093D01*
X869100Y1213944D01*
X870026Y1214870D01*
X871878Y1217648D01*
X873729Y1221351D01*
X877433Y1229684D01*
X878358Y1233387D01*
X880210Y1237090D01*
X881136Y1238942D01*
Y1239868D01*
X882062Y1243571D01*
X881136D01*
X878358Y1244497D01*
D02*
G37*
G36*
X939463Y1438921D02*
X903356Y1418553D01*
X905207Y1409295D01*
X907985Y1399110D01*
X909837Y1395407D01*
X911688Y1391704D01*
X912614Y1389852D01*
Y1388926D01*
X916317Y1380594D01*
X919095Y1374113D01*
X920947Y1370410D01*
Y1369484D01*
X921872Y1364855D01*
Y1359300D01*
X920021Y1348190D01*
X919095Y1342635D01*
X918169Y1338006D01*
X917243Y1335228D01*
Y1334302D01*
X916317Y1330599D01*
X915392Y1326896D01*
X914466Y1325970D01*
Y1325044D01*
Y1324118D01*
X912614Y1316712D01*
X911688Y1308379D01*
X910762Y1304676D01*
X909837Y1301898D01*
Y1300047D01*
Y1299121D01*
X908911Y1292640D01*
X907985Y1287085D01*
Y1283382D01*
X907059Y1279678D01*
X905207Y1275049D01*
Y1274123D01*
X903356Y1268568D01*
X901504Y1263013D01*
X899653Y1257458D01*
X898727Y1256533D01*
Y1255607D01*
X896875Y1250978D01*
X895023Y1248200D01*
X893172Y1243571D01*
X892246Y1241719D01*
Y1240794D01*
Y1239868D01*
X891320Y1238942D01*
Y1238016D01*
Y1237090D01*
X888543Y1229684D01*
X885765Y1223203D01*
X883913Y1218574D01*
X881136Y1214870D01*
X880210Y1212093D01*
X878358Y1210241D01*
X877433Y1208390D01*
X871878Y1202835D01*
X865397Y1200057D01*
X861693Y1198205D01*
X856138D01*
X852435Y1199131D01*
X849658Y1200057D01*
X848732D01*
X842251Y1203760D01*
X840399Y1204686D01*
X839474Y1205612D01*
X835770Y1209315D01*
X832993Y1213019D01*
X829289Y1220425D01*
X827438Y1226906D01*
Y1227832D01*
Y1228758D01*
Y1232461D01*
X828364Y1238016D01*
X830215Y1249126D01*
X831141Y1254681D01*
X832993Y1259310D01*
X833919Y1262088D01*
Y1263013D01*
X830215Y1261162D01*
X829289Y1260236D01*
X828364Y1259310D01*
X823734Y1256533D01*
X821883Y1254681D01*
X820957Y1253755D01*
X821883Y1248200D01*
X822809Y1243571D01*
Y1239868D01*
Y1238942D01*
Y1238016D01*
Y1237090D01*
Y1236164D01*
X821883Y1228758D01*
X820957Y1223203D01*
X819105Y1217648D01*
X817254Y1213019D01*
X815402Y1210241D01*
X813550Y1207464D01*
X811699Y1206538D01*
Y1205612D01*
X807995Y1202835D01*
X803366Y1200983D01*
X799663Y1200057D01*
X787627D01*
X781146Y1201909D01*
X779295Y1202835D01*
X778369D01*
X774665Y1204686D01*
X771888Y1205612D01*
X770962Y1207464D01*
X770036D01*
X765407Y1211167D01*
X761704Y1215796D01*
X758926Y1219499D01*
X758001Y1220425D01*
X752446Y1216722D01*
X746891Y1214870D01*
X743187Y1213944D01*
X741336D01*
X733929Y1214870D01*
X728374Y1216722D01*
X724671Y1219499D01*
X723745Y1220425D01*
X722819Y1221351D01*
X721893Y1222277D01*
X720041Y1224129D01*
X719116Y1225980D01*
X718190Y1228758D01*
Y1229684D01*
Y1230609D01*
X717264Y1235239D01*
Y1239868D01*
X718190Y1242645D01*
Y1243571D01*
X713561D01*
X705228Y1244497D01*
X699673Y1247274D01*
X695970Y1249126D01*
X695044Y1250052D01*
X694118Y1252829D01*
X693192Y1253755D01*
X692267Y1258384D01*
X691341Y1262088D01*
X690415Y1264865D01*
Y1265791D01*
X691341Y1270420D01*
X692267Y1275049D01*
X694118Y1277827D01*
X695044Y1278753D01*
X695970Y1279678D01*
X700599Y1284308D01*
X704302Y1288011D01*
X706154Y1288937D01*
X707080Y1289863D01*
X703377Y1293566D01*
X699673Y1296343D01*
X697822Y1298195D01*
X696896Y1299121D01*
X477474Y1172282D01*
X483955Y1168579D01*
X486732Y1166727D01*
X490436D01*
X492287Y1165801D01*
X498768D01*
Y1164875D01*
X1030195D01*
X1035750Y1165801D01*
X1041304Y1166727D01*
X1049637Y1170430D01*
X1055192Y1173208D01*
X1056118Y1175060D01*
X1057044D01*
X1059821Y1178763D01*
X1060747Y1179689D01*
X1062599Y1182466D01*
X1063524Y1184318D01*
X1064450D01*
X1068154Y1193576D01*
X1069079Y1201909D01*
Y1205612D01*
X1068154Y1208390D01*
Y1210241D01*
Y1211167D01*
X1067228Y1215796D01*
X1066302Y1216722D01*
X1065376Y1220425D01*
X1064450Y1221351D01*
Y1222277D01*
Y1223203D01*
X939463Y1438921D01*
D02*
G37*
G36*
X577464Y1415775D02*
X576538D01*
X466364Y1224129D01*
Y1223203D01*
X463587Y1217648D01*
X461735Y1213019D01*
X460809Y1209315D01*
Y1207464D01*
Y1204686D01*
Y1203760D01*
Y1200057D01*
Y1198205D01*
X661714Y1314860D01*
X655233Y1318563D01*
X647827Y1323192D01*
X634865Y1332451D01*
X630236Y1337080D01*
X625607Y1340783D01*
X622829Y1343561D01*
X621904Y1344487D01*
X617274Y1350041D01*
X615423Y1351893D01*
X614497Y1352819D01*
X610794Y1357448D01*
X608942Y1359300D01*
Y1360226D01*
X605239Y1365781D01*
X602461Y1372261D01*
X600609Y1377816D01*
X599684Y1378742D01*
Y1379668D01*
X596906Y1388001D01*
X594129Y1393556D01*
X593203Y1396333D01*
X592277Y1397259D01*
X588574Y1403740D01*
X584870Y1407443D01*
X583019Y1410220D01*
X582093Y1411146D01*
X578389Y1413924D01*
X577464Y1415775D01*
D02*
G37*
G36*
X963086Y4410059D02*
X958382D01*
X946623Y4407707D01*
X930161Y4405355D01*
X911346Y4395948D01*
Y4393596D01*
X908995Y4391245D01*
X904291D01*
X901939Y4388893D01*
X894884Y4381838D01*
X885477Y4372430D01*
X876070Y4358320D01*
X201107Y3191834D01*
Y3189482D01*
Y3187130D01*
X198755Y3184778D01*
X196403Y3175371D01*
Y3173020D01*
X194052Y3170668D01*
X191700Y3161261D01*
Y3158909D01*
Y3154205D01*
X189348Y3149502D01*
Y3140095D01*
X191700Y3116577D01*
X196403Y3104818D01*
X201107Y3093059D01*
X203459Y3088355D01*
X210514Y3081300D01*
X212866Y3078948D01*
X219921Y3069541D01*
X222273D01*
X224625Y3064837D01*
X238736Y3057782D01*
X259902Y3048375D01*
X274012Y3046023D01*
X288123Y3043671D01*
X1638048D01*
Y3046023D01*
X1656863D01*
X1663918Y3048375D01*
X1668622Y3050727D01*
X1666270Y3048375D01*
X1668622D01*
X1673325Y3050727D01*
X1687436Y3057782D01*
X1703898Y3071893D01*
X1722713Y3093059D01*
X1725064Y3097762D01*
X1729768Y3107170D01*
X1732120Y3123632D01*
X1734472Y3142446D01*
Y3144798D01*
Y3151853D01*
Y3156557D01*
X1732120Y3165964D01*
X1727416Y3177723D01*
X1720361Y3191834D01*
Y3194186D01*
X1045398Y4360671D01*
Y4363023D01*
X1043046Y4365375D01*
X1038343Y4372430D01*
X1035991Y4374782D01*
X1028936Y4381838D01*
X1026584Y4384189D01*
X1024232Y4386541D01*
X1010121Y4395948D01*
X988955Y4403004D01*
X977196Y4407707D01*
X963086D01*
Y4410059D01*
D02*
G37*
%LPD*%
G36*
X767887Y3608100D02*
X1210023Y3836223D01*
X939568Y3276498D01*
X1038343Y3300016D01*
X876070Y3111873D01*
X840793Y3337645D01*
X913698Y3281202D01*
X1019529Y3683357D01*
X678520Y3516380D01*
X897236Y4271304D01*
X1057157Y4276007D01*
X767887Y3608100D01*
D02*
G37*
D63*
X3265000Y4310000D02*
G03*
X3265000Y4310000I-5000J0D01*
G01*
Y3040000D02*
G03*
X3265000Y3040000I-5000J0D01*
G01*
X3499970Y6200000D02*
X3699970D01*
X3499970Y6400000D02*
X3699970D01*
Y6200000D02*
Y6400000D01*
X3499970Y6200000D02*
Y6400000D01*
X4780000Y2280023D02*
X4960000Y2280023D01*
X4780000Y2460023D02*
X4960000D01*
X1950000Y300000D02*
X2150000D01*
X1950000Y500000D02*
X2150000D01*
Y300000D02*
Y500000D01*
X1950000Y300000D02*
Y500000D01*
X1440000D02*
X1640000D01*
X1440000Y300000D02*
X1640000D01*
X1440000D02*
Y500000D01*
X1640000Y300000D02*
Y500000D01*
X2359976Y1859999D02*
Y2039999D01*
X2539976Y1859999D02*
X2539976Y2039999D01*
X2049999Y1230000D02*
X2230000Y1229999D01*
X2049999Y1409999D02*
X2230000D01*
X2049999Y1029999D02*
X2230000Y1029999D01*
X2049999Y1209999D02*
X2230000D01*
X1720000Y1130000D02*
X1900000Y1129999D01*
X1720000Y1309999D02*
X1900000D01*
X4479978Y3530000D02*
Y3730000D01*
X4679978Y3530000D02*
Y3730000D01*
X4479978D02*
X4679978D01*
X4479978Y3530000D02*
X4679978D01*
X5889977Y5699999D02*
Y5899999D01*
X6089977Y5699999D02*
Y5899999D01*
X5889977D02*
X6089977D01*
X5889977Y5699999D02*
X6089977D01*
X3600000Y1400000D02*
Y1600000D01*
X3800000Y1400000D02*
Y1600000D01*
X3600000D02*
X3800000D01*
X3600000Y1400000D02*
X3800000D01*
X7040000Y2309999D02*
Y2509999D01*
X7240000Y2309999D02*
Y2509999D01*
X7040000D02*
X7240000D01*
X7040000Y2309999D02*
X7240000D01*
X2500000Y1400000D02*
Y1600000D01*
X2700000Y1400000D02*
Y1600000D01*
X2500000D02*
X2700000D01*
X2500000Y1400000D02*
X2700000D01*
X5740000Y3590000D02*
Y3770000D01*
X5560000Y3590000D02*
X5560000Y3770000D01*
X5940000Y3589999D02*
X5940000Y3770000D01*
X5760000Y3589999D02*
Y3770000D01*
X6999999Y3190000D02*
X7000000Y3370000D01*
X6820000Y3190000D02*
Y3370000D01*
X6769999Y3190000D02*
X6770000Y3370000D01*
X6590000Y3190000D02*
Y3370000D01*
X4580000Y2069976D02*
X4760000D01*
X4580000Y2249976D02*
X4760000Y2249976D01*
X6589969Y2309999D02*
Y2509999D01*
X6789969Y2309999D02*
Y2509999D01*
X6589969D02*
X6789969D01*
X6589969Y2309999D02*
X6789969D01*
X5749958Y1419998D02*
Y1619998D01*
X5949958Y1419998D02*
Y1619998D01*
X5749958D02*
X5949958D01*
X5749958Y1419998D02*
X5949958D01*
X1879961Y4399998D02*
Y4599998D01*
X2079961Y4399998D02*
Y4599998D01*
X1879961D02*
X2079961D01*
X1879961Y4399998D02*
X2079961D01*
X4519962Y4299998D02*
Y4499998D01*
X4719962Y4299998D02*
Y4499998D01*
X4519962D02*
X4719962D01*
X4519962Y4299998D02*
X4719962D01*
X5819964Y4199998D02*
Y4399998D01*
X6019964Y4199998D02*
Y4399998D01*
X5819964D02*
X6019964D01*
X5819964Y4199998D02*
X6019964D01*
X2499965Y2200000D02*
Y2400000D01*
X2699965Y2200000D02*
Y2400000D01*
X2499965D02*
X2699965D01*
X2499965Y2200000D02*
X2699965D01*
X4949999Y990000D02*
Y1190000D01*
X4749999Y990000D02*
Y1190000D01*
X4949999D01*
X4749999Y990000D02*
X4949999D01*
X4580000Y1850000D02*
X4760000Y1850000D01*
X4580000Y1670000D02*
X4760000D01*
X4580000Y2050000D02*
X4760000Y2049999D01*
X4580000Y1870000D02*
X4760000D01*
X6060000Y4010000D02*
X6260000D01*
X6060000Y3809999D02*
X6260000D01*
Y4010000D01*
X6060000Y3809999D02*
Y4010000D01*
X5179999Y990000D02*
X5379999D01*
X5179999Y1190000D02*
X5379999D01*
X5179999Y990000D02*
Y1190000D01*
X5379999Y990000D02*
Y1190000D01*
X6059999Y4400000D02*
X6259999D01*
X6059999Y4200000D02*
X6259999D01*
Y4400000D01*
X6059999Y4200000D02*
Y4400000D01*
X6000000Y3919999D02*
X6000000Y4099999D01*
X5820000Y3919999D02*
Y4099999D01*
X4790000Y3699999D02*
X4970000Y3699999D01*
X4790000Y3519999D02*
X4970000D01*
X4790000Y3899999D02*
X4970000Y3899999D01*
X4790000Y3719999D02*
X4970000D01*
X4579999Y1600000D02*
X4760000Y1600000D01*
X4579999Y1420000D02*
X4760000D01*
X4580000Y1400000D02*
X4760000Y1399999D01*
X4580000Y1220000D02*
X4760000D01*
X4920000Y1220000D02*
X5100000Y1220000D01*
X4920000Y1400000D02*
X5100000D01*
X7240000Y3280000D02*
Y3479999D01*
X7040000Y3280000D02*
Y3479999D01*
Y3280000D02*
X7240000D01*
X7040000Y3479999D02*
X7240000D01*
X7040000Y3249999D02*
X7239999D01*
X7040000Y3050000D02*
X7239999D01*
X7040000D02*
Y3249999D01*
X7239999Y3050000D02*
Y3249999D01*
X3600000Y2200000D02*
Y2400000D01*
X3800000Y2200000D02*
Y2400000D01*
X3600000Y2200000D02*
X3800000D01*
X3600000Y2400000D02*
X3800000D01*
X6259999Y2959999D02*
Y3160000D01*
X6460000Y2959999D02*
Y3160000D01*
X6259999Y2959999D02*
X6460000D01*
X6259999Y3160000D02*
X6460000D01*
X4500000Y2139999D02*
Y2339999D01*
X4300000Y2139999D02*
Y2339999D01*
Y2139999D02*
X4500000D01*
X4300000Y2339999D02*
X4500000D01*
D64*
X2987500Y2302500D02*
G03*
X2987500Y2302500I-10000J0D01*
G01*
X2050000Y829999D02*
G03*
X2050000Y829999I-250000J0D01*
G01*
X5285304Y2637499D02*
Y3222500D01*
X4594696D02*
X5285304D01*
X4594696Y2637499D02*
Y3222500D01*
Y2637499D02*
X5285304D01*
X2597500Y3205001D02*
Y3295001D01*
X2442500Y3205001D02*
Y3295001D01*
X2597500Y3655001D02*
Y3745001D01*
X2442500Y3655001D02*
Y3745001D01*
X2115000Y1694999D02*
Y2004999D01*
X1445000Y1694999D02*
Y2004999D01*
X2115000D01*
X1445000Y1694999D02*
X2115000D01*
X2620208Y5645108D02*
Y5814891D01*
X2259792Y5645108D02*
Y5814891D01*
X6749997Y2567100D02*
X6970001D01*
Y2998900D01*
X6749997D02*
X6970001D01*
X6749997Y2567100D02*
Y2998900D01*
X3300000Y4310000D02*
Y5110000D01*
X4100000Y4310000D02*
Y5110000D01*
X4095000Y2699999D02*
X4145000D01*
X2595000Y4030000D02*
Y4210000D01*
X2445000Y4030000D02*
Y4210000D01*
X4190000Y4750001D02*
X4790000D01*
X4190000Y4610000D02*
X4790000D01*
X5110000Y2140000D02*
X5459999D01*
X5110000Y1479999D02*
Y2140000D01*
Y1479999D02*
X5459999D01*
Y2140000D01*
X5140000Y3540000D02*
X5420000D01*
X5140000Y3880000D02*
X5420000D01*
X5260000Y4319977D02*
X5300000Y4359977D01*
Y4429977D01*
X5260000Y4139977D02*
X5300000Y4099977D01*
Y4029977D02*
Y4099977D01*
X5260000Y4139977D02*
Y4299977D01*
Y4319977D01*
X5300000Y4029977D02*
X5780000D01*
Y4429977D01*
X5300000D02*
X5780000D01*
X1419792Y5645108D02*
Y5814891D01*
X1780208Y5645108D02*
Y5814891D01*
X6160000Y1669999D02*
Y2150000D01*
X5760000Y1669999D02*
X6160000D01*
X5760000D02*
Y2150000D01*
X6030000Y2189999D02*
X6050000D01*
X5870000D02*
X6030000D01*
X5760000Y2150000D02*
X5830000D01*
X5870000Y2189999D01*
X6090000Y2150000D02*
X6160000D01*
X6050000Y2189999D02*
X6090000Y2150000D01*
X4100000Y3040000D02*
Y3839999D01*
X3300000Y3040000D02*
Y3839999D01*
X5639999Y5280001D02*
X6240003D01*
X5639999Y5420001D02*
X6239997D01*
X3939792Y5645108D02*
Y5814891D01*
X4300208Y5645108D02*
Y5814891D01*
X3519792Y5645108D02*
Y5814891D01*
X3880208Y5645108D02*
Y5814891D01*
X4779792Y5645108D02*
Y5814892D01*
X5140208Y5645108D02*
Y5814892D01*
X3099792Y5645108D02*
Y5814891D01*
X3460207Y5645108D02*
Y5814891D01*
X5560208Y5645108D02*
Y5814892D01*
X5199792Y5645108D02*
Y5814892D01*
X2679792Y5645108D02*
Y5814891D01*
X3040208Y5645108D02*
Y5814891D01*
X1839792Y5645108D02*
Y5814891D01*
X2200208Y5645108D02*
Y5814891D01*
X4359792Y5645108D02*
Y5814892D01*
X4720208Y5645108D02*
Y5814892D01*
D74*
X5235304Y2712500D02*
G03*
X5235304Y2712500I-25000J0D01*
G01*
D75*
X1457500Y1557499D02*
G03*
X1457500Y1557499I-12500J0D01*
G01*
X5527810Y3615000D02*
G03*
X5527810Y3615000I-12500J0D01*
G01*
D76*
X5164142Y2189999D02*
G03*
X5164142Y2189999I-14142J0D01*
G01*
X1569998Y7499998D02*
X2870001D01*
X1569998Y6200000D02*
X2870001D01*
X1569998D02*
Y7499998D01*
X2870001Y6200000D02*
Y7499998D01*
X1569998Y7219998D02*
X2870001D01*
X15000Y5019998D02*
Y6320001D01*
X1314997Y5019998D02*
Y6320001D01*
X15000Y5019998D02*
X1314997D01*
X15000Y6320001D02*
X1314997D01*
X294999Y5019998D02*
Y6320001D01*
D77*
X3000000Y2250000D02*
Y2280000D01*
Y1980000D02*
Y2010000D01*
X3300000Y2250000D02*
Y2280000D01*
Y1980000D02*
Y2010000D01*
X3000000Y2280000D02*
X3030000D01*
X3000000Y1980000D02*
X3030000D01*
X3270000Y2280000D02*
X3300000D01*
X3270000Y1980000D02*
X3300000D01*
D78*
X3893220Y1135021D02*
Y1173219D01*
X3166780Y446779D02*
X3204979D01*
X3893220D02*
Y484978D01*
X3855021Y1173219D02*
X3893220D01*
X3166780Y1135021D02*
Y1173219D01*
X3204979D01*
X3166780Y624481D02*
Y995518D01*
X3344481Y446779D02*
X3715519D01*
X3166780D02*
Y484978D01*
X3893220Y624481D02*
Y995518D01*
X3855021Y446779D02*
X3893220D01*
X3344481Y1173219D02*
X3715519D01*
X3133220Y1135021D02*
Y1173219D01*
X2406780Y446779D02*
X2444979D01*
X3133220D02*
Y484978D01*
X3095021Y1173219D02*
X3133220D01*
X2406780Y1135021D02*
Y1173219D01*
X2444979D01*
X2406780Y624481D02*
Y995518D01*
X2584481Y446779D02*
X2955519D01*
X2406780D02*
Y484978D01*
X3133220Y624481D02*
Y995518D01*
X3095021Y446779D02*
X3133220D01*
X2584481Y1173219D02*
X2955519D01*
D79*
X6816400Y4250213D02*
X6896374D01*
Y4303529D01*
Y4343517D02*
Y4370175D01*
X6883045Y4383504D01*
X6856387D01*
X6843058Y4370175D01*
Y4343517D01*
X6856387Y4330187D01*
X6883045D01*
X6896374Y4343517D01*
X6843058Y4410162D02*
X6883045D01*
X6896374Y4423491D01*
X6883045Y4436820D01*
X6896374Y4450149D01*
X6883045Y4463478D01*
X6843058D01*
X6829729Y4623426D02*
X6816400Y4610097D01*
Y4583439D01*
X6829729Y4570110D01*
X6883045D01*
X6896374Y4583439D01*
Y4610097D01*
X6883045Y4623426D01*
X6923032Y4730058D02*
X6843058D01*
Y4770046D01*
X6856387Y4783374D01*
X6883045D01*
X6896374Y4770046D01*
Y4730058D01*
X6843058Y4810033D02*
X6896374D01*
X6869716D01*
X6856387Y4823362D01*
X6843058Y4836691D01*
Y4850020D01*
X6896374Y4903336D02*
Y4929994D01*
X6883045Y4943323D01*
X6856387D01*
X6843058Y4929994D01*
Y4903336D01*
X6856387Y4890007D01*
X6883045D01*
X6896374Y4903336D01*
X6816400Y4969981D02*
X6896374D01*
Y5009968D01*
X6883045Y5023297D01*
X6869716D01*
X6856387D01*
X6843058Y5009968D01*
Y4969981D01*
X6896374Y5089942D02*
Y5063284D01*
X6883045Y5049955D01*
X6856387D01*
X6843058Y5063284D01*
Y5089942D01*
X6856387Y5103271D01*
X6869716D01*
Y5049955D01*
X6896374Y5129929D02*
Y5169917D01*
X6883045Y5183245D01*
X6869716Y5169917D01*
Y5143258D01*
X6856387Y5129929D01*
X6843058Y5143258D01*
Y5183245D01*
X6896374Y5303207D02*
Y5329865D01*
X6883045Y5343194D01*
X6856387D01*
X6843058Y5329865D01*
Y5303207D01*
X6856387Y5289878D01*
X6883045D01*
X6896374Y5303207D01*
Y5369852D02*
X6843058D01*
Y5409839D01*
X6856387Y5423168D01*
X6896374D01*
Y5449826D02*
Y5476484D01*
Y5463155D01*
X6816400D01*
Y5449826D01*
X6843058Y5516471D02*
X6883045D01*
X6896374Y5529800D01*
Y5569787D01*
X6909703D01*
X6923032Y5556459D01*
Y5543129D01*
X6896374Y5569787D02*
X6843058D01*
X7055001Y4343517D02*
X6988355D01*
X7015013D01*
Y4330187D01*
Y4356845D01*
Y4343517D01*
X6988355D01*
X6975026Y4356845D01*
X7055001Y4410162D02*
Y4436820D01*
X7041671Y4450149D01*
X7015013D01*
X7001684Y4436820D01*
Y4410162D01*
X7015013Y4396833D01*
X7041671D01*
X7055001Y4410162D01*
X7001684Y4476807D02*
X7055001D01*
X7028343D01*
X7015013Y4490136D01*
X7001684Y4503465D01*
Y4516794D01*
X6975026Y4636755D02*
X7028343D01*
X7055001Y4663413D01*
X7028343Y4690071D01*
X6975026D01*
Y4770046D02*
X7055001D01*
Y4730059D01*
X7041671Y4716729D01*
X7015013D01*
X7001684Y4730059D01*
Y4770046D01*
X7055001Y4796704D02*
Y4836691D01*
X7041671Y4850020D01*
X7028343Y4836691D01*
Y4810033D01*
X7015013Y4796704D01*
X7001684Y4810033D01*
Y4850020D01*
Y4969981D02*
Y4996639D01*
X7015013Y5009968D01*
X7055001D01*
Y4969981D01*
X7041671Y4956652D01*
X7028343Y4969981D01*
Y5009968D01*
X7055001Y5036626D02*
X7001684D01*
Y5076613D01*
X7015013Y5089942D01*
X7055001D01*
X6975026Y5169917D02*
X7055001D01*
Y5129930D01*
X7041671Y5116600D01*
X7015013D01*
X7001684Y5129930D01*
Y5169917D01*
X6975026Y5276549D02*
X7028343D01*
X7055001Y5303207D01*
X7028343Y5329865D01*
X6975026D01*
Y5409839D02*
X7055001D01*
Y5369852D01*
X7041671Y5356523D01*
X7015013D01*
X7001684Y5369852D01*
Y5409839D01*
X7055001Y5436497D02*
Y5476484D01*
X7041671Y5489813D01*
X7028343Y5476484D01*
Y5449826D01*
X7015013Y5436497D01*
X7001684Y5449826D01*
Y5489813D01*
X2654326Y284950D02*
X2677652D01*
X2665989D01*
Y214972D01*
X2654326D01*
X2677652D01*
X2759292Y284950D02*
Y214972D01*
X2724304D01*
X2712641Y226635D01*
Y249961D01*
X2724304Y261624D01*
X2759292D01*
X2782618Y214972D02*
X2817607D01*
X2829270Y226635D01*
X2817607Y238298D01*
X2794281D01*
X2782618Y249961D01*
X2794281Y261624D01*
X2829270D01*
X2922573Y214972D02*
Y261624D01*
X2934236D01*
X2945899Y249961D01*
Y214972D01*
Y249961D01*
X2957562Y261624D01*
X2969225Y249961D01*
Y214972D01*
X3027540D02*
X3004214D01*
X2992551Y226635D01*
Y249961D01*
X3004214Y261624D01*
X3027540D01*
X3039202Y249961D01*
Y238298D01*
X2992551D01*
X3074191Y261624D02*
X3097517D01*
X3109180Y249961D01*
Y214972D01*
X3074191D01*
X3062528Y226635D01*
X3074191Y238298D01*
X3109180D01*
X3132506Y214972D02*
X3167495D01*
X3179157Y226635D01*
X3167495Y238298D01*
X3144169D01*
X3132506Y249961D01*
X3144169Y261624D01*
X3179157D01*
X3202483D02*
Y226635D01*
X3214146Y214972D01*
X3249135D01*
Y261624D01*
X3272461D02*
Y214972D01*
Y238298D01*
X3284124Y249961D01*
X3295787Y261624D01*
X3307450D01*
X3377427Y214972D02*
X3354101D01*
X3342438Y226635D01*
Y249961D01*
X3354101Y261624D01*
X3377427D01*
X3389090Y249961D01*
Y238298D01*
X3342438D01*
X3412416Y214972D02*
Y261624D01*
X3424079D01*
X3435742Y249961D01*
Y214972D01*
Y249961D01*
X3447405Y261624D01*
X3459068Y249961D01*
Y214972D01*
X3517382D02*
X3494056D01*
X3482393Y226635D01*
Y249961D01*
X3494056Y261624D01*
X3517382D01*
X3529045Y249961D01*
Y238298D01*
X3482393D01*
X3552371Y214972D02*
Y261624D01*
X3587360D01*
X3599023Y249961D01*
Y214972D01*
X3634011Y273287D02*
Y261624D01*
X3622348D01*
X3645674D01*
X3634011D01*
Y226635D01*
X3645674Y214972D01*
X2887585Y153314D02*
X2899247Y164977D01*
X2922573D01*
X2934236Y153314D01*
Y141651D01*
X2922573Y129989D01*
X2910910D01*
X2922573D01*
X2934236Y118326D01*
Y106663D01*
X2922573Y95000D01*
X2899247D01*
X2887585Y106663D01*
X2957562Y153314D02*
X2969225Y164977D01*
X2992551D01*
X3004214Y153314D01*
Y106663D01*
X2992551Y95000D01*
X2969225D01*
X2957562Y106663D01*
Y153314D01*
X3027540Y95000D02*
Y106663D01*
X3039202D01*
Y95000D01*
X3027540D01*
X3085854Y106663D02*
X3097517Y95000D01*
X3120843D01*
X3132506Y106663D01*
Y153314D01*
X3120843Y164977D01*
X3097517D01*
X3085854Y153314D01*
Y141651D01*
X3097517Y129989D01*
X3132506D01*
X3155832Y95000D02*
Y141651D01*
X3167495D01*
X3179157Y129989D01*
Y95000D01*
Y129989D01*
X3190820Y141651D01*
X3202483Y129989D01*
Y95000D01*
X3225809Y164977D02*
Y118326D01*
X3249135Y95000D01*
X3272461Y118326D01*
Y164977D01*
X3295787Y95000D02*
X3342438Y141651D01*
X3365764Y95000D02*
Y141651D01*
X3389090Y164977D01*
X3412416Y141651D01*
Y95000D01*
Y129989D01*
X3365764D01*
X5746736Y2331645D02*
X5800052D01*
X5773394Y2358303D02*
Y2304987D01*
X5906684Y2371632D02*
Y2318316D01*
X5933342Y2291658D01*
X5960000Y2318316D01*
Y2371632D01*
X5999987Y2344974D02*
X6026645D01*
X6039974Y2331645D01*
Y2291658D01*
X5999987D01*
X5986658Y2304987D01*
X5999987Y2318316D01*
X6039974D01*
X6119948Y2371632D02*
Y2291658D01*
X6079961D01*
X6066632Y2304987D01*
Y2331645D01*
X6079961Y2344974D01*
X6119948D01*
X6146606Y2265000D02*
X6159936D01*
X6173265Y2278329D01*
Y2344974D01*
X5316736Y4541645D02*
X5370052D01*
X5476684Y4581632D02*
Y4528316D01*
X5503342Y4501658D01*
X5530000Y4528316D01*
Y4581632D01*
X5569987Y4554974D02*
X5596645D01*
X5609974Y4541645D01*
Y4501658D01*
X5569987D01*
X5556658Y4514987D01*
X5569987Y4528316D01*
X5609974D01*
X5689948Y4581632D02*
Y4501658D01*
X5649962D01*
X5636632Y4514987D01*
Y4541645D01*
X5649962Y4554974D01*
X5689948D01*
X5716607Y4475000D02*
X5729936D01*
X5743265Y4488329D01*
Y4554974D01*
X4034974Y2626645D02*
X3981658D01*
X3955000Y2599987D01*
X3981658Y2573329D01*
X4034974D01*
X4021645Y2493354D02*
X4034974Y2506683D01*
Y2533341D01*
X4021645Y2546671D01*
X3968329D01*
X3955000Y2533341D01*
Y2506683D01*
X3968329Y2493354D01*
X3994987D01*
Y2520012D01*
X3844974Y2626645D02*
X3791658D01*
X3765000Y2599987D01*
X3791658Y2573329D01*
X3844974D01*
X3831645Y2493354D02*
X3844974Y2506683D01*
Y2533341D01*
X3831645Y2546671D01*
X3818316D01*
X3804987Y2533341D01*
Y2506683D01*
X3791658Y2493354D01*
X3778329D01*
X3765000Y2506683D01*
Y2533341D01*
X3778329Y2546671D01*
X6335026Y5623368D02*
X6388342D01*
X6415000Y5650026D01*
X6388342Y5676684D01*
X6335026D01*
Y5703342D02*
X6415000D01*
Y5743329D01*
X6401671Y5756658D01*
X6348355D01*
X6335026Y5743329D01*
Y5703342D01*
Y5783316D02*
X6415000D01*
Y5823303D01*
X6401671Y5836632D01*
X6348355D01*
X6335026Y5823303D01*
Y5783316D01*
X7108355Y3586697D02*
X7095026Y3573368D01*
Y3546710D01*
X7108355Y3533381D01*
X7121684D01*
X7135013Y3546710D01*
Y3573368D01*
X7148342Y3586697D01*
X7161671D01*
X7175000Y3573368D01*
Y3546710D01*
X7161671Y3533381D01*
X7108355Y3666671D02*
X7095026Y3653342D01*
Y3626684D01*
X7108355Y3613355D01*
X7161671D01*
X7175000Y3626684D01*
Y3653342D01*
X7161671Y3666671D01*
X7135013D01*
Y3640013D01*
X7175000Y3693329D02*
X7095026D01*
X7175000Y3746645D01*
X7095026D01*
Y3773303D02*
X7175000D01*
Y3813291D01*
X7161671Y3826619D01*
X7108355D01*
X7095026Y3813291D01*
Y3773303D01*
X7285026Y3146671D02*
Y3093355D01*
X7325013D01*
X7311684Y3120013D01*
Y3133342D01*
X7325013Y3146671D01*
X7351671D01*
X7365000Y3133342D01*
Y3106684D01*
X7351671Y3093355D01*
X7285026Y3173329D02*
X7338342D01*
X7365000Y3199987D01*
X7338342Y3226645D01*
X7285026D01*
X6623355Y2254974D02*
Y2201658D01*
X6650013Y2175000D01*
X6676671Y2201658D01*
Y2254974D01*
X6703329Y2214987D02*
X6756645D01*
X6729987Y2241645D02*
Y2188329D01*
X7035026Y2853355D02*
X7088342D01*
X7115000Y2880013D01*
X7088342Y2906671D01*
X7035026D01*
X7075013Y2933329D02*
Y2986645D01*
X7025026Y2583355D02*
X7078342D01*
X7105000Y2610013D01*
X7078342Y2636671D01*
X7025026D01*
X7065013Y2663329D02*
Y2716645D01*
X7038355Y2689987D02*
X7091671D01*
X7073355Y2254974D02*
Y2201658D01*
X7100013Y2175000D01*
X7126671Y2201658D01*
Y2254974D01*
X7153329Y2214987D02*
X7206645D01*
X4845026Y4933368D02*
X4898342D01*
X4925000Y4960026D01*
X4898342Y4986684D01*
X4845026D01*
Y5013342D02*
X4925000D01*
Y5053329D01*
X4911671Y5066658D01*
X4858355D01*
X4845026Y5053329D01*
Y5013342D01*
X4858355Y5146633D02*
X4845026Y5133304D01*
Y5106646D01*
X4858355Y5093316D01*
X4871684D01*
X4885013Y5106646D01*
Y5133304D01*
X4898342Y5146633D01*
X4911671D01*
X4925000Y5133304D01*
Y5106646D01*
X4911671Y5093316D01*
X6325026Y3690071D02*
X6378342D01*
X6405000Y3716729D01*
X6378342Y3743387D01*
X6325026D01*
X6338355Y3823361D02*
X6325026Y3810033D01*
Y3783374D01*
X6338355Y3770045D01*
X6391671D01*
X6405000Y3783374D01*
Y3810033D01*
X6391671Y3823361D01*
X6365013D01*
Y3796703D01*
X6351684Y3863349D02*
Y3890007D01*
X6365013Y3903336D01*
X6405000D01*
Y3863349D01*
X6391671Y3850019D01*
X6378342Y3863349D01*
Y3903336D01*
X6338355Y3943323D02*
X6351684D01*
Y3929994D01*
Y3956652D01*
Y3943323D01*
X6391671D01*
X6405000Y3956652D01*
Y4036626D02*
Y4009968D01*
X6391671Y3996639D01*
X6365013D01*
X6351684Y4009968D01*
Y4036626D01*
X6365013Y4049955D01*
X6378342D01*
Y3996639D01*
X6365013Y4076613D02*
Y4129929D01*
X5888355Y4516671D02*
X5875026Y4503342D01*
Y4476684D01*
X5888355Y4463355D01*
X5901684D01*
X5915013Y4476684D01*
Y4503342D01*
X5928342Y4516671D01*
X5941671D01*
X5955000Y4503342D01*
Y4476684D01*
X5941671Y4463355D01*
X5888355Y4596645D02*
X5875026Y4583316D01*
Y4556658D01*
X5888355Y4543329D01*
X5901684D01*
X5915013Y4556658D01*
Y4583316D01*
X5928342Y4596645D01*
X5941671D01*
X5955000Y4583316D01*
Y4556658D01*
X5941671Y4543329D01*
X6338355Y4286671D02*
X6325026Y4273342D01*
Y4246684D01*
X6338355Y4233355D01*
X6351684D01*
X6365013Y4246684D01*
Y4273342D01*
X6378342Y4286671D01*
X6391671D01*
X6405000Y4273342D01*
Y4246684D01*
X6391671Y4233355D01*
X6338355Y4366645D02*
X6325026Y4353316D01*
Y4326658D01*
X6338355Y4313329D01*
X6351684D01*
X6365013Y4326658D01*
Y4353316D01*
X6378342Y4366645D01*
X6391671D01*
X6405000Y4353316D01*
Y4326658D01*
X6391671Y4313329D01*
X5836671Y1331645D02*
X5823342Y1344974D01*
X5796684D01*
X5783355Y1331645D01*
Y1318316D01*
X5796684Y1304987D01*
X5823342D01*
X5836671Y1291658D01*
Y1278329D01*
X5823342Y1265000D01*
X5796684D01*
X5783355Y1278329D01*
X5916645Y1331645D02*
X5903316Y1344974D01*
X5876658D01*
X5863329Y1331645D01*
Y1318316D01*
X5876658Y1304987D01*
X5903316D01*
X5916645Y1291658D01*
Y1278329D01*
X5903316Y1265000D01*
X5876658D01*
X5863329Y1278329D01*
X1405000Y175000D02*
Y254974D01*
X1444987D01*
X1458316Y241645D01*
Y214987D01*
X1444987Y201658D01*
X1405000D01*
X1538290Y241645D02*
X1524961Y254974D01*
X1498303D01*
X1484974Y241645D01*
Y188329D01*
X1498303Y175000D01*
X1524961D01*
X1538290Y188329D01*
Y214987D01*
X1511632D01*
X1564948Y175000D02*
Y254974D01*
X1618264Y175000D01*
Y254974D01*
X1644922D02*
Y175000D01*
X1684910D01*
X1698238Y188329D01*
Y241645D01*
X1684910Y254974D01*
X1644922D01*
X1865000D02*
X1918316D01*
Y241645D01*
X1865000Y188329D01*
Y175000D01*
X1944974Y254974D02*
Y201658D01*
X1971632Y175000D01*
X1998290Y201658D01*
Y254974D01*
X2024948Y214987D02*
X2078264D01*
X2104922Y241645D02*
X2118252Y254974D01*
X2144910D01*
X2158239Y241645D01*
Y228316D01*
X2144910Y214987D01*
X2158239Y201658D01*
Y188329D01*
X2144910Y175000D01*
X2118252D01*
X2104922Y188329D01*
Y201658D01*
X2118252Y214987D01*
X2104922Y228316D01*
Y241645D01*
X2118252Y214987D02*
X2144910D01*
X2184897Y254974D02*
Y201658D01*
X2211555Y175000D01*
X2238213Y201658D01*
Y254974D01*
X2695000Y394974D02*
Y341658D01*
X2721658Y315000D01*
X2748316Y341658D01*
Y394974D01*
X2774974Y354987D02*
X2828290D01*
X3475000Y394974D02*
Y341658D01*
X3501658Y315000D01*
X3528316Y341658D01*
Y394974D01*
X3554974Y354987D02*
X3608290D01*
X3581632Y381645D02*
Y328329D01*
X4630071Y914974D02*
Y861658D01*
X4656729Y835000D01*
X4683387Y861658D01*
Y914974D01*
X4763361Y901645D02*
X4750032Y914974D01*
X4723374D01*
X4710045Y901645D01*
Y848329D01*
X4723374Y835000D01*
X4750032D01*
X4763361Y848329D01*
Y874987D01*
X4736703D01*
X4803349Y888316D02*
X4830007D01*
X4843335Y874987D01*
Y835000D01*
X4803349D01*
X4790019Y848329D01*
X4803349Y861658D01*
X4843335D01*
X4883323Y901645D02*
Y888316D01*
X4869994D01*
X4896652D01*
X4883323D01*
Y848329D01*
X4896652Y835000D01*
X4976626D02*
X4949968D01*
X4936639Y848329D01*
Y874987D01*
X4949968Y888316D01*
X4976626D01*
X4989955Y874987D01*
Y861658D01*
X4936639D01*
X5016613Y874987D02*
X5069929D01*
X5043271Y901645D02*
Y848329D01*
X5266671Y901645D02*
X5253342Y914974D01*
X5226684D01*
X5213355Y901645D01*
Y888316D01*
X5226684Y874987D01*
X5253342D01*
X5266671Y861658D01*
Y848329D01*
X5253342Y835000D01*
X5226684D01*
X5213355Y848329D01*
X5346645Y901645D02*
X5333316Y914974D01*
X5306658D01*
X5293329Y901645D01*
Y888316D01*
X5306658Y874987D01*
X5333316D01*
X5346645Y861658D01*
Y848329D01*
X5333316Y835000D01*
X5306658D01*
X5293329Y848329D01*
D80*
X4182045Y653856D02*
X4115400D01*
Y553888D01*
X4182045D01*
X4115400Y603872D02*
X4148722D01*
X4215368Y553888D02*
Y653856D01*
X4282013Y553888D01*
Y653856D01*
X4315336Y553888D02*
Y653856D01*
X4365319D01*
X4381981Y637194D01*
Y603872D01*
X4365319Y587210D01*
X4315336D01*
X4415303Y653856D02*
Y553888D01*
Y603872D01*
X4481948D01*
Y653856D01*
Y553888D01*
X4565255D02*
Y653856D01*
X4515271Y603872D01*
X4581916D01*
X4615239Y653856D02*
X4681884D01*
Y637194D01*
X4615239Y570549D01*
Y553888D01*
X4715207Y570549D02*
X4731868Y553888D01*
X4765191D01*
X4781852Y570549D01*
Y637194D01*
X4765191Y653856D01*
X4731868D01*
X4715207Y637194D01*
Y620533D01*
X4731868Y603872D01*
X4781852D01*
X4915142D02*
X4981787D01*
X5181723Y637194D02*
X5165062Y653856D01*
X5131739D01*
X5115078Y637194D01*
Y570549D01*
X5131739Y553888D01*
X5165062D01*
X5181723Y570549D01*
Y603872D01*
X5148400D01*
X5231707Y620533D02*
X5265030D01*
X5281691Y603872D01*
Y553888D01*
X5231707D01*
X5215046Y570549D01*
X5231707Y587210D01*
X5281691D01*
X5315013Y553888D02*
Y653856D01*
X5381659Y553888D01*
Y653856D01*
X5514949Y553888D02*
Y653856D01*
X5564933D01*
X5581594Y637194D01*
Y603872D01*
X5564933Y587210D01*
X5514949D01*
X5631578Y553888D02*
X5664901D01*
X5681562Y570549D01*
Y603872D01*
X5664901Y620533D01*
X5631578D01*
X5614917Y603872D01*
Y570549D01*
X5631578Y553888D01*
X5714885Y620533D02*
Y570549D01*
X5731546Y553888D01*
X5748207Y570549D01*
X5764869Y553888D01*
X5781530Y570549D01*
Y620533D01*
X5864836Y553888D02*
X5831514D01*
X5814852Y570549D01*
Y603872D01*
X5831514Y620533D01*
X5864836D01*
X5881498Y603872D01*
Y587210D01*
X5814852D01*
X5914820Y620533D02*
Y553888D01*
Y587210D01*
X5931482Y603872D01*
X5948143Y620533D01*
X5964804D01*
X6181401Y553888D02*
X6114756D01*
X6181401Y620533D01*
Y637194D01*
X6164740Y653856D01*
X6131417D01*
X6114756Y637194D01*
X6281369Y553888D02*
X6214724D01*
X6281369Y620533D01*
Y637194D01*
X6264708Y653856D01*
X6231385D01*
X6214724Y637194D01*
X6381336Y653856D02*
X6314691D01*
Y603872D01*
X6348014Y620533D01*
X6364675D01*
X6381336Y603872D01*
Y570549D01*
X6364675Y553888D01*
X6331353D01*
X6314691Y570549D01*
X6481304Y653856D02*
X6447982Y637194D01*
X6414659Y603872D01*
Y570549D01*
X6431321Y553888D01*
X6464643D01*
X6481304Y570549D01*
Y587210D01*
X6464643Y603872D01*
X6414659D01*
X4182045Y472934D02*
X4115400D01*
Y422950D01*
X4148722D01*
X4115400D01*
Y372966D01*
X4265352D02*
X4232029D01*
X4215368Y389628D01*
Y422950D01*
X4232029Y439612D01*
X4265352D01*
X4282013Y422950D01*
Y406289D01*
X4215368D01*
X4315336Y472934D02*
Y372966D01*
X4365319D01*
X4381981Y389628D01*
Y406289D01*
Y422950D01*
X4365319Y439612D01*
X4315336D01*
X4415303D02*
Y372966D01*
Y406289D01*
X4431965Y422950D01*
X4448626Y439612D01*
X4465287D01*
X4515271D02*
Y389628D01*
X4531933Y372966D01*
X4581916D01*
Y439612D01*
X4631900D02*
X4665223D01*
X4681884Y422950D01*
Y372966D01*
X4631900D01*
X4615239Y389628D01*
X4631900Y406289D01*
X4681884D01*
X4715207Y439612D02*
Y372966D01*
Y406289D01*
X4731868Y422950D01*
X4748529Y439612D01*
X4765191D01*
X4815175D02*
Y389628D01*
X4831836Y372966D01*
X4881820D01*
Y356305D01*
X4865158Y339644D01*
X4848497D01*
X4881820Y372966D02*
Y439612D01*
X5081755Y372966D02*
X5015110D01*
X5081755Y439612D01*
Y456273D01*
X5065094Y472934D01*
X5031771D01*
X5015110Y456273D01*
X5115078D02*
X5131739Y472934D01*
X5165062D01*
X5181723Y456273D01*
Y389628D01*
X5165062Y372966D01*
X5131739D01*
X5115078Y389628D01*
Y456273D01*
X5281691Y372966D02*
X5215046D01*
X5281691Y439612D01*
Y456273D01*
X5265030Y472934D01*
X5231707D01*
X5215046Y456273D01*
X5315013D02*
X5331675Y472934D01*
X5364997D01*
X5381659Y456273D01*
Y439612D01*
X5364997Y422950D01*
X5348336D01*
X5364997D01*
X5381659Y406289D01*
Y389628D01*
X5364997Y372966D01*
X5331675D01*
X5315013Y389628D01*
X4115400Y158723D02*
Y225368D01*
X4148722Y258690D01*
X4182045Y225368D01*
Y158723D01*
Y208706D01*
X4115400D01*
X4282013Y258690D02*
Y158723D01*
X4232029D01*
X4215368Y175384D01*
Y208706D01*
X4232029Y225368D01*
X4282013D01*
X4331997D02*
X4365319D01*
X4381981Y208706D01*
Y158723D01*
X4331997D01*
X4315336Y175384D01*
X4331997Y192045D01*
X4381981D01*
X4415303Y158723D02*
Y225368D01*
X4431965D01*
X4448626Y208706D01*
Y158723D01*
Y208706D01*
X4465287Y225368D01*
X4481948Y208706D01*
Y158723D01*
X4615239Y258690D02*
Y158723D01*
X4665223D01*
X4681884Y175384D01*
Y192045D01*
X4665223Y208706D01*
X4615239D01*
X4665223D01*
X4681884Y225368D01*
Y242029D01*
X4665223Y258690D01*
X4615239D01*
X4731868Y142061D02*
X4748529Y158723D01*
Y175384D01*
X4731868D01*
Y158723D01*
X4748529D01*
X4731868Y142061D01*
X4715207Y125400D01*
X4831836Y142061D02*
X4848497Y158723D01*
Y175384D01*
X4831836D01*
Y158723D01*
X4848497D01*
X4831836Y142061D01*
X4815175Y125400D01*
X5015110Y258690D02*
Y158723D01*
X5065094D01*
X5081755Y175384D01*
Y192045D01*
X5065094Y208706D01*
X5015110D01*
X5065094D01*
X5081755Y225368D01*
Y242029D01*
X5065094Y258690D01*
X5015110D01*
X5165062Y158723D02*
X5131739D01*
X5115078Y175384D01*
Y208706D01*
X5131739Y225368D01*
X5165062D01*
X5181723Y208706D01*
Y192045D01*
X5115078D01*
X5215046Y158723D02*
Y225368D01*
X5265030D01*
X5281691Y208706D01*
Y158723D01*
X5464965Y258690D02*
X5431643D01*
X5414981Y242029D01*
Y175384D01*
X5431643Y158723D01*
X5464965D01*
X5481626Y175384D01*
Y242029D01*
X5464965Y258690D01*
X5514949Y158723D02*
Y175384D01*
X5531610D01*
Y158723D01*
X5514949D01*
X5614917Y142061D02*
X5631578Y158723D01*
Y175384D01*
X5614917D01*
Y158723D01*
X5631578D01*
X5614917Y142061D01*
X5598256Y125400D01*
X5798191Y258690D02*
Y158723D01*
X5848175D01*
X5864836Y175384D01*
Y242029D01*
X5848175Y258690D01*
X5798191D01*
X5914820Y225368D02*
X5948143D01*
X5964804Y208706D01*
Y158723D01*
X5914820D01*
X5898159Y175384D01*
X5914820Y192045D01*
X5964804D01*
X5998127Y225368D02*
X6031449Y158723D01*
X6064772Y225368D01*
X6148078Y158723D02*
X6114756D01*
X6098094Y175384D01*
Y208706D01*
X6114756Y225368D01*
X6148078D01*
X6164740Y208706D01*
Y192045D01*
X6098094D01*
X6298030Y158723D02*
Y258690D01*
X6364675Y158723D01*
Y258690D01*
X6397998Y158723D02*
Y175384D01*
X6414659D01*
Y158723D01*
X6397998D01*
X3584600Y6844600D02*
Y6692249D01*
X3508425D01*
X3483033Y6717641D01*
Y6768425D01*
X3508425Y6793816D01*
X3584600D01*
X3330682Y6717641D02*
X3356074Y6692249D01*
X3406857D01*
X3432249Y6717641D01*
Y6819208D01*
X3406857Y6844600D01*
X3356074D01*
X3330682Y6819208D01*
Y6768425D01*
X3381466D01*
X3279898Y6844600D02*
Y6692249D01*
X3178331Y6844600D01*
Y6692249D01*
X3127548D02*
Y6844600D01*
X3051372D01*
X3025980Y6819208D01*
Y6717641D01*
X3051372Y6692249D01*
X3127548D01*
X5603580Y1035368D02*
Y935400D01*
X5670225D01*
X5720210D02*
X5753532D01*
X5770193Y952061D01*
Y985384D01*
X5753532Y1002045D01*
X5720210D01*
X5703548Y985384D01*
Y952061D01*
X5720210Y935400D01*
X5803516Y1002045D02*
Y952061D01*
X5820177Y935400D01*
X5836838Y952061D01*
X5853500Y935400D01*
X5870161Y952061D01*
Y1002045D01*
X5903484Y985384D02*
X5970129D01*
X6003452Y935400D02*
X6053435D01*
X6070097Y952061D01*
X6053435Y968722D01*
X6020113D01*
X6003452Y985384D01*
X6020113Y1002045D01*
X6070097D01*
X6103419Y935400D02*
X6136742D01*
X6120081D01*
Y1002045D01*
X6103419D01*
X6253371Y1035368D02*
Y935400D01*
X6203387D01*
X6186726Y952061D01*
Y985384D01*
X6203387Y1002045D01*
X6253371D01*
X6336677Y935400D02*
X6303355D01*
X6286694Y952061D01*
Y985384D01*
X6303355Y1002045D01*
X6336677D01*
X6353339Y985384D01*
Y968722D01*
X6286694D01*
X6486629Y1035368D02*
Y935400D01*
X6536613D01*
X6553274Y952061D01*
Y1018706D01*
X6536613Y1035368D01*
X6486629D01*
X6586597Y935400D02*
Y1035368D01*
X6636581D01*
X6653242Y1018706D01*
Y985384D01*
X6636581Y968722D01*
X6586597D01*
X6686565Y1035368D02*
X6753210D01*
X6719887D01*
Y935400D01*
X6953145D02*
X6886500D01*
X6953145Y1002045D01*
Y1018706D01*
X6936484Y1035368D01*
X6903162D01*
X6886500Y1018706D01*
X6986468Y935400D02*
Y952061D01*
X7003130D01*
Y935400D01*
X6986468D01*
X7069775Y1018706D02*
X7086436Y1035368D01*
X7119758D01*
X7136420Y1018706D01*
Y952061D01*
X7119758Y935400D01*
X7086436D01*
X7069775Y952061D01*
Y1018706D01*
X505400Y4857751D02*
Y4756184D01*
X556184Y4705400D01*
X606967Y4756184D01*
Y4857751D01*
X657751D02*
Y4705400D01*
X733926D01*
X759318Y4730792D01*
Y4832359D01*
X733926Y4857751D01*
X657751D01*
X810102D02*
Y4705400D01*
X886277D01*
X911669Y4730792D01*
Y4832359D01*
X886277Y4857751D01*
X810102D01*
%TF.MD5,9fb849eb165072bfb61919b1c72b3c07*%
M02*
