%TF.GenerationSoftware,Altium Limited,Altium Designer,22.9.1 (49)*%
G04 Layer_Color=16711935*
%FSLAX45Y45*%
%MOMM*%
%TF.SameCoordinates,E77D5F78-0586-4990-9624-58BD59020D5A*%
%TF.FilePolarity,Negative*%
%TF.FileFunction,Soldermask,Bot*%
%TF.Part,Single*%
G01*
G75*
%TA.AperFunction,ComponentPad*%
%ADD52C,1.30000*%
%ADD55R,1.30000X1.30000*%
%ADD56C,1.90500*%
%TA.AperFunction,SMDPad,CuDef*%
%ADD61R,0.90000X0.80000*%
%ADD65R,1.65320X1.20320*%
%ADD66R,0.72320X0.72320*%
%ADD67R,1.45320X3.60320*%
%TA.AperFunction,ComponentPad*%
%ADD68C,2.70320*%
%ADD69C,1.50320*%
%ADD70R,1.50320X1.50320*%
%ADD71C,2.20980*%
%ADD72C,6.20320*%
%TA.AperFunction,ViaPad*%
%ADD73C,0.80320*%
D52*
X3599970Y6300000D02*
D03*
X2050000Y400000D02*
D03*
X1540000D02*
D03*
X4579978Y3630000D02*
D03*
X5989977Y5799999D02*
D03*
X3700000Y1500000D02*
D03*
X6859999Y2910000D02*
D03*
X7140000Y2409999D02*
D03*
X2600000Y1500000D02*
D03*
X6689969Y2409999D02*
D03*
X5849958Y1519998D02*
D03*
X1979961Y4499998D02*
D03*
X4619962Y4399998D02*
D03*
X5919964Y4299998D02*
D03*
X2599965Y2300000D02*
D03*
X4849999Y1090000D02*
D03*
X6160000Y3910000D02*
D03*
X5279999Y1090000D02*
D03*
X6159999Y4300000D02*
D03*
X4400000Y2239999D02*
D03*
X6359999Y3059999D02*
D03*
X3700000Y2300000D02*
D03*
X7140000Y3380000D02*
D03*
X7140000Y3150000D02*
D03*
D55*
X6859999Y2656000D02*
D03*
D56*
X3785270Y1065269D02*
D03*
Y554729D02*
D03*
X3274730D02*
D03*
Y1065269D02*
D03*
X3025270D02*
D03*
Y554729D02*
D03*
X2514730Y1065269D02*
D03*
Y554729D02*
D03*
D61*
X4160000Y2730000D02*
D03*
X3939999D02*
D03*
X3990000Y2940000D02*
D03*
X4210000D02*
D03*
D65*
X2449999Y1854999D02*
D03*
Y2044999D02*
D03*
D66*
X2600000Y1991000D02*
D03*
Y1909000D02*
D03*
D67*
X1085001Y5849999D02*
D03*
X1694998D02*
D03*
D68*
X2537500Y6659999D02*
D03*
X1902500D02*
D03*
X854998Y5987500D02*
D03*
Y5352500D02*
D03*
D69*
X1700000Y829999D02*
D03*
D70*
X1900000D02*
D03*
D71*
X3530000Y809999D02*
D03*
X2770000D02*
D03*
D72*
X500000Y7000000D02*
D03*
X7000000D02*
D03*
X500000Y500000D02*
D03*
X7000000D02*
D03*
D73*
X4820000Y4430000D02*
D03*
X4560000Y4210000D02*
D03*
X4730000Y4550000D02*
D03*
X4940000D02*
D03*
X6450000Y3240000D02*
D03*
X5820000Y3200000D02*
D03*
X5990000D02*
D03*
X6170000D02*
D03*
X6510000Y2700000D02*
D03*
X6320000D02*
D03*
X6120000D02*
D03*
X5920000D02*
D03*
%TF.MD5,3f287ff403a3c543b6bf70ed428a6162*%
M02*
