%TF.GenerationSoftware,Altium Limited,Altium Designer,22.9.1 (49)*%
G04 Layer_Physical_Order=3*
G04 Layer_Color=16440176*
%FSLAX45Y45*%
%MOMM*%
%TF.SameCoordinates,E77D5F78-0586-4990-9624-58BD59020D5A*%
%TF.FilePolarity,Positive*%
%TF.FileFunction,Copper,L3,Inr,Signal*%
%TF.Part,Single*%
G01*
G75*
%TA.AperFunction,Conductor*%
%ADD46C,0.30000*%
%TA.AperFunction,ComponentPad*%
%ADD51C,2.50000*%
%ADD52C,1.30000*%
%ADD53C,0.60000*%
%ADD54R,1.30000X1.30000*%
%ADD55R,1.30000X1.30000*%
%ADD56C,1.90500*%
%ADD57C,2.00660*%
%ADD58C,6.00000*%
%TA.AperFunction,ViaPad*%
%ADD59C,0.60000*%
G36*
X7220000Y3190001D02*
X7220000Y3079999D01*
X6880999Y2741000D01*
X6774999D01*
Y2635000D01*
X6729998Y2590000D01*
X5370000Y2590000D01*
X5280000Y2680000D01*
Y2720054D01*
X5280000Y2720055D01*
Y2739946D01*
X5280000Y2739946D01*
Y2820054D01*
X5280000Y2820054D01*
Y2839946D01*
X5280000Y2839946D01*
Y2920054D01*
X5280000Y2920054D01*
Y2939946D01*
X5280000Y2939946D01*
Y3020054D01*
X5280000Y3020054D01*
Y3039945D01*
X5280000Y3039946D01*
Y3060000D01*
X5380000Y3160000D01*
Y3160000D01*
X5559289D01*
X5547612Y3148322D01*
X5540000Y3129945D01*
Y3110054D01*
X5547612Y3091677D01*
X5561677Y3077612D01*
X5580054Y3070000D01*
X5599945D01*
X5618323Y3077612D01*
X5632388Y3091677D01*
X5640000Y3110054D01*
Y3129945D01*
X5632388Y3148322D01*
X5620710Y3160000D01*
X5789289Y3160000D01*
X5791677Y3157612D01*
X5810054Y3150000D01*
X5829946D01*
X5848323Y3157612D01*
X5850711Y3160000D01*
X5959289D01*
X5961677Y3157612D01*
X5980054Y3150000D01*
X5999946D01*
X6018323Y3157612D01*
X6020711Y3160000D01*
X6139289D01*
X6141677Y3157612D01*
X6160054Y3150000D01*
X6179946D01*
X6198323Y3157612D01*
X6200710Y3160000D01*
X6470000D01*
X6550000Y3240000D01*
X7170001D01*
X7220000Y3190001D01*
D02*
G37*
G36*
X4690000Y3189999D02*
X4750000Y3130000D01*
Y2749999D01*
X4530000Y2530000D01*
X3979999D01*
X3720000Y2789999D01*
X3720000Y3130000D01*
X4059992D01*
X4119991Y3190000D01*
X4690000Y3189999D01*
D02*
G37*
G36*
X6790000Y5910000D02*
Y5300000D01*
X6260000Y4770000D01*
X5250000D01*
X4100000Y3620000D01*
Y3300000D01*
X3990000Y3190000D01*
X3710000D01*
X3680000Y3160000D01*
Y2530000D01*
X3970000Y2240000D01*
Y260000D01*
X3860000Y150000D01*
X1430000D01*
X1320000Y260000D01*
Y4650000D01*
X1100000Y4870000D01*
X410000D01*
X150000Y5130000D01*
Y6060000D01*
X290000Y6200000D01*
X1110000D01*
X1720000Y6810000D01*
X5890000D01*
X6790000Y5910000D01*
D02*
G37*
%LPC*%
G36*
X6371190Y3144999D02*
X6348809D01*
X6327191Y3139207D01*
X6307808Y3128016D01*
X6291983Y3112191D01*
X6280792Y3092808D01*
X6275000Y3071190D01*
Y3048809D01*
X6280792Y3027191D01*
X6291983Y3007808D01*
X6307808Y2991983D01*
X6327191Y2980792D01*
X6348809Y2975000D01*
X6371190D01*
X6392808Y2980792D01*
X6412191Y2991983D01*
X6428016Y3007808D01*
X6439207Y3027191D01*
X6444999Y3048809D01*
Y3071190D01*
X6439207Y3092808D01*
X6428016Y3112191D01*
X6412191Y3128016D01*
X6392808Y3139207D01*
X6371190Y3144999D01*
D02*
G37*
G36*
X6871189Y2995000D02*
X6848809D01*
X6827190Y2989207D01*
X6807808Y2978017D01*
X6791982Y2962191D01*
X6780792Y2942808D01*
X6774999Y2921190D01*
Y2898809D01*
X6780792Y2877191D01*
X6791982Y2857809D01*
X6807808Y2841983D01*
X6827190Y2830792D01*
X6848809Y2825000D01*
X6871189D01*
X6892808Y2830792D01*
X6912190Y2841983D01*
X6928016Y2857809D01*
X6939206Y2877191D01*
X6944999Y2898809D01*
Y2921190D01*
X6939206Y2942808D01*
X6928016Y2962191D01*
X6912190Y2978017D01*
X6892808Y2989207D01*
X6871189Y2995000D01*
D02*
G37*
G36*
X5599946Y2800000D02*
X5580054D01*
X5561677Y2792388D01*
X5547612Y2778323D01*
X5540000Y2759945D01*
Y2740054D01*
X5547612Y2721677D01*
X5561677Y2707612D01*
X5580054Y2700000D01*
X5599946D01*
X5618323Y2707612D01*
X5632388Y2721677D01*
X5640000Y2740054D01*
Y2759945D01*
X5632388Y2778323D01*
X5618323Y2792388D01*
X5599946Y2800000D01*
D02*
G37*
G36*
X6519946Y2750000D02*
X6500054D01*
X6481677Y2742388D01*
X6467612Y2728323D01*
X6460000Y2709946D01*
Y2690054D01*
X6467612Y2671677D01*
X6481677Y2657612D01*
X6500054Y2650000D01*
X6519946D01*
X6538323Y2657612D01*
X6552388Y2671677D01*
X6560000Y2690054D01*
Y2709946D01*
X6552388Y2728323D01*
X6538323Y2742388D01*
X6519946Y2750000D01*
D02*
G37*
G36*
X6329946D02*
X6310054D01*
X6291677Y2742388D01*
X6277612Y2728323D01*
X6270000Y2709946D01*
Y2690054D01*
X6277612Y2671677D01*
X6291677Y2657612D01*
X6310054Y2650000D01*
X6329946D01*
X6348323Y2657612D01*
X6362388Y2671677D01*
X6370000Y2690054D01*
Y2709946D01*
X6362388Y2728323D01*
X6348323Y2742388D01*
X6329946Y2750000D01*
D02*
G37*
G36*
X6129946D02*
X6110054D01*
X6091677Y2742388D01*
X6077612Y2728323D01*
X6070000Y2709946D01*
Y2690054D01*
X6077612Y2671677D01*
X6091677Y2657612D01*
X6110054Y2650000D01*
X6129946D01*
X6148323Y2657612D01*
X6162388Y2671677D01*
X6170000Y2690054D01*
Y2709946D01*
X6162388Y2728323D01*
X6148323Y2742388D01*
X6129946Y2750000D01*
D02*
G37*
G36*
X5929946D02*
X5910054D01*
X5891677Y2742388D01*
X5877612Y2728323D01*
X5870000Y2709946D01*
Y2690054D01*
X5877612Y2671677D01*
X5891677Y2657612D01*
X5910054Y2650000D01*
X5929946D01*
X5948323Y2657612D01*
X5962388Y2671677D01*
X5970000Y2690054D01*
Y2709946D01*
X5962388Y2728323D01*
X5948323Y2742388D01*
X5929946Y2750000D01*
D02*
G37*
G36*
X5769945Y2700000D02*
X5750054D01*
X5731677Y2692388D01*
X5717612Y2678323D01*
X5710000Y2659945D01*
Y2640054D01*
X5717612Y2621677D01*
X5731677Y2607612D01*
X5750054Y2600000D01*
X5769945D01*
X5788322Y2607612D01*
X5802388Y2621677D01*
X5810000Y2640054D01*
Y2659945D01*
X5802388Y2678323D01*
X5788322Y2692388D01*
X5769945Y2700000D01*
D02*
G37*
G36*
X4049946Y2990000D02*
X4030054D01*
X4011677Y2982388D01*
X4003297Y2974008D01*
X3995000Y2969684D01*
X3986703Y2974008D01*
X3978323Y2982388D01*
X3959946Y2990000D01*
X3940054D01*
X3921677Y2982388D01*
X3907612Y2968323D01*
X3900000Y2949946D01*
Y2930054D01*
X3907612Y2911677D01*
X3921677Y2897612D01*
X3940054Y2890000D01*
X3959946D01*
X3978323Y2897612D01*
X3986703Y2905992D01*
X3995000Y2910316D01*
X4003297Y2905992D01*
X4011677Y2897612D01*
X4030054Y2890000D01*
X4049946D01*
X4068323Y2897612D01*
X4082388Y2911677D01*
X4090000Y2930054D01*
Y2949946D01*
X4082388Y2968323D01*
X4068323Y2982388D01*
X4049946Y2990000D01*
D02*
G37*
G36*
X990000Y6160000D02*
X720000D01*
X680000Y6120000D01*
Y5840000D01*
X720000Y5800000D01*
X990000D01*
X1030000Y5840000D01*
Y6120000D01*
X990000Y6160000D01*
D02*
G37*
G36*
Y5525000D02*
X720000D01*
X680000Y5485000D01*
Y5205000D01*
X720000Y5165000D01*
X990000D01*
X1030000Y5205000D01*
Y5485000D01*
X990000Y5525000D01*
D02*
G37*
G36*
X3319946Y2300000D02*
X3300054D01*
X3281677Y2292388D01*
X3267612Y2278323D01*
X3260000Y2259946D01*
Y2240054D01*
X3267612Y2221677D01*
X3281677Y2207612D01*
X3300054Y2200000D01*
X3319946D01*
X3338323Y2207612D01*
X3352388Y2221677D01*
X3360000Y2240054D01*
Y2259946D01*
X3352388Y2278323D01*
X3338323Y2292388D01*
X3319946Y2300000D01*
D02*
G37*
G36*
X2609946Y2190000D02*
X2590054D01*
X2571677Y2182388D01*
X2557612Y2168323D01*
X2550000Y2149946D01*
X2542388Y2168323D01*
X2528323Y2182388D01*
X2509946Y2190000D01*
X2490054D01*
X2471677Y2182388D01*
X2457612Y2168323D01*
X2450000Y2149946D01*
Y2130054D01*
X2457612Y2111677D01*
X2471677Y2097612D01*
X2490054Y2090000D01*
X2509946D01*
X2528323Y2097612D01*
X2542388Y2111677D01*
X2550000Y2130054D01*
X2557612Y2111677D01*
X2571677Y2097612D01*
X2577983Y2095000D01*
X2571677Y2092388D01*
X2557612Y2078323D01*
X2550000Y2059946D01*
Y2040054D01*
X2557612Y2021677D01*
X2571677Y2007612D01*
X2590054Y2000000D01*
X2609946D01*
X2628323Y2007612D01*
X2642388Y2021677D01*
X2650000Y2040054D01*
Y2059946D01*
X2642388Y2078323D01*
X2628323Y2092388D01*
X2622017Y2095000D01*
X2628323Y2097612D01*
X2642388Y2111677D01*
X2650000Y2130054D01*
Y2149946D01*
X2642388Y2168323D01*
X2628323Y2182388D01*
X2609946Y2190000D01*
D02*
G37*
G36*
X2409946D02*
X2390054D01*
X2371677Y2182388D01*
X2357612Y2168323D01*
X2350000Y2149946D01*
Y2130054D01*
X2357612Y2111677D01*
X2371677Y2097612D01*
X2390054Y2090000D01*
X2409946D01*
X2428323Y2097612D01*
X2442388Y2111677D01*
X2450000Y2130054D01*
Y2149946D01*
X2442388Y2168323D01*
X2428323Y2182388D01*
X2409946Y2190000D01*
D02*
G37*
G36*
X2309946D02*
X2290054D01*
X2271677Y2182388D01*
X2257612Y2168323D01*
X2250000Y2149946D01*
Y2130054D01*
X2257612Y2111677D01*
X2271677Y2097612D01*
X2290054Y2090000D01*
X2309946D01*
X2328323Y2097612D01*
X2342388Y2111677D01*
X2350000Y2130054D01*
Y2149946D01*
X2342388Y2168323D01*
X2328323Y2182388D01*
X2309946Y2190000D01*
D02*
G37*
G36*
Y2080000D02*
X2290054D01*
X2271677Y2072388D01*
X2257612Y2058323D01*
X2250000Y2039946D01*
Y2020054D01*
X2257612Y2001677D01*
X2271677Y1987612D01*
X2290054Y1980000D01*
X2309946D01*
X2328323Y1987612D01*
X2342388Y2001677D01*
X2350000Y2020054D01*
Y2039946D01*
X2342388Y2058323D01*
X2328323Y2072388D01*
X2309946Y2080000D01*
D02*
G37*
G36*
X3279946Y2000000D02*
X3260054D01*
X3241677Y1992388D01*
X3227612Y1978323D01*
X3220000Y1959946D01*
Y1940054D01*
X3224426Y1929369D01*
X3223145Y1929899D01*
X3203254D01*
X3184877Y1922287D01*
X3170812Y1908222D01*
X3163200Y1889845D01*
Y1869954D01*
X3170812Y1851577D01*
X3184877Y1837511D01*
X3203254Y1829900D01*
X3223145D01*
X3241523Y1837511D01*
X3255588Y1851577D01*
X3263200Y1869954D01*
Y1889845D01*
X3258774Y1900530D01*
X3260054Y1900000D01*
X3279946D01*
X3298323Y1907612D01*
X3312388Y1921677D01*
X3320000Y1940054D01*
Y1959946D01*
X3312388Y1978323D01*
X3298323Y1992388D01*
X3279946Y2000000D01*
D02*
G37*
G36*
X3039946D02*
X3020054D01*
X3001677Y1992388D01*
X2987612Y1978323D01*
X2980000Y1959946D01*
Y1940054D01*
X2987612Y1921677D01*
X3001677Y1907612D01*
X3020054Y1900000D01*
X3039946D01*
X3040501Y1900230D01*
X3036200Y1889845D01*
Y1869954D01*
X3043812Y1851577D01*
X3057877Y1837511D01*
X3076254Y1829900D01*
X3096145D01*
X3114523Y1837511D01*
X3128588Y1851577D01*
X3136200Y1869954D01*
Y1889845D01*
X3128588Y1908222D01*
X3114523Y1922287D01*
X3096145Y1929899D01*
X3076254D01*
X3075698Y1929669D01*
X3080000Y1940054D01*
Y1959946D01*
X3072388Y1978323D01*
X3058323Y1992388D01*
X3039946Y2000000D01*
D02*
G37*
G36*
X1984999Y914999D02*
X1815000D01*
Y744999D01*
X1984999D01*
Y914999D01*
D02*
G37*
G36*
X3545842Y930329D02*
X3514158D01*
X3483554Y922129D01*
X3456116Y906287D01*
X3433712Y883884D01*
X3417870Y856445D01*
X3409670Y825841D01*
Y794158D01*
X3417870Y763554D01*
X3433712Y736115D01*
X3456116Y713712D01*
X3483554Y697870D01*
X3514158Y689669D01*
X3545842D01*
X3576445Y697870D01*
X3603884Y713712D01*
X3626288Y736115D01*
X3642130Y763554D01*
X3650330Y794158D01*
Y825841D01*
X3642130Y856445D01*
X3626288Y883884D01*
X3603884Y906287D01*
X3576445Y922129D01*
X3545842Y930329D01*
D02*
G37*
G36*
X2785842D02*
X2754158D01*
X2723554Y922129D01*
X2696116Y906287D01*
X2673712Y883884D01*
X2657870Y856445D01*
X2649670Y825841D01*
Y794158D01*
X2657870Y763554D01*
X2673712Y736115D01*
X2696116Y713712D01*
X2723554Y697870D01*
X2754158Y689669D01*
X2785842D01*
X2816445Y697870D01*
X2843884Y713712D01*
X2866288Y736115D01*
X2882130Y763554D01*
X2890330Y794158D01*
Y825841D01*
X2882130Y856445D01*
X2866288Y883884D01*
X2843884Y906287D01*
X2816445Y922129D01*
X2785842Y930329D01*
D02*
G37*
G36*
X2061190Y485000D02*
X2038809D01*
X2017191Y479207D01*
X1997809Y468017D01*
X1981983Y452191D01*
X1970793Y432809D01*
X1965000Y411190D01*
Y388809D01*
X1970793Y367191D01*
X1981983Y347809D01*
X1997809Y331983D01*
X2017191Y320793D01*
X2038809Y315000D01*
X2061190D01*
X2082809Y320793D01*
X2102191Y331983D01*
X2118017Y347809D01*
X2129207Y367191D01*
X2135000Y388809D01*
Y411190D01*
X2129207Y432809D01*
X2118017Y452191D01*
X2102191Y468017D01*
X2082809Y479207D01*
X2061190Y485000D01*
D02*
G37*
%LPD*%
D46*
X3270000Y1950000D02*
Y1958118D01*
D51*
X2537500Y6659999D02*
D03*
X1902500D02*
D03*
X854998Y5987500D02*
D03*
Y5352500D02*
D03*
D52*
X3599970Y6300000D02*
D03*
X1700000Y829999D02*
D03*
X2050000Y400000D02*
D03*
X1540000D02*
D03*
X4579978Y3630000D02*
D03*
X5989977Y5799999D02*
D03*
X3700000Y1500000D02*
D03*
X6859999Y2910000D02*
D03*
X7140000Y2409999D02*
D03*
X2600000Y1500000D02*
D03*
X6689969Y2409999D02*
D03*
X5849958Y1519998D02*
D03*
X1979961Y4499998D02*
D03*
X4619962Y4399998D02*
D03*
X5919964Y4299998D02*
D03*
X2599965Y2300000D02*
D03*
X4849999Y1090000D02*
D03*
X6160000Y3910000D02*
D03*
X5279999Y1090000D02*
D03*
X6159999Y4300000D02*
D03*
X4400000Y2239999D02*
D03*
X6359999Y3059999D02*
D03*
X3700000Y2300000D02*
D03*
X7140000Y3380000D02*
D03*
X7140000Y3150000D02*
D03*
D53*
X3110000Y2090000D02*
D03*
X3190000D02*
D03*
Y2169999D02*
D03*
X3110000D02*
D03*
D54*
X1900000Y829999D02*
D03*
D55*
X6859999Y2656000D02*
D03*
D56*
X3785270Y1065269D02*
D03*
Y554729D02*
D03*
X3274730D02*
D03*
Y1065269D02*
D03*
X3025270D02*
D03*
Y554729D02*
D03*
X2514730Y1065269D02*
D03*
Y554729D02*
D03*
D57*
X3530000Y809999D02*
D03*
X2770000D02*
D03*
D58*
X500000Y7000000D02*
D03*
X7000000D02*
D03*
X500000Y500000D02*
D03*
X7000000D02*
D03*
D59*
X3310000Y2250000D02*
D03*
X3150001Y6600000D02*
D03*
X5850000D02*
D03*
X5550001D02*
D03*
X4350000D02*
D03*
X4050000D02*
D03*
X3750000D02*
D03*
X3450000D02*
D03*
X4650000D02*
D03*
X4950000D02*
D03*
X5250000D02*
D03*
X2249999Y6599998D02*
D03*
X1649999D02*
D03*
X4190000Y3280000D02*
D03*
X4650000Y3150000D02*
D03*
X5070000Y2220000D02*
D03*
X5170000Y6110000D02*
D03*
X1550000Y6040000D02*
D03*
X1700000Y6110000D02*
D03*
X1650000Y6040000D02*
D03*
X1500000Y6110000D02*
D03*
X1600000D02*
D03*
X1450000Y6040000D02*
D03*
X1750000D02*
D03*
X2020000Y6110000D02*
D03*
X1810000Y6110000D02*
D03*
X2070000Y6040000D02*
D03*
X1870000D02*
D03*
X1970000D02*
D03*
X2120000Y6110000D02*
D03*
X1920000D02*
D03*
X2170000Y6040000D02*
D03*
X2230000Y6110000D02*
D03*
X2340000Y6110000D02*
D03*
X2290000Y6040000D02*
D03*
X2440000Y6110000D02*
D03*
X2590000Y6040000D02*
D03*
X2390000D02*
D03*
X2540000Y6110000D02*
D03*
X2490000Y6040000D02*
D03*
X2650000Y6110000D02*
D03*
X3070000D02*
D03*
X3490000D02*
D03*
X4750000D02*
D03*
X4330000D02*
D03*
X3910000D02*
D03*
X6150000Y5090000D02*
D03*
X2400000Y2700000D02*
D03*
X6599998Y5699998D02*
D03*
X6299998Y6299998D02*
D03*
X6449998Y5999998D02*
D03*
X6299998Y5699998D02*
D03*
X5999998Y6299998D02*
D03*
X6149998Y5999998D02*
D03*
X5699998Y6299998D02*
D03*
X5849998Y5999998D02*
D03*
X5399998Y6299998D02*
D03*
X5099998D02*
D03*
X4799999D02*
D03*
X4499999D02*
D03*
X4199999D02*
D03*
X3899999D02*
D03*
Y2099999D02*
D03*
Y1500000D02*
D03*
Y300000D02*
D03*
X3599999Y2099999D02*
D03*
X3749999Y1799999D02*
D03*
X3599999Y300000D02*
D03*
X3299999Y6299998D02*
D03*
Y300000D02*
D03*
X2999999Y6299998D02*
D03*
Y300000D02*
D03*
X2699999Y6299998D02*
D03*
Y300000D02*
D03*
X2399999Y6299998D02*
D03*
Y1500000D02*
D03*
Y300000D02*
D03*
X2099999Y6299998D02*
D03*
Y3899999D02*
D03*
Y3299999D02*
D03*
X2249999Y2999999D02*
D03*
X2099999Y2699999D02*
D03*
X2249999Y2399999D02*
D03*
X1799999Y6299998D02*
D03*
Y4499999D02*
D03*
X1949999Y4199999D02*
D03*
X1799999Y3899999D02*
D03*
X1949999Y3599999D02*
D03*
X1799999Y3299999D02*
D03*
X1949999Y2999999D02*
D03*
X1799999Y2699999D02*
D03*
X1949999Y2399999D02*
D03*
X1799999Y300000D02*
D03*
X1500000Y6299998D02*
D03*
Y4499999D02*
D03*
X1649999Y4199999D02*
D03*
X1500000Y3899999D02*
D03*
X1649999Y3599999D02*
D03*
X1500000Y3299999D02*
D03*
X1649999Y2999999D02*
D03*
X1500000Y2699999D02*
D03*
X1649999Y2399999D02*
D03*
X1500000Y2099999D02*
D03*
X6150000Y4830000D02*
D03*
X5850000D02*
D03*
X5550000D02*
D03*
X5270000Y4830000D02*
D03*
X5700000Y4960000D02*
D03*
X5990000D02*
D03*
X6300000D02*
D03*
X7190000Y2940000D02*
D03*
Y2740000D02*
D03*
X6920000Y2480000D02*
D03*
Y2360000D02*
D03*
X2680000Y2740000D02*
D03*
X3630000Y2660000D02*
D03*
X2680000D02*
D03*
X3390000Y2520000D02*
D03*
X3470000D02*
D03*
X3550000D02*
D03*
X2920000D02*
D03*
X2840000D02*
D03*
X2760000D02*
D03*
X2720000Y2590000D02*
D03*
X3590000D02*
D03*
X4100000Y2560000D02*
D03*
Y2640000D02*
D03*
Y2470000D02*
D03*
X4180000Y2560000D02*
D03*
X4300000Y3420000D02*
D03*
Y2300000D02*
D03*
X4310000Y2380000D02*
D03*
X4230000Y2360000D02*
D03*
X4170000Y2410000D02*
D03*
X4580000Y2060000D02*
D03*
X4590000Y1860000D02*
D03*
X4580000Y1410000D02*
D03*
X4490000D02*
D03*
Y1630000D02*
D03*
X4500000Y1860000D02*
D03*
X4530000Y2260000D02*
D03*
X4500000Y2060000D02*
D03*
X4640000Y3760000D02*
D03*
X4720000Y3810000D02*
D03*
Y3710000D02*
D03*
X4780000Y3520000D02*
D03*
X4660000D02*
D03*
X4710000Y3450000D02*
D03*
X4610000D02*
D03*
X4130000Y3240000D02*
D03*
Y3080000D02*
D03*
X4210000Y3160000D02*
D03*
X4130000D02*
D03*
X3750000Y2850000D02*
D03*
X3810000Y3050000D02*
D03*
X3750000Y3090000D02*
D03*
X4230000Y3350000D02*
D03*
X4040000Y2940000D02*
D03*
X3950000D02*
D03*
X3810000Y2970000D02*
D03*
X3630000Y2740000D02*
D03*
X3810000Y2890000D02*
D03*
X3750000Y2930000D02*
D03*
X4820000Y4430000D02*
D03*
X5060000Y4790000D02*
D03*
X4560000Y4210000D02*
D03*
X4730000Y4550000D02*
D03*
X4940000D02*
D03*
X6450000Y3240000D02*
D03*
X5820000Y3200000D02*
D03*
X5990000D02*
D03*
X6170000D02*
D03*
X6510000Y2700000D02*
D03*
X6320000D02*
D03*
X6120000D02*
D03*
X5920000D02*
D03*
X5590000Y2750000D02*
D03*
X1370000Y400000D02*
D03*
X1700000D02*
D03*
X1370000Y570000D02*
D03*
X1700000D02*
D03*
X1540000D02*
D03*
X5460000Y2680000D02*
D03*
X2610000Y3000000D02*
D03*
X2430000D02*
D03*
X2520000D02*
D03*
X2470000Y2250000D02*
D03*
X2190000Y1900000D02*
D03*
X2230000Y2240000D02*
D03*
X3270000Y1950000D02*
D03*
X3030000D02*
D03*
X2960000Y6110000D02*
D03*
X2760000D02*
D03*
X2860000D02*
D03*
X3380000D02*
D03*
X3180000D02*
D03*
X3280000D02*
D03*
X3800000D02*
D03*
X3600000D02*
D03*
X3700000D02*
D03*
X4220000D02*
D03*
X4020000D02*
D03*
X4120000D02*
D03*
X4640000D02*
D03*
X4440000D02*
D03*
X4540000D02*
D03*
X5060000D02*
D03*
X4860000D02*
D03*
X4960000D02*
D03*
X5380000D02*
D03*
X5280000D02*
D03*
X5480000D02*
D03*
X5530000Y6040000D02*
D03*
X5330000D02*
D03*
X5430000D02*
D03*
X5230000D02*
D03*
X4490000D02*
D03*
X4690000D02*
D03*
X4590000D02*
D03*
X4390000D02*
D03*
X3970000D02*
D03*
X4070000D02*
D03*
X4170000D02*
D03*
X4270000D02*
D03*
X3230000D02*
D03*
X3130000D02*
D03*
X3330000D02*
D03*
X3430000D02*
D03*
X3750000D02*
D03*
X4910000D02*
D03*
X2810000D02*
D03*
X2710000D02*
D03*
X5110000D02*
D03*
X3850000D02*
D03*
X3010000D02*
D03*
X3550000D02*
D03*
X3650000D02*
D03*
X4810000D02*
D03*
X2910000D02*
D03*
X5010000D02*
D03*
X5680000Y2750000D02*
D03*
X5540000Y2650000D02*
D03*
X5360000Y2690000D02*
D03*
X6630000Y3120000D02*
D03*
X6730000D02*
D03*
X6860000D02*
D03*
X6960000D02*
D03*
X6330000Y5540000D02*
D03*
X6420000D02*
D03*
X6510000D02*
D03*
X6240000D02*
D03*
X5060000Y4870000D02*
D03*
X4970000D02*
D03*
X4880000D02*
D03*
X1630000Y1180000D02*
D03*
Y1270000D02*
D03*
X1550000Y1420000D02*
D03*
X1630000Y1370000D02*
D03*
X2230000Y1420000D02*
D03*
X2310000Y1120000D02*
D03*
Y1320000D02*
D03*
X3370000Y1860000D02*
D03*
X2930000D02*
D03*
X2600000Y2140000D02*
D03*
Y1840000D02*
D03*
X2500000Y1770000D02*
D03*
X2400000D02*
D03*
X2300000D02*
D03*
Y1860000D02*
D03*
X2400000Y2140000D02*
D03*
X2300000D02*
D03*
Y2030000D02*
D03*
X2500000Y2140000D02*
D03*
X2600000Y2050000D02*
D03*
X5290000Y3940000D02*
D03*
X6040000Y4100000D02*
D03*
X5550000Y3580000D02*
D03*
X5950000D02*
D03*
X5750000D02*
D03*
X5700000Y3980000D02*
D03*
X5340000Y4010000D02*
D03*
X4720000Y3610000D02*
D03*
X4510000Y3510000D02*
D03*
X5170000Y1270000D02*
D03*
Y1350000D02*
D03*
X5040000Y2410000D02*
D03*
Y2320000D02*
D03*
X6110000Y1470000D02*
D03*
X6020000D02*
D03*
X4590000Y2310000D02*
D03*
X4570000Y1630000D02*
D03*
X4510000Y1310000D02*
D03*
Y1510000D02*
D03*
Y1760000D02*
D03*
Y1960000D02*
D03*
Y2160000D02*
D03*
X4410000Y2360000D02*
D03*
X4530000D02*
D03*
X4390000Y3510000D02*
D03*
X2800000Y2590000D02*
D03*
X2880000D02*
D03*
X2960000D02*
D03*
X3040000D02*
D03*
X3510000Y2590000D02*
D03*
X3270000D02*
D03*
X3350000D02*
D03*
X3430000D02*
D03*
X5760000Y2650000D02*
D03*
X5470000Y3210000D02*
D03*
X5370000D02*
D03*
X5230000Y3130000D02*
D03*
Y3030000D02*
D03*
Y2930000D02*
D03*
Y2830000D02*
D03*
Y2730000D02*
D03*
X4650000D02*
D03*
Y2830000D02*
D03*
Y2930000D02*
D03*
Y3040000D02*
D03*
X3080000Y2660000D02*
D03*
X3550000D02*
D03*
X3470000D02*
D03*
X3390000D02*
D03*
X3310000D02*
D03*
X2760000D02*
D03*
X2840000D02*
D03*
X2920000D02*
D03*
X3000000D02*
D03*
X3230000D02*
D03*
X6630000Y3430000D02*
D03*
X6730000D02*
D03*
X6960000D02*
D03*
X6860000D02*
D03*
X3750000Y3010000D02*
D03*
X5590000Y3120000D02*
D03*
X5680000D02*
D03*
X3071841Y2355042D02*
D03*
X3086200Y1879899D02*
D03*
X3213200D02*
D03*
X3088042Y1756441D02*
D03*
X3208042D02*
D03*
X2968042D02*
D03*
X3298042Y1416441D02*
D03*
X3150000Y2355042D02*
D03*
X2908042Y1506441D02*
D03*
X2928042Y1436441D02*
D03*
X3224241Y2355042D02*
D03*
X3388042Y1506441D02*
D03*
X3328042Y1756441D02*
D03*
X3368042Y1436441D02*
D03*
X2998042Y1416441D02*
D03*
%TF.MD5,63cbccc98154000948693845100c5f6f*%
M02*
