%TF.GenerationSoftware,Altium Limited,Altium Designer,22.9.1 (49)*%
G04 Layer_Color=255*
%FSLAX45Y45*%
%MOMM*%
%TF.SameCoordinates,E77D5F78-0586-4990-9624-58BD59020D5A*%
%TF.FilePolarity,Positive*%
%TF.FileFunction,Pads,Bot*%
%TF.Part,Single*%
G01*
G75*
%TA.AperFunction,SMDPad,CuDef*%
%ADD19R,1.45000X1.00000*%
%ADD39R,0.52000X0.52000*%
%TA.AperFunction,ComponentPad*%
%ADD51C,2.50000*%
%ADD52C,1.30000*%
%ADD53C,0.60000*%
%ADD54R,1.30000X1.30000*%
%ADD55R,1.30000X1.30000*%
%ADD56C,1.90500*%
%ADD57C,2.00660*%
%ADD58C,6.00000*%
%TA.AperFunction,SMDPad,CuDef*%
%ADD60R,1.25000X3.40000*%
%ADD61R,0.90000X0.80000*%
D19*
X2449999Y1854999D02*
D03*
Y2044999D02*
D03*
D39*
X2600000Y1991000D02*
D03*
Y1909000D02*
D03*
D51*
X2537500Y6659999D02*
D03*
X1902500D02*
D03*
X854998Y5987500D02*
D03*
Y5352500D02*
D03*
D52*
X3599970Y6300000D02*
D03*
X1700000Y829999D02*
D03*
X2050000Y400000D02*
D03*
X1540000D02*
D03*
X4579978Y3630000D02*
D03*
X5989977Y5799999D02*
D03*
X3700000Y1500000D02*
D03*
X6859999Y2910000D02*
D03*
X7140000Y2409999D02*
D03*
X2600000Y1500000D02*
D03*
X6689969Y2409999D02*
D03*
X5849958Y1519998D02*
D03*
X1979961Y4499998D02*
D03*
X4619962Y4399998D02*
D03*
X5919964Y4299998D02*
D03*
X2599965Y2300000D02*
D03*
X4849999Y1090000D02*
D03*
X6160000Y3910000D02*
D03*
X5279999Y1090000D02*
D03*
X6159999Y4300000D02*
D03*
X4400000Y2239999D02*
D03*
X6359999Y3059999D02*
D03*
X3700000Y2300000D02*
D03*
X7140000Y3380000D02*
D03*
X7140000Y3150000D02*
D03*
D53*
X3110000Y2090000D02*
D03*
X3190000D02*
D03*
Y2169999D02*
D03*
X3110000D02*
D03*
D54*
X1900000Y829999D02*
D03*
D55*
X6859999Y2656000D02*
D03*
D56*
X3785270Y1065269D02*
D03*
Y554729D02*
D03*
X3274730D02*
D03*
Y1065269D02*
D03*
X3025270D02*
D03*
Y554729D02*
D03*
X2514730Y1065269D02*
D03*
Y554729D02*
D03*
D57*
X3530000Y809999D02*
D03*
X2770000D02*
D03*
D58*
X500000Y7000000D02*
D03*
X7000000D02*
D03*
X500000Y500000D02*
D03*
X7000000D02*
D03*
D60*
X1085001Y5849999D02*
D03*
X1694998D02*
D03*
D61*
X4160000Y2730000D02*
D03*
X3939999D02*
D03*
X3990000Y2940000D02*
D03*
X4210000D02*
D03*
%TF.MD5,15c754c927b450d0feb0342f1c3361df*%
M02*
