%TF.GenerationSoftware,Altium Limited,Altium Designer,22.9.1 (49)*%
G04 Layer_Color=32896*
%FSLAX45Y45*%
%MOMM*%
%TF.SameCoordinates,E77D5F78-0586-4990-9624-58BD59020D5A*%
%TF.FilePolarity,Positive*%
%TF.FileFunction,Legend,Bot*%
%TF.Part,Single*%
G01*
G75*
%TA.AperFunction,NonConductor*%
%ADD63C,0.10000*%
%ADD64C,0.20000*%
G36*
X3957500Y5875000D02*
X3967500D01*
Y5872500D01*
X3972500D01*
Y5870000D01*
X3980000D01*
Y5867500D01*
X3982500D01*
Y5865000D01*
X3987500D01*
Y5862500D01*
X3992500D01*
Y5860000D01*
X3995000D01*
Y5857500D01*
X3997500D01*
Y5855000D01*
X4000000D01*
Y5852500D01*
X4002500D01*
Y5850000D01*
X4005000D01*
Y5847500D01*
X4007500D01*
Y5845000D01*
X4010000D01*
Y5842500D01*
X4012500D01*
Y5837500D01*
X4015000D01*
Y5832500D01*
X4017500D01*
Y5830000D01*
X4020000D01*
Y5822500D01*
X4022500D01*
Y5817500D01*
X4025000D01*
Y5807500D01*
X4027500D01*
Y3757500D01*
Y3755000D01*
Y3612500D01*
X4025000D01*
Y3602500D01*
X4022500D01*
Y3597500D01*
X4020000D01*
Y3590000D01*
X4017500D01*
Y3587500D01*
X4015000D01*
Y3582500D01*
X4012500D01*
Y3577500D01*
X4010000D01*
Y3575000D01*
X4007500D01*
Y3572500D01*
X4005000D01*
Y3570000D01*
X4002500D01*
Y3567500D01*
X4000000D01*
Y3565000D01*
X3997500D01*
Y3562500D01*
X3995000D01*
Y3560000D01*
X3992500D01*
Y3557500D01*
X3987500D01*
Y3555000D01*
X3982500D01*
Y3552500D01*
X3980000D01*
Y3550000D01*
X3972500D01*
Y3547500D01*
X3967500D01*
Y3545000D01*
X3957500D01*
Y3542500D01*
X2242500D01*
Y3545000D01*
X2232500D01*
Y3547500D01*
X2227500D01*
Y3550000D01*
X2220000D01*
Y3552500D01*
X2217500D01*
Y3555000D01*
X2212500D01*
Y3557500D01*
X2207500D01*
Y3560000D01*
X2205000D01*
Y3562500D01*
X2202500D01*
Y3565000D01*
X2200000D01*
Y3567500D01*
X2197500D01*
Y3570000D01*
X2195000D01*
Y3572500D01*
X2192500D01*
Y3575000D01*
X2190000D01*
Y3577500D01*
X2187500D01*
Y3582500D01*
X2185000D01*
Y3587500D01*
X2182500D01*
Y3590000D01*
X2180000D01*
Y3597500D01*
X2177500D01*
Y3602500D01*
X2175000D01*
Y3612500D01*
X2172500D01*
Y5807500D01*
X2175000D01*
Y5817500D01*
X2177500D01*
Y5822500D01*
X2180000D01*
Y5830000D01*
X2182500D01*
Y5832500D01*
X2185000D01*
Y5837500D01*
X2187500D01*
Y5842500D01*
X2190000D01*
Y5845000D01*
X2192500D01*
Y5847500D01*
X2195000D01*
Y5850000D01*
X2197500D01*
Y5852500D01*
X2200000D01*
Y5855000D01*
X2202500D01*
Y5857500D01*
X2205000D01*
Y5860000D01*
X2207500D01*
Y5862500D01*
X2212500D01*
Y5865000D01*
X2217500D01*
Y5867500D01*
X2220000D01*
Y5870000D01*
X2227500D01*
Y5872500D01*
X2232500D01*
Y5875000D01*
X2242500D01*
Y5877500D01*
X3957500D01*
Y5875000D01*
D02*
G37*
%LPC*%
G36*
X3950000Y5827500D02*
X2250000D01*
Y5825000D01*
X2242500D01*
Y5822500D01*
X2237500D01*
Y5820000D01*
X2235000D01*
Y5817500D01*
X2232500D01*
Y5815000D01*
X2230000D01*
Y5812500D01*
X2227500D01*
Y5807500D01*
X2225000D01*
Y5800000D01*
X2222500D01*
Y5790000D01*
X2220000D01*
Y3630000D01*
X2222500D01*
Y3620000D01*
X2225000D01*
Y3612500D01*
X2227500D01*
Y3607500D01*
X2230000D01*
Y3605000D01*
X2232500D01*
Y3602500D01*
X2235000D01*
Y3600000D01*
X2237500D01*
Y3597500D01*
X2242500D01*
Y3595000D01*
X2250000D01*
Y3592500D01*
X3950000D01*
Y3595000D01*
X3957500D01*
Y3597500D01*
X3962500D01*
Y3600000D01*
X3965000D01*
Y3602500D01*
X3967500D01*
Y3605000D01*
X3970000D01*
Y3607500D01*
X3972500D01*
Y3612500D01*
X3975000D01*
Y3620000D01*
X3977500D01*
Y3630000D01*
X3980000D01*
Y3632500D01*
X3977500D01*
Y3637500D01*
X3980000D01*
Y3657500D01*
Y3660000D01*
Y5782500D01*
X3977500D01*
Y5787500D01*
X3980000D01*
Y5790000D01*
X3977500D01*
Y5800000D01*
X3975000D01*
Y5807500D01*
X3972500D01*
Y5812500D01*
X3970000D01*
Y5815000D01*
X3967500D01*
Y5817500D01*
X3965000D01*
Y5820000D01*
X3962500D01*
Y5822500D01*
X3957500D01*
Y5825000D01*
X3950000D01*
Y5827500D01*
D02*
G37*
%LPD*%
G36*
X3215000Y5587500D02*
X3217500D01*
Y5270000D01*
X2972500D01*
Y5325000D01*
X2977500D01*
Y5327500D01*
X3147500D01*
Y5325000D01*
X3152500D01*
Y5327500D01*
X3157500D01*
Y5412500D01*
X3155000D01*
Y5415000D01*
X3060000D01*
Y5470000D01*
X3062500D01*
Y5472500D01*
X3157500D01*
Y5530000D01*
X3155000D01*
Y5532500D01*
X3147500D01*
Y5530000D01*
X3142500D01*
Y5532500D01*
X2985000D01*
Y5530000D01*
X2982500D01*
Y5532500D01*
X2980000D01*
Y5590000D01*
X3215000D01*
Y5587500D01*
D02*
G37*
G36*
X2907500Y5270000D02*
X2665000D01*
Y5272500D01*
X2662500D01*
Y5325000D01*
X2665000D01*
Y5327500D01*
X2670000D01*
Y5325000D01*
X2672500D01*
Y5327500D01*
X2842500D01*
Y5325000D01*
X2845000D01*
Y5327500D01*
X2847500D01*
Y5415000D01*
X2750000D01*
Y5470000D01*
X2752500D01*
Y5472500D01*
X2847500D01*
Y5532500D01*
X2670000D01*
Y5535000D01*
X2667500D01*
Y5540000D01*
X2670000D01*
Y5590000D01*
X2907500D01*
Y5270000D01*
D02*
G37*
G36*
X3532500Y5587500D02*
X3535000D01*
Y5450000D01*
Y5447500D01*
Y5270000D01*
X3475000D01*
Y5392500D01*
X3472500D01*
Y5395000D01*
X3357500D01*
Y5397500D01*
X3342500D01*
Y5400000D01*
X3337500D01*
Y5402500D01*
X3330000D01*
Y5405000D01*
X3325000D01*
Y5407500D01*
X3320000D01*
Y5410000D01*
X3315000D01*
Y5412500D01*
X3312500D01*
Y5415000D01*
X3310000D01*
Y5417500D01*
X3307500D01*
Y5420000D01*
X3305000D01*
Y5422500D01*
X3300000D01*
Y5425000D01*
X3297500D01*
Y5430000D01*
X3295000D01*
Y5432500D01*
X3292500D01*
Y5435000D01*
X3290000D01*
Y5440000D01*
X3287500D01*
Y5442500D01*
X3285000D01*
Y5447500D01*
X3282500D01*
Y5452500D01*
X3280000D01*
Y5460000D01*
X3277500D01*
Y5465000D01*
X3275000D01*
Y5477500D01*
X3272500D01*
Y5507500D01*
X3275000D01*
Y5517500D01*
X3277500D01*
Y5525000D01*
X3280000D01*
Y5532500D01*
X3282500D01*
Y5535000D01*
X3285000D01*
Y5540000D01*
X3287500D01*
Y5545000D01*
X3290000D01*
Y5547500D01*
X3292500D01*
Y5552500D01*
X3295000D01*
Y5555000D01*
X3297500D01*
Y5557500D01*
X3300000D01*
Y5560000D01*
X3302500D01*
Y5562500D01*
X3305000D01*
Y5565000D01*
X3310000D01*
Y5567500D01*
X3312500D01*
Y5570000D01*
X3317500D01*
Y5572500D01*
X3320000D01*
Y5575000D01*
X3325000D01*
Y5577500D01*
X3330000D01*
Y5580000D01*
X3335000D01*
Y5582500D01*
X3342500D01*
Y5585000D01*
X3355000D01*
Y5587500D01*
X3372500D01*
Y5590000D01*
X3532500D01*
Y5587500D01*
D02*
G37*
G36*
X2595000D02*
X2597500D01*
Y5270000D01*
X2467500D01*
Y5272500D01*
X2455000D01*
Y5275000D01*
X2445000D01*
Y5277500D01*
X2435000D01*
Y5280000D01*
X2430000D01*
Y5282500D01*
X2425000D01*
Y5285000D01*
X2420000D01*
Y5287500D01*
X2415000D01*
Y5290000D01*
X2410000D01*
Y5292500D01*
X2407500D01*
Y5295000D01*
X2402500D01*
Y5297500D01*
X2397500D01*
Y5300000D01*
X2395000D01*
Y5302500D01*
X2392500D01*
Y5305000D01*
X2390000D01*
Y5307500D01*
X2387500D01*
Y5310000D01*
X2382500D01*
Y5312500D01*
X2380000D01*
Y5315000D01*
X2377500D01*
Y5317500D01*
X2375000D01*
Y5322500D01*
X2372500D01*
Y5325000D01*
X2370000D01*
Y5327500D01*
X2367500D01*
Y5330000D01*
X2365000D01*
Y5335000D01*
X2362500D01*
Y5337500D01*
X2360000D01*
Y5342500D01*
X2357500D01*
Y5345000D01*
X2355000D01*
Y5350000D01*
X2352500D01*
Y5355000D01*
X2350000D01*
Y5360000D01*
X2347500D01*
Y5367500D01*
X2345000D01*
Y5375000D01*
X2342500D01*
Y5382500D01*
X2340000D01*
Y5397500D01*
X2337500D01*
Y5417500D01*
X2335000D01*
Y5440000D01*
X2337500D01*
Y5460000D01*
X2340000D01*
Y5475000D01*
X2342500D01*
Y5482500D01*
X2345000D01*
Y5490000D01*
X2347500D01*
Y5497500D01*
X2350000D01*
Y5502500D01*
X2352500D01*
Y5507500D01*
X2355000D01*
Y5512500D01*
X2357500D01*
Y5517500D01*
X2360000D01*
Y5520000D01*
X2362500D01*
Y5525000D01*
X2365000D01*
Y5527500D01*
X2367500D01*
Y5530000D01*
X2370000D01*
Y5532500D01*
X2372500D01*
Y5537500D01*
X2375000D01*
Y5540000D01*
X2377500D01*
Y5542500D01*
X2380000D01*
Y5545000D01*
X2382500D01*
Y5547500D01*
X2385000D01*
Y5550000D01*
X2390000D01*
Y5552500D01*
X2392500D01*
Y5555000D01*
X2395000D01*
Y5557500D01*
X2400000D01*
Y5560000D01*
X2402500D01*
Y5562500D01*
X2405000D01*
Y5565000D01*
X2410000D01*
Y5567500D01*
X2412500D01*
Y5570000D01*
X2420000D01*
Y5572500D01*
X2425000D01*
Y5575000D01*
X2430000D01*
Y5577500D01*
X2437500D01*
Y5580000D01*
X2442500D01*
Y5582500D01*
X2452500D01*
Y5585000D01*
X2465000D01*
Y5587500D01*
X2482500D01*
Y5590000D01*
X2595000D01*
Y5587500D01*
D02*
G37*
G36*
X3752500Y5590000D02*
X3772500D01*
Y5587500D01*
X3780000D01*
Y5585000D01*
X3787500D01*
Y5582500D01*
X3795000D01*
Y5580000D01*
X3800000D01*
Y5577500D01*
X3805000D01*
Y5575000D01*
X3807500D01*
Y5572500D01*
X3812500D01*
Y5570000D01*
X3815000D01*
Y5567500D01*
X3820000D01*
Y5565000D01*
X3822500D01*
Y5562500D01*
X3825000D01*
Y5560000D01*
X3827500D01*
Y5557500D01*
X3830000D01*
Y5552500D01*
X3832500D01*
Y5550000D01*
X3835000D01*
Y5547500D01*
X3837500D01*
Y5542500D01*
X3840000D01*
Y5537500D01*
X3842500D01*
Y5532500D01*
X3845000D01*
Y5525000D01*
X3847500D01*
Y5482500D01*
X3845000D01*
Y5475000D01*
X3842500D01*
Y5470000D01*
X3840000D01*
Y5462500D01*
X3837500D01*
Y5460000D01*
X3835000D01*
Y5457500D01*
X3832500D01*
Y5452500D01*
X3830000D01*
Y5450000D01*
X3827500D01*
Y5447500D01*
X3825000D01*
Y5445000D01*
X3822500D01*
Y5442500D01*
X3817500D01*
Y5440000D01*
X3815000D01*
Y5437500D01*
X3812500D01*
Y5435000D01*
X3807500D01*
Y5432500D01*
X3805000D01*
Y5430000D01*
X3797500D01*
Y5427500D01*
X3792500D01*
Y5425000D01*
X3782500D01*
Y5422500D01*
X3772500D01*
Y5420000D01*
X3765000D01*
Y5417500D01*
X3755000D01*
Y5415000D01*
X3747500D01*
Y5412500D01*
X3737500D01*
Y5410000D01*
X3725000D01*
Y5407500D01*
X3720000D01*
Y5405000D01*
X3707500D01*
Y5402500D01*
X3697500D01*
Y5400000D01*
X3692500D01*
Y5397500D01*
X3685000D01*
Y5395000D01*
X3677500D01*
Y5392500D01*
X3675000D01*
Y5390000D01*
X3670000D01*
Y5387500D01*
X3667500D01*
Y5385000D01*
X3665000D01*
Y5382500D01*
X3662500D01*
Y5377500D01*
X3660000D01*
Y5370000D01*
X3657500D01*
Y5365000D01*
X3660000D01*
Y5362500D01*
X3657500D01*
Y5360000D01*
X3660000D01*
Y5352500D01*
X3662500D01*
Y5347500D01*
X3665000D01*
Y5345000D01*
X3667500D01*
Y5342500D01*
X3670000D01*
Y5340000D01*
X3672500D01*
Y5337500D01*
X3675000D01*
Y5335000D01*
X3680000D01*
Y5332500D01*
X3685000D01*
Y5330000D01*
X3692500D01*
Y5327500D01*
X3700000D01*
Y5325000D01*
X3717500D01*
Y5322500D01*
X3742500D01*
Y5325000D01*
X3760000D01*
Y5327500D01*
X3767500D01*
Y5330000D01*
X3775000D01*
Y5332500D01*
X3780000D01*
Y5335000D01*
X3785000D01*
Y5337500D01*
X3790000D01*
Y5340000D01*
X3792500D01*
Y5342500D01*
X3795000D01*
Y5345000D01*
X3800000D01*
Y5347500D01*
X3802500D01*
Y5350000D01*
X3805000D01*
Y5352500D01*
X3807500D01*
Y5355000D01*
X3810000D01*
Y5357500D01*
X3812500D01*
Y5360000D01*
X3815000D01*
Y5362500D01*
X3820000D01*
Y5360000D01*
X3822500D01*
Y5357500D01*
X3825000D01*
Y5355000D01*
X3830000D01*
Y5352500D01*
X3832500D01*
Y5350000D01*
X3835000D01*
Y5347500D01*
X3840000D01*
Y5345000D01*
X3842500D01*
Y5342500D01*
X3845000D01*
Y5340000D01*
X3850000D01*
Y5337500D01*
X3852500D01*
Y5335000D01*
X3855000D01*
Y5332500D01*
X3857500D01*
Y5330000D01*
X3862500D01*
Y5325000D01*
X3860000D01*
Y5322500D01*
X3857500D01*
Y5320000D01*
X3855000D01*
Y5317500D01*
X3852500D01*
Y5315000D01*
X3850000D01*
Y5312500D01*
X3847500D01*
Y5310000D01*
X3845000D01*
Y5307500D01*
X3842500D01*
Y5305000D01*
X3840000D01*
Y5302500D01*
X3835000D01*
Y5300000D01*
X3832500D01*
Y5297500D01*
X3830000D01*
Y5295000D01*
X3825000D01*
Y5292500D01*
X3822500D01*
Y5290000D01*
X3817500D01*
Y5287500D01*
X3815000D01*
Y5285000D01*
X3810000D01*
Y5282500D01*
X3802500D01*
Y5280000D01*
X3797500D01*
Y5277500D01*
X3790000D01*
Y5275000D01*
X3782500D01*
Y5272500D01*
X3775000D01*
Y5270000D01*
X3760000D01*
Y5267500D01*
X3740000D01*
Y5265000D01*
X3717500D01*
Y5267500D01*
X3697500D01*
Y5270000D01*
X3685000D01*
Y5272500D01*
X3677500D01*
Y5275000D01*
X3670000D01*
Y5277500D01*
X3662500D01*
Y5280000D01*
X3657500D01*
Y5282500D01*
X3652500D01*
Y5285000D01*
X3647500D01*
Y5287500D01*
X3642500D01*
Y5290000D01*
X3640000D01*
Y5292500D01*
X3635000D01*
Y5295000D01*
X3632500D01*
Y5297500D01*
X3630000D01*
Y5300000D01*
X3627500D01*
Y5302500D01*
X3625000D01*
Y5305000D01*
X3622500D01*
Y5307500D01*
X3620000D01*
Y5310000D01*
X3617500D01*
Y5312500D01*
X3615000D01*
Y5315000D01*
X3612500D01*
Y5320000D01*
X3610000D01*
Y5322500D01*
X3607500D01*
Y5330000D01*
X3605000D01*
Y5335000D01*
X3602500D01*
Y5345000D01*
X3600000D01*
Y5380000D01*
X3602500D01*
Y5390000D01*
X3605000D01*
Y5397500D01*
X3607500D01*
Y5402500D01*
X3610000D01*
Y5407500D01*
X3612500D01*
Y5412500D01*
X3615000D01*
Y5415000D01*
X3617500D01*
Y5417500D01*
X3620000D01*
Y5422500D01*
X3622500D01*
Y5425000D01*
X3625000D01*
Y5427500D01*
X3627500D01*
Y5430000D01*
X3630000D01*
Y5432500D01*
X3635000D01*
Y5435000D01*
X3637500D01*
Y5437500D01*
X3642500D01*
Y5440000D01*
X3645000D01*
Y5442500D01*
X3652500D01*
Y5445000D01*
X3657500D01*
Y5447500D01*
X3662500D01*
Y5450000D01*
X3670000D01*
Y5452500D01*
X3677500D01*
Y5455000D01*
X3685000D01*
Y5457500D01*
X3697500D01*
Y5460000D01*
X3702500D01*
Y5462500D01*
X3715000D01*
Y5465000D01*
X3727500D01*
Y5467500D01*
X3737500D01*
Y5470000D01*
X3750000D01*
Y5472500D01*
X3757500D01*
Y5475000D01*
X3765000D01*
Y5477500D01*
X3772500D01*
Y5480000D01*
X3775000D01*
Y5482500D01*
X3780000D01*
Y5485000D01*
X3782500D01*
Y5487500D01*
X3785000D01*
Y5490000D01*
X3787500D01*
Y5515000D01*
X3785000D01*
Y5520000D01*
X3782500D01*
Y5522500D01*
X3780000D01*
Y5525000D01*
X3777500D01*
Y5527500D01*
X3772500D01*
Y5530000D01*
X3767500D01*
Y5532500D01*
X3760000D01*
Y5535000D01*
X3740000D01*
Y5537500D01*
X3732500D01*
Y5535000D01*
X3710000D01*
Y5532500D01*
X3702500D01*
Y5530000D01*
X3692500D01*
Y5527500D01*
X3687500D01*
Y5525000D01*
X3682500D01*
Y5522500D01*
X3677500D01*
Y5520000D01*
X3675000D01*
Y5517500D01*
X3672500D01*
Y5515000D01*
X3667500D01*
Y5512500D01*
X3665000D01*
Y5510000D01*
X3662500D01*
Y5507500D01*
X3660000D01*
Y5505000D01*
X3657500D01*
Y5507500D01*
X3655000D01*
Y5510000D01*
X3650000D01*
Y5512500D01*
X3647500D01*
Y5515000D01*
X3645000D01*
Y5517500D01*
X3642500D01*
Y5520000D01*
X3640000D01*
Y5522500D01*
X3637500D01*
Y5525000D01*
X3635000D01*
Y5527500D01*
X3630000D01*
Y5530000D01*
X3627500D01*
Y5532500D01*
X3625000D01*
Y5535000D01*
X3622500D01*
Y5537500D01*
X3620000D01*
Y5540000D01*
X3617500D01*
Y5547500D01*
X3620000D01*
Y5550000D01*
X3622500D01*
Y5552500D01*
X3625000D01*
Y5555000D01*
X3630000D01*
Y5557500D01*
X3632500D01*
Y5560000D01*
X3635000D01*
Y5562500D01*
X3640000D01*
Y5565000D01*
X3642500D01*
Y5567500D01*
X3647500D01*
Y5570000D01*
X3652500D01*
Y5572500D01*
X3655000D01*
Y5575000D01*
X3660000D01*
Y5577500D01*
X3667500D01*
Y5580000D01*
X3672500D01*
Y5582500D01*
X3680000D01*
Y5585000D01*
X3690000D01*
Y5587500D01*
X3697500D01*
Y5590000D01*
X3720000D01*
Y5592500D01*
X3752500D01*
Y5590000D01*
D02*
G37*
G36*
X3250000Y4790000D02*
X3195000D01*
Y4792500D01*
X3192500D01*
Y4795000D01*
X3195000D01*
Y4800000D01*
X3192500D01*
Y4917500D01*
X3195000D01*
Y4920000D01*
X3192500D01*
Y4927500D01*
X3195000D01*
Y4937500D01*
X3192500D01*
Y4950000D01*
X3195000D01*
Y4957500D01*
X3192500D01*
Y4967500D01*
X3195000D01*
Y4972500D01*
X3192500D01*
Y4977500D01*
X3190000D01*
Y4975000D01*
X3187500D01*
Y4967500D01*
X3185000D01*
Y4962500D01*
X3182500D01*
Y4960000D01*
X3180000D01*
Y4952500D01*
X3177500D01*
Y4950000D01*
X3175000D01*
Y4942500D01*
X3172500D01*
Y4937500D01*
X3170000D01*
Y4932500D01*
X3167500D01*
Y4927500D01*
X3165000D01*
Y4920000D01*
X3162500D01*
Y4917500D01*
X3160000D01*
Y4910000D01*
X3157500D01*
Y4905000D01*
X3155000D01*
Y4902500D01*
X3152500D01*
Y4895000D01*
X3150000D01*
Y4890000D01*
X3147500D01*
Y4885000D01*
X3145000D01*
Y4880000D01*
X3142500D01*
Y4875000D01*
X3140000D01*
Y4870000D01*
X3137500D01*
Y4865000D01*
X3135000D01*
Y4860000D01*
X3132500D01*
Y4852500D01*
X3130000D01*
Y4850000D01*
X3127500D01*
Y4842500D01*
X3125000D01*
Y4837500D01*
X3122500D01*
Y4832500D01*
X3120000D01*
Y4827500D01*
X3117500D01*
Y4822500D01*
X3115000D01*
Y4817500D01*
X3112500D01*
Y4810000D01*
X3110000D01*
Y4807500D01*
X3107500D01*
Y4800000D01*
X3105000D01*
Y4795000D01*
X3102500D01*
Y4792500D01*
X3100000D01*
Y4795000D01*
X3097500D01*
Y4800000D01*
X3095000D01*
Y4805000D01*
X3092500D01*
Y4810000D01*
X3090000D01*
Y4815000D01*
X3087500D01*
Y4820000D01*
X3085000D01*
Y4825000D01*
X3082500D01*
Y4830000D01*
X3080000D01*
Y4837500D01*
X3077500D01*
Y4840000D01*
X3075000D01*
Y4845000D01*
X3072500D01*
Y4852500D01*
X3070000D01*
Y4855000D01*
X3067500D01*
Y4862500D01*
X3065000D01*
Y4867500D01*
X3062500D01*
Y4872500D01*
X3060000D01*
Y4877500D01*
X3057500D01*
Y4882500D01*
X3055000D01*
Y4887500D01*
X3052500D01*
Y4892500D01*
X3050000D01*
Y4897500D01*
X3047500D01*
Y4902500D01*
X3045000D01*
Y4910000D01*
X3042500D01*
Y4912500D01*
X3040000D01*
Y4920000D01*
X3037500D01*
Y4925000D01*
X3035000D01*
Y4930000D01*
X3032500D01*
Y4935000D01*
X3030000D01*
Y4940000D01*
X3027500D01*
Y4945000D01*
X3025000D01*
Y4950000D01*
X3022500D01*
Y4955000D01*
X3020000D01*
Y4960000D01*
X3017500D01*
Y4965000D01*
X3015000D01*
Y4970000D01*
X3012500D01*
Y4977500D01*
X3007500D01*
Y4790000D01*
X2952500D01*
Y4792500D01*
X2950000D01*
Y5107500D01*
X2952500D01*
Y5110000D01*
X3007500D01*
Y5105000D01*
X3010000D01*
Y5102500D01*
X3012500D01*
Y5095000D01*
X3015000D01*
Y5090000D01*
X3017500D01*
Y5085000D01*
X3020000D01*
Y5080000D01*
X3022500D01*
Y5075000D01*
X3025000D01*
Y5070000D01*
X3027500D01*
Y5065000D01*
X3030000D01*
Y5060000D01*
X3032500D01*
Y5055000D01*
X3035000D01*
Y5050000D01*
X3037500D01*
Y5045000D01*
X3040000D01*
Y5040000D01*
X3042500D01*
Y5035000D01*
X3045000D01*
Y5030000D01*
X3047500D01*
Y5025000D01*
X3050000D01*
Y5020000D01*
X3052500D01*
Y5015000D01*
X3055000D01*
Y5010000D01*
X3057500D01*
Y5005000D01*
X3060000D01*
Y5000000D01*
X3062500D01*
Y4995000D01*
X3065000D01*
Y4990000D01*
X3067500D01*
Y4982500D01*
X3070000D01*
Y4980000D01*
X3072500D01*
Y4975000D01*
X3075000D01*
Y4970000D01*
X3077500D01*
Y4965000D01*
X3080000D01*
Y4960000D01*
X3082500D01*
Y4955000D01*
X3085000D01*
Y4950000D01*
X3087500D01*
Y4942500D01*
X3090000D01*
Y4940000D01*
X3092500D01*
Y4935000D01*
X3095000D01*
Y4930000D01*
X3097500D01*
Y4925000D01*
X3100000D01*
Y4922500D01*
X3102500D01*
Y4925000D01*
X3105000D01*
Y4930000D01*
X3107500D01*
Y4937500D01*
X3110000D01*
Y4940000D01*
X3112500D01*
Y4947500D01*
X3115000D01*
Y4952500D01*
X3117500D01*
Y4955000D01*
X3120000D01*
Y4962500D01*
X3122500D01*
Y4967500D01*
X3125000D01*
Y4972500D01*
X3127500D01*
Y4977500D01*
X3130000D01*
Y4982500D01*
X3132500D01*
Y4987500D01*
X3135000D01*
Y4992500D01*
X3137500D01*
Y4997500D01*
X3140000D01*
Y5002500D01*
X3142500D01*
Y5007500D01*
X3145000D01*
Y5012500D01*
X3147500D01*
Y5017500D01*
X3150000D01*
Y5022500D01*
X3152500D01*
Y5027500D01*
X3155000D01*
Y5032500D01*
X3157500D01*
Y5037500D01*
X3160000D01*
Y5045000D01*
X3162500D01*
Y5047500D01*
X3165000D01*
Y5052500D01*
X3167500D01*
Y5060000D01*
X3170000D01*
Y5062500D01*
X3172500D01*
Y5067500D01*
X3175000D01*
Y5075000D01*
X3177500D01*
Y5077500D01*
X3180000D01*
Y5085000D01*
X3182500D01*
Y5087500D01*
X3185000D01*
Y5095000D01*
X3187500D01*
Y5100000D01*
X3190000D01*
Y5102500D01*
X3192500D01*
Y5110000D01*
X3250000D01*
Y4790000D01*
D02*
G37*
G36*
X3682500Y5107500D02*
X3685000D01*
Y4792500D01*
X3682500D01*
Y4790000D01*
X3445000D01*
Y4837500D01*
X3452500D01*
Y4840000D01*
X3627500D01*
Y5070000D01*
Y5072500D01*
Y5110000D01*
X3682500D01*
Y5107500D01*
D02*
G37*
G36*
X3390000Y4790000D02*
X3332500D01*
Y4817500D01*
Y4820000D01*
Y5107500D01*
X3335000D01*
Y5110000D01*
X3390000D01*
Y4790000D01*
D02*
G37*
G36*
X2867500D02*
X2810000D01*
Y5032500D01*
Y5035000D01*
Y5110000D01*
X2867500D01*
Y4790000D01*
D02*
G37*
G36*
X2755000Y5052500D02*
X2665000D01*
Y4880000D01*
Y4877500D01*
Y4792500D01*
X2662500D01*
Y4790000D01*
X2607500D01*
Y5052500D01*
X2517500D01*
Y5055000D01*
X2515000D01*
Y5107500D01*
X2517500D01*
Y5110000D01*
X2755000D01*
Y5052500D01*
D02*
G37*
G36*
X2715000Y4605000D02*
X2712500D01*
Y4592500D01*
X2710000D01*
Y4590000D01*
X2707500D01*
Y4580000D01*
X2705000D01*
Y4570000D01*
X2702500D01*
Y4565000D01*
X2700000D01*
Y4555000D01*
X2697500D01*
Y4545000D01*
X2695000D01*
Y4540000D01*
X2692500D01*
Y4527500D01*
X2690000D01*
Y4522500D01*
X2687500D01*
Y4515000D01*
X2685000D01*
Y4502500D01*
X2682500D01*
Y4497500D01*
X2680000D01*
Y4490000D01*
X2677500D01*
Y4480000D01*
X2675000D01*
Y4472500D01*
X2672500D01*
Y4465000D01*
X2670000D01*
Y4457500D01*
X2667500D01*
Y4447500D01*
X2665000D01*
Y4440000D01*
X2662500D01*
Y4432500D01*
X2660000D01*
Y4422500D01*
X2657500D01*
Y4415000D01*
X2655000D01*
Y4407500D01*
X2652500D01*
Y4397500D01*
X2650000D01*
Y4390000D01*
X2647500D01*
Y4382500D01*
X2645000D01*
Y4372500D01*
X2642500D01*
Y4365000D01*
X2640000D01*
Y4357500D01*
X2637500D01*
Y4347500D01*
X2635000D01*
Y4340000D01*
X2632500D01*
Y4332500D01*
X2630000D01*
Y4325000D01*
X2627500D01*
Y4315000D01*
X2625000D01*
Y4307500D01*
X2622500D01*
Y4300000D01*
X2620000D01*
Y4290000D01*
X2617500D01*
Y4285000D01*
X2615000D01*
Y4275000D01*
X2612500D01*
Y4265000D01*
X2610000D01*
Y4260000D01*
X2607500D01*
Y4257500D01*
X2545000D01*
Y4267500D01*
X2542500D01*
Y4272500D01*
X2540000D01*
Y4282500D01*
X2537500D01*
Y4290000D01*
X2535000D01*
Y4297500D01*
X2532500D01*
Y4307500D01*
X2530000D01*
Y4312500D01*
X2527500D01*
Y4322500D01*
X2525000D01*
Y4330000D01*
X2522500D01*
Y4337500D01*
X2520000D01*
Y4347500D01*
X2517500D01*
Y4355000D01*
X2515000D01*
Y4362500D01*
X2512500D01*
Y4372500D01*
X2510000D01*
Y4380000D01*
X2507500D01*
Y4387500D01*
X2505000D01*
Y4397500D01*
X2502500D01*
Y4402500D01*
X2500000D01*
Y4412500D01*
X2497500D01*
Y4417500D01*
X2495000D01*
Y4427500D01*
X2492500D01*
Y4437500D01*
X2490000D01*
Y4442500D01*
X2487500D01*
Y4452500D01*
X2485000D01*
Y4462500D01*
X2482500D01*
Y4467500D01*
X2480000D01*
Y4477500D01*
X2477500D01*
Y4485000D01*
X2475000D01*
Y4492500D01*
X2472500D01*
Y4502500D01*
X2470000D01*
Y4507500D01*
X2467500D01*
Y4517500D01*
X2465000D01*
Y4527500D01*
X2462500D01*
Y4532500D01*
X2460000D01*
Y4542500D01*
X2457500D01*
Y4550000D01*
X2455000D01*
Y4557500D01*
X2452500D01*
Y4567500D01*
X2450000D01*
Y4572500D01*
X2447500D01*
Y4582500D01*
X2445000D01*
Y4590000D01*
X2442500D01*
Y4597500D01*
X2440000D01*
Y4610000D01*
X2510000D01*
Y4605000D01*
X2512500D01*
Y4592500D01*
X2515000D01*
Y4587500D01*
X2517500D01*
Y4580000D01*
X2520000D01*
Y4570000D01*
X2522500D01*
Y4565000D01*
X2525000D01*
Y4555000D01*
X2527500D01*
Y4545000D01*
X2530000D01*
Y4540000D01*
X2532500D01*
Y4530000D01*
X2535000D01*
Y4522500D01*
X2537500D01*
Y4515000D01*
X2540000D01*
Y4505000D01*
X2542500D01*
Y4500000D01*
X2545000D01*
Y4492500D01*
X2547500D01*
Y4482500D01*
X2550000D01*
Y4475000D01*
X2552500D01*
Y4467500D01*
X2555000D01*
Y4460000D01*
X2557500D01*
Y4450000D01*
X2560000D01*
Y4442500D01*
X2562500D01*
Y4437500D01*
X2565000D01*
Y4427500D01*
X2567500D01*
Y4420000D01*
X2570000D01*
Y4412500D01*
X2572500D01*
Y4405000D01*
X2575000D01*
Y4402500D01*
X2580000D01*
Y4407500D01*
X2582500D01*
Y4417500D01*
X2585000D01*
Y4425000D01*
X2587500D01*
Y4432500D01*
X2590000D01*
Y4440000D01*
X2592500D01*
Y4447500D01*
X2595000D01*
Y4455000D01*
X2597500D01*
Y4462500D01*
X2600000D01*
Y4472500D01*
X2602500D01*
Y4480000D01*
X2605000D01*
Y4487500D01*
X2607500D01*
Y4495000D01*
X2610000D01*
Y4502500D01*
X2612500D01*
Y4510000D01*
X2615000D01*
Y4520000D01*
X2617500D01*
Y4525000D01*
X2620000D01*
Y4535000D01*
X2622500D01*
Y4540000D01*
X2625000D01*
Y4547500D01*
X2627500D01*
Y4560000D01*
X2630000D01*
Y4565000D01*
X2632500D01*
Y4572500D01*
X2635000D01*
Y4582500D01*
X2637500D01*
Y4587500D01*
X2640000D01*
Y4597500D01*
X2642500D01*
Y4605000D01*
X2645000D01*
Y4610000D01*
X2715000D01*
Y4605000D01*
D02*
G37*
G36*
X2780000Y4215000D02*
X2787500D01*
Y4210000D01*
X2792500D01*
Y4202500D01*
X2795000D01*
Y4197500D01*
X2792500D01*
Y4190000D01*
X2787500D01*
Y4185000D01*
X2780000D01*
Y4182500D01*
X2352500D01*
Y4185000D01*
X2342500D01*
Y4187500D01*
X2340000D01*
Y4190000D01*
X2337500D01*
Y4192500D01*
X2335000D01*
Y4207500D01*
X2337500D01*
Y4210000D01*
X2340000D01*
Y4212500D01*
X2342500D01*
Y4215000D01*
X2352500D01*
Y4217500D01*
X2780000D01*
Y4215000D01*
D02*
G37*
G36*
X3782500Y4430000D02*
X3785000D01*
Y4425000D01*
X3787500D01*
Y4422500D01*
X3792500D01*
Y4417500D01*
X3797500D01*
Y4415000D01*
X3800000D01*
Y4412500D01*
X3805000D01*
Y4410000D01*
X3810000D01*
Y4407500D01*
X3815000D01*
Y4405000D01*
X3825000D01*
Y4402500D01*
X3837500D01*
Y4400000D01*
X3840000D01*
Y4345000D01*
X3837500D01*
Y4342500D01*
X3800000D01*
Y4340000D01*
X3797500D01*
Y4270000D01*
Y4267500D01*
Y3990000D01*
X3712500D01*
Y4432500D01*
X3782500D01*
Y4430000D01*
D02*
G37*
G36*
X3495000Y4435000D02*
X3515000D01*
Y4432500D01*
X3522500D01*
Y4430000D01*
X3535000D01*
Y4427500D01*
X3540000D01*
Y4425000D01*
X3545000D01*
Y4422500D01*
X3552500D01*
Y4420000D01*
X3555000D01*
Y4417500D01*
X3560000D01*
Y4415000D01*
X3565000D01*
Y4412500D01*
X3567500D01*
Y4410000D01*
X3570000D01*
Y4407500D01*
X3575000D01*
Y4405000D01*
X3577500D01*
Y4402500D01*
X3580000D01*
Y4400000D01*
X3582500D01*
Y4397500D01*
X3585000D01*
Y4395000D01*
X3587500D01*
Y4392500D01*
X3590000D01*
Y4390000D01*
X3592500D01*
Y4387500D01*
X3595000D01*
Y4385000D01*
X3597500D01*
Y4380000D01*
X3600000D01*
Y4375000D01*
X3602500D01*
Y4372500D01*
X3605000D01*
Y4370000D01*
X3607500D01*
Y4365000D01*
X3610000D01*
Y4362500D01*
X3612500D01*
Y4355000D01*
X3615000D01*
Y4352500D01*
X3617500D01*
Y4347500D01*
X3620000D01*
Y4337500D01*
X3622500D01*
Y4335000D01*
X3625000D01*
Y4327500D01*
X3627500D01*
Y4317500D01*
X3630000D01*
Y4312500D01*
X3632500D01*
Y4302500D01*
X3635000D01*
Y4292500D01*
X3637500D01*
Y4290000D01*
X3635000D01*
Y4285000D01*
X3637500D01*
Y4280000D01*
X3640000D01*
Y4252500D01*
X3642500D01*
Y4250000D01*
X3640000D01*
Y4247500D01*
X3642500D01*
Y4217500D01*
X3645000D01*
Y4200000D01*
X3642500D01*
Y4165000D01*
X3640000D01*
Y4142500D01*
X3637500D01*
Y4127500D01*
X3635000D01*
Y4115000D01*
X3632500D01*
Y4105000D01*
X3630000D01*
Y4097500D01*
X3627500D01*
Y4087500D01*
X3625000D01*
Y4082500D01*
X3622500D01*
Y4075000D01*
X3620000D01*
Y4070000D01*
X3617500D01*
Y4065000D01*
X3615000D01*
Y4060000D01*
X3612500D01*
Y4055000D01*
X3610000D01*
Y4050000D01*
X3607500D01*
Y4047500D01*
X3605000D01*
Y4042500D01*
X3602500D01*
Y4040000D01*
X3600000D01*
Y4037500D01*
X3597500D01*
Y4032500D01*
X3595000D01*
Y4030000D01*
X3592500D01*
Y4027500D01*
X3590000D01*
Y4025000D01*
X3587500D01*
Y4022500D01*
X3585000D01*
Y4020000D01*
X3582500D01*
Y4017500D01*
X3580000D01*
Y4015000D01*
X3577500D01*
Y4012500D01*
X3575000D01*
Y4010000D01*
X3570000D01*
Y4007500D01*
X3567500D01*
Y4005000D01*
X3562500D01*
Y4002500D01*
X3560000D01*
Y4000000D01*
X3555000D01*
Y3997500D01*
X3550000D01*
Y3995000D01*
X3545000D01*
Y3992500D01*
X3540000D01*
Y3990000D01*
X3530000D01*
Y3987500D01*
X3525000D01*
Y3985000D01*
X3507500D01*
Y3982500D01*
X3440000D01*
Y3985000D01*
X3425000D01*
Y3987500D01*
X3420000D01*
Y3990000D01*
X3410000D01*
Y3992500D01*
X3405000D01*
Y3995000D01*
X3397500D01*
Y3997500D01*
X3392500D01*
Y4000000D01*
X3390000D01*
Y4002500D01*
X3385000D01*
Y4005000D01*
X3380000D01*
Y4007500D01*
X3377500D01*
Y4010000D01*
X3375000D01*
Y4012500D01*
X3370000D01*
Y4015000D01*
X3367500D01*
Y4017500D01*
X3365000D01*
Y4020000D01*
X3362500D01*
Y4022500D01*
X3360000D01*
Y4025000D01*
X3357500D01*
Y4027500D01*
X3355000D01*
Y4030000D01*
X3352500D01*
Y4035000D01*
X3350000D01*
Y4037500D01*
X3347500D01*
Y4042500D01*
X3345000D01*
Y4045000D01*
X3342500D01*
Y4050000D01*
X3340000D01*
Y4055000D01*
X3337500D01*
Y4057500D01*
X3335000D01*
Y4062500D01*
X3332500D01*
Y4067500D01*
X3330000D01*
Y4072500D01*
X3327500D01*
Y4080000D01*
X3325000D01*
Y4087500D01*
X3322500D01*
Y4092500D01*
X3320000D01*
Y4105000D01*
X3317500D01*
Y4112500D01*
X3315000D01*
Y4125000D01*
X3312500D01*
Y4137500D01*
X3310000D01*
Y4152500D01*
X3307500D01*
Y4200000D01*
X3305000D01*
Y4217500D01*
X3307500D01*
Y4262500D01*
X3310000D01*
Y4277500D01*
X3312500D01*
Y4280000D01*
Y4282500D01*
Y4292500D01*
X3315000D01*
Y4302500D01*
X3317500D01*
Y4312500D01*
X3320000D01*
Y4322500D01*
X3322500D01*
Y4330000D01*
X3325000D01*
Y4335000D01*
X3327500D01*
Y4342500D01*
X3330000D01*
Y4347500D01*
X3332500D01*
Y4352500D01*
X3335000D01*
Y4357500D01*
X3337500D01*
Y4362500D01*
X3340000D01*
Y4367500D01*
X3342500D01*
Y4370000D01*
X3345000D01*
Y4375000D01*
X3347500D01*
Y4377500D01*
X3350000D01*
Y4380000D01*
X3352500D01*
Y4385000D01*
X3355000D01*
Y4387500D01*
X3357500D01*
Y4390000D01*
X3360000D01*
Y4392500D01*
X3362500D01*
Y4397500D01*
X3365000D01*
Y4400000D01*
X3370000D01*
Y4402500D01*
X3372500D01*
Y4405000D01*
X3375000D01*
Y4407500D01*
X3377500D01*
Y4410000D01*
X3380000D01*
Y4412500D01*
X3385000D01*
Y4415000D01*
X3387500D01*
Y4417500D01*
X3392500D01*
Y4420000D01*
X3397500D01*
Y4422500D01*
X3402500D01*
Y4425000D01*
X3410000D01*
Y4427500D01*
X3415000D01*
Y4430000D01*
X3425000D01*
Y4432500D01*
X3432500D01*
Y4435000D01*
X3457500D01*
Y4437500D01*
X3495000D01*
Y4435000D01*
D02*
G37*
G36*
X3115000D02*
X3135000D01*
Y4432500D01*
X3142500D01*
Y4430000D01*
X3155000D01*
Y4427500D01*
X3160000D01*
Y4425000D01*
X3165000D01*
Y4422500D01*
X3172500D01*
Y4420000D01*
X3175000D01*
Y4417500D01*
X3180000D01*
Y4415000D01*
X3185000D01*
Y4412500D01*
X3187500D01*
Y4410000D01*
X3190000D01*
Y4407500D01*
X3195000D01*
Y4405000D01*
X3197500D01*
Y4402500D01*
X3200000D01*
Y4400000D01*
X3202500D01*
Y4397500D01*
X3205000D01*
Y4395000D01*
X3207500D01*
Y4392500D01*
X3210000D01*
Y4390000D01*
X3212500D01*
Y4387500D01*
X3215000D01*
Y4385000D01*
X3217500D01*
Y4380000D01*
X3220000D01*
Y4375000D01*
X3222500D01*
Y4372500D01*
X3225000D01*
Y4370000D01*
X3227500D01*
Y4365000D01*
X3230000D01*
Y4362500D01*
X3232500D01*
Y4355000D01*
X3235000D01*
Y4352500D01*
X3237500D01*
Y4345000D01*
X3240000D01*
Y4337500D01*
X3242500D01*
Y4335000D01*
X3245000D01*
Y4327500D01*
X3247500D01*
Y4317500D01*
X3250000D01*
Y4312500D01*
X3252500D01*
Y4300000D01*
X3255000D01*
Y4292500D01*
X3257500D01*
Y4290000D01*
X3255000D01*
Y4285000D01*
X3257500D01*
Y4280000D01*
X3260000D01*
Y4252500D01*
X3262500D01*
Y4217500D01*
X3265000D01*
Y4200000D01*
X3262500D01*
Y4162500D01*
X3260000D01*
Y4142500D01*
X3257500D01*
Y4127500D01*
X3255000D01*
Y4115000D01*
X3252500D01*
Y4105000D01*
X3250000D01*
Y4097500D01*
X3247500D01*
Y4087500D01*
X3245000D01*
Y4082500D01*
X3242500D01*
Y4075000D01*
X3240000D01*
Y4070000D01*
X3237500D01*
Y4065000D01*
X3235000D01*
Y4060000D01*
X3232500D01*
Y4055000D01*
X3230000D01*
Y4050000D01*
X3227500D01*
Y4047500D01*
X3225000D01*
Y4042500D01*
X3222500D01*
Y4040000D01*
X3220000D01*
Y4037500D01*
X3217500D01*
Y4032500D01*
X3215000D01*
Y4030000D01*
X3212500D01*
Y4027500D01*
X3210000D01*
Y4025000D01*
X3207500D01*
Y4022500D01*
X3205000D01*
Y4020000D01*
X3202500D01*
Y4017500D01*
X3200000D01*
Y4015000D01*
X3197500D01*
Y4012500D01*
X3195000D01*
Y4010000D01*
X3190000D01*
Y4007500D01*
X3187500D01*
Y4005000D01*
X3182500D01*
Y4002500D01*
X3180000D01*
Y4000000D01*
X3175000D01*
Y3997500D01*
X3170000D01*
Y3995000D01*
X3165000D01*
Y3992500D01*
X3160000D01*
Y3990000D01*
X3150000D01*
Y3987500D01*
X3145000D01*
Y3985000D01*
X3127500D01*
Y3982500D01*
X3060000D01*
Y3985000D01*
X3045000D01*
Y3987500D01*
X3040000D01*
Y3990000D01*
X3030000D01*
Y3992500D01*
X3025000D01*
Y3995000D01*
X3020000D01*
Y3997500D01*
X3012500D01*
Y4000000D01*
X3010000D01*
Y4002500D01*
X3005000D01*
Y4005000D01*
X3000000D01*
Y4007500D01*
X2997500D01*
Y4010000D01*
X2995000D01*
Y4012500D01*
X2990000D01*
Y4015000D01*
X2987500D01*
Y4017500D01*
X2985000D01*
Y4020000D01*
X2982500D01*
Y4022500D01*
X2980000D01*
Y4025000D01*
X2977500D01*
Y4027500D01*
X2975000D01*
Y4030000D01*
X2972500D01*
Y4035000D01*
X2970000D01*
Y4037500D01*
X2967500D01*
Y4042500D01*
X2965000D01*
Y4045000D01*
X2962500D01*
Y4050000D01*
X2960000D01*
Y4055000D01*
X2957500D01*
Y4057500D01*
X2955000D01*
Y4062500D01*
X2952500D01*
Y4067500D01*
X2950000D01*
Y4072500D01*
X2947500D01*
Y4080000D01*
X2945000D01*
Y4087500D01*
X2942500D01*
Y4092500D01*
X2940000D01*
Y4105000D01*
X2937500D01*
Y4112500D01*
X2935000D01*
Y4125000D01*
X2932500D01*
Y4137500D01*
X2930000D01*
Y4150000D01*
Y4152500D01*
X2927500D01*
Y4200000D01*
X2925000D01*
Y4217500D01*
X2927500D01*
Y4262500D01*
X2930000D01*
Y4277500D01*
X2932500D01*
Y4292500D01*
X2935000D01*
Y4302500D01*
X2937500D01*
Y4312500D01*
X2940000D01*
Y4322500D01*
X2942500D01*
Y4330000D01*
X2945000D01*
Y4335000D01*
X2947500D01*
Y4342500D01*
X2950000D01*
Y4347500D01*
X2952500D01*
Y4352500D01*
X2955000D01*
Y4357500D01*
X2957500D01*
Y4362500D01*
X2960000D01*
Y4367500D01*
X2962500D01*
Y4370000D01*
X2965000D01*
Y4375000D01*
X2967500D01*
Y4377500D01*
X2970000D01*
Y4380000D01*
X2972500D01*
Y4385000D01*
X2975000D01*
Y4387500D01*
X2977500D01*
Y4390000D01*
X2980000D01*
Y4392500D01*
X2982500D01*
Y4397500D01*
X2985000D01*
Y4400000D01*
X2990000D01*
Y4402500D01*
X2992500D01*
Y4405000D01*
X2995000D01*
Y4407500D01*
X2997500D01*
Y4410000D01*
X3000000D01*
Y4412500D01*
X3005000D01*
Y4415000D01*
X3007500D01*
Y4417500D01*
X3015000D01*
Y4420000D01*
X3017500D01*
Y4422500D01*
X3022500D01*
Y4425000D01*
X3030000D01*
Y4427500D01*
X3035000D01*
Y4430000D01*
X3045000D01*
Y4432500D01*
X3052500D01*
Y4435000D01*
X3077500D01*
Y4437500D01*
X3115000D01*
Y4435000D01*
D02*
G37*
G36*
X2692500Y4105000D02*
X2707500D01*
Y4102500D01*
X2717500D01*
Y4100000D01*
X2720000D01*
Y4097500D01*
X2725000D01*
Y4100000D01*
X2727500D01*
Y4102500D01*
X2792500D01*
Y3947500D01*
Y3945000D01*
Y3842500D01*
X2727500D01*
Y4010000D01*
X2725000D01*
Y4025000D01*
X2722500D01*
Y4030000D01*
X2720000D01*
Y4035000D01*
X2717500D01*
Y4040000D01*
X2715000D01*
Y4042500D01*
X2712500D01*
Y4045000D01*
X2707500D01*
Y4047500D01*
X2705000D01*
Y4050000D01*
X2697500D01*
Y4052500D01*
X2690000D01*
Y4055000D01*
X2682500D01*
Y4052500D01*
X2675000D01*
Y4050000D01*
X2667500D01*
Y4047500D01*
X2665000D01*
Y4045000D01*
X2660000D01*
Y4042500D01*
X2657500D01*
Y4040000D01*
X2655000D01*
Y4037500D01*
X2652500D01*
Y4032500D01*
X2650000D01*
Y4030000D01*
X2647500D01*
Y4022500D01*
X2645000D01*
Y4012500D01*
X2642500D01*
Y3842500D01*
X2577500D01*
Y4022500D01*
X2580000D01*
Y4037500D01*
X2582500D01*
Y4045000D01*
X2585000D01*
Y4052500D01*
X2587500D01*
Y4057500D01*
X2590000D01*
Y4062500D01*
X2592500D01*
Y4067500D01*
X2595000D01*
Y4072500D01*
X2597500D01*
Y4075000D01*
X2600000D01*
Y4077500D01*
X2602500D01*
Y4080000D01*
X2605000D01*
Y4085000D01*
X2607500D01*
Y4087500D01*
X2610000D01*
Y4090000D01*
X2615000D01*
Y4092500D01*
X2617500D01*
Y4095000D01*
X2620000D01*
Y4097500D01*
X2625000D01*
Y4100000D01*
X2630000D01*
Y4102500D01*
X2637500D01*
Y4105000D01*
X2652500D01*
Y4107500D01*
X2692500D01*
Y4105000D01*
D02*
G37*
G36*
X2467500D02*
X2480000D01*
Y4102500D01*
X2490000D01*
Y4100000D01*
X2492500D01*
Y4097500D01*
X2497500D01*
Y4095000D01*
X2502500D01*
Y4092500D01*
X2505000D01*
Y4090000D01*
X2507500D01*
Y4087500D01*
X2510000D01*
Y4085000D01*
X2512500D01*
Y4082500D01*
X2515000D01*
Y4080000D01*
X2517500D01*
Y4077500D01*
X2520000D01*
Y4075000D01*
X2522500D01*
Y4072500D01*
X2525000D01*
Y4067500D01*
X2527500D01*
Y4062500D01*
X2530000D01*
Y4057500D01*
X2532500D01*
Y4047500D01*
X2535000D01*
Y4025000D01*
X2532500D01*
Y4012500D01*
X2530000D01*
Y4010000D01*
X2527500D01*
Y4005000D01*
X2525000D01*
Y4000000D01*
X2522500D01*
Y3995000D01*
X2520000D01*
Y3992500D01*
X2517500D01*
Y3990000D01*
X2515000D01*
Y3987500D01*
X2512500D01*
Y3985000D01*
X2510000D01*
Y3982500D01*
X2505000D01*
Y3980000D01*
X2502500D01*
Y3977500D01*
X2500000D01*
Y3975000D01*
X2495000D01*
Y3972500D01*
X2492500D01*
Y3970000D01*
X2485000D01*
Y3967500D01*
X2482500D01*
Y3965000D01*
X2475000D01*
Y3962500D01*
X2467500D01*
Y3960000D01*
X2465000D01*
Y3957500D01*
X2457500D01*
Y3955000D01*
X2450000D01*
Y3952500D01*
X2445000D01*
Y3950000D01*
X2440000D01*
Y3947500D01*
X2435000D01*
Y3945000D01*
X2432500D01*
Y3942500D01*
X2427500D01*
Y3940000D01*
X2425000D01*
Y3937500D01*
X2420000D01*
Y3935000D01*
X2417500D01*
Y3932500D01*
X2415000D01*
Y3927500D01*
X2412500D01*
Y3922500D01*
X2410000D01*
Y3907500D01*
X2412500D01*
Y3902500D01*
X2415000D01*
Y3900000D01*
X2417500D01*
Y3897500D01*
X2420000D01*
Y3895000D01*
X2425000D01*
Y3892500D01*
X2430000D01*
Y3890000D01*
X2440000D01*
Y3887500D01*
X2450000D01*
Y3890000D01*
X2462500D01*
Y3892500D01*
X2467500D01*
Y3895000D01*
X2472500D01*
Y3897500D01*
X2477500D01*
Y3900000D01*
X2482500D01*
Y3902500D01*
X2487500D01*
Y3905000D01*
X2490000D01*
Y3907500D01*
X2495000D01*
Y3910000D01*
X2497500D01*
Y3912500D01*
X2512500D01*
Y3910000D01*
X2515000D01*
Y3907500D01*
X2517500D01*
Y3905000D01*
X2520000D01*
Y3902500D01*
X2522500D01*
Y3900000D01*
X2525000D01*
Y3897500D01*
X2527500D01*
Y3895000D01*
X2530000D01*
Y3892500D01*
X2532500D01*
Y3890000D01*
X2535000D01*
Y3887500D01*
X2537500D01*
Y3885000D01*
X2540000D01*
Y3882500D01*
X2542500D01*
Y3880000D01*
X2545000D01*
Y3877500D01*
X2547500D01*
Y3875000D01*
X2545000D01*
Y3870000D01*
X2540000D01*
Y3867500D01*
X2537500D01*
Y3865000D01*
X2535000D01*
Y3862500D01*
X2530000D01*
Y3860000D01*
X2527500D01*
Y3857500D01*
X2522500D01*
Y3855000D01*
X2520000D01*
Y3852500D01*
X2517500D01*
Y3850000D01*
X2510000D01*
Y3847500D01*
X2507500D01*
Y3845000D01*
X2500000D01*
Y3842500D01*
X2492500D01*
Y3840000D01*
X2487500D01*
Y3837500D01*
X2475000D01*
Y3835000D01*
X2417500D01*
Y3837500D01*
X2402500D01*
Y3840000D01*
X2397500D01*
Y3842500D01*
X2390000D01*
Y3845000D01*
X2385000D01*
Y3847500D01*
X2380000D01*
Y3850000D01*
X2375000D01*
Y3852500D01*
X2372500D01*
Y3855000D01*
X2370000D01*
Y3857500D01*
X2367500D01*
Y3860000D01*
X2365000D01*
Y3862500D01*
X2362500D01*
Y3865000D01*
X2360000D01*
Y3867500D01*
X2357500D01*
Y3870000D01*
X2355000D01*
Y3875000D01*
X2352500D01*
Y3880000D01*
X2350000D01*
Y3885000D01*
X2347500D01*
Y3895000D01*
X2345000D01*
Y3930000D01*
X2347500D01*
Y3942500D01*
X2350000D01*
Y3947500D01*
X2352500D01*
Y3952500D01*
X2355000D01*
Y3957500D01*
X2357500D01*
Y3960000D01*
X2360000D01*
Y3962500D01*
X2362500D01*
Y3967500D01*
X2365000D01*
Y3970000D01*
X2367500D01*
Y3972500D01*
X2372500D01*
Y3975000D01*
X2375000D01*
Y3977500D01*
X2377500D01*
Y3980000D01*
X2380000D01*
Y3982500D01*
X2385000D01*
Y3985000D01*
X2387500D01*
Y3987500D01*
X2390000D01*
Y3990000D01*
X2395000D01*
Y3992500D01*
X2400000D01*
Y3995000D01*
X2405000D01*
Y3997500D01*
X2412500D01*
Y4000000D01*
X2415000D01*
Y4002500D01*
X2425000D01*
Y4005000D01*
X2432500D01*
Y4007500D01*
X2437500D01*
Y4010000D01*
X2445000D01*
Y4012500D01*
X2447500D01*
Y4015000D01*
X2455000D01*
Y4017500D01*
X2460000D01*
Y4020000D01*
X2462500D01*
Y4022500D01*
X2467500D01*
Y4030000D01*
X2470000D01*
Y4037500D01*
X2467500D01*
Y4042500D01*
X2465000D01*
Y4045000D01*
X2462500D01*
Y4047500D01*
X2460000D01*
Y4050000D01*
X2455000D01*
Y4052500D01*
X2435000D01*
Y4050000D01*
X2425000D01*
Y4047500D01*
X2420000D01*
Y4045000D01*
X2415000D01*
Y4042500D01*
X2410000D01*
Y4040000D01*
X2405000D01*
Y4037500D01*
X2402500D01*
Y4035000D01*
X2400000D01*
Y4032500D01*
X2397500D01*
Y4030000D01*
X2380000D01*
Y4032500D01*
X2377500D01*
Y4035000D01*
X2375000D01*
Y4037500D01*
X2372500D01*
Y4040000D01*
X2370000D01*
Y4042500D01*
X2367500D01*
Y4045000D01*
X2365000D01*
Y4047500D01*
X2362500D01*
Y4050000D01*
X2360000D01*
Y4055000D01*
X2355000D01*
Y4057500D01*
X2352500D01*
Y4062500D01*
X2347500D01*
Y4067500D01*
X2350000D01*
Y4070000D01*
X2352500D01*
Y4072500D01*
X2355000D01*
Y4075000D01*
X2357500D01*
Y4077500D01*
X2362500D01*
Y4080000D01*
X2365000D01*
Y4082500D01*
X2367500D01*
Y4085000D01*
X2372500D01*
Y4087500D01*
X2375000D01*
Y4090000D01*
X2380000D01*
Y4092500D01*
X2385000D01*
Y4095000D01*
X2387500D01*
Y4097500D01*
X2397500D01*
Y4100000D01*
X2400000D01*
Y4102500D01*
X2412500D01*
Y4105000D01*
X2427500D01*
Y4107500D01*
X2467500D01*
Y4105000D01*
D02*
G37*
%LPC*%
G36*
X3472500Y5532500D02*
X3460000D01*
Y5530000D01*
X3457500D01*
Y5532500D01*
X3387500D01*
Y5530000D01*
X3382500D01*
Y5532500D01*
X3377500D01*
Y5530000D01*
X3360000D01*
Y5527500D01*
X3355000D01*
Y5525000D01*
X3350000D01*
Y5522500D01*
X3345000D01*
Y5520000D01*
X3342500D01*
Y5517500D01*
X3340000D01*
Y5515000D01*
X3337500D01*
Y5510000D01*
X3335000D01*
Y5505000D01*
X3332500D01*
Y5477500D01*
X3335000D01*
Y5472500D01*
X3337500D01*
Y5470000D01*
X3340000D01*
Y5465000D01*
X3342500D01*
Y5462500D01*
X3347500D01*
Y5460000D01*
X3350000D01*
Y5457500D01*
X3355000D01*
Y5455000D01*
X3365000D01*
Y5452500D01*
X3475000D01*
Y5530000D01*
X3472500D01*
Y5532500D01*
D02*
G37*
G36*
X2535000D02*
X2530000D01*
Y5530000D01*
X2527500D01*
Y5532500D01*
X2492500D01*
Y5530000D01*
X2467500D01*
Y5527500D01*
X2460000D01*
Y5525000D01*
X2452500D01*
Y5522500D01*
X2447500D01*
Y5520000D01*
X2442500D01*
Y5517500D01*
X2437500D01*
Y5515000D01*
X2435000D01*
Y5512500D01*
X2430000D01*
Y5510000D01*
X2427500D01*
Y5507500D01*
X2425000D01*
Y5505000D01*
X2422500D01*
Y5502500D01*
X2420000D01*
Y5500000D01*
X2417500D01*
Y5497500D01*
X2415000D01*
Y5495000D01*
X2412500D01*
Y5490000D01*
X2410000D01*
Y5487500D01*
X2407500D01*
Y5482500D01*
X2405000D01*
Y5477500D01*
X2402500D01*
Y5472500D01*
X2400000D01*
Y5462500D01*
X2397500D01*
Y5450000D01*
X2395000D01*
Y5410000D01*
X2397500D01*
Y5397500D01*
X2400000D01*
Y5387500D01*
X2402500D01*
Y5382500D01*
X2405000D01*
Y5377500D01*
X2407500D01*
Y5372500D01*
X2410000D01*
Y5370000D01*
X2412500D01*
Y5365000D01*
X2415000D01*
Y5362500D01*
X2417500D01*
Y5360000D01*
X2420000D01*
Y5355000D01*
X2425000D01*
Y5352500D01*
X2427500D01*
Y5350000D01*
X2430000D01*
Y5347500D01*
X2432500D01*
Y5345000D01*
X2437500D01*
Y5342500D01*
X2442500D01*
Y5340000D01*
X2445000D01*
Y5337500D01*
X2450000D01*
Y5335000D01*
X2457500D01*
Y5332500D01*
X2462500D01*
Y5330000D01*
X2475000D01*
Y5327500D01*
X2537500D01*
Y5530000D01*
X2535000D01*
Y5532500D01*
D02*
G37*
G36*
X3195000Y4980000D02*
X3192500D01*
Y4977500D01*
X3195000D01*
Y4980000D01*
D02*
G37*
G36*
X3487500Y4365000D02*
X3465000D01*
Y4362500D01*
X3455000D01*
Y4360000D01*
X3452500D01*
Y4357500D01*
X3445000D01*
Y4355000D01*
X3442500D01*
Y4352500D01*
X3437500D01*
Y4350000D01*
X3435000D01*
Y4347500D01*
X3432500D01*
Y4345000D01*
X3430000D01*
Y4342500D01*
X3427500D01*
Y4340000D01*
X3425000D01*
Y4337500D01*
X3422500D01*
Y4335000D01*
X3420000D01*
Y4330000D01*
X3417500D01*
Y4325000D01*
X3415000D01*
Y4320000D01*
X3412500D01*
Y4312500D01*
X3410000D01*
Y4310000D01*
X3407500D01*
Y4302500D01*
X3405000D01*
Y4292500D01*
X3402500D01*
Y4285000D01*
X3400000D01*
Y4270000D01*
X3397500D01*
Y4255000D01*
X3395000D01*
Y4225000D01*
X3392500D01*
Y4195000D01*
X3395000D01*
Y4162500D01*
X3397500D01*
Y4145000D01*
X3400000D01*
Y4132500D01*
X3402500D01*
Y4125000D01*
X3405000D01*
Y4115000D01*
X3407500D01*
Y4107500D01*
X3410000D01*
Y4102500D01*
X3412500D01*
Y4095000D01*
X3415000D01*
Y4092500D01*
X3417500D01*
Y4087500D01*
X3420000D01*
Y4082500D01*
X3422500D01*
Y4080000D01*
X3425000D01*
Y4077500D01*
X3427500D01*
Y4075000D01*
X3430000D01*
Y4072500D01*
X3432500D01*
Y4070000D01*
X3437500D01*
Y4067500D01*
X3442500D01*
Y4065000D01*
X3447500D01*
Y4062500D01*
X3455000D01*
Y4060000D01*
X3460000D01*
Y4057500D01*
X3492500D01*
Y4060000D01*
X3497500D01*
Y4062500D01*
X3505000D01*
Y4065000D01*
X3507500D01*
Y4067500D01*
X3512500D01*
Y4070000D01*
X3517500D01*
Y4072500D01*
X3520000D01*
Y4075000D01*
X3522500D01*
Y4077500D01*
X3525000D01*
Y4080000D01*
X3527500D01*
Y4085000D01*
X3530000D01*
Y4087500D01*
X3532500D01*
Y4092500D01*
X3535000D01*
Y4097500D01*
X3537500D01*
Y4102500D01*
X3540000D01*
Y4107500D01*
X3542500D01*
Y4117500D01*
X3545000D01*
Y4125000D01*
X3547500D01*
Y4137500D01*
X3550000D01*
Y4145000D01*
X3552500D01*
Y4170000D01*
X3555000D01*
Y4245000D01*
X3552500D01*
Y4267500D01*
X3550000D01*
Y4277500D01*
X3547500D01*
Y4290000D01*
X3545000D01*
Y4297500D01*
X3542500D01*
Y4302500D01*
X3540000D01*
Y4312500D01*
X3537500D01*
Y4317500D01*
X3535000D01*
Y4322500D01*
X3532500D01*
Y4327500D01*
X3530000D01*
Y4332500D01*
X3527500D01*
Y4335000D01*
X3525000D01*
Y4340000D01*
X3522500D01*
Y4342500D01*
X3520000D01*
Y4345000D01*
X3517500D01*
Y4347500D01*
X3515000D01*
Y4350000D01*
X3512500D01*
Y4352500D01*
X3510000D01*
Y4355000D01*
X3505000D01*
Y4357500D01*
X3500000D01*
Y4360000D01*
X3495000D01*
Y4362500D01*
X3487500D01*
Y4365000D01*
D02*
G37*
G36*
X3107500D02*
X3085000D01*
Y4362500D01*
X3075000D01*
Y4360000D01*
X3072500D01*
Y4357500D01*
X3065000D01*
Y4355000D01*
X3062500D01*
Y4352500D01*
X3060000D01*
Y4350000D01*
X3055000D01*
Y4347500D01*
X3052500D01*
Y4345000D01*
X3050000D01*
Y4342500D01*
X3047500D01*
Y4340000D01*
X3045000D01*
Y4337500D01*
X3042500D01*
Y4335000D01*
X3040000D01*
Y4330000D01*
X3037500D01*
Y4325000D01*
X3035000D01*
Y4320000D01*
X3032500D01*
Y4312500D01*
X3030000D01*
Y4310000D01*
X3027500D01*
Y4302500D01*
X3025000D01*
Y4292500D01*
X3022500D01*
Y4285000D01*
X3020000D01*
Y4270000D01*
X3017500D01*
Y4255000D01*
X3015000D01*
Y4225000D01*
X3012500D01*
Y4195000D01*
X3015000D01*
Y4162500D01*
X3017500D01*
Y4147500D01*
X3020000D01*
Y4132500D01*
X3022500D01*
Y4125000D01*
X3025000D01*
Y4117500D01*
X3027500D01*
Y4107500D01*
X3030000D01*
Y4102500D01*
X3032500D01*
Y4095000D01*
X3035000D01*
Y4092500D01*
X3037500D01*
Y4087500D01*
X3040000D01*
Y4082500D01*
X3042500D01*
Y4080000D01*
X3045000D01*
Y4077500D01*
X3047500D01*
Y4075000D01*
X3050000D01*
Y4072500D01*
X3052500D01*
Y4070000D01*
X3057500D01*
Y4067500D01*
X3062500D01*
Y4065000D01*
X3067500D01*
Y4062500D01*
X3075000D01*
Y4060000D01*
X3080000D01*
Y4057500D01*
X3112500D01*
Y4060000D01*
X3117500D01*
Y4062500D01*
X3125000D01*
Y4065000D01*
X3127500D01*
Y4067500D01*
X3132500D01*
Y4070000D01*
X3137500D01*
Y4072500D01*
X3140000D01*
Y4075000D01*
X3142500D01*
Y4077500D01*
X3145000D01*
Y4080000D01*
X3147500D01*
Y4085000D01*
X3150000D01*
Y4087500D01*
X3152500D01*
Y4092500D01*
X3155000D01*
Y4097500D01*
X3157500D01*
Y4102500D01*
X3160000D01*
Y4110000D01*
X3162500D01*
Y4117500D01*
X3165000D01*
Y4125000D01*
X3167500D01*
Y4137500D01*
X3170000D01*
Y4145000D01*
X3172500D01*
Y4170000D01*
X3175000D01*
Y4245000D01*
X3172500D01*
Y4267500D01*
X3170000D01*
Y4277500D01*
X3167500D01*
Y4290000D01*
X3165000D01*
Y4297500D01*
X3162500D01*
Y4302500D01*
X3160000D01*
Y4312500D01*
X3157500D01*
Y4317500D01*
X3155000D01*
Y4322500D01*
X3152500D01*
Y4327500D01*
X3150000D01*
Y4332500D01*
X3147500D01*
Y4335000D01*
X3145000D01*
Y4340000D01*
X3142500D01*
Y4342500D01*
X3140000D01*
Y4345000D01*
X3137500D01*
Y4347500D01*
X3135000D01*
Y4350000D01*
X3132500D01*
Y4352500D01*
X3127500D01*
Y4355000D01*
X3125000D01*
Y4357500D01*
X3120000D01*
Y4360000D01*
X3115000D01*
Y4362500D01*
X3107500D01*
Y4365000D01*
D02*
G37*
%LPD*%
D63*
X2539999Y1859999D02*
Y2039999D01*
X2359999D02*
X2359999Y1859999D01*
D64*
X1290000Y6020002D02*
X1489999D01*
X1290000Y5679997D02*
X1489999D01*
X3870000Y2660000D02*
Y2800000D01*
X3920001Y2870000D02*
Y3010000D01*
%TF.MD5,d4a1a68734efdb0079c12086a3983e40*%
M02*
