%TF.GenerationSoftware,Altium Limited,Altium Designer,22.9.1 (49)*%
G04 Layer_Color=0*
%FSLAX45Y45*%
%MOMM*%
%TF.SameCoordinates,E77D5F78-0586-4990-9624-58BD59020D5A*%
%TF.FilePolarity,Positive*%
%TF.FileFunction,Plated,1,4,PTH,Drill*%
%TF.Part,Single*%
G01*
G75*
%TA.AperFunction,ComponentDrill*%
%ADD114C,1.40000*%
%ADD115C,0.80000*%
%ADD116C,0.30000*%
%ADD117C,0.80000*%
%ADD118C,1.50000*%
%ADD119C,1.49860*%
%ADD120C,3.60000*%
%ADD121C,1.40000*%
%TA.AperFunction,ViaDrill,NotFilled*%
%ADD122C,0.30000*%
D114*
X2537500Y6659999D02*
D03*
X1902500D02*
D03*
D115*
X3599970Y6300000D02*
D03*
X1700000Y829999D02*
D03*
X1900000D02*
D03*
X2050000Y400000D02*
D03*
X1540000D02*
D03*
X4579978Y3630000D02*
D03*
X5989977Y5799999D02*
D03*
X3700000Y1500000D02*
D03*
X7140000Y2409999D02*
D03*
X2600000Y1500000D02*
D03*
X6689969Y2409999D02*
D03*
X5849958Y1519998D02*
D03*
X1979961Y4499998D02*
D03*
X4619962Y4399998D02*
D03*
X5919964Y4299998D02*
D03*
X2599965Y2300000D02*
D03*
X4400000Y2239999D02*
D03*
X7140000Y3380000D02*
D03*
X7140000Y3150000D02*
D03*
D116*
X3110000Y2090000D02*
D03*
X3190000D02*
D03*
Y2169999D02*
D03*
X3110000D02*
D03*
D117*
X6859999Y2910000D02*
D03*
Y2656000D02*
D03*
X4849999Y1090000D02*
D03*
X6160000Y3910000D02*
D03*
X5279999Y1090000D02*
D03*
X6159999Y4300000D02*
D03*
X6359999Y3059999D02*
D03*
X3700000Y2300000D02*
D03*
D118*
X3785270Y1065269D02*
D03*
Y554729D02*
D03*
X3274730D02*
D03*
Y1065269D02*
D03*
X3025270D02*
D03*
Y554729D02*
D03*
X2514730Y1065269D02*
D03*
Y554729D02*
D03*
D119*
X3530000Y809999D02*
D03*
X2770000D02*
D03*
D120*
X500000Y7000000D02*
D03*
X7000000D02*
D03*
X500000Y500000D02*
D03*
X7000000D02*
D03*
D121*
X854998Y5987500D02*
D03*
Y5352500D02*
D03*
D122*
X3310000Y2250000D02*
D03*
X3150001Y6600000D02*
D03*
X5850000D02*
D03*
X5550001D02*
D03*
X4350000D02*
D03*
X4050000D02*
D03*
X3750000D02*
D03*
X3450000D02*
D03*
X4650000D02*
D03*
X4950000D02*
D03*
X5250000D02*
D03*
X2249999Y6599998D02*
D03*
X1649999D02*
D03*
X4190000Y3280000D02*
D03*
X4650000Y3150000D02*
D03*
X5070000Y2220000D02*
D03*
X5170000Y6110000D02*
D03*
X1550000Y6040000D02*
D03*
X1700000Y6110000D02*
D03*
X1650000Y6040000D02*
D03*
X1500000Y6110000D02*
D03*
X1600000D02*
D03*
X1450000Y6040000D02*
D03*
X1750000D02*
D03*
X2020000Y6110000D02*
D03*
X1810000Y6110000D02*
D03*
X2070000Y6040000D02*
D03*
X1870000D02*
D03*
X1970000D02*
D03*
X2120000Y6110000D02*
D03*
X1920000D02*
D03*
X2170000Y6040000D02*
D03*
X2230000Y6110000D02*
D03*
X2340000Y6110000D02*
D03*
X2290000Y6040000D02*
D03*
X2440000Y6110000D02*
D03*
X2590000Y6040000D02*
D03*
X2390000D02*
D03*
X2540000Y6110000D02*
D03*
X2490000Y6040000D02*
D03*
X2650000Y6110000D02*
D03*
X3070000D02*
D03*
X3490000D02*
D03*
X4750000D02*
D03*
X4330000D02*
D03*
X3910000D02*
D03*
X6150000Y5090000D02*
D03*
X2400000Y2700000D02*
D03*
X6599998Y5699998D02*
D03*
X6299998Y6299998D02*
D03*
X6449998Y5999998D02*
D03*
X6299998Y5699998D02*
D03*
X5999998Y6299998D02*
D03*
X6149998Y5999998D02*
D03*
X5699998Y6299998D02*
D03*
X5849998Y5999998D02*
D03*
X5399998Y6299998D02*
D03*
X5099998D02*
D03*
X4799999D02*
D03*
X4499999D02*
D03*
X4199999D02*
D03*
X3899999D02*
D03*
Y2099999D02*
D03*
Y1500000D02*
D03*
Y300000D02*
D03*
X3599999Y2099999D02*
D03*
X3749999Y1799999D02*
D03*
X3599999Y300000D02*
D03*
X3299999Y6299998D02*
D03*
Y300000D02*
D03*
X2999999Y6299998D02*
D03*
Y300000D02*
D03*
X2699999Y6299998D02*
D03*
Y300000D02*
D03*
X2399999Y6299998D02*
D03*
Y1500000D02*
D03*
Y300000D02*
D03*
X2099999Y6299998D02*
D03*
Y3899999D02*
D03*
Y3299999D02*
D03*
X2249999Y2999999D02*
D03*
X2099999Y2699999D02*
D03*
X2249999Y2399999D02*
D03*
X1799999Y6299998D02*
D03*
Y4499999D02*
D03*
X1949999Y4199999D02*
D03*
X1799999Y3899999D02*
D03*
X1949999Y3599999D02*
D03*
X1799999Y3299999D02*
D03*
X1949999Y2999999D02*
D03*
X1799999Y2699999D02*
D03*
X1949999Y2399999D02*
D03*
X1799999Y300000D02*
D03*
X1500000Y6299998D02*
D03*
Y4499999D02*
D03*
X1649999Y4199999D02*
D03*
X1500000Y3899999D02*
D03*
X1649999Y3599999D02*
D03*
X1500000Y3299999D02*
D03*
X1649999Y2999999D02*
D03*
X1500000Y2699999D02*
D03*
X1649999Y2399999D02*
D03*
X1500000Y2099999D02*
D03*
X6150000Y4830000D02*
D03*
X5850000D02*
D03*
X5550000D02*
D03*
X5270000Y4830000D02*
D03*
X5700000Y4960000D02*
D03*
X5990000D02*
D03*
X6300000D02*
D03*
X7190000Y2940000D02*
D03*
Y2740000D02*
D03*
X6920000Y2480000D02*
D03*
Y2360000D02*
D03*
X2680000Y2740000D02*
D03*
X3630000Y2660000D02*
D03*
X2680000D02*
D03*
X3390000Y2520000D02*
D03*
X3470000D02*
D03*
X3550000D02*
D03*
X2920000D02*
D03*
X2840000D02*
D03*
X2760000D02*
D03*
X2720000Y2590000D02*
D03*
X3590000D02*
D03*
X4100000Y2560000D02*
D03*
Y2640000D02*
D03*
Y2470000D02*
D03*
X4180000Y2560000D02*
D03*
X4300000Y3420000D02*
D03*
Y2300000D02*
D03*
X4310000Y2380000D02*
D03*
X4230000Y2360000D02*
D03*
X4170000Y2410000D02*
D03*
X4580000Y2060000D02*
D03*
X4590000Y1860000D02*
D03*
X4580000Y1410000D02*
D03*
X4490000D02*
D03*
Y1630000D02*
D03*
X4500000Y1860000D02*
D03*
X4530000Y2260000D02*
D03*
X4500000Y2060000D02*
D03*
X4640000Y3760000D02*
D03*
X4720000Y3810000D02*
D03*
Y3710000D02*
D03*
X4780000Y3520000D02*
D03*
X4660000D02*
D03*
X4710000Y3450000D02*
D03*
X4610000D02*
D03*
X4130000Y3240000D02*
D03*
Y3080000D02*
D03*
X4210000Y3160000D02*
D03*
X4130000D02*
D03*
X3750000Y2850000D02*
D03*
X3810000Y3050000D02*
D03*
X3750000Y3090000D02*
D03*
X4230000Y3350000D02*
D03*
X4040000Y2940000D02*
D03*
X3950000D02*
D03*
X3810000Y2970000D02*
D03*
X3630000Y2740000D02*
D03*
X3810000Y2890000D02*
D03*
X3750000Y2930000D02*
D03*
X4820000Y4430000D02*
D03*
X5060000Y4790000D02*
D03*
X4560000Y4210000D02*
D03*
X4730000Y4550000D02*
D03*
X4940000D02*
D03*
X6450000Y3240000D02*
D03*
X5820000Y3200000D02*
D03*
X5990000D02*
D03*
X6170000D02*
D03*
X6510000Y2700000D02*
D03*
X6320000D02*
D03*
X6120000D02*
D03*
X5920000D02*
D03*
X5590000Y2750000D02*
D03*
X1370000Y400000D02*
D03*
X1700000D02*
D03*
X1370000Y570000D02*
D03*
X1700000D02*
D03*
X1540000D02*
D03*
X5460000Y2680000D02*
D03*
X2610000Y3000000D02*
D03*
X2430000D02*
D03*
X2520000D02*
D03*
X2470000Y2250000D02*
D03*
X2190000Y1900000D02*
D03*
X2230000Y2240000D02*
D03*
X3270000Y1950000D02*
D03*
X3030000D02*
D03*
X2960000Y6110000D02*
D03*
X2760000D02*
D03*
X2860000D02*
D03*
X3380000D02*
D03*
X3180000D02*
D03*
X3280000D02*
D03*
X3800000D02*
D03*
X3600000D02*
D03*
X3700000D02*
D03*
X4220000D02*
D03*
X4020000D02*
D03*
X4120000D02*
D03*
X4640000D02*
D03*
X4440000D02*
D03*
X4540000D02*
D03*
X5060000D02*
D03*
X4860000D02*
D03*
X4960000D02*
D03*
X5380000D02*
D03*
X5280000D02*
D03*
X5480000D02*
D03*
X5530000Y6040000D02*
D03*
X5330000D02*
D03*
X5430000D02*
D03*
X5230000D02*
D03*
X4490000D02*
D03*
X4690000D02*
D03*
X4590000D02*
D03*
X4390000D02*
D03*
X3970000D02*
D03*
X4070000D02*
D03*
X4170000D02*
D03*
X4270000D02*
D03*
X3230000D02*
D03*
X3130000D02*
D03*
X3330000D02*
D03*
X3430000D02*
D03*
X3750000D02*
D03*
X4910000D02*
D03*
X2810000D02*
D03*
X2710000D02*
D03*
X5110000D02*
D03*
X3850000D02*
D03*
X3010000D02*
D03*
X3550000D02*
D03*
X3650000D02*
D03*
X4810000D02*
D03*
X2910000D02*
D03*
X5010000D02*
D03*
X5680000Y2750000D02*
D03*
X5540000Y2650000D02*
D03*
X5360000Y2690000D02*
D03*
X6630000Y3120000D02*
D03*
X6730000D02*
D03*
X6860000D02*
D03*
X6960000D02*
D03*
X6330000Y5540000D02*
D03*
X6420000D02*
D03*
X6510000D02*
D03*
X6240000D02*
D03*
X5060000Y4870000D02*
D03*
X4970000D02*
D03*
X4880000D02*
D03*
X1630000Y1180000D02*
D03*
Y1270000D02*
D03*
X1550000Y1420000D02*
D03*
X1630000Y1370000D02*
D03*
X2230000Y1420000D02*
D03*
X2310000Y1120000D02*
D03*
Y1320000D02*
D03*
X3370000Y1860000D02*
D03*
X2930000D02*
D03*
X2600000Y2140000D02*
D03*
Y1840000D02*
D03*
X2500000Y1770000D02*
D03*
X2400000D02*
D03*
X2300000D02*
D03*
Y1860000D02*
D03*
X2400000Y2140000D02*
D03*
X2300000D02*
D03*
Y2030000D02*
D03*
X2500000Y2140000D02*
D03*
X2600000Y2050000D02*
D03*
X5290000Y3940000D02*
D03*
X6040000Y4100000D02*
D03*
X5550000Y3580000D02*
D03*
X5950000D02*
D03*
X5750000D02*
D03*
X5700000Y3980000D02*
D03*
X5340000Y4010000D02*
D03*
X4720000Y3610000D02*
D03*
X4510000Y3510000D02*
D03*
X5170000Y1270000D02*
D03*
Y1350000D02*
D03*
X5040000Y2410000D02*
D03*
Y2320000D02*
D03*
X6110000Y1470000D02*
D03*
X6020000D02*
D03*
X4590000Y2310000D02*
D03*
X4570000Y1630000D02*
D03*
X4510000Y1310000D02*
D03*
Y1510000D02*
D03*
Y1760000D02*
D03*
Y1960000D02*
D03*
Y2160000D02*
D03*
X4410000Y2360000D02*
D03*
X4530000D02*
D03*
X4390000Y3510000D02*
D03*
X2800000Y2590000D02*
D03*
X2880000D02*
D03*
X2960000D02*
D03*
X3040000D02*
D03*
X3510000Y2590000D02*
D03*
X3270000D02*
D03*
X3350000D02*
D03*
X3430000D02*
D03*
X5760000Y2650000D02*
D03*
X5470000Y3210000D02*
D03*
X5370000D02*
D03*
X5230000Y3130000D02*
D03*
Y3030000D02*
D03*
Y2930000D02*
D03*
Y2830000D02*
D03*
Y2730000D02*
D03*
X4650000D02*
D03*
Y2830000D02*
D03*
Y2930000D02*
D03*
Y3040000D02*
D03*
X3080000Y2660000D02*
D03*
X3550000D02*
D03*
X3470000D02*
D03*
X3390000D02*
D03*
X3310000D02*
D03*
X2760000D02*
D03*
X2840000D02*
D03*
X2920000D02*
D03*
X3000000D02*
D03*
X3230000D02*
D03*
X6630000Y3430000D02*
D03*
X6730000D02*
D03*
X6960000D02*
D03*
X6860000D02*
D03*
X3750000Y3010000D02*
D03*
X5590000Y3120000D02*
D03*
X5680000D02*
D03*
X3071841Y2355042D02*
D03*
X3086200Y1879899D02*
D03*
X3213200D02*
D03*
X3088042Y1756441D02*
D03*
X3208042D02*
D03*
X2968042D02*
D03*
X3298042Y1416441D02*
D03*
X3150000Y2355042D02*
D03*
X2908042Y1506441D02*
D03*
X2928042Y1436441D02*
D03*
X3224241Y2355042D02*
D03*
X3388042Y1506441D02*
D03*
X3328042Y1756441D02*
D03*
X3368042Y1436441D02*
D03*
X2998042Y1416441D02*
D03*
%TF.MD5,84e062ad9d4c2b1c1ebc23af2609da5e*%
M02*
