%TF.GenerationSoftware,Altium Limited,Altium Designer,22.9.1 (49)*%
G04 Layer_Physical_Order=1*
G04 Layer_Color=255*
%FSLAX45Y45*%
%MOMM*%
%TF.SameCoordinates,E77D5F78-0586-4990-9624-58BD59020D5A*%
%TF.FilePolarity,Positive*%
%TF.FileFunction,Copper,L1,Top,Signal*%
%TF.Part,Single*%
G01*
G75*
%TA.AperFunction,SMDPad,CuDef*%
%ADD10R,0.45000X0.45000*%
%ADD11R,1.00000X1.45000*%
G04:AMPARAMS|DCode=12|XSize=1.65506mm|YSize=0.58213mm|CornerRadius=0.29107mm|HoleSize=0mm|Usage=FLASHONLY|Rotation=180.000|XOffset=0mm|YOffset=0mm|HoleType=Round|Shape=RoundedRectangle|*
%AMROUNDEDRECTD12*
21,1,1.65506,0.00000,0,0,180.0*
21,1,1.07293,0.58213,0,0,180.0*
1,1,0.58213,-0.53646,0.00000*
1,1,0.58213,0.53646,0.00000*
1,1,0.58213,0.53646,0.00000*
1,1,0.58213,-0.53646,0.00000*
%
%ADD12ROUNDEDRECTD12*%
%ADD13R,1.65506X0.58213*%
%ADD14R,1.40000X1.40000*%
G04:AMPARAMS|DCode=15|XSize=0.86mm|YSize=0.26mm|CornerRadius=0.0325mm|HoleSize=0mm|Usage=FLASHONLY|Rotation=90.000|XOffset=0mm|YOffset=0mm|HoleType=Round|Shape=RoundedRectangle|*
%AMROUNDEDRECTD15*
21,1,0.86000,0.19500,0,0,90.0*
21,1,0.79500,0.26000,0,0,90.0*
1,1,0.06500,0.09750,0.39750*
1,1,0.06500,0.09750,-0.39750*
1,1,0.06500,-0.09750,-0.39750*
1,1,0.06500,-0.09750,0.39750*
%
%ADD15ROUNDEDRECTD15*%
G04:AMPARAMS|DCode=16|XSize=0.86mm|YSize=0.26mm|CornerRadius=0.0325mm|HoleSize=0mm|Usage=FLASHONLY|Rotation=0.000|XOffset=0mm|YOffset=0mm|HoleType=Round|Shape=RoundedRectangle|*
%AMROUNDEDRECTD16*
21,1,0.86000,0.19500,0,0,0.0*
21,1,0.79500,0.26000,0,0,0.0*
1,1,0.06500,0.39750,-0.09750*
1,1,0.06500,-0.39750,-0.09750*
1,1,0.06500,-0.39750,0.09750*
1,1,0.06500,0.39750,0.09750*
%
%ADD16ROUNDEDRECTD16*%
%ADD17R,1.75000X1.15000*%
%ADD18R,0.52000X0.52000*%
%ADD19R,1.45000X1.00000*%
%ADD20C,1.40000*%
%ADD21R,3.25000X2.15000*%
%ADD22R,1.00000X2.15000*%
G04:AMPARAMS|DCode=23|XSize=1.7mm|YSize=3.8mm|CornerRadius=0.425mm|HoleSize=0mm|Usage=FLASHONLY|Rotation=90.000|XOffset=0mm|YOffset=0mm|HoleType=Round|Shape=RoundedRectangle|*
%AMROUNDEDRECTD23*
21,1,1.70000,2.95000,0,0,90.0*
21,1,0.85000,3.80000,0,0,90.0*
1,1,0.85000,1.47500,0.42500*
1,1,0.85000,1.47500,-0.42500*
1,1,0.85000,-1.47500,-0.42500*
1,1,0.85000,-1.47500,0.42500*
%
%ADD23ROUNDEDRECTD23*%
G04:AMPARAMS|DCode=24|XSize=5.5mm|YSize=4.5mm|CornerRadius=1.125mm|HoleSize=0mm|Usage=FLASHONLY|Rotation=180.000|XOffset=0mm|YOffset=0mm|HoleType=Round|Shape=RoundedRectangle|*
%AMROUNDEDRECTD24*
21,1,5.50000,2.25000,0,0,180.0*
21,1,3.25000,4.50000,0,0,180.0*
1,1,2.25000,-1.62500,1.12500*
1,1,2.25000,1.62500,1.12500*
1,1,2.25000,1.62500,-1.12500*
1,1,2.25000,-1.62500,-1.12500*
%
%ADD24ROUNDEDRECTD24*%
%ADD25R,1.35000X1.65000*%
%ADD26R,7.00000X3.20000*%
%ADD27R,0.71120X0.39370*%
%ADD28R,1.70000X0.45000*%
%ADD29R,0.75000X0.85000*%
%ADD30R,1.00000X1.00000*%
%ADD31R,1.60000X1.20000*%
%ADD32R,1.60000X3.30000*%
G04:AMPARAMS|DCode=33|XSize=1.50543mm|YSize=0.57583mm|CornerRadius=0.28791mm|HoleSize=0mm|Usage=FLASHONLY|Rotation=180.000|XOffset=0mm|YOffset=0mm|HoleType=Round|Shape=RoundedRectangle|*
%AMROUNDEDRECTD33*
21,1,1.50543,0.00000,0,0,180.0*
21,1,0.92960,0.57583,0,0,180.0*
1,1,0.57583,-0.46480,0.00000*
1,1,0.57583,0.46480,0.00000*
1,1,0.57583,0.46480,0.00000*
1,1,0.57583,-0.46480,0.00000*
%
%ADD33ROUNDEDRECTD33*%
%ADD34R,1.50543X0.57583*%
%ADD35R,1.52400X1.52400*%
%ADD36R,1.20000X1.20000*%
%ADD37R,0.45000X0.45000*%
%ADD38C,1.30000*%
%ADD39R,0.52000X0.52000*%
%ADD40C,1.00000*%
%ADD41R,1.52400X1.52400*%
%ADD42R,1.20000X1.20000*%
%ADD43R,0.85000X0.75000*%
G04:AMPARAMS|DCode=44|XSize=8mm|YSize=4.5mm|CornerRadius=1.125mm|HoleSize=0mm|Usage=FLASHONLY|Rotation=0.000|XOffset=0mm|YOffset=0mm|HoleType=Round|Shape=RoundedRectangle|*
%AMROUNDEDRECTD44*
21,1,8.00000,2.25000,0,0,0.0*
21,1,5.75000,4.50000,0,0,0.0*
1,1,2.25000,2.87500,-1.12500*
1,1,2.25000,-2.87500,-1.12500*
1,1,2.25000,-2.87500,1.12500*
1,1,2.25000,2.87500,1.12500*
%
%ADD44ROUNDEDRECTD44*%
%TA.AperFunction,Conductor*%
%ADD45C,0.50000*%
%ADD46C,0.30000*%
%ADD47C,0.18500*%
%ADD48C,0.20000*%
%ADD49C,0.40000*%
%ADD50C,0.25000*%
%TA.AperFunction,ComponentPad*%
%ADD51C,2.50000*%
%ADD52C,1.30000*%
%ADD53C,0.60000*%
%ADD54R,1.30000X1.30000*%
%ADD55R,1.30000X1.30000*%
%ADD56C,1.90500*%
%ADD57C,2.00660*%
%ADD58C,6.00000*%
%TA.AperFunction,ViaPad*%
%ADD59C,0.60000*%
G36*
X2870000Y6660000D02*
Y6350000D01*
X3059999Y6160000D01*
X5530000D01*
X5580000Y6110000D01*
Y5980000D01*
X5535072Y5935072D01*
X1460000Y5940000D01*
X1440000Y5960000D01*
Y6530000D01*
X1720000Y6810000D01*
X2720000D01*
X2870000Y6660000D01*
D02*
G37*
G36*
X6550000Y5560000D02*
Y5520000D01*
X6530000Y5500000D01*
X6480000D01*
X6460000Y5480000D01*
Y5450000D01*
X6450000Y5440000D01*
X6300000Y5440000D01*
X6290000Y5450000D01*
Y5480000D01*
X6270000Y5500000D01*
X6220000D01*
X6200000Y5520000D01*
Y5560000D01*
X6220000Y5580000D01*
X6530000D01*
X6550000Y5560000D01*
D02*
G37*
G36*
X1090000Y6100000D02*
Y5800000D01*
X1289991Y5600009D01*
X5530000Y5599991D01*
X5569991Y5560000D01*
X5570000Y5430000D01*
X5580000Y5420000D01*
X5600000Y5400000D01*
X5700000D01*
X5700000Y5300000D01*
X5520000D01*
X5430000Y5210000D01*
X4320000D01*
X4130000Y5020000D01*
X490000D01*
X280000Y5230000D01*
Y5950000D01*
X470000Y6140000D01*
X1049999D01*
X1090000Y6100000D01*
D02*
G37*
G36*
X5100000Y4880000D02*
Y4780000D01*
X5080000Y4760000D01*
Y4760000D01*
X5040000D01*
X5030000Y4770000D01*
X4859999D01*
X4840000Y4790000D01*
X4840000Y4880000D01*
X4860000Y4900000D01*
X5080000D01*
X5100000Y4880000D01*
D02*
G37*
G36*
X4180000Y4730000D02*
X4250000D01*
Y4630000D01*
X4190000D01*
X4070000Y4510000D01*
Y4430000D01*
X3720000D01*
X3700000Y4410000D01*
Y4220000D01*
X3800000Y4120000D01*
X3970000D01*
X4070000Y4020000D01*
Y3750000D01*
X3330000D01*
X2910000Y4170000D01*
X2700000Y4169999D01*
X2609999Y4260000D01*
X2440000Y4260000D01*
Y4290001D01*
X2450000Y4300000D01*
X2600000Y4300000D01*
X2640000Y4340000D01*
Y4560000D01*
X2710000Y4630000D01*
X3180000D01*
X3340000Y4790000D01*
X4120000D01*
X4180000Y4730000D01*
D02*
G37*
G36*
X4060000Y4340000D02*
Y4240000D01*
X3970000Y4150000D01*
X3920000D01*
X3920000Y4219999D01*
X3939999Y4239999D01*
X3940000Y4310000D01*
X3980000Y4350000D01*
X4050000D01*
X4060000Y4340000D01*
D02*
G37*
G36*
X3860000Y4300000D02*
Y4240000D01*
X3880000Y4220000D01*
X3880000Y4150000D01*
X3830000D01*
X3750000Y4229999D01*
X3750000Y4290000D01*
X3772500Y4312500D01*
X3847500D01*
X3860000Y4300000D01*
D02*
G37*
G36*
X6260000Y4350000D02*
Y4230000D01*
X6220000Y4190000D01*
X6080000Y4050000D01*
X5840000D01*
Y4390000D01*
X5860000Y4410000D01*
X6200000D01*
X6260000Y4350000D01*
D02*
G37*
G36*
X5370000Y3920000D02*
X5210000D01*
Y3970000D01*
X5230000Y3990000D01*
Y4050000D01*
X5370000D01*
Y3920000D01*
D02*
G37*
G36*
X5190000Y3985999D02*
X5185000D01*
Y3975000D01*
X5180000Y3970000D01*
Y3880000D01*
X5230000Y3830000D01*
Y3780000D01*
X5110000D01*
Y3830000D01*
X5120000Y3840000D01*
Y4020000D01*
X5150000Y4050000D01*
X5190000D01*
Y3985999D01*
D02*
G37*
G36*
X5580000Y3860000D02*
X5540000D01*
X5450000Y3770000D01*
X5330000Y3770000D01*
X5310000Y3790000D01*
X5310000Y3820000D01*
X5384000Y3894000D01*
X5394999D01*
Y3904999D01*
X5410000Y3920000D01*
Y3960000D01*
X5450000D01*
X5490000Y4000000D01*
X5580000D01*
Y3860000D01*
D02*
G37*
G36*
X6260000Y3980000D02*
Y3850000D01*
X6130000Y3720000D01*
X5540000D01*
X5500000Y3680000D01*
X5320000D01*
X5310000Y3690000D01*
Y3720000D01*
X5330000Y3740000D01*
X5470000D01*
X5540000Y3810000D01*
Y3820000D01*
X5590000D01*
X5620000Y3850000D01*
Y3910000D01*
X5770000D01*
X5830000Y3970000D01*
X5980000D01*
X6020000Y4010000D01*
X6230000D01*
X6260000Y3980000D01*
D02*
G37*
G36*
X5470000Y3640000D02*
X5950000Y3639999D01*
X5980000Y3610000D01*
Y3560000D01*
X5950000Y3530000D01*
X5490000Y3530000D01*
X5440000Y3580000D01*
X5310000D01*
Y3650000D01*
X5460000D01*
X5470000Y3640000D01*
D02*
G37*
G36*
X4830000Y3520000D02*
X4720000Y3410000D01*
X4372143Y3410000D01*
X4360000D01*
X4230000Y3280000D01*
Y3060000D01*
X4110000D01*
X4110000Y3250000D01*
X4150000Y3290000D01*
X4150000Y3330000D01*
X4210000Y3390000D01*
X4350000Y3530000D01*
X4550000Y3730000D01*
X4670000Y3849999D01*
X4730000Y3910000D01*
X4830000D01*
Y3520000D01*
D02*
G37*
G36*
X7250000Y3430000D02*
Y3235970D01*
X7225000Y3225614D01*
X7195307Y3255307D01*
X7180000Y3261648D01*
X6610000D01*
X6594693Y3255307D01*
X6594385Y3255000D01*
X6587500D01*
Y3248114D01*
X6564692Y3225307D01*
X6558352Y3209999D01*
Y3080000D01*
X6564692Y3064692D01*
X6584693Y3044692D01*
X6600000Y3038352D01*
X7190000D01*
X7205308Y3044693D01*
X7225000Y3064385D01*
X7250000Y3054030D01*
Y2350000D01*
X7200000Y2300000D01*
X6620000D01*
X6350000Y2570000D01*
X5663279D01*
X5649577Y2595000D01*
X5651648Y2600000D01*
Y2678165D01*
X5656536Y2692133D01*
X5674566Y2700000D01*
X5700710D01*
X5729999Y2729289D01*
Y2770710D01*
X5732486Y2782159D01*
X5759812Y2790187D01*
X5770000Y2780000D01*
X5770977D01*
X5770978Y2779999D01*
X5828968D01*
X5828968Y2780000D01*
X5830000D01*
X5860000Y2810000D01*
X6050000D01*
Y2828340D01*
X6642885D01*
X6774999Y2696226D01*
Y2571000D01*
X6793562D01*
X6803129Y2547903D01*
X6737701Y2482475D01*
X6725177Y2494999D01*
X6654761D01*
X6604969Y2445207D01*
Y2374791D01*
X6654761Y2324999D01*
X6725177D01*
X6774969Y2374791D01*
Y2430195D01*
X6882386Y2537612D01*
X6891659Y2559999D01*
Y2571000D01*
X6944999D01*
Y2741000D01*
X6819773D01*
X6705529Y2855243D01*
X6715096Y2878340D01*
X6774999D01*
Y2874792D01*
X6824791Y2825000D01*
X6895207D01*
X6897716Y2827509D01*
X7108340Y2616885D01*
Y2494999D01*
X7104792D01*
X7055000Y2445207D01*
Y2374791D01*
X7104792Y2324999D01*
X7175208D01*
X7225000Y2374791D01*
Y2445207D01*
X7175208Y2494999D01*
X7171660D01*
Y2629999D01*
X7162387Y2652385D01*
X6942490Y2872283D01*
X6944999Y2874792D01*
Y2945208D01*
X6895207Y2995000D01*
X6824791D01*
X6774999Y2945208D01*
Y2941660D01*
X6093114D01*
X6050000Y2984773D01*
Y3040000D01*
X5870000D01*
X5830000Y3080000D01*
X5770000D01*
X5747499Y3057499D01*
X5722499Y3067855D01*
Y3091789D01*
X5729999Y3099289D01*
Y3140710D01*
X5700710Y3170000D01*
X5659289D01*
X5630000Y3140710D01*
Y3099289D01*
X5637500Y3091789D01*
Y3050000D01*
X5330000D01*
X5310000Y3030000D01*
Y2790000D01*
X5315304Y2784696D01*
Y2716014D01*
X5310000Y2710711D01*
Y2669289D01*
X5339289Y2640000D01*
X5339385D01*
X5384385Y2595000D01*
X5374030Y2570000D01*
X5320000D01*
X5190000Y2700000D01*
Y3150000D01*
X5280000Y3240000D01*
X6360000D01*
X6600000Y3480000D01*
X7200000Y3480000D01*
X7250000Y3430000D01*
D02*
G37*
G36*
X5760000Y4260000D02*
X5560000D01*
X5440000Y4140000D01*
X5200000D01*
X5132500Y4072499D01*
X5127500D01*
Y4067500D01*
X5070000Y4010000D01*
Y3790000D01*
X5084536Y3775463D01*
X5088305Y3769823D01*
X5093945Y3766055D01*
X5209999Y3650000D01*
X5230000D01*
X5250000Y3630000D01*
Y3600000D01*
X5190000Y3540000D01*
X5120000D01*
X4840000Y3260000D01*
X4670000Y3260000D01*
X4560000Y3150000D01*
X4560000Y3100000D01*
X4550000Y3090000D01*
X4322500D01*
X4280000Y3132500D01*
Y3290000D01*
X4350000Y3360000D01*
X4749999D01*
X4880000Y3490000D01*
X4920000Y3530000D01*
X4920000Y3990000D01*
X5240000Y4310000D01*
X5330000Y4400000D01*
X5760000Y4400000D01*
Y4260000D01*
D02*
G37*
G36*
X7230000Y3190000D02*
Y3100000D01*
X7190000Y3060000D01*
X6600000D01*
X6580000Y3080000D01*
Y3209999D01*
X6610000Y3240000D01*
X7180000D01*
X7230000Y3190000D01*
D02*
G37*
G36*
X4067500Y3052500D02*
X4097500Y3022500D01*
X4220000D01*
Y2977499D01*
X4097500Y2977500D01*
X4060000Y2940000D01*
Y2850000D01*
X4020000Y2810000D01*
X3970000D01*
X3932500Y2847500D01*
X3932500Y3062500D01*
X3940000Y3070000D01*
X4067500D01*
Y3052500D01*
D02*
G37*
G36*
X4515589Y2964393D02*
X4270606D01*
X4257500Y2977500D01*
Y3022500D01*
X4257606Y3022606D01*
X4515589D01*
Y2964393D01*
D02*
G37*
G36*
X2610000Y3060000D02*
X2650000Y3020000D01*
Y2980000D01*
X2630000Y2960000D01*
X2410000D01*
X2390000Y2980000D01*
Y3020000D01*
X2430000Y3060000D01*
Y3160000D01*
X2610000D01*
Y3060000D01*
D02*
G37*
G36*
X4222500Y2795239D02*
X4084440D01*
Y2914440D01*
X4102485Y2932485D01*
X4222500D01*
X4222500Y2795239D01*
D02*
G37*
G36*
X4050000Y3189999D02*
X3710000D01*
X3680000Y3160000D01*
X3679999Y2899999D01*
X3580000Y2799999D01*
Y2760000D01*
X3570000Y2750000D01*
X2740001D01*
X2730000Y2760000D01*
Y2900000D01*
X3340000Y3510000D01*
X4050000D01*
Y3189999D01*
D02*
G37*
G36*
X4408296Y2895606D02*
X4515589D01*
Y2837393D01*
X4408296D01*
X4302500Y2731597D01*
Y2707499D01*
X4257500D01*
X4257500Y2932485D01*
X4371418D01*
X4408296Y2895606D01*
D02*
G37*
G36*
X4222500Y2752499D02*
Y2707499D01*
X4102330D01*
X4084440Y2725389D01*
Y2764759D01*
X4210240D01*
X4222500Y2752499D01*
D02*
G37*
G36*
X4690000Y3160000D02*
X4690000Y2710000D01*
X4670000Y2689999D01*
X4629999Y2690000D01*
X4610000Y2710000D01*
X4609999Y3160000D01*
X4630000Y3180000D01*
X4670000Y3180000D01*
X4690000Y3160000D01*
D02*
G37*
G36*
X5500000Y2740000D02*
X5540000Y2700000D01*
X5620000D01*
X5630000Y2690000D01*
Y2600000D01*
X5410000D01*
X5340000Y2670000D01*
Y2760000D01*
X5500000D01*
Y2740000D01*
D02*
G37*
G36*
X3660000Y2750000D02*
Y2650000D01*
X3620000Y2610000D01*
Y2550000D01*
X3560000Y2490000D01*
X3380000D01*
X3310000Y2560000D01*
X3260000D01*
X3209999Y2610001D01*
X3210000Y2720000D01*
X3570000Y2720000D01*
X3587500Y2737500D01*
X3592500D01*
Y2742500D01*
X3620000Y2770000D01*
X3640000D01*
X3660000Y2750000D01*
D02*
G37*
G36*
X2717501Y2742499D02*
Y2737500D01*
X2722500D01*
X2740000Y2720000D01*
X3100000D01*
Y2610000D01*
X3050000Y2560000D01*
X3000000D01*
X2930000Y2490000D01*
X2750000D01*
X2690000Y2550000D01*
Y2610000D01*
X2650000Y2650000D01*
Y2750000D01*
X2670000Y2770000D01*
X2690000D01*
X2717501Y2742499D01*
D02*
G37*
G36*
X3240000Y2389999D02*
X3260000Y2369999D01*
Y2259946D01*
Y2240054D01*
Y2240000D01*
X3258455Y2238455D01*
X3255250D01*
X3246178Y2236651D01*
X3238488Y2231512D01*
X3237477Y2229999D01*
X3062523D01*
X3061512Y2231512D01*
X3053821Y2236651D01*
X3044750Y2238455D01*
X3041544D01*
X3040000Y2239999D01*
Y2370000D01*
X3060000Y2390000D01*
X3240000Y2389999D01*
D02*
G37*
G36*
X3340000Y2220000D02*
X3330000Y2210000D01*
Y2200000D01*
X3290000D01*
X3280000Y2210000D01*
Y2238030D01*
X3280392Y2240000D01*
Y2240054D01*
Y2250000D01*
X3340000D01*
Y2220000D01*
D02*
G37*
G36*
X5070000Y2420000D02*
Y2260000D01*
X5100000Y2230000D01*
Y2210000D01*
X5080000Y2190000D01*
X5000000D01*
Y2270000D01*
X4980000Y2290000D01*
X4920000D01*
Y2440000D01*
X5050000D01*
X5070000Y2420000D01*
D02*
G37*
G36*
X2420000Y2240054D02*
Y2190000D01*
X2430000Y2180000D01*
X2620000D01*
X2650000Y2150000D01*
Y1970000D01*
X2640000Y1960000D01*
X2550000Y1960000D01*
X2520000Y1990000D01*
X2020000D01*
X1940000Y1910000D01*
Y1770000D01*
X1830000Y1660000D01*
Y1450000D01*
X1730000D01*
Y1660000D01*
X1620000Y1770000D01*
Y2240000D01*
X1940000D01*
X2000000Y2180000D01*
X2270000D01*
X2280000Y2190000D01*
Y2250000D01*
X2420000D01*
Y2240054D01*
D02*
G37*
G36*
X3310541Y1946692D02*
X3310542Y1841441D01*
X2985542D01*
X2985541Y1946692D01*
X3060041Y2021192D01*
X3236042D01*
X3310541Y1946692D01*
D02*
G37*
G36*
X2640000Y1820000D02*
X2550000Y1730000D01*
X2289999D01*
X2270000Y1750000D01*
X2270000Y1880000D01*
X2290000Y1900000D01*
X2550000D01*
X2580000Y1930000D01*
X2640000D01*
Y1820000D01*
D02*
G37*
G36*
X3333041Y1791442D02*
X3348042Y1776442D01*
Y1736442D01*
X3328042Y1716442D01*
X2968041D01*
X2948042Y1736442D01*
Y1776442D01*
X2963042Y1791442D01*
X3333041Y1791442D01*
D02*
G37*
G36*
X4550000Y2750000D02*
Y2700000D01*
X4680000Y2570000D01*
X4800000D01*
X4820000Y2550000D01*
Y1940000D01*
X5220000Y1939999D01*
X5250000Y1970000D01*
X5880000Y1969999D01*
X5920000Y1930000D01*
Y1700000D01*
X5870000Y1650000D01*
X5260000D01*
X5220000Y1689999D01*
X4830000Y1690000D01*
X4710000D01*
Y2260000D01*
X4670000Y2300000D01*
Y2430000D01*
X4610000Y2490000D01*
X4460000D01*
X4370000Y2490000D01*
X4330000Y2450000D01*
X4260000D01*
X4250000Y2460000D01*
Y2660000D01*
X4260000Y2670000D01*
X4310000D01*
X4370000Y2730000D01*
Y2750000D01*
X4390000Y2770000D01*
X4530000D01*
X4550000Y2750000D01*
D02*
G37*
G36*
X4970000Y2180000D02*
X4975001Y2174999D01*
Y2174000D01*
X4976000D01*
X4990000Y2160000D01*
X6030000D01*
X6140000Y2050000D01*
Y1630000D01*
X6090000Y1580000D01*
X6050000D01*
X6000000Y1630000D01*
Y1950000D01*
X6010000Y1960000D01*
X5960000Y2010000D01*
X5060000D01*
X5030000Y1980000D01*
X4900000D01*
X4880000Y2000000D01*
Y2220000D01*
X4910000Y2250000D01*
X4970000D01*
Y2180000D01*
D02*
G37*
G36*
X5980000Y1550000D02*
X6130000D01*
X6150000Y1530000D01*
Y1440000D01*
X6130000Y1420000D01*
X5750000D01*
Y1580000D01*
X5790000Y1620000D01*
X5910000D01*
X5980000Y1550000D01*
D02*
G37*
G36*
X3418042Y1526441D02*
Y1436441D01*
X3368042Y1386441D01*
X3278042Y1386441D01*
X3270000Y1394484D01*
Y1438399D01*
X3278042Y1446441D01*
X3308042D01*
X3338042Y1476441D01*
Y1526441D01*
X3348042Y1536441D01*
X3408042D01*
X3418042Y1526441D01*
D02*
G37*
G36*
X2958042D02*
Y1476441D01*
X2988042Y1446441D01*
X3018042D01*
X3048042Y1416441D01*
X3018042Y1386441D01*
X2928042Y1386441D01*
X2878043Y1436441D01*
Y1526441D01*
X2888043Y1536441D01*
X2948042D01*
X2958042Y1526441D01*
D02*
G37*
G36*
X3869999Y3100000D02*
X3870000Y2930000D01*
X3890000Y2910000D01*
Y2730000D01*
X3950000Y2670000D01*
X4210000D01*
Y2440000D01*
X4230000Y2420000D01*
X4340000D01*
X4360000Y2440000D01*
X4590000D01*
X4620000Y2410000D01*
Y1240000D01*
X4460000D01*
Y2070000D01*
X3840000Y2690000D01*
X3770000Y2760000D01*
X3720000Y2810000D01*
Y3100000D01*
X3740000Y3120000D01*
X3850000D01*
X3869999Y3100000D01*
D02*
G37*
G36*
X2350000Y1360000D02*
Y1100000D01*
X2300000Y1050000D01*
X2180000Y1050000D01*
Y1420000D01*
X2220000Y1460000D01*
X2250000D01*
X2350000Y1360000D01*
D02*
G37*
G36*
X5350000Y1270000D02*
Y990000D01*
X5080000D01*
X5060000Y1010000D01*
Y1380000D01*
X5240000D01*
X5350000Y1270000D01*
D02*
G37*
G36*
X5040000Y1500000D02*
X4970000Y1430000D01*
Y1010000D01*
X4950000Y990000D01*
X4630000D01*
X4540000Y1080000D01*
Y1190000D01*
X4710000D01*
Y1580000D01*
X4770000Y1640000D01*
X5040000D01*
Y1500000D01*
D02*
G37*
G36*
X2090000Y1630000D02*
Y1030000D01*
X2260000Y860000D01*
Y370000D01*
X2170000Y280000D01*
X1930000D01*
X1830000Y380000D01*
Y1120000D01*
X1850000Y1140000D01*
Y1390000D01*
X1900000Y1440000D01*
X1900000Y1620000D01*
X1950000Y1670000D01*
X2050000D01*
X2090000Y1630000D01*
D02*
G37*
G36*
X1600000Y1520000D02*
X1710000Y1410000D01*
X1770000Y1350000D01*
Y380000D01*
X1670000Y280000D01*
X1410000D01*
X1320000Y370000D01*
Y1050000D01*
X1500000Y1230000D01*
Y1660000D01*
X1600000D01*
Y1520000D01*
D02*
G37*
D10*
X5170000Y4030000D02*
D03*
X5250000D02*
D03*
X4200000Y2909985D02*
D03*
X4280000D02*
D03*
X5640000Y3980000D02*
D03*
X5560000D02*
D03*
X5640000Y3890000D02*
D03*
X5560000D02*
D03*
X4120000Y2890000D02*
D03*
X4040000D02*
D03*
X3110000Y1599999D02*
D03*
X3190000D02*
D03*
X3270000Y1419999D02*
D03*
X3190000D02*
D03*
X3030000D02*
D03*
X3110000D02*
D03*
X4200000Y3000000D02*
D03*
X4280000D02*
D03*
X4200000Y2729999D02*
D03*
X4280000D02*
D03*
X3950000Y2890000D02*
D03*
X3870000D02*
D03*
X4280000Y2819999D02*
D03*
X4200000D02*
D03*
X5999999Y2860000D02*
D03*
X5920000D02*
D03*
X6000000Y2990000D02*
D03*
X5920000D02*
D03*
X3940000Y4170000D02*
D03*
X3860000D02*
D03*
D11*
X4965000Y2370023D02*
D03*
X4775000D02*
D03*
X2235000Y1319999D02*
D03*
X2044999D02*
D03*
X2235000Y1119999D02*
D03*
X2044999D02*
D03*
X1905000Y1219999D02*
D03*
X1715000D02*
D03*
X4765000Y2159976D02*
D03*
X4575000D02*
D03*
X4575000Y1760000D02*
D03*
X4765000D02*
D03*
X4575000Y1960000D02*
D03*
X4765000D02*
D03*
X4975000Y3609999D02*
D03*
X4785000D02*
D03*
X4975000Y3809999D02*
D03*
X4785000D02*
D03*
X4574999Y1510000D02*
D03*
X4765000D02*
D03*
X4575000Y1310000D02*
D03*
X4765000D02*
D03*
X5105000D02*
D03*
X4915000D02*
D03*
D12*
X4461943Y2739499D02*
D03*
Y2866499D02*
D03*
Y2993499D02*
D03*
Y3120499D02*
D03*
X5418057D02*
D03*
Y2993499D02*
D03*
Y2866499D02*
D03*
D13*
Y2739499D02*
D03*
D14*
X3150000Y2130000D02*
D03*
D15*
X3225000Y1985000D02*
D03*
X3075000D02*
D03*
X3125000D02*
D03*
X3175000D02*
D03*
X3075000Y2275000D02*
D03*
X3125000D02*
D03*
X3225000D02*
D03*
X3175000D02*
D03*
D16*
X3005000Y2105000D02*
D03*
Y2154999D02*
D03*
Y2054999D02*
D03*
Y2205000D02*
D03*
X3295000Y2154999D02*
D03*
Y2105000D02*
D03*
Y2054999D02*
D03*
Y2205000D02*
D03*
D17*
X2520000Y3392501D02*
D03*
Y3107501D02*
D03*
Y3842501D02*
D03*
Y3557501D02*
D03*
D18*
X5348999Y3940000D02*
D03*
X5431000D02*
D03*
X5149000Y3939999D02*
D03*
X5231000D02*
D03*
X4939001Y2220000D02*
D03*
X5021001D02*
D03*
X3361000Y1510000D02*
D03*
X3278999D02*
D03*
X2938999D02*
D03*
X3021001D02*
D03*
X3108999D02*
D03*
X3191000D02*
D03*
D19*
X2449976Y1854999D02*
D03*
Y2044999D02*
D03*
X5650000Y3585000D02*
D03*
Y3775000D02*
D03*
X5850000Y3584999D02*
D03*
Y3775000D02*
D03*
X6910000Y3185000D02*
D03*
Y3375000D02*
D03*
X6680000Y3185000D02*
D03*
Y3375000D02*
D03*
X5910000Y3914999D02*
D03*
Y4104999D02*
D03*
D20*
X2349971Y2249999D02*
D03*
D21*
X1780000Y2142499D02*
D03*
D22*
X2010000Y1557499D02*
D03*
X1780000D02*
D03*
X1550000D02*
D03*
D23*
X2440000Y5514999D02*
D03*
Y5945000D02*
D03*
X1600000Y5514999D02*
D03*
Y5945000D02*
D03*
X4120000D02*
D03*
Y5514999D02*
D03*
X3700000Y5945000D02*
D03*
Y5514999D02*
D03*
X4960000Y5945001D02*
D03*
Y5514999D02*
D03*
X3280000Y5945000D02*
D03*
Y5514999D02*
D03*
X5380000Y5945001D02*
D03*
Y5514999D02*
D03*
X2860000Y5945000D02*
D03*
Y5514999D02*
D03*
X2020000Y5945000D02*
D03*
Y5514999D02*
D03*
X4540000Y5945001D02*
D03*
Y5514999D02*
D03*
D24*
X2930000Y4400000D02*
D03*
D25*
X4000000Y4312500D02*
D03*
X3800000D02*
D03*
X3400000Y5107500D02*
D03*
X3600000D02*
D03*
X3800000D02*
D03*
X4000000D02*
D03*
X3600000Y4312500D02*
D03*
X3400000D02*
D03*
X4000000Y3042500D02*
D03*
X3800000D02*
D03*
X3600000D02*
D03*
X3400000D02*
D03*
X3600000Y3837500D02*
D03*
X3400000D02*
D03*
X3800000D02*
D03*
X4000000D02*
D03*
D26*
X3700000Y4619000D02*
D03*
Y3348999D02*
D03*
D27*
X4120000Y2814924D02*
D03*
Y2745074D02*
D03*
D28*
X2520000Y3962500D02*
D03*
Y4277500D02*
D03*
D29*
X5712500Y2650000D02*
D03*
X5587500D02*
D03*
X4312500Y3220000D02*
D03*
X4187500D02*
D03*
X4312500Y3100000D02*
D03*
X4187500D02*
D03*
X4292499Y2620000D02*
D03*
X4167499D02*
D03*
X4292499Y2500000D02*
D03*
X4167499D02*
D03*
D30*
X4205000Y4680001D02*
D03*
X4775000D02*
D03*
X5655000Y5349998D02*
D03*
X6225001D02*
D03*
D31*
X4959999Y1579999D02*
D03*
Y1809999D02*
D03*
Y2039999D02*
D03*
D32*
X5600000Y1809999D02*
D03*
D33*
X5169961Y3805000D02*
D03*
X5390038D02*
D03*
X5169961Y3615000D02*
D03*
X5390038Y3710000D02*
D03*
D34*
Y3615000D02*
D03*
D35*
X5360000Y4229977D02*
D03*
D36*
X5690000Y4129977D02*
D03*
Y4329977D02*
D03*
D37*
X5680000Y2870000D02*
D03*
Y2790000D02*
D03*
X5590000D02*
D03*
Y2870000D02*
D03*
X6070000Y1610000D02*
D03*
Y1529999D02*
D03*
X4970000Y4790000D02*
D03*
Y4710000D02*
D03*
X4880000Y4790000D02*
D03*
Y4710000D02*
D03*
X3460000Y1989999D02*
D03*
Y1909999D02*
D03*
X2900000Y2339999D02*
D03*
Y2260000D02*
D03*
X3410000Y2339999D02*
D03*
Y2260000D02*
D03*
X2840000Y1989999D02*
D03*
Y1909999D02*
D03*
X2900000Y2169999D02*
D03*
Y2090000D02*
D03*
X3400000D02*
D03*
Y2169999D02*
D03*
X3310000Y2700000D02*
D03*
Y2780000D02*
D03*
X3470000Y2700000D02*
D03*
Y2780000D02*
D03*
X3390000Y2700000D02*
D03*
Y2780000D02*
D03*
X2920000Y2700000D02*
D03*
Y2780000D02*
D03*
X2760000Y2700000D02*
D03*
Y2780000D02*
D03*
X2840000Y2700000D02*
D03*
Y2780000D02*
D03*
X3000000Y2700000D02*
D03*
Y2780000D02*
D03*
X3230000Y2700000D02*
D03*
Y2780000D02*
D03*
X3080000Y2700000D02*
D03*
Y2780000D02*
D03*
X3550000Y2700000D02*
D03*
Y2780000D02*
D03*
X5680000Y3069999D02*
D03*
Y2990000D02*
D03*
X5590000Y3069999D02*
D03*
Y2990000D02*
D03*
X6330001Y5459998D02*
D03*
Y5379998D02*
D03*
X6420000Y5459998D02*
D03*
Y5379998D02*
D03*
D38*
X3809977Y4029999D02*
D03*
X4149965Y4169999D02*
D03*
X3989970Y2759999D02*
D03*
X3809976D02*
D03*
X3159968Y2889998D02*
D03*
D39*
X2599977Y1908999D02*
D03*
Y1990999D02*
D03*
X3370000Y1908999D02*
D03*
Y1991000D02*
D03*
X2930000Y1908999D02*
D03*
Y1991000D02*
D03*
D40*
X5799973Y2849999D02*
D03*
X5799975Y3009999D02*
D03*
D41*
X5960000Y2089999D02*
D03*
D42*
X6060000Y1760000D02*
D03*
X5860000D02*
D03*
D43*
X3030000Y1757500D02*
D03*
Y1882499D02*
D03*
X3270000Y1757500D02*
D03*
Y1882499D02*
D03*
X3150000Y1757500D02*
D03*
Y1882499D02*
D03*
X4510000Y3317500D02*
D03*
Y3442500D02*
D03*
X4390000Y3317500D02*
D03*
Y3442500D02*
D03*
X4410000Y2532499D02*
D03*
Y2407499D02*
D03*
X4530000Y2532499D02*
D03*
Y2407499D02*
D03*
D44*
X2520000Y5170000D02*
D03*
D45*
X3790000Y2789289D02*
X3794669Y2784620D01*
X3790000Y2867294D02*
X3810000Y2887294D01*
X3794669Y2735306D02*
X3809976Y2719999D01*
X3794669Y2735306D02*
Y2784620D01*
X3790000Y2789289D02*
Y2867294D01*
X3810000Y2887294D02*
Y2890000D01*
D46*
X5170000Y4050000D02*
X5220000Y4100000D01*
X5660023D01*
X3989970Y2859970D02*
X3990000Y2860000D01*
X3989970Y2759999D02*
Y2859970D01*
X5590000Y2750000D02*
X5590000Y2750000D01*
X5590000Y2750000D02*
Y2790000D01*
X6330001Y5379998D02*
X6420000D01*
X6225001Y5349998D02*
X6255001Y5379998D01*
X6330001D01*
X2520000Y3392501D02*
Y3557501D01*
X2520000Y3842501D02*
X2520000Y3842501D01*
X2520000Y3842501D02*
Y3962500D01*
X4810000Y4710000D02*
X4880000D01*
X4970000D01*
X3940000Y4170000D02*
X4150000D01*
X3940000Y4170000D02*
X3940000Y4170000D01*
X5590000Y3070999D02*
Y3120000D01*
D47*
X3409999Y2340000D02*
X3410000D01*
X3390837Y2359162D02*
X3409999Y2340000D01*
X3390837Y2359162D02*
Y2359162D01*
X3380000Y2369999D02*
X3390837Y2359162D01*
X2900000Y2340000D02*
X2900000D01*
X2930000Y2369999D01*
X3408042Y2176442D02*
Y2258041D01*
X3410000Y2260000D01*
X2898041Y2166441D02*
Y2258041D01*
X2900000Y2260000D01*
X5680000Y2750000D02*
Y2790000D01*
X7140000Y2409999D02*
Y2629999D01*
X6860000Y2909999D02*
X7140000Y2629999D01*
X6860000Y2909999D02*
Y2910000D01*
X6690000Y2410000D02*
X6710000D01*
X6859999Y2559999D01*
Y2656000D01*
X4780000Y4680000D02*
X4810000Y4710000D01*
X3370000Y1908999D02*
X3370000Y1908998D01*
Y1860000D02*
Y1908998D01*
X2930000Y1860000D02*
Y1910000D01*
X3190000Y1380000D02*
Y1419999D01*
X3530000Y809999D02*
Y1040000D01*
X3190000Y1380000D02*
X3530000Y1040000D01*
X2770000Y809999D02*
Y1039999D01*
X3110000Y1379999D02*
Y1419999D01*
X2770000Y1039999D02*
X3110000Y1379999D01*
X3188542Y1419999D02*
Y1505941D01*
X3107541Y1419999D02*
Y1505941D01*
X3320001Y2369999D02*
X3380000D01*
X3180000Y2510000D02*
Y2709163D01*
Y2510000D02*
X3320001Y2369999D01*
X3180000Y2709163D02*
X3190837Y2720000D01*
X3210000D02*
X3230000Y2700000D01*
X3190837Y2720000D02*
X3210000D01*
X3221919Y2691918D02*
X3230000Y2700000D01*
X3140000Y2540000D02*
Y2760000D01*
X2969999Y2369999D02*
X3140000Y2540000D01*
X2930000Y2369999D02*
X2969999D01*
X6000000Y2990000D02*
X6080000Y2910000D01*
X6859999D01*
X6655999Y2860000D02*
X6859999Y2656000D01*
X6000000Y2860000D02*
X6655999D01*
X5685000Y2865000D02*
X5915000D01*
X5590000Y2870000D02*
X5680000D01*
X5915000Y2865000D02*
X5920000Y2860000D01*
X5408057Y2866499D02*
X5409807Y2868250D01*
X5419807D02*
X5588250D01*
X5590000Y2870000D01*
X5410000Y2990000D02*
X5411750Y2991750D01*
X5588250D02*
X5590000Y2990000D01*
X5421750Y2991750D02*
X5588250D01*
X5680000Y2990000D02*
X5920000D01*
X5590000D02*
X5680000D01*
Y3069900D02*
Y3120000D01*
X3398041Y2166441D02*
X3408042Y2176442D01*
X3398041Y2086442D02*
X3458042Y2026441D01*
X3383041Y2151441D02*
X3398041Y2166441D01*
X3188542Y1506942D02*
X3189042Y1506441D01*
X3188542Y1506942D02*
Y1595941D01*
Y1505941D02*
X3189042Y1506441D01*
X2838042Y1756442D02*
X2998542Y1595942D01*
X2838042Y1986442D02*
Y2026442D01*
Y1756442D02*
Y1906442D01*
X3019041Y1506441D02*
X3019042Y1506441D01*
X3107041D02*
X3107541Y1506942D01*
X3107041Y1506441D02*
X3107541Y1505941D01*
X3019042Y1506441D02*
X3107041D01*
X3107541Y1506942D02*
Y1595942D01*
X2998542D02*
X3107541D01*
X3188041Y1596442D02*
X3298041D01*
X3107541Y1595942D02*
X3108041Y1596442D01*
X3188041D02*
X3188542Y1595941D01*
X2913041Y2151441D02*
X3003041D01*
X3458042Y1756442D02*
Y1906442D01*
Y1986442D02*
Y2026441D01*
X3298041Y1596442D02*
X3458042Y1756442D01*
X3189042Y1506441D02*
X3277041D01*
X2838042Y2026442D02*
X2898041Y2086442D01*
Y2166441D02*
X2913041Y2151441D01*
X3293041D02*
X3383041D01*
D48*
X5149000Y3822361D02*
X5166361Y3805000D01*
X5169961D01*
X5660023Y4100000D02*
X5690000Y4129977D01*
D49*
X5640000Y3980000D02*
X5700000D01*
X4960000Y2040000D02*
X4980000D01*
D50*
X3383041Y2101442D02*
X3398041Y2086442D01*
X2928041Y1987442D02*
X2941541Y2000942D01*
Y2019941D01*
X2973041Y2051441D02*
X3003041D01*
X2913041Y2101442D02*
X3003041D01*
X2941541Y2019941D02*
X2973041Y2051441D01*
X3323042D02*
X3354541Y2019942D01*
Y2000942D02*
X3368041Y1987442D01*
X3354541Y2000942D02*
Y2019942D01*
X2898041Y2086442D02*
X2913041Y2101442D01*
X3293041D02*
X3383041D01*
X3293041Y2051441D02*
X3323042D01*
D51*
X2537500Y6659999D02*
D03*
X1902500D02*
D03*
X854998Y5987500D02*
D03*
Y5352500D02*
D03*
D52*
X3599970Y6300000D02*
D03*
X1700000Y829999D02*
D03*
X2050000Y400000D02*
D03*
X1540000D02*
D03*
X4579978Y3630000D02*
D03*
X5989977Y5799999D02*
D03*
X3700000Y1500000D02*
D03*
X6859999Y2910000D02*
D03*
X7140000Y2409999D02*
D03*
X2600000Y1500000D02*
D03*
X6689969Y2409999D02*
D03*
X5849958Y1519998D02*
D03*
X1979961Y4499998D02*
D03*
X4619962Y4399998D02*
D03*
X5919964Y4299998D02*
D03*
X2599965Y2300000D02*
D03*
X4849999Y1090000D02*
D03*
X6160000Y3910000D02*
D03*
X5279999Y1090000D02*
D03*
X6159999Y4300000D02*
D03*
X4400000Y2239999D02*
D03*
X6359999Y3059999D02*
D03*
X3700000Y2300000D02*
D03*
X7140000Y3380000D02*
D03*
X7140000Y3150000D02*
D03*
D53*
X3110000Y2090000D02*
D03*
X3190000D02*
D03*
Y2169999D02*
D03*
X3110000D02*
D03*
D54*
X1900000Y829999D02*
D03*
D55*
X6859999Y2656000D02*
D03*
D56*
X3785270Y1065269D02*
D03*
Y554729D02*
D03*
X3274730D02*
D03*
Y1065269D02*
D03*
X3025270D02*
D03*
Y554729D02*
D03*
X2514730Y1065269D02*
D03*
Y554729D02*
D03*
D57*
X3530000Y809999D02*
D03*
X2770000D02*
D03*
D58*
X500000Y7000000D02*
D03*
X7000000D02*
D03*
X500000Y500000D02*
D03*
X7000000D02*
D03*
D59*
X3310000Y2250000D02*
D03*
X3150001Y6600000D02*
D03*
X5850000D02*
D03*
X5550001D02*
D03*
X4350000D02*
D03*
X4050000D02*
D03*
X3750000D02*
D03*
X3450000D02*
D03*
X4650000D02*
D03*
X4950000D02*
D03*
X5250000D02*
D03*
X2249999Y6599998D02*
D03*
X1649999D02*
D03*
X4190000Y3280000D02*
D03*
X4650000Y3150000D02*
D03*
X5070000Y2220000D02*
D03*
X5170000Y6110000D02*
D03*
X1550000Y6040000D02*
D03*
X1700000Y6110000D02*
D03*
X1650000Y6040000D02*
D03*
X1500000Y6110000D02*
D03*
X1600000D02*
D03*
X1450000Y6040000D02*
D03*
X1750000D02*
D03*
X2020000Y6110000D02*
D03*
X1810000Y6110000D02*
D03*
X2070000Y6040000D02*
D03*
X1870000D02*
D03*
X1970000D02*
D03*
X2120000Y6110000D02*
D03*
X1920000D02*
D03*
X2170000Y6040000D02*
D03*
X2230000Y6110000D02*
D03*
X2340000Y6110000D02*
D03*
X2290000Y6040000D02*
D03*
X2440000Y6110000D02*
D03*
X2590000Y6040000D02*
D03*
X2390000D02*
D03*
X2540000Y6110000D02*
D03*
X2490000Y6040000D02*
D03*
X2650000Y6110000D02*
D03*
X3070000D02*
D03*
X3490000D02*
D03*
X4750000D02*
D03*
X4330000D02*
D03*
X3910000D02*
D03*
X6150000Y5090000D02*
D03*
X2400000Y2700000D02*
D03*
X6599998Y5699998D02*
D03*
X6299998Y6299998D02*
D03*
X6449998Y5999998D02*
D03*
X6299998Y5699998D02*
D03*
X5999998Y6299998D02*
D03*
X6149998Y5999998D02*
D03*
X5699998Y6299998D02*
D03*
X5849998Y5999998D02*
D03*
X5399998Y6299998D02*
D03*
X5099998D02*
D03*
X4799999D02*
D03*
X4499999D02*
D03*
X4199999D02*
D03*
X3899999D02*
D03*
Y2099999D02*
D03*
Y1500000D02*
D03*
Y300000D02*
D03*
X3599999Y2099999D02*
D03*
X3749999Y1799999D02*
D03*
X3599999Y300000D02*
D03*
X3299999Y6299998D02*
D03*
Y300000D02*
D03*
X2999999Y6299998D02*
D03*
Y300000D02*
D03*
X2699999Y6299998D02*
D03*
Y300000D02*
D03*
X2399999Y6299998D02*
D03*
Y1500000D02*
D03*
Y300000D02*
D03*
X2099999Y6299998D02*
D03*
Y3899999D02*
D03*
Y3299999D02*
D03*
X2249999Y2999999D02*
D03*
X2099999Y2699999D02*
D03*
X2249999Y2399999D02*
D03*
X1799999Y6299998D02*
D03*
Y4499999D02*
D03*
X1949999Y4199999D02*
D03*
X1799999Y3899999D02*
D03*
X1949999Y3599999D02*
D03*
X1799999Y3299999D02*
D03*
X1949999Y2999999D02*
D03*
X1799999Y2699999D02*
D03*
X1949999Y2399999D02*
D03*
X1799999Y300000D02*
D03*
X1500000Y6299998D02*
D03*
Y4499999D02*
D03*
X1649999Y4199999D02*
D03*
X1500000Y3899999D02*
D03*
X1649999Y3599999D02*
D03*
X1500000Y3299999D02*
D03*
X1649999Y2999999D02*
D03*
X1500000Y2699999D02*
D03*
X1649999Y2399999D02*
D03*
X1500000Y2099999D02*
D03*
X6150000Y4830000D02*
D03*
X5850000D02*
D03*
X5550000D02*
D03*
X5270000Y4830000D02*
D03*
X5700000Y4960000D02*
D03*
X5990000D02*
D03*
X6300000D02*
D03*
X7190000Y2940000D02*
D03*
Y2740000D02*
D03*
X6920000Y2480000D02*
D03*
Y2360000D02*
D03*
X2680000Y2740000D02*
D03*
X3630000Y2660000D02*
D03*
X2680000D02*
D03*
X3390000Y2520000D02*
D03*
X3470000D02*
D03*
X3550000D02*
D03*
X2920000D02*
D03*
X2840000D02*
D03*
X2760000D02*
D03*
X2720000Y2590000D02*
D03*
X3590000D02*
D03*
X4100000Y2560000D02*
D03*
Y2640000D02*
D03*
Y2470000D02*
D03*
X4180000Y2560000D02*
D03*
X4300000Y3420000D02*
D03*
Y2300000D02*
D03*
X4310000Y2380000D02*
D03*
X4230000Y2360000D02*
D03*
X4170000Y2410000D02*
D03*
X4580000Y2060000D02*
D03*
X4590000Y1860000D02*
D03*
X4580000Y1410000D02*
D03*
X4490000D02*
D03*
Y1630000D02*
D03*
X4500000Y1860000D02*
D03*
X4530000Y2260000D02*
D03*
X4500000Y2060000D02*
D03*
X4640000Y3760000D02*
D03*
X4720000Y3810000D02*
D03*
Y3710000D02*
D03*
X4780000Y3520000D02*
D03*
X4660000D02*
D03*
X4710000Y3450000D02*
D03*
X4610000D02*
D03*
X4130000Y3240000D02*
D03*
Y3080000D02*
D03*
X4210000Y3160000D02*
D03*
X4130000D02*
D03*
X3750000Y2850000D02*
D03*
X3810000Y3050000D02*
D03*
X3750000Y3090000D02*
D03*
X4230000Y3350000D02*
D03*
X4040000Y2940000D02*
D03*
X3950000D02*
D03*
X3810000Y2970000D02*
D03*
X3630000Y2740000D02*
D03*
X3810000Y2890000D02*
D03*
X3750000Y2930000D02*
D03*
X4820000Y4430000D02*
D03*
X5060000Y4790000D02*
D03*
X4560000Y4210000D02*
D03*
X4730000Y4550000D02*
D03*
X4940000D02*
D03*
X6450000Y3240000D02*
D03*
X5820000Y3200000D02*
D03*
X5990000D02*
D03*
X6170000D02*
D03*
X6510000Y2700000D02*
D03*
X6320000D02*
D03*
X6120000D02*
D03*
X5920000D02*
D03*
X5590000Y2750000D02*
D03*
X1370000Y400000D02*
D03*
X1700000D02*
D03*
X1370000Y570000D02*
D03*
X1700000D02*
D03*
X1540000D02*
D03*
X5460000Y2680000D02*
D03*
X2610000Y3000000D02*
D03*
X2430000D02*
D03*
X2520000D02*
D03*
X2470000Y2250000D02*
D03*
X2190000Y1900000D02*
D03*
X2230000Y2240000D02*
D03*
X3270000Y1950000D02*
D03*
X3030000D02*
D03*
X2960000Y6110000D02*
D03*
X2760000D02*
D03*
X2860000D02*
D03*
X3380000D02*
D03*
X3180000D02*
D03*
X3280000D02*
D03*
X3800000D02*
D03*
X3600000D02*
D03*
X3700000D02*
D03*
X4220000D02*
D03*
X4020000D02*
D03*
X4120000D02*
D03*
X4640000D02*
D03*
X4440000D02*
D03*
X4540000D02*
D03*
X5060000D02*
D03*
X4860000D02*
D03*
X4960000D02*
D03*
X5380000D02*
D03*
X5280000D02*
D03*
X5480000D02*
D03*
X5530000Y6040000D02*
D03*
X5330000D02*
D03*
X5430000D02*
D03*
X5230000D02*
D03*
X4490000D02*
D03*
X4690000D02*
D03*
X4590000D02*
D03*
X4390000D02*
D03*
X3970000D02*
D03*
X4070000D02*
D03*
X4170000D02*
D03*
X4270000D02*
D03*
X3230000D02*
D03*
X3130000D02*
D03*
X3330000D02*
D03*
X3430000D02*
D03*
X3750000D02*
D03*
X4910000D02*
D03*
X2810000D02*
D03*
X2710000D02*
D03*
X5110000D02*
D03*
X3850000D02*
D03*
X3010000D02*
D03*
X3550000D02*
D03*
X3650000D02*
D03*
X4810000D02*
D03*
X2910000D02*
D03*
X5010000D02*
D03*
X5680000Y2750000D02*
D03*
X5540000Y2650000D02*
D03*
X5360000Y2690000D02*
D03*
X6630000Y3120000D02*
D03*
X6730000D02*
D03*
X6860000D02*
D03*
X6960000D02*
D03*
X6330000Y5540000D02*
D03*
X6420000D02*
D03*
X6510000D02*
D03*
X6240000D02*
D03*
X5060000Y4870000D02*
D03*
X4970000D02*
D03*
X4880000D02*
D03*
X1630000Y1180000D02*
D03*
Y1270000D02*
D03*
X1550000Y1420000D02*
D03*
X1630000Y1370000D02*
D03*
X2230000Y1420000D02*
D03*
X2310000Y1120000D02*
D03*
Y1320000D02*
D03*
X3370000Y1860000D02*
D03*
X2930000D02*
D03*
X2600000Y2140000D02*
D03*
Y1840000D02*
D03*
X2500000Y1770000D02*
D03*
X2400000D02*
D03*
X2300000D02*
D03*
Y1860000D02*
D03*
X2400000Y2140000D02*
D03*
X2300000D02*
D03*
Y2030000D02*
D03*
X2500000Y2140000D02*
D03*
X2600000Y2050000D02*
D03*
X5290000Y3940000D02*
D03*
X6040000Y4100000D02*
D03*
X5550000Y3580000D02*
D03*
X5950000D02*
D03*
X5750000D02*
D03*
X5700000Y3980000D02*
D03*
X5340000Y4010000D02*
D03*
X4720000Y3610000D02*
D03*
X4510000Y3510000D02*
D03*
X5170000Y1270000D02*
D03*
Y1350000D02*
D03*
X5040000Y2410000D02*
D03*
Y2320000D02*
D03*
X6110000Y1470000D02*
D03*
X6020000D02*
D03*
X4590000Y2310000D02*
D03*
X4570000Y1630000D02*
D03*
X4510000Y1310000D02*
D03*
Y1510000D02*
D03*
Y1760000D02*
D03*
Y1960000D02*
D03*
Y2160000D02*
D03*
X4410000Y2360000D02*
D03*
X4530000D02*
D03*
X4390000Y3510000D02*
D03*
X2800000Y2590000D02*
D03*
X2880000D02*
D03*
X2960000D02*
D03*
X3040000D02*
D03*
X3510000Y2590000D02*
D03*
X3270000D02*
D03*
X3350000D02*
D03*
X3430000D02*
D03*
X5760000Y2650000D02*
D03*
X5470000Y3210000D02*
D03*
X5370000D02*
D03*
X5230000Y3130000D02*
D03*
Y3030000D02*
D03*
Y2930000D02*
D03*
Y2830000D02*
D03*
Y2730000D02*
D03*
X4650000D02*
D03*
Y2830000D02*
D03*
Y2930000D02*
D03*
Y3040000D02*
D03*
X3080000Y2660000D02*
D03*
X3550000D02*
D03*
X3470000D02*
D03*
X3390000D02*
D03*
X3310000D02*
D03*
X2760000D02*
D03*
X2840000D02*
D03*
X2920000D02*
D03*
X3000000D02*
D03*
X3230000D02*
D03*
X6630000Y3430000D02*
D03*
X6730000D02*
D03*
X6960000D02*
D03*
X6860000D02*
D03*
X3750000Y3010000D02*
D03*
X5590000Y3120000D02*
D03*
X5680000D02*
D03*
X3071841Y2355042D02*
D03*
X3086200Y1879899D02*
D03*
X3213200D02*
D03*
X3088042Y1756441D02*
D03*
X3208042D02*
D03*
X2968042D02*
D03*
X3298042Y1416441D02*
D03*
X3150000Y2355042D02*
D03*
X2908042Y1506441D02*
D03*
X2928042Y1436441D02*
D03*
X3224241Y2355042D02*
D03*
X3388042Y1506441D02*
D03*
X3328042Y1756441D02*
D03*
X3368042Y1436441D02*
D03*
X2998042Y1416441D02*
D03*
%TF.MD5,69ec8abdd0a6b8713402008a28e78d73*%
M02*
