M48
;Layer_Color=9474304
;FILE_FORMAT=4:4
METRIC,TZ
;TYPE=PLATED
T1F00S00C0.3000
T2F00S00C0.8000
T3F00S00C1.4000
T4F00S00C1.4986
T5F00S00C1.5000
T6F00S00C3.6000
%
T01
X30000Y180000
X60000
X90000
X120000
X150000
X180000
X210000
X225000Y210000
X195000
X165000
X135000
X150000Y240000
X180000
X210000
X226060Y246380
Y256540
Y266700
Y276860
Y287020
Y297180
X233680Y308610
X243840Y320040
X285000Y330000
X300000Y360000
X330000
X345000Y330000
Y270000
X375000
X390000Y240000
X360000
X330000
X300000
X315000Y270000
X285000
X300000Y300000
X270000Y360000
X285000Y390000
X315000
X349468Y391914
X351468Y384914
X358468Y382914
X388468
X395468Y384914
X255000Y390000
X195000
X165000
X135000
X105000
X75000
X45000
X60000Y360000
X90000
X120000
X150000
X180000
X195580Y335280
Y323850
X198120Y309880
X208280Y299720
X180000Y300000
X150000
X120000
X90000
X60000
X30000
X45000Y330000
X75000
X105000
X135000
X165000
Y270000
X195000
X135000
X105000
X75000
X45000
X60000Y240000
X30000
X45000Y210000
X30000Y360000
X285000Y210000
X315000
X345000
X375000
X390000Y180000
X360000
X330000
X300000
X420000
X450000
X480000
X510000
X540000
X570000
X600000
X630000
X660000
X690000
X720000
X750000
X780000
X765000Y210000
X735000
X705000
X675000
X645000
X615000
X585000
X555000
X525000
X495000
X465000
X435000
X405000
X420000Y240000
X450000
X480000
X510000
X540000
X570000
X600000
X630000
X660000
X690000
X720000
X750000
X791210Y302260
X787400Y349250
X772160Y350520
X761140Y392430
X715010Y391160
X712880Y374650
X712470Y364490
X723040
X712880Y354330
X712470Y344170
X712880Y334010
X723900Y344170
X698500Y326390
X696370Y383540
X628650Y396240
X531270Y377190
Y355600
X532540Y336550
X495000Y330000
X465000
X480000Y300000
X450000
X465000Y270000
X495000
X435000
X405000
Y330000
X420000Y360000
X397468Y391914
X808990Y384810
X870000Y240000
X900000
X885000Y210000
X855000
X870000Y180000
X900000
X840000
X810000
X810260Y528320
X825500Y541020
Y515620
X792480
Y541020
X774700Y563880
Y589280
X759460Y576580
X741680Y589280
Y563880
X721360Y584200
X712470
X699770
X690880
X678180Y589280
Y614680
X690880Y624840
X701040
X712470
X721360
X739140
Y650240
X756920Y637540
X772160Y624840
Y650240
X769620Y695960
X739140
X715772Y692912
X716026Y671830
X681320Y659500
X672670
X670560Y650240
X649380Y654050
X657860Y635000
X645160Y614680
Y589280
X662940Y601980
X659130Y552450
X650240
X635410Y558800
X626520
X626110Y502920
X637540
X650240Y501650
Y510730
X659130Y510794
X692150Y523240
X692658Y540004
X716280Y520700
Y495300
X734060Y508000
X749300Y520700
Y495300
X707390Y408940
X698500
X688340
X676910
X666750
X656590
X654460Y417830
X645160Y408940
X635410
X628650Y411480
X621030
X628650Y403860
X634140Y417830
X674780
X695688Y417331
X715010Y400050
X557530
Y408940
Y417830
Y426720
Y435610
X539750Y419430
X543560Y474980
X552450
X534670
X525780
X516890
X505460Y481330
X450000Y480000
X441485Y495642
X433355
X425225
X417095
X408965
X400835
X404876Y501904
X413004
X421132
X429260
X437388
X445516
X458470Y497840
X459740Y508000
X461010Y516890
X467910Y549910
Y557530
Y565150
Y572770
X482910
Y565150
Y557530
Y549910
X505938Y553577
X505870Y542290
X515620Y551180
X505844Y565350
X516909Y579638
X528337Y582260
X523362Y587436
X534670Y588010
X543560
X552450
X561340
X559246Y579670
X555622Y624987
X563242
X570862
X578482
X586102
X547370Y624840
X543560Y632460
X514080Y624300
X486410Y645160
X490220Y651510
X482600
X495300Y657860
X492040Y690880
Y698500
Y706120
X507040
Y698500
Y690880
Y683260
X527050Y690880
X548640Y711200
Y718820
Y726440
X574040Y723900
X574193Y712195
X563880Y708660
X571500Y701040
X574040Y736600
X575000Y748000
X622300Y760730
X623570Y779780
X615950
X662940Y762000
X673100
X703580Y774700
Y784860
X716280Y789940
X723900Y779780
X739080Y774300
X681990Y704850
X671830
X659654Y707597
X650716Y707498
X477040Y706120
Y698500
Y690880
X462040
Y698500
Y706120
X447040
Y698500
Y690880
Y683260
X462040
X452910Y572770
Y565150
Y557530
Y549910
X437910
Y557530
Y565150
Y572770
X422910
Y565150
Y557530
Y549910
X420000Y480000
X390468Y467914
X381088Y476774
X373468
X365848
X365074Y495882
X356668Y495896
X348537
X340407
X332277
X324147
X316017
X307887
X299757
X291628
X288036Y502158
X296164
X304292
X312420
X320548
X328676
X336804
X344932
X353060
X361188
X380492Y501904
X388620
X396748
X392705Y495642
X384576
X377019Y495352
X377468Y457914
X369468
Y449914
X377468
X379984Y429260
X367284
X367468Y416914
X379468
X391468
X395400Y425235
X360680Y436880
X355600Y415290
X349250Y420260
X331834Y418166
X307340Y403860
X289560
X269240
X254000
X220980Y406400
X196850Y410210
X180000Y420000
X150000
X120000
X90000
X60000
X30000
X45000Y450000
X75000
X105000
X135000
X165000
X195000
X210000Y480000
X240000
X270000
X300000
X297180Y441960
X304800
X314960Y447040
X285000Y450000
X287020Y441960
X276860
X266700Y440690
X259080
X251460
X255000Y450000
Y510000
X225000
X195000
X165000
X135000
X105000
X75000
X45000
X60000Y540000
X90000
X120000
X150000
X180000
X210000
X240000
X270000
X300000
X315000Y570000
X285000
X255000
X225000
X195000
X165000
X135000
X105000
X75000
X45000
X60000Y600000
X90000
X120000
X150000
X180000
X210911Y592334
X208280Y619760
X218440
X228600
X213360Y627380
Y635000
Y642620
X205740Y640080
Y629920
X195000Y630000
X165000
X135000
X105000
X75000
X45000
X60000Y660000
X90000
X120000
X150000
X180000
X210000
X208280Y650240
X218440
X228600
X240000Y660000
X268951Y664718
X269240Y655320
X279400Y685800
X255000Y690000
X225000
X195000
X165000
X135000
X105000
X75000
X45000
X30000Y720000
Y660000
Y600000
Y540000
Y480000
X60000
X90000
X120000
X150000
X180000
X240000Y600000
X270000
X353060Y642620
Y652780
Y662940
Y673100
X309880Y685800
X307340Y840740
X314960
Y848360
X307340
X299720
X292100
X284480
X276860
Y840740
X284480
X292100
X299720
X322580
Y848360
X330200
X337820
Y840740
X345440
X353060
X360680
Y848360
X353060
X345440
X345000Y870000
X315000
X285000
X255000
X254000Y848360
Y840740
X246380
X238760
Y848360
X231140
X223520
X215900
Y855980
X223520
Y863600
X215900
Y871220
Y878840
Y886460
X223520
Y894080
X215900
X219710Y904240
Y914400
Y924560
Y934720
X210000Y960000
X240000
X270000
X300000
X330000
X360000
X390000
X375000Y990000
X345000
X315000
X285000
X255000
X225000
X195000
X210000Y1020000
X240000
X270000
X300000
X330000
X360000
X390000
X375000Y1050000
X345000
X315000
X285000
X255000
X270000Y1080000
X300000
X330000
X360000
X390000
X375000Y930000
X345000
X315000
X285000
X255000
X270000Y900000
X300000
X330000
X360000
X390000
X388620Y875030
X379730
X372110Y866140
X368300Y848360
Y840740
X330200
X269240
X261620
Y848360
X269240
X246380
X231140Y840740
X223520
X215900
X223520Y871220
Y878840
X240000Y900000
X180000Y1020000
X150000
X120000
X135000Y1050000
X165000
X150000Y1080000
X120000
X105000Y1050000
X75000
X45000
X60000Y1080000
X30000
Y1020000
X60000
X75000Y990000
X45000
X135000
X405000
X420000Y1020000
X450000
X480000
X510000
X540000
X555000Y1050000
X585000
X615000
X645000
X675000
X705000
X735000
X765000
X780000Y1080000
X750000
X720000
X690000
X660000
X630000
X600000
X570000
X540000
X510000
X480000
X450000
X420000
X435000Y1050000
X465000
X495000
X525000
Y990000
X540000Y960000
X525000Y930000
X540000Y900000
X510000
X525000Y870000
X527050Y848360
X534670
X542290
X549910
Y840740
X542290
X534670
X527050
X519430
Y848360
X511810
X504190
Y840740
X496570
Y848360
X488950
X481330
X473710
Y840740
X466090
Y848360
X458470
X450850
Y840740
X443230
Y848360
X435610
X427990
X420370
Y840740
X412750
Y848360
X405130
X397510
Y840740
X405130
X427990
X435610
X458470
X481330
X488950
X511810
X495000Y870000
X465000
X435000
X397510Y866140
X420000Y900000
X405000Y930000
Y1050000
X596900Y962660
X607060
X617220
Y972820
X635000
X637540Y962660
X627380
X647700
X657860Y972820
X675640
X695960
X713740
X718820Y932180
X713740Y916940
X726580Y899300
X751580
X739080Y924300
Y874300
X726440Y873760
X726580Y849300
X716280Y850900
Y843280
X693420
Y850900
X673100
Y843280
X652780Y815340
Y807720
Y800100
X623570Y798830
X615950
Y817880
X623570
X604520Y891540
X657860
X651580Y899300
X676580
X751580Y849300
Y799300
X736600Y797560
X855000Y1050000
X885000
X900000Y1080000
X870000
T02
X236220Y173990
X259080
X256540Y214630
X236540
X327660Y378460
X477520Y320040
X535080Y309880
X557940
X715366Y300184
X740766
X812800Y594360
Y618998
X802640Y670560
Y695960
X774954Y545084
Y519684
X537210Y434340
X229870Y458470
X184150Y619760
X736600Y833120
Y856418
Y947420
Y970718
T03
X90580Y854202
Y917702
X91440Y1012190
Y1075690
T04
X335280Y312420
X411480
T05
X309753Y286893
X360807
X385953
Y337947
X360807
X309753
X437007
Y286893
T06
X101600Y228600
X812800
X464820Y414020
X208280Y1071880
X462280Y946150
X817880Y1071880
M30
